<svg xmlns="http://www.w3.org/2000/svg" xmlns:xlink="http://www.w3.org/1999/xlink" width="40" zoomAndPan="magnify" viewBox="0 0 30 37.92" height="40" preserveAspectRatio="xMidYMid meet" version="1.0"><defs><clipPath id="f42378c297"><path d="M 3.113281 0.683594 L 26.886719 0.683594 L 26.886719 29.300781 L 3.113281 29.300781 Z M 3.113281 0.683594 " clip-rule="nonzero"/></clipPath><clipPath id="402d0a6d95"><path d="M 19.457031 1.550781 C 18.035156 0.976562 16.539062 0.683594 15 0.683594 C 13.460938 0.683594 11.964844 0.976562 10.542969 1.550781 C 9.078125 2.144531 7.757812 3.019531 6.632812 4.148438 C 4.429688 6.355469 3.199219 9.285156 3.167969 12.402344 C 3.136719 15.511719 4.304688 18.464844 6.460938 20.707031 L 6.453125 20.710938 L 15 29.257812 L 23.5 20.757812 L 23.492188 20.753906 C 25.667969 18.511719 26.855469 15.558594 26.832031 12.433594 C 26.8125 9.300781 25.582031 6.363281 23.367188 4.148438 C 22.234375 3.019531 20.921875 2.144531 19.457031 1.550781 Z M 19.457031 1.550781 " clip-rule="nonzero"/></clipPath><clipPath id="c55e56aec8"><path d="M 0.144531 0.683594 L 23.855469 0.683594 L 23.855469 29.300781 L 0.144531 29.300781 Z M 0.144531 0.683594 " clip-rule="nonzero"/></clipPath><clipPath id="db57140afc"><path d="M 16.457031 1.550781 C 15.035156 0.976562 13.539062 0.683594 12 0.683594 C 10.460938 0.683594 8.964844 0.976562 7.542969 1.550781 C 6.078125 2.144531 4.757812 3.019531 3.632812 4.148438 C 1.429688 6.355469 0.199219 9.285156 0.167969 12.402344 C 0.136719 15.511719 1.304688 18.464844 3.460938 20.707031 L 3.453125 20.710938 L 12 29.257812 L 20.5 20.757812 L 20.492188 20.753906 C 22.667969 18.511719 23.855469 15.558594 23.832031 12.433594 C 23.8125 9.300781 22.582031 6.363281 20.367188 4.148438 C 19.234375 3.019531 17.921875 2.144531 16.457031 1.550781 Z M 16.457031 1.550781 " clip-rule="nonzero"/></clipPath><clipPath id="78e127dbbf"><rect x="0" width="24" y="0" height="30"/></clipPath><clipPath id="45944a3ed1"><path d="M 4.261719 1.777344 L 25.738281 1.777344 L 25.738281 23.203125 L 4.261719 23.203125 Z M 4.261719 1.777344 " clip-rule="nonzero"/></clipPath><clipPath id="1e44cabaf6"><path d="M 14.996094 1.789062 C 9.089844 1.789062 4.300781 6.578125 4.300781 12.484375 C 4.300781 18.390625 9.089844 23.179688 14.996094 23.179688 C 20.902344 23.179688 25.691406 18.390625 25.691406 12.484375 C 25.691406 6.578125 20.902344 1.789062 14.996094 1.789062 Z M 14.996094 1.789062 " clip-rule="nonzero"/></clipPath><clipPath id="af22e7d9ee"><path d="M 0.261719 0.777344 L 21.738281 0.777344 L 21.738281 22.203125 L 0.261719 22.203125 Z M 0.261719 0.777344 " clip-rule="nonzero"/></clipPath><clipPath id="cecebd9edb"><path d="M 10.996094 0.789062 C 5.089844 0.789062 0.300781 5.578125 0.300781 11.484375 C 0.300781 17.390625 5.089844 22.179688 10.996094 22.179688 C 16.902344 22.179688 21.691406 17.390625 21.691406 11.484375 C 21.691406 5.578125 16.902344 0.789062 10.996094 0.789062 Z M 10.996094 0.789062 " clip-rule="nonzero"/></clipPath><clipPath id="e5ee36847e"><rect x="0" width="22" y="0" height="23"/></clipPath><clipPath id="63880fbf67"><path d="M 8.175781 13 L 10 13 L 10 19.34375 L 8.175781 19.34375 Z M 8.175781 13 " clip-rule="nonzero"/></clipPath><clipPath id="103c3b2d9a"><path d="M 20 13 L 21.648438 13 L 21.648438 19.34375 L 20 19.34375 Z M 20 13 " clip-rule="nonzero"/></clipPath><clipPath id="9ffd1bc55f"><path d="M 8.175781 19 L 21.648438 19 L 21.648438 19.34375 L 8.175781 19.34375 Z M 8.175781 19 " clip-rule="nonzero"/></clipPath><clipPath id="7c1fa47cd3"><path d="M 8.175781 9 L 14 9 L 14 13 L 8.175781 13 Z M 8.175781 9 " clip-rule="nonzero"/></clipPath><clipPath id="7c778987e5"><path d="M 16 9 L 21.648438 9 L 21.648438 13 L 16 13 Z M 16 9 " clip-rule="nonzero"/></clipPath><clipPath id="0030ce4dd0"><path d="M 8.175781 11 L 11 11 L 11 15 L 8.175781 15 Z M 8.175781 11 " clip-rule="nonzero"/></clipPath><clipPath id="41ab648cca"><path d="M 19 11 L 21.648438 11 L 21.648438 15 L 19 15 Z M 19 11 " clip-rule="nonzero"/></clipPath><clipPath id="d9614b3414"><path d="M 9 15 L 14 15 L 14 19.34375 L 9 19.34375 Z M 9 15 " clip-rule="nonzero"/></clipPath><clipPath id="39d3871eb6"><path d="M 11 5.871094 L 19 5.871094 L 19 14 L 11 14 Z M 11 5.871094 " clip-rule="nonzero"/></clipPath></defs><g clip-path="url(#f42378c297)"><g clip-path="url(#402d0a6d95)"><g transform="matrix(1, 0, 0, 1, 3, 0.000000000000005773)"><g clip-path="url(#78e127dbbf)"><g clip-path="url(#c55e56aec8)"><g clip-path="url(#db57140afc)"><path fill="#faab11" d="M 0.167969 0.683594 L 23.832031 0.683594 L 23.832031 29.25 L 0.167969 29.25 Z M 0.167969 0.683594 " fill-opacity="1" fill-rule="nonzero"/></g></g></g></g></g></g><g clip-path="url(#45944a3ed1)"><g clip-path="url(#1e44cabaf6)"><g transform="matrix(1, 0, 0, 1, 4, 1)"><g clip-path="url(#e5ee36847e)"><g clip-path="url(#af22e7d9ee)"><g clip-path="url(#cecebd9edb)"><rect x="-10.6" width="43.2" fill="#ffffff" height="54.6048" y="-9.3424" fill-opacity="1"/></g></g></g></g></g></g><g clip-path="url(#63880fbf67)"><path fill="#1800ad" d="M 8.941406 19.488281 C 8.820312 19.488281 8.726562 19.394531 8.726562 19.273438 L 8.726562 13.894531 C 8.726562 13.777344 8.820312 13.679688 8.941406 13.679688 C 9.058594 13.679688 9.152344 13.777344 9.152344 13.894531 L 9.152344 19.273438 C 9.152344 19.394531 9.058594 19.488281 8.941406 19.488281 Z M 8.941406 19.488281 " fill-opacity="1" fill-rule="nonzero"/></g><g clip-path="url(#103c3b2d9a)"><path fill="#1800ad" d="M 21.050781 19.488281 C 20.933594 19.488281 20.839844 19.394531 20.839844 19.273438 L 20.839844 13.894531 C 20.839844 13.777344 20.933594 13.679688 21.050781 13.679688 C 21.167969 13.679688 21.265625 13.777344 21.265625 13.894531 L 21.265625 19.273438 C 21.265625 19.394531 21.167969 19.488281 21.050781 19.488281 Z M 21.050781 19.488281 " fill-opacity="1" fill-rule="nonzero"/></g><g clip-path="url(#9ffd1bc55f)"><path fill="#1800ad" d="M 21.589844 19.488281 L 8.402344 19.488281 C 8.285156 19.488281 8.1875 19.394531 8.1875 19.273438 C 8.1875 19.15625 8.285156 19.0625 8.402344 19.0625 L 21.589844 19.0625 C 21.707031 19.0625 21.800781 19.15625 21.800781 19.273438 C 21.800781 19.394531 21.707031 19.488281 21.589844 19.488281 Z M 21.589844 19.488281 " fill-opacity="1" fill-rule="nonzero"/></g><g clip-path="url(#7c1fa47cd3)"><path fill="#1800ad" d="M 12.808594 12.222656 L 8.402344 12.222656 C 8.332031 12.222656 8.269531 12.1875 8.230469 12.132812 C 8.1875 12.078125 8.179688 12.007812 8.199219 11.941406 L 9.007812 9.519531 C 9.035156 9.433594 9.117188 9.375 9.207031 9.375 L 11.632812 9.375 C 11.75 9.375 11.847656 9.46875 11.847656 9.585938 C 11.847656 9.703125 11.75 9.800781 11.632812 9.800781 L 9.363281 9.800781 L 8.695312 11.796875 L 12.808594 11.796875 C 12.925781 11.796875 13.019531 11.890625 13.019531 12.007812 C 13.019531 12.125 12.925781 12.222656 12.808594 12.222656 Z M 12.808594 12.222656 " fill-opacity="1" fill-rule="nonzero"/></g><g clip-path="url(#7c778987e5)"><path fill="#1800ad" d="M 21.589844 12.222656 L 17.183594 12.222656 C 17.066406 12.222656 16.96875 12.125 16.96875 12.007812 C 16.96875 11.890625 17.066406 11.796875 17.183594 11.796875 L 21.292969 11.796875 L 20.628906 9.800781 L 18.355469 9.800781 C 18.238281 9.800781 18.144531 9.703125 18.144531 9.585938 C 18.144531 9.46875 18.238281 9.375 18.355469 9.375 L 20.78125 9.375 C 20.875 9.375 20.957031 9.433594 20.984375 9.519531 L 21.792969 11.941406 C 21.8125 12.007812 21.800781 12.078125 21.761719 12.132812 C 21.722656 12.1875 21.660156 12.222656 21.589844 12.222656 Z M 21.589844 12.222656 " fill-opacity="1" fill-rule="nonzero"/></g><g clip-path="url(#0030ce4dd0)"><path fill="#1800ad" d="M 9.226562 14.105469 C 8.652344 14.105469 8.1875 13.640625 8.1875 13.070312 L 8.1875 12.007812 C 8.1875 11.890625 8.285156 11.796875 8.402344 11.796875 L 10.050781 11.796875 C 10.167969 11.796875 10.261719 11.890625 10.261719 12.007812 L 10.261719 13.070312 C 10.261719 13.640625 9.796875 14.105469 9.226562 14.105469 Z M 8.613281 12.222656 L 8.613281 13.070312 C 8.613281 13.40625 8.886719 13.679688 9.226562 13.679688 C 9.5625 13.679688 9.835938 13.40625 9.835938 13.070312 L 9.835938 12.222656 Z M 8.613281 12.222656 " fill-opacity="1" fill-rule="nonzero"/></g><path fill="#1800ad" d="M 10.875 14.105469 C 10.300781 14.105469 9.835938 13.640625 9.835938 13.070312 L 9.835938 12.007812 C 9.835938 11.890625 9.933594 11.796875 10.050781 11.796875 L 11.699219 11.796875 C 11.816406 11.796875 11.910156 11.890625 11.910156 12.007812 L 11.910156 13.070312 C 11.910156 13.640625 11.445312 14.105469 10.875 14.105469 Z M 10.261719 12.222656 L 10.261719 13.070312 C 10.261719 13.40625 10.535156 13.679688 10.875 13.679688 C 11.210938 13.679688 11.484375 13.40625 11.484375 13.070312 L 11.484375 12.222656 Z M 10.261719 12.222656 " fill-opacity="1" fill-rule="nonzero"/><path fill="#1800ad" d="M 12.523438 14.105469 C 11.949219 14.105469 11.484375 13.640625 11.484375 13.070312 L 11.484375 12.007812 C 11.484375 11.890625 11.582031 11.796875 11.699219 11.796875 L 12.808594 11.796875 C 12.925781 11.796875 13.019531 11.890625 13.019531 12.007812 C 13.019531 12.125 12.925781 12.222656 12.808594 12.222656 L 11.910156 12.222656 L 11.910156 13.070312 C 11.910156 13.40625 12.1875 13.679688 12.523438 13.679688 C 12.859375 13.679688 13.132812 13.40625 13.132812 13.070312 L 13.132812 12.386719 C 13.132812 12.269531 13.230469 12.171875 13.347656 12.171875 C 13.464844 12.171875 13.558594 12.269531 13.558594 12.386719 L 13.558594 13.070312 C 13.558594 13.640625 13.09375 14.105469 12.523438 14.105469 Z M 12.523438 14.105469 " fill-opacity="1" fill-rule="nonzero"/><path fill="#1800ad" d="M 14.171875 14.105469 C 13.597656 14.105469 13.132812 13.640625 13.132812 13.070312 L 13.132812 12.386719 C 13.132812 12.269531 13.230469 12.171875 13.347656 12.171875 C 13.464844 12.171875 13.558594 12.269531 13.558594 12.386719 L 13.558594 13.070312 C 13.558594 13.40625 13.835938 13.679688 14.171875 13.679688 C 14.507812 13.679688 14.78125 13.40625 14.78125 13.070312 L 14.78125 12.816406 C 14.78125 12.699219 14.878906 12.605469 14.996094 12.605469 C 15.113281 12.605469 15.207031 12.699219 15.207031 12.816406 L 15.207031 13.070312 C 15.207031 13.640625 14.742188 14.105469 14.171875 14.105469 Z M 14.171875 14.105469 " fill-opacity="1" fill-rule="nonzero"/><path fill="#1800ad" d="M 15.820312 14.105469 C 15.246094 14.105469 14.78125 13.640625 14.78125 13.070312 L 14.78125 12.816406 C 14.78125 12.699219 14.878906 12.605469 14.996094 12.605469 C 15.113281 12.605469 15.207031 12.699219 15.207031 12.816406 L 15.207031 13.070312 C 15.207031 13.40625 15.484375 13.679688 15.820312 13.679688 C 16.15625 13.679688 16.429688 13.40625 16.429688 13.070312 L 16.429688 12.386719 C 16.429688 12.269531 16.527344 12.171875 16.644531 12.171875 C 16.761719 12.171875 16.855469 12.269531 16.855469 12.386719 L 16.855469 13.070312 C 16.855469 13.640625 16.390625 14.105469 15.820312 14.105469 Z M 15.820312 14.105469 " fill-opacity="1" fill-rule="nonzero"/><path fill="#1800ad" d="M 17.46875 14.105469 C 16.898438 14.105469 16.429688 13.640625 16.429688 13.070312 L 16.429688 12.386719 C 16.429688 12.269531 16.527344 12.171875 16.644531 12.171875 C 16.761719 12.171875 16.855469 12.269531 16.855469 12.386719 L 16.855469 13.070312 C 16.855469 13.40625 17.132812 13.679688 17.46875 13.679688 C 17.804688 13.679688 18.078125 13.40625 18.078125 13.070312 L 18.078125 12.222656 L 17.183594 12.222656 C 17.066406 12.222656 16.96875 12.125 16.96875 12.007812 C 16.96875 11.890625 17.066406 11.796875 17.183594 11.796875 L 18.292969 11.796875 C 18.410156 11.796875 18.503906 11.890625 18.503906 12.007812 L 18.503906 13.070312 C 18.503906 13.640625 18.039062 14.105469 17.46875 14.105469 Z M 17.46875 14.105469 " fill-opacity="1" fill-rule="nonzero"/><path fill="#1800ad" d="M 19.117188 14.105469 C 18.546875 14.105469 18.078125 13.640625 18.078125 13.070312 L 18.078125 12.007812 C 18.078125 11.890625 18.175781 11.796875 18.292969 11.796875 L 19.941406 11.796875 C 20.058594 11.796875 20.152344 11.890625 20.152344 12.007812 L 20.152344 13.070312 C 20.152344 13.640625 19.6875 14.105469 19.117188 14.105469 Z M 18.503906 12.222656 L 18.503906 13.070312 C 18.503906 13.40625 18.78125 13.679688 19.117188 13.679688 C 19.453125 13.679688 19.726562 13.40625 19.726562 13.070312 L 19.726562 12.222656 Z M 18.503906 12.222656 " fill-opacity="1" fill-rule="nonzero"/><g clip-path="url(#41ab648cca)"><path fill="#1800ad" d="M 20.765625 14.105469 C 20.195312 14.105469 19.726562 13.640625 19.726562 13.070312 L 19.726562 12.007812 C 19.726562 11.890625 19.824219 11.796875 19.941406 11.796875 L 21.589844 11.796875 C 21.707031 11.796875 21.804688 11.890625 21.804688 12.007812 L 21.804688 13.070312 C 21.800781 13.640625 21.335938 14.105469 20.765625 14.105469 Z M 20.152344 12.222656 L 20.152344 13.070312 C 20.152344 13.40625 20.429688 13.679688 20.765625 13.679688 C 21.101562 13.679688 21.378906 13.40625 21.378906 13.070312 L 21.378906 12.222656 Z M 20.152344 12.222656 " fill-opacity="1" fill-rule="nonzero"/></g><g clip-path="url(#d9614b3414)"><path fill="#1800ad" d="M 12.976562 19.488281 L 10.015625 19.488281 C 9.898438 19.488281 9.804688 19.394531 9.804688 19.273438 L 9.804688 15.507812 C 9.804688 15.390625 9.898438 15.296875 10.015625 15.296875 L 12.976562 15.296875 C 13.09375 15.296875 13.191406 15.390625 13.191406 15.507812 L 13.191406 19.273438 C 13.191406 19.394531 13.09375 19.488281 12.976562 19.488281 Z M 10.230469 19.0625 L 12.765625 19.0625 L 12.765625 15.722656 L 10.230469 15.722656 Z M 10.230469 19.0625 " fill-opacity="1" fill-rule="nonzero"/></g><path fill="#1800ad" d="M 19.976562 18.410156 L 14.054688 18.410156 C 13.9375 18.410156 13.839844 18.316406 13.839844 18.199219 L 13.839844 14.96875 C 13.839844 14.851562 13.9375 14.757812 14.054688 14.757812 L 19.976562 14.757812 C 20.09375 14.757812 20.1875 14.851562 20.1875 14.96875 L 20.1875 18.199219 C 20.1875 18.316406 20.09375 18.410156 19.976562 18.410156 Z M 14.265625 17.984375 L 19.761719 17.984375 L 19.761719 15.183594 L 14.265625 15.183594 Z M 14.265625 17.984375 " fill-opacity="1" fill-rule="nonzero"/><path fill="#1800ad" d="M 15.128906 18.410156 C 15.011719 18.410156 14.917969 18.316406 14.917969 18.199219 L 14.917969 14.96875 C 14.917969 14.851562 15.011719 14.757812 15.128906 14.757812 C 15.246094 14.757812 15.34375 14.851562 15.34375 14.96875 L 15.34375 18.199219 C 15.34375 18.316406 15.246094 18.410156 15.128906 18.410156 Z M 15.128906 18.410156 " fill-opacity="1" fill-rule="nonzero"/><path fill="#1800ad" d="M 18.898438 18.410156 C 18.78125 18.410156 18.683594 18.316406 18.683594 18.199219 L 18.683594 14.96875 C 18.683594 14.851562 18.78125 14.757812 18.898438 14.757812 C 19.015625 14.757812 19.109375 14.851562 19.109375 14.96875 L 19.109375 18.199219 C 19.109375 18.316406 19.015625 18.410156 18.898438 18.410156 Z M 18.898438 18.410156 " fill-opacity="1" fill-rule="nonzero"/><path fill="#1800ad" d="M 11.09375 17.605469 C 10.976562 17.605469 10.878906 17.511719 10.878906 17.390625 L 10.878906 17.125 C 10.878906 17.007812 10.976562 16.910156 11.09375 16.910156 C 11.210938 16.910156 11.304688 17.007812 11.304688 17.125 L 11.304688 17.390625 C 11.304688 17.511719 11.210938 17.605469 11.09375 17.605469 Z M 11.09375 17.605469 " fill-opacity="1" fill-rule="nonzero"/><g clip-path="url(#39d3871eb6)"><path fill="#1800ad" d="M 14.996094 13.03125 C 13.023438 13.03125 11.417969 11.425781 11.417969 9.453125 C 11.417969 7.480469 13.023438 5.875 14.996094 5.875 C 16.96875 5.875 18.574219 7.480469 18.574219 9.453125 C 18.574219 11.425781 16.96875 13.03125 14.996094 13.03125 Z M 14.996094 6.300781 C 13.257812 6.300781 11.84375 7.714844 11.84375 9.453125 C 11.84375 11.191406 13.257812 12.605469 14.996094 12.605469 C 16.734375 12.605469 18.148438 11.191406 18.148438 9.453125 C 18.148438 7.714844 16.734375 6.300781 14.996094 6.300781 Z M 14.996094 6.300781 " fill-opacity="1" fill-rule="nonzero"/></g><path fill="#1800ad" d="M 15.804688 11.011719 L 14.726562 11.011719 C 14.609375 11.011719 14.511719 10.914062 14.511719 10.796875 C 14.511719 10.679688 14.609375 10.585938 14.726562 10.585938 L 15.804688 10.585938 C 15.921875 10.585938 16.015625 10.679688 16.015625 10.796875 C 16.015625 10.914062 15.921875 11.011719 15.804688 11.011719 Z M 15.804688 11.011719 " fill-opacity="1" fill-rule="nonzero"/><path fill="#1800ad" d="M 16.417969 10.476562 C 16.394531 10.476562 16.371094 10.472656 16.347656 10.464844 C 16.234375 10.425781 16.179688 10.300781 16.21875 10.191406 L 16.710938 8.859375 L 13.695312 8.859375 C 13.578125 8.859375 13.480469 8.761719 13.480469 8.644531 C 13.480469 8.527344 13.578125 8.433594 13.695312 8.433594 L 17.015625 8.433594 C 17.082031 8.433594 17.148438 8.464844 17.1875 8.523438 C 17.230469 8.578125 17.238281 8.652344 17.214844 8.71875 L 16.621094 10.339844 C 16.589844 10.425781 16.507812 10.476562 16.417969 10.476562 Z M 16.417969 10.476562 " fill-opacity="1" fill-rule="nonzero"/><path fill="#1800ad" d="M 14.144531 10.472656 C 14.050781 10.472656 13.964844 10.414062 13.9375 10.320312 L 13.492188 8.707031 L 13.363281 8.320312 L 12.976562 8.320312 C 12.859375 8.320312 12.765625 8.222656 12.765625 8.105469 C 12.765625 7.988281 12.859375 7.894531 12.976562 7.894531 L 13.515625 7.894531 C 13.605469 7.894531 13.6875 7.953125 13.71875 8.039062 L 13.898438 8.578125 C 13.898438 8.582031 13.898438 8.585938 13.898438 8.585938 L 14.347656 10.203125 C 14.378906 10.316406 14.3125 10.433594 14.199219 10.464844 C 14.183594 10.472656 14.164062 10.472656 14.144531 10.472656 Z M 14.144531 10.472656 " fill-opacity="1" fill-rule="nonzero"/><path fill="#1800ad" d="M 16.339844 11.550781 C 15.925781 11.550781 15.589844 11.210938 15.589844 10.796875 C 15.589844 10.382812 15.925781 10.046875 16.339844 10.046875 C 16.753906 10.046875 17.09375 10.382812 17.09375 10.796875 C 17.09375 11.210938 16.753906 11.550781 16.339844 11.550781 Z M 16.339844 10.472656 C 16.160156 10.472656 16.015625 10.617188 16.015625 10.796875 C 16.015625 10.976562 16.160156 11.125 16.339844 11.125 C 16.519531 11.125 16.667969 10.976562 16.667969 10.796875 C 16.667969 10.617188 16.519531 10.472656 16.339844 10.472656 Z M 16.339844 10.472656 " fill-opacity="1" fill-rule="nonzero"/><path fill="#1800ad" d="M 14.1875 11.550781 C 13.773438 11.550781 13.4375 11.210938 13.4375 10.796875 C 13.4375 10.382812 13.773438 10.046875 14.1875 10.046875 C 14.601562 10.046875 14.9375 10.382812 14.9375 10.796875 C 14.9375 11.210938 14.601562 11.550781 14.1875 11.550781 Z M 14.1875 10.472656 C 14.007812 10.472656 13.863281 10.617188 13.863281 10.796875 C 13.863281 10.976562 14.007812 11.125 14.1875 11.125 C 14.367188 11.125 14.511719 10.976562 14.511719 10.796875 C 14.511719 10.617188 14.367188 10.472656 14.1875 10.472656 Z M 14.1875 10.472656 " fill-opacity="1" fill-rule="nonzero"/></svg>