<svg xmlns="http://www.w3.org/2000/svg" xmlns:xlink="http://www.w3.org/1999/xlink" width="80" zoomAndPan="magnify" viewBox="0 0 60 83.04" height="100" preserveAspectRatio="xMidYMid meet" version="1.0"><defs><clipPath id="15a6b0ea61"><path d="M 1.015625 2.230469 L 58.984375 2.230469 L 58.984375 72 L 1.015625 72 Z M 1.015625 2.230469 " clip-rule="nonzero"/></clipPath><clipPath id="304867591d"><path d="M 40.867188 4.34375 C 37.40625 2.945312 33.753906 2.230469 30 2.230469 C 26.246094 2.230469 22.59375 2.945312 19.132812 4.34375 C 15.558594 5.796875 12.339844 7.933594 9.589844 10.679688 C 4.21875 16.0625 1.21875 23.214844 1.140625 30.8125 C 1.066406 38.394531 3.914062 45.597656 9.171875 51.066406 L 9.15625 51.082031 L 30 71.921875 L 50.726562 51.195312 L 50.714844 51.183594 C 56.019531 45.710938 58.910156 38.507812 58.859375 30.886719 C 58.808594 23.253906 55.804688 16.089844 50.410156 10.679688 C 47.648438 7.933594 44.441406 5.796875 40.867188 4.34375 Z M 40.867188 4.34375 " clip-rule="nonzero"/></clipPath><clipPath id="07e589154c"><path d="M 0.0546875 0.230469 L 57.945312 0.230469 L 57.945312 70 L 0.0546875 70 Z M 0.0546875 0.230469 " clip-rule="nonzero"/></clipPath><clipPath id="74fd66c9f6"><path d="M 39.867188 2.34375 C 36.40625 0.945312 32.753906 0.230469 29 0.230469 C 25.246094 0.230469 21.59375 0.945312 18.132812 2.34375 C 14.558594 3.796875 11.339844 5.933594 8.589844 8.679688 C 3.21875 14.0625 0.21875 21.214844 0.140625 28.8125 C 0.0664062 36.394531 2.914062 43.597656 8.171875 49.066406 L 8.15625 49.082031 L 29 69.921875 L 49.726562 49.195312 L 49.714844 49.183594 C 55.019531 43.710938 57.910156 36.507812 57.859375 28.886719 C 57.808594 21.253906 54.804688 14.089844 49.410156 8.679688 C 46.648438 5.933594 43.441406 3.796875 39.867188 2.34375 Z M 39.867188 2.34375 " clip-rule="nonzero"/></clipPath><clipPath id="4c01a054f2"><rect x="0" width="58" y="0" height="70"/></clipPath><clipPath id="eab9cde38c"><path d="M 3.8125 4.902344 L 56.1875 4.902344 L 56.1875 57.152344 L 3.8125 57.152344 Z M 3.8125 4.902344 " clip-rule="nonzero"/></clipPath><clipPath id="df31ef2b90"><path d="M 29.988281 4.929688 C 15.582031 4.929688 3.902344 16.609375 3.902344 31.015625 C 3.902344 45.421875 15.582031 57.097656 29.988281 57.097656 C 44.394531 57.097656 56.070312 45.421875 56.070312 31.015625 C 56.070312 16.609375 44.394531 4.929688 29.988281 4.929688 Z M 29.988281 4.929688 " clip-rule="nonzero"/></clipPath><clipPath id="df6f33b5b8"><path d="M 0.902344 0.902344 L 53.097656 0.902344 L 53.097656 53.152344 L 0.902344 53.152344 Z M 0.902344 0.902344 " clip-rule="nonzero"/></clipPath><clipPath id="1f4eb541fc"><path d="M 26.988281 0.929688 C 12.582031 0.929688 0.902344 12.609375 0.902344 27.015625 C 0.902344 41.421875 12.582031 53.097656 26.988281 53.097656 C 41.394531 53.097656 53.070312 41.421875 53.070312 27.015625 C 53.070312 12.609375 41.394531 0.929688 26.988281 0.929688 Z M 26.988281 0.929688 " clip-rule="nonzero"/></clipPath><clipPath id="2869f20ca3"><rect x="0" width="54" y="0" height="54"/></clipPath><clipPath id="f37843475e"><path d="M 11 24 L 49 24 L 49 46.859375 L 11 46.859375 Z M 11 24 " clip-rule="nonzero"/></clipPath><clipPath id="290dcadc2e"><path d="M 9.277344 18 L 50.796875 18 L 50.796875 25 L 9.277344 25 Z M 9.277344 18 " clip-rule="nonzero"/></clipPath><clipPath id="e3117da52e"><path d="M 18 14.976562 L 20 14.976562 L 20 17 L 18 17 Z M 18 14.976562 " clip-rule="nonzero"/></clipPath><clipPath id="b5e9df1b2d"><path d="M 41 14.976562 L 43 14.976562 L 43 17 L 41 17 Z M 41 14.976562 " clip-rule="nonzero"/></clipPath></defs><g clip-path="url(#15a6b0ea61)"><g clip-path="url(#304867591d)"><g transform="matrix(1, 0, 0, 1, 1, 2)"><g clip-path="url(#4c01a054f2)"><g clip-path="url(#07e589154c)"><g clip-path="url(#74fd66c9f6)"><path fill="#1800ad" d="M 0.140625 0.230469 L 57.859375 0.230469 L 57.859375 69.898438 L 0.140625 69.898438 Z M 0.140625 0.230469 " fill-opacity="1" fill-rule="nonzero"/></g></g></g></g></g></g><g clip-path="url(#eab9cde38c)"><g clip-path="url(#df31ef2b90)"><g transform="matrix(1, 0, 0, 1, 3, 4)"><g clip-path="url(#2869f20ca3)"><g clip-path="url(#df6f33b5b8)"><g clip-path="url(#1f4eb541fc)"><rect x="-16.2" width="86.4" fill="#ffffff" height="119.5776" y="-22.2688" fill-opacity="1"/></g></g></g></g></g></g><g clip-path="url(#f37843475e)"><path fill="#faab11" d="M 11.671875 24.980469 C 11.566406 25.199219 11.511719 25.441406 11.511719 25.691406 L 11.511719 45.15625 C 11.511719 45.574219 11.664062 45.96875 11.945312 46.261719 C 12.226562 46.558594 12.597656 46.726562 12.996094 46.726562 L 46.988281 46.726562 C 47.386719 46.726562 47.753906 46.5625 48.039062 46.261719 C 48.320312 45.96875 48.472656 45.570312 48.472656 45.15625 L 48.472656 25.691406 C 48.472656 25.441406 48.417969 25.199219 48.3125 24.980469 Z M 37.382812 28.714844 L 41.25 28.714844 L 41.25 32.269531 L 37.382812 32.269531 Z M 45.863281 42.585938 L 34.261719 42.585938 L 34.261719 39.054688 L 45.863281 39.054688 Z M 32.757812 28.714844 L 36.625 28.714844 L 36.625 32.269531 L 32.757812 32.269531 Z M 28.128906 28.714844 L 31.996094 28.714844 L 31.996094 32.269531 L 28.128906 32.269531 Z M 23.503906 28.714844 L 27.371094 28.714844 L 27.371094 32.269531 L 23.503906 32.269531 Z M 25.425781 42.585938 L 13.820312 42.585938 L 13.820312 39.054688 L 25.425781 39.054688 Z M 18.875 28.714844 L 22.742188 28.714844 L 22.742188 32.269531 L 18.875 32.269531 Z M 14.25 28.714844 L 18.117188 28.714844 L 18.117188 32.269531 L 14.25 32.269531 Z M 33.640625 46.453125 L 26.367188 46.453125 L 26.367188 38.769531 L 29.898438 38.769531 L 29.898438 38.785156 L 29.914062 46.4375 L 29.914062 46.449219 L 30.085938 46.449219 L 30.085938 46.441406 L 30.070312 38.789062 L 30.070312 38.773438 L 33.640625 38.773438 Z M 45.875 32.269531 L 42.007812 32.269531 L 42.007812 28.714844 L 45.875 28.714844 Z M 45.875 32.269531 " fill-opacity="1" fill-rule="nonzero"/></g><g clip-path="url(#290dcadc2e)"><path fill="#faab11" d="M 11.664062 24.964844 L 50.714844 24.964844 L 47.054688 18.011719 L 42.433594 18.011719 L 42.433594 19.578125 C 42.433594 20.375 41.824219 21.019531 41.070312 21.019531 L 19.523438 21.019531 C 18.769531 21.019531 18.15625 20.371094 18.15625 19.578125 L 18.15625 18.011719 L 12.65625 18.011719 L 9.277344 24.964844 Z M 11.664062 24.964844 " fill-opacity="1" fill-rule="nonzero"/></g><path fill="#faab11" d="M 18.5625 15.417969 C 18.304688 15.683594 18.164062 16.046875 18.164062 16.425781 L 18.164062 19.574219 C 18.164062 19.957031 18.304688 20.316406 18.5625 20.582031 C 18.816406 20.851562 19.15625 21 19.515625 21 L 41.070312 21 C 41.429688 21 41.769531 20.851562 42.023438 20.582031 C 42.28125 20.316406 42.421875 19.953125 42.421875 19.574219 L 42.421875 16.425781 C 42.421875 16.042969 42.28125 15.683594 42.023438 15.417969 C 41.769531 15.148438 41.429688 15 41.070312 15 L 19.523438 15 C 19.15625 15 18.816406 15.148438 18.5625 15.417969 Z M 35.519531 17.519531 C 35.808594 17.296875 36.199219 17.183594 36.6875 17.183594 C 37.15625 17.183594 37.535156 17.289062 37.828125 17.496094 C 38.011719 17.632812 38.140625 17.796875 38.207031 17.992188 C 38.207031 17.996094 38.210938 18.003906 38.210938 18.007812 C 38.246094 18.113281 38.261719 18.226562 38.261719 18.351562 C 38.261719 18.382812 38.261719 18.421875 38.257812 18.472656 L 36.289062 18.472656 C 36.292969 18.609375 36.324219 18.710938 36.386719 18.777344 C 36.449219 18.84375 36.566406 18.875 36.738281 18.875 C 36.992188 18.875 37.136719 18.785156 37.179688 18.609375 L 38.253906 18.664062 C 38.191406 18.875 38.03125 19.054688 37.765625 19.203125 C 37.507812 19.355469 37.152344 19.429688 36.703125 19.429688 C 36.210938 19.429688 35.816406 19.324219 35.519531 19.113281 C 35.222656 18.902344 35.078125 18.640625 35.078125 18.328125 C 35.078125 18.214844 35.097656 18.105469 35.136719 18.003906 C 35.136719 17.996094 35.140625 17.992188 35.140625 17.988281 C 35.210938 17.816406 35.335938 17.660156 35.519531 17.519531 Z M 32.40625 17.503906 C 32.683594 17.289062 33.042969 17.183594 33.492188 17.183594 C 33.890625 17.183594 34.210938 17.261719 34.457031 17.425781 C 34.691406 17.578125 34.832031 17.769531 34.875 17.992188 C 34.875 17.996094 34.875 18.003906 34.878906 18.007812 C 34.878906 18.015625 34.886719 18.027344 34.886719 18.039062 L 33.875 18.097656 C 33.871094 18.0625 33.863281 18.03125 33.855469 18.007812 C 33.855469 18.003906 33.851562 17.996094 33.851562 17.992188 C 33.792969 17.835938 33.6875 17.761719 33.523438 17.761719 C 33.402344 17.761719 33.3125 17.800781 33.253906 17.882812 C 33.234375 17.914062 33.21875 17.949219 33.207031 17.992188 C 33.207031 17.996094 33.203125 18.003906 33.203125 18.007812 C 33.179688 18.085938 33.171875 18.1875 33.171875 18.316406 C 33.171875 18.492188 33.199219 18.625 33.253906 18.707031 C 33.3125 18.789062 33.410156 18.835938 33.550781 18.835938 C 33.757812 18.835938 33.882812 18.730469 33.917969 18.511719 L 34.898438 18.574219 C 34.851562 18.824219 34.710938 19.03125 34.46875 19.191406 C 34.222656 19.351562 33.902344 19.429688 33.503906 19.429688 C 33.054688 19.429688 32.6875 19.324219 32.410156 19.117188 C 32.128906 18.910156 31.988281 18.644531 31.988281 18.320312 C 31.988281 18.210938 32.003906 18.105469 32.035156 18.007812 C 32.035156 18.003906 32.039062 17.996094 32.039062 17.992188 C 32.101562 17.808594 32.226562 17.644531 32.40625 17.503906 Z M 30.398438 16.402344 L 31.535156 16.402344 L 31.535156 17.070312 L 30.398438 17.070312 Z M 30.398438 17.230469 L 31.535156 17.230469 L 31.535156 19.390625 L 30.398438 19.390625 Z M 28.261719 17.230469 L 28.609375 17.230469 C 28.609375 17.007812 28.636719 16.835938 28.691406 16.726562 C 28.746094 16.609375 28.863281 16.523438 29.035156 16.453125 C 29.210938 16.382812 29.445312 16.347656 29.746094 16.347656 C 29.855469 16.347656 29.972656 16.351562 30.09375 16.359375 L 30.09375 16.914062 L 30.050781 16.914062 C 29.957031 16.914062 29.882812 16.925781 29.824219 16.949219 C 29.769531 16.976562 29.734375 17.003906 29.71875 17.039062 C 29.699219 17.074219 29.695312 17.132812 29.695312 17.226562 L 30.09375 17.226562 L 30.09375 17.777344 L 29.695312 17.777344 L 29.695312 19.390625 L 28.613281 19.390625 L 28.613281 17.777344 L 28.261719 17.777344 Z M 25.851562 17.230469 L 26.292969 17.230469 C 26.292969 17.054688 26.300781 16.921875 26.324219 16.835938 C 26.34375 16.75 26.398438 16.667969 26.480469 16.589844 C 26.566406 16.507812 26.679688 16.453125 26.820312 16.40625 C 26.960938 16.367188 27.15625 16.347656 27.398438 16.347656 C 27.65625 16.347656 27.902344 16.359375 28.140625 16.390625 L 28.140625 16.945312 C 27.957031 16.925781 27.820312 16.917969 27.730469 16.917969 C 27.640625 16.917969 27.558594 16.933594 27.484375 16.957031 C 27.410156 16.984375 27.371094 17.050781 27.371094 17.15625 L 27.371094 17.230469 L 28.125 17.230469 L 28.125 17.78125 L 27.378906 17.78125 L 27.378906 19.390625 L 26.292969 19.390625 L 26.292969 17.777344 L 25.851562 17.777344 Z M 22.410156 16.871094 C 22.746094 16.589844 23.207031 16.449219 23.804688 16.449219 C 24.355469 16.449219 24.796875 16.578125 25.148438 16.847656 C 25.496094 17.113281 25.667969 17.46875 25.667969 17.914062 C 25.667969 17.945312 25.667969 17.972656 25.667969 18.003906 C 25.667969 18.007812 25.667969 18.011719 25.667969 18.015625 C 25.644531 18.429688 25.46875 18.765625 25.148438 19.019531 C 24.796875 19.296875 24.347656 19.433594 23.792969 19.433594 C 23.238281 19.433594 22.785156 19.296875 22.4375 19.027344 C 22.105469 18.773438 21.929688 18.433594 21.914062 18.011719 C 21.914062 18.007812 21.914062 18.003906 21.914062 17.996094 C 21.914062 17.980469 21.914062 17.960938 21.914062 17.945312 C 21.910156 17.507812 22.078125 17.152344 22.410156 16.871094 Z M 22.410156 16.871094 " fill-opacity="1" fill-rule="nonzero"/><g clip-path="url(#e3117da52e)"><path fill="#faab11" d="M 19.523438 14.984375 L 19.15625 14.984375 C 18.605469 14.984375 18.15625 15.429688 18.15625 15.984375 L 18.15625 16.429688 C 18.15625 15.632812 18.765625 14.984375 19.523438 14.984375 Z M 19.523438 14.984375 " fill-opacity="1" fill-rule="nonzero"/></g><g clip-path="url(#b5e9df1b2d)"><path fill="#faab11" d="M 42.433594 16.425781 L 42.433594 15.984375 C 42.433594 15.433594 41.988281 14.984375 41.433594 14.984375 L 41.070312 14.984375 C 41.828125 14.984375 42.433594 15.632812 42.433594 16.425781 Z M 42.433594 16.425781 " fill-opacity="1" fill-rule="nonzero"/></g><path fill="#faab11" d="M 37.101562 18.011719 C 37.101562 18.007812 37.101562 18.003906 37.101562 17.996094 C 37.09375 17.882812 37.050781 17.804688 36.980469 17.761719 C 36.902344 17.710938 36.804688 17.683594 36.691406 17.683594 C 36.441406 17.683594 36.304688 17.789062 36.285156 17.996094 C 36.285156 18.003906 36.285156 18.007812 36.285156 18.011719 C 36.285156 18.023438 36.285156 18.039062 36.285156 18.054688 L 37.105469 18.054688 C 37.105469 18.039062 37.101562 18.023438 37.101562 18.011719 Z M 37.101562 18.011719 " fill-opacity="1" fill-rule="nonzero"/><path fill="#faab11" d="M 23.214844 18.011719 C 23.222656 18.523438 23.414062 18.773438 23.785156 18.773438 C 23.988281 18.773438 24.136719 18.707031 24.226562 18.574219 C 24.300781 18.464844 24.34375 18.277344 24.359375 18.007812 C 24.359375 18.003906 24.359375 17.996094 24.359375 17.992188 C 24.359375 17.949219 24.363281 17.90625 24.363281 17.855469 C 24.363281 17.355469 24.175781 17.097656 23.8125 17.097656 C 23.414062 17.097656 23.21875 17.386719 23.21875 17.960938 C 23.21875 17.972656 23.21875 17.984375 23.21875 17.992188 C 23.214844 18.003906 23.214844 18.007812 23.214844 18.011719 Z M 23.214844 18.011719 " fill-opacity="1" fill-rule="nonzero"/></svg>