<svg xmlns="http://www.w3.org/2000/svg" xmlns:xlink="http://www.w3.org/1999/xlink" width="80" zoomAndPan="magnify" viewBox="0 0 60 83.04" height="100" preserveAspectRatio="xMidYMid meet" version="1.0"><defs><clipPath id="2ce7a15328"><path d="M 1.015625 2.230469 L 58.984375 2.230469 L 58.984375 72 L 1.015625 72 Z M 1.015625 2.230469 " clip-rule="nonzero"/></clipPath><clipPath id="9a3ed88806"><path d="M 40.867188 4.34375 C 37.40625 2.945312 33.753906 2.230469 30 2.230469 C 26.246094 2.230469 22.59375 2.945312 19.132812 4.34375 C 15.558594 5.796875 12.339844 7.933594 9.589844 10.679688 C 4.21875 16.0625 1.21875 23.214844 1.140625 30.8125 C 1.066406 38.394531 3.914062 45.597656 9.171875 51.066406 L 9.15625 51.082031 L 30 71.921875 L 50.726562 51.195312 L 50.714844 51.183594 C 56.019531 45.710938 58.910156 38.507812 58.859375 30.886719 C 58.808594 23.253906 55.804688 16.089844 50.410156 10.679688 C 47.648438 7.933594 44.441406 5.796875 40.867188 4.34375 Z M 40.867188 4.34375 " clip-rule="nonzero"/></clipPath><clipPath id="d37c78179d"><path d="M 0.0546875 0.230469 L 57.945312 0.230469 L 57.945312 70 L 0.0546875 70 Z M 0.0546875 0.230469 " clip-rule="nonzero"/></clipPath><clipPath id="ccd5fa74d7"><path d="M 39.867188 2.34375 C 36.40625 0.945312 32.753906 0.230469 29 0.230469 C 25.246094 0.230469 21.59375 0.945312 18.132812 2.34375 C 14.558594 3.796875 11.339844 5.933594 8.589844 8.679688 C 3.21875 14.0625 0.21875 21.214844 0.140625 28.8125 C 0.0664062 36.394531 2.914062 43.597656 8.171875 49.066406 L 8.15625 49.082031 L 29 69.921875 L 49.726562 49.195312 L 49.714844 49.183594 C 55.019531 43.710938 57.910156 36.507812 57.859375 28.886719 C 57.808594 21.253906 54.804688 14.089844 49.410156 8.679688 C 46.648438 5.933594 43.441406 3.796875 39.867188 2.34375 Z M 39.867188 2.34375 " clip-rule="nonzero"/></clipPath><clipPath id="87b6a61337"><rect x="0" width="58" y="0" height="70"/></clipPath><clipPath id="22a40bbcef"><path d="M 3.8125 4.902344 L 56.1875 4.902344 L 56.1875 57.152344 L 3.8125 57.152344 Z M 3.8125 4.902344 " clip-rule="nonzero"/></clipPath><clipPath id="f6868828a4"><path d="M 29.988281 4.929688 C 15.582031 4.929688 3.902344 16.609375 3.902344 31.015625 C 3.902344 45.421875 15.582031 57.097656 29.988281 57.097656 C 44.394531 57.097656 56.070312 45.421875 56.070312 31.015625 C 56.070312 16.609375 44.394531 4.929688 29.988281 4.929688 Z M 29.988281 4.929688 " clip-rule="nonzero"/></clipPath><clipPath id="fdd2d23880"><path d="M 0.902344 0.902344 L 53.097656 0.902344 L 53.097656 53.152344 L 0.902344 53.152344 Z M 0.902344 0.902344 " clip-rule="nonzero"/></clipPath><clipPath id="56800a0384"><path d="M 26.988281 0.929688 C 12.582031 0.929688 0.902344 12.609375 0.902344 27.015625 C 0.902344 41.421875 12.582031 53.097656 26.988281 53.097656 C 41.394531 53.097656 53.070312 41.421875 53.070312 27.015625 C 53.070312 12.609375 41.394531 0.929688 26.988281 0.929688 Z M 26.988281 0.929688 " clip-rule="nonzero"/></clipPath><clipPath id="c5d6257df0"><rect x="0" width="54" y="0" height="54"/></clipPath><clipPath id="65ad30a7b6"><path d="M 10.511719 9.0625 L 49.808594 9.0625 L 49.808594 46.878906 L 10.511719 46.878906 Z M 10.511719 9.0625 " clip-rule="nonzero"/></clipPath></defs><g clip-path="url(#2ce7a15328)"><g clip-path="url(#9a3ed88806)"><g transform="matrix(1, 0, 0, 1, 1, 2)"><g clip-path="url(#87b6a61337)"><g clip-path="url(#d37c78179d)"><g clip-path="url(#ccd5fa74d7)"><path fill="#1800ad" d="M 0.140625 0.230469 L 57.859375 0.230469 L 57.859375 69.898438 L 0.140625 69.898438 Z M 0.140625 0.230469 " fill-opacity="1" fill-rule="nonzero"/></g></g></g></g></g></g><g clip-path="url(#22a40bbcef)"><g clip-path="url(#f6868828a4)"><g transform="matrix(1, 0, 0, 1, 3, 4)"><g clip-path="url(#c5d6257df0)"><g clip-path="url(#fdd2d23880)"><g clip-path="url(#56800a0384)"><rect x="-16.2" width="86.4" fill="#ffffff" height="119.5776" y="-22.2688" fill-opacity="1"/></g></g></g></g></g></g><g clip-path="url(#65ad30a7b6)"><path fill="#faab11" d="M 14.203125 18.125 L 14.203125 16.074219 C 14.203125 15.890625 14.328125 15.738281 14.507812 15.703125 L 15.617188 15.484375 L 16.410156 13.5625 L 15.785156 12.625 C 15.679688 12.472656 15.699219 12.273438 15.832031 12.144531 L 17.28125 10.695312 C 17.410156 10.566406 17.609375 10.546875 17.761719 10.648438 L 18.695312 11.277344 L 20.621094 10.480469 L 20.835938 9.375 C 20.871094 9.195312 21.027344 9.066406 21.210938 9.066406 L 23.261719 9.066406 C 23.445312 9.066406 23.597656 9.195312 23.632812 9.375 L 23.851562 10.480469 L 25.773438 11.277344 L 26.710938 10.648438 C 26.863281 10.546875 27.0625 10.566406 27.191406 10.695312 L 28.640625 12.144531 C 28.769531 12.273438 28.789062 12.472656 28.6875 12.625 L 28.058594 13.5625 L 28.855469 15.484375 L 29.960938 15.703125 C 30.140625 15.738281 30.269531 15.890625 30.269531 16.074219 L 30.269531 18.125 C 30.269531 18.308594 30.140625 18.464844 29.960938 18.5 L 28.855469 18.714844 L 28.296875 20.0625 L 25.097656 20.0625 C 25.875 19.3125 26.355469 18.261719 26.355469 17.101562 C 26.355469 14.824219 24.511719 12.980469 22.234375 12.980469 C 19.960938 12.980469 18.117188 14.824219 18.117188 17.101562 C 18.117188 19.375 19.960938 21.21875 22.234375 21.21875 C 22.886719 21.21875 23.5 21.070312 24.046875 20.800781 L 24.046875 22.6875 L 23.253906 22.6875 C 22.945312 22.6875 22.695312 22.9375 22.695312 23.242188 L 22.695312 25.132812 L 21.210938 25.132812 C 21.027344 25.132812 20.871094 25.007812 20.835938 24.828125 L 20.621094 23.71875 L 18.695312 22.925781 L 17.761719 23.550781 C 17.609375 23.65625 17.410156 23.636719 17.28125 23.503906 L 15.832031 22.054688 C 15.699219 21.925781 15.679688 21.726562 15.785156 21.574219 L 16.410156 20.640625 L 15.613281 18.714844 L 14.507812 18.5 C 14.328125 18.464844 14.203125 18.308594 14.203125 18.125 Z M 40.1875 23.433594 L 39.4375 34.898438 L 45.328125 34.898438 L 44.578125 23.433594 Z M 39.785156 22.320312 L 44.980469 22.320312 C 45.203125 22.320312 45.386719 22.136719 45.386719 21.914062 L 45.386719 20.542969 C 45.386719 20.316406 45.203125 20.132812 44.980469 20.132812 L 39.785156 20.132812 C 39.5625 20.132812 39.378906 20.316406 39.378906 20.542969 L 39.378906 21.914062 C 39.378906 22.136719 39.5625 22.320312 39.785156 22.320312 Z M 25.160156 22.6875 L 34.320312 22.6875 L 34.320312 21.175781 L 25.160156 21.175781 Z M 16.207031 32.203125 L 12.398438 32.203125 L 12.398438 43.894531 L 16.207031 43.894531 Z M 32.894531 43.894531 L 32.894531 37.394531 C 32.894531 36.453125 32.128906 35.6875 31.191406 35.6875 L 28.292969 35.6875 C 27.351562 35.6875 26.585938 36.453125 26.585938 37.394531 L 26.585938 43.894531 L 23.808594 43.894531 L 23.808594 23.800781 L 35.671875 23.800781 C 35.671875 23.800781 35.671875 43.894531 35.671875 43.894531 Z M 32.828125 26.609375 L 26.652344 26.609375 L 26.652344 29.183594 L 32.828125 29.183594 Z M 28.292969 36.804688 C 27.964844 36.804688 27.699219 37.070312 27.699219 37.394531 L 27.699219 43.894531 L 31.78125 43.894531 L 31.78125 37.394531 C 31.78125 37.070312 31.515625 36.804688 31.191406 36.804688 Z M 47.472656 43.894531 L 36.785156 43.894531 L 36.785156 36.011719 L 47.472656 36.011719 Z M 43.550781 38.574219 L 40.707031 38.574219 L 40.707031 41.910156 L 43.550781 41.910156 Z M 17.320312 28.660156 L 22.695312 26.378906 L 22.695312 43.894531 L 17.320312 43.894531 Z M 19.128906 37.621094 L 20.890625 37.621094 L 20.890625 32.996094 L 19.128906 32.996094 Z M 10.511719 45.007812 L 10.511719 46.59375 L 49.484375 46.59375 L 49.484375 45.007812 Z M 10.511719 45.007812 " fill-opacity="1" fill-rule="evenodd"/></g></svg>