<svg xmlns="http://www.w3.org/2000/svg" xmlns:xlink="http://www.w3.org/1999/xlink" width="80" zoomAndPan="magnify" viewBox="0 0 60 83.04" height="100" preserveAspectRatio="xMidYMid meet" version="1.0"><defs><clipPath id="2e8a7e4f09"><path d="M 1.015625 2.230469 L 58.984375 2.230469 L 58.984375 72 L 1.015625 72 Z M 1.015625 2.230469 " clip-rule="nonzero"/></clipPath><clipPath id="7130ab4ece"><path d="M 40.867188 4.34375 C 37.40625 2.945312 33.753906 2.230469 30 2.230469 C 26.246094 2.230469 22.59375 2.945312 19.132812 4.34375 C 15.558594 5.796875 12.339844 7.933594 9.589844 10.679688 C 4.21875 16.0625 1.21875 23.214844 1.140625 30.8125 C 1.066406 38.394531 3.914062 45.597656 9.171875 51.066406 L 9.15625 51.082031 L 30 71.921875 L 50.726562 51.195312 L 50.714844 51.183594 C 56.019531 45.710938 58.910156 38.507812 58.859375 30.886719 C 58.808594 23.253906 55.804688 16.089844 50.410156 10.679688 C 47.648438 7.933594 44.441406 5.796875 40.867188 4.34375 Z M 40.867188 4.34375 " clip-rule="nonzero"/></clipPath><clipPath id="e88932da7d"><path d="M 0.0546875 0.230469 L 57.945312 0.230469 L 57.945312 70 L 0.0546875 70 Z M 0.0546875 0.230469 " clip-rule="nonzero"/></clipPath><clipPath id="7328008db8"><path d="M 39.867188 2.34375 C 36.40625 0.945312 32.753906 0.230469 29 0.230469 C 25.246094 0.230469 21.59375 0.945312 18.132812 2.34375 C 14.558594 3.796875 11.339844 5.933594 8.589844 8.679688 C 3.21875 14.0625 0.21875 21.214844 0.140625 28.8125 C 0.0664062 36.394531 2.914062 43.597656 8.171875 49.066406 L 8.15625 49.082031 L 29 69.921875 L 49.726562 49.195312 L 49.714844 49.183594 C 55.019531 43.710938 57.910156 36.507812 57.859375 28.886719 C 57.808594 21.253906 54.804688 14.089844 49.410156 8.679688 C 46.648438 5.933594 43.441406 3.796875 39.867188 2.34375 Z M 39.867188 2.34375 " clip-rule="nonzero"/></clipPath><clipPath id="0e9c51ffdf"><rect x="0" width="58" y="0" height="70"/></clipPath><clipPath id="c1f3e215a2"><path d="M 3.8125 4.902344 L 56.1875 4.902344 L 56.1875 57.152344 L 3.8125 57.152344 Z M 3.8125 4.902344 " clip-rule="nonzero"/></clipPath><clipPath id="c5e7b58b66"><path d="M 29.988281 4.929688 C 15.582031 4.929688 3.902344 16.609375 3.902344 31.015625 C 3.902344 45.421875 15.582031 57.097656 29.988281 57.097656 C 44.394531 57.097656 56.070312 45.421875 56.070312 31.015625 C 56.070312 16.609375 44.394531 4.929688 29.988281 4.929688 Z M 29.988281 4.929688 " clip-rule="nonzero"/></clipPath><clipPath id="d24aafda37"><path d="M 0.902344 0.902344 L 53.097656 0.902344 L 53.097656 53.152344 L 0.902344 53.152344 Z M 0.902344 0.902344 " clip-rule="nonzero"/></clipPath><clipPath id="79afb991ac"><path d="M 26.988281 0.929688 C 12.582031 0.929688 0.902344 12.609375 0.902344 27.015625 C 0.902344 41.421875 12.582031 53.097656 26.988281 53.097656 C 41.394531 53.097656 53.070312 41.421875 53.070312 27.015625 C 53.070312 12.609375 41.394531 0.929688 26.988281 0.929688 Z M 26.988281 0.929688 " clip-rule="nonzero"/></clipPath><clipPath id="2c96fa908a"><rect x="0" width="54" y="0" height="54"/></clipPath><clipPath id="8a0978f39e"><path d="M 19 35 L 26 35 L 26 46.578125 L 19 46.578125 Z M 19 35 " clip-rule="nonzero"/></clipPath><clipPath id="1502144838"><path d="M 42 40 L 50.453125 40 L 50.453125 46.578125 L 42 46.578125 Z M 42 40 " clip-rule="nonzero"/></clipPath><clipPath id="e9eaf7936e"><path d="M 11 13.957031 L 49 13.957031 L 49 31 L 11 31 Z M 11 13.957031 " clip-rule="nonzero"/></clipPath><clipPath id="15b30c3f00"><path d="M 15 18 L 45 18 L 45 46.578125 L 15 46.578125 Z M 15 18 " clip-rule="nonzero"/></clipPath><clipPath id="189c1090d2"><path d="M 9.671875 40 L 15 40 L 15 46.578125 L 9.671875 46.578125 Z M 9.671875 40 " clip-rule="nonzero"/></clipPath></defs><g clip-path="url(#2e8a7e4f09)"><g clip-path="url(#7130ab4ece)"><g transform="matrix(1, 0, 0, 1, 1, 2)"><g clip-path="url(#0e9c51ffdf)"><g clip-path="url(#e88932da7d)"><g clip-path="url(#7328008db8)"><path fill="#1800ad" d="M 0.140625 0.230469 L 57.859375 0.230469 L 57.859375 69.898438 L 0.140625 69.898438 Z M 0.140625 0.230469 " fill-opacity="1" fill-rule="nonzero"/></g></g></g></g></g></g><g clip-path="url(#c1f3e215a2)"><g clip-path="url(#c5e7b58b66)"><g transform="matrix(1, 0, 0, 1, 3, 4)"><g clip-path="url(#2c96fa908a)"><g clip-path="url(#d24aafda37)"><g clip-path="url(#79afb991ac)"><rect x="-16.2" width="86.4" fill="#ffffff" height="119.5776" y="-22.2688" fill-opacity="1"/></g></g></g></g></g></g><g clip-path="url(#8a0978f39e)"><path fill="#faab11" d="M 19.816406 35 L 25.613281 35 L 25.613281 46.59375 L 19.816406 46.59375 Z M 19.816406 35 " fill-opacity="1" fill-rule="nonzero"/></g><g clip-path="url(#1502144838)"><path fill="#faab11" d="M 48.695312 43 C 48.449219 42.964844 48.269531 42.839844 48.152344 42.621094 C 48.085938 42.484375 48.058594 42.339844 48.078125 42.191406 C 48.070312 42.003906 48.027344 41.824219 47.953125 41.652344 C 47.875 41.480469 47.769531 41.332031 47.632812 41.203125 C 47.5 41.070312 47.34375 40.972656 47.171875 40.902344 C 46.996094 40.832031 46.816406 40.796875 46.628906 40.796875 C 46.261719 40.796875 45.9375 40.921875 45.667969 41.167969 C 45.339844 41.453125 45.175781 41.8125 45.179688 42.246094 C 45.179688 42.414062 45.210938 42.574219 45.269531 42.730469 C 45.3125 42.839844 45.328125 42.957031 45.3125 43.074219 C 45.296875 43.191406 45.257812 43.300781 45.1875 43.398438 C 45.121094 43.496094 45.035156 43.570312 44.929688 43.628906 C 44.824219 43.683594 44.710938 43.710938 44.59375 43.710938 C 44.558594 43.710938 44.449219 43.699219 44.417969 43.695312 C 44.222656 43.699219 44.039062 43.738281 43.863281 43.8125 C 43.6875 43.890625 43.53125 43.996094 43.398438 44.132812 C 43.261719 44.269531 43.160156 44.429688 43.089844 44.609375 C 43.019531 44.785156 42.984375 44.972656 42.984375 45.164062 C 42.988281 45.355469 43.027344 45.539062 43.105469 45.71875 C 43.179688 45.894531 43.285156 46.050781 43.425781 46.183594 C 43.5625 46.316406 43.71875 46.421875 43.898438 46.492188 C 44.078125 46.5625 44.261719 46.597656 44.457031 46.59375 L 48.441406 46.59375 C 48.667969 46.59375 48.890625 46.554688 49.101562 46.46875 C 49.316406 46.386719 49.507812 46.265625 49.675781 46.109375 C 49.84375 45.957031 49.976562 45.773438 50.074219 45.566406 C 50.171875 45.363281 50.230469 45.144531 50.246094 44.914062 C 50.261719 44.6875 50.234375 44.464844 50.167969 44.246094 C 50.097656 44.027344 49.992188 43.828125 49.847656 43.652344 C 49.703125 43.472656 49.53125 43.328125 49.332031 43.214844 C 49.132812 43.105469 48.921875 43.03125 48.695312 43 Z M 48.695312 43 " fill-opacity="1" fill-rule="nonzero"/></g><path fill="#faab11" d="M 44.457031 16.160156 L 41.558594 16.160156 L 41.558594 21.226562 L 44.457031 23.582031 Z M 44.457031 16.160156 " fill-opacity="1" fill-rule="nonzero"/><g clip-path="url(#e9eaf7936e)"><path fill="#faab11" d="M 12.5 30.289062 C 12.800781 30.316406 13.066406 30.226562 13.289062 30.019531 L 29.964844 16.546875 L 46.613281 30 C 46.722656 30.097656 46.84375 30.171875 46.984375 30.222656 C 47.121094 30.269531 47.261719 30.289062 47.410156 30.285156 C 47.554688 30.277344 47.695312 30.242188 47.824219 30.175781 C 47.957031 30.113281 48.074219 30.027344 48.171875 29.921875 C 48.371094 29.695312 48.460938 29.429688 48.441406 29.132812 C 48.421875 28.832031 48.300781 28.582031 48.074219 28.386719 L 30.703125 14.277344 C 30.488281 14.085938 30.242188 13.988281 29.957031 13.988281 C 29.683594 13.988281 29.449219 14.078125 29.242188 14.257812 L 11.832031 28.40625 C 11.617188 28.601562 11.503906 28.84375 11.488281 29.132812 C 11.464844 29.433594 11.554688 29.695312 11.753906 29.921875 C 11.953125 30.148438 12.199219 30.273438 12.5 30.289062 Z M 12.5 30.289062 " fill-opacity="1" fill-rule="nonzero"/></g><path fill="#faab11" d="M 36.484375 35 L 40.109375 35 L 40.109375 40.796875 L 36.484375 40.796875 Z M 36.484375 35 " fill-opacity="1" fill-rule="nonzero"/><path fill="#faab11" d="M 31.414062 35 L 35.035156 35 L 35.035156 40.796875 L 31.414062 40.796875 Z M 31.414062 35 " fill-opacity="1" fill-rule="nonzero"/><g clip-path="url(#15b30c3f00)"><path fill="#faab11" d="M 43.730469 42.335938 C 43.730469 42.308594 43.730469 42.277344 43.730469 42.246094 C 43.734375 41.523438 43.972656 40.894531 44.457031 40.351562 L 44.457031 30.121094 L 29.964844 18.410156 L 15.46875 30.121094 L 15.46875 46.59375 L 18.367188 46.59375 L 18.367188 34.277344 C 18.367188 34.074219 18.441406 33.90625 18.582031 33.761719 C 18.722656 33.621094 18.894531 33.550781 19.09375 33.550781 L 26.339844 33.550781 C 26.539062 33.550781 26.710938 33.621094 26.851562 33.761719 C 26.992188 33.90625 27.0625 34.074219 27.0625 34.277344 L 27.0625 46.59375 L 41.960938 46.59375 C 41.695312 46.148438 41.558594 45.664062 41.558594 45.144531 C 41.558594 44.824219 41.609375 44.511719 41.714844 44.207031 C 41.816406 43.902344 41.96875 43.625 42.164062 43.371094 C 42.359375 43.117188 42.59375 42.902344 42.863281 42.722656 C 43.128906 42.546875 43.417969 42.417969 43.730469 42.335938 Z M 41.558594 41.523438 C 41.558594 41.722656 41.484375 41.894531 41.34375 42.035156 C 41.203125 42.175781 41.03125 42.246094 40.832031 42.246094 L 30.6875 42.246094 C 30.488281 42.246094 30.316406 42.175781 30.175781 42.035156 C 30.035156 41.894531 29.964844 41.722656 29.964844 41.523438 L 29.964844 34.277344 C 29.964844 34.074219 30.035156 33.90625 30.175781 33.761719 C 30.316406 33.621094 30.488281 33.550781 30.6875 33.550781 L 40.832031 33.550781 C 41.03125 33.550781 41.203125 33.621094 41.34375 33.761719 C 41.484375 33.90625 41.558594 34.074219 41.558594 34.277344 Z M 41.558594 41.523438 " fill-opacity="1" fill-rule="nonzero"/></g><g clip-path="url(#189c1090d2)"><path fill="#faab11" d="M 11.847656 42.246094 C 11.847656 42.414062 11.878906 42.574219 11.9375 42.730469 C 11.980469 42.839844 11.996094 42.957031 11.980469 43.074219 C 11.964844 43.191406 11.925781 43.300781 11.855469 43.398438 C 11.789062 43.496094 11.703125 43.570312 11.597656 43.628906 C 11.492188 43.683594 11.378906 43.710938 11.261719 43.710938 C 11.226562 43.710938 11.117188 43.699219 11.082031 43.695312 C 10.890625 43.699219 10.707031 43.738281 10.53125 43.8125 C 10.355469 43.890625 10.199219 43.996094 10.0625 44.132812 C 9.929688 44.269531 9.828125 44.429688 9.757812 44.609375 C 9.683594 44.785156 9.652344 44.972656 9.652344 45.164062 C 9.65625 45.355469 9.695312 45.539062 9.769531 45.71875 C 9.847656 45.894531 9.953125 46.050781 10.09375 46.183594 C 10.230469 46.316406 10.386719 46.421875 10.566406 46.492188 C 10.746094 46.5625 10.929688 46.597656 11.121094 46.59375 L 14.019531 46.59375 L 14.019531 40.996094 C 13.796875 40.863281 13.554688 40.796875 13.296875 40.796875 C 13.105469 40.796875 12.917969 40.835938 12.742188 40.90625 C 12.566406 40.980469 12.40625 41.085938 12.273438 41.222656 C 12.136719 41.359375 12.03125 41.515625 11.957031 41.691406 C 11.882812 41.871094 11.847656 42.054688 11.847656 42.246094 Z M 11.847656 42.246094 " fill-opacity="1" fill-rule="nonzero"/></g></svg>