<svg xmlns="http://www.w3.org/2000/svg" xmlns:xlink="http://www.w3.org/1999/xlink" width="80" zoomAndPan="magnify" viewBox="0 0 60 83.04" height="100" preserveAspectRatio="xMidYMid meet" version="1.0"><defs><clipPath id="3b3e15c37a"><path d="M 1.015625 2.230469 L 58.984375 2.230469 L 58.984375 72 L 1.015625 72 Z M 1.015625 2.230469 " clip-rule="nonzero"/></clipPath><clipPath id="19c131bcd4"><path d="M 40.867188 4.34375 C 37.40625 2.945312 33.753906 2.230469 30 2.230469 C 26.246094 2.230469 22.59375 2.945312 19.132812 4.34375 C 15.558594 5.796875 12.339844 7.933594 9.589844 10.679688 C 4.21875 16.0625 1.21875 23.214844 1.140625 30.8125 C 1.066406 38.394531 3.914062 45.597656 9.171875 51.066406 L 9.15625 51.082031 L 30 71.921875 L 50.726562 51.195312 L 50.714844 51.183594 C 56.019531 45.710938 58.910156 38.507812 58.859375 30.886719 C 58.808594 23.253906 55.804688 16.089844 50.410156 10.679688 C 47.648438 7.933594 44.441406 5.796875 40.867188 4.34375 Z M 40.867188 4.34375 " clip-rule="nonzero"/></clipPath><clipPath id="87113791c4"><path d="M 0.0546875 0.230469 L 57.945312 0.230469 L 57.945312 70 L 0.0546875 70 Z M 0.0546875 0.230469 " clip-rule="nonzero"/></clipPath><clipPath id="d5336fa042"><path d="M 39.867188 2.34375 C 36.40625 0.945312 32.753906 0.230469 29 0.230469 C 25.246094 0.230469 21.59375 0.945312 18.132812 2.34375 C 14.558594 3.796875 11.339844 5.933594 8.589844 8.679688 C 3.21875 14.0625 0.21875 21.214844 0.140625 28.8125 C 0.0664062 36.394531 2.914062 43.597656 8.171875 49.066406 L 8.15625 49.082031 L 29 69.921875 L 49.726562 49.195312 L 49.714844 49.183594 C 55.019531 43.710938 57.910156 36.507812 57.859375 28.886719 C 57.808594 21.253906 54.804688 14.089844 49.410156 8.679688 C 46.648438 5.933594 43.441406 3.796875 39.867188 2.34375 Z M 39.867188 2.34375 " clip-rule="nonzero"/></clipPath><clipPath id="6a651b63d3"><rect x="0" width="58" y="0" height="70"/></clipPath><clipPath id="bcb2e8cef6"><path d="M 3.8125 4.902344 L 56.1875 4.902344 L 56.1875 57.152344 L 3.8125 57.152344 Z M 3.8125 4.902344 " clip-rule="nonzero"/></clipPath><clipPath id="1a5393ffbc"><path d="M 29.988281 4.929688 C 15.582031 4.929688 3.902344 16.609375 3.902344 31.015625 C 3.902344 45.421875 15.582031 57.097656 29.988281 57.097656 C 44.394531 57.097656 56.070312 45.421875 56.070312 31.015625 C 56.070312 16.609375 44.394531 4.929688 29.988281 4.929688 Z M 29.988281 4.929688 " clip-rule="nonzero"/></clipPath><clipPath id="dc25835720"><path d="M 0.902344 0.902344 L 53.097656 0.902344 L 53.097656 53.152344 L 0.902344 53.152344 Z M 0.902344 0.902344 " clip-rule="nonzero"/></clipPath><clipPath id="99e9e4cdd3"><path d="M 26.988281 0.929688 C 12.582031 0.929688 0.902344 12.609375 0.902344 27.015625 C 0.902344 41.421875 12.582031 53.097656 26.988281 53.097656 C 41.394531 53.097656 53.070312 41.421875 53.070312 27.015625 C 53.070312 12.609375 41.394531 0.929688 26.988281 0.929688 Z M 26.988281 0.929688 " clip-rule="nonzero"/></clipPath><clipPath id="2f75368417"><rect x="0" width="54" y="0" height="54"/></clipPath><clipPath id="2096b24608"><path d="M 25 21 L 44 21 L 44 46.394531 L 25 46.394531 Z M 25 21 " clip-rule="nonzero"/></clipPath><clipPath id="8a924593a7"><path d="M 9.640625 13.03125 L 29 13.03125 L 29 46.394531 L 9.640625 46.394531 Z M 9.640625 13.03125 " clip-rule="nonzero"/></clipPath><clipPath id="66b719b296"><path d="M 36 31 L 50.417969 31 L 50.417969 46 L 36 46 Z M 36 31 " clip-rule="nonzero"/></clipPath></defs><g clip-path="url(#3b3e15c37a)"><g clip-path="url(#19c131bcd4)"><g transform="matrix(1, 0, 0, 1, 1, 2)"><g clip-path="url(#6a651b63d3)"><g clip-path="url(#87113791c4)"><g clip-path="url(#d5336fa042)"><path fill="#1800ad" d="M 0.140625 0.230469 L 57.859375 0.230469 L 57.859375 69.898438 L 0.140625 69.898438 Z M 0.140625 0.230469 " fill-opacity="1" fill-rule="nonzero"/></g></g></g></g></g></g><g clip-path="url(#bcb2e8cef6)"><g clip-path="url(#1a5393ffbc)"><g transform="matrix(1, 0, 0, 1, 3, 4)"><g clip-path="url(#2f75368417)"><g clip-path="url(#dc25835720)"><g clip-path="url(#99e9e4cdd3)"><rect x="-16.2" width="86.4" fill="#ffffff" height="119.5776" y="-22.2688" fill-opacity="1"/></g></g></g></g></g></g><g clip-path="url(#2096b24608)"><path fill="#faab11" d="M 32.125 28.015625 L 28.078125 28.015625 L 28.078125 23.964844 L 32.125 23.964844 Z M 32.125 34.535156 L 28.078125 34.535156 L 28.078125 30.488281 L 32.125 30.488281 Z M 32.125 41.054688 L 28.078125 41.054688 L 28.078125 37.007812 L 32.125 37.007812 Z M 36.621094 23.964844 L 40.667969 23.964844 L 40.667969 28.015625 L 36.621094 28.015625 Z M 34.710938 38.160156 C 34.710938 33.421875 38.566406 29.566406 43.300781 29.566406 L 43.367188 29.566406 L 43.367188 22.152344 C 43.367188 21.789062 43.070312 21.492188 42.707031 21.492188 L 26.488281 21.492188 C 26.121094 21.492188 25.828125 21.789062 25.828125 22.152344 L 25.828125 46.675781 L 42.191406 46.675781 C 37.976562 46.132812 34.710938 42.519531 34.710938 38.160156 " fill-opacity="1" fill-rule="nonzero"/></g><g clip-path="url(#8a924593a7)"><path fill="#faab11" d="M 20.207031 24.640625 L 17.058594 24.640625 L 17.058594 21.492188 L 20.207031 21.492188 Z M 20.207031 29.195312 L 17.058594 29.195312 L 17.058594 26.046875 L 20.207031 26.046875 Z M 20.207031 33.746094 L 17.058594 33.746094 L 17.058594 30.597656 L 20.207031 30.597656 Z M 20.207031 38.300781 L 17.058594 38.300781 L 17.058594 35.152344 L 20.207031 35.152344 Z M 20.207031 42.855469 L 17.058594 42.855469 L 17.058594 39.707031 L 20.207031 39.707031 Z M 15.484375 24.640625 L 12.335938 24.640625 L 12.335938 21.492188 L 15.484375 21.492188 Z M 15.484375 29.195312 L 12.335938 29.195312 L 12.335938 26.046875 L 15.484375 26.046875 Z M 15.484375 33.746094 L 12.335938 33.746094 L 12.335938 30.597656 L 15.484375 30.597656 Z M 15.484375 38.300781 L 12.335938 38.300781 L 12.335938 35.152344 L 15.484375 35.152344 Z M 15.484375 42.855469 L 12.335938 42.855469 L 12.335938 39.707031 L 15.484375 39.707031 Z M 28.976562 19.46875 L 28.976562 13.78125 C 28.976562 13.355469 28.582031 13.039062 28.164062 13.136719 L 10.148438 17.328125 C 9.851562 17.394531 9.640625 17.664062 9.640625 17.972656 L 9.640625 46.675781 L 23.804688 46.675781 L 23.804688 22.152344 C 23.804688 20.675781 25.011719 19.46875 26.488281 19.46875 L 28.976562 19.46875 " fill-opacity="1" fill-rule="nonzero"/></g><g clip-path="url(#66b719b296)"><path fill="#faab11" d="M 42.511719 37.074219 C 42.632812 37.167969 42.875 37.28125 43.234375 37.414062 C 43.339844 37.449219 43.453125 37.492188 43.582031 37.535156 C 44.078125 37.699219 44.464844 37.859375 44.746094 38.015625 C 45.027344 38.175781 45.253906 38.398438 45.429688 38.683594 C 45.605469 38.972656 45.691406 39.308594 45.691406 39.6875 C 45.691406 40.191406 45.53125 40.640625 45.222656 41.039062 C 45.085938 41.21875 44.910156 41.363281 44.699219 41.480469 C 44.507812 41.585938 44.285156 41.667969 44.03125 41.722656 C 44.011719 41.726562 43.988281 41.730469 43.964844 41.738281 L 43.964844 42.664062 L 42.640625 42.664062 L 42.640625 41.742188 C 42.609375 41.734375 42.582031 41.730469 42.550781 41.722656 C 41.707031 41.542969 41.148438 41.019531 40.882812 40.148438 L 42.128906 39.667969 C 42.148438 39.71875 42.167969 39.769531 42.1875 39.820312 C 42.378906 40.253906 42.78125 40.546875 43.234375 40.582031 C 43.265625 40.585938 43.296875 40.585938 43.328125 40.585938 C 43.332031 40.585938 43.402344 40.582031 43.492188 40.578125 C 43.578125 40.566406 43.675781 40.554688 43.734375 40.542969 C 43.882812 40.503906 44.003906 40.4375 44.09375 40.347656 C 44.253906 40.191406 44.332031 39.996094 44.332031 39.769531 C 44.332031 39.539062 44.253906 39.359375 44.09375 39.242188 C 43.953125 39.136719 43.667969 39.011719 43.234375 38.855469 C 43.167969 38.832031 43.097656 38.808594 43.023438 38.785156 C 42.523438 38.621094 42.136719 38.457031 41.851562 38.296875 C 41.574219 38.140625 41.347656 37.917969 41.171875 37.632812 C 41 37.347656 40.910156 37.011719 40.910156 36.628906 C 40.910156 36.128906 41.066406 35.679688 41.378906 35.277344 C 41.519531 35.101562 41.691406 34.953125 41.902344 34.839844 C 42.09375 34.730469 42.316406 34.648438 42.570312 34.59375 C 42.589844 34.589844 42.613281 34.585938 42.640625 34.578125 L 42.640625 33.652344 L 43.964844 33.652344 L 43.964844 34.574219 C 43.992188 34.582031 44.023438 34.589844 44.050781 34.59375 C 44.894531 34.777344 45.449219 35.300781 45.71875 36.171875 L 44.472656 36.648438 C 44.449219 36.585938 44.421875 36.523438 44.398438 36.460938 C 44.195312 36.015625 43.753906 35.730469 43.273438 35.730469 C 43.273438 35.730469 43.257812 35.730469 43.234375 35.734375 C 43.207031 35.734375 43.164062 35.738281 43.113281 35.742188 C 43.027344 35.75 42.925781 35.761719 42.867188 35.777344 C 42.71875 35.8125 42.597656 35.878906 42.511719 35.96875 C 42.351562 36.128906 42.269531 36.320312 42.269531 36.546875 C 42.269531 36.777344 42.351562 36.957031 42.511719 37.074219 Z M 43.300781 31.097656 L 43.234375 31.097656 C 39.367188 31.136719 36.242188 34.285156 36.242188 38.160156 C 36.242188 42.035156 39.367188 45.179688 43.234375 45.21875 L 43.300781 45.21875 C 46.167969 45.21875 48.636719 43.507812 49.742188 41.054688 C 49.828125 40.855469 49.910156 40.65625 49.980469 40.449219 C 50.226562 39.730469 50.359375 38.960938 50.359375 38.160156 C 50.359375 34.261719 47.199219 31.097656 43.300781 31.097656 " fill-opacity="1" fill-rule="nonzero"/></g></svg>