<svg xmlns="http://www.w3.org/2000/svg" xmlns:xlink="http://www.w3.org/1999/xlink" width="80" zoomAndPan="magnify" viewBox="0 0 60 83.04" height="100" preserveAspectRatio="xMidYMid meet" version="1.0"><defs><clipPath id="90b12f8002"><path d="M 1.015625 2.230469 L 58.984375 2.230469 L 58.984375 72 L 1.015625 72 Z M 1.015625 2.230469 " clip-rule="nonzero"/></clipPath><clipPath id="d43ebe8ca2"><path d="M 40.867188 4.34375 C 37.40625 2.945312 33.753906 2.230469 30 2.230469 C 26.246094 2.230469 22.59375 2.945312 19.132812 4.34375 C 15.558594 5.796875 12.339844 7.933594 9.589844 10.679688 C 4.21875 16.0625 1.21875 23.214844 1.140625 30.8125 C 1.066406 38.394531 3.914062 45.597656 9.171875 51.066406 L 9.15625 51.082031 L 30 71.921875 L 50.726562 51.195312 L 50.714844 51.183594 C 56.019531 45.710938 58.910156 38.507812 58.859375 30.886719 C 58.808594 23.253906 55.804688 16.089844 50.410156 10.679688 C 47.648438 7.933594 44.441406 5.796875 40.867188 4.34375 Z M 40.867188 4.34375 " clip-rule="nonzero"/></clipPath><clipPath id="c2d25d2fbb"><path d="M 0.0546875 0.230469 L 57.945312 0.230469 L 57.945312 70 L 0.0546875 70 Z M 0.0546875 0.230469 " clip-rule="nonzero"/></clipPath><clipPath id="21370fdd87"><path d="M 39.867188 2.34375 C 36.40625 0.945312 32.753906 0.230469 29 0.230469 C 25.246094 0.230469 21.59375 0.945312 18.132812 2.34375 C 14.558594 3.796875 11.339844 5.933594 8.589844 8.679688 C 3.21875 14.0625 0.21875 21.214844 0.140625 28.8125 C 0.0664062 36.394531 2.914062 43.597656 8.171875 49.066406 L 8.15625 49.082031 L 29 69.921875 L 49.726562 49.195312 L 49.714844 49.183594 C 55.019531 43.710938 57.910156 36.507812 57.859375 28.886719 C 57.808594 21.253906 54.804688 14.089844 49.410156 8.679688 C 46.648438 5.933594 43.441406 3.796875 39.867188 2.34375 Z M 39.867188 2.34375 " clip-rule="nonzero"/></clipPath><clipPath id="4a88988505"><rect x="0" width="58" y="0" height="70"/></clipPath><clipPath id="b7aec406ef"><path d="M 3.8125 4.902344 L 56.1875 4.902344 L 56.1875 57.152344 L 3.8125 57.152344 Z M 3.8125 4.902344 " clip-rule="nonzero"/></clipPath><clipPath id="92d1cd4ec4"><path d="M 29.988281 4.929688 C 15.582031 4.929688 3.902344 16.609375 3.902344 31.015625 C 3.902344 45.421875 15.582031 57.097656 29.988281 57.097656 C 44.394531 57.097656 56.070312 45.421875 56.070312 31.015625 C 56.070312 16.609375 44.394531 4.929688 29.988281 4.929688 Z M 29.988281 4.929688 " clip-rule="nonzero"/></clipPath><clipPath id="d7c40903fc"><path d="M 0.902344 0.902344 L 53.097656 0.902344 L 53.097656 53.152344 L 0.902344 53.152344 Z M 0.902344 0.902344 " clip-rule="nonzero"/></clipPath><clipPath id="43c0085ed5"><path d="M 26.988281 0.929688 C 12.582031 0.929688 0.902344 12.609375 0.902344 27.015625 C 0.902344 41.421875 12.582031 53.097656 26.988281 53.097656 C 41.394531 53.097656 53.070312 41.421875 53.070312 27.015625 C 53.070312 12.609375 41.394531 0.929688 26.988281 0.929688 Z M 26.988281 0.929688 " clip-rule="nonzero"/></clipPath><clipPath id="0441a547ec"><rect x="0" width="54" y="0" height="54"/></clipPath><clipPath id="f2fd4abab7"><path d="M 15 13.304688 L 45 13.304688 L 45 17 L 15 17 Z M 15 13.304688 " clip-rule="nonzero"/></clipPath><clipPath id="c98ec8e806"><path d="M 12.167969 16 L 23 16 L 23 30 L 12.167969 30 Z M 12.167969 16 " clip-rule="nonzero"/></clipPath><clipPath id="0971998f7b"><path d="M 37 16 L 47.757812 16 L 47.757812 30 L 37 30 Z M 37 16 " clip-rule="nonzero"/></clipPath><clipPath id="5e45f537f6"><path d="M 12.167969 27 L 47.757812 27 L 47.757812 46.667969 L 12.167969 46.667969 Z M 12.167969 27 " clip-rule="nonzero"/></clipPath><clipPath id="33cf6492cc"><path d="M 18 31 L 29 31 L 29 46.667969 L 18 46.667969 Z M 18 31 " clip-rule="nonzero"/></clipPath><clipPath id="0b9e97f9a9"><path d="M 31 42 L 42 42 L 42 46.667969 L 31 46.667969 Z M 31 42 " clip-rule="nonzero"/></clipPath></defs><g clip-path="url(#90b12f8002)"><g clip-path="url(#d43ebe8ca2)"><g transform="matrix(1, 0, 0, 1, 1, 2)"><g clip-path="url(#4a88988505)"><g clip-path="url(#c2d25d2fbb)"><g clip-path="url(#21370fdd87)"><path fill="#1800ad" d="M 0.140625 0.230469 L 57.859375 0.230469 L 57.859375 69.898438 L 0.140625 69.898438 Z M 0.140625 0.230469 " fill-opacity="1" fill-rule="nonzero"/></g></g></g></g></g></g><g clip-path="url(#b7aec406ef)"><g clip-path="url(#92d1cd4ec4)"><g transform="matrix(1, 0, 0, 1, 3, 4)"><g clip-path="url(#0441a547ec)"><g clip-path="url(#d7c40903fc)"><g clip-path="url(#43c0085ed5)"><rect x="-16.2" width="86.4" fill="#ffffff" height="119.5776" y="-22.2688" fill-opacity="1"/></g></g></g></g></g></g><g clip-path="url(#f2fd4abab7)"><path fill="#faab11" d="M 16.957031 16.316406 C 16.261719 16.316406 15.628906 15.832031 15.476562 15.160156 C 15.289062 14.433594 15.71875 13.640625 16.4375 13.398438 C 16.445312 13.394531 16.453125 13.394531 16.460938 13.390625 C 16.765625 13.304688 17.074219 13.308594 17.347656 13.3125 C 17.433594 13.3125 17.519531 13.3125 17.605469 13.3125 C 21.453125 13.316406 25.289062 13.316406 29.125 13.3125 C 33.695312 13.3125 38.417969 13.3125 43.066406 13.320312 C 43.480469 13.308594 43.882812 13.488281 44.175781 13.816406 C 44.472656 14.148438 44.609375 14.578125 44.546875 14.992188 C 44.507812 15.367188 44.316406 15.710938 44.011719 15.964844 C 43.699219 16.21875 43.300781 16.34375 42.914062 16.308594 C 39.222656 16.308594 35.535156 16.308594 31.84375 16.308594 C 26.921875 16.308594 22 16.308594 17.078125 16.308594 C 17.039062 16.3125 16.996094 16.316406 16.957031 16.316406 Z M 16.691406 14.175781 C 16.382812 14.285156 16.183594 14.648438 16.269531 14.960938 C 16.269531 14.964844 16.269531 14.972656 16.273438 14.976562 C 16.339844 15.289062 16.683594 15.527344 17.023438 15.496094 C 17.035156 15.492188 17.046875 15.492188 17.058594 15.492188 C 21.988281 15.492188 26.917969 15.492188 31.84375 15.492188 C 35.539062 15.492188 39.238281 15.492188 42.933594 15.492188 C 42.949219 15.492188 42.960938 15.492188 42.976562 15.492188 C 43.15625 15.511719 43.34375 15.453125 43.496094 15.332031 C 43.632812 15.214844 43.71875 15.066406 43.734375 14.90625 C 43.734375 14.898438 43.738281 14.890625 43.738281 14.882812 C 43.765625 14.707031 43.703125 14.511719 43.566406 14.359375 C 43.433594 14.210938 43.257812 14.128906 43.085938 14.136719 C 43.082031 14.136719 43.078125 14.136719 43.070312 14.136719 C 38.421875 14.128906 33.695312 14.128906 29.125 14.132812 C 25.289062 14.132812 21.453125 14.132812 17.613281 14.128906 C 17.527344 14.132812 17.433594 14.128906 17.335938 14.128906 C 17.101562 14.125 16.882812 14.121094 16.691406 14.175781 Z M 16.691406 14.175781 " fill-opacity="1" fill-rule="nonzero"/></g><g clip-path="url(#c98ec8e806)"><path fill="#faab11" d="M 15.488281 29.367188 C 15.230469 29.367188 14.972656 29.347656 14.71875 29.308594 C 13.558594 29.097656 12.597656 28.203125 12.191406 26.964844 C 12.175781 26.925781 12.171875 26.882812 12.171875 26.839844 L 12.171875 26.046875 C 12.171875 25.984375 12.183594 25.925781 12.210938 25.871094 C 12.917969 24.367188 13.601562 22.8125 14.265625 21.3125 C 14.917969 19.832031 15.589844 18.304688 16.289062 16.816406 C 16.359375 16.671875 16.5 16.582031 16.660156 16.582031 C 17.898438 16.578125 19.136719 16.578125 20.375 16.578125 L 22.234375 16.582031 C 22.355469 16.582031 22.472656 16.636719 22.550781 16.730469 C 22.628906 16.828125 22.65625 16.953125 22.632812 17.074219 C 22.277344 18.75 21.894531 20.453125 21.527344 22.097656 C 21.199219 23.546875 20.863281 25.046875 20.546875 26.527344 C 20.542969 26.539062 20.539062 26.546875 20.539062 26.558594 C 20.527344 26.597656 20.515625 26.636719 20.507812 26.675781 C 20.464844 26.871094 20.394531 27.15625 20.125 27.34375 C 19.875 27.535156 19.621094 27.714844 19.371094 27.886719 C 19.199219 28.007812 19.027344 28.128906 18.859375 28.25 C 17.867188 28.976562 16.671875 29.367188 15.488281 29.367188 Z M 15.488281 29.367188 " fill-opacity="1" fill-rule="nonzero"/></g><path fill="#faab11" d="M 25.148438 29.382812 C 24.523438 29.382812 23.902344 29.269531 23.324219 29.042969 C 22.695312 28.796875 22.242188 28.351562 21.804688 27.925781 C 21.527344 27.648438 21.261719 27.390625 20.960938 27.195312 C 20.824219 27.101562 20.753906 26.933594 20.789062 26.773438 C 21.167969 24.894531 21.59375 23 22.011719 21.164062 C 22.324219 19.773438 22.648438 18.335938 22.949219 16.921875 C 22.988281 16.734375 23.152344 16.601562 23.339844 16.597656 C 24.761719 16.570312 26.207031 16.574219 27.601562 16.582031 C 28.21875 16.582031 28.835938 16.585938 29.449219 16.585938 C 29.558594 16.585938 29.664062 16.628906 29.738281 16.703125 C 29.816406 16.78125 29.859375 16.886719 29.859375 16.992188 C 29.855469 18.160156 29.859375 19.351562 29.863281 20.5 C 29.871094 22.59375 29.878906 24.757812 29.839844 26.886719 C 29.839844 27.039062 29.75 27.175781 29.617188 27.242188 C 29.261719 27.421875 28.957031 27.691406 28.632812 27.980469 C 28.265625 28.304688 27.886719 28.644531 27.402344 28.871094 C 26.703125 29.210938 25.925781 29.382812 25.148438 29.382812 Z M 25.148438 29.382812 " fill-opacity="1" fill-rule="nonzero"/><path fill="#faab11" d="M 34.859375 29.378906 C 34.167969 29.378906 33.457031 29.242188 32.792969 28.964844 C 32.226562 28.742188 31.792969 28.355469 31.371094 27.984375 C 31.046875 27.695312 30.738281 27.421875 30.382812 27.238281 C 30.25 27.167969 30.164062 27.03125 30.164062 26.882812 C 30.125 24.605469 30.128906 22.289062 30.132812 20.046875 C 30.136719 19.03125 30.140625 18.011719 30.136719 16.992188 C 30.136719 16.886719 30.179688 16.78125 30.257812 16.703125 C 30.332031 16.628906 30.4375 16.585938 30.542969 16.585938 C 30.542969 16.585938 30.546875 16.585938 30.546875 16.585938 C 31.183594 16.585938 31.824219 16.582031 32.464844 16.582031 C 33.835938 16.578125 35.253906 16.570312 36.652344 16.597656 C 36.84375 16.601562 37.003906 16.734375 37.042969 16.921875 C 37.351562 18.375 37.683594 19.851562 38.003906 21.277344 C 38.40625 23.074219 38.824219 24.933594 39.203125 26.769531 C 39.234375 26.933594 39.164062 27.101562 39.023438 27.191406 C 38.730469 27.386719 38.472656 27.640625 38.199219 27.914062 C 37.8125 28.300781 37.410156 28.699219 36.859375 28.949219 C 36.253906 29.238281 35.566406 29.378906 34.859375 29.378906 Z M 34.859375 29.378906 " fill-opacity="1" fill-rule="nonzero"/><g clip-path="url(#0971998f7b)"><path fill="#faab11" d="M 44.539062 29.371094 C 44.183594 29.371094 43.808594 29.332031 43.40625 29.25 C 41.972656 29 40.800781 28.058594 39.769531 27.226562 L 39.714844 27.1875 C 39.644531 27.128906 39.597656 27.050781 39.574219 26.964844 C 39.09375 24.960938 38.644531 22.917969 38.210938 20.9375 C 37.929688 19.675781 37.644531 18.371094 37.351562 17.089844 C 37.324219 16.972656 37.351562 16.84375 37.429688 16.75 C 37.503906 16.652344 37.621094 16.59375 37.742188 16.59375 C 39.082031 16.574219 40.441406 16.578125 41.753906 16.582031 C 42.28125 16.582031 42.804688 16.582031 43.332031 16.582031 C 43.492188 16.582031 43.632812 16.675781 43.703125 16.816406 C 44.382812 18.273438 45.039062 19.765625 45.675781 21.210938 C 46.355469 22.746094 47.054688 24.339844 47.785156 25.882812 C 47.808594 25.9375 47.824219 25.996094 47.824219 26.054688 L 47.824219 26.851562 C 47.824219 26.902344 47.8125 26.953125 47.792969 27.003906 C 47.535156 27.636719 47.140625 28.421875 46.371094 28.871094 C 45.867188 29.203125 45.253906 29.371094 44.539062 29.371094 Z M 44.539062 29.371094 " fill-opacity="1" fill-rule="nonzero"/></g><g clip-path="url(#5e45f537f6)"><path fill="#faab11" d="M 13.292969 46.796875 C 12.953125 46.796875 12.617188 46.667969 12.316406 46.414062 C 12.222656 46.335938 12.171875 46.222656 12.171875 46.101562 L 12.171875 45.558594 C 12.171875 45.429688 12.230469 45.3125 12.332031 45.234375 C 12.871094 44.820312 13.492188 44.855469 14.042969 44.882812 C 14.148438 44.890625 14.246094 44.894531 14.34375 44.894531 C 14.351562 42.566406 14.347656 40.207031 14.347656 37.917969 C 14.347656 35.335938 14.34375 32.664062 14.355469 30.039062 C 14.355469 29.925781 14.402344 29.816406 14.484375 29.742188 C 14.566406 29.664062 14.675781 29.625 14.789062 29.632812 C 16.203125 29.722656 17.5625 29.410156 18.613281 28.746094 C 18.617188 28.746094 18.621094 28.742188 18.625 28.742188 C 18.867188 28.597656 19.09375 28.425781 19.335938 28.242188 C 19.710938 27.957031 20.101562 27.664062 20.570312 27.46875 C 20.710938 27.410156 20.875 27.433594 20.992188 27.535156 C 21.210938 27.722656 21.417969 27.925781 21.613281 28.121094 C 21.96875 28.472656 22.304688 28.804688 22.707031 29.03125 C 23.691406 29.625 25 29.796875 26.40625 29.515625 C 27.269531 29.34375 28.128906 28.855469 28.886719 28.113281 C 28.894531 28.105469 28.902344 28.097656 28.910156 28.089844 C 28.953125 28.054688 28.996094 28.015625 29.042969 27.972656 C 29.328125 27.71875 29.917969 27.183594 30.546875 27.652344 C 30.785156 27.832031 31.007812 28.023438 31.222656 28.210938 C 31.660156 28.59375 32.070312 28.957031 32.570312 29.167969 C 34.058594 29.832031 35.800781 29.8125 37.121094 29.125 C 37.609375 28.882812 38 28.496094 38.414062 28.089844 C 38.601562 27.90625 38.792969 27.714844 39 27.535156 C 39.117188 27.433594 39.28125 27.40625 39.425781 27.46875 C 39.867188 27.652344 40.230469 27.925781 40.582031 28.191406 C 40.691406 28.273438 40.796875 28.355469 40.90625 28.433594 C 42.078125 29.320312 43.601562 29.742188 45.203125 29.632812 C 45.316406 29.625 45.425781 29.664062 45.511719 29.742188 C 45.59375 29.816406 45.640625 29.925781 45.640625 30.039062 C 45.652344 32.613281 45.648438 35.234375 45.648438 37.769531 C 45.644531 40.105469 45.644531 42.519531 45.652344 44.898438 C 45.753906 44.894531 45.859375 44.890625 45.964844 44.882812 C 46.523438 44.851562 47.15625 44.816406 47.679688 45.265625 C 47.773438 45.34375 47.824219 45.457031 47.824219 45.574219 L 47.824219 46.121094 C 47.824219 46.265625 47.746094 46.402344 47.617188 46.472656 C 47.585938 46.492188 47.554688 46.511719 47.519531 46.53125 C 47.328125 46.648438 47.066406 46.808594 46.730469 46.789062 L 46.09375 46.789062 C 44.746094 46.792969 43.347656 46.796875 41.972656 46.785156 C 41.753906 46.785156 41.574219 46.605469 41.570312 46.382812 C 41.558594 45.789062 41.5625 45.1875 41.566406 44.605469 C 41.570312 43.941406 41.574219 43.253906 41.554688 42.582031 C 41.554688 42.566406 41.554688 42.550781 41.558594 42.539062 C 41.558594 42.511719 41.554688 42.5 41.539062 42.484375 C 41.503906 42.453125 41.429688 42.425781 41.351562 42.433594 C 41.335938 42.4375 41.316406 42.433594 41.300781 42.4375 C 39.808594 42.433594 38.320312 42.433594 36.828125 42.433594 C 35.183594 42.4375 33.539062 42.4375 31.894531 42.433594 C 31.886719 42.433594 31.882812 42.433594 31.875 42.433594 C 31.664062 42.421875 31.554688 42.460938 31.519531 42.480469 C 31.480469 43.203125 31.488281 43.945312 31.496094 44.660156 C 31.5 45.222656 31.507812 45.808594 31.488281 46.386719 C 31.484375 46.605469 31.308594 46.78125 31.089844 46.785156 C 30.453125 46.796875 29.78125 46.796875 28.910156 46.785156 C 28.6875 46.78125 28.507812 46.601562 28.507812 46.378906 C 28.496094 42.96875 28.5 39.503906 28.5 36.15625 C 28.503906 34.753906 28.503906 33.351562 28.503906 31.945312 L 28.503906 31.917969 C 28.5 31.828125 28.496094 31.644531 28.464844 31.582031 C 28.242188 31.535156 28 31.542969 27.742188 31.546875 C 27.628906 31.546875 27.515625 31.550781 27.40625 31.546875 C 24.863281 31.554688 22.273438 31.550781 19.769531 31.546875 L 18.8125 31.546875 C 18.71875 31.550781 18.53125 31.554688 18.464844 31.585938 C 18.414062 31.859375 18.421875 32.152344 18.429688 32.460938 C 18.429688 32.609375 18.433594 32.765625 18.429688 32.921875 C 18.429688 34.21875 18.433594 35.53125 18.433594 36.839844 C 18.433594 39.964844 18.4375 43.199219 18.425781 46.378906 C 18.425781 46.601562 18.246094 46.78125 18.023438 46.785156 C 17.148438 46.792969 16.261719 46.792969 15.40625 46.789062 C 14.738281 46.789062 14.074219 46.789062 13.40625 46.792969 C 13.367188 46.796875 13.332031 46.796875 13.292969 46.796875 Z M 12.988281 45.890625 C 13.089844 45.949219 13.210938 45.992188 13.34375 45.976562 C 13.359375 45.976562 13.371094 45.976562 13.382812 45.976562 C 14.058594 45.972656 14.730469 45.972656 15.40625 45.972656 C 16.128906 45.976562 16.871094 45.976562 17.609375 45.96875 C 17.617188 42.921875 17.617188 39.832031 17.613281 36.835938 C 17.613281 35.527344 17.613281 34.21875 17.613281 32.910156 C 17.617188 32.761719 17.613281 32.625 17.609375 32.476562 C 17.601562 32.121094 17.59375 31.753906 17.671875 31.378906 C 17.675781 31.367188 17.679688 31.355469 17.683594 31.339844 C 17.867188 30.746094 18.496094 30.734375 18.796875 30.730469 L 19.765625 30.730469 C 22.273438 30.734375 24.863281 30.734375 27.410156 30.730469 C 27.519531 30.730469 27.625 30.730469 27.726562 30.730469 C 28.035156 30.722656 28.351562 30.71875 28.679688 30.792969 C 28.691406 30.792969 28.699219 30.796875 28.710938 30.800781 C 29.296875 30.980469 29.308594 31.601562 29.316406 31.898438 L 29.316406 31.9375 C 29.316406 33.351562 29.316406 34.753906 29.316406 36.15625 C 29.3125 39.375 29.3125 42.695312 29.320312 45.972656 C 29.828125 45.980469 30.269531 45.980469 30.679688 45.972656 C 30.683594 45.535156 30.679688 45.097656 30.675781 44.667969 C 30.667969 43.933594 30.660156 43.179688 30.703125 42.429688 C 30.714844 42.222656 30.839844 41.574219 31.898438 41.617188 C 33.542969 41.621094 35.183594 41.621094 36.824219 41.617188 C 38.308594 41.617188 39.792969 41.617188 41.277344 41.621094 C 41.582031 41.589844 41.890625 41.691406 42.101562 41.898438 C 42.289062 42.078125 42.382812 42.320312 42.367188 42.578125 C 42.386719 43.257812 42.382812 43.945312 42.378906 44.613281 C 42.375 45.058594 42.371094 45.515625 42.375 45.96875 C 43.617188 45.976562 44.871094 45.976562 46.089844 45.972656 L 46.738281 45.972656 C 46.75 45.972656 46.761719 45.972656 46.773438 45.972656 C 46.835938 45.980469 46.914062 45.9375 47.003906 45.886719 L 47.003906 45.789062 C 46.742188 45.65625 46.398438 45.675781 46.007812 45.695312 C 45.742188 45.710938 45.464844 45.726562 45.1875 45.691406 C 44.988281 45.664062 44.835938 45.492188 44.832031 45.289062 C 44.824219 42.78125 44.824219 40.234375 44.828125 37.765625 C 44.828125 35.375 44.832031 32.902344 44.820312 30.464844 C 43.183594 30.488281 41.632812 30.007812 40.421875 29.089844 C 40.316406 29.015625 40.199219 28.929688 40.085938 28.84375 C 39.835938 28.652344 39.59375 28.46875 39.335938 28.332031 C 39.21875 28.441406 39.101562 28.554688 38.984375 28.671875 C 38.542969 29.105469 38.089844 29.554688 37.492188 29.851562 C 35.960938 30.648438 33.945312 30.675781 32.238281 29.914062 C 31.628906 29.65625 31.148438 29.234375 30.679688 28.828125 C 30.46875 28.640625 30.265625 28.464844 30.054688 28.304688 C 29.988281 28.253906 29.878906 28.316406 29.585938 28.578125 C 29.539062 28.625 29.488281 28.667969 29.441406 28.707031 C 28.574219 29.554688 27.578125 30.113281 26.5625 30.316406 C 24.953125 30.636719 23.4375 30.429688 22.292969 29.734375 C 21.804688 29.460938 21.414062 29.074219 21.039062 28.699219 C 20.90625 28.574219 20.78125 28.449219 20.65625 28.332031 C 20.371094 28.484375 20.105469 28.683594 19.824219 28.894531 C 19.578125 29.082031 19.324219 29.273438 19.042969 29.441406 C 17.941406 30.132812 16.609375 30.480469 15.167969 30.464844 C 15.160156 32.953125 15.160156 35.476562 15.164062 37.917969 C 15.164062 40.335938 15.164062 42.832031 15.15625 45.292969 C 15.15625 45.496094 15 45.671875 14.796875 45.695312 C 14.527344 45.726562 14.257812 45.710938 14 45.699219 C 13.609375 45.679688 13.261719 45.660156 12.984375 45.785156 L 12.984375 45.890625 Z M 42.476562 41.351562 C 42.441406 41.351562 42.402344 41.351562 42.363281 41.347656 C 40.8125 41.347656 39.261719 41.347656 37.710938 41.347656 C 35.371094 41.347656 33.03125 41.347656 30.691406 41.34375 C 30.386719 41.375 30.082031 41.273438 29.867188 41.070312 C 29.675781 40.890625 29.578125 40.644531 29.59375 40.382812 C 29.585938 38.871094 29.585938 37.335938 29.589844 35.847656 C 29.589844 34.570312 29.59375 33.25 29.585938 31.949219 C 29.578125 31.730469 29.558594 31.027344 30.171875 30.804688 C 30.1875 30.796875 30.203125 30.792969 30.21875 30.789062 C 30.535156 30.714844 30.835938 30.722656 31.128906 30.730469 C 31.25 30.730469 31.367188 30.734375 31.480469 30.730469 L 33.0625 30.730469 C 36.125 30.734375 39.1875 30.734375 42.25 30.730469 C 42.257812 30.730469 42.265625 30.730469 42.273438 30.730469 C 42.308594 30.734375 42.34375 30.734375 42.378906 30.734375 C 42.601562 30.738281 42.9375 30.746094 43.191406 31.003906 C 43.453125 31.257812 43.460938 31.59375 43.46875 31.816406 C 43.46875 31.851562 43.46875 31.890625 43.46875 31.925781 C 43.472656 31.933594 43.472656 31.941406 43.472656 31.949219 C 43.464844 33.25 43.46875 34.570312 43.46875 35.847656 C 43.46875 37.335938 43.472656 38.871094 43.460938 40.386719 C 43.476562 40.648438 43.378906 40.894531 43.183594 41.078125 C 42.996094 41.253906 42.738281 41.351562 42.476562 41.351562 Z M 40.601562 40.53125 C 41.195312 40.53125 41.792969 40.53125 42.390625 40.53125 C 42.410156 40.53125 42.425781 40.53125 42.445312 40.535156 C 42.507812 40.542969 42.582031 40.519531 42.625 40.484375 C 42.648438 40.460938 42.648438 40.445312 42.644531 40.429688 C 42.644531 40.417969 42.644531 40.40625 42.644531 40.394531 C 42.65625 38.878906 42.652344 37.339844 42.652344 35.847656 C 42.652344 34.574219 42.648438 33.257812 42.65625 31.960938 C 42.652344 31.917969 42.652344 31.875 42.652344 31.832031 C 42.648438 31.761719 42.644531 31.617188 42.625 31.589844 C 42.621094 31.585938 42.617188 31.582031 42.613281 31.578125 C 42.589844 31.554688 42.4375 31.550781 42.363281 31.550781 C 42.320312 31.546875 42.28125 31.546875 42.242188 31.546875 C 39.179688 31.550781 36.121094 31.550781 33.0625 31.546875 L 31.492188 31.546875 C 31.371094 31.550781 31.238281 31.546875 31.109375 31.546875 C 30.871094 31.539062 30.648438 31.535156 30.441406 31.578125 C 30.429688 31.59375 30.394531 31.664062 30.402344 31.9375 C 30.40625 33.25 30.40625 34.570312 30.40625 35.847656 C 30.402344 37.339844 30.402344 38.878906 30.414062 40.394531 C 30.414062 40.40625 30.410156 40.417969 30.410156 40.429688 C 30.410156 40.449219 30.410156 40.460938 30.429688 40.480469 C 30.464844 40.511719 30.539062 40.542969 30.617188 40.53125 C 30.632812 40.527344 30.652344 40.523438 30.667969 40.527344 C 33.015625 40.53125 35.363281 40.53125 37.710938 40.53125 C 38.675781 40.53125 39.636719 40.53125 40.601562 40.53125 Z M 40.601562 40.53125 " fill-opacity="1" fill-rule="nonzero"/></g><g clip-path="url(#33cf6492cc)"><path fill="#faab11" d="M 23.792969 46.789062 C 22.359375 46.789062 20.816406 46.789062 19.113281 46.785156 C 18.890625 46.785156 18.707031 46.605469 18.707031 46.378906 C 18.699219 42.050781 18.699219 37.425781 18.707031 32.234375 C 18.707031 32.007812 18.890625 31.824219 19.113281 31.824219 C 22.003906 31.816406 24.929688 31.816406 27.816406 31.824219 C 28.042969 31.824219 28.226562 32.007812 28.226562 32.234375 C 28.230469 37.75 28.230469 42.242188 28.226562 46.378906 C 28.226562 46.605469 28.042969 46.785156 27.816406 46.785156 C 26.550781 46.789062 25.226562 46.789062 23.792969 46.789062 Z M 19.523438 45.96875 C 22.5625 45.976562 25.089844 45.976562 27.410156 45.96875 C 27.414062 42.050781 27.414062 37.789062 27.410156 32.640625 C 24.789062 32.632812 22.140625 32.632812 19.523438 32.640625 C 19.515625 37.503906 19.515625 41.875 19.523438 45.96875 Z M 19.523438 45.96875 " fill-opacity="1" fill-rule="nonzero"/></g><path fill="#faab11" d="M 36.824219 40.257812 C 34.867188 40.257812 32.945312 40.257812 31.089844 40.253906 C 30.863281 40.253906 30.683594 40.074219 30.683594 39.847656 C 30.671875 37.246094 30.675781 34.65625 30.679688 32.230469 C 30.679688 32.007812 30.863281 31.824219 31.089844 31.824219 C 35.34375 31.820312 38.800781 31.820312 41.96875 31.824219 C 42.191406 31.824219 42.375 32.007812 42.375 32.230469 C 42.382812 34.757812 42.382812 37.320312 42.375 39.847656 C 42.375 40.070312 42.191406 40.253906 41.96875 40.253906 C 40.242188 40.257812 38.519531 40.257812 36.824219 40.257812 Z M 36.824219 40.257812 " fill-opacity="1" fill-rule="nonzero"/><g clip-path="url(#0b9e97f9a9)"><path fill="#faab11" d="M 36.332031 46.789062 C 34.890625 46.789062 33.511719 46.789062 32.175781 46.785156 C 31.953125 46.785156 31.773438 46.605469 31.769531 46.378906 C 31.761719 45.296875 31.761719 44.199219 31.769531 43.117188 C 31.773438 42.894531 31.953125 42.710938 32.175781 42.710938 C 35.367188 42.703125 38.214844 42.703125 40.878906 42.710938 C 41.101562 42.710938 41.285156 42.890625 41.285156 43.117188 C 41.296875 44.203125 41.292969 45.308594 41.285156 46.378906 C 41.285156 46.605469 41.105469 46.785156 40.878906 46.785156 C 39.285156 46.789062 37.777344 46.789062 36.332031 46.789062 Z M 32.582031 45.96875 C 35.019531 45.976562 37.609375 45.976562 40.472656 45.96875 C 40.476562 45.164062 40.480469 44.34375 40.472656 43.527344 C 38.039062 43.519531 35.449219 43.519531 32.585938 43.527344 C 32.578125 44.339844 32.578125 45.15625 32.582031 45.96875 Z M 32.582031 45.96875 " fill-opacity="1" fill-rule="nonzero"/></g></svg>