<svg xmlns="http://www.w3.org/2000/svg" xmlns:xlink="http://www.w3.org/1999/xlink" width="40" zoomAndPan="magnify" viewBox="0 0 30 37.92" height="40" preserveAspectRatio="xMidYMid meet" version="1.0"><defs><clipPath id="59dc2e7cd3"><path d="M 3.113281 0.683594 L 26.886719 0.683594 L 26.886719 29.300781 L 3.113281 29.300781 Z M 3.113281 0.683594 " clip-rule="nonzero"/></clipPath><clipPath id="7417880caf"><path d="M 19.457031 1.550781 C 18.035156 0.976562 16.539062 0.683594 15 0.683594 C 13.460938 0.683594 11.964844 0.976562 10.542969 1.550781 C 9.078125 2.144531 7.757812 3.019531 6.632812 4.148438 C 4.429688 6.355469 3.199219 9.285156 3.167969 12.402344 C 3.136719 15.511719 4.304688 18.464844 6.460938 20.707031 L 6.453125 20.710938 L 15 29.257812 L 23.5 20.757812 L 23.492188 20.753906 C 25.667969 18.511719 26.855469 15.558594 26.832031 12.433594 C 26.8125 9.300781 25.582031 6.363281 23.367188 4.148438 C 22.234375 3.019531 20.921875 2.144531 19.457031 1.550781 Z M 19.457031 1.550781 " clip-rule="nonzero"/></clipPath><clipPath id="461fa334b8"><path d="M 0.144531 0.683594 L 23.855469 0.683594 L 23.855469 29.300781 L 0.144531 29.300781 Z M 0.144531 0.683594 " clip-rule="nonzero"/></clipPath><clipPath id="41ecf738d3"><path d="M 16.457031 1.550781 C 15.035156 0.976562 13.539062 0.683594 12 0.683594 C 10.460938 0.683594 8.964844 0.976562 7.542969 1.550781 C 6.078125 2.144531 4.757812 3.019531 3.632812 4.148438 C 1.429688 6.355469 0.199219 9.285156 0.167969 12.402344 C 0.136719 15.511719 1.304688 18.464844 3.460938 20.707031 L 3.453125 20.710938 L 12 29.257812 L 20.5 20.757812 L 20.492188 20.753906 C 22.667969 18.511719 23.855469 15.558594 23.832031 12.433594 C 23.8125 9.300781 22.582031 6.363281 20.367188 4.148438 C 19.234375 3.019531 17.921875 2.144531 16.457031 1.550781 Z M 16.457031 1.550781 " clip-rule="nonzero"/></clipPath><clipPath id="5311802635"><rect x="0" width="24" y="0" height="30"/></clipPath><clipPath id="193ee809d3"><path d="M 4.261719 1.777344 L 25.738281 1.777344 L 25.738281 23.203125 L 4.261719 23.203125 Z M 4.261719 1.777344 " clip-rule="nonzero"/></clipPath><clipPath id="175b9207fc"><path d="M 14.996094 1.789062 C 9.089844 1.789062 4.300781 6.578125 4.300781 12.484375 C 4.300781 18.390625 9.089844 23.179688 14.996094 23.179688 C 20.902344 23.179688 25.691406 18.390625 25.691406 12.484375 C 25.691406 6.578125 20.902344 1.789062 14.996094 1.789062 Z M 14.996094 1.789062 " clip-rule="nonzero"/></clipPath><clipPath id="ab8570a5da"><path d="M 0.261719 0.777344 L 21.738281 0.777344 L 21.738281 22.203125 L 0.261719 22.203125 Z M 0.261719 0.777344 " clip-rule="nonzero"/></clipPath><clipPath id="05d60e9004"><path d="M 10.996094 0.789062 C 5.089844 0.789062 0.300781 5.578125 0.300781 11.484375 C 0.300781 17.390625 5.089844 22.179688 10.996094 22.179688 C 16.902344 22.179688 21.691406 17.390625 21.691406 11.484375 C 21.691406 5.578125 16.902344 0.789062 10.996094 0.789062 Z M 10.996094 0.789062 " clip-rule="nonzero"/></clipPath><clipPath id="9436a58bdf"><rect x="0" width="22" y="0" height="23"/></clipPath><clipPath id="7112b43084"><path d="M 7.925781 5.324219 L 22.144531 5.324219 L 22.144531 19.542969 L 7.925781 19.542969 Z M 7.925781 5.324219 " clip-rule="nonzero"/></clipPath></defs><g clip-path="url(#59dc2e7cd3)"><g clip-path="url(#7417880caf)"><g transform="matrix(1, 0, 0, 1, 3, 0.000000000000005773)"><g clip-path="url(#5311802635)"><g clip-path="url(#461fa334b8)"><g clip-path="url(#41ecf738d3)"><path fill="#faab11" d="M 0.167969 0.683594 L 23.832031 0.683594 L 23.832031 29.25 L 0.167969 29.25 Z M 0.167969 0.683594 " fill-opacity="1" fill-rule="nonzero"/></g></g></g></g></g></g><g clip-path="url(#193ee809d3)"><g clip-path="url(#175b9207fc)"><g transform="matrix(1, 0, 0, 1, 4, 1)"><g clip-path="url(#9436a58bdf)"><g clip-path="url(#ab8570a5da)"><g clip-path="url(#05d60e9004)"><rect x="-10.6" width="43.2" fill="#ffffff" height="54.6048" y="-9.3424" fill-opacity="1"/></g></g></g></g></g></g><g clip-path="url(#7112b43084)"><path fill="#1800ad" d="M 20.84375 14.828125 L 16.773438 14.828125 L 16.773438 10.757812 C 16.773438 10.660156 16.695312 10.582031 16.597656 10.582031 L 12.523438 10.582031 L 12.523438 6.511719 C 12.523438 6.414062 12.445312 6.335938 12.347656 6.335938 L 8.101562 6.335938 C 8.003906 6.335938 7.925781 6.414062 7.925781 6.511719 L 7.925781 19.253906 C 7.925781 19.351562 8.003906 19.429688 8.101562 19.429688 L 20.84375 19.429688 C 20.941406 19.429688 21.019531 19.351562 21.019531 19.253906 L 21.019531 15.003906 C 21.019531 14.910156 20.941406 14.828125 20.84375 14.828125 Z M 20.667969 16.953125 L 19.761719 16.953125 L 18.894531 16.085938 L 18.894531 15.179688 L 20.667969 15.179688 Z M 18.71875 17.851562 L 18 17.128906 L 18.71875 16.40625 L 19.441406 17.128906 Z M 17.675781 16.953125 L 16.773438 16.953125 L 16.773438 15.179688 L 18.546875 15.179688 L 18.546875 16.085938 Z M 13.429688 16.953125 L 12.523438 16.953125 L 12.523438 15.179688 L 14.296875 15.179688 L 14.296875 16.085938 Z M 9.183594 16.953125 L 8.277344 16.953125 L 8.277344 15.179688 L 10.050781 15.179688 L 10.050781 16.085938 Z M 8.277344 8.808594 L 9.183594 8.808594 L 10.050781 9.675781 L 10.050781 10.582031 L 8.277344 10.582031 Z M 10.226562 7.914062 L 10.949219 8.632812 L 10.226562 9.355469 L 9.503906 8.632812 Z M 11.269531 8.808594 L 12.171875 8.808594 L 12.171875 10.582031 L 10.402344 10.582031 L 10.402344 9.675781 Z M 15.515625 13.058594 L 16.421875 13.058594 L 16.421875 14.832031 L 14.648438 14.832031 L 14.648438 13.925781 Z M 12.175781 10.933594 L 12.175781 12.707031 L 11.269531 12.707031 L 10.402344 11.839844 L 10.402344 10.933594 Z M 10.226562 12.160156 L 10.949219 12.882812 L 10.226562 13.605469 L 9.503906 12.882812 Z M 10.402344 13.925781 L 11.269531 13.058594 L 12.171875 13.058594 L 12.171875 14.832031 L 10.402344 14.832031 Z M 12.523438 13.058594 L 13.429688 13.058594 L 14.296875 13.925781 L 14.296875 14.828125 L 12.523438 14.828125 Z M 14.472656 13.605469 L 13.75 12.882812 L 14.472656 12.160156 L 15.195312 12.882812 Z M 14.296875 11.839844 L 13.429688 12.707031 L 12.523438 12.707031 L 12.523438 10.933594 L 14.296875 10.933594 Z M 10.050781 10.933594 L 10.050781 11.839844 L 9.183594 12.707031 L 8.277344 12.707031 L 8.277344 10.933594 Z M 8.277344 13.058594 L 9.183594 13.058594 L 10.050781 13.925781 L 10.050781 14.828125 L 8.277344 14.828125 Z M 10.226562 16.40625 L 10.949219 17.128906 L 10.226562 17.851562 L 9.503906 17.128906 Z M 10.402344 18.171875 L 11.269531 17.304688 L 12.171875 17.304688 L 12.171875 19.078125 L 10.402344 19.078125 Z M 11.269531 16.953125 L 10.402344 16.085938 L 10.402344 15.179688 L 12.175781 15.179688 L 12.175781 16.953125 Z M 14.472656 16.40625 L 15.195312 17.128906 L 14.472656 17.851562 L 13.75 17.128906 Z M 14.648438 18.171875 L 15.515625 17.304688 L 16.421875 17.304688 L 16.421875 19.078125 L 14.648438 19.078125 Z M 15.515625 16.953125 L 14.648438 16.085938 L 14.648438 15.179688 L 16.421875 15.179688 L 16.421875 16.953125 Z M 16.421875 12.707031 L 15.515625 12.707031 L 14.648438 11.839844 L 14.648438 10.933594 L 16.421875 10.933594 Z M 12.175781 8.457031 L 11.269531 8.457031 L 10.402344 7.589844 L 10.402344 6.6875 L 12.175781 6.6875 Z M 10.050781 6.6875 L 10.050781 7.589844 L 9.183594 8.457031 L 8.277344 8.457031 L 8.277344 6.6875 Z M 8.277344 17.304688 L 9.183594 17.304688 L 10.050781 18.171875 L 10.050781 19.078125 L 8.277344 19.078125 Z M 12.523438 17.304688 L 13.429688 17.304688 L 14.296875 18.171875 L 14.296875 19.078125 L 12.523438 19.078125 Z M 16.773438 17.304688 L 17.675781 17.304688 L 18.546875 18.171875 L 18.546875 19.078125 L 16.773438 19.078125 Z M 18.894531 19.078125 L 18.894531 18.171875 L 19.761719 17.304688 L 20.667969 17.304688 L 20.667969 19.078125 Z M 12.679688 6.769531 C 12.679688 6.671875 12.761719 6.59375 12.855469 6.59375 L 16.597656 6.59375 C 16.695312 6.59375 16.773438 6.671875 16.773438 6.769531 C 16.773438 6.863281 16.695312 6.945312 16.597656 6.945312 L 12.855469 6.945312 C 12.761719 6.945312 12.679688 6.863281 12.679688 6.769531 Z M 12.679688 7.613281 C 12.679688 7.515625 12.761719 7.4375 12.855469 7.4375 L 16.597656 7.4375 C 16.695312 7.4375 16.773438 7.515625 16.773438 7.613281 C 16.773438 7.707031 16.695312 7.789062 16.597656 7.789062 L 12.855469 7.789062 C 12.761719 7.789062 12.679688 7.707031 12.679688 7.613281 Z M 12.679688 8.453125 C 12.679688 8.359375 12.761719 8.28125 12.855469 8.28125 L 16.597656 8.28125 C 16.695312 8.28125 16.773438 8.359375 16.773438 8.453125 C 16.773438 8.550781 16.695312 8.628906 16.597656 8.628906 L 12.855469 8.628906 C 12.761719 8.628906 12.679688 8.550781 12.679688 8.453125 Z M 12.679688 9.296875 C 12.679688 9.203125 12.761719 9.121094 12.855469 9.121094 L 16.597656 9.121094 C 16.695312 9.121094 16.773438 9.203125 16.773438 9.296875 C 16.773438 9.394531 16.695312 9.472656 16.597656 9.472656 L 12.855469 9.472656 C 12.761719 9.472656 12.679688 9.394531 12.679688 9.296875 Z M 12.679688 10.140625 C 12.679688 10.046875 12.761719 9.964844 12.855469 9.964844 L 16.597656 9.964844 C 16.695312 9.964844 16.773438 10.046875 16.773438 10.140625 C 16.773438 10.238281 16.695312 10.316406 16.597656 10.316406 L 12.855469 10.316406 C 12.761719 10.316406 12.679688 10.238281 12.679688 10.140625 Z M 21.898438 8.839844 L 19.992188 5.601562 C 19.890625 5.429688 19.722656 5.335938 19.523438 5.335938 C 19.328125 5.335938 19.15625 5.429688 19.058594 5.601562 L 17.152344 8.839844 C 16.988281 9.121094 16.984375 9.441406 17.148438 9.722656 C 17.308594 10.003906 17.585938 10.167969 17.910156 10.167969 L 18.941406 10.167969 L 18.941406 10.628906 C 18.875 10.648438 18.828125 10.707031 18.816406 10.777344 L 18.511719 13.234375 C 18.476562 13.523438 18.558594 13.792969 18.753906 14.015625 C 18.945312 14.234375 19.203125 14.347656 19.496094 14.347656 L 19.554688 14.347656 C 19.84375 14.347656 20.101562 14.234375 20.296875 14.015625 C 20.492188 13.792969 20.574219 13.523438 20.539062 13.234375 L 20.230469 10.777344 C 20.222656 10.707031 20.171875 10.648438 20.105469 10.628906 L 20.105469 10.167969 L 21.140625 10.167969 C 21.464844 10.167969 21.742188 10.003906 21.902344 9.722656 C 22.0625 9.441406 22.0625 9.121094 21.898438 8.839844 Z M 19.757812 10.621094 L 19.292969 10.621094 L 19.292969 8.78125 C 19.292969 8.652344 19.394531 8.546875 19.523438 8.546875 C 19.652344 8.546875 19.757812 8.652344 19.757812 8.78125 Z M 20.1875 13.277344 C 20.210938 13.46875 20.160156 13.636719 20.03125 13.78125 C 19.90625 13.925781 19.746094 13.996094 19.550781 13.996094 L 19.496094 13.996094 C 19.304688 13.996094 19.140625 13.925781 19.015625 13.78125 C 18.886719 13.636719 18.835938 13.46875 18.859375 13.277344 L 19.144531 10.972656 L 19.902344 10.972656 Z M 21.597656 9.550781 C 21.5 9.71875 21.335938 9.816406 21.140625 9.816406 L 20.105469 9.816406 L 20.105469 8.78125 C 20.105469 8.457031 19.84375 8.195312 19.523438 8.195312 C 19.203125 8.195312 18.941406 8.457031 18.941406 8.78125 L 18.941406 9.816406 L 17.910156 9.816406 C 17.710938 9.816406 17.550781 9.71875 17.449219 9.550781 C 17.351562 9.378906 17.355469 9.1875 17.453125 9.019531 L 19.359375 5.777344 C 19.394531 5.71875 19.453125 5.683594 19.523438 5.683594 C 19.59375 5.683594 19.652344 5.71875 19.6875 5.777344 L 21.59375 9.019531 C 21.695312 9.1875 21.695312 9.378906 21.597656 9.550781 Z M 21.597656 9.550781 " fill-opacity="1" fill-rule="nonzero"/></g></svg>