<svg xmlns="http://www.w3.org/2000/svg" xmlns:xlink="http://www.w3.org/1999/xlink" width="40" zoomAndPan="magnify" viewBox="0 0 30 37.92" height="40" preserveAspectRatio="xMidYMid meet" version="1.0"><defs><clipPath id="2eed58e1bf"><path d="M 3.113281 0.683594 L 26.886719 0.683594 L 26.886719 29.300781 L 3.113281 29.300781 Z M 3.113281 0.683594 " clip-rule="nonzero"/></clipPath><clipPath id="575c167cef"><path d="M 19.457031 1.550781 C 18.035156 0.976562 16.539062 0.683594 15 0.683594 C 13.460938 0.683594 11.964844 0.976562 10.542969 1.550781 C 9.078125 2.144531 7.757812 3.019531 6.632812 4.148438 C 4.429688 6.355469 3.199219 9.285156 3.167969 12.402344 C 3.136719 15.511719 4.304688 18.464844 6.460938 20.707031 L 6.453125 20.710938 L 15 29.257812 L 23.5 20.757812 L 23.492188 20.753906 C 25.667969 18.511719 26.855469 15.558594 26.832031 12.433594 C 26.8125 9.300781 25.582031 6.363281 23.367188 4.148438 C 22.234375 3.019531 20.921875 2.144531 19.457031 1.550781 Z M 19.457031 1.550781 " clip-rule="nonzero"/></clipPath><clipPath id="1568cb001b"><path d="M 0.144531 0.683594 L 23.855469 0.683594 L 23.855469 29.300781 L 0.144531 29.300781 Z M 0.144531 0.683594 " clip-rule="nonzero"/></clipPath><clipPath id="45faeaed02"><path d="M 16.457031 1.550781 C 15.035156 0.976562 13.539062 0.683594 12 0.683594 C 10.460938 0.683594 8.964844 0.976562 7.542969 1.550781 C 6.078125 2.144531 4.757812 3.019531 3.632812 4.148438 C 1.429688 6.355469 0.199219 9.285156 0.167969 12.402344 C 0.136719 15.511719 1.304688 18.464844 3.460938 20.707031 L 3.453125 20.710938 L 12 29.257812 L 20.5 20.757812 L 20.492188 20.753906 C 22.667969 18.511719 23.855469 15.558594 23.832031 12.433594 C 23.8125 9.300781 22.582031 6.363281 20.367188 4.148438 C 19.234375 3.019531 17.921875 2.144531 16.457031 1.550781 Z M 16.457031 1.550781 " clip-rule="nonzero"/></clipPath><clipPath id="ef84297f02"><rect x="0" width="24" y="0" height="30"/></clipPath><clipPath id="938e977d82"><path d="M 4.261719 1.777344 L 25.738281 1.777344 L 25.738281 23.203125 L 4.261719 23.203125 Z M 4.261719 1.777344 " clip-rule="nonzero"/></clipPath><clipPath id="323cdc0822"><path d="M 14.996094 1.789062 C 9.089844 1.789062 4.300781 6.578125 4.300781 12.484375 C 4.300781 18.390625 9.089844 23.179688 14.996094 23.179688 C 20.902344 23.179688 25.691406 18.390625 25.691406 12.484375 C 25.691406 6.578125 20.902344 1.789062 14.996094 1.789062 Z M 14.996094 1.789062 " clip-rule="nonzero"/></clipPath><clipPath id="d6fb582a12"><path d="M 0.261719 0.777344 L 21.738281 0.777344 L 21.738281 22.203125 L 0.261719 22.203125 Z M 0.261719 0.777344 " clip-rule="nonzero"/></clipPath><clipPath id="29f3e9bfed"><path d="M 10.996094 0.789062 C 5.089844 0.789062 0.300781 5.578125 0.300781 11.484375 C 0.300781 17.390625 5.089844 22.179688 10.996094 22.179688 C 16.902344 22.179688 21.691406 17.390625 21.691406 11.484375 C 21.691406 5.578125 16.902344 0.789062 10.996094 0.789062 Z M 10.996094 0.789062 " clip-rule="nonzero"/></clipPath><clipPath id="b36981af8c"><rect x="0" width="22" y="0" height="23"/></clipPath><clipPath id="347ac2f7ef"><path d="M 6.742188 5.847656 L 23.207031 5.847656 L 23.207031 19.320312 L 6.742188 19.320312 Z M 6.742188 5.847656 " clip-rule="nonzero"/></clipPath></defs><g clip-path="url(#2eed58e1bf)"><g clip-path="url(#575c167cef)"><g transform="matrix(1, 0, 0, 1, 3, 0.000000000000005773)"><g clip-path="url(#ef84297f02)"><g clip-path="url(#1568cb001b)"><g clip-path="url(#45faeaed02)"><path fill="#faab11" d="M 0.167969 0.683594 L 23.832031 0.683594 L 23.832031 29.25 L 0.167969 29.25 Z M 0.167969 0.683594 " fill-opacity="1" fill-rule="nonzero"/></g></g></g></g></g></g><g clip-path="url(#938e977d82)"><g clip-path="url(#323cdc0822)"><g transform="matrix(1, 0, 0, 1, 4, 1)"><g clip-path="url(#b36981af8c)"><g clip-path="url(#d6fb582a12)"><g clip-path="url(#29f3e9bfed)"><rect x="-10.6" width="43.2" fill="#ffffff" height="54.6048" y="-9.3424" fill-opacity="1"/></g></g></g></g></g></g><g clip-path="url(#347ac2f7ef)"><path fill="#1800ad" d="M 6.746094 11.464844 L 6.746094 17.945312 C 6.746094 18.171875 6.902344 18.398438 7.214844 18.585938 C 7.804688 18.941406 8.996094 19.1875 10.367188 19.1875 C 11.738281 19.1875 12.929688 18.941406 13.519531 18.585938 C 13.832031 18.398438 13.988281 18.171875 13.988281 17.945312 C 13.988281 17.945312 13.988281 11.464844 13.988281 11.464844 C 13.988281 11.238281 13.832031 11.011719 13.519531 10.824219 C 12.929688 10.472656 11.738281 10.222656 10.367188 10.222656 C 8.996094 10.222656 7.804688 10.472656 7.214844 10.824219 C 6.902344 11.011719 6.746094 11.238281 6.746094 11.464844 Z M 7.082031 13.089844 L 7.082031 17.945312 C 7.082031 18.023438 7.132812 18.09375 7.207031 18.164062 C 7.308594 18.257812 7.460938 18.347656 7.648438 18.425781 C 8.261719 18.6875 9.25 18.851562 10.367188 18.851562 C 11.484375 18.851562 12.472656 18.6875 13.089844 18.425781 C 13.277344 18.347656 13.425781 18.257812 13.527344 18.164062 C 13.601562 18.09375 13.652344 18.023438 13.652344 17.945312 L 13.652344 13.089844 C 13.632812 13.101562 13.613281 13.117188 13.589844 13.132812 C 13.105469 13.457031 12.132812 13.703125 10.964844 13.765625 C 10.847656 13.9375 10.652344 14.054688 10.425781 14.054688 C 10.3125 14.054688 10.207031 14.027344 10.113281 13.976562 L 10.113281 14.761719 C 10.113281 15.121094 9.824219 15.410156 9.464844 15.410156 C 9.109375 15.410156 8.816406 15.121094 8.816406 14.761719 L 8.816406 14.664062 C 8.726562 14.714844 8.621094 14.742188 8.507812 14.742188 C 8.148438 14.742188 7.859375 14.453125 7.859375 14.09375 L 7.859375 13.453125 C 7.53125 13.347656 7.269531 13.226562 7.082031 13.089844 Z M 22.464844 7.789062 C 22.726562 7.859375 22.917969 8.097656 22.917969 8.382812 L 22.917969 9.957031 C 22.917969 10.296875 22.640625 10.574219 22.296875 10.574219 L 17.617188 10.574219 C 17.523438 10.574219 17.449219 10.648438 17.449219 10.742188 L 17.449219 12.460938 L 16.625 13.179688 C 16.589844 13.210938 16.566406 13.257812 16.566406 13.304688 L 16.566406 18.484375 C 16.566406 18.578125 16.644531 18.652344 16.734375 18.652344 L 18.5 18.652344 C 18.59375 18.652344 18.667969 18.578125 18.667969 18.484375 L 18.667969 13.304688 C 18.667969 13.257812 18.648438 13.210938 18.609375 13.179688 L 17.785156 12.460938 L 17.785156 10.910156 C 17.785156 10.910156 22.296875 10.910156 22.296875 10.910156 C 22.824219 10.910156 23.253906 10.480469 23.253906 9.957031 C 23.253906 9.957031 23.253906 8.382812 23.253906 8.382812 C 23.253906 7.914062 22.914062 7.523438 22.464844 7.441406 L 22.464844 6.800781 C 22.464844 6.277344 22.039062 5.847656 21.511719 5.847656 L 13.722656 5.847656 C 13.199219 5.847656 12.769531 6.277344 12.769531 6.800781 L 12.769531 8.375 C 12.769531 8.902344 13.199219 9.332031 13.722656 9.332031 C 13.722656 9.332031 21.511719 9.332031 21.511719 9.332031 C 22.039062 9.332031 22.464844 8.902344 22.464844 8.375 Z M 18.332031 17.769531 L 18.332031 18.316406 C 18.332031 18.316406 16.90625 18.316406 16.90625 18.316406 L 16.90625 17.769531 Z M 18.332031 17.433594 L 16.90625 17.433594 L 16.90625 13.382812 C 16.90625 13.382812 17.617188 12.761719 17.617188 12.761719 L 18.332031 13.382812 Z M 8.195312 12.46875 L 8.195312 13.324219 C 8.195312 13.328125 8.195312 13.328125 8.195312 13.332031 L 8.195312 14.09375 C 8.195312 14.265625 8.335938 14.40625 8.507812 14.40625 C 8.679688 14.40625 8.816406 14.265625 8.816406 14.09375 L 8.816406 13.414062 C 8.816406 13.320312 8.894531 13.246094 8.988281 13.246094 C 9.078125 13.246094 9.15625 13.320312 9.15625 13.414062 L 9.15625 14.761719 C 9.15625 14.933594 9.292969 15.074219 9.464844 15.074219 C 9.636719 15.074219 9.777344 14.933594 9.777344 14.761719 L 9.777344 13.070312 C 9.777344 12.976562 9.851562 12.902344 9.945312 12.902344 C 10.039062 12.902344 10.113281 12.976562 10.113281 13.070312 L 10.113281 13.40625 C 10.113281 13.578125 10.253906 13.71875 10.425781 13.71875 C 10.550781 13.71875 10.65625 13.644531 10.707031 13.539062 C 10.707031 13.535156 10.710938 13.53125 10.714844 13.523438 C 10.726562 13.488281 10.734375 13.449219 10.734375 13.40625 L 10.734375 12.699219 C 10.613281 12.703125 10.492188 12.707031 10.367188 12.707031 C 9.550781 12.707031 8.796875 12.617188 8.195312 12.46875 Z M 13.652344 12.015625 C 13.613281 12.042969 13.570312 12.074219 13.519531 12.101562 C 13.035156 12.394531 12.140625 12.613281 11.074219 12.683594 L 11.074219 13.40625 C 11.074219 13.410156 11.074219 13.417969 11.074219 13.421875 C 11.957031 13.363281 12.710938 13.199219 13.1875 12.972656 C 13.34375 12.898438 13.46875 12.816406 13.550781 12.730469 C 13.613281 12.667969 13.652344 12.605469 13.652344 12.539062 Z M 7.082031 12.015625 L 7.082031 12.539062 C 7.082031 12.621094 7.136719 12.695312 7.222656 12.769531 C 7.363281 12.890625 7.582031 13.003906 7.859375 13.097656 L 7.859375 12.378906 C 7.601562 12.296875 7.382812 12.203125 7.214844 12.101562 C 7.167969 12.074219 7.125 12.042969 7.082031 12.015625 Z M 8.082031 12.09375 C 8.683594 12.265625 9.488281 12.371094 10.367188 12.371094 C 11.484375 12.371094 12.472656 12.203125 13.089844 11.941406 C 13.277344 11.863281 13.425781 11.777344 13.527344 11.679688 C 13.601562 11.609375 13.652344 11.539062 13.652344 11.464844 C 13.652344 11.386719 13.601562 11.316406 13.527344 11.246094 C 13.425781 11.152344 13.277344 11.0625 13.089844 10.984375 C 12.472656 10.722656 11.484375 10.558594 10.367188 10.558594 C 9.25 10.558594 8.261719 10.722656 7.648438 10.984375 C 7.460938 11.0625 7.308594 11.152344 7.207031 11.246094 C 7.132812 11.316406 7.082031 11.386719 7.082031 11.464844 C 7.082031 11.539062 7.132812 11.609375 7.207031 11.679688 C 7.308594 11.777344 7.460938 11.863281 7.648438 11.941406 C 7.773438 11.996094 7.910156 12.042969 8.0625 12.089844 C 8.070312 12.089844 8.078125 12.09375 8.082031 12.09375 Z M 15.878906 9.875 C 15.847656 9.828125 15.796875 9.800781 15.738281 9.800781 C 15.679688 9.800781 15.628906 9.828125 15.597656 9.875 C 15.597656 9.875 15.269531 10.390625 15.074219 10.820312 C 14.980469 11.03125 14.917969 11.222656 14.917969 11.347656 C 14.917969 11.800781 15.285156 12.167969 15.738281 12.167969 C 16.191406 12.167969 16.558594 11.800781 16.558594 11.347656 C 16.558594 11.222656 16.496094 11.03125 16.402344 10.820312 C 16.207031 10.390625 15.878906 9.875 15.878906 9.875 Z M 10.367188 10.890625 C 9.496094 10.890625 8.742188 10.984375 8.367188 11.117188 C 8.246094 11.164062 8.160156 11.214844 8.105469 11.261719 C 8.039062 11.328125 8.011719 11.394531 8.011719 11.464844 C 8.011719 11.53125 8.039062 11.601562 8.105469 11.664062 C 8.160156 11.714844 8.246094 11.765625 8.367188 11.808594 C 8.742188 11.941406 9.496094 12.039062 10.367188 12.039062 C 11.238281 12.039062 11.992188 11.941406 12.367188 11.808594 C 12.488281 11.765625 12.578125 11.714844 12.628906 11.664062 C 12.695312 11.601562 12.722656 11.53125 12.722656 11.464844 C 12.722656 11.394531 12.695312 11.328125 12.628906 11.261719 C 12.578125 11.214844 12.488281 11.164062 12.367188 11.117188 C 11.992188 10.984375 11.238281 10.890625 10.367188 10.890625 Z M 15.738281 10.289062 C 15.84375 10.46875 15.992188 10.726562 16.097656 10.960938 C 16.167969 11.117188 16.222656 11.257812 16.222656 11.347656 C 16.222656 11.617188 16.003906 11.832031 15.738281 11.832031 C 15.472656 11.832031 15.253906 11.617188 15.253906 11.347656 C 15.253906 11.257812 15.3125 11.117188 15.378906 10.960938 C 15.484375 10.726562 15.632812 10.46875 15.738281 10.289062 Z M 12.316406 11.464844 C 12.296875 11.472656 12.273438 11.484375 12.253906 11.492188 C 11.898438 11.617188 11.1875 11.699219 10.367188 11.699219 C 9.546875 11.699219 8.835938 11.617188 8.480469 11.492188 C 8.460938 11.484375 8.4375 11.472656 8.417969 11.464844 C 8.4375 11.453125 8.460938 11.445312 8.480469 11.4375 C 8.835938 11.308594 9.546875 11.226562 10.367188 11.226562 C 11.1875 11.226562 11.898438 11.308594 12.253906 11.4375 C 12.273438 11.445312 12.296875 11.453125 12.316406 11.464844 Z M 16.867188 6.183594 L 16.867188 6.847656 C 16.867188 7.203125 16.574219 7.496094 16.21875 7.496094 C 16.105469 7.496094 16 7.464844 15.90625 7.414062 L 15.90625 8.203125 C 15.90625 8.558594 15.617188 8.851562 15.257812 8.851562 C 14.902344 8.851562 14.609375 8.558594 14.609375 8.203125 L 14.609375 7.414062 C 14.519531 7.464844 14.414062 7.496094 14.300781 7.496094 C 13.941406 7.496094 13.652344 7.203125 13.652344 6.847656 L 13.652344 6.1875 C 13.34375 6.226562 13.105469 6.484375 13.105469 6.800781 C 13.105469 6.800781 13.105469 8.375 13.105469 8.375 C 13.105469 8.714844 13.382812 8.992188 13.722656 8.992188 L 21.511719 8.992188 C 21.851562 8.992188 22.128906 8.714844 22.128906 8.375 L 22.128906 6.800781 C 22.128906 6.460938 21.851562 6.183594 21.511719 6.183594 Z M 16.527344 6.183594 L 13.988281 6.183594 L 13.988281 6.847656 C 13.988281 7.019531 14.128906 7.15625 14.300781 7.15625 C 14.472656 7.15625 14.609375 7.019531 14.609375 6.847656 C 14.609375 6.753906 14.6875 6.679688 14.78125 6.679688 C 14.871094 6.679688 14.949219 6.753906 14.949219 6.847656 C 14.949219 6.847656 14.949219 6.847656 14.949219 6.851562 C 14.949219 6.851562 14.949219 6.851562 14.949219 6.855469 C 14.949219 6.855469 14.949219 8.203125 14.949219 8.203125 C 14.949219 8.375 15.085938 8.515625 15.257812 8.515625 C 15.429688 8.515625 15.570312 8.375 15.570312 8.203125 L 15.570312 6.507812 C 15.570312 6.417969 15.644531 6.339844 15.738281 6.339844 C 15.832031 6.339844 15.90625 6.417969 15.90625 6.507812 L 15.90625 6.847656 C 15.90625 7.019531 16.046875 7.15625 16.21875 7.15625 C 16.390625 7.15625 16.527344 7.019531 16.527344 6.847656 Z M 16.527344 6.183594 " fill-opacity="1" fill-rule="evenodd"/></g></svg>