<svg xmlns="http://www.w3.org/2000/svg" xmlns:xlink="http://www.w3.org/1999/xlink" width="40" zoomAndPan="magnify" viewBox="0 0 30 37.92" height="40" preserveAspectRatio="xMidYMid meet" version="1.0"><defs><clipPath id="f9517e9ea6"><path d="M 3.113281 0.683594 L 26.886719 0.683594 L 26.886719 29.300781 L 3.113281 29.300781 Z M 3.113281 0.683594 " clip-rule="nonzero"/></clipPath><clipPath id="b93734b35c"><path d="M 19.457031 1.550781 C 18.035156 0.976562 16.539062 0.683594 15 0.683594 C 13.460938 0.683594 11.964844 0.976562 10.542969 1.550781 C 9.078125 2.144531 7.757812 3.019531 6.632812 4.148438 C 4.429688 6.355469 3.199219 9.285156 3.167969 12.402344 C 3.136719 15.511719 4.304688 18.464844 6.460938 20.707031 L 6.453125 20.710938 L 15 29.257812 L 23.5 20.757812 L 23.492188 20.753906 C 25.667969 18.511719 26.855469 15.558594 26.832031 12.433594 C 26.8125 9.300781 25.582031 6.363281 23.367188 4.148438 C 22.234375 3.019531 20.921875 2.144531 19.457031 1.550781 Z M 19.457031 1.550781 " clip-rule="nonzero"/></clipPath><clipPath id="2c29c8dc51"><path d="M 0.144531 0.683594 L 23.855469 0.683594 L 23.855469 29.300781 L 0.144531 29.300781 Z M 0.144531 0.683594 " clip-rule="nonzero"/></clipPath><clipPath id="5ff7ef299d"><path d="M 16.457031 1.550781 C 15.035156 0.976562 13.539062 0.683594 12 0.683594 C 10.460938 0.683594 8.964844 0.976562 7.542969 1.550781 C 6.078125 2.144531 4.757812 3.019531 3.632812 4.148438 C 1.429688 6.355469 0.199219 9.285156 0.167969 12.402344 C 0.136719 15.511719 1.304688 18.464844 3.460938 20.707031 L 3.453125 20.710938 L 12 29.257812 L 20.5 20.757812 L 20.492188 20.753906 C 22.667969 18.511719 23.855469 15.558594 23.832031 12.433594 C 23.8125 9.300781 22.582031 6.363281 20.367188 4.148438 C 19.234375 3.019531 17.921875 2.144531 16.457031 1.550781 Z M 16.457031 1.550781 " clip-rule="nonzero"/></clipPath><clipPath id="cc8a39a8d9"><rect x="0" width="24" y="0" height="30"/></clipPath><clipPath id="7d8d25b6ba"><path d="M 4.261719 1.777344 L 25.738281 1.777344 L 25.738281 23.203125 L 4.261719 23.203125 Z M 4.261719 1.777344 " clip-rule="nonzero"/></clipPath><clipPath id="f7e44e867a"><path d="M 14.996094 1.789062 C 9.089844 1.789062 4.300781 6.578125 4.300781 12.484375 C 4.300781 18.390625 9.089844 23.179688 14.996094 23.179688 C 20.902344 23.179688 25.691406 18.390625 25.691406 12.484375 C 25.691406 6.578125 20.902344 1.789062 14.996094 1.789062 Z M 14.996094 1.789062 " clip-rule="nonzero"/></clipPath><clipPath id="abd942b503"><path d="M 0.261719 0.777344 L 21.738281 0.777344 L 21.738281 22.203125 L 0.261719 22.203125 Z M 0.261719 0.777344 " clip-rule="nonzero"/></clipPath><clipPath id="1e3d105f70"><path d="M 10.996094 0.789062 C 5.089844 0.789062 0.300781 5.578125 0.300781 11.484375 C 0.300781 17.390625 5.089844 22.179688 10.996094 22.179688 C 16.902344 22.179688 21.691406 17.390625 21.691406 11.484375 C 21.691406 5.578125 16.902344 0.789062 10.996094 0.789062 Z M 10.996094 0.789062 " clip-rule="nonzero"/></clipPath><clipPath id="46a415a3ab"><rect x="0" width="22" y="0" height="23"/></clipPath><clipPath id="4a236e47d5"><path d="M 9.898438 7 L 20.375 7 L 20.375 21.742188 L 9.898438 21.742188 Z M 9.898438 7 " clip-rule="nonzero"/></clipPath><clipPath id="934ffd7b22"><path d="M 13 3.78125 L 17 3.78125 L 17 6 L 13 6 Z M 13 3.78125 " clip-rule="nonzero"/></clipPath></defs><g clip-path="url(#f9517e9ea6)"><g clip-path="url(#b93734b35c)"><g transform="matrix(1, 0, 0, 1, 3, 0.000000000000005773)"><g clip-path="url(#cc8a39a8d9)"><g clip-path="url(#2c29c8dc51)"><g clip-path="url(#5ff7ef299d)"><path fill="#faab11" d="M 0.167969 0.683594 L 23.832031 0.683594 L 23.832031 29.25 L 0.167969 29.25 Z M 0.167969 0.683594 " fill-opacity="1" fill-rule="nonzero"/></g></g></g></g></g></g><g clip-path="url(#7d8d25b6ba)"><g clip-path="url(#f7e44e867a)"><g transform="matrix(1, 0, 0, 1, 4, 1)"><g clip-path="url(#46a415a3ab)"><g clip-path="url(#abd942b503)"><g clip-path="url(#1e3d105f70)"><rect x="-10.6" width="43.2" fill="#ffffff" height="54.6048" y="-9.3424" fill-opacity="1"/></g></g></g></g></g></g><g clip-path="url(#4a236e47d5)"><path fill="#1800ad" d="M 10.34375 13.007812 C 10.417969 13.890625 10.53125 14.628906 10.636719 14.929688 C 10.78125 15.320312 11.878906 15.527344 12.960938 15.632812 L 12.960938 21.050781 C 12.960938 21.566406 13.375 21.984375 13.890625 21.984375 C 14.40625 21.984375 14.824219 21.566406 14.824219 21.050781 L 14.824219 15.734375 C 14.890625 15.734375 14.949219 15.734375 15 15.734375 C 15.046875 15.734375 15.105469 15.734375 15.171875 15.734375 L 15.171875 21.050781 C 15.171875 21.566406 15.589844 21.984375 16.105469 21.984375 C 16.621094 21.984375 17.039062 21.566406 17.039062 21.050781 L 17.039062 15.632812 C 18.121094 15.527344 19.21875 15.320312 19.359375 14.929688 C 19.46875 14.628906 19.582031 13.890625 19.652344 13.007812 C 19.890625 12.933594 20.066406 12.722656 20.082031 12.464844 C 20.097656 12.203125 19.945312 11.972656 19.722656 11.875 C 19.753906 10.984375 19.734375 10.070312 19.632812 9.363281 C 19.632812 9.109375 19.417969 8.902344 19.152344 8.902344 C 18.882812 8.902344 18.667969 9.109375 18.667969 9.363281 C 18.667969 9.453125 18.691406 9.535156 18.738281 9.605469 C 18.539062 9.648438 18.328125 9.6875 18.105469 9.722656 C 18.078125 9.632812 18.046875 9.542969 18.015625 9.449219 C 17.683594 8.527344 17.226562 8 16.652344 7.882812 C 16.589844 7.863281 16.523438 7.851562 16.457031 7.851562 L 15.988281 7.851562 C 15.699219 8.03125 15.363281 8.132812 15 8.132812 C 14.636719 8.132812 14.296875 8.03125 14.007812 7.851562 L 13.542969 7.851562 C 13.472656 7.851562 13.40625 7.863281 13.34375 7.882812 C 12.769531 8 12.3125 8.527344 11.980469 9.449219 C 11.949219 9.542969 11.917969 9.632812 11.890625 9.722656 C 11.671875 9.6875 11.457031 9.648438 11.257812 9.605469 C 11.304688 9.535156 11.332031 9.453125 11.332031 9.363281 C 11.332031 9.109375 11.113281 8.902344 10.847656 8.902344 C 10.578125 8.902344 10.363281 9.109375 10.363281 9.363281 C 10.261719 10.070312 10.246094 10.984375 10.277344 11.875 C 10.050781 11.972656 9.898438 12.203125 9.914062 12.464844 C 9.929688 12.722656 10.109375 12.933594 10.34375 13.007812 Z M 19.136719 9.085938 C 19.332031 9.085938 19.488281 9.226562 19.507812 9.40625 C 19.457031 9.421875 19.402344 9.441406 19.34375 9.457031 C 19.335938 9.300781 19.199219 9.175781 19.03125 9.175781 C 18.949219 9.175781 18.875 9.207031 18.820312 9.253906 C 18.886719 9.152344 19.003906 9.085938 19.136719 9.085938 Z M 15 10.222656 C 16.148438 10.222656 18.277344 10.011719 19.445312 9.664062 C 19.632812 11.445312 19.371094 14.242188 19.148438 14.851562 C 19.023438 15.195312 17.046875 15.507812 15 15.507812 C 12.953125 15.507812 10.976562 15.195312 10.851562 14.851562 C 10.628906 14.242188 10.363281 11.445312 10.554688 9.664062 C 11.71875 10.011719 13.847656 10.222656 15 10.222656 Z M 10.859375 9.085938 C 10.996094 9.085938 11.109375 9.152344 11.175781 9.253906 C 11.121094 9.207031 11.046875 9.175781 10.964844 9.175781 C 10.796875 9.175781 10.664062 9.300781 10.65625 9.457031 C 10.597656 9.441406 10.542969 9.421875 10.488281 9.40625 C 10.507812 9.226562 10.667969 9.085938 10.859375 9.085938 Z M 10.859375 9.085938 " fill-opacity="1" fill-rule="nonzero"/></g><path fill="#1800ad" d="M 16.695312 6.261719 C 16.695312 6.1875 16.691406 6.113281 16.679688 6.039062 L 13.316406 6.039062 C 13.308594 6.113281 13.300781 6.1875 13.300781 6.261719 C 13.300781 7.199219 14.0625 7.960938 15 7.960938 C 15.9375 7.960938 16.695312 7.199219 16.695312 6.261719 Z M 16.695312 6.261719 " fill-opacity="1" fill-rule="nonzero"/><g clip-path="url(#934ffd7b22)"><path fill="#1800ad" d="M 13.308594 5.867188 L 16.71875 5.867188 C 16.84375 5.867188 16.941406 5.765625 16.941406 5.644531 C 16.941406 5.523438 16.84375 5.425781 16.71875 5.425781 L 16.691406 5.425781 C 16.675781 4.863281 16.386719 4.367188 15.953125 4.070312 L 15.953125 4.207031 C 15.953125 4.300781 15.875 4.378906 15.777344 4.378906 C 15.679688 4.378906 15.601562 4.300781 15.601562 4.207031 L 15.601562 3.886719 C 15.46875 3.835938 15.324219 3.800781 15.171875 3.785156 L 15.171875 4.207031 C 15.171875 4.300781 15.09375 4.378906 15 4.378906 C 14.902344 4.378906 14.824219 4.300781 14.824219 4.207031 L 14.824219 3.785156 C 14.675781 3.800781 14.53125 3.835938 14.394531 3.886719 L 14.394531 4.207031 C 14.394531 4.300781 14.316406 4.378906 14.21875 4.378906 C 14.125 4.378906 14.046875 4.300781 14.046875 4.207031 L 14.046875 4.070312 C 13.609375 4.367188 13.324219 4.863281 13.308594 5.425781 L 13.277344 5.425781 C 13.15625 5.425781 13.058594 5.523438 13.058594 5.644531 C 13.058594 5.765625 13.15625 5.867188 13.277344 5.867188 Z M 13.308594 5.867188 " fill-opacity="1" fill-rule="nonzero"/></g></svg>