<svg xmlns="http://www.w3.org/2000/svg" xmlns:xlink="http://www.w3.org/1999/xlink" width="40" zoomAndPan="magnify" viewBox="0 0 30 37.92" height="40" preserveAspectRatio="xMidYMid meet" version="1.0"><defs><clipPath id="e03ad44b18"><path d="M 3.113281 0.683594 L 26.886719 0.683594 L 26.886719 29.300781 L 3.113281 29.300781 Z M 3.113281 0.683594 " clip-rule="nonzero"/></clipPath><clipPath id="c0da1e49fe"><path d="M 19.457031 1.550781 C 18.035156 0.976562 16.539062 0.683594 15 0.683594 C 13.460938 0.683594 11.964844 0.976562 10.542969 1.550781 C 9.078125 2.144531 7.757812 3.019531 6.632812 4.148438 C 4.429688 6.355469 3.199219 9.285156 3.167969 12.402344 C 3.136719 15.511719 4.304688 18.464844 6.460938 20.707031 L 6.453125 20.710938 L 15 29.257812 L 23.5 20.757812 L 23.492188 20.753906 C 25.667969 18.511719 26.855469 15.558594 26.832031 12.433594 C 26.8125 9.300781 25.582031 6.363281 23.367188 4.148438 C 22.234375 3.019531 20.921875 2.144531 19.457031 1.550781 Z M 19.457031 1.550781 " clip-rule="nonzero"/></clipPath><clipPath id="bcc28ce5d8"><path d="M 0.144531 0.683594 L 23.855469 0.683594 L 23.855469 29.300781 L 0.144531 29.300781 Z M 0.144531 0.683594 " clip-rule="nonzero"/></clipPath><clipPath id="0e77e8564b"><path d="M 16.457031 1.550781 C 15.035156 0.976562 13.539062 0.683594 12 0.683594 C 10.460938 0.683594 8.964844 0.976562 7.542969 1.550781 C 6.078125 2.144531 4.757812 3.019531 3.632812 4.148438 C 1.429688 6.355469 0.199219 9.285156 0.167969 12.402344 C 0.136719 15.511719 1.304688 18.464844 3.460938 20.707031 L 3.453125 20.710938 L 12 29.257812 L 20.5 20.757812 L 20.492188 20.753906 C 22.667969 18.511719 23.855469 15.558594 23.832031 12.433594 C 23.8125 9.300781 22.582031 6.363281 20.367188 4.148438 C 19.234375 3.019531 17.921875 2.144531 16.457031 1.550781 Z M 16.457031 1.550781 " clip-rule="nonzero"/></clipPath><clipPath id="b617e8e97c"><rect x="0" width="24" y="0" height="30"/></clipPath><clipPath id="d033b805a9"><path d="M 4.261719 1.777344 L 25.738281 1.777344 L 25.738281 23.203125 L 4.261719 23.203125 Z M 4.261719 1.777344 " clip-rule="nonzero"/></clipPath><clipPath id="85c9cd2668"><path d="M 14.996094 1.789062 C 9.089844 1.789062 4.300781 6.578125 4.300781 12.484375 C 4.300781 18.390625 9.089844 23.179688 14.996094 23.179688 C 20.902344 23.179688 25.691406 18.390625 25.691406 12.484375 C 25.691406 6.578125 20.902344 1.789062 14.996094 1.789062 Z M 14.996094 1.789062 " clip-rule="nonzero"/></clipPath><clipPath id="99e0fe6948"><path d="M 0.261719 0.777344 L 21.738281 0.777344 L 21.738281 22.203125 L 0.261719 22.203125 Z M 0.261719 0.777344 " clip-rule="nonzero"/></clipPath><clipPath id="c92f082e79"><path d="M 10.996094 0.789062 C 5.089844 0.789062 0.300781 5.578125 0.300781 11.484375 C 0.300781 17.390625 5.089844 22.179688 10.996094 22.179688 C 16.902344 22.179688 21.691406 17.390625 21.691406 11.484375 C 21.691406 5.578125 16.902344 0.789062 10.996094 0.789062 Z M 10.996094 0.789062 " clip-rule="nonzero"/></clipPath><clipPath id="05d53bc874"><rect x="0" width="22" y="0" height="23"/></clipPath><clipPath id="ca73722146"><path d="M 10 4.894531 L 15 4.894531 L 15 7 L 10 7 Z M 10 4.894531 " clip-rule="nonzero"/></clipPath><clipPath id="8facb2ada1"><path d="M 9.523438 9 L 14 9 L 14 14 L 9.523438 14 Z M 9.523438 9 " clip-rule="nonzero"/></clipPath><clipPath id="d3ea203faf"><path d="M 10 9 L 17 9 L 17 20.613281 L 10 20.613281 Z M 10 9 " clip-rule="nonzero"/></clipPath><clipPath id="fd7e55a0db"><path d="M 18 4.894531 L 20.75 4.894531 L 20.75 20.613281 L 18 20.613281 Z M 18 4.894531 " clip-rule="nonzero"/></clipPath></defs><g clip-path="url(#e03ad44b18)"><g clip-path="url(#c0da1e49fe)"><g transform="matrix(1, 0, 0, 1, 3, 0.000000000000005773)"><g clip-path="url(#b617e8e97c)"><g clip-path="url(#bcc28ce5d8)"><g clip-path="url(#0e77e8564b)"><path fill="#faab11" d="M 0.167969 0.683594 L 23.832031 0.683594 L 23.832031 29.25 L 0.167969 29.25 Z M 0.167969 0.683594 " fill-opacity="1" fill-rule="nonzero"/></g></g></g></g></g></g><g clip-path="url(#d033b805a9)"><g clip-path="url(#85c9cd2668)"><g transform="matrix(1, 0, 0, 1, 4, 1)"><g clip-path="url(#05d53bc874)"><g clip-path="url(#99e0fe6948)"><g clip-path="url(#c92f082e79)"><rect x="-10.6" width="43.2" fill="#ffffff" height="54.6048" y="-9.3424" fill-opacity="1"/></g></g></g></g></g></g><g clip-path="url(#ca73722146)"><path fill="#1800ad" d="M 10.765625 6.691406 C 10.765625 6.691406 10.769531 6.691406 10.769531 6.691406 L 11.121094 6.691406 C 11.203125 6.699219 11.367188 6.703125 11.566406 6.691406 L 13.957031 6.691406 C 13.960938 6.691406 13.964844 6.691406 13.96875 6.691406 C 14.023438 6.6875 14.066406 6.65625 14.089844 6.617188 C 14.09375 6.601562 14.097656 6.585938 14.097656 6.566406 L 14.097656 6.554688 C 14.097656 6.527344 14.089844 6.496094 14.074219 6.472656 C 14.042969 6.429688 13.988281 6.402344 13.925781 6.402344 C 13.925781 6.402344 13.925781 6.398438 13.925781 6.398438 C 13.921875 6.394531 13.917969 6.386719 13.914062 6.382812 C 13.898438 6.351562 13.890625 6.320312 13.886719 6.28125 C 13.871094 6.175781 13.84375 6.074219 13.804688 5.980469 C 13.726562 5.78125 13.59375 5.601562 13.410156 5.449219 C 13.398438 5.433594 13.378906 5.414062 13.335938 5.390625 C 13.289062 5.363281 13.242188 5.339844 13.203125 5.320312 C 13.203125 5.445312 13.203125 5.550781 13.199219 5.65625 C 13.199219 5.726562 13.1875 5.789062 13.085938 5.792969 C 13 5.792969 12.976562 5.746094 12.96875 5.691406 C 12.96875 5.679688 12.964844 5.667969 12.964844 5.660156 C 12.964844 5.550781 12.957031 5.441406 12.964844 5.332031 C 12.964844 5.328125 12.964844 5.324219 12.964844 5.320312 C 12.972656 5.214844 12.941406 5.15625 12.820312 5.132812 C 12.816406 5.132812 12.816406 5.132812 12.816406 5.132812 C 12.800781 5.128906 12.785156 5.125 12.769531 5.125 C 12.765625 5.121094 12.757812 5.121094 12.753906 5.121094 C 12.683594 5.105469 12.621094 5.074219 12.621094 4.980469 C 12.621094 4.964844 12.5625 4.933594 12.53125 4.933594 C 12.519531 4.929688 12.511719 4.929688 12.5 4.929688 C 12.5 4.929688 12.496094 4.929688 12.492188 4.929688 C 12.386719 4.921875 12.277344 4.925781 12.171875 4.933594 C 12.136719 4.9375 12.078125 4.96875 12.078125 4.984375 C 12.082031 5.082031 12.011719 5.113281 11.9375 5.128906 C 11.933594 5.128906 11.933594 5.128906 11.933594 5.128906 C 11.921875 5.132812 11.910156 5.132812 11.902344 5.136719 C 11.894531 5.136719 11.890625 5.136719 11.882812 5.140625 C 11.773438 5.160156 11.734375 5.214844 11.738281 5.304688 C 11.738281 5.3125 11.738281 5.320312 11.738281 5.328125 C 11.75 5.441406 11.746094 5.554688 11.746094 5.667969 C 11.746094 5.675781 11.746094 5.6875 11.746094 5.699219 C 11.738281 5.753906 11.710938 5.800781 11.628906 5.800781 C 11.527344 5.800781 11.511719 5.734375 11.511719 5.664062 C 11.507812 5.5625 11.507812 5.460938 11.503906 5.339844 C 11.503906 5.335938 11.503906 5.328125 11.503906 5.324219 C 11.503906 5.324219 11.5 5.324219 11.5 5.324219 C 11.445312 5.355469 11.414062 5.371094 11.386719 5.390625 C 11.164062 5.558594 11.003906 5.757812 10.914062 5.988281 C 10.875 6.085938 10.851562 6.191406 10.835938 6.300781 C 10.832031 6.328125 10.828125 6.355469 10.816406 6.382812 C 10.816406 6.386719 10.8125 6.394531 10.808594 6.402344 L 10.800781 6.402344 C 10.710938 6.402344 10.636719 6.460938 10.628906 6.539062 C 10.628906 6.546875 10.628906 6.550781 10.628906 6.554688 L 10.628906 6.566406 C 10.628906 6.585938 10.632812 6.601562 10.640625 6.617188 C 10.660156 6.660156 10.707031 6.691406 10.765625 6.691406 " fill-opacity="1" fill-rule="nonzero"/></g><path fill="#1800ad" d="M 12.5625 8.25 C 12.527344 8.261719 12.496094 8.273438 12.460938 8.28125 C 12.429688 8.285156 12.398438 8.289062 12.367188 8.289062 L 12.359375 8.289062 C 12.328125 8.289062 12.296875 8.285156 12.265625 8.28125 C 12.234375 8.273438 12.199219 8.261719 12.164062 8.25 C 12.160156 8.246094 12.15625 8.246094 12.15625 8.246094 L 12.140625 8.238281 C 12.085938 8.21875 12.035156 8.199219 11.992188 8.175781 C 11.960938 8.160156 11.929688 8.140625 11.902344 8.121094 C 11.683594 7.972656 11.535156 7.75 11.457031 7.449219 C 11.433594 7.351562 11.378906 7.296875 11.339844 7.265625 L 11.324219 7.257812 L 11.308594 7.246094 C 11.210938 7.199219 11.183594 7.085938 11.175781 7.023438 C 11.171875 6.996094 11.167969 6.972656 11.164062 6.945312 C 11.160156 6.921875 11.15625 6.898438 11.15625 6.875 L 10.8125 6.875 C 10.816406 6.917969 10.820312 6.957031 10.828125 6.996094 C 10.832031 7.019531 10.835938 7.042969 10.835938 7.0625 C 10.863281 7.273438 10.96875 7.445312 11.128906 7.539062 C 11.226562 7.917969 11.421875 8.207031 11.710938 8.40625 C 11.75 8.429688 11.789062 8.453125 11.828125 8.476562 L 11.832031 8.480469 C 11.890625 8.507812 11.953125 8.535156 12.023438 8.558594 C 12.027344 8.5625 12.027344 8.5625 12.03125 8.5625 C 12.089844 8.585938 12.144531 8.605469 12.203125 8.617188 C 12.257812 8.625 12.308594 8.628906 12.363281 8.628906 L 12.378906 8.628906 C 12.417969 8.628906 12.460938 8.625 12.5 8.617188 C 12.558594 8.46875 12.625 8.328125 12.6875 8.199219 C 12.660156 8.210938 12.625 8.226562 12.589844 8.238281 C 12.578125 8.242188 12.570312 8.246094 12.5625 8.246094 L 12.5625 8.25 " fill-opacity="1" fill-rule="nonzero"/><path fill="#1800ad" d="M 13.5625 6.945312 C 13.558594 6.972656 13.554688 6.996094 13.550781 7.023438 C 13.542969 7.109375 13.519531 7.160156 13.480469 7.195312 C 13.46875 7.207031 13.453125 7.21875 13.441406 7.230469 C 13.40625 7.261719 13.363281 7.296875 13.324219 7.34375 C 13.269531 7.414062 13.25 7.488281 13.234375 7.550781 C 13.226562 7.574219 13.222656 7.597656 13.214844 7.613281 C 13.183594 7.691406 13.152344 7.757812 13.117188 7.8125 C 13.109375 7.828125 13.097656 7.84375 13.085938 7.859375 C 13.128906 7.851562 13.167969 7.847656 13.210938 7.847656 C 13.261719 7.847656 13.355469 7.847656 13.484375 7.851562 C 13.503906 7.816406 13.519531 7.777344 13.535156 7.738281 C 13.546875 7.703125 13.558594 7.664062 13.566406 7.632812 C 13.574219 7.601562 13.582031 7.570312 13.59375 7.558594 C 13.609375 7.535156 13.632812 7.515625 13.660156 7.492188 C 13.679688 7.476562 13.695312 7.460938 13.710938 7.449219 C 13.84375 7.328125 13.875 7.179688 13.890625 7.0625 C 13.894531 7.042969 13.898438 7.019531 13.898438 6.996094 C 13.90625 6.957031 13.914062 6.917969 13.914062 6.875 L 13.574219 6.875 C 13.570312 6.894531 13.566406 6.921875 13.5625 6.945312 " fill-opacity="1" fill-rule="nonzero"/><g clip-path="url(#8facb2ada1)"><path fill="#1800ad" d="M 10.53125 13.128906 C 10.535156 13.128906 10.535156 13.128906 10.539062 13.125 C 10.554688 13.121094 10.570312 13.113281 10.582031 13.109375 C 10.59375 13.101562 10.601562 13.097656 10.609375 13.09375 C 10.632812 13.085938 10.65625 13.074219 10.679688 13.0625 C 10.695312 13.054688 10.714844 13.046875 10.730469 13.039062 C 10.757812 13.027344 10.78125 13.015625 10.808594 13 C 10.820312 12.996094 10.832031 12.988281 10.84375 12.984375 C 10.914062 12.949219 10.980469 12.914062 11.046875 12.882812 C 11.050781 12.878906 11.050781 12.878906 11.054688 12.878906 C 11.085938 12.863281 11.121094 12.847656 11.152344 12.832031 C 11.152344 12.832031 11.15625 12.832031 11.15625 12.832031 C 11.191406 12.8125 11.226562 12.796875 11.265625 12.78125 C 12.089844 12.410156 12.511719 12.210938 13.375 11.820312 C 13.546875 11.6875 13.628906 11.480469 13.613281 11.277344 C 13.605469 11.167969 13.566406 11.0625 13.5 10.964844 C 13.488281 10.949219 13.472656 10.933594 13.460938 10.917969 C 13.4375 10.890625 13.414062 10.867188 13.386719 10.847656 C 13.203125 10.699219 12.945312 10.667969 12.730469 10.773438 C 12.71875 10.777344 12.707031 10.785156 12.695312 10.792969 C 12.691406 10.792969 12.6875 10.792969 12.683594 10.796875 C 12.671875 10.804688 12.660156 10.8125 12.648438 10.820312 L 12.644531 10.820312 L 12.425781 10.90625 L 12.117188 11.027344 L 11.152344 11.402344 L 11.121094 10.1875 L 11.417969 10.171875 L 11.4375 10.976562 L 12.128906 10.707031 L 12.132812 10.578125 C 12.136719 10.457031 12.144531 10.339844 12.152344 10.226562 C 12.160156 10.121094 12.171875 10.027344 12.183594 9.9375 C 12.183594 9.921875 12.1875 9.902344 12.1875 9.886719 C 12.203125 9.761719 12.222656 9.648438 12.242188 9.546875 L 11.351562 9.023438 C 11.328125 9.023438 11.308594 9.023438 11.292969 9.023438 L 11.269531 9.023438 C 11.269531 9.023438 11.269531 9.023438 11.265625 9.023438 L 11.25 9.023438 C 11.246094 9.023438 11.238281 9.027344 11.226562 9.03125 C 11.0625 9.070312 10.421875 9.339844 10.285156 9.410156 C 10.265625 9.417969 10.25 9.429688 10.230469 9.4375 C 9.925781 9.609375 9.59375 9.925781 9.546875 10.296875 C 9.515625 10.5 9.582031 10.703125 9.601562 10.90625 C 9.601562 10.917969 9.605469 10.933594 9.605469 10.949219 L 9.613281 11.007812 L 9.621094 11.078125 C 9.621094 11.078125 9.636719 11.246094 9.636719 11.246094 L 9.664062 11.5 C 9.664062 11.511719 9.664062 11.519531 9.664062 11.53125 L 9.675781 11.632812 C 9.679688 11.644531 9.679688 11.652344 9.679688 11.664062 L 9.691406 11.777344 C 9.691406 11.789062 9.695312 11.804688 9.695312 11.816406 L 9.699219 11.867188 C 9.703125 11.871094 9.703125 11.878906 9.703125 11.886719 L 9.714844 12 C 9.714844 12.003906 9.714844 12.003906 9.714844 12.003906 L 9.722656 12.066406 C 9.722656 12.082031 9.722656 12.09375 9.726562 12.105469 L 9.726562 12.132812 C 9.730469 12.136719 9.730469 12.144531 9.730469 12.152344 L 9.734375 12.175781 C 9.734375 12.179688 9.734375 12.183594 9.734375 12.183594 C 9.765625 12.472656 9.757812 12.851562 9.945312 13.089844 C 10.046875 13.214844 10.171875 13.246094 10.324219 13.203125 C 10.375 13.1875 10.429688 13.167969 10.484375 13.148438 C 10.5 13.144531 10.515625 13.136719 10.53125 13.128906 " fill-opacity="1" fill-rule="nonzero"/></g><g clip-path="url(#d3ea203faf)"><path fill="#1800ad" d="M 16.855469 9.757812 C 16.855469 9.734375 16.851562 9.710938 16.847656 9.6875 C 16.847656 9.683594 16.84375 9.679688 16.84375 9.679688 C 16.839844 9.660156 16.835938 9.636719 16.828125 9.617188 C 16.828125 9.617188 16.828125 9.613281 16.828125 9.613281 C 16.824219 9.605469 16.824219 9.59375 16.820312 9.585938 C 16.808594 9.558594 16.796875 9.53125 16.785156 9.507812 C 16.78125 9.503906 16.78125 9.503906 16.78125 9.5 C 16.773438 9.488281 16.769531 9.480469 16.765625 9.472656 C 16.761719 9.46875 16.757812 9.464844 16.753906 9.457031 C 16.753906 9.457031 16.75 9.453125 16.75 9.449219 C 16.746094 9.445312 16.746094 9.441406 16.742188 9.4375 C 16.734375 9.429688 16.730469 9.425781 16.726562 9.417969 C 16.722656 9.414062 16.71875 9.410156 16.71875 9.40625 C 16.710938 9.398438 16.703125 9.390625 16.699219 9.382812 C 16.695312 9.378906 16.691406 9.375 16.6875 9.371094 C 16.683594 9.367188 16.679688 9.363281 16.671875 9.359375 C 16.671875 9.355469 16.667969 9.355469 16.664062 9.351562 C 16.65625 9.339844 16.644531 9.332031 16.632812 9.320312 C 16.632812 9.320312 16.632812 9.320312 16.628906 9.320312 C 16.570312 9.269531 16.503906 9.234375 16.4375 9.210938 C 16.433594 9.210938 16.429688 9.210938 16.429688 9.210938 C 16.410156 9.203125 16.394531 9.199219 16.378906 9.195312 C 16.375 9.195312 16.371094 9.195312 16.371094 9.195312 C 16.367188 9.191406 16.359375 9.191406 16.355469 9.191406 C 16.351562 9.191406 16.34375 9.1875 16.335938 9.1875 C 16.332031 9.1875 16.332031 9.1875 16.328125 9.1875 C 16.324219 9.1875 16.320312 9.183594 16.316406 9.183594 C 16.3125 9.183594 16.308594 9.183594 16.308594 9.183594 C 16.304688 9.183594 16.304688 9.183594 16.300781 9.183594 C 16.296875 9.183594 16.289062 9.183594 16.285156 9.183594 C 16.277344 9.179688 16.273438 9.179688 16.269531 9.179688 C 16.257812 9.179688 16.25 9.179688 16.238281 9.179688 C 16.21875 9.179688 16.199219 9.179688 16.179688 9.183594 C 16.175781 9.183594 16.167969 9.183594 16.160156 9.1875 C 16.15625 9.1875 16.148438 9.1875 16.140625 9.1875 C 16.136719 9.1875 16.128906 9.191406 16.121094 9.191406 C 16.09375 9.199219 16.066406 9.203125 16.039062 9.214844 C 16.035156 9.214844 16.027344 9.21875 16.023438 9.21875 C 16.007812 9.226562 15.988281 9.234375 15.972656 9.242188 C 15.964844 9.242188 15.957031 9.25 15.953125 9.25 C 15.9375 9.257812 15.921875 9.269531 15.90625 9.277344 C 15.902344 9.28125 15.894531 9.285156 15.890625 9.289062 C 15.871094 9.300781 15.855469 9.3125 15.839844 9.324219 C 15.839844 9.328125 15.835938 9.328125 15.835938 9.332031 C 15.832031 9.332031 15.828125 9.335938 15.824219 9.339844 C 15.824219 9.339844 15.820312 9.34375 15.816406 9.347656 C 15.808594 9.355469 15.800781 9.359375 15.792969 9.371094 C 15.789062 9.375 15.78125 9.382812 15.773438 9.390625 L 15.765625 9.398438 L 15.535156 9.644531 L 15.28125 9.917969 L 15.113281 10.101562 L 15.109375 10.101562 L 14.894531 10.332031 L 14.800781 10.121094 C 14.765625 10.125 14.734375 10.128906 14.703125 10.132812 L 14.390625 10.160156 C 14.238281 10.175781 14.125 10.1875 14.066406 10.191406 C 13.992188 10.199219 13.96875 10.214844 13.9375 10.257812 C 13.898438 10.316406 13.863281 10.363281 13.839844 10.410156 L 13.835938 10.417969 C 13.832031 10.425781 13.824219 10.433594 13.820312 10.445312 C 13.792969 10.503906 13.765625 10.566406 13.742188 10.632812 L 13.707031 10.75 C 13.714844 10.761719 13.726562 10.777344 13.738281 10.792969 C 13.832031 10.917969 13.886719 11.0625 13.90625 11.203125 C 13.949219 11.519531 13.824219 11.847656 13.550781 12.054688 L 13.527344 12.074219 L 13.496094 12.089844 C 13.046875 12.292969 12.710938 12.445312 12.386719 12.59375 C 12.0625 12.742188 11.726562 12.898438 11.277344 13.101562 C 11.195312 13.136719 11.113281 13.179688 11.027344 13.222656 C 10.851562 13.308594 10.671875 13.402344 10.480469 13.464844 C 10.480469 13.503906 10.480469 13.546875 10.480469 13.589844 L 10.480469 13.601562 C 10.476562 13.757812 10.46875 13.917969 10.464844 14.078125 C 10.457031 14.351562 10.457031 14.929688 10.464844 15.484375 C 10.472656 16.0625 10.484375 16.617188 10.496094 16.785156 C 10.5 16.863281 10.511719 16.9375 10.519531 17.015625 C 10.539062 17.207031 10.566406 17.910156 10.589844 18.464844 C 10.597656 18.777344 10.609375 19.042969 10.613281 19.148438 C 10.621094 19.289062 10.625 19.507812 10.621094 19.710938 C 10.621094 19.984375 10.84375 20.207031 11.113281 20.207031 C 11.359375 20.207031 11.566406 20.03125 11.601562 19.789062 C 11.640625 19.539062 11.691406 19.039062 11.746094 18.464844 C 11.769531 18.257812 11.789062 18.035156 11.808594 17.816406 C 11.886719 17.007812 11.964844 16.199219 12.019531 15.847656 C 12.042969 15.695312 12.074219 15.3125 12.253906 15.21875 C 12.28125 15.199219 12.316406 15.191406 12.355469 15.195312 C 12.375 15.195312 12.390625 15.199219 12.40625 15.199219 C 12.421875 15.199219 12.441406 15.195312 12.457031 15.195312 C 12.496094 15.191406 12.53125 15.199219 12.558594 15.21875 C 12.738281 15.3125 12.769531 15.695312 12.792969 15.847656 C 12.847656 16.199219 12.925781 17.007812 13.003906 17.816406 C 13.023438 18.035156 13.046875 18.257812 13.066406 18.464844 C 13.121094 19.039062 13.171875 19.539062 13.210938 19.789062 C 13.246094 20.03125 13.453125 20.207031 13.699219 20.207031 C 13.972656 20.207031 14.191406 19.984375 14.191406 19.710938 C 14.191406 19.507812 14.191406 19.289062 14.199219 19.148438 C 14.207031 19.042969 14.214844 18.777344 14.226562 18.464844 C 14.246094 17.910156 14.273438 17.207031 14.292969 17.015625 C 14.300781 16.9375 14.3125 16.863281 14.316406 16.785156 C 14.328125 16.644531 14.335938 16.222656 14.34375 15.742188 C 14.347656 15.660156 14.347656 15.574219 14.347656 15.484375 C 14.355469 14.929688 14.355469 14.351562 14.347656 14.078125 C 14.347656 14.066406 14.347656 14.050781 14.347656 14.039062 C 14.34375 14.039062 14.339844 14.035156 14.335938 14.03125 L 14.332031 13.546875 L 14.328125 12.9375 L 14.324219 11.859375 L 14.324219 11.675781 C 14.324219 11.675781 14.820312 12.007812 14.824219 12.015625 C 14.914062 12.09375 15.0625 12.089844 15.144531 11.984375 L 16.726562 10.179688 C 16.824219 10.054688 16.863281 9.902344 16.855469 9.757812 " fill-opacity="1" fill-rule="nonzero"/></g><path fill="#1800ad" d="M 19.410156 8.957031 C 19.414062 8.9375 19.414062 8.917969 19.410156 8.898438 C 19.382812 8.828125 19.320312 8.78125 19.238281 8.78125 C 18.996094 8.78125 17.867188 8.78125 17.625 8.78125 C 17.617188 8.765625 17.613281 8.746094 17.601562 8.730469 C 17.589844 8.71875 17.582031 8.703125 17.574219 8.691406 C 17.566406 8.683594 17.558594 8.671875 17.554688 8.664062 C 17.527344 8.632812 17.5 8.613281 17.464844 8.589844 C 17.40625 8.554688 17.34375 8.53125 17.28125 8.515625 C 17.15625 8.351562 16.964844 8.242188 16.746094 8.234375 C 15.636719 8.203125 13.515625 8.140625 13.210938 8.140625 C 13.113281 8.144531 13.023438 8.199219 12.976562 8.285156 C 12.847656 8.527344 12.746094 8.789062 12.675781 9 C 12.65625 9.058594 12.640625 9.113281 12.625 9.171875 C 12.589844 9.300781 12.5625 9.433594 12.535156 9.566406 C 12.515625 9.6875 12.496094 9.804688 12.480469 9.925781 C 12.480469 9.941406 12.476562 9.957031 12.476562 9.976562 C 12.464844 10.066406 12.453125 10.160156 12.449219 10.25 C 12.4375 10.363281 12.429688 10.476562 12.429688 10.589844 L 12.511719 10.554688 C 12.734375 10.414062 12.996094 10.378906 13.234375 10.445312 C 13.3125 10.464844 13.390625 10.496094 13.464844 10.539062 C 13.488281 10.464844 13.519531 10.386719 13.554688 10.316406 C 13.5625 10.300781 13.570312 10.28125 13.582031 10.265625 C 13.617188 10.203125 13.65625 10.144531 13.699219 10.082031 C 13.78125 9.964844 13.894531 9.910156 14.042969 9.898438 C 14.097656 9.894531 14.210938 9.882812 14.359375 9.867188 C 14.453125 9.859375 14.554688 9.847656 14.671875 9.835938 C 14.769531 9.828125 14.875 9.816406 14.980469 9.804688 L 14.984375 9.804688 L 15.550781 9.195312 C 15.722656 9 15.976562 8.882812 16.238281 8.882812 C 16.449219 8.882812 16.65625 8.957031 16.816406 9.089844 C 16.953125 9.199219 17.050781 9.34375 17.105469 9.507812 C 17.171875 9.460938 17.234375 9.40625 17.28125 9.339844 C 17.34375 9.320312 17.40625 9.296875 17.464844 9.265625 C 17.5 9.242188 17.527344 9.21875 17.554688 9.191406 C 17.578125 9.152344 17.601562 9.113281 17.617188 9.070312 C 17.863281 9.070312 18.992188 9.070312 19.238281 9.070312 C 19.320312 9.070312 19.382812 9.027344 19.410156 8.957031 " fill-opacity="1" fill-rule="nonzero"/><g clip-path="url(#fd7e55a0db)"><path fill="#1800ad" d="M 18.804688 4.925781 L 18.804688 8.488281 C 19 8.488281 19.164062 8.488281 19.242188 8.488281 C 19.445312 8.488281 19.621094 8.609375 19.6875 8.800781 C 19.714844 8.882812 19.714844 8.96875 19.6875 9.050781 L 19.6875 9.054688 C 19.621094 9.242188 19.445312 9.367188 19.238281 9.367188 C 19.164062 9.367188 19 9.367188 18.804688 9.367188 L 18.804688 20.207031 L 20.464844 20.207031 L 20.464844 4.925781 L 18.804688 4.925781 " fill-opacity="1" fill-rule="nonzero"/></g></svg>