<svg xmlns="http://www.w3.org/2000/svg" xmlns:xlink="http://www.w3.org/1999/xlink" width="40" zoomAndPan="magnify" viewBox="0 0 30 37.92" height="40" preserveAspectRatio="xMidYMid meet" version="1.0"><defs><clipPath id="7a8e59bd62"><path d="M 3.113281 0.683594 L 26.886719 0.683594 L 26.886719 29.300781 L 3.113281 29.300781 Z M 3.113281 0.683594 " clip-rule="nonzero"/></clipPath><clipPath id="86c689ee6d"><path d="M 19.457031 1.550781 C 18.035156 0.976562 16.539062 0.683594 15 0.683594 C 13.460938 0.683594 11.964844 0.976562 10.542969 1.550781 C 9.078125 2.144531 7.757812 3.019531 6.632812 4.148438 C 4.429688 6.355469 3.199219 9.285156 3.167969 12.402344 C 3.136719 15.511719 4.304688 18.464844 6.460938 20.707031 L 6.453125 20.710938 L 15 29.257812 L 23.5 20.757812 L 23.492188 20.753906 C 25.667969 18.511719 26.855469 15.558594 26.832031 12.433594 C 26.8125 9.300781 25.582031 6.363281 23.367188 4.148438 C 22.234375 3.019531 20.921875 2.144531 19.457031 1.550781 Z M 19.457031 1.550781 " clip-rule="nonzero"/></clipPath><clipPath id="df02732cde"><path d="M 0.144531 0.683594 L 23.855469 0.683594 L 23.855469 29.300781 L 0.144531 29.300781 Z M 0.144531 0.683594 " clip-rule="nonzero"/></clipPath><clipPath id="62068e2203"><path d="M 16.457031 1.550781 C 15.035156 0.976562 13.539062 0.683594 12 0.683594 C 10.460938 0.683594 8.964844 0.976562 7.542969 1.550781 C 6.078125 2.144531 4.757812 3.019531 3.632812 4.148438 C 1.429688 6.355469 0.199219 9.285156 0.167969 12.402344 C 0.136719 15.511719 1.304688 18.464844 3.460938 20.707031 L 3.453125 20.710938 L 12 29.257812 L 20.5 20.757812 L 20.492188 20.753906 C 22.667969 18.511719 23.855469 15.558594 23.832031 12.433594 C 23.8125 9.300781 22.582031 6.363281 20.367188 4.148438 C 19.234375 3.019531 17.921875 2.144531 16.457031 1.550781 Z M 16.457031 1.550781 " clip-rule="nonzero"/></clipPath><clipPath id="02a087e41d"><rect x="0" width="24" y="0" height="30"/></clipPath><clipPath id="883b681520"><path d="M 4.261719 1.777344 L 25.738281 1.777344 L 25.738281 23.203125 L 4.261719 23.203125 Z M 4.261719 1.777344 " clip-rule="nonzero"/></clipPath><clipPath id="07e205d898"><path d="M 14.996094 1.789062 C 9.089844 1.789062 4.300781 6.578125 4.300781 12.484375 C 4.300781 18.390625 9.089844 23.179688 14.996094 23.179688 C 20.902344 23.179688 25.691406 18.390625 25.691406 12.484375 C 25.691406 6.578125 20.902344 1.789062 14.996094 1.789062 Z M 14.996094 1.789062 " clip-rule="nonzero"/></clipPath><clipPath id="048bde9d49"><path d="M 0.261719 0.777344 L 21.738281 0.777344 L 21.738281 22.203125 L 0.261719 22.203125 Z M 0.261719 0.777344 " clip-rule="nonzero"/></clipPath><clipPath id="5d41d14d64"><path d="M 10.996094 0.789062 C 5.089844 0.789062 0.300781 5.578125 0.300781 11.484375 C 0.300781 17.390625 5.089844 22.179688 10.996094 22.179688 C 16.902344 22.179688 21.691406 17.390625 21.691406 11.484375 C 21.691406 5.578125 16.902344 0.789062 10.996094 0.789062 Z M 10.996094 0.789062 " clip-rule="nonzero"/></clipPath><clipPath id="ea34c98180"><rect x="0" width="22" y="0" height="23"/></clipPath><clipPath id="417dcff204"><path d="M 21 16 L 22.929688 16 L 22.929688 17 L 21 17 Z M 21 16 " clip-rule="nonzero"/></clipPath><clipPath id="0586e91a03"><path d="M 22 16 L 22.929688 16 L 22.929688 17 L 22 17 Z M 22 16 " clip-rule="nonzero"/></clipPath><clipPath id="eb93b919f3"><path d="M 21 13 L 22.929688 13 L 22.929688 15 L 21 15 Z M 21 13 " clip-rule="nonzero"/></clipPath><clipPath id="5ffab7d696"><path d="M 21 14 L 22.929688 14 L 22.929688 16 L 21 16 Z M 21 14 " clip-rule="nonzero"/></clipPath><clipPath id="2737b7a162"><path d="M 12 16 L 17 16 L 17 19.402344 L 12 19.402344 Z M 12 16 " clip-rule="nonzero"/></clipPath><clipPath id="f65f3e696f"><path d="M 8 5.183594 L 18 5.183594 L 18 10 L 8 10 Z M 8 5.183594 " clip-rule="nonzero"/></clipPath><clipPath id="72917d205c"><path d="M 7.214844 13 L 12 13 L 12 19.402344 L 7.214844 19.402344 Z M 7.214844 13 " clip-rule="nonzero"/></clipPath></defs><g clip-path="url(#7a8e59bd62)"><g clip-path="url(#86c689ee6d)"><g transform="matrix(1, 0, 0, 1, 3, 0.000000000000005773)"><g clip-path="url(#02a087e41d)"><g clip-path="url(#df02732cde)"><g clip-path="url(#62068e2203)"><path fill="#faab11" d="M 0.167969 0.683594 L 23.832031 0.683594 L 23.832031 29.25 L 0.167969 29.25 Z M 0.167969 0.683594 " fill-opacity="1" fill-rule="nonzero"/></g></g></g></g></g></g><g clip-path="url(#883b681520)"><g clip-path="url(#07e205d898)"><g transform="matrix(1, 0, 0, 1, 4, 1)"><g clip-path="url(#ea34c98180)"><g clip-path="url(#048bde9d49)"><g clip-path="url(#5d41d14d64)"><rect x="-10.6" width="43.2" fill="#ffffff" height="54.6048" y="-9.3424" fill-opacity="1"/></g></g></g></g></g></g><g clip-path="url(#417dcff204)"><path fill="#1800ad" d="M 22.210938 16.152344 L 22.082031 16.097656 C 22.066406 16.089844 22.046875 16.085938 22.023438 16.085938 C 21.964844 16.085938 21.910156 16.121094 21.886719 16.179688 C 21.871094 16.214844 21.871094 16.253906 21.886719 16.292969 C 21.902344 16.328125 21.929688 16.359375 21.964844 16.375 L 22.09375 16.429688 C 22.113281 16.4375 22.132812 16.441406 22.152344 16.441406 C 22.210938 16.441406 22.265625 16.40625 22.289062 16.347656 C 22.320312 16.273438 22.285156 16.1875 22.210938 16.152344 Z M 22.210938 16.152344 " fill-opacity="1" fill-rule="nonzero"/></g><g clip-path="url(#0586e91a03)"><path fill="#1800ad" d="M 22.636719 16.335938 L 22.527344 16.289062 C 22.511719 16.28125 22.492188 16.277344 22.472656 16.277344 C 22.410156 16.277344 22.355469 16.3125 22.332031 16.367188 C 22.316406 16.40625 22.316406 16.445312 22.332031 16.480469 C 22.347656 16.519531 22.375 16.546875 22.410156 16.5625 L 22.519531 16.609375 C 22.539062 16.617188 22.558594 16.621094 22.578125 16.621094 C 22.640625 16.621094 22.691406 16.585938 22.714844 16.53125 C 22.730469 16.496094 22.734375 16.453125 22.71875 16.417969 C 22.703125 16.378906 22.675781 16.351562 22.636719 16.335938 Z M 22.636719 16.335938 " fill-opacity="1" fill-rule="nonzero"/></g><g clip-path="url(#eb93b919f3)"><path fill="#1800ad" d="M 22.050781 14.175781 C 22.070312 14.175781 22.085938 14.171875 22.105469 14.164062 L 22.308594 14.085938 C 22.378906 14.054688 22.414062 13.980469 22.394531 13.910156 C 22.421875 13.957031 22.472656 13.984375 22.527344 13.984375 C 22.546875 13.984375 22.5625 13.980469 22.582031 13.972656 L 22.664062 13.941406 C 22.742188 13.910156 22.777344 13.824219 22.746094 13.746094 C 22.722656 13.691406 22.667969 13.652344 22.609375 13.652344 C 22.589844 13.652344 22.570312 13.65625 22.550781 13.664062 L 22.46875 13.695312 C 22.398438 13.726562 22.363281 13.800781 22.382812 13.871094 C 22.355469 13.824219 22.304688 13.796875 22.25 13.796875 C 22.230469 13.796875 22.214844 13.800781 22.195312 13.808594 L 21.992188 13.886719 C 21.957031 13.902344 21.925781 13.929688 21.910156 13.96875 C 21.894531 14.003906 21.894531 14.046875 21.910156 14.082031 C 21.933594 14.140625 21.988281 14.175781 22.050781 14.175781 Z M 22.050781 14.175781 " fill-opacity="1" fill-rule="nonzero"/></g><path fill="#1800ad" d="M 20.445312 12.585938 C 20.464844 12.59375 20.484375 12.597656 20.503906 12.597656 C 20.5625 12.597656 20.617188 12.5625 20.640625 12.507812 L 20.703125 12.363281 C 20.71875 12.328125 20.71875 12.285156 20.703125 12.25 C 20.6875 12.210938 20.660156 12.183594 20.625 12.167969 C 20.605469 12.160156 20.585938 12.15625 20.566406 12.15625 C 20.503906 12.15625 20.453125 12.191406 20.429688 12.246094 L 20.367188 12.390625 C 20.351562 12.425781 20.351562 12.464844 20.367188 12.503906 C 20.378906 12.539062 20.410156 12.570312 20.445312 12.585938 Z M 20.445312 12.585938 " fill-opacity="1" fill-rule="nonzero"/><path fill="#1800ad" d="M 20.648438 12.109375 C 20.667969 12.117188 20.6875 12.121094 20.707031 12.121094 C 20.765625 12.121094 20.820312 12.085938 20.84375 12.03125 L 20.878906 11.953125 C 20.894531 11.914062 20.894531 11.875 20.878906 11.839844 C 20.863281 11.800781 20.835938 11.773438 20.800781 11.757812 C 20.78125 11.75 20.761719 11.746094 20.742188 11.746094 C 20.679688 11.746094 20.625 11.78125 20.601562 11.835938 L 20.570312 11.914062 C 20.539062 11.988281 20.574219 12.078125 20.648438 12.109375 Z M 20.648438 12.109375 " fill-opacity="1" fill-rule="nonzero"/><path fill="#1800ad" d="M 21.128906 13.492188 C 21.167969 13.492188 21.207031 13.476562 21.234375 13.449219 L 21.601562 13.082031 C 21.660156 13.023438 21.660156 12.929688 21.601562 12.871094 C 21.574219 12.84375 21.535156 12.828125 21.496094 12.828125 C 21.457031 12.828125 21.417969 12.84375 21.390625 12.871094 L 21.023438 13.238281 C 20.996094 13.265625 20.980469 13.304688 20.980469 13.34375 C 20.980469 13.382812 20.996094 13.421875 21.023438 13.449219 C 21.050781 13.476562 21.089844 13.492188 21.128906 13.492188 Z M 21.128906 13.492188 " fill-opacity="1" fill-rule="nonzero"/><path fill="#1800ad" d="M 19.371094 12.765625 C 19.453125 12.765625 19.519531 12.695312 19.519531 12.613281 L 19.519531 12.09375 C 19.519531 12.011719 19.453125 11.945312 19.371094 11.945312 C 19.289062 11.945312 19.222656 12.011719 19.222656 12.09375 L 19.222656 12.613281 C 19.222656 12.695312 19.289062 12.765625 19.371094 12.765625 Z M 19.371094 12.765625 " fill-opacity="1" fill-rule="nonzero"/><g clip-path="url(#5ffab7d696)"><path fill="#1800ad" d="M 22.527344 15.101562 C 22.527344 15.019531 22.460938 14.953125 22.378906 14.953125 L 21.859375 14.953125 C 21.777344 14.953125 21.707031 15.019531 21.707031 15.101562 C 21.707031 15.183594 21.777344 15.25 21.859375 15.25 L 22.378906 15.25 C 22.460938 15.25 22.527344 15.183594 22.527344 15.101562 Z M 22.527344 15.101562 " fill-opacity="1" fill-rule="nonzero"/></g><path fill="#1800ad" d="M 18.105469 12.167969 C 18.070312 12.183594 18.042969 12.210938 18.027344 12.25 C 18.011719 12.285156 18.011719 12.328125 18.027344 12.363281 L 18.089844 12.507812 C 18.113281 12.5625 18.167969 12.597656 18.226562 12.597656 C 18.246094 12.597656 18.265625 12.59375 18.285156 12.585938 C 18.320312 12.570312 18.351562 12.539062 18.363281 12.503906 C 18.378906 12.464844 18.378906 12.425781 18.363281 12.390625 L 18.300781 12.246094 C 18.277344 12.191406 18.226562 12.15625 18.164062 12.15625 C 18.144531 12.15625 18.125 12.160156 18.105469 12.167969 Z M 18.105469 12.167969 " fill-opacity="1" fill-rule="nonzero"/><path fill="#1800ad" d="M 17.886719 12.03125 C 17.910156 12.085938 17.964844 12.121094 18.023438 12.121094 C 18.042969 12.121094 18.0625 12.117188 18.082031 12.109375 C 18.15625 12.078125 18.191406 11.988281 18.160156 11.914062 L 18.128906 11.835938 C 18.105469 11.78125 18.050781 11.746094 17.988281 11.746094 C 17.96875 11.746094 17.949219 11.75 17.929688 11.757812 C 17.894531 11.773438 17.867188 11.800781 17.851562 11.839844 C 17.835938 11.875 17.835938 11.914062 17.851562 11.953125 Z M 17.886719 12.03125 " fill-opacity="1" fill-rule="nonzero"/><path fill="#1800ad" d="M 17.601562 16.710938 C 17.5625 16.710938 17.523438 16.726562 17.496094 16.757812 L 17.128906 17.125 C 17.101562 17.152344 17.085938 17.1875 17.085938 17.230469 C 17.085938 17.269531 17.101562 17.304688 17.128906 17.335938 C 17.15625 17.363281 17.195312 17.378906 17.234375 17.378906 C 17.273438 17.378906 17.3125 17.363281 17.339844 17.335938 L 17.707031 16.96875 C 17.734375 16.9375 17.75 16.902344 17.75 16.863281 C 17.75 16.820312 17.734375 16.785156 17.707031 16.757812 C 17.679688 16.726562 17.640625 16.710938 17.601562 16.710938 Z M 17.601562 16.710938 " fill-opacity="1" fill-rule="nonzero"/><path fill="#1800ad" d="M 21.320312 16.757812 C 21.292969 16.726562 21.253906 16.710938 21.214844 16.710938 C 21.175781 16.710938 21.136719 16.726562 21.109375 16.757812 C 21.050781 16.8125 21.050781 16.910156 21.109375 16.96875 L 21.476562 17.335938 C 21.503906 17.363281 21.542969 17.378906 21.582031 17.378906 C 21.621094 17.378906 21.660156 17.363281 21.6875 17.335938 C 21.714844 17.304688 21.730469 17.269531 21.730469 17.230469 C 21.730469 17.1875 21.714844 17.152344 21.6875 17.125 Z M 21.320312 16.757812 " fill-opacity="1" fill-rule="nonzero"/><path fill="#1800ad" d="M 17.085938 12.976562 C 17.085938 13.015625 17.101562 13.054688 17.128906 13.082031 L 17.496094 13.449219 C 17.523438 13.476562 17.5625 13.492188 17.601562 13.492188 C 17.640625 13.492188 17.679688 13.476562 17.707031 13.449219 C 17.734375 13.421875 17.75 13.382812 17.75 13.34375 C 17.75 13.304688 17.734375 13.265625 17.707031 13.238281 L 17.339844 12.871094 C 17.3125 12.84375 17.273438 12.828125 17.234375 12.828125 C 17.195312 12.828125 17.15625 12.84375 17.128906 12.871094 C 17.101562 12.898438 17.085938 12.9375 17.085938 12.976562 Z M 17.085938 12.976562 " fill-opacity="1" fill-rule="nonzero"/><path fill="#1800ad" d="M 20.035156 14.84375 C 20.007812 14.808594 19.964844 14.785156 19.917969 14.785156 C 19.871094 14.785156 19.828125 14.808594 19.796875 14.84375 L 19.644531 15.046875 L 19.488281 14.84375 C 19.460938 14.808594 19.414062 14.785156 19.371094 14.785156 C 19.324219 14.785156 19.277344 14.808594 19.25 14.84375 L 19.097656 15.046875 L 18.941406 14.84375 C 18.914062 14.808594 18.871094 14.785156 18.824219 14.785156 C 18.777344 14.785156 18.734375 14.808594 18.703125 14.84375 L 18.429688 15.203125 C 18.382812 15.269531 18.394531 15.363281 18.460938 15.410156 C 18.484375 15.433594 18.515625 15.441406 18.550781 15.441406 C 18.597656 15.441406 18.640625 15.421875 18.667969 15.382812 L 18.824219 15.179688 L 18.964844 15.367188 C 18.976562 15.382812 18.988281 15.398438 19.003906 15.410156 C 19.03125 15.429688 19.058594 15.441406 19.089844 15.441406 C 19.09375 15.441406 19.09375 15.441406 19.09375 15.441406 L 19.097656 15.441406 C 19.097656 15.441406 19.097656 15.441406 19.101562 15.441406 C 19.132812 15.441406 19.164062 15.429688 19.1875 15.410156 C 19.203125 15.398438 19.21875 15.382812 19.226562 15.367188 L 19.367188 15.179688 L 19.523438 15.382812 C 19.527344 15.386719 19.527344 15.386719 19.527344 15.386719 C 19.53125 15.390625 19.53125 15.394531 19.535156 15.394531 C 19.535156 15.394531 19.535156 15.398438 19.539062 15.398438 C 19.539062 15.402344 19.542969 15.402344 19.546875 15.40625 C 19.546875 15.40625 19.546875 15.410156 19.550781 15.410156 C 19.554688 15.414062 19.554688 15.414062 19.558594 15.417969 C 19.558594 15.417969 19.5625 15.417969 19.5625 15.421875 C 19.566406 15.421875 19.570312 15.425781 19.574219 15.425781 L 19.578125 15.429688 C 19.582031 15.429688 19.585938 15.433594 19.59375 15.433594 C 19.59375 15.433594 19.59375 15.433594 19.597656 15.433594 C 19.601562 15.4375 19.605469 15.4375 19.609375 15.4375 C 19.609375 15.4375 19.609375 15.4375 19.613281 15.4375 C 19.617188 15.441406 19.621094 15.441406 19.625 15.441406 C 19.625 15.441406 19.628906 15.441406 19.628906 15.441406 C 19.632812 15.441406 19.636719 15.441406 19.636719 15.441406 C 19.640625 15.441406 19.644531 15.441406 19.648438 15.441406 C 19.652344 15.441406 19.65625 15.441406 19.660156 15.441406 C 19.660156 15.441406 19.664062 15.441406 19.664062 15.441406 C 19.667969 15.441406 19.671875 15.441406 19.675781 15.4375 C 19.6875 15.4375 19.695312 15.433594 19.703125 15.429688 C 19.703125 15.429688 19.707031 15.429688 19.707031 15.429688 C 19.710938 15.425781 19.710938 15.425781 19.714844 15.425781 C 19.714844 15.421875 19.71875 15.421875 19.71875 15.421875 C 19.722656 15.417969 19.722656 15.417969 19.726562 15.417969 C 19.726562 15.417969 19.730469 15.414062 19.730469 15.414062 C 19.730469 15.414062 19.730469 15.414062 19.734375 15.410156 C 19.734375 15.410156 19.734375 15.410156 19.738281 15.410156 C 19.738281 15.40625 19.742188 15.40625 19.742188 15.402344 C 19.746094 15.402344 19.746094 15.402344 19.75 15.398438 C 19.75 15.398438 19.75 15.394531 19.753906 15.394531 C 19.753906 15.390625 19.757812 15.390625 19.757812 15.386719 C 19.757812 15.386719 19.761719 15.386719 19.761719 15.382812 L 19.917969 15.179688 L 20.070312 15.382812 C 20.101562 15.421875 20.144531 15.441406 20.191406 15.441406 C 20.222656 15.441406 20.253906 15.433594 20.28125 15.410156 C 20.347656 15.363281 20.359375 15.269531 20.308594 15.203125 Z M 20.035156 14.84375 " fill-opacity="1" fill-rule="nonzero"/><path fill="#1800ad" d="M 19.15625 15.734375 C 19.148438 15.695312 19.128906 15.660156 19.097656 15.636719 C 19.0625 15.613281 19.023438 15.605469 18.984375 15.609375 C 18.902344 15.621094 18.847656 15.699219 18.859375 15.78125 L 19.007812 16.742188 C 19.019531 16.816406 19.082031 16.867188 19.152344 16.867188 C 19.160156 16.867188 19.167969 16.867188 19.175781 16.867188 C 19.257812 16.855469 19.3125 16.777344 19.300781 16.699219 Z M 19.15625 15.734375 " fill-opacity="1" fill-rule="nonzero"/><path fill="#1800ad" d="M 19.753906 15.609375 C 19.714844 15.605469 19.675781 15.613281 19.644531 15.636719 C 19.613281 15.660156 19.589844 15.695312 19.585938 15.734375 L 19.4375 16.695312 C 19.433594 16.738281 19.441406 16.777344 19.464844 16.808594 C 19.488281 16.839844 19.523438 16.859375 19.5625 16.867188 C 19.570312 16.867188 19.578125 16.867188 19.585938 16.867188 C 19.660156 16.867188 19.722656 16.8125 19.734375 16.742188 L 19.878906 15.78125 C 19.894531 15.699219 19.835938 15.621094 19.753906 15.609375 Z M 19.753906 15.609375 " fill-opacity="1" fill-rule="nonzero"/><path fill="#1800ad" d="M 21.332031 14.25 C 21.226562 13.996094 21.074219 13.765625 20.875 13.570312 C 20.679688 13.375 20.453125 13.222656 20.199219 13.113281 C 19.9375 13.003906 19.65625 12.945312 19.371094 12.945312 C 19.082031 12.945312 18.804688 13.003906 18.539062 13.113281 C 18.285156 13.222656 18.058594 13.375 17.863281 13.570312 C 17.667969 13.765625 17.511719 13.996094 17.40625 14.25 C 17.292969 14.511719 17.238281 14.789062 17.238281 15.078125 C 17.238281 15.628906 17.449219 16.152344 17.832031 16.554688 L 17.835938 16.558594 C 18.089844 16.800781 18.207031 16.988281 18.261719 17.097656 C 18.3125 17.199219 18.320312 17.257812 18.320312 17.265625 C 18.320312 17.371094 18.367188 17.46875 18.445312 17.539062 L 18.445312 18.25 C 18.445312 18.355469 18.492188 18.453125 18.574219 18.515625 C 18.582031 18.519531 18.75 18.648438 19.078125 18.886719 L 19.097656 18.902344 C 19.125 18.921875 19.15625 18.933594 19.1875 18.933594 L 19.550781 18.933594 C 19.585938 18.933594 19.617188 18.921875 19.640625 18.902344 L 19.65625 18.890625 C 19.988281 18.648438 20.15625 18.519531 20.164062 18.515625 C 20.25 18.453125 20.296875 18.355469 20.296875 18.25 L 20.296875 17.539062 C 20.371094 17.472656 20.414062 17.378906 20.417969 17.277344 C 20.421875 17.257812 20.4375 17.1875 20.492188 17.082031 C 20.550781 16.964844 20.667969 16.773438 20.898438 16.5625 L 20.90625 16.554688 C 21.289062 16.15625 21.5 15.632812 21.5 15.078125 C 21.5 14.789062 21.445312 14.511719 21.332031 14.25 Z M 19.898438 18.101562 L 19.996094 18.101562 L 19.996094 18.25 C 19.996094 18.269531 19.980469 18.285156 19.964844 18.285156 L 19.753906 18.285156 C 19.671875 18.285156 19.601562 18.351562 19.601562 18.433594 C 19.601562 18.472656 19.617188 18.507812 19.640625 18.53125 L 19.503906 18.632812 L 19.238281 18.632812 L 19.171875 18.585938 L 19.34375 18.585938 C 19.425781 18.585938 19.492188 18.519531 19.492188 18.4375 C 19.492188 18.355469 19.425781 18.285156 19.34375 18.285156 L 18.777344 18.285156 C 18.757812 18.285156 18.742188 18.269531 18.742188 18.25 L 18.742188 18.101562 L 19.472656 18.101562 C 19.554688 18.101562 19.621094 18.035156 19.621094 17.953125 C 19.621094 17.867188 19.554688 17.800781 19.472656 17.800781 L 18.742188 17.804688 L 18.742188 17.628906 L 19.996094 17.628906 L 19.996094 17.804688 L 19.898438 17.804688 C 19.816406 17.804688 19.75 17.871094 19.75 17.953125 C 19.75 18.035156 19.816406 18.101562 19.898438 18.101562 Z M 20.695312 16.34375 C 20.480469 16.546875 20.316406 16.753906 20.214844 16.964844 C 20.136719 17.128906 20.121094 17.234375 20.121094 17.246094 L 20.121094 17.265625 C 20.121094 17.300781 20.089844 17.332031 20.054688 17.332031 L 18.683594 17.332031 C 18.648438 17.332031 18.617188 17.300781 18.617188 17.265625 C 18.617188 17.238281 18.613281 17.140625 18.542969 16.988281 C 18.449219 16.789062 18.28125 16.574219 18.046875 16.347656 C 17.71875 16 17.535156 15.550781 17.535156 15.078125 C 17.535156 14.066406 18.359375 13.246094 19.371094 13.246094 C 20.378906 13.246094 21.203125 14.066406 21.203125 15.078125 C 21.203125 15.550781 21.023438 16.003906 20.695312 16.34375 Z M 20.695312 16.34375 " fill-opacity="1" fill-rule="nonzero"/><path fill="#1800ad" d="M 15.675781 13.660156 L 14.113281 13.660156 C 13.667969 13.660156 13.292969 13.984375 13.21875 14.414062 L 12.628906 14.414062 L 12.628906 14.269531 C 12.628906 14.21875 12.605469 14.171875 12.566406 14.144531 C 12.523438 14.117188 12.472656 14.109375 12.425781 14.125 L 11.566406 14.421875 C 11.503906 14.441406 11.464844 14.5 11.464844 14.566406 C 11.464844 14.628906 11.503906 14.6875 11.566406 14.710938 L 12.425781 15.007812 C 12.441406 15.011719 12.460938 15.015625 12.476562 15.015625 C 12.507812 15.015625 12.539062 15.003906 12.566406 14.988281 C 12.605469 14.957031 12.628906 14.910156 12.628906 14.863281 L 12.628906 14.71875 L 13.21875 14.71875 C 13.292969 15.144531 13.667969 15.472656 14.113281 15.472656 L 15.675781 15.472656 C 16.175781 15.472656 16.582031 15.066406 16.582031 14.566406 C 16.582031 14.066406 16.175781 13.660156 15.675781 13.660156 Z M 12.324219 14.648438 L 12.085938 14.566406 L 12.324219 14.484375 Z M 15.675781 15.167969 L 14.113281 15.167969 C 13.78125 15.167969 13.511719 14.898438 13.511719 14.566406 C 13.511719 14.234375 13.78125 13.964844 14.113281 13.964844 L 15.675781 13.964844 C 16.007812 13.964844 16.277344 14.234375 16.277344 14.566406 C 16.277344 14.898438 16.007812 15.167969 15.675781 15.167969 Z M 15.675781 15.167969 " fill-opacity="1" fill-rule="nonzero"/><g clip-path="url(#2737b7a162)"><path fill="#1800ad" d="M 16.097656 16.671875 C 15.84375 16.453125 15.542969 16.335938 15.230469 16.335938 L 15.222656 16.335938 C 14.613281 16.339844 14.246094 16.746094 14.113281 16.933594 L 12.890625 16.933594 C 12.878906 16.933594 12.871094 16.933594 12.863281 16.933594 C 12.46875 16.960938 12.164062 17.292969 12.164062 17.6875 C 12.164062 18.082031 12.46875 18.410156 12.863281 18.441406 C 12.871094 18.441406 12.878906 18.441406 12.890625 18.441406 L 14.113281 18.441406 C 14.160156 18.507812 14.242188 18.605469 14.355469 18.703125 C 14.605469 18.921875 14.90625 19.039062 15.222656 19.039062 C 15.984375 19.035156 16.375 18.390625 16.390625 18.363281 C 16.40625 18.339844 16.414062 18.3125 16.414062 18.285156 L 16.414062 18.28125 C 16.414062 18.199219 16.34375 18.128906 16.261719 18.128906 L 15.179688 18.128906 C 15.140625 18.050781 15.078125 17.898438 15.078125 17.6875 C 15.078125 17.476562 15.140625 17.324219 15.179688 17.242188 L 16.261719 17.242188 C 16.34375 17.242188 16.414062 17.175781 16.414062 17.09375 L 16.414062 17.085938 C 16.414062 17.058594 16.40625 17.035156 16.390625 17.011719 C 16.386719 17.003906 16.289062 16.835938 16.097656 16.671875 Z M 15.097656 16.941406 C 15.050781 16.941406 15.007812 16.960938 14.976562 17 C 14.96875 17.011719 14.777344 17.265625 14.777344 17.6875 C 14.777344 18.109375 14.96875 18.363281 14.976562 18.375 C 15.007812 18.410156 15.050781 18.433594 15.097656 18.433594 L 15.941406 18.433594 C 15.925781 18.449219 15.910156 18.460938 15.894531 18.476562 C 15.691406 18.648438 15.464844 18.734375 15.222656 18.734375 C 14.980469 18.734375 14.757812 18.648438 14.558594 18.480469 C 14.40625 18.347656 14.324219 18.214844 14.324219 18.214844 C 14.296875 18.167969 14.246094 18.140625 14.191406 18.140625 L 12.78125 18.140625 C 12.582031 18.078125 12.445312 17.894531 12.445312 17.6875 C 12.445312 17.480469 12.582031 17.292969 12.78125 17.234375 L 14.191406 17.234375 C 14.246094 17.234375 14.292969 17.207031 14.320312 17.160156 C 14.324219 17.160156 14.402344 17.027344 14.558594 16.898438 C 14.757812 16.726562 14.980469 16.640625 15.226562 16.640625 L 15.230469 16.640625 C 15.472656 16.640625 15.695312 16.726562 15.894531 16.894531 C 15.910156 16.910156 15.929688 16.925781 15.945312 16.941406 Z M 15.097656 16.941406 " fill-opacity="1" fill-rule="nonzero"/></g><path fill="#1800ad" d="M 10.757812 12.15625 C 11.0625 12.421875 11.402344 12.632812 11.773438 12.777344 C 12.15625 12.925781 12.558594 13 12.972656 13 C 13.382812 13 13.789062 12.925781 14.171875 12.777344 C 14.542969 12.632812 14.882812 12.421875 15.1875 12.15625 C 15.488281 11.890625 15.742188 11.574219 15.941406 11.21875 C 16.148438 10.859375 16.289062 10.464844 16.363281 10.054688 C 16.378906 9.964844 16.320312 9.882812 16.234375 9.867188 C 16.148438 9.851562 16.066406 9.910156 16.050781 9.996094 C 15.765625 11.550781 14.472656 12.683594 12.972656 12.683594 C 11.472656 12.683594 10.179688 11.550781 9.894531 9.996094 C 9.878906 9.910156 9.796875 9.851562 9.707031 9.867188 C 9.621094 9.882812 9.5625 9.96875 9.578125 10.054688 C 9.65625 10.46875 9.796875 10.859375 10 11.222656 C 10.203125 11.574219 10.457031 11.890625 10.757812 12.15625 Z M 10.757812 12.15625 " fill-opacity="1" fill-rule="nonzero"/><g clip-path="url(#f65f3e696f)"><path fill="#1800ad" d="M 17.136719 9.25 C 17.136719 9.160156 17.066406 9.089844 16.976562 9.089844 L 16.484375 9.089844 C 16.46875 8.738281 16.402344 8.390625 16.28125 8.0625 C 16.152344 7.695312 15.960938 7.351562 15.714844 7.046875 C 15.472656 6.746094 15.183594 6.484375 14.855469 6.277344 C 14.558594 6.089844 14.234375 5.949219 13.898438 5.855469 L 13.898438 5.347656 C 13.898438 5.257812 13.824219 5.1875 13.738281 5.1875 L 12.207031 5.1875 C 12.117188 5.1875 12.046875 5.257812 12.046875 5.347656 L 12.046875 5.855469 C 11.707031 5.949219 11.386719 6.089844 11.089844 6.277344 C 10.761719 6.484375 10.472656 6.746094 10.230469 7.046875 C 9.984375 7.351562 9.792969 7.695312 9.660156 8.0625 C 9.542969 8.390625 9.476562 8.738281 9.460938 9.089844 L 8.96875 9.089844 C 8.878906 9.089844 8.808594 9.160156 8.808594 9.25 C 8.808594 9.335938 8.878906 9.410156 8.96875 9.410156 L 16.976562 9.410156 C 17.066406 9.410156 17.136719 9.335938 17.136719 9.25 Z M 9.777344 9.089844 C 9.789062 8.871094 9.820312 8.65625 9.875 8.453125 C 9.878906 8.453125 9.882812 8.453125 9.886719 8.453125 L 10.316406 8.453125 L 10.4375 8.820312 C 10.460938 8.886719 10.523438 8.929688 10.589844 8.929688 C 10.605469 8.929688 10.621094 8.929688 10.640625 8.921875 C 10.722656 8.894531 10.769531 8.804688 10.742188 8.722656 L 10.585938 8.242188 C 10.566406 8.179688 10.503906 8.132812 10.433594 8.132812 L 9.972656 8.132812 C 10.3125 7.210938 11.066406 6.480469 12.046875 6.1875 L 12.046875 8.160156 C 12.046875 8.25 12.117188 8.320312 12.207031 8.320312 C 12.292969 8.320312 12.367188 8.25 12.367188 8.160156 L 12.367188 5.503906 L 13.578125 5.503906 L 13.578125 8.160156 C 13.578125 8.25 13.648438 8.320312 13.738281 8.320312 C 13.824219 8.320312 13.898438 8.25 13.898438 8.160156 L 13.898438 6.1875 C 14.875 6.480469 15.628906 7.210938 15.96875 8.132812 L 15.507812 8.132812 C 15.441406 8.132812 15.378906 8.179688 15.359375 8.242188 L 15.203125 8.722656 C 15.175781 8.804688 15.222656 8.894531 15.304688 8.921875 C 15.320312 8.929688 15.335938 8.929688 15.355469 8.929688 C 15.421875 8.929688 15.484375 8.886719 15.507812 8.820312 L 15.625 8.453125 L 16.058594 8.453125 C 16.0625 8.453125 16.066406 8.453125 16.070312 8.453125 C 16.121094 8.65625 16.152344 8.871094 16.164062 9.089844 Z M 9.777344 9.089844 " fill-opacity="1" fill-rule="nonzero"/></g><g clip-path="url(#72917d205c)"><path fill="#1800ad" d="M 11.757812 15.65625 L 10.277344 15.65625 L 10.277344 13.335938 C 10.277344 13.328125 10.277344 13.324219 10.277344 13.316406 C 10.277344 13.316406 10.277344 13.3125 10.277344 13.3125 C 10.273438 13.3125 10.273438 13.308594 10.273438 13.308594 C 10.273438 13.304688 10.273438 13.304688 10.273438 13.300781 C 10.269531 13.289062 10.269531 13.28125 10.261719 13.269531 C 10.261719 13.265625 10.261719 13.265625 10.261719 13.261719 C 10.261719 13.261719 10.257812 13.261719 10.257812 13.261719 C 10.257812 13.257812 10.257812 13.257812 10.257812 13.257812 C 10.257812 13.253906 10.253906 13.253906 10.253906 13.253906 C 10.253906 13.253906 10.253906 13.25 10.253906 13.25 C 10.253906 13.25 10.25 13.246094 10.25 13.246094 C 10.246094 13.242188 10.246094 13.242188 10.246094 13.238281 C 10.242188 13.238281 10.242188 13.234375 10.242188 13.234375 C 10.242188 13.234375 10.242188 13.230469 10.242188 13.230469 C 10.238281 13.230469 10.238281 13.230469 10.234375 13.226562 C 10.234375 13.226562 10.230469 13.222656 10.230469 13.222656 C 10.226562 13.21875 10.226562 13.21875 10.226562 13.214844 C 10.226562 13.214844 10.222656 13.214844 10.222656 13.214844 C 10.222656 13.214844 10.222656 13.210938 10.21875 13.210938 C 10.214844 13.210938 10.214844 13.207031 10.214844 13.207031 C 10.214844 13.207031 10.210938 13.207031 10.210938 13.203125 C 10.210938 13.203125 10.210938 13.203125 10.207031 13.203125 C 10.207031 13.203125 10.207031 13.199219 10.203125 13.199219 C 10.199219 13.199219 10.199219 13.195312 10.199219 13.195312 C 10.195312 13.195312 10.195312 13.195312 10.195312 13.195312 C 10.195312 13.195312 10.191406 13.191406 10.191406 13.191406 C 10.191406 13.191406 10.191406 13.191406 10.1875 13.191406 C 10.1875 13.191406 10.183594 13.191406 10.183594 13.1875 C 10.179688 13.1875 10.179688 13.1875 10.175781 13.1875 C 10.175781 13.1875 10.175781 13.183594 10.175781 13.183594 C 10.171875 13.183594 10.171875 13.183594 10.167969 13.183594 C 10.167969 13.183594 10.164062 13.179688 10.164062 13.179688 C 10.160156 13.179688 10.160156 13.179688 10.160156 13.179688 C 10.160156 13.179688 10.15625 13.179688 10.15625 13.179688 C 10.152344 13.179688 10.152344 13.179688 10.152344 13.179688 C 10.152344 13.179688 10.148438 13.175781 10.148438 13.175781 C 10.144531 13.175781 10.144531 13.175781 10.144531 13.175781 C 10.140625 13.175781 10.140625 13.175781 10.140625 13.175781 C 10.136719 13.175781 10.136719 13.175781 10.132812 13.175781 C 10.121094 13.171875 10.105469 13.175781 10.09375 13.175781 C 10.089844 13.175781 10.089844 13.175781 10.089844 13.175781 C 10.085938 13.175781 10.085938 13.175781 10.082031 13.175781 C 10.082031 13.179688 10.082031 13.179688 10.082031 13.179688 C 10.078125 13.179688 10.074219 13.179688 10.066406 13.183594 C 9.621094 13.324219 9.21875 13.527344 8.871094 13.78125 C 8.871094 13.78125 8.871094 13.78125 8.867188 13.78125 C 8.863281 13.789062 8.855469 13.792969 8.851562 13.796875 C 8.558594 14.011719 8.300781 14.269531 8.085938 14.5625 C 7.804688 14.949219 7.585938 15.402344 7.441406 15.914062 C 7.289062 16.445312 7.214844 17.054688 7.214844 17.71875 C 7.214844 17.71875 7.214844 17.722656 7.214844 17.722656 L 7.214844 18.859375 C 7.214844 18.945312 7.285156 19.019531 7.371094 19.019531 C 7.460938 19.019531 7.53125 18.945312 7.53125 18.859375 L 7.53125 17.722656 C 7.53125 16.484375 7.804688 15.484375 8.34375 14.753906 C 8.480469 14.566406 8.632812 14.398438 8.804688 14.246094 L 8.804688 18.855469 C 8.804688 18.945312 8.878906 19.019531 8.96875 19.019531 C 9.054688 19.015625 9.125 18.945312 9.125 18.859375 L 9.125 13.992188 C 9.375 13.820312 9.652344 13.675781 9.957031 13.558594 L 9.957031 15.816406 C 9.957031 15.90625 10.027344 15.976562 10.117188 15.976562 L 11.757812 15.976562 C 11.84375 15.976562 11.917969 15.90625 11.917969 15.816406 C 11.917969 15.726562 11.847656 15.65625 11.757812 15.65625 Z M 11.757812 15.65625 " fill-opacity="1" fill-rule="nonzero"/></g></svg>