<svg xmlns="http://www.w3.org/2000/svg" xmlns:xlink="http://www.w3.org/1999/xlink" width="40" zoomAndPan="magnify" viewBox="0 0 30 37.92" height="40" preserveAspectRatio="xMidYMid meet" version="1.0"><defs><clipPath id="28d411c216"><path d="M 3.113281 0.683594 L 26.886719 0.683594 L 26.886719 29.300781 L 3.113281 29.300781 Z M 3.113281 0.683594 " clip-rule="nonzero"/></clipPath><clipPath id="58432c85e7"><path d="M 19.457031 1.550781 C 18.035156 0.976562 16.539062 0.683594 15 0.683594 C 13.460938 0.683594 11.964844 0.976562 10.542969 1.550781 C 9.078125 2.144531 7.757812 3.019531 6.632812 4.148438 C 4.429688 6.355469 3.199219 9.285156 3.167969 12.402344 C 3.136719 15.511719 4.304688 18.464844 6.460938 20.707031 L 6.453125 20.710938 L 15 29.257812 L 23.5 20.757812 L 23.492188 20.753906 C 25.667969 18.511719 26.855469 15.558594 26.832031 12.433594 C 26.8125 9.300781 25.582031 6.363281 23.367188 4.148438 C 22.234375 3.019531 20.921875 2.144531 19.457031 1.550781 Z M 19.457031 1.550781 " clip-rule="nonzero"/></clipPath><clipPath id="ab3e91db6b"><path d="M 0.144531 0.683594 L 23.855469 0.683594 L 23.855469 29.300781 L 0.144531 29.300781 Z M 0.144531 0.683594 " clip-rule="nonzero"/></clipPath><clipPath id="05cf432734"><path d="M 16.457031 1.550781 C 15.035156 0.976562 13.539062 0.683594 12 0.683594 C 10.460938 0.683594 8.964844 0.976562 7.542969 1.550781 C 6.078125 2.144531 4.757812 3.019531 3.632812 4.148438 C 1.429688 6.355469 0.199219 9.285156 0.167969 12.402344 C 0.136719 15.511719 1.304688 18.464844 3.460938 20.707031 L 3.453125 20.710938 L 12 29.257812 L 20.5 20.757812 L 20.492188 20.753906 C 22.667969 18.511719 23.855469 15.558594 23.832031 12.433594 C 23.8125 9.300781 22.582031 6.363281 20.367188 4.148438 C 19.234375 3.019531 17.921875 2.144531 16.457031 1.550781 Z M 16.457031 1.550781 " clip-rule="nonzero"/></clipPath><clipPath id="aef113386d"><rect x="0" width="24" y="0" height="30"/></clipPath><clipPath id="c0940639cf"><path d="M 4.261719 1.777344 L 25.738281 1.777344 L 25.738281 23.203125 L 4.261719 23.203125 Z M 4.261719 1.777344 " clip-rule="nonzero"/></clipPath><clipPath id="8bab16a3d4"><path d="M 14.996094 1.789062 C 9.089844 1.789062 4.300781 6.578125 4.300781 12.484375 C 4.300781 18.390625 9.089844 23.179688 14.996094 23.179688 C 20.902344 23.179688 25.691406 18.390625 25.691406 12.484375 C 25.691406 6.578125 20.902344 1.789062 14.996094 1.789062 Z M 14.996094 1.789062 " clip-rule="nonzero"/></clipPath><clipPath id="ebab0a6d64"><path d="M 0.261719 0.777344 L 21.738281 0.777344 L 21.738281 22.203125 L 0.261719 22.203125 Z M 0.261719 0.777344 " clip-rule="nonzero"/></clipPath><clipPath id="1aa593a5ab"><path d="M 10.996094 0.789062 C 5.089844 0.789062 0.300781 5.578125 0.300781 11.484375 C 0.300781 17.390625 5.089844 22.179688 10.996094 22.179688 C 16.902344 22.179688 21.691406 17.390625 21.691406 11.484375 C 21.691406 5.578125 16.902344 0.789062 10.996094 0.789062 Z M 10.996094 0.789062 " clip-rule="nonzero"/></clipPath><clipPath id="5dae2482c3"><rect x="0" width="22" y="0" height="23"/></clipPath><clipPath id="7d145b528a"><path d="M 7.785156 13 L 22 13 L 22 20 L 7.785156 20 Z M 7.785156 13 " clip-rule="nonzero"/></clipPath></defs><g clip-path="url(#28d411c216)"><g clip-path="url(#58432c85e7)"><g transform="matrix(1, 0, 0, 1, 3, 0.000000000000005773)"><g clip-path="url(#aef113386d)"><g clip-path="url(#ab3e91db6b)"><g clip-path="url(#05cf432734)"><path fill="#faab11" d="M 0.167969 0.683594 L 23.832031 0.683594 L 23.832031 29.25 L 0.167969 29.25 Z M 0.167969 0.683594 " fill-opacity="1" fill-rule="nonzero"/></g></g></g></g></g></g><g clip-path="url(#c0940639cf)"><g clip-path="url(#8bab16a3d4)"><g transform="matrix(1, 0, 0, 1, 4, 1)"><g clip-path="url(#5dae2482c3)"><g clip-path="url(#ebab0a6d64)"><g clip-path="url(#1aa593a5ab)"><rect x="-10.6" width="43.2" fill="#ffffff" height="54.6048" y="-9.3424" fill-opacity="1"/></g></g></g></g></g></g><path fill="#1800ad" d="M 13.59375 15.269531 L 13.085938 16.152344 C 13.035156 16.242188 13 16.347656 12.996094 16.449219 L 12.800781 19.105469 C 12.773438 19.511719 13.09375 19.855469 13.5 19.855469 C 13.863281 19.855469 14.171875 19.574219 14.195312 19.207031 L 14.378906 16.710938 L 15.082031 15.488281 L 15.324219 19.199219 C 15.347656 19.570312 15.652344 19.855469 16.019531 19.855469 C 16.417969 19.855469 16.746094 19.519531 16.71875 19.109375 L 16.46875 15.269531 C 15.371094 15.269531 14.609375 15.269531 13.59375 15.269531 Z M 13.59375 15.269531 " fill-opacity="1" fill-rule="nonzero"/><path fill="#1800ad" d="M 13.6875 6.1875 C 14.917969 5.855469 15.960938 6.164062 15.960938 6.164062 C 15.988281 6.144531 16.230469 5.921875 16.207031 5.945312 C 16.25 4.984375 15.589844 4.644531 15.589844 4.644531 C 15.25 5.007812 15.199219 5.816406 15.183594 5.859375 C 15.128906 4.882812 15.5 4.496094 15.511719 4.472656 C 14.710938 4.046875 14.164062 4.472656 14.164062 4.472656 C 14.542969 4.984375 14.464844 5.835938 14.472656 5.859375 C 14.339844 5.007812 14.136719 4.816406 14.054688 4.679688 C 13.335938 5.09375 13.464844 5.945312 13.464844 5.945312 C 13.488281 5.96875 13.710938 6.214844 13.6875 6.1875 Z M 13.6875 6.1875 " fill-opacity="1" fill-rule="nonzero"/><path fill="#1800ad" d="M 13.671875 6.609375 C 13.894531 7.019531 14.332031 7.300781 14.832031 7.300781 C 15.328125 7.300781 15.761719 7.023438 15.988281 6.613281 C 16.0625 6.597656 16.101562 6.585938 16.101562 6.585938 L 16.375 6.296875 L 16.375 6.1875 L 16.234375 6.199219 C 16.210938 6.222656 15.972656 6.464844 15.996094 6.441406 C 14.753906 6.09375 13.667969 6.441406 13.667969 6.441406 C 13.644531 6.417969 13.554688 6.335938 13.417969 6.199219 L 13.289062 6.1875 L 13.289062 6.324219 L 13.570312 6.585938 C 13.605469 6.597656 13.636719 6.601562 13.671875 6.609375 Z M 13.671875 6.609375 " fill-opacity="1" fill-rule="nonzero"/><g clip-path="url(#7d145b528a)"><path fill="#1800ad" d="M 21.414062 13.671875 C 19.167969 13.671875 11.730469 13.671875 8.28125 13.671875 C 8.0625 13.671875 7.878906 13.859375 7.878906 14.082031 C 7.878906 14.304688 8.0625 14.488281 8.28125 14.488281 L 8.84375 14.488281 L 8.84375 15.039062 L 9.527344 15.039062 C 9.527344 15.476562 9.527344 18.183594 9.527344 19.210938 L 10.066406 19.210938 C 10.066406 18.550781 10.066406 15.957031 10.066406 15.039062 C 12.222656 15.039062 16.371094 15.039062 19.632812 15.039062 L 19.632812 19.210938 L 20.175781 19.210938 L 20.175781 15.039062 L 20.855469 15.039062 L 20.855469 14.488281 L 21.414062 14.488281 C 21.636719 14.488281 21.824219 14.304688 21.824219 14.082031 C 21.824219 13.859375 21.636719 13.671875 21.414062 13.671875 Z M 21.414062 13.671875 " fill-opacity="1" fill-rule="nonzero"/></g><path fill="#1800ad" d="M 19.019531 13.441406 C 19.019531 13.414062 19.019531 11.699219 19.019531 11.722656 C 14.097656 11.722656 16.875 11.722656 11.9375 11.722656 C 11.835938 11.78125 11.714844 11.816406 11.59375 11.816406 C 11.484375 11.816406 11.347656 11.785156 11.253906 11.722656 L 10.679688 11.722656 C 10.679688 11.820312 10.679688 13.46875 10.679688 13.441406 C 12.734375 13.441406 16.867188 13.441406 19.019531 13.441406 Z M 19.019531 13.441406 " fill-opacity="1" fill-rule="nonzero"/><path fill="#1800ad" d="M 11.464844 11.570312 C 11.730469 11.644531 11.976562 11.476562 12.039062 11.246094 C 12.179688 10.746094 12.425781 10.222656 12.683594 9.765625 L 12.816406 11.492188 L 16.84375 11.492188 L 16.992188 9.566406 L 17.597656 10.308594 C 17.691406 10.417969 17.824219 10.480469 17.960938 10.480469 C 18.054688 10.480469 18.152344 10.449219 18.234375 10.390625 L 19.042969 9.796875 L 18.179688 9.273438 L 18.039062 9.375 L 17.226562 8.378906 C 16.105469 7.058594 13.257812 7.25 12.445312 8.382812 C 12.082031 8.929688 11.183594 10.425781 11.125 11.070312 C 11.105469 11.300781 11.25 11.507812 11.464844 11.570312 Z M 11.464844 11.570312 " fill-opacity="1" fill-rule="nonzero"/><path fill="#1800ad" d="M 19.289062 9.648438 C 19.484375 9.324219 19.648438 9.054688 19.738281 8.882812 L 19.765625 8.902344 L 20.238281 8.648438 C 20.234375 8.621094 20.183594 8.273438 20.183594 8.296875 L 20.460938 8.15625 L 20.40625 7.832031 L 20.667969 7.703125 L 20.609375 7.410156 L 20.851562 7.296875 L 20.796875 7.015625 L 21.027344 6.914062 L 20.96875 6.65625 L 21.183594 6.570312 L 21.125 6.328125 L 21.332031 6.246094 L 21.269531 6.019531 L 21.464844 5.949219 L 21.40625 5.734375 L 21.59375 5.671875 L 21.53125 5.46875 L 21.59375 5.453125 L 20.917969 5.050781 C 17.269531 11.222656 22.136719 2.988281 18.488281 9.160156 C 18.511719 9.175781 19.339844 9.679688 19.289062 9.648438 Z M 19.234375 9.382812 L 18.746094 9.085938 C 18.761719 9.0625 19.066406 8.550781 19.046875 8.582031 L 19.535156 8.871094 C 19.519531 8.894531 19.214844 9.414062 19.234375 9.382812 Z M 19.234375 9.382812 " fill-opacity="1" fill-rule="nonzero"/></svg>