<svg xmlns="http://www.w3.org/2000/svg" xmlns:xlink="http://www.w3.org/1999/xlink" width="40" zoomAndPan="magnify" viewBox="0 0 30 37.92" height="40" preserveAspectRatio="xMidYMid meet" version="1.0"><defs><clipPath id="736d5696cd"><path d="M 3.113281 0.683594 L 26.886719 0.683594 L 26.886719 29.300781 L 3.113281 29.300781 Z M 3.113281 0.683594 " clip-rule="nonzero"/></clipPath><clipPath id="23bb029a63"><path d="M 19.457031 1.550781 C 18.035156 0.976562 16.539062 0.683594 15 0.683594 C 13.460938 0.683594 11.964844 0.976562 10.542969 1.550781 C 9.078125 2.144531 7.757812 3.019531 6.632812 4.148438 C 4.429688 6.355469 3.199219 9.285156 3.167969 12.402344 C 3.136719 15.511719 4.304688 18.464844 6.460938 20.707031 L 6.453125 20.710938 L 15 29.257812 L 23.5 20.757812 L 23.492188 20.753906 C 25.667969 18.511719 26.855469 15.558594 26.832031 12.433594 C 26.8125 9.300781 25.582031 6.363281 23.367188 4.148438 C 22.234375 3.019531 20.921875 2.144531 19.457031 1.550781 Z M 19.457031 1.550781 " clip-rule="nonzero"/></clipPath><clipPath id="3beb4a2861"><path d="M 0.144531 0.683594 L 23.855469 0.683594 L 23.855469 29.300781 L 0.144531 29.300781 Z M 0.144531 0.683594 " clip-rule="nonzero"/></clipPath><clipPath id="03530319c7"><path d="M 16.457031 1.550781 C 15.035156 0.976562 13.539062 0.683594 12 0.683594 C 10.460938 0.683594 8.964844 0.976562 7.542969 1.550781 C 6.078125 2.144531 4.757812 3.019531 3.632812 4.148438 C 1.429688 6.355469 0.199219 9.285156 0.167969 12.402344 C 0.136719 15.511719 1.304688 18.464844 3.460938 20.707031 L 3.453125 20.710938 L 12 29.257812 L 20.5 20.757812 L 20.492188 20.753906 C 22.667969 18.511719 23.855469 15.558594 23.832031 12.433594 C 23.8125 9.300781 22.582031 6.363281 20.367188 4.148438 C 19.234375 3.019531 17.921875 2.144531 16.457031 1.550781 Z M 16.457031 1.550781 " clip-rule="nonzero"/></clipPath><clipPath id="c964900b83"><rect x="0" width="24" y="0" height="30"/></clipPath><clipPath id="16fd80dff7"><path d="M 4.261719 1.777344 L 25.738281 1.777344 L 25.738281 23.203125 L 4.261719 23.203125 Z M 4.261719 1.777344 " clip-rule="nonzero"/></clipPath><clipPath id="619440c426"><path d="M 14.996094 1.789062 C 9.089844 1.789062 4.300781 6.578125 4.300781 12.484375 C 4.300781 18.390625 9.089844 23.179688 14.996094 23.179688 C 20.902344 23.179688 25.691406 18.390625 25.691406 12.484375 C 25.691406 6.578125 20.902344 1.789062 14.996094 1.789062 Z M 14.996094 1.789062 " clip-rule="nonzero"/></clipPath><clipPath id="a2746a9071"><path d="M 0.261719 0.777344 L 21.738281 0.777344 L 21.738281 22.203125 L 0.261719 22.203125 Z M 0.261719 0.777344 " clip-rule="nonzero"/></clipPath><clipPath id="6ee009b50c"><path d="M 10.996094 0.789062 C 5.089844 0.789062 0.300781 5.578125 0.300781 11.484375 C 0.300781 17.390625 5.089844 22.179688 10.996094 22.179688 C 16.902344 22.179688 21.691406 17.390625 21.691406 11.484375 C 21.691406 5.578125 16.902344 0.789062 10.996094 0.789062 Z M 10.996094 0.789062 " clip-rule="nonzero"/></clipPath><clipPath id="30aaf937ea"><rect x="0" width="22" y="0" height="23"/></clipPath><clipPath id="7db33f18fe"><path d="M 7.300781 4.71875 L 23 4.71875 L 23 18.941406 L 7.300781 18.941406 Z M 7.300781 4.71875 " clip-rule="nonzero"/></clipPath></defs><g clip-path="url(#736d5696cd)"><g clip-path="url(#23bb029a63)"><g transform="matrix(1, 0, 0, 1, 3, 0.000000000000005773)"><g clip-path="url(#c964900b83)"><g clip-path="url(#3beb4a2861)"><g clip-path="url(#03530319c7)"><path fill="#faab11" d="M 0.167969 0.683594 L 23.832031 0.683594 L 23.832031 29.25 L 0.167969 29.25 Z M 0.167969 0.683594 " fill-opacity="1" fill-rule="nonzero"/></g></g></g></g></g></g><g clip-path="url(#16fd80dff7)"><g clip-path="url(#619440c426)"><g transform="matrix(1, 0, 0, 1, 4, 1)"><g clip-path="url(#30aaf937ea)"><g clip-path="url(#a2746a9071)"><g clip-path="url(#6ee009b50c)"><rect x="-10.6" width="43.2" fill="#ffffff" height="54.6048" y="-9.3424" fill-opacity="1"/></g></g></g></g></g></g><g clip-path="url(#7db33f18fe)"><path fill="#1800ad" d="M 22.59375 9.535156 C 22.53125 9.488281 22.445312 9.476562 22.371094 9.5 L 21.613281 9.75 C 21.511719 9.785156 21.441406 9.878906 21.441406 9.988281 L 21.441406 10.039062 L 20.933594 10.039062 L 20.933594 9.617188 C 20.933594 9.480469 20.824219 9.367188 20.6875 9.367188 L 17.875 9.367188 L 17.875 9.324219 C 17.875 9.222656 17.8125 9.128906 17.71875 9.09375 L 17.003906 8.816406 C 16.898438 8.433594 16.746094 8.070312 16.550781 7.726562 L 16.859375 7.027344 C 16.902344 6.933594 16.882812 6.820312 16.808594 6.75 L 15.84375 5.785156 C 15.773438 5.710938 15.664062 5.691406 15.570312 5.734375 L 14.867188 6.046875 C 14.527344 5.847656 14.160156 5.695312 13.777344 5.59375 L 13.503906 4.878906 C 13.464844 4.78125 13.375 4.71875 13.269531 4.71875 L 11.90625 4.71875 C 11.804688 4.71875 11.714844 4.78125 11.675781 4.878906 L 11.402344 5.59375 C 11.019531 5.695312 10.652344 5.847656 10.3125 6.046875 L 9.609375 5.734375 C 9.515625 5.691406 9.40625 5.710938 9.332031 5.785156 L 8.371094 6.75 C 8.296875 6.820312 8.277344 6.933594 8.316406 7.027344 L 8.628906 7.726562 C 8.429688 8.070312 8.28125 8.433594 8.175781 8.816406 L 7.460938 9.09375 C 7.367188 9.128906 7.304688 9.222656 7.304688 9.324219 L 7.304688 10.6875 C 7.304688 10.789062 7.367188 10.882812 7.460938 10.917969 L 8.175781 11.195312 C 8.28125 11.574219 8.429688 11.941406 8.628906 12.285156 L 8.316406 12.984375 C 8.277344 13.078125 8.296875 13.1875 8.371094 13.261719 L 9.332031 14.226562 C 9.382812 14.273438 9.445312 14.296875 9.507812 14.296875 C 9.542969 14.296875 9.578125 14.292969 9.609375 14.277344 L 10.113281 14.054688 C 10.242188 14.335938 10.425781 14.589844 10.660156 14.808594 C 10.785156 14.925781 10.925781 15.027344 11.074219 15.117188 C 10.410156 15.300781 9.792969 15.636719 9.273438 16.109375 C 8.453125 16.851562 7.9375 17.863281 7.820312 18.957031 C 7.8125 19.027344 7.835938 19.097656 7.882812 19.152344 C 7.929688 19.203125 7.996094 19.234375 8.066406 19.234375 L 16.503906 19.234375 C 16.574219 19.234375 16.640625 19.203125 16.691406 19.152344 C 16.738281 19.097656 16.757812 19.027344 16.75 18.957031 C 16.726562 18.730469 16.683594 18.507812 16.628906 18.289062 C 16.660156 18.328125 16.703125 18.355469 16.757812 18.371094 C 16.777344 18.375 16.796875 18.378906 16.820312 18.378906 C 16.929688 18.378906 17.03125 18.304688 17.058594 18.191406 L 18.324219 13.375 C 18.433594 13.40625 18.546875 13.417969 18.667969 13.417969 C 18.769531 13.417969 18.867188 13.410156 18.960938 13.386719 L 20.273438 18.195312 C 20.304688 18.304688 20.40625 18.378906 20.515625 18.378906 C 20.535156 18.378906 20.558594 18.375 20.582031 18.371094 C 20.710938 18.332031 20.789062 18.195312 20.753906 18.0625 L 19.421875 13.195312 C 19.734375 12.988281 19.957031 12.664062 20.027344 12.285156 L 20.6875 12.285156 C 20.824219 12.285156 20.933594 12.175781 20.933594 12.039062 L 20.933594 11.617188 L 21.441406 11.617188 L 21.441406 11.667969 C 21.441406 11.773438 21.511719 11.867188 21.613281 11.902344 L 22.371094 12.152344 C 22.394531 12.160156 22.421875 12.164062 22.449219 12.164062 C 22.5 12.164062 22.550781 12.148438 22.59375 12.117188 C 22.660156 12.070312 22.695312 11.996094 22.695312 11.917969 L 22.695312 9.738281 C 22.695312 9.65625 22.660156 9.582031 22.59375 9.535156 Z M 16.710938 11.789062 C 16.34375 11.789062 16.03125 11.347656 16.03125 10.828125 C 16.03125 10.304688 16.34375 9.863281 16.710938 9.863281 L 16.742188 9.863281 L 16.742188 11.789062 Z M 17.238281 11.789062 L 17.238281 9.863281 L 17.496094 9.863281 L 17.496094 10.929688 C 17.496094 11.066406 17.605469 11.175781 17.742188 11.175781 L 19.921875 11.175781 C 20.058594 11.175781 20.171875 11.066406 20.171875 10.929688 L 20.171875 9.863281 L 20.4375 9.863281 L 20.4375 11.789062 Z M 17.992188 9.863281 L 19.675781 9.863281 L 19.675781 10.679688 L 17.992188 10.679688 Z M 9.5625 13.753906 L 8.839844 13.03125 L 9.136719 12.367188 C 9.167969 12.292969 9.164062 12.207031 9.121094 12.136719 C 8.894531 11.769531 8.726562 11.371094 8.628906 10.949219 C 8.609375 10.871094 8.550781 10.804688 8.476562 10.777344 L 7.800781 10.515625 L 7.800781 9.492188 L 8.476562 9.234375 C 8.550781 9.203125 8.609375 9.140625 8.628906 9.058594 C 8.726562 8.640625 8.894531 8.242188 9.121094 7.875 C 9.164062 7.804688 9.167969 7.71875 9.136719 7.640625 L 8.839844 6.980469 L 9.5625 6.257812 L 10.226562 6.550781 C 10.300781 6.585938 10.386719 6.578125 10.457031 6.535156 C 10.824219 6.308594 11.222656 6.144531 11.644531 6.042969 C 11.722656 6.023438 11.789062 5.96875 11.816406 5.890625 L 12.078125 5.214844 L 13.101562 5.214844 L 13.359375 5.890625 C 13.390625 5.96875 13.457031 6.023438 13.535156 6.042969 C 13.953125 6.144531 14.355469 6.308594 14.722656 6.535156 C 14.792969 6.578125 14.878906 6.585938 14.953125 6.550781 L 15.613281 6.257812 L 16.339844 6.980469 L 16.042969 7.640625 C 16.011719 7.71875 16.015625 7.804688 16.058594 7.875 C 16.285156 8.242188 16.453125 8.640625 16.550781 9.058594 C 16.570312 9.140625 16.628906 9.203125 16.703125 9.234375 L 17.050781 9.367188 L 16.710938 9.367188 C 16.0625 9.367188 15.535156 10.023438 15.535156 10.828125 C 15.535156 11.351562 15.761719 11.816406 16.097656 12.070312 C 16.085938 12.09375 16.074219 12.117188 16.058594 12.136719 C 16.015625 12.207031 16.011719 12.292969 16.042969 12.367188 L 16.339844 13.03125 L 15.613281 13.753906 L 14.953125 13.460938 C 14.878906 13.425781 14.792969 13.433594 14.722656 13.476562 C 14.691406 13.492188 14.660156 13.511719 14.632812 13.527344 C 14.636719 13.507812 14.640625 13.492188 14.644531 13.472656 C 14.929688 13.449219 15.160156 13.207031 15.160156 12.914062 C 15.160156 12.675781 15.003906 12.46875 14.792969 12.390625 C 14.789062 12.175781 14.757812 11.964844 14.703125 11.765625 C 15.117188 11.273438 15.339844 10.652344 15.339844 10.003906 C 15.339844 8.488281 14.105469 7.253906 12.589844 7.253906 C 11.070312 7.253906 9.835938 8.488281 9.835938 10.003906 C 9.835938 10.414062 9.929688 10.820312 10.105469 11.191406 C 9.902344 11.546875 9.785156 11.957031 9.78125 12.390625 C 9.566406 12.46875 9.414062 12.675781 9.414062 12.914062 C 9.414062 13.207031 9.640625 13.449219 9.929688 13.472656 C 9.933594 13.507812 9.941406 13.546875 9.953125 13.582031 Z M 9.972656 12.976562 C 9.9375 12.976562 9.910156 12.949219 9.910156 12.914062 C 9.910156 12.882812 9.9375 12.851562 9.972656 12.851562 L 14.535156 12.851562 C 14.539062 12.851562 14.539062 12.851562 14.539062 12.851562 L 14.601562 12.851562 C 14.632812 12.851562 14.660156 12.882812 14.660156 12.914062 C 14.660156 12.949219 14.632812 12.976562 14.601562 12.976562 Z M 10.335938 10.003906 C 10.335938 8.761719 11.347656 7.75 12.589844 7.75 C 13.832031 7.75 14.84375 8.761719 14.84375 10.003906 C 14.84375 10.441406 14.71875 10.863281 14.488281 11.226562 C 14.210938 10.722656 13.769531 10.320312 13.214844 10.101562 C 13.191406 10.007812 13.148438 9.921875 13.082031 9.847656 C 12.839844 9.585938 12.414062 9.5625 12.285156 9.5625 C 12.160156 9.5625 11.730469 9.585938 11.492188 9.847656 C 11.425781 9.921875 11.378906 10.007812 11.355469 10.101562 C 11.003906 10.238281 10.699219 10.453125 10.449219 10.71875 C 10.375 10.488281 10.335938 10.25 10.335938 10.003906 Z M 13.109375 12.355469 C 13.113281 12.335938 13.113281 12.3125 13.117188 12.289062 L 13.207031 10.640625 C 13.847656 10.972656 14.269531 11.621094 14.292969 12.355469 Z M 11.953125 12.261719 L 11.839844 10.28125 C 11.839844 10.273438 11.839844 10.265625 11.835938 10.253906 C 11.835938 10.21875 11.84375 10.199219 11.859375 10.183594 C 11.921875 10.113281 12.101562 10.0625 12.285156 10.0625 C 12.46875 10.0625 12.648438 10.113281 12.710938 10.183594 C 12.730469 10.199219 12.738281 10.21875 12.734375 10.253906 C 12.734375 10.265625 12.734375 10.273438 12.734375 10.28125 L 12.730469 10.28125 L 12.621094 12.261719 C 12.617188 12.320312 12.550781 12.355469 12.492188 12.355469 L 12.078125 12.355469 C 12.019531 12.355469 11.953125 12.320312 11.953125 12.261719 Z M 11.363281 10.640625 L 11.457031 12.289062 C 11.457031 12.3125 11.460938 12.335938 11.464844 12.355469 L 10.277344 12.355469 C 10.304688 11.621094 10.722656 10.972656 11.363281 10.640625 Z M 10.4375 13.472656 L 14.136719 13.472656 C 13.941406 14.320312 13.175781 14.949219 12.285156 14.949219 C 11.394531 14.949219 10.628906 14.320312 10.4375 13.472656 Z M 14.679688 16.238281 L 14.71875 18.734375 L 9.925781 18.734375 L 9.886719 16.242188 C 10.082031 16.097656 10.289062 15.96875 10.511719 15.859375 L 12.148438 17.5 C 12.199219 17.546875 12.261719 17.574219 12.324219 17.574219 C 12.390625 17.574219 12.453125 17.546875 12.5 17.5 L 14.113281 15.886719 C 14.3125 15.988281 14.503906 16.105469 14.679688 16.238281 Z M 12.324219 16.972656 L 11.007812 15.652344 C 11.410156 15.519531 11.839844 15.445312 12.285156 15.445312 C 12.753906 15.445312 13.203125 15.527344 13.625 15.675781 Z M 9.398438 16.675781 L 9.429688 18.734375 L 8.351562 18.734375 C 8.492188 17.9375 8.867188 17.230469 9.398438 16.675781 Z M 15.214844 18.734375 L 15.183594 16.683594 C 15.710938 17.238281 16.078125 17.945312 16.21875 18.734375 Z M 16.578125 18.066406 C 16.574219 18.078125 16.574219 18.089844 16.574219 18.097656 C 16.335938 17.339844 15.898438 16.652344 15.296875 16.109375 C 14.777344 15.636719 14.160156 15.300781 13.5 15.117188 C 13.644531 15.027344 13.785156 14.925781 13.914062 14.808594 C 14.101562 14.632812 14.261719 14.429688 14.382812 14.207031 C 14.546875 14.136719 14.710938 14.054688 14.867188 13.964844 L 15.570312 14.277344 C 15.601562 14.292969 15.636719 14.296875 15.671875 14.296875 C 15.734375 14.296875 15.796875 14.273438 15.84375 14.226562 L 16.808594 13.261719 C 16.882812 13.1875 16.902344 13.078125 16.859375 12.984375 L 16.550781 12.285156 C 16.550781 12.28125 16.554688 12.277344 16.558594 12.273438 C 16.605469 12.28125 16.660156 12.285156 16.710938 12.285156 L 17.308594 12.285156 C 17.375 12.644531 17.578125 12.957031 17.867188 13.164062 Z M 18.667969 12.921875 C 18.265625 12.921875 17.925781 12.652344 17.816406 12.285156 L 19.515625 12.285156 C 19.410156 12.652344 19.070312 12.921875 18.667969 12.921875 Z M 20.933594 11.117188 L 20.933594 10.535156 L 21.441406 10.535156 L 21.441406 11.117188 Z M 22.199219 11.574219 L 21.9375 11.488281 L 21.9375 10.167969 L 22.199219 10.082031 Z M 22.199219 11.574219 " fill-opacity="1" fill-rule="nonzero"/></g></svg>