<svg xmlns="http://www.w3.org/2000/svg" xmlns:xlink="http://www.w3.org/1999/xlink" width="40" zoomAndPan="magnify" viewBox="0 0 30 37.92" height="40" preserveAspectRatio="xMidYMid meet" version="1.0"><defs><clipPath id="5ea32d4a3e"><path d="M 3.113281 0.683594 L 26.886719 0.683594 L 26.886719 29.300781 L 3.113281 29.300781 Z M 3.113281 0.683594 " clip-rule="nonzero"/></clipPath><clipPath id="e5eea5f8bc"><path d="M 19.457031 1.550781 C 18.035156 0.976562 16.539062 0.683594 15 0.683594 C 13.460938 0.683594 11.964844 0.976562 10.542969 1.550781 C 9.078125 2.144531 7.757812 3.019531 6.632812 4.148438 C 4.429688 6.355469 3.199219 9.285156 3.167969 12.402344 C 3.136719 15.511719 4.304688 18.464844 6.460938 20.707031 L 6.453125 20.710938 L 15 29.257812 L 23.5 20.757812 L 23.492188 20.753906 C 25.667969 18.511719 26.855469 15.558594 26.832031 12.433594 C 26.8125 9.300781 25.582031 6.363281 23.367188 4.148438 C 22.234375 3.019531 20.921875 2.144531 19.457031 1.550781 Z M 19.457031 1.550781 " clip-rule="nonzero"/></clipPath><clipPath id="5e3c57e73d"><path d="M 0.144531 0.683594 L 23.855469 0.683594 L 23.855469 29.300781 L 0.144531 29.300781 Z M 0.144531 0.683594 " clip-rule="nonzero"/></clipPath><clipPath id="e2558f8a66"><path d="M 16.457031 1.550781 C 15.035156 0.976562 13.539062 0.683594 12 0.683594 C 10.460938 0.683594 8.964844 0.976562 7.542969 1.550781 C 6.078125 2.144531 4.757812 3.019531 3.632812 4.148438 C 1.429688 6.355469 0.199219 9.285156 0.167969 12.402344 C 0.136719 15.511719 1.304688 18.464844 3.460938 20.707031 L 3.453125 20.710938 L 12 29.257812 L 20.5 20.757812 L 20.492188 20.753906 C 22.667969 18.511719 23.855469 15.558594 23.832031 12.433594 C 23.8125 9.300781 22.582031 6.363281 20.367188 4.148438 C 19.234375 3.019531 17.921875 2.144531 16.457031 1.550781 Z M 16.457031 1.550781 " clip-rule="nonzero"/></clipPath><clipPath id="3ab2646111"><rect x="0" width="24" y="0" height="30"/></clipPath><clipPath id="e9436a7a13"><path d="M 4.261719 1.777344 L 25.738281 1.777344 L 25.738281 23.203125 L 4.261719 23.203125 Z M 4.261719 1.777344 " clip-rule="nonzero"/></clipPath><clipPath id="ec904cdf0d"><path d="M 14.996094 1.789062 C 9.089844 1.789062 4.300781 6.578125 4.300781 12.484375 C 4.300781 18.390625 9.089844 23.179688 14.996094 23.179688 C 20.902344 23.179688 25.691406 18.390625 25.691406 12.484375 C 25.691406 6.578125 20.902344 1.789062 14.996094 1.789062 Z M 14.996094 1.789062 " clip-rule="nonzero"/></clipPath><clipPath id="2f857999d1"><path d="M 0.261719 0.777344 L 21.738281 0.777344 L 21.738281 22.203125 L 0.261719 22.203125 Z M 0.261719 0.777344 " clip-rule="nonzero"/></clipPath><clipPath id="073a548c43"><path d="M 10.996094 0.789062 C 5.089844 0.789062 0.300781 5.578125 0.300781 11.484375 C 0.300781 17.390625 5.089844 22.179688 10.996094 22.179688 C 16.902344 22.179688 21.691406 17.390625 21.691406 11.484375 C 21.691406 5.578125 16.902344 0.789062 10.996094 0.789062 Z M 10.996094 0.789062 " clip-rule="nonzero"/></clipPath><clipPath id="4a560d5c1c"><rect x="0" width="22" y="0" height="23"/></clipPath><clipPath id="8af10f8676"><path d="M 10.96875 18.855469 L 11.988281 18.855469 L 11.988281 19.035156 L 10.96875 19.035156 Z M 10.96875 18.855469 " clip-rule="nonzero"/></clipPath><clipPath id="0a399c8b7a"><path d="M 12.398438 18.855469 L 13.625 18.855469 L 13.625 19.035156 L 12.398438 19.035156 Z M 12.398438 18.855469 " clip-rule="nonzero"/></clipPath><clipPath id="b982e4646f"><path d="M 15.464844 14.152344 L 21.554688 14.152344 L 21.554688 15.789062 L 15.464844 15.789062 Z M 15.464844 14.152344 " clip-rule="nonzero"/></clipPath><clipPath id="5df0d1e192"><path d="M 8.085938 13 L 10 13 L 10 15 L 8.085938 15 Z M 8.085938 13 " clip-rule="nonzero"/></clipPath><clipPath id="297b6e5355"><path d="M 8.085938 12 L 9 12 L 9 14 L 8.085938 14 Z M 8.085938 12 " clip-rule="nonzero"/></clipPath><clipPath id="5d3ef0e52f"><path d="M 11 5.5625 L 13 5.5625 L 13 8 L 11 8 Z M 11 5.5625 " clip-rule="nonzero"/></clipPath><clipPath id="ff60feb4b7"><path d="M 15.464844 18 L 21.554688 18 L 21.554688 19.035156 L 15.464844 19.035156 Z M 15.464844 18 " clip-rule="nonzero"/></clipPath><clipPath id="1c6bb45e8b"><path d="M 8.085938 7 L 16 7 L 16 13 L 8.085938 13 Z M 8.085938 7 " clip-rule="nonzero"/></clipPath><clipPath id="e875368ba4"><path d="M 15 16 L 21.554688 16 L 21.554688 18 L 15 18 Z M 15 16 " clip-rule="nonzero"/></clipPath><clipPath id="942aa09176"><path d="M 17.714844 5.769531 L 21.554688 5.769531 L 21.554688 11.289062 L 17.714844 11.289062 Z M 17.714844 5.769531 " clip-rule="nonzero"/></clipPath><clipPath id="a9fb29d0d7"><path d="M 15 13 L 21.554688 13 L 21.554688 14 L 15 14 Z M 15 13 " clip-rule="nonzero"/></clipPath></defs><g clip-path="url(#5ea32d4a3e)"><g clip-path="url(#e5eea5f8bc)"><g transform="matrix(1, 0, 0, 1, 3, 0.000000000000005773)"><g clip-path="url(#3ab2646111)"><g clip-path="url(#5e3c57e73d)"><g clip-path="url(#e2558f8a66)"><path fill="#faab11" d="M 0.167969 0.683594 L 23.832031 0.683594 L 23.832031 29.25 L 0.167969 29.25 Z M 0.167969 0.683594 " fill-opacity="1" fill-rule="nonzero"/></g></g></g></g></g></g><g clip-path="url(#e9436a7a13)"><g clip-path="url(#ec904cdf0d)"><g transform="matrix(1, 0, 0, 1, 4, 1)"><g clip-path="url(#4a560d5c1c)"><g clip-path="url(#2f857999d1)"><g clip-path="url(#073a548c43)"><rect x="-10.6" width="43.2" fill="#ffffff" height="54.6048" y="-9.3424" fill-opacity="1"/></g></g></g></g></g></g><path fill="#1800ad" d="M 10.816406 13.164062 L 10.875 15 L 11.082031 18.460938 L 11.992188 18.460938 L 11.992188 13.855469 L 12.453125 13.855469 L 12.453125 18.460938 L 13.355469 18.460938 L 13.570312 14.773438 L 13.515625 13.164062 L 10.816406 13.164062 " fill-opacity="1" fill-rule="nonzero"/><g clip-path="url(#8af10f8676)"><path fill="#1800ad" d="M 10.972656 19.117188 C 10.960938 19.183594 10.980469 19.25 11.023438 19.300781 C 11.046875 19.332031 11.101562 19.382812 11.191406 19.382812 L 11.988281 19.382812 L 11.988281 18.921875 L 11.035156 18.921875 L 10.972656 19.117188 " fill-opacity="1" fill-rule="nonzero"/></g><g clip-path="url(#0a399c8b7a)"><path fill="#1800ad" d="M 12.449219 18.921875 L 12.449219 19.382812 L 13.246094 19.382812 C 13.335938 19.382812 13.390625 19.332031 13.414062 19.300781 C 13.457031 19.25 13.472656 19.183594 13.464844 19.117188 L 13.402344 18.921875 L 12.449219 18.921875 " fill-opacity="1" fill-rule="nonzero"/></g><g clip-path="url(#b982e4646f)"><path fill="#1800ad" d="M 18.238281 14.777344 L 19.15625 14.777344 L 19.15625 15.238281 L 18.238281 15.238281 Z M 15.472656 15.46875 L 15.472656 15.699219 L 21.921875 15.699219 L 21.921875 14.316406 L 15.472656 14.316406 L 15.472656 15.46875 " fill-opacity="1" fill-rule="nonzero"/></g><g clip-path="url(#5df0d1e192)"><path fill="#1800ad" d="M 8.898438 13.421875 C 8.839844 13.488281 8.777344 13.542969 8.707031 13.582031 L 9.394531 14.691406 L 9.789062 14.449219 L 9.035156 13.238281 C 8.988281 13.308594 8.941406 13.371094 8.898438 13.421875 " fill-opacity="1" fill-rule="nonzero"/></g><g clip-path="url(#297b6e5355)"><path fill="#1800ad" d="M 8.957031 12.515625 L 8.449219 12.21875 L 8.136719 12.820312 C 8.097656 12.890625 8.09375 12.980469 8.132812 13.0625 C 8.152344 13.101562 8.207031 13.199219 8.332031 13.214844 C 8.375 13.222656 8.421875 13.210938 8.464844 13.191406 C 8.492188 13.175781 8.519531 13.152344 8.542969 13.125 C 8.609375 13.046875 8.6875 12.941406 8.769531 12.8125 C 8.828125 12.722656 8.890625 12.625 8.957031 12.515625 " fill-opacity="1" fill-rule="nonzero"/></g><g clip-path="url(#5d3ef0e52f)"><path fill="#1800ad" d="M 12.203125 7.382812 C 12.382812 7.382812 12.546875 7.304688 12.675781 7.175781 C 12.84375 7.011719 12.953125 6.757812 12.953125 6.472656 C 12.953125 6.464844 12.953125 6.453125 12.949219 6.445312 L 12.945312 6.398438 C 12.914062 5.929688 12.585938 5.566406 12.203125 5.566406 C 11.820312 5.566406 11.492188 5.929688 11.460938 6.398438 L 11.457031 6.441406 C 11.457031 6.453125 11.453125 6.460938 11.453125 6.472656 C 11.453125 6.757812 11.5625 7.011719 11.730469 7.175781 C 11.859375 7.304688 12.023438 7.382812 12.203125 7.382812 " fill-opacity="1" fill-rule="nonzero"/></g><g clip-path="url(#ff60feb4b7)"><path fill="#1800ad" d="M 19.15625 18.921875 L 18.238281 18.921875 L 18.238281 18.460938 L 19.15625 18.460938 Z M 15.933594 18 L 15.472656 18 L 15.472656 19.382812 L 21.921875 19.382812 L 21.921875 18 L 15.933594 18 " fill-opacity="1" fill-rule="nonzero"/></g><g clip-path="url(#1c6bb45e8b)"><path fill="#1800ad" d="M 12.699219 9.019531 L 11.78125 9.019531 L 11.78125 8.558594 L 12.699219 8.558594 Z M 15.085938 10.605469 L 14.703125 9.152344 C 14.539062 8.640625 14.324219 8.238281 14.226562 8.1875 L 13.070312 7.636719 L 12.835938 7.636719 C 12.652344 7.765625 12.433594 7.84375 12.203125 7.84375 C 11.96875 7.84375 11.753906 7.765625 11.570312 7.636719 L 11.367188 7.636719 L 10.160156 8.179688 C 10.046875 8.238281 9.832031 8.640625 9.664062 9.164062 L 9.277344 10.617188 L 8.660156 11.808594 L 8.898438 11.945312 L 9.183594 12.113281 C 9.441406 11.648438 9.664062 11.191406 9.730469 11.050781 L 9.746094 11.019531 C 10.015625 10.425781 10.230469 9.984375 10.363281 9.742188 L 10.449219 9.585938 L 10.636719 9.621094 C 10.816406 9.671875 10.8125 9.855469 10.8125 9.917969 C 10.8125 10.148438 10.8125 11.785156 10.808594 12.703125 L 13.507812 12.703125 C 13.503906 11.789062 13.503906 10.152344 13.507812 9.941406 C 13.507812 9.765625 13.671875 9.660156 13.78125 9.636719 C 13.929688 9.601562 14.042969 9.675781 14.089844 9.765625 C 14.269531 10.117188 14.53125 10.773438 14.613281 10.992188 L 14.644531 11.058594 C 14.691406 11.160156 14.785156 11.292969 14.890625 11.453125 C 14.980469 11.582031 15.085938 11.738281 15.195312 11.917969 L 15.742188 11.597656 L 15.085938 10.605469 " fill-opacity="1" fill-rule="nonzero"/></g><g clip-path="url(#e875368ba4)"><path fill="#1800ad" d="M 19.15625 17.078125 L 18.238281 17.078125 L 18.238281 16.617188 L 19.15625 16.617188 Z M 21.691406 16.160156 L 15.933594 16.160156 L 15.933594 17.539062 L 21.691406 17.539062 L 21.691406 16.160156 " fill-opacity="1" fill-rule="nonzero"/></g><g clip-path="url(#942aa09176)"><path fill="#1800ad" d="M 20.539062 9.175781 L 20.539062 9.941406 L 20.078125 9.941406 L 20.078125 8.859375 L 20.230469 8.804688 C 20.582031 8.671875 21 8.417969 21 7.929688 C 21 7.574219 20.800781 7.164062 20.539062 6.90625 L 20.539062 7.867188 L 19.15625 7.867188 L 19.15625 6.90625 C 18.898438 7.164062 18.699219 7.574219 18.699219 7.929688 C 18.699219 8.417969 19.117188 8.671875 19.46875 8.804688 L 19.617188 8.859375 L 19.617188 9.941406 L 19.15625 9.941406 L 19.15625 9.175781 C 18.5625 8.910156 18.238281 8.472656 18.238281 7.929688 C 18.238281 7.316406 18.667969 6.507812 19.308594 6.269531 L 19.617188 6.15625 L 19.617188 7.40625 L 20.078125 7.40625 L 20.078125 6.15625 L 20.390625 6.269531 C 21.03125 6.507812 21.460938 7.316406 21.460938 7.929688 C 21.460938 8.472656 21.136719 8.910156 20.539062 9.175781 Z M 21.460938 5.796875 L 18.238281 5.796875 C 17.984375 5.796875 17.777344 6.011719 17.777344 6.28125 L 17.777344 9.894531 C 17.777344 10.160156 17.984375 10.378906 18.238281 10.378906 L 19.277344 10.378906 L 19.847656 11.164062 L 20.421875 10.378906 L 21.460938 10.378906 C 21.714844 10.378906 21.921875 10.160156 21.921875 9.894531 L 21.921875 6.28125 C 21.921875 6.011719 21.714844 5.796875 21.460938 5.796875 " fill-opacity="1" fill-rule="nonzero"/></g><path fill="#1800ad" d="M 15.828125 12.898438 C 15.839844 12.910156 15.855469 12.921875 15.867188 12.933594 C 15.917969 12.976562 15.980469 12.996094 16.039062 12.988281 C 16.082031 12.980469 16.125 12.960938 16.167969 12.933594 C 16.222656 12.898438 16.277344 12.84375 16.304688 12.78125 C 16.316406 12.761719 16.324219 12.734375 16.328125 12.703125 C 16.335938 12.667969 16.332031 12.628906 16.308594 12.59375 L 16.304688 12.585938 L 15.980469 11.992188 L 15.433594 12.3125 C 15.523438 12.464844 15.605469 12.59375 15.683594 12.703125 C 15.734375 12.777344 15.785156 12.84375 15.828125 12.898438 " fill-opacity="1" fill-rule="nonzero"/><g clip-path="url(#a9fb29d0d7)"><path fill="#1800ad" d="M 16.007812 13.449219 C 15.984375 13.449219 15.957031 13.449219 15.933594 13.445312 L 15.933594 13.855469 L 21.691406 13.855469 L 21.691406 13.164062 L 16.597656 13.164062 C 16.472656 13.3125 16.296875 13.414062 16.105469 13.441406 C 16.074219 13.445312 16.039062 13.449219 16.007812 13.449219 " fill-opacity="1" fill-rule="nonzero"/></g></svg>