<svg xmlns="http://www.w3.org/2000/svg" xmlns:xlink="http://www.w3.org/1999/xlink" width="40" zoomAndPan="magnify" viewBox="0 0 30 37.92" height="40" preserveAspectRatio="xMidYMid meet" version="1.0"><defs><clipPath id="eed98aa3db"><path d="M 3.113281 0.683594 L 26.886719 0.683594 L 26.886719 29.300781 L 3.113281 29.300781 Z M 3.113281 0.683594 " clip-rule="nonzero"/></clipPath><clipPath id="43f2f57fca"><path d="M 19.457031 1.550781 C 18.035156 0.976562 16.539062 0.683594 15 0.683594 C 13.460938 0.683594 11.964844 0.976562 10.542969 1.550781 C 9.078125 2.144531 7.757812 3.019531 6.632812 4.148438 C 4.429688 6.355469 3.199219 9.285156 3.167969 12.402344 C 3.136719 15.511719 4.304688 18.464844 6.460938 20.707031 L 6.453125 20.710938 L 15 29.257812 L 23.5 20.757812 L 23.492188 20.753906 C 25.667969 18.511719 26.855469 15.558594 26.832031 12.433594 C 26.8125 9.300781 25.582031 6.363281 23.367188 4.148438 C 22.234375 3.019531 20.921875 2.144531 19.457031 1.550781 Z M 19.457031 1.550781 " clip-rule="nonzero"/></clipPath><clipPath id="1cf400695e"><path d="M 0.144531 0.683594 L 23.855469 0.683594 L 23.855469 29.300781 L 0.144531 29.300781 Z M 0.144531 0.683594 " clip-rule="nonzero"/></clipPath><clipPath id="7139af258b"><path d="M 16.457031 1.550781 C 15.035156 0.976562 13.539062 0.683594 12 0.683594 C 10.460938 0.683594 8.964844 0.976562 7.542969 1.550781 C 6.078125 2.144531 4.757812 3.019531 3.632812 4.148438 C 1.429688 6.355469 0.199219 9.285156 0.167969 12.402344 C 0.136719 15.511719 1.304688 18.464844 3.460938 20.707031 L 3.453125 20.710938 L 12 29.257812 L 20.5 20.757812 L 20.492188 20.753906 C 22.667969 18.511719 23.855469 15.558594 23.832031 12.433594 C 23.8125 9.300781 22.582031 6.363281 20.367188 4.148438 C 19.234375 3.019531 17.921875 2.144531 16.457031 1.550781 Z M 16.457031 1.550781 " clip-rule="nonzero"/></clipPath><clipPath id="187804bbbb"><rect x="0" width="24" y="0" height="30"/></clipPath><clipPath id="c7215b0b68"><path d="M 4.261719 1.777344 L 25.738281 1.777344 L 25.738281 23.203125 L 4.261719 23.203125 Z M 4.261719 1.777344 " clip-rule="nonzero"/></clipPath><clipPath id="070d4db39d"><path d="M 14.996094 1.789062 C 9.089844 1.789062 4.300781 6.578125 4.300781 12.484375 C 4.300781 18.390625 9.089844 23.179688 14.996094 23.179688 C 20.902344 23.179688 25.691406 18.390625 25.691406 12.484375 C 25.691406 6.578125 20.902344 1.789062 14.996094 1.789062 Z M 14.996094 1.789062 " clip-rule="nonzero"/></clipPath><clipPath id="c088591109"><path d="M 0.261719 0.777344 L 21.738281 0.777344 L 21.738281 22.203125 L 0.261719 22.203125 Z M 0.261719 0.777344 " clip-rule="nonzero"/></clipPath><clipPath id="fb9a4e048c"><path d="M 10.996094 0.789062 C 5.089844 0.789062 0.300781 5.578125 0.300781 11.484375 C 0.300781 17.390625 5.089844 22.179688 10.996094 22.179688 C 16.902344 22.179688 21.691406 17.390625 21.691406 11.484375 C 21.691406 5.578125 16.902344 0.789062 10.996094 0.789062 Z M 10.996094 0.789062 " clip-rule="nonzero"/></clipPath><clipPath id="b07d6151bd"><rect x="0" width="22" y="0" height="23"/></clipPath><clipPath id="577e05b1a2"><path d="M 8.605469 10 L 13 10 L 13 15 L 8.605469 15 Z M 8.605469 10 " clip-rule="nonzero"/></clipPath><clipPath id="1795b777ff"><path d="M 19 17 L 21.332031 17 L 21.332031 20 L 19 20 Z M 19 17 " clip-rule="nonzero"/></clipPath><clipPath id="053a71fd85"><path d="M 13 3.515625 L 17 3.515625 L 17 7 L 13 7 Z M 13 3.515625 " clip-rule="nonzero"/></clipPath></defs><g clip-path="url(#eed98aa3db)"><g clip-path="url(#43f2f57fca)"><g transform="matrix(1, 0, 0, 1, 3, 0.000000000000005773)"><g clip-path="url(#187804bbbb)"><g clip-path="url(#1cf400695e)"><g clip-path="url(#7139af258b)"><path fill="#faab11" d="M 0.167969 0.683594 L 23.832031 0.683594 L 23.832031 29.25 L 0.167969 29.25 Z M 0.167969 0.683594 " fill-opacity="1" fill-rule="nonzero"/></g></g></g></g></g></g><g clip-path="url(#c7215b0b68)"><g clip-path="url(#070d4db39d)"><g transform="matrix(1, 0, 0, 1, 4, 1)"><g clip-path="url(#b07d6151bd)"><g clip-path="url(#c088591109)"><g clip-path="url(#fb9a4e048c)"><rect x="-10.6" width="43.2" fill="#ffffff" height="54.6048" y="-9.3424" fill-opacity="1"/></g></g></g></g></g></g><path fill="#1800ad" d="M 10.238281 13.683594 C 10.5 13.898438 10.875 13.808594 11.011719 13.582031 L 10.140625 12.984375 C 9.992188 13.207031 10.03125 13.507812 10.238281 13.683594 Z M 10.238281 13.683594 " fill-opacity="1" fill-rule="nonzero"/><g clip-path="url(#577e05b1a2)"><path fill="#1800ad" d="M 9.390625 10.480469 L 8.613281 11.621094 L 12.46875 14.257812 L 12.335938 12.492188 Z M 9.390625 10.480469 " fill-opacity="1" fill-rule="nonzero"/></g><path fill="#1800ad" d="M 17.039062 15.859375 C 17.027344 15.984375 16.964844 16.097656 16.867188 16.167969 C 16.890625 16.566406 16.933594 16.960938 16.996094 17.351562 L 17.472656 17.675781 L 17.417969 15.96875 L 17.046875 15.714844 Z M 17.039062 15.859375 " fill-opacity="1" fill-rule="nonzero"/><g clip-path="url(#1795b777ff)"><path fill="#1800ad" d="M 19.558594 17.433594 L 19.566406 17.4375 L 19.3125 17.746094 L 19.523438 18.027344 L 19.285156 18.316406 L 19.492188 18.578125 L 19.261719 18.839844 L 19.367188 18.972656 L 20.628906 19.835938 L 21.410156 18.695312 Z M 19.558594 17.433594 " fill-opacity="1" fill-rule="nonzero"/></g><g clip-path="url(#053a71fd85)"><path fill="#1800ad" d="M 13.511719 6.097656 C 14.914062 5.71875 16.109375 6.070312 16.109375 6.070312 C 16.136719 6.046875 16.414062 5.792969 16.386719 5.816406 C 16.4375 4.722656 15.683594 4.332031 15.683594 4.332031 C 15.296875 4.75 15.238281 5.667969 15.21875 5.722656 C 15.15625 4.605469 15.578125 4.164062 15.589844 4.136719 C 14.679688 3.648438 14.050781 4.136719 14.050781 4.136719 C 14.488281 4.71875 14.398438 5.691406 14.40625 5.722656 C 14.261719 4.800781 14.070312 4.613281 13.929688 4.375 C 13.105469 4.84375 13.253906 5.816406 13.253906 5.816406 C 13.28125 5.84375 13.535156 6.125 13.511719 6.097656 Z M 13.511719 6.097656 " fill-opacity="1" fill-rule="nonzero"/></g><path fill="#1800ad" d="M 13.492188 6.507812 C 13.746094 6.980469 14.242188 7.296875 14.816406 7.296875 C 15.386719 7.296875 15.878906 6.980469 16.140625 6.515625 C 16.222656 6.496094 16.269531 6.480469 16.269531 6.480469 L 16.578125 6.152344 L 16.578125 6.027344 L 16.417969 6.039062 C 16.390625 6.066406 16.121094 6.34375 16.148438 6.316406 C 14.730469 5.917969 13.488281 6.316406 13.488281 6.316406 C 13.460938 6.289062 13.359375 6.195312 13.203125 6.039062 L 13.054688 6.027344 L 13.054688 6.183594 L 13.375 6.480469 C 13.414062 6.492188 13.453125 6.5 13.492188 6.507812 Z M 13.492188 6.507812 " fill-opacity="1" fill-rule="nonzero"/><path fill="#1800ad" d="M 19.011719 17.113281 L 19.28125 16.773438 L 19.050781 16.433594 L 19.335938 16.058594 L 18.949219 15.457031 L 18.910156 15.460938 L 18.875 14.304688 L 18.867188 14.304688 C 18.847656 14.492188 18.765625 14.652344 18.644531 14.773438 L 18.664062 15.34375 L 17.914062 15.371094 L 17.90625 14.988281 C 17.816406 14.96875 17.730469 14.933594 17.65625 14.886719 C 17.890625 22.824219 17.808594 20.085938 17.824219 20.679688 L 18.871094 20.644531 L 18.808594 20.585938 L 19.007812 20.386719 L 18.832031 20.195312 L 19.039062 19.980469 L 18.855469 19.773438 L 19.074219 19.546875 L 18.882812 19.324219 L 19.109375 19.078125 L 18.914062 18.832031 L 19.148438 18.570312 L 18.945312 18.3125 L 19.1875 18.019531 L 18.976562 17.738281 L 19.234375 17.425781 Z M 19.011719 17.113281 " fill-opacity="1" fill-rule="nonzero"/><path fill="#1800ad" d="M 18.035156 14.742188 C 18.328125 14.765625 18.582031 14.550781 18.609375 14.261719 C 18.742188 12.671875 18.089844 8.769531 16.714844 8.042969 C 14.457031 6.851562 12.402344 7.941406 12.171875 8.640625 C 11.921875 9.398438 11.492188 10.519531 11.105469 11.332031 L 11.992188 11.941406 C 12.132812 11.644531 12.28125 11.324219 12.476562 10.851562 L 12.859375 15.839844 C 12.863281 15.921875 12.925781 15.980469 13.003906 15.992188 C 12.753906 17.390625 12.660156 18.976562 12.722656 20.820312 C 12.738281 21.25 13.089844 21.589844 13.515625 21.589844 C 13.976562 21.589844 14.320312 21.171875 14.308594 20.730469 C 14.246094 18.886719 14.351562 17.335938 14.621094 15.996094 L 15.007812 15.996094 C 15.007812 16.007812 15.007812 16.015625 15.007812 16.027344 C 15.070312 17.722656 15.480469 19.320312 15.878906 20.976562 C 15.980469 21.410156 16.421875 21.679688 16.863281 21.558594 C 17.28125 21.445312 17.515625 20.992188 17.414062 20.570312 C 17.050781 19.050781 16.65625 17.554688 16.59375 15.996094 L 16.605469 15.996094 C 16.691406 15.996094 16.765625 15.929688 16.773438 15.839844 L 17.152344 10.921875 C 17.421875 11.875 17.648438 13.0625 17.554688 14.171875 C 17.527344 14.460938 17.746094 14.71875 18.035156 14.742188 Z M 18.035156 14.742188 " fill-opacity="1" fill-rule="nonzero"/></svg>