<svg xmlns="http://www.w3.org/2000/svg" xmlns:xlink="http://www.w3.org/1999/xlink" width="40" zoomAndPan="magnify" viewBox="0 0 30 37.92" height="40" preserveAspectRatio="xMidYMid meet" version="1.0"><defs><clipPath id="dd061eab76"><path d="M 3.113281 0.683594 L 26.886719 0.683594 L 26.886719 29.300781 L 3.113281 29.300781 Z M 3.113281 0.683594 " clip-rule="nonzero"/></clipPath><clipPath id="eb21355392"><path d="M 19.457031 1.550781 C 18.035156 0.976562 16.539062 0.683594 15 0.683594 C 13.460938 0.683594 11.964844 0.976562 10.542969 1.550781 C 9.078125 2.144531 7.757812 3.019531 6.632812 4.148438 C 4.429688 6.355469 3.199219 9.285156 3.167969 12.402344 C 3.136719 15.511719 4.304688 18.464844 6.460938 20.707031 L 6.453125 20.710938 L 15 29.257812 L 23.5 20.757812 L 23.492188 20.753906 C 25.667969 18.511719 26.855469 15.558594 26.832031 12.433594 C 26.8125 9.300781 25.582031 6.363281 23.367188 4.148438 C 22.234375 3.019531 20.921875 2.144531 19.457031 1.550781 Z M 19.457031 1.550781 " clip-rule="nonzero"/></clipPath><clipPath id="e4b3b27cd6"><path d="M 0.144531 0.683594 L 23.855469 0.683594 L 23.855469 29.300781 L 0.144531 29.300781 Z M 0.144531 0.683594 " clip-rule="nonzero"/></clipPath><clipPath id="66aec132f8"><path d="M 16.457031 1.550781 C 15.035156 0.976562 13.539062 0.683594 12 0.683594 C 10.460938 0.683594 8.964844 0.976562 7.542969 1.550781 C 6.078125 2.144531 4.757812 3.019531 3.632812 4.148438 C 1.429688 6.355469 0.199219 9.285156 0.167969 12.402344 C 0.136719 15.511719 1.304688 18.464844 3.460938 20.707031 L 3.453125 20.710938 L 12 29.257812 L 20.5 20.757812 L 20.492188 20.753906 C 22.667969 18.511719 23.855469 15.558594 23.832031 12.433594 C 23.8125 9.300781 22.582031 6.363281 20.367188 4.148438 C 19.234375 3.019531 17.921875 2.144531 16.457031 1.550781 Z M 16.457031 1.550781 " clip-rule="nonzero"/></clipPath><clipPath id="9f84d0d362"><rect x="0" width="24" y="0" height="30"/></clipPath><clipPath id="4365685db2"><path d="M 4.261719 1.777344 L 25.738281 1.777344 L 25.738281 23.203125 L 4.261719 23.203125 Z M 4.261719 1.777344 " clip-rule="nonzero"/></clipPath><clipPath id="e15d9cee09"><path d="M 14.996094 1.789062 C 9.089844 1.789062 4.300781 6.578125 4.300781 12.484375 C 4.300781 18.390625 9.089844 23.179688 14.996094 23.179688 C 20.902344 23.179688 25.691406 18.390625 25.691406 12.484375 C 25.691406 6.578125 20.902344 1.789062 14.996094 1.789062 Z M 14.996094 1.789062 " clip-rule="nonzero"/></clipPath><clipPath id="b0a75f6c0f"><path d="M 0.261719 0.777344 L 21.738281 0.777344 L 21.738281 22.203125 L 0.261719 22.203125 Z M 0.261719 0.777344 " clip-rule="nonzero"/></clipPath><clipPath id="4a614cb495"><path d="M 10.996094 0.789062 C 5.089844 0.789062 0.300781 5.578125 0.300781 11.484375 C 0.300781 17.390625 5.089844 22.179688 10.996094 22.179688 C 16.902344 22.179688 21.691406 17.390625 21.691406 11.484375 C 21.691406 5.578125 16.902344 0.789062 10.996094 0.789062 Z M 10.996094 0.789062 " clip-rule="nonzero"/></clipPath><clipPath id="596a10e8a9"><rect x="0" width="22" y="0" height="23"/></clipPath><clipPath id="b3c891e509"><path d="M 7.488281 5.414062 L 22.457031 5.414062 L 22.457031 18.136719 L 7.488281 18.136719 Z M 7.488281 5.414062 " clip-rule="nonzero"/></clipPath></defs><g clip-path="url(#dd061eab76)"><g clip-path="url(#eb21355392)"><g transform="matrix(1, 0, 0, 1, 3, 0.000000000000005773)"><g clip-path="url(#9f84d0d362)"><g clip-path="url(#e4b3b27cd6)"><g clip-path="url(#66aec132f8)"><path fill="#faab11" d="M 0.167969 0.683594 L 23.832031 0.683594 L 23.832031 29.25 L 0.167969 29.25 Z M 0.167969 0.683594 " fill-opacity="1" fill-rule="nonzero"/></g></g></g></g></g></g><g clip-path="url(#4365685db2)"><g clip-path="url(#e15d9cee09)"><g transform="matrix(1, 0, 0, 1, 4, 1)"><g clip-path="url(#596a10e8a9)"><g clip-path="url(#b0a75f6c0f)"><g clip-path="url(#4a614cb495)"><rect x="-10.6" width="43.2" fill="#ffffff" height="54.6048" y="-9.3424" fill-opacity="1"/></g></g></g></g></g></g><g clip-path="url(#b3c891e509)"><path fill="#1800ad" d="M 22.34375 9.699219 L 21.644531 9.429688 C 21.542969 9.054688 21.394531 8.695312 21.199219 8.359375 L 21.503906 7.671875 C 21.546875 7.582031 21.527344 7.472656 21.453125 7.402344 L 20.511719 6.457031 C 20.4375 6.386719 20.332031 6.367188 20.242188 6.40625 L 19.554688 6.710938 C 19.214844 6.519531 18.859375 6.371094 18.484375 6.269531 L 18.214844 5.566406 C 18.179688 5.472656 18.089844 5.414062 17.988281 5.414062 L 16.652344 5.414062 C 16.550781 5.414062 16.460938 5.472656 16.425781 5.566406 L 16.15625 6.269531 C 15.78125 6.371094 15.421875 6.519531 15.085938 6.710938 L 14.398438 6.40625 C 14.308594 6.367188 14.199219 6.386719 14.128906 6.457031 L 13.183594 7.402344 C 13.113281 7.472656 13.09375 7.582031 13.132812 7.671875 L 13.199219 7.820312 C 12.941406 7.65625 12.605469 7.644531 12.496094 7.644531 C 12.492188 7.644531 12.492188 7.644531 12.492188 7.644531 C 12.355469 7.644531 11.886719 7.664062 11.625 7.953125 C 11.550781 8.035156 11.5 8.132812 11.480469 8.234375 C 10.417969 8.648438 9.710938 9.667969 9.707031 10.816406 C 9.464844 10.894531 9.292969 11.117188 9.292969 11.382812 C 9.292969 11.707031 9.558594 11.972656 9.882812 11.972656 C 10.042969 12.765625 10.546875 13.421875 11.222656 13.789062 C 10.449219 13.992188 9.726562 14.378906 9.125 14.925781 C 8.207031 15.753906 7.628906 16.886719 7.496094 18.113281 C 7.488281 18.179688 7.511719 18.25 7.558594 18.300781 C 7.601562 18.351562 7.667969 18.382812 7.738281 18.382812 L 17.25 18.382812 C 17.320312 18.382812 17.382812 18.351562 17.429688 18.300781 C 17.476562 18.25 17.496094 18.179688 17.492188 18.113281 C 17.398438 17.261719 17.09375 16.457031 16.609375 15.769531 C 16.621094 15.769531 16.636719 15.773438 16.652344 15.773438 L 17.988281 15.773438 C 18.089844 15.773438 18.179688 15.710938 18.214844 15.617188 L 18.484375 14.917969 C 18.859375 14.816406 19.21875 14.667969 19.554688 14.472656 L 20.242188 14.777344 C 20.332031 14.820312 20.4375 14.800781 20.511719 14.726562 L 21.453125 13.78125 C 21.527344 13.710938 21.546875 13.605469 21.503906 13.511719 L 21.199219 12.828125 C 21.394531 12.488281 21.542969 12.132812 21.644531 11.757812 L 22.34375 11.488281 C 22.4375 11.449219 22.5 11.359375 22.5 11.261719 L 22.5 9.925781 C 22.5 9.824219 22.4375 9.734375 22.34375 9.699219 Z M 11.984375 8.277344 C 12.066406 8.1875 12.273438 8.125 12.492188 8.125 C 12.714844 8.125 12.921875 8.1875 13.003906 8.277344 C 13.03125 8.308594 13.042969 8.339844 13.035156 8.386719 C 13.035156 8.390625 13.035156 8.394531 13.035156 8.394531 L 12.910156 9.367188 C 12.898438 9.457031 12.820312 9.527344 12.726562 9.527344 L 12.257812 9.527344 C 12.164062 9.527344 12.089844 9.457031 12.078125 9.367188 L 11.953125 8.394531 L 11.949219 8.394531 C 11.949219 8.394531 11.949219 8.390625 11.949219 8.386719 C 11.945312 8.339844 11.957031 8.308594 11.984375 8.277344 Z M 11.507812 8.75 L 11.597656 9.429688 C 11.640625 9.761719 11.925781 10.011719 12.257812 10.011719 L 12.726562 10.011719 C 13.0625 10.011719 13.347656 9.761719 13.390625 9.429688 L 13.476562 8.75 C 14.265625 9.121094 14.78125 9.90625 14.796875 10.789062 L 10.191406 10.789062 C 10.207031 9.90625 10.722656 9.121094 11.507812 8.75 Z M 15.28125 10.816406 C 15.277344 10.402344 15.183594 10.003906 15.015625 9.644531 C 15.398438 8.71875 16.3125 8.101562 17.320312 8.101562 C 18.691406 8.101562 19.808594 9.21875 19.808594 10.59375 C 19.808594 11.964844 18.691406 13.082031 17.320312 13.082031 C 16.476562 13.082031 15.691406 12.652344 15.238281 11.957031 C 15.5 11.894531 15.695312 11.660156 15.695312 11.382812 C 15.695312 11.117188 15.519531 10.894531 15.28125 10.816406 Z M 9.777344 11.382812 C 9.777344 11.324219 9.828125 11.273438 9.882812 11.273438 L 15.101562 11.273438 C 15.160156 11.273438 15.210938 11.324219 15.210938 11.382812 C 15.210938 11.441406 15.160156 11.488281 15.101562 11.488281 L 9.882812 11.488281 C 9.828125 11.488281 9.777344 11.441406 9.777344 11.382812 Z M 10.378906 11.972656 L 14.605469 11.972656 C 14.371094 12.933594 13.507812 13.628906 12.492188 13.628906 C 11.480469 13.628906 10.617188 12.933594 10.378906 11.972656 Z M 12.492188 14.113281 C 13.0625 14.113281 13.605469 14.214844 14.109375 14.40625 L 12.492188 16.023438 L 10.878906 14.40625 C 11.378906 14.214844 11.925781 14.113281 12.492188 14.113281 Z M 9.332031 15.386719 C 9.480469 15.242188 9.640625 15.109375 9.808594 14.984375 C 9.808594 15.441406 9.808594 15.898438 9.8125 16.355469 C 9.8125 16.867188 9.8125 17.382812 9.8125 17.898438 L 9.332031 17.898438 Z M 10.292969 16.351562 C 10.292969 15.792969 10.292969 15.234375 10.292969 14.675781 C 10.332031 14.65625 10.367188 14.636719 10.402344 14.617188 L 12.25 16.464844 L 12.25 17.898438 L 10.296875 17.898438 C 10.296875 17.382812 10.296875 16.867188 10.292969 16.351562 Z M 8.847656 15.9375 L 8.847656 17.898438 L 8.015625 17.898438 C 8.136719 17.167969 8.429688 16.5 8.847656 15.9375 Z M 12.734375 17.898438 L 12.734375 16.464844 L 14.582031 14.617188 C 15.820312 15.257812 16.730469 16.453125 16.972656 17.898438 Z M 15.863281 14.925781 C 15.796875 14.863281 15.730469 14.804688 15.660156 14.75 C 15.820312 14.816406 15.988281 14.871094 16.15625 14.917969 L 16.355469 15.4375 C 16.207031 15.257812 16.039062 15.085938 15.863281 14.925781 Z M 22.015625 11.09375 L 21.351562 11.351562 C 21.277344 11.378906 21.222656 11.441406 21.203125 11.519531 C 21.105469 11.929688 20.945312 12.324219 20.722656 12.683594 C 20.679688 12.75 20.675781 12.835938 20.707031 12.910156 L 20.996094 13.558594 L 20.285156 14.269531 L 19.636719 13.980469 C 19.5625 13.949219 19.476562 13.953125 19.410156 13.996094 C 19.050781 14.21875 18.660156 14.378906 18.246094 14.476562 C 18.167969 14.496094 18.105469 14.550781 18.078125 14.625 L 17.820312 15.289062 L 16.816406 15.289062 L 16.5625 14.625 C 16.535156 14.550781 16.46875 14.496094 16.394531 14.476562 C 15.980469 14.378906 15.589844 14.21875 15.230469 13.996094 C 15.160156 13.953125 15.078125 13.949219 15.003906 13.980469 L 14.675781 14.125 C 14.382812 13.984375 14.078125 13.871094 13.761719 13.789062 C 14.308594 13.492188 14.742188 13.007812 14.972656 12.417969 C 15.53125 13.132812 16.394531 13.566406 17.320312 13.566406 C 18.960938 13.566406 20.292969 12.234375 20.292969 10.59375 C 20.292969 8.953125 18.960938 7.617188 17.320312 7.617188 C 16.230469 7.617188 15.238281 8.21875 14.71875 9.152344 C 14.507812 8.871094 14.246094 8.632812 13.941406 8.449219 C 13.960938 8.394531 13.957031 8.332031 13.933594 8.277344 L 13.644531 7.628906 L 14.355469 6.917969 L 15.003906 7.207031 C 15.078125 7.238281 15.160156 7.234375 15.230469 7.191406 C 15.589844 6.96875 15.980469 6.804688 16.394531 6.707031 C 16.46875 6.691406 16.535156 6.632812 16.5625 6.558594 L 16.816406 5.898438 L 17.820312 5.898438 L 18.078125 6.558594 C 18.105469 6.632812 18.167969 6.691406 18.246094 6.707031 C 18.65625 6.804688 19.050781 6.96875 19.410156 7.191406 C 19.476562 7.234375 19.5625 7.238281 19.636719 7.207031 L 20.285156 6.917969 L 20.996094 7.628906 L 20.707031 8.277344 C 20.675781 8.351562 20.679688 8.433594 20.722656 8.503906 C 20.945312 8.863281 21.105469 9.253906 21.203125 9.664062 C 21.222656 9.742188 21.277344 9.808594 21.351562 9.835938 L 22.015625 10.089844 Z M 16.875 11.132812 L 16.714844 12.5 C 16.703125 12.605469 16.761719 12.707031 16.863281 12.75 C 16.890625 12.761719 16.925781 12.769531 16.957031 12.769531 C 17.027344 12.769531 17.097656 12.738281 17.144531 12.679688 L 18.984375 10.402344 C 19.042969 10.328125 19.054688 10.230469 19.015625 10.144531 C 18.976562 10.058594 18.890625 10.007812 18.796875 10.007812 L 17.75 10.007812 L 17.828125 8.671875 C 17.832031 8.566406 17.769531 8.46875 17.671875 8.429688 C 17.570312 8.394531 17.460938 8.425781 17.394531 8.507812 L 15.652344 10.742188 C 15.59375 10.816406 15.582031 10.914062 15.625 10.996094 C 15.664062 11.078125 15.75 11.132812 15.839844 11.132812 Z M 17.296875 9.417969 L 17.25 10.234375 C 17.246094 10.300781 17.269531 10.367188 17.316406 10.414062 C 17.363281 10.464844 17.425781 10.492188 17.492188 10.492188 L 18.292969 10.492188 L 17.292969 11.726562 L 17.386719 10.917969 C 17.394531 10.851562 17.375 10.78125 17.328125 10.730469 C 17.28125 10.679688 17.214844 10.648438 17.148438 10.648438 L 16.335938 10.648438 Z M 17.296875 9.417969 " fill-opacity="1" fill-rule="nonzero"/></g></svg>