<svg xmlns="http://www.w3.org/2000/svg" xmlns:xlink="http://www.w3.org/1999/xlink" width="40" zoomAndPan="magnify" viewBox="0 0 30 37.92" height="40" preserveAspectRatio="xMidYMid meet" version="1.0"><defs><clipPath id="b50b1ae5f5"><path d="M 3.113281 0.683594 L 26.886719 0.683594 L 26.886719 29.300781 L 3.113281 29.300781 Z M 3.113281 0.683594 " clip-rule="nonzero"/></clipPath><clipPath id="19707e4cfa"><path d="M 19.457031 1.550781 C 18.035156 0.976562 16.539062 0.683594 15 0.683594 C 13.460938 0.683594 11.964844 0.976562 10.542969 1.550781 C 9.078125 2.144531 7.757812 3.019531 6.632812 4.148438 C 4.429688 6.355469 3.199219 9.285156 3.167969 12.402344 C 3.136719 15.511719 4.304688 18.464844 6.460938 20.707031 L 6.453125 20.710938 L 15 29.257812 L 23.5 20.757812 L 23.492188 20.753906 C 25.667969 18.511719 26.855469 15.558594 26.832031 12.433594 C 26.8125 9.300781 25.582031 6.363281 23.367188 4.148438 C 22.234375 3.019531 20.921875 2.144531 19.457031 1.550781 Z M 19.457031 1.550781 " clip-rule="nonzero"/></clipPath><clipPath id="10ac5f5b72"><path d="M 0.144531 0.683594 L 23.855469 0.683594 L 23.855469 29.300781 L 0.144531 29.300781 Z M 0.144531 0.683594 " clip-rule="nonzero"/></clipPath><clipPath id="5281c943da"><path d="M 16.457031 1.550781 C 15.035156 0.976562 13.539062 0.683594 12 0.683594 C 10.460938 0.683594 8.964844 0.976562 7.542969 1.550781 C 6.078125 2.144531 4.757812 3.019531 3.632812 4.148438 C 1.429688 6.355469 0.199219 9.285156 0.167969 12.402344 C 0.136719 15.511719 1.304688 18.464844 3.460938 20.707031 L 3.453125 20.710938 L 12 29.257812 L 20.5 20.757812 L 20.492188 20.753906 C 22.667969 18.511719 23.855469 15.558594 23.832031 12.433594 C 23.8125 9.300781 22.582031 6.363281 20.367188 4.148438 C 19.234375 3.019531 17.921875 2.144531 16.457031 1.550781 Z M 16.457031 1.550781 " clip-rule="nonzero"/></clipPath><clipPath id="50d5d353e8"><rect x="0" width="24" y="0" height="30"/></clipPath><clipPath id="e435f8672c"><path d="M 4.261719 1.777344 L 25.738281 1.777344 L 25.738281 23.203125 L 4.261719 23.203125 Z M 4.261719 1.777344 " clip-rule="nonzero"/></clipPath><clipPath id="e5c68fe0e3"><path d="M 14.996094 1.789062 C 9.089844 1.789062 4.300781 6.578125 4.300781 12.484375 C 4.300781 18.390625 9.089844 23.179688 14.996094 23.179688 C 20.902344 23.179688 25.691406 18.390625 25.691406 12.484375 C 25.691406 6.578125 20.902344 1.789062 14.996094 1.789062 Z M 14.996094 1.789062 " clip-rule="nonzero"/></clipPath><clipPath id="69cc5c8405"><path d="M 0.261719 0.777344 L 21.738281 0.777344 L 21.738281 22.203125 L 0.261719 22.203125 Z M 0.261719 0.777344 " clip-rule="nonzero"/></clipPath><clipPath id="abf862c8ab"><path d="M 10.996094 0.789062 C 5.089844 0.789062 0.300781 5.578125 0.300781 11.484375 C 0.300781 17.390625 5.089844 22.179688 10.996094 22.179688 C 16.902344 22.179688 21.691406 17.390625 21.691406 11.484375 C 21.691406 5.578125 16.902344 0.789062 10.996094 0.789062 Z M 10.996094 0.789062 " clip-rule="nonzero"/></clipPath><clipPath id="a5fc6c7337"><rect x="0" width="22" y="0" height="23"/></clipPath><clipPath id="ce5cb8e073"><path d="M 9 5.191406 L 12 5.191406 L 12 13 L 9 13 Z M 9 5.191406 " clip-rule="nonzero"/></clipPath><clipPath id="33a2f67741"><path d="M 12 5.191406 L 18 5.191406 L 18 11 L 12 11 Z M 12 5.191406 " clip-rule="nonzero"/></clipPath><clipPath id="259a38848c"><path d="M 15.847656 16.695312 L 21.945312 16.695312 L 21.945312 19.414062 L 15.847656 19.414062 Z M 15.847656 16.695312 " clip-rule="nonzero"/></clipPath><clipPath id="4e59db35d5"><path d="M 14.410156 17.105469 L 15.640625 17.105469 L 15.640625 19.414062 L 14.410156 19.414062 Z M 14.410156 17.105469 " clip-rule="nonzero"/></clipPath><clipPath id="df98d4c3cd"><path d="M 16.257812 9.507812 L 21.945312 9.507812 L 21.945312 14.4375 L 16.257812 14.4375 Z M 16.257812 9.507812 " clip-rule="nonzero"/></clipPath><clipPath id="ad7c8fe35d"><path d="M 18.929688 12.382812 L 21.945312 12.382812 L 21.945312 15.875 L 18.929688 15.875 Z M 18.929688 12.382812 " clip-rule="nonzero"/></clipPath><clipPath id="e9abbc235c"><path d="M 8.042969 18.75 L 9.6875 18.75 L 9.6875 19.414062 L 8.042969 19.414062 Z M 8.042969 18.75 " clip-rule="nonzero"/></clipPath><clipPath id="08f3b1388b"><path d="M 13.589844 17.105469 L 14.203125 17.105469 L 14.203125 19.414062 L 13.589844 19.414062 Z M 13.589844 17.105469 " clip-rule="nonzero"/></clipPath><clipPath id="92e2864381"><path d="M 10.097656 18.75 L 11.945312 18.75 L 11.945312 19.414062 L 10.097656 19.414062 Z M 10.097656 18.75 " clip-rule="nonzero"/></clipPath><clipPath id="3a85d78fe2"><path d="M 12.152344 17.105469 L 13.175781 17.105469 L 13.175781 19.414062 L 12.152344 19.414062 Z M 12.152344 17.105469 " clip-rule="nonzero"/></clipPath></defs><g clip-path="url(#b50b1ae5f5)"><g clip-path="url(#19707e4cfa)"><g transform="matrix(1, 0, 0, 1, 3, 0.000000000000005773)"><g clip-path="url(#50d5d353e8)"><g clip-path="url(#10ac5f5b72)"><g clip-path="url(#5281c943da)"><path fill="#faab11" d="M 0.167969 0.683594 L 23.832031 0.683594 L 23.832031 29.25 L 0.167969 29.25 Z M 0.167969 0.683594 " fill-opacity="1" fill-rule="nonzero"/></g></g></g></g></g></g><g clip-path="url(#e435f8672c)"><g clip-path="url(#e5c68fe0e3)"><g transform="matrix(1, 0, 0, 1, 4, 1)"><g clip-path="url(#a5fc6c7337)"><g clip-path="url(#69cc5c8405)"><g clip-path="url(#abf862c8ab)"><rect x="-10.6" width="43.2" fill="#ffffff" height="54.6048" y="-9.3424" fill-opacity="1"/></g></g></g></g></g></g><path fill="#1800ad" d="M 16.105469 12.207031 L 16.089844 12.195312 L 16.066406 12.179688 L 16.015625 12.097656 C 15.917969 11.941406 15.757812 11.683594 15.398438 11.5 C 15.449219 11.566406 15.472656 11.613281 15.519531 11.738281 L 15.621094 12.011719 L 15.332031 12.050781 C 15.257812 12.058594 15.179688 12.066406 15.097656 12.070312 C 14.523438 12.121094 14.308594 12.183594 14.347656 12.625 C 14.359375 12.792969 14.605469 12.960938 14.925781 13.0625 C 15.105469 13.117188 15.304688 13.15625 15.5 13.15625 C 15.621094 13.15625 15.738281 13.140625 15.84375 13.109375 C 15.890625 13.097656 15.9375 13.082031 15.980469 13.0625 C 16.027344 13.042969 16.074219 13.019531 16.113281 12.992188 C 16.269531 12.890625 16.367188 12.753906 16.367188 12.605469 C 16.367188 12.523438 16.335938 12.441406 16.28125 12.367188 C 16.238281 12.308594 16.179688 12.253906 16.105469 12.207031 " fill-opacity="1" fill-rule="nonzero"/><g clip-path="url(#ce5cb8e073)"><path fill="#1800ad" d="M 9.996094 7.804688 L 10.082031 8.507812 L 10.289062 10.15625 L 10.484375 11.726562 C 10.5 11.828125 10.554688 11.917969 10.632812 11.980469 C 10.695312 12.027344 10.777344 12.058594 10.863281 12.058594 L 11.050781 12.058594 L 10.863281 10.558594 L 10.191406 5.191406 L 10.097656 5.191406 C 9.988281 5.191406 9.886719 5.238281 9.8125 5.320312 C 9.742188 5.402344 9.707031 5.507812 9.722656 5.617188 L 9.996094 7.804688 " fill-opacity="1" fill-rule="nonzero"/></g><path fill="#1800ad" d="M 17.300781 14.800781 C 17.300781 14.609375 17.132812 14.453125 16.925781 14.453125 L 8.53125 14.453125 C 8.109375 14.453125 8.050781 14.492188 8.042969 14.914062 L 17.300781 14.914062 L 17.300781 14.800781 " fill-opacity="1" fill-rule="nonzero"/><path fill="#1800ad" d="M 10.632812 12.488281 C 10.316406 12.398438 10.070312 12.125 10.027344 11.78125 L 9.878906 10.601562 L 9.164062 13.988281 L 10.632812 13.988281 L 10.632812 12.488281 " fill-opacity="1" fill-rule="nonzero"/><path fill="#1800ad" d="M 19.5 9.1875 C 19.648438 9.269531 19.8125 9.3125 19.984375 9.296875 C 20.136719 9.28125 20.273438 9.226562 20.398438 9.136719 C 20.460938 9.09375 20.519531 9.039062 20.570312 8.976562 C 20.777344 8.730469 20.878906 8.382812 20.847656 8.027344 C 20.835938 7.921875 20.816406 7.816406 20.78125 7.714844 C 20.625 7.238281 20.246094 6.921875 19.839844 6.921875 C 19.816406 6.921875 19.792969 6.921875 19.769531 6.921875 C 19.289062 6.964844 18.917969 7.441406 18.902344 8.027344 C 18.902344 8.082031 18.902344 8.136719 18.910156 8.195312 C 18.949219 8.636719 19.183594 9.007812 19.5 9.1875 " fill-opacity="1" fill-rule="nonzero"/><path fill="#1800ad" d="M 15.511719 13.617188 C 15.507812 13.617188 15.5 13.617188 15.492188 13.617188 C 15.28125 13.617188 15.0625 13.582031 14.855469 13.527344 L 13.132812 13.527344 L 13.136719 13.988281 L 16.839844 13.988281 L 16.839844 13.96875 L 15.695312 13.652344 L 15.710938 13.605469 C 15.644531 13.613281 15.578125 13.617188 15.511719 13.617188 " fill-opacity="1" fill-rule="nonzero"/><path fill="#1800ad" d="M 15.679688 7.738281 L 15.679688 6.601562 L 13.171875 6.792969 L 13.332031 7.738281 L 15.679688 7.738281 " fill-opacity="1" fill-rule="nonzero"/><g clip-path="url(#33a2f67741)"><path fill="#1800ad" d="M 15.765625 6.128906 L 16 5.65625 L 16.605469 5.65625 L 16.605469 6.117188 L 16.289062 6.117188 L 16.144531 6.40625 L 16.144531 9.128906 L 15.679688 9.128906 L 15.679688 9.359375 L 15.21875 9.359375 L 15.21875 9.128906 L 13.828125 9.128906 L 13.828125 9.359375 L 13.367188 9.359375 L 13.367188 9.128906 L 13.136719 9.128906 L 13.136719 8.664062 L 15.679688 8.664062 L 15.679688 8.203125 L 12.9375 8.203125 L 12.632812 6.371094 Z M 12.671875 10.054688 L 13.597656 10.054688 L 13.597656 10.570312 L 14.460938 10.054688 L 16.605469 10.054688 C 16.863281 10.054688 17.070312 9.847656 17.070312 9.589844 L 17.070312 5.65625 C 17.070312 5.398438 16.863281 5.191406 16.605469 5.191406 L 12.671875 5.191406 C 12.417969 5.191406 12.210938 5.398438 12.210938 5.65625 L 12.210938 9.589844 C 12.210938 9.847656 12.417969 10.054688 12.671875 10.054688 " fill-opacity="1" fill-rule="nonzero"/></g><path fill="#1800ad" d="M 8.273438 15.378906 L 8.273438 15.773438 L 17.070312 15.773438 L 17.070312 15.378906 L 8.273438 15.378906 " fill-opacity="1" fill-rule="nonzero"/><g clip-path="url(#259a38848c)"><path fill="#1800ad" d="M 19.152344 18.15625 L 19.617188 18.15625 L 19.617188 18.617188 C 19.152344 18.617188 19.617188 18.617188 19.152344 18.617188 Z M 19.152344 17.230469 L 21.46875 17.230469 L 21.46875 17.691406 L 19.152344 17.691406 Z M 21.46875 18.617188 C 21.003906 18.617188 21.46875 18.617188 21.003906 18.617188 L 21.003906 18.15625 L 21.46875 18.15625 Z M 20.542969 18.617188 C 20.078125 18.617188 20.542969 18.617188 20.078125 18.617188 L 20.078125 18.15625 L 20.542969 18.15625 Z M 15.914062 19.441406 L 21.929688 19.441406 L 21.929688 16.765625 L 15.914062 16.765625 L 15.914062 19.441406 " fill-opacity="1" fill-rule="nonzero"/></g><g clip-path="url(#4e59db35d5)"><path fill="#1800ad" d="M 14.523438 19.441406 L 15.449219 19.441406 L 15.449219 17.230469 L 14.523438 17.230469 L 14.523438 19.441406 " fill-opacity="1" fill-rule="nonzero"/></g><g clip-path="url(#df98d4c3cd)"><path fill="#1800ad" d="M 21.929688 11.5 L 21.929688 11.214844 C 21.929688 10.394531 21.3125 9.710938 20.515625 9.609375 C 20.363281 9.691406 20.195312 9.742188 20.023438 9.757812 C 19.988281 9.761719 19.953125 9.761719 19.914062 9.761719 C 19.789062 9.761719 19.667969 9.742188 19.550781 9.707031 C 19.246094 10.03125 18.804688 10.996094 18.804688 11.4375 L 18.855469 12.347656 L 19.414062 12.496094 L 20.683594 10.226562 L 21.085938 10.453125 L 20.953125 10.691406 L 19.644531 13.039062 L 18.882812 12.832031 L 18.644531 12.769531 L 18.410156 12.707031 L 16.753906 12.261719 C 16.804688 12.371094 16.832031 12.488281 16.828125 12.609375 C 16.828125 12.773438 16.777344 12.925781 16.691406 13.0625 C 16.636719 13.148438 16.566406 13.226562 16.484375 13.292969 C 16.453125 13.320312 16.425781 13.34375 16.390625 13.363281 L 17.070312 13.550781 L 17.300781 13.617188 L 18.480469 13.941406 L 18.949219 14.074219 L 19.71875 14.289062 C 20.066406 14.386719 20.289062 14.242188 20.582031 13.746094 L 21.929688 11.53125 L 21.945312 11.511719 L 21.929688 11.5 " fill-opacity="1" fill-rule="nonzero"/></g><g clip-path="url(#ad7c8fe35d)"><path fill="#1800ad" d="M 19.914062 14.78125 C 19.816406 14.78125 19.707031 14.765625 19.59375 14.734375 L 18.976562 14.5625 L 19.035156 15.609375 L 19.042969 15.730469 L 21.929688 15.730469 L 21.929688 12.421875 L 20.976562 13.984375 C 20.757812 14.367188 20.4375 14.78125 19.914062 14.78125 " fill-opacity="1" fill-rule="nonzero"/></g><g clip-path="url(#e9abbc235c)"><path fill="#1800ad" d="M 8.042969 19.441406 L 9.664062 19.441406 L 9.664062 18.847656 L 8.042969 18.847656 L 8.042969 19.441406 " fill-opacity="1" fill-rule="nonzero"/></g><g clip-path="url(#08f3b1388b)"><path fill="#1800ad" d="M 13.597656 19.441406 L 14.0625 19.441406 L 14.0625 17.230469 L 13.597656 17.230469 L 13.597656 19.441406 " fill-opacity="1" fill-rule="nonzero"/></g><g clip-path="url(#92e2864381)"><path fill="#1800ad" d="M 10.125 19.441406 L 11.746094 19.441406 L 11.746094 18.847656 L 10.125 18.847656 L 10.125 19.441406 " fill-opacity="1" fill-rule="nonzero"/></g><path fill="#1800ad" d="M 8.042969 18.386719 L 9.664062 18.386719 L 9.664062 16.765625 L 8.042969 16.765625 L 8.042969 18.386719 " fill-opacity="1" fill-rule="nonzero"/><g clip-path="url(#3a85d78fe2)"><path fill="#1800ad" d="M 12.210938 19.441406 L 13.136719 19.441406 L 13.136719 17.230469 L 12.210938 17.230469 L 12.210938 19.441406 " fill-opacity="1" fill-rule="nonzero"/></g><path fill="#1800ad" d="M 10.125 18.386719 L 11.746094 18.386719 L 11.746094 16.765625 L 10.125 16.765625 L 10.125 18.386719 " fill-opacity="1" fill-rule="nonzero"/></svg>