<svg xmlns="http://www.w3.org/2000/svg" xmlns:xlink="http://www.w3.org/1999/xlink" width="40" zoomAndPan="magnify" viewBox="0 0 30 37.92" height="40" preserveAspectRatio="xMidYMid meet" version="1.0"><defs><clipPath id="e7d9c87dc7"><path d="M 3.113281 0.683594 L 26.886719 0.683594 L 26.886719 29.300781 L 3.113281 29.300781 Z M 3.113281 0.683594 " clip-rule="nonzero"/></clipPath><clipPath id="b00f17cdf8"><path d="M 19.457031 1.550781 C 18.035156 0.976562 16.539062 0.683594 15 0.683594 C 13.460938 0.683594 11.964844 0.976562 10.542969 1.550781 C 9.078125 2.144531 7.757812 3.019531 6.632812 4.148438 C 4.429688 6.355469 3.199219 9.285156 3.167969 12.402344 C 3.136719 15.511719 4.304688 18.464844 6.460938 20.707031 L 6.453125 20.710938 L 15 29.257812 L 23.5 20.757812 L 23.492188 20.753906 C 25.667969 18.511719 26.855469 15.558594 26.832031 12.433594 C 26.8125 9.300781 25.582031 6.363281 23.367188 4.148438 C 22.234375 3.019531 20.921875 2.144531 19.457031 1.550781 Z M 19.457031 1.550781 " clip-rule="nonzero"/></clipPath><clipPath id="3f8b1a4b5d"><path d="M 0.144531 0.683594 L 23.855469 0.683594 L 23.855469 29.300781 L 0.144531 29.300781 Z M 0.144531 0.683594 " clip-rule="nonzero"/></clipPath><clipPath id="bf008961d7"><path d="M 16.457031 1.550781 C 15.035156 0.976562 13.539062 0.683594 12 0.683594 C 10.460938 0.683594 8.964844 0.976562 7.542969 1.550781 C 6.078125 2.144531 4.757812 3.019531 3.632812 4.148438 C 1.429688 6.355469 0.199219 9.285156 0.167969 12.402344 C 0.136719 15.511719 1.304688 18.464844 3.460938 20.707031 L 3.453125 20.710938 L 12 29.257812 L 20.5 20.757812 L 20.492188 20.753906 C 22.667969 18.511719 23.855469 15.558594 23.832031 12.433594 C 23.8125 9.300781 22.582031 6.363281 20.367188 4.148438 C 19.234375 3.019531 17.921875 2.144531 16.457031 1.550781 Z M 16.457031 1.550781 " clip-rule="nonzero"/></clipPath><clipPath id="e69b3ec782"><rect x="0" width="24" y="0" height="30"/></clipPath><clipPath id="528ca52fb7"><path d="M 4.261719 1.777344 L 25.738281 1.777344 L 25.738281 23.203125 L 4.261719 23.203125 Z M 4.261719 1.777344 " clip-rule="nonzero"/></clipPath><clipPath id="889bc8514e"><path d="M 14.996094 1.789062 C 9.089844 1.789062 4.300781 6.578125 4.300781 12.484375 C 4.300781 18.390625 9.089844 23.179688 14.996094 23.179688 C 20.902344 23.179688 25.691406 18.390625 25.691406 12.484375 C 25.691406 6.578125 20.902344 1.789062 14.996094 1.789062 Z M 14.996094 1.789062 " clip-rule="nonzero"/></clipPath><clipPath id="38bbdc52f5"><path d="M 0.261719 0.777344 L 21.738281 0.777344 L 21.738281 22.203125 L 0.261719 22.203125 Z M 0.261719 0.777344 " clip-rule="nonzero"/></clipPath><clipPath id="6da3281cba"><path d="M 10.996094 0.789062 C 5.089844 0.789062 0.300781 5.578125 0.300781 11.484375 C 0.300781 17.390625 5.089844 22.179688 10.996094 22.179688 C 16.902344 22.179688 21.691406 17.390625 21.691406 11.484375 C 21.691406 5.578125 16.902344 0.789062 10.996094 0.789062 Z M 10.996094 0.789062 " clip-rule="nonzero"/></clipPath><clipPath id="42c2f9bc9c"><rect x="0" width="22" y="0" height="23"/></clipPath><clipPath id="130a2b1f4e"><path d="M 7.945312 4.894531 L 22 4.894531 L 22 21.359375 L 7.945312 21.359375 Z M 7.945312 4.894531 " clip-rule="nonzero"/></clipPath></defs><g clip-path="url(#e7d9c87dc7)"><g clip-path="url(#b00f17cdf8)"><g transform="matrix(1, 0, 0, 1, 3, 0.000000000000005773)"><g clip-path="url(#e69b3ec782)"><g clip-path="url(#3f8b1a4b5d)"><g clip-path="url(#bf008961d7)"><path fill="#faab11" d="M 0.167969 0.683594 L 23.832031 0.683594 L 23.832031 29.25 L 0.167969 29.25 Z M 0.167969 0.683594 " fill-opacity="1" fill-rule="nonzero"/></g></g></g></g></g></g><g clip-path="url(#528ca52fb7)"><g clip-path="url(#889bc8514e)"><g transform="matrix(1, 0, 0, 1, 4, 1)"><g clip-path="url(#42c2f9bc9c)"><g clip-path="url(#38bbdc52f5)"><g clip-path="url(#6da3281cba)"><rect x="-10.6" width="43.2" fill="#ffffff" height="54.6048" y="-9.3424" fill-opacity="1"/></g></g></g></g></g></g><g clip-path="url(#130a2b1f4e)"><path fill="#1800ad" d="M 15.539062 8.371094 C 15.636719 8.464844 15.640625 8.621094 15.542969 8.71875 L 14.878906 9.402344 C 14.785156 9.492188 14.640625 9.5 14.539062 9.417969 L 14.070312 9.015625 C 13.96875 8.925781 13.957031 8.769531 14.042969 8.667969 C 14.132812 8.566406 14.289062 8.550781 14.390625 8.640625 L 14.6875 8.890625 L 15.191406 8.375 C 15.285156 8.277344 15.441406 8.273438 15.539062 8.371094 Z M 12.953125 11.265625 L 12.285156 11.949219 C 12.195312 12.042969 12.050781 12.050781 11.949219 11.964844 L 11.480469 11.5625 C 11.378906 11.476562 11.367188 11.320312 11.453125 11.214844 C 11.542969 11.113281 11.699219 11.101562 11.800781 11.1875 L 12.09375 11.441406 L 12.601562 10.921875 C 12.695312 10.824219 12.851562 10.824219 12.949219 10.917969 C 13.046875 11.011719 13.046875 11.167969 12.953125 11.265625 Z M 8.777344 8.703125 C 8.867188 8.597656 9.023438 8.585938 9.125 8.675781 L 9.417969 8.925781 L 9.925781 8.410156 C 10.019531 8.3125 10.175781 8.308594 10.273438 8.402344 C 10.371094 8.5 10.371094 8.65625 10.277344 8.753906 L 9.609375 9.433594 C 9.519531 9.527344 9.375 9.535156 9.273438 9.449219 L 8.804688 9.050781 C 8.703125 8.960938 8.691406 8.804688 8.777344 8.703125 Z M 10.273438 13.539062 C 10.371094 13.632812 10.371094 13.789062 10.277344 13.886719 L 9.609375 14.570312 C 9.519531 14.660156 9.375 14.667969 9.273438 14.582031 L 8.804688 14.183594 C 8.703125 14.09375 8.691406 13.9375 8.777344 13.835938 C 8.867188 13.730469 9.023438 13.71875 9.125 13.808594 L 9.417969 14.058594 L 9.925781 13.542969 C 10.019531 13.445312 10.175781 13.441406 10.273438 13.539062 Z M 18.902344 12.996094 C 19.128906 12.769531 19.425781 12.671875 19.742188 12.71875 C 20.691406 12.867188 21.511719 12.054688 21.375 11.113281 L 20.566406 11.917969 C 20.351562 12.132812 20.003906 12.132812 19.789062 11.917969 L 19.359375 11.488281 C 19.144531 11.273438 19.144531 10.925781 19.359375 10.710938 L 20.167969 9.902344 C 19.222656 9.765625 18.410156 10.589844 18.558594 11.535156 C 18.605469 11.851562 18.507812 12.152344 18.285156 12.378906 L 13.089844 17.570312 C 12.863281 17.796875 12.566406 17.890625 12.25 17.84375 C 11.308594 17.695312 10.480469 18.503906 10.617188 19.453125 L 11.425781 18.644531 C 11.640625 18.429688 11.988281 18.429688 12.203125 18.644531 L 12.632812 19.074219 C 12.847656 19.289062 12.847656 19.636719 12.632812 19.851562 L 11.824219 20.660156 C 12.765625 20.796875 13.582031 19.976562 13.433594 19.027344 C 13.414062 18.898438 13.460938 18.769531 13.777344 18.363281 C 14.210938 17.804688 15.34375 16.550781 15.632812 16.265625 Z M 17.957031 14.632812 C 18.398438 15.96875 17.402344 17.347656 15.996094 17.347656 C 15.785156 17.347656 15.578125 17.316406 15.382812 17.253906 C 15.660156 16.949219 15.890625 16.703125 15.980469 16.613281 Z M 19.445312 14.820312 L 19.953125 14.984375 L 19.953125 15.582031 L 19.445312 15.746094 C 19.359375 15.773438 19.296875 15.84375 19.28125 15.929688 C 19.195312 16.367188 19.023438 16.773438 18.777344 17.144531 C 18.726562 17.21875 18.722656 17.3125 18.761719 17.394531 L 19.003906 17.867188 L 18.582031 18.289062 L 18.109375 18.046875 C 18.027344 18.007812 17.933594 18.011719 17.859375 18.0625 C 17.488281 18.3125 17.082031 18.480469 16.644531 18.566406 C 16.558594 18.582031 16.488281 18.644531 16.457031 18.730469 L 16.292969 19.238281 L 15.699219 19.238281 L 15.535156 18.730469 C 15.507812 18.644531 15.433594 18.582031 15.347656 18.566406 C 15.046875 18.507812 14.757812 18.40625 14.488281 18.269531 C 14.65625 18.074219 14.84375 17.859375 15.027344 17.652344 C 16.695312 18.335938 18.554688 17.109375 18.554688 15.28125 C 18.554688 14.925781 18.480469 14.574219 18.339844 14.253906 L 18.925781 13.664062 C 19.09375 13.96875 19.214844 14.292969 19.28125 14.632812 C 19.296875 14.71875 19.359375 14.792969 19.445312 14.820312 Z M 14.035156 15.929688 C 13.59375 14.589844 14.589844 13.214844 15.996094 13.214844 C 16.214844 13.214844 16.4375 13.25 16.644531 13.320312 Z M 12.546875 15.746094 C 12.632812 15.773438 12.695312 15.84375 12.710938 15.929688 C 12.777344 16.273438 12.898438 16.597656 13.066406 16.898438 L 13.652344 16.3125 C 13.511719 15.988281 13.4375 15.636719 13.4375 15.28125 C 13.4375 13.871094 14.585938 12.722656 15.996094 12.722656 C 16.351562 12.722656 16.703125 12.796875 17.023438 12.9375 L 17.613281 12.351562 C 17.3125 12.183594 16.984375 12.066406 16.644531 11.996094 C 16.558594 11.980469 16.488281 11.917969 16.457031 11.832031 L 16.292969 11.328125 L 15.699219 11.328125 L 15.535156 11.832031 C 15.507812 11.917969 15.433594 11.980469 15.347656 11.996094 C 14.910156 12.082031 14.503906 12.253906 14.132812 12.5 C 14.058594 12.550781 13.964844 12.554688 13.882812 12.515625 L 13.410156 12.273438 L 12.988281 12.695312 L 13.230469 13.171875 C 13.269531 13.25 13.265625 13.34375 13.214844 13.417969 C 12.96875 13.789062 12.796875 14.195312 12.710938 14.632812 C 12.695312 14.71875 12.632812 14.792969 12.546875 14.820312 L 12.039062 14.984375 L 12.039062 15.582031 Z M 11.0625 15.113281 L 11.0625 12.992188 L 12.585938 12.992188 L 12.726562 13.269531 C 12.511719 13.617188 12.355469 13.996094 12.257812 14.394531 L 11.71875 14.570312 C 11.617188 14.601562 11.546875 14.699219 11.546875 14.804688 L 11.546875 15.113281 Z M 10.488281 15.113281 L 10.570312 15.113281 L 10.570312 12.992188 L 8.449219 12.992188 L 8.449219 15.113281 Z M 8.449219 10.375 L 10.570312 10.375 L 10.570312 12.5 L 8.449219 12.5 Z M 8.449219 7.996094 L 8.449219 9.882812 L 10.570312 9.882812 L 10.570312 7.757812 L 8.449219 7.757812 Z M 8.648438 6.175781 L 9.835938 6.175781 L 9.835938 6.472656 C 9.835938 6.75 10.042969 6.976562 10.300781 6.976562 L 10.871094 6.976562 C 11.125 6.976562 11.335938 6.75 11.335938 6.472656 L 11.335938 6.175781 L 12.914062 6.175781 L 12.914062 6.472656 C 12.914062 6.75 13.125 6.976562 13.378906 6.976562 L 13.949219 6.976562 C 14.207031 6.976562 14.414062 6.75 14.414062 6.472656 L 14.414062 6.175781 L 15.601562 6.175781 C 15.710938 6.175781 15.804688 6.265625 15.804688 6.378906 L 15.804688 7.265625 L 8.449219 7.265625 L 8.449219 6.378906 C 8.449219 6.265625 8.539062 6.175781 8.648438 6.175781 Z M 10.328125 5.398438 L 10.328125 6.480469 L 10.839844 6.480469 L 10.839844 5.386719 L 10.328125 5.386719 C 10.328125 5.390625 10.328125 5.394531 10.328125 5.398438 Z M 13.40625 5.398438 L 13.410156 6.480469 L 13.921875 6.480469 L 13.921875 5.386719 L 13.410156 5.386719 C 13.410156 5.390625 13.40625 5.394531 13.40625 5.398438 Z M 15.804688 9.726562 L 15.804688 7.757812 L 13.679688 7.757812 L 13.679688 9.882812 L 15.804688 9.882812 Z M 11.0625 7.757812 L 13.1875 7.757812 L 13.1875 9.882812 L 11.0625 9.882812 Z M 12.511719 12.472656 L 13.1875 11.800781 L 13.1875 10.375 L 11.0625 10.375 L 11.0625 12.5 L 12.492188 12.5 C 12.5 12.488281 12.503906 12.480469 12.511719 12.472656 Z M 15.519531 10.832031 C 15.410156 10.832031 15.316406 10.902344 15.285156 11.003906 L 15.109375 11.546875 C 14.710938 11.640625 14.332031 11.796875 13.980469 12.011719 L 13.679688 11.859375 L 13.679688 10.375 L 15.804688 10.375 L 15.804688 10.832031 Z M 19.664062 13.207031 C 20.269531 13.304688 20.886719 13.101562 21.320312 12.667969 C 21.882812 12.105469 22.039062 11.273438 21.71875 10.542969 C 21.648438 10.386719 21.441406 10.347656 21.320312 10.46875 L 20.21875 11.570312 C 20.195312 11.589844 20.160156 11.589844 20.136719 11.570312 L 19.707031 11.140625 C 19.6875 11.117188 19.6875 11.082031 19.707031 11.058594 L 20.808594 9.957031 C 20.929688 9.835938 20.890625 9.628906 20.734375 9.558594 C 19.332031 8.945312 17.839844 10.132812 18.070312 11.613281 C 18.09375 11.753906 18.058594 11.882812 17.96875 11.988281 C 17.632812 11.785156 17.269531 11.636719 16.882812 11.542969 L 16.707031 11.003906 C 16.675781 10.902344 16.582031 10.832031 16.472656 10.832031 L 16.296875 10.832031 L 16.296875 6.378906 C 16.296875 5.992188 15.984375 5.683594 15.601562 5.683594 L 14.414062 5.683594 L 14.414062 5.398438 C 14.414062 5.121094 14.207031 4.894531 13.949219 4.894531 L 13.378906 4.894531 C 13.125 4.894531 12.914062 5.121094 12.914062 5.398438 L 12.914062 5.683594 L 11.335938 5.683594 L 11.335938 5.398438 C 11.335938 5.121094 11.125 4.894531 10.871094 4.894531 L 10.300781 4.894531 C 10.042969 4.894531 9.835938 5.121094 9.835938 5.398438 L 9.835938 5.683594 L 8.648438 5.683594 C 8.265625 5.683594 7.953125 5.992188 7.953125 6.378906 L 7.953125 15.363281 C 7.953125 15.496094 8.066406 15.609375 8.199219 15.609375 L 11.546875 15.609375 L 11.546875 15.757812 C 11.546875 15.867188 11.617188 15.960938 11.71875 15.992188 L 12.257812 16.167969 C 12.351562 16.554688 12.5 16.917969 12.703125 17.257812 C 12.59375 17.34375 12.46875 17.378906 12.328125 17.355469 C 11.722656 17.261719 11.105469 17.460938 10.671875 17.894531 C 10.109375 18.457031 9.953125 19.289062 10.273438 20.019531 C 10.34375 20.179688 10.550781 20.21875 10.671875 20.09375 L 11.773438 18.996094 C 11.796875 18.972656 11.832031 18.972656 11.855469 18.996094 L 12.285156 19.421875 C 12.304688 19.445312 12.304688 19.480469 12.285156 19.503906 L 11.183594 20.605469 C 11.058594 20.726562 11.101562 20.9375 11.257812 21.003906 C 11.980469 21.320312 12.816406 21.171875 13.382812 20.605469 C 13.804688 20.183594 14.003906 19.589844 13.929688 19 C 13.964844 18.929688 14.050781 18.808594 14.167969 18.660156 C 14.464844 18.820312 14.78125 18.941406 15.109375 19.019531 L 15.285156 19.558594 C 15.316406 19.660156 15.410156 19.730469 15.519531 19.730469 L 16.472656 19.730469 C 16.582031 19.730469 16.675781 19.660156 16.707031 19.558594 L 16.882812 19.019531 C 17.28125 18.925781 17.660156 18.769531 18.011719 18.550781 L 18.515625 18.808594 C 18.613281 18.859375 18.726562 18.839844 18.804688 18.765625 L 19.480469 18.089844 C 19.554688 18.015625 19.574219 17.898438 19.523438 17.804688 L 19.265625 17.296875 C 19.480469 16.945312 19.636719 16.570312 19.734375 16.167969 L 20.273438 15.992188 C 20.375 15.960938 20.445312 15.867188 20.445312 15.757812 L 20.445312 14.804688 C 20.445312 14.699219 20.375 14.601562 20.273438 14.570312 L 19.734375 14.394531 C 19.640625 14.011719 19.492188 13.644531 19.289062 13.308594 C 19.398438 13.21875 19.523438 13.183594 19.664062 13.207031 Z M 19.664062 13.207031 " fill-opacity="1" fill-rule="evenodd"/></g></svg>