<svg xmlns="http://www.w3.org/2000/svg" xmlns:xlink="http://www.w3.org/1999/xlink" width="40" zoomAndPan="magnify" viewBox="0 0 30 37.92" height="40" preserveAspectRatio="xMidYMid meet" version="1.0"><defs><clipPath id="b108e97459"><path d="M 3.113281 0.683594 L 26.886719 0.683594 L 26.886719 29.300781 L 3.113281 29.300781 Z M 3.113281 0.683594 " clip-rule="nonzero"/></clipPath><clipPath id="73d717e1e6"><path d="M 19.457031 1.550781 C 18.035156 0.976562 16.539062 0.683594 15 0.683594 C 13.460938 0.683594 11.964844 0.976562 10.542969 1.550781 C 9.078125 2.144531 7.757812 3.019531 6.632812 4.148438 C 4.429688 6.355469 3.199219 9.285156 3.167969 12.402344 C 3.136719 15.511719 4.304688 18.464844 6.460938 20.707031 L 6.453125 20.710938 L 15 29.257812 L 23.5 20.757812 L 23.492188 20.753906 C 25.667969 18.511719 26.855469 15.558594 26.832031 12.433594 C 26.8125 9.300781 25.582031 6.363281 23.367188 4.148438 C 22.234375 3.019531 20.921875 2.144531 19.457031 1.550781 Z M 19.457031 1.550781 " clip-rule="nonzero"/></clipPath><clipPath id="fcc2b63eb2"><path d="M 0.144531 0.683594 L 23.855469 0.683594 L 23.855469 29.300781 L 0.144531 29.300781 Z M 0.144531 0.683594 " clip-rule="nonzero"/></clipPath><clipPath id="2449fd0fc6"><path d="M 16.457031 1.550781 C 15.035156 0.976562 13.539062 0.683594 12 0.683594 C 10.460938 0.683594 8.964844 0.976562 7.542969 1.550781 C 6.078125 2.144531 4.757812 3.019531 3.632812 4.148438 C 1.429688 6.355469 0.199219 9.285156 0.167969 12.402344 C 0.136719 15.511719 1.304688 18.464844 3.460938 20.707031 L 3.453125 20.710938 L 12 29.257812 L 20.5 20.757812 L 20.492188 20.753906 C 22.667969 18.511719 23.855469 15.558594 23.832031 12.433594 C 23.8125 9.300781 22.582031 6.363281 20.367188 4.148438 C 19.234375 3.019531 17.921875 2.144531 16.457031 1.550781 Z M 16.457031 1.550781 " clip-rule="nonzero"/></clipPath><clipPath id="c56494bbb5"><rect x="0" width="24" y="0" height="30"/></clipPath><clipPath id="8bf2a09f43"><path d="M 4.261719 1.777344 L 25.738281 1.777344 L 25.738281 23.203125 L 4.261719 23.203125 Z M 4.261719 1.777344 " clip-rule="nonzero"/></clipPath><clipPath id="b132f98600"><path d="M 14.996094 1.789062 C 9.089844 1.789062 4.300781 6.578125 4.300781 12.484375 C 4.300781 18.390625 9.089844 23.179688 14.996094 23.179688 C 20.902344 23.179688 25.691406 18.390625 25.691406 12.484375 C 25.691406 6.578125 20.902344 1.789062 14.996094 1.789062 Z M 14.996094 1.789062 " clip-rule="nonzero"/></clipPath><clipPath id="dbfcf2f88f"><path d="M 0.261719 0.777344 L 21.738281 0.777344 L 21.738281 22.203125 L 0.261719 22.203125 Z M 0.261719 0.777344 " clip-rule="nonzero"/></clipPath><clipPath id="1379a50212"><path d="M 10.996094 0.789062 C 5.089844 0.789062 0.300781 5.578125 0.300781 11.484375 C 0.300781 17.390625 5.089844 22.179688 10.996094 22.179688 C 16.902344 22.179688 21.691406 17.390625 21.691406 11.484375 C 21.691406 5.578125 16.902344 0.789062 10.996094 0.789062 Z M 10.996094 0.789062 " clip-rule="nonzero"/></clipPath><clipPath id="a6d2db40b6"><rect x="0" width="22" y="0" height="23"/></clipPath><clipPath id="6f398dc1c1"><path d="M 5.855469 5.152344 L 23.820312 5.152344 L 23.820312 19.375 L 5.855469 19.375 Z M 5.855469 5.152344 " clip-rule="nonzero"/></clipPath></defs><g clip-path="url(#b108e97459)"><g clip-path="url(#73d717e1e6)"><g transform="matrix(1, 0, 0, 1, 3, 0.000000000000005773)"><g clip-path="url(#c56494bbb5)"><g clip-path="url(#fcc2b63eb2)"><g clip-path="url(#2449fd0fc6)"><path fill="#faab11" d="M 0.167969 0.683594 L 23.832031 0.683594 L 23.832031 29.25 L 0.167969 29.25 Z M 0.167969 0.683594 " fill-opacity="1" fill-rule="nonzero"/></g></g></g></g></g></g><g clip-path="url(#8bf2a09f43)"><g clip-path="url(#b132f98600)"><g transform="matrix(1, 0, 0, 1, 4, 1)"><g clip-path="url(#a6d2db40b6)"><g clip-path="url(#dbfcf2f88f)"><g clip-path="url(#1379a50212)"><rect x="-10.6" width="43.2" fill="#ffffff" height="54.6048" y="-9.3424" fill-opacity="1"/></g></g></g></g></g></g><g clip-path="url(#6f398dc1c1)"><path fill="#1800ad" d="M 6.257812 13.3125 C 6.117188 13.363281 5.960938 13.289062 5.90625 13.148438 C 5.855469 13.007812 5.929688 12.847656 6.074219 12.796875 C 7.027344 12.449219 7.519531 12.824219 7.925781 13.132812 C 8.148438 13.304688 8.328125 13.445312 8.511719 13.277344 C 8.546875 13.25 8.570312 13.210938 8.589844 13.167969 C 8.648438 13.03125 8.804688 12.964844 8.945312 13.019531 C 9.085938 13.078125 9.152344 13.238281 9.09375 13.378906 C 9 13.613281 8.800781 13.792969 8.558594 13.867188 C 8.148438 13.996094 7.894531 13.796875 7.59375 13.570312 C 7.292969 13.34375 6.933594 13.066406 6.257812 13.3125 Z M 6.257812 15.65625 C 6.117188 15.707031 5.960938 15.632812 5.90625 15.488281 C 5.855469 15.347656 5.929688 15.191406 6.074219 15.140625 C 7.027344 14.792969 7.519531 15.167969 7.925781 15.476562 C 8.148438 15.644531 8.328125 15.789062 8.511719 15.621094 C 8.546875 15.589844 8.570312 15.554688 8.589844 15.511719 C 8.648438 15.371094 8.804688 15.304688 8.945312 15.363281 C 9.085938 15.421875 9.152344 15.582031 9.09375 15.71875 C 9 15.957031 8.800781 16.136719 8.558594 16.210938 C 8.148438 16.335938 7.894531 16.140625 7.59375 15.910156 C 7.292969 15.683594 6.933594 15.410156 6.257812 15.65625 Z M 23.144531 12.949219 C 23.296875 12.953125 23.414062 13.078125 23.40625 13.230469 C 23.402344 13.382812 23.273438 13.5 23.121094 13.496094 C 22.675781 13.476562 22.265625 13.058594 22.425781 12.597656 C 22.621094 12.035156 23.597656 11.835938 23.972656 12.574219 C 24.109375 12.847656 24.128906 13.1875 24.019531 13.472656 C 23.804688 14.019531 23.136719 14.195312 22.40625 14.214844 C 21.757812 14.230469 21.054688 14.128906 20.660156 14.0625 C 20.511719 14.039062 20.40625 13.898438 20.433594 13.75 C 20.457031 13.601562 20.597656 13.5 20.746094 13.523438 C 21.125 13.582031 21.792969 13.683594 22.394531 13.667969 C 22.925781 13.652344 23.398438 13.558594 23.507812 13.277344 C 23.59375 13.050781 23.511719 12.660156 23.238281 12.644531 C 23.09375 12.632812 22.863281 12.734375 22.964844 12.859375 C 23.007812 12.910156 23.078125 12.945312 23.144531 12.949219 Z M 23.121094 15.414062 C 23.273438 15.410156 23.402344 15.527344 23.40625 15.679688 C 23.414062 15.832031 23.296875 15.957031 23.144531 15.960938 C 23.035156 15.96875 22.816406 16.101562 23.03125 16.222656 C 23.113281 16.265625 23.230469 16.285156 23.320312 16.25 C 23.523438 16.171875 23.585938 15.839844 23.507812 15.632812 C 23.398438 15.351562 22.925781 15.257812 22.394531 15.242188 C 21.792969 15.226562 21.121094 15.328125 20.746094 15.386719 C 20.597656 15.410156 20.457031 15.308594 20.433594 15.160156 C 20.40625 15.011719 20.511719 14.871094 20.660156 14.847656 C 21.054688 14.785156 21.757812 14.679688 22.40625 14.695312 C 23.265625 14.71875 24.039062 14.960938 24.085938 15.757812 C 24.117188 16.261719 23.8125 16.78125 23.269531 16.816406 C 22.59375 16.855469 22.136719 16.191406 22.546875 15.699219 C 22.683594 15.535156 22.90625 15.425781 23.121094 15.414062 Z M 14.824219 13.238281 C 14.902344 13.238281 14.972656 13.25 15.042969 13.269531 C 15.375 12.640625 16.148438 12.636719 16.148438 12.410156 C 16.148438 12.152344 14.769531 11.90625 14.769531 12.539062 L 14.769531 13.242188 C 14.785156 13.238281 14.804688 13.238281 14.824219 13.238281 Z M 15.617188 13.980469 C 15.625 14.074219 15.613281 14.167969 15.585938 14.253906 C 16.214844 14.585938 16.222656 15.359375 16.445312 15.359375 C 16.703125 15.359375 16.953125 13.980469 16.316406 13.980469 Z M 14.878906 14.828125 C 14.78125 14.832031 14.691406 14.824219 14.601562 14.796875 C 14.269531 15.425781 13.496094 15.433594 13.496094 15.660156 C 13.496094 15.914062 14.878906 16.164062 14.878906 15.527344 Z M 14.03125 14.089844 C 14.023438 13.996094 14.03125 13.902344 14.058594 13.8125 C 13.429688 13.484375 13.425781 12.710938 13.199219 12.710938 C 12.941406 12.710938 12.695312 14.089844 13.328125 14.089844 Z M 14.996094 13.859375 C 14.90625 13.769531 14.765625 13.761719 14.667969 13.84375 C 14.5625 13.929688 14.546875 14.085938 14.632812 14.1875 C 14.71875 14.296875 14.875 14.3125 14.976562 14.226562 C 15.089844 14.136719 15.105469 13.976562 14.996094 13.859375 Z M 14.042969 14.636719 L 13.328125 14.636719 C 11.957031 14.636719 12.207031 12.160156 13.199219 12.160156 C 13.914062 12.160156 13.820312 12.914062 14.21875 13.253906 L 14.21875 12.539062 C 14.21875 11.167969 16.699219 11.421875 16.699219 12.410156 C 16.699219 13.125 15.945312 13.03125 15.601562 13.433594 L 16.316406 13.433594 C 17.6875 13.433594 17.4375 15.910156 16.445312 15.910156 C 15.734375 15.910156 15.828125 15.15625 15.425781 14.8125 L 15.425781 15.527344 C 15.425781 16.902344 12.949219 16.648438 12.949219 15.660156 C 12.949219 14.945312 13.703125 15.039062 14.042969 14.636719 Z M 14.824219 10.242188 C 16.917969 10.242188 18.617188 11.941406 18.617188 14.035156 C 18.617188 16.128906 16.917969 17.828125 14.824219 17.828125 C 12.726562 17.828125 11.03125 16.128906 11.03125 14.035156 C 11.03125 11.941406 12.726562 10.242188 14.824219 10.242188 Z M 17.117188 11.742188 C 15.851562 10.472656 13.796875 10.472656 12.527344 11.742188 C 11.261719 13.007812 11.261719 15.0625 12.527344 16.328125 C 13.796875 17.597656 15.851562 17.597656 17.117188 16.328125 C 18.382812 15.0625 18.382812 13.007812 17.117188 11.742188 Z M 6.828125 11.019531 L 14.089844 5.484375 C 14.523438 5.152344 15.144531 5.160156 15.570312 5.492188 L 17.253906 6.777344 L 17.253906 5.75 C 17.253906 5.601562 17.375 5.476562 17.527344 5.476562 L 19.542969 5.476562 C 19.695312 5.476562 19.816406 5.601562 19.816406 5.75 L 19.816406 8.730469 L 22.832031 11.03125 C 23.042969 11.1875 22.925781 11.519531 22.667969 11.519531 L 22.667969 11.523438 L 20.128906 11.523438 L 20.128906 17.597656 C 20.128906 18.433594 19.449219 19.117188 18.609375 19.117188 L 11.035156 19.117188 C 10.199219 19.117188 9.515625 18.433594 9.515625 17.597656 L 9.515625 11.523438 L 6.980469 11.523438 C 6.707031 11.523438 6.601562 11.167969 6.828125 11.019531 Z M 17.800781 7.195312 L 19.269531 8.3125 L 19.269531 6.027344 L 17.800781 6.027344 Z M 19.582031 11.382812 L 14.824219 7.753906 L 10.0625 11.382812 L 10.0625 17.597656 C 10.0625 18.128906 10.5 18.566406 11.035156 18.566406 L 18.613281 18.566406 C 19.144531 18.566406 19.582031 18.132812 19.582031 17.597656 Z M 14.421875 5.917969 L 7.792969 10.972656 L 9.699219 10.972656 L 14.652344 7.195312 C 14.753906 7.117188 14.890625 7.117188 14.992188 7.195312 L 19.949219 10.972656 L 21.855469 10.972656 L 19.390625 9.097656 C 19.382812 9.089844 19.371094 9.082031 19.359375 9.074219 L 17.375 7.558594 C 17.363281 7.550781 17.355469 7.542969 17.34375 7.535156 L 15.234375 5.929688 L 15.238281 5.925781 C 14.996094 5.746094 14.660156 5.738281 14.421875 5.917969 Z M 14.421875 5.917969 " fill-opacity="1" fill-rule="nonzero"/></g></svg>