<svg xmlns="http://www.w3.org/2000/svg" xmlns:xlink="http://www.w3.org/1999/xlink" width="40" zoomAndPan="magnify" viewBox="0 0 30 37.92" height="40" preserveAspectRatio="xMidYMid meet" version="1.0"><defs><clipPath id="dacd527baf"><path d="M 3.113281 0.683594 L 26.886719 0.683594 L 26.886719 29.300781 L 3.113281 29.300781 Z M 3.113281 0.683594 " clip-rule="nonzero"/></clipPath><clipPath id="3c6f75a0c4"><path d="M 19.457031 1.550781 C 18.035156 0.976562 16.539062 0.683594 15 0.683594 C 13.460938 0.683594 11.964844 0.976562 10.542969 1.550781 C 9.078125 2.144531 7.757812 3.019531 6.632812 4.148438 C 4.429688 6.355469 3.199219 9.285156 3.167969 12.402344 C 3.136719 15.511719 4.304688 18.464844 6.460938 20.707031 L 6.453125 20.710938 L 15 29.257812 L 23.5 20.757812 L 23.492188 20.753906 C 25.667969 18.511719 26.855469 15.558594 26.832031 12.433594 C 26.8125 9.300781 25.582031 6.363281 23.367188 4.148438 C 22.234375 3.019531 20.921875 2.144531 19.457031 1.550781 Z M 19.457031 1.550781 " clip-rule="nonzero"/></clipPath><clipPath id="85500c06bc"><path d="M 0.144531 0.683594 L 23.855469 0.683594 L 23.855469 29.300781 L 0.144531 29.300781 Z M 0.144531 0.683594 " clip-rule="nonzero"/></clipPath><clipPath id="ce43226a0f"><path d="M 16.457031 1.550781 C 15.035156 0.976562 13.539062 0.683594 12 0.683594 C 10.460938 0.683594 8.964844 0.976562 7.542969 1.550781 C 6.078125 2.144531 4.757812 3.019531 3.632812 4.148438 C 1.429688 6.355469 0.199219 9.285156 0.167969 12.402344 C 0.136719 15.511719 1.304688 18.464844 3.460938 20.707031 L 3.453125 20.710938 L 12 29.257812 L 20.5 20.757812 L 20.492188 20.753906 C 22.667969 18.511719 23.855469 15.558594 23.832031 12.433594 C 23.8125 9.300781 22.582031 6.363281 20.367188 4.148438 C 19.234375 3.019531 17.921875 2.144531 16.457031 1.550781 Z M 16.457031 1.550781 " clip-rule="nonzero"/></clipPath><clipPath id="761d789249"><rect x="0" width="24" y="0" height="30"/></clipPath><clipPath id="67dfb86dec"><path d="M 4.261719 1.777344 L 25.738281 1.777344 L 25.738281 23.203125 L 4.261719 23.203125 Z M 4.261719 1.777344 " clip-rule="nonzero"/></clipPath><clipPath id="7ac2015686"><path d="M 14.996094 1.789062 C 9.089844 1.789062 4.300781 6.578125 4.300781 12.484375 C 4.300781 18.390625 9.089844 23.179688 14.996094 23.179688 C 20.902344 23.179688 25.691406 18.390625 25.691406 12.484375 C 25.691406 6.578125 20.902344 1.789062 14.996094 1.789062 Z M 14.996094 1.789062 " clip-rule="nonzero"/></clipPath><clipPath id="1ab407e630"><path d="M 0.261719 0.777344 L 21.738281 0.777344 L 21.738281 22.203125 L 0.261719 22.203125 Z M 0.261719 0.777344 " clip-rule="nonzero"/></clipPath><clipPath id="137629b955"><path d="M 10.996094 0.789062 C 5.089844 0.789062 0.300781 5.578125 0.300781 11.484375 C 0.300781 17.390625 5.089844 22.179688 10.996094 22.179688 C 16.902344 22.179688 21.691406 17.390625 21.691406 11.484375 C 21.691406 5.578125 16.902344 0.789062 10.996094 0.789062 Z M 10.996094 0.789062 " clip-rule="nonzero"/></clipPath><clipPath id="8bc686351d"><rect x="0" width="22" y="0" height="23"/></clipPath><clipPath id="e5e966d6fd"><path d="M 7.363281 4.636719 L 22.332031 4.636719 L 22.332031 19.605469 L 7.363281 19.605469 Z M 7.363281 4.636719 " clip-rule="nonzero"/></clipPath></defs><g clip-path="url(#dacd527baf)"><g clip-path="url(#3c6f75a0c4)"><g transform="matrix(1, 0, 0, 1, 3, 0.000000000000005773)"><g clip-path="url(#761d789249)"><g clip-path="url(#85500c06bc)"><g clip-path="url(#ce43226a0f)"><path fill="#faab11" d="M 0.167969 0.683594 L 23.832031 0.683594 L 23.832031 29.25 L 0.167969 29.25 Z M 0.167969 0.683594 " fill-opacity="1" fill-rule="nonzero"/></g></g></g></g></g></g><g clip-path="url(#67dfb86dec)"><g clip-path="url(#7ac2015686)"><g transform="matrix(1, 0, 0, 1, 4, 1)"><g clip-path="url(#8bc686351d)"><g clip-path="url(#1ab407e630)"><g clip-path="url(#137629b955)"><rect x="-10.6" width="43.2" fill="#ffffff" height="54.6048" y="-9.3424" fill-opacity="1"/></g></g></g></g></g></g><g clip-path="url(#e5e966d6fd)"><path fill="#1800ad" d="M 22.601562 10.878906 C 22.578125 10.957031 22.503906 11.011719 22.421875 11.011719 L 21.324219 11.011719 L 21.324219 19.238281 C 21.324219 19.34375 21.242188 19.429688 21.136719 19.429688 C 21.03125 19.429688 20.945312 19.34375 20.945312 19.238281 L 20.945312 10.820312 C 20.945312 10.714844 21.03125 10.632812 21.136719 10.632812 L 21.808594 10.632812 L 19.761719 9.230469 C 19.707031 9.191406 19.679688 9.132812 19.679688 9.070312 L 19.679688 5.015625 L 18.195312 5.015625 L 18.195312 7.796875 C 18.195312 7.867188 18.15625 7.929688 18.09375 7.964844 C 18.03125 7.996094 17.957031 7.992188 17.898438 7.953125 L 15.339844 6.199219 C 15.128906 6.054688 14.863281 6.054688 14.648438 6.199219 L 8.183594 10.632812 L 8.855469 10.632812 C 8.957031 10.632812 9.042969 10.714844 9.042969 10.820312 L 9.042969 19.238281 C 9.042969 19.34375 8.957031 19.429688 8.855469 19.429688 C 8.75 19.429688 8.664062 19.34375 8.664062 19.238281 L 8.664062 11.011719 L 7.570312 11.011719 C 7.488281 11.011719 7.414062 10.957031 7.390625 10.878906 C 7.363281 10.796875 7.394531 10.710938 7.464844 10.664062 L 14.433594 5.886719 C 14.78125 5.652344 15.210938 5.652344 15.554688 5.886719 L 17.816406 7.4375 L 17.816406 4.828125 C 17.816406 4.722656 17.902344 4.636719 18.003906 4.636719 L 19.867188 4.636719 C 19.972656 4.636719 20.058594 4.722656 20.058594 4.828125 L 20.058594 8.972656 L 22.527344 10.664062 C 22.597656 10.710938 22.625 10.796875 22.601562 10.878906 Z M 19.113281 12.269531 L 19.113281 14.210938 C 19.113281 14.414062 18.949219 14.582031 18.746094 14.582031 L 17.957031 14.582031 C 17.753906 14.582031 17.589844 14.414062 17.589844 14.210938 L 17.589844 13.886719 L 16.902344 13.886719 C 16.765625 13.886719 16.652344 14 16.652344 14.140625 L 16.652344 17.039062 C 16.652344 17.601562 16.191406 18.0625 15.628906 18.0625 L 14.308594 18.0625 C 13.742188 18.0625 13.285156 17.601562 13.285156 17.039062 L 13.285156 16.617188 C 13.285156 16.589844 13.257812 16.5625 13.226562 16.5625 L 12.402344 16.5625 L 12.402344 16.859375 C 12.402344 17.0625 12.234375 17.230469 12.03125 17.230469 L 11.246094 17.230469 C 11.042969 17.230469 10.875 17.0625 10.875 16.859375 L 10.875 14.917969 C 10.875 14.714844 11.042969 14.546875 11.246094 14.546875 L 12.03125 14.546875 C 12.234375 14.546875 12.402344 14.714844 12.402344 14.917969 L 12.402344 15.214844 L 13.578125 15.214844 C 14.167969 15.214844 14.648438 15.695312 14.648438 16.285156 L 14.648438 16.632812 C 14.648438 16.765625 14.820312 16.800781 14.910156 16.800781 C 14.921875 16.800781 15.164062 16.796875 15.164062 16.632812 L 15.164062 14.1875 C 15.164062 14.023438 15.03125 13.886719 14.863281 13.886719 L 14.742188 13.886719 C 14.015625 13.886719 13.425781 13.296875 13.425781 12.566406 L 13.425781 10.597656 L 13.203125 10.597656 C 13 10.597656 12.835938 10.429688 12.835938 10.226562 L 12.835938 9.441406 C 12.835938 9.238281 13 9.070312 13.203125 9.070312 L 15.144531 9.070312 C 15.347656 9.070312 15.515625 9.238281 15.515625 9.441406 L 15.515625 10.226562 C 15.515625 10.429688 15.347656 10.597656 15.144531 10.597656 L 14.863281 10.597656 L 14.863281 12.097656 C 14.863281 12.371094 15.085938 12.59375 15.363281 12.59375 L 17.589844 12.59375 L 17.589844 12.269531 C 17.589844 12.066406 17.753906 11.902344 17.957031 11.902344 L 18.746094 11.902344 C 18.949219 11.902344 19.113281 12.066406 19.113281 12.269531 Z M 13.214844 10.21875 L 15.136719 10.21875 L 15.136719 9.449219 L 13.214844 9.449219 Z M 13.804688 10.597656 L 13.804688 11.113281 L 14.484375 11.113281 L 14.484375 10.597656 Z M 12.023438 14.929688 L 11.253906 14.929688 L 11.253906 16.847656 L 12.023438 16.847656 Z M 12.402344 16.183594 L 12.847656 16.183594 L 12.847656 15.59375 L 12.402344 15.59375 Z M 16.847656 13.511719 L 16.847656 12.972656 L 15.359375 12.972656 C 14.878906 12.972656 14.484375 12.578125 14.484375 12.097656 L 14.484375 11.492188 L 13.804688 11.492188 L 13.804688 12.566406 C 13.804688 13.085938 14.226562 13.507812 14.742188 13.507812 L 14.863281 13.507812 C 15.238281 13.507812 15.542969 13.8125 15.542969 14.1875 L 15.542969 16.632812 C 15.542969 16.949219 15.277344 17.179688 14.910156 17.179688 C 14.539062 17.179688 14.269531 16.949219 14.269531 16.632812 L 14.269531 16.285156 C 14.269531 15.902344 13.960938 15.59375 13.578125 15.59375 L 13.226562 15.59375 L 13.226562 16.183594 C 13.46875 16.183594 13.664062 16.378906 13.664062 16.617188 L 13.664062 17.039062 C 13.664062 17.394531 13.953125 17.683594 14.308594 17.683594 L 15.628906 17.683594 C 15.984375 17.683594 16.273438 17.394531 16.273438 17.039062 L 16.273438 14.136719 C 16.273438 13.808594 16.527344 13.539062 16.847656 13.511719 Z M 17.589844 13.507812 L 17.589844 12.972656 L 17.226562 12.972656 L 17.226562 13.507812 Z M 18.734375 12.28125 L 17.96875 12.28125 L 17.96875 14.199219 L 18.734375 14.199219 Z M 18.734375 12.28125 " fill-opacity="1" fill-rule="nonzero"/></g></svg>