<svg xmlns="http://www.w3.org/2000/svg" xmlns:xlink="http://www.w3.org/1999/xlink" width="40" zoomAndPan="magnify" viewBox="0 0 30 37.92" height="40" preserveAspectRatio="xMidYMid meet" version="1.0"><defs><clipPath id="89db4d2a32"><path d="M 3.113281 0.683594 L 26.886719 0.683594 L 26.886719 29.300781 L 3.113281 29.300781 Z M 3.113281 0.683594 " clip-rule="nonzero"/></clipPath><clipPath id="84ff8d68b0"><path d="M 19.457031 1.550781 C 18.035156 0.976562 16.539062 0.683594 15 0.683594 C 13.460938 0.683594 11.964844 0.976562 10.542969 1.550781 C 9.078125 2.144531 7.757812 3.019531 6.632812 4.148438 C 4.429688 6.355469 3.199219 9.285156 3.167969 12.402344 C 3.136719 15.511719 4.304688 18.464844 6.460938 20.707031 L 6.453125 20.710938 L 15 29.257812 L 23.5 20.757812 L 23.492188 20.753906 C 25.667969 18.511719 26.855469 15.558594 26.832031 12.433594 C 26.8125 9.300781 25.582031 6.363281 23.367188 4.148438 C 22.234375 3.019531 20.921875 2.144531 19.457031 1.550781 Z M 19.457031 1.550781 " clip-rule="nonzero"/></clipPath><clipPath id="6b4e7755f2"><path d="M 0.144531 0.683594 L 23.855469 0.683594 L 23.855469 29.300781 L 0.144531 29.300781 Z M 0.144531 0.683594 " clip-rule="nonzero"/></clipPath><clipPath id="e14c1a2d1d"><path d="M 16.457031 1.550781 C 15.035156 0.976562 13.539062 0.683594 12 0.683594 C 10.460938 0.683594 8.964844 0.976562 7.542969 1.550781 C 6.078125 2.144531 4.757812 3.019531 3.632812 4.148438 C 1.429688 6.355469 0.199219 9.285156 0.167969 12.402344 C 0.136719 15.511719 1.304688 18.464844 3.460938 20.707031 L 3.453125 20.710938 L 12 29.257812 L 20.5 20.757812 L 20.492188 20.753906 C 22.667969 18.511719 23.855469 15.558594 23.832031 12.433594 C 23.8125 9.300781 22.582031 6.363281 20.367188 4.148438 C 19.234375 3.019531 17.921875 2.144531 16.457031 1.550781 Z M 16.457031 1.550781 " clip-rule="nonzero"/></clipPath><clipPath id="8da940f81c"><rect x="0" width="24" y="0" height="30"/></clipPath><clipPath id="e9fb68357b"><path d="M 4.261719 1.777344 L 25.738281 1.777344 L 25.738281 23.203125 L 4.261719 23.203125 Z M 4.261719 1.777344 " clip-rule="nonzero"/></clipPath><clipPath id="4d6c910483"><path d="M 14.996094 1.789062 C 9.089844 1.789062 4.300781 6.578125 4.300781 12.484375 C 4.300781 18.390625 9.089844 23.179688 14.996094 23.179688 C 20.902344 23.179688 25.691406 18.390625 25.691406 12.484375 C 25.691406 6.578125 20.902344 1.789062 14.996094 1.789062 Z M 14.996094 1.789062 " clip-rule="nonzero"/></clipPath><clipPath id="ccd9a085e3"><path d="M 0.261719 0.777344 L 21.738281 0.777344 L 21.738281 22.203125 L 0.261719 22.203125 Z M 0.261719 0.777344 " clip-rule="nonzero"/></clipPath><clipPath id="e4f910f725"><path d="M 10.996094 0.789062 C 5.089844 0.789062 0.300781 5.578125 0.300781 11.484375 C 0.300781 17.390625 5.089844 22.179688 10.996094 22.179688 C 16.902344 22.179688 21.691406 17.390625 21.691406 11.484375 C 21.691406 5.578125 16.902344 0.789062 10.996094 0.789062 Z M 10.996094 0.789062 " clip-rule="nonzero"/></clipPath><clipPath id="284e1b8b14"><rect x="0" width="22" y="0" height="23"/></clipPath><clipPath id="4877f0236b"><path d="M 7.730469 5.488281 L 21.953125 5.488281 L 21.953125 20.457031 L 7.730469 20.457031 Z M 7.730469 5.488281 " clip-rule="nonzero"/></clipPath></defs><g clip-path="url(#89db4d2a32)"><g clip-path="url(#84ff8d68b0)"><g transform="matrix(1, 0, 0, 1, 3, 0.000000000000005773)"><g clip-path="url(#8da940f81c)"><g clip-path="url(#6b4e7755f2)"><g clip-path="url(#e14c1a2d1d)"><path fill="#faab11" d="M 0.167969 0.683594 L 23.832031 0.683594 L 23.832031 29.25 L 0.167969 29.25 Z M 0.167969 0.683594 " fill-opacity="1" fill-rule="nonzero"/></g></g></g></g></g></g><g clip-path="url(#e9fb68357b)"><g clip-path="url(#4d6c910483)"><g transform="matrix(1, 0, 0, 1, 4, 1)"><g clip-path="url(#284e1b8b14)"><g clip-path="url(#ccd9a085e3)"><g clip-path="url(#e4f910f725)"><rect x="-10.6" width="43.2" fill="#ffffff" height="54.6048" y="-9.3424" fill-opacity="1"/></g></g></g></g></g></g><g clip-path="url(#4877f0236b)"><path fill="#1800ad" d="M 12.734375 17.6875 C 12.714844 17.570312 12.800781 17.457031 12.917969 17.441406 C 13.039062 17.421875 13.152344 17.503906 13.167969 17.625 C 13.238281 18.117188 13.183594 18.597656 12.984375 19.050781 C 12.9375 19.160156 12.808594 19.210938 12.695312 19.164062 C 12.585938 19.113281 12.535156 18.984375 12.582031 18.875 C 12.75 18.492188 12.796875 18.105469 12.734375 17.6875 Z M 16.035156 19.125 C 16.046875 19.246094 15.960938 19.355469 15.84375 19.371094 C 15.722656 19.382812 15.613281 19.296875 15.597656 19.179688 C 15.519531 18.527344 16.289062 18.101562 16.820312 18.511719 C 17.328125 18.90625 17.113281 19.519531 16.605469 19.832031 C 16.28125 20.035156 15.835938 20.125 15.402344 19.964844 C 14.570312 19.65625 14.378906 18.421875 14.429688 17.640625 C 14.441406 17.519531 14.542969 17.429688 14.664062 17.4375 C 14.785156 17.445312 14.878906 17.550781 14.871094 17.671875 C 14.839844 18.082031 14.890625 18.570312 15.042969 18.957031 C 15.15625 19.242188 15.320312 19.46875 15.554688 19.554688 C 16.089844 19.753906 16.664062 19.367188 16.671875 19.066406 C 16.675781 18.890625 16.417969 18.707031 16.195312 18.832031 C 16.082031 18.890625 16.019531 19.003906 16.035156 19.125 Z M 11.953125 17.671875 C 11.945312 17.550781 12.039062 17.445312 12.15625 17.4375 C 12.277344 17.429688 12.382812 17.519531 12.390625 17.640625 C 12.445312 18.421875 12.253906 19.65625 11.421875 19.964844 C 10.851562 20.175781 10.179688 19.953125 9.867188 19.511719 C 9.371094 18.804688 10.1875 18.09375 10.835938 18.441406 C 11.105469 18.585938 11.261719 18.875 11.226562 19.175781 C 11.210938 19.296875 11.101562 19.382812 10.980469 19.371094 C 10.863281 19.355469 10.773438 19.246094 10.789062 19.125 C 10.824219 18.855469 10.488281 18.6875 10.269531 18.859375 C 10.003906 19.0625 10.246094 19.335938 10.449219 19.460938 C 10.671875 19.601562 10.976562 19.664062 11.269531 19.554688 C 11.5 19.46875 11.667969 19.242188 11.78125 18.957031 C 11.933594 18.570312 11.980469 18.082031 11.953125 17.671875 Z M 13.65625 17.625 C 13.671875 17.503906 13.785156 17.421875 13.902344 17.441406 C 14.023438 17.457031 14.105469 17.570312 14.089844 17.6875 C 14.027344 18.105469 14.074219 18.492188 14.238281 18.875 C 14.289062 18.984375 14.238281 19.113281 14.125 19.164062 C 14.015625 19.210938 13.886719 19.160156 13.839844 19.050781 C 13.640625 18.597656 13.582031 18.117188 13.65625 17.625 Z M 9.957031 9.964844 C 10.300781 8.605469 11.378906 7.546875 12.746094 7.226562 C 12.746094 7.011719 12.726562 6.84375 12.902344 6.671875 C 12.996094 6.574219 13.128906 6.515625 13.277344 6.515625 L 13.941406 6.515625 L 13.941406 6.355469 C 13.941406 5.878906 14.332031 5.488281 14.808594 5.488281 L 21.386719 5.488281 C 21.859375 5.488281 22.25 5.878906 22.25 6.355469 L 22.25 11.636719 C 22.25 12.109375 21.859375 12.5 21.386719 12.5 L 19.085938 12.5 L 19.085938 16.109375 C 19.085938 16.574219 18.703125 16.957031 18.238281 16.957031 L 8.585938 16.957031 C 8.117188 16.957031 7.738281 16.578125 7.738281 16.109375 L 7.738281 12.03125 C 7.738281 11.5625 8.117188 11.183594 8.585938 11.183594 L 9.296875 11.183594 L 9.296875 10.785156 C 9.296875 10.386719 9.578125 10.046875 9.957031 9.964844 Z M 12.746094 7.675781 C 11.617188 7.980469 10.726562 8.855469 10.40625 9.980469 C 10.753906 10.085938 11 10.410156 11 10.785156 L 11 11.183594 L 13.941406 11.183594 L 13.941406 8.289062 L 13.277344 8.289062 C 12.984375 8.289062 12.746094 8.050781 12.746094 7.757812 Z M 10.5625 11.183594 L 10.5625 10.785156 C 10.5625 10.410156 10.097656 10.257812 9.851562 10.503906 C 9.78125 10.574219 9.734375 10.675781 9.734375 10.785156 L 9.734375 11.183594 Z M 12.191406 13.253906 L 14.632812 13.253906 C 14.753906 13.253906 14.851562 13.351562 14.851562 13.472656 L 14.851562 14.667969 C 14.851562 14.789062 14.75 14.886719 14.632812 14.886719 L 12.191406 14.886719 C 12.070312 14.886719 11.972656 14.785156 11.972656 14.667969 L 11.972656 13.472656 C 11.972656 13.351562 12.070312 13.253906 12.191406 13.253906 Z M 14.410156 13.691406 L 12.410156 13.691406 L 12.410156 14.445312 L 14.410156 14.445312 Z M 17.460938 11.621094 L 17.15625 12.449219 C 17.121094 12.539062 17.039062 12.59375 16.949219 12.59375 L 9.871094 12.59375 C 9.773438 12.59375 9.691406 12.527344 9.664062 12.4375 L 9.363281 11.621094 L 8.585938 11.621094 C 8.359375 11.621094 8.175781 11.804688 8.175781 12.03125 L 8.175781 16.109375 C 8.175781 16.332031 8.359375 16.515625 8.585938 16.515625 L 9.363281 16.515625 L 9.664062 15.699219 C 9.691406 15.609375 9.773438 15.542969 9.871094 15.542969 L 16.949219 15.542969 C 17.039062 15.542969 17.121094 15.601562 17.15625 15.6875 L 17.460938 16.515625 L 18.238281 16.515625 C 18.460938 16.515625 18.644531 16.332031 18.644531 16.109375 L 18.644531 12.03125 C 18.644531 11.804688 18.460938 11.621094 18.238281 11.621094 Z M 9.828125 11.621094 L 10.027344 12.15625 L 16.796875 12.15625 L 16.992188 11.621094 Z M 16.992188 16.515625 L 16.796875 15.984375 L 10.027344 15.984375 L 9.828125 16.515625 Z M 14.382812 11.183594 L 18.238281 11.183594 C 18.703125 11.183594 19.085938 11.5625 19.085938 12.03125 L 19.085938 12.058594 L 21.386719 12.058594 C 21.617188 12.058594 21.808594 11.867188 21.808594 11.636719 L 21.808594 6.355469 C 21.808594 6.121094 21.617188 5.929688 21.386719 5.929688 L 14.808594 5.929688 C 14.574219 5.929688 14.382812 6.121094 14.382812 6.355469 Z M 15.207031 6.953125 C 15.085938 6.953125 14.988281 6.855469 14.988281 6.734375 C 14.988281 6.613281 15.085938 6.515625 15.207031 6.515625 L 16.59375 6.515625 C 16.714844 6.515625 16.8125 6.613281 16.8125 6.734375 C 16.8125 6.855469 16.714844 6.953125 16.59375 6.953125 Z M 15.207031 8.585938 C 15.085938 8.585938 14.988281 8.488281 14.988281 8.367188 C 14.988281 8.242188 15.085938 8.144531 15.207031 8.144531 L 16.59375 8.144531 C 16.714844 8.144531 16.8125 8.242188 16.8125 8.367188 C 16.8125 8.488281 16.714844 8.585938 16.59375 8.585938 Z M 13.941406 6.953125 L 13.277344 6.953125 C 13.226562 6.953125 13.183594 6.996094 13.183594 7.046875 L 13.183594 7.757812 C 13.183594 7.808594 13.226562 7.851562 13.277344 7.851562 L 13.941406 7.851562 Z M 18.488281 9.832031 L 19.109375 9.214844 L 18.234375 9.214844 C 18.269531 9.445312 18.359375 9.65625 18.488281 9.832031 Z M 18.234375 8.773438 L 19.109375 8.773438 L 18.488281 8.15625 C 18.359375 8.335938 18.269531 8.546875 18.234375 8.773438 Z M 18.800781 7.84375 L 19.417969 8.464844 L 19.417969 7.589844 C 19.191406 7.625 18.980469 7.714844 18.800781 7.84375 Z M 19.859375 7.589844 L 19.859375 8.464844 L 20.476562 7.84375 C 20.296875 7.714844 20.089844 7.625 19.859375 7.589844 Z M 20.789062 8.15625 L 20.167969 8.773438 L 21.046875 8.773438 C 21.007812 8.546875 20.917969 8.335938 20.789062 8.15625 Z M 21.046875 9.214844 L 20.167969 9.214844 L 20.789062 9.832031 C 20.917969 9.65625 21.007812 9.445312 21.046875 9.214844 Z M 20.476562 10.144531 L 19.859375 9.523438 L 19.859375 10.402344 C 20.089844 10.363281 20.296875 10.273438 20.476562 10.144531 Z M 19.417969 10.402344 L 19.417969 9.523438 L 18.800781 10.144531 C 18.980469 10.273438 19.191406 10.363281 19.417969 10.402344 Z M 19.640625 7.132812 C 20.160156 7.132812 20.609375 7.339844 20.957031 7.675781 C 20.957031 7.683594 21.5 8.15625 21.5 8.996094 C 21.5 9.835938 20.957031 10.304688 20.957031 10.3125 C 20.207031 11.039062 19.070312 11.039062 18.320312 10.3125 C 18.320312 10.304688 17.777344 9.835938 17.777344 8.996094 C 17.777344 8.15625 18.320312 7.683594 18.320312 7.675781 C 18.667969 7.339844 19.117188 7.132812 19.640625 7.132812 Z M 19.640625 7.132812 " fill-opacity="1" fill-rule="nonzero"/></g></svg>