<svg xmlns="http://www.w3.org/2000/svg" xmlns:xlink="http://www.w3.org/1999/xlink" width="40" zoomAndPan="magnify" viewBox="0 0 30 37.92" height="40" preserveAspectRatio="xMidYMid meet" version="1.0"><defs><clipPath id="a65aadbffa"><path d="M 3.113281 0.683594 L 26.886719 0.683594 L 26.886719 29.300781 L 3.113281 29.300781 Z M 3.113281 0.683594 " clip-rule="nonzero"/></clipPath><clipPath id="28f9fcfd9e"><path d="M 19.457031 1.550781 C 18.035156 0.976562 16.539062 0.683594 15 0.683594 C 13.460938 0.683594 11.964844 0.976562 10.542969 1.550781 C 9.078125 2.144531 7.757812 3.019531 6.632812 4.148438 C 4.429688 6.355469 3.199219 9.285156 3.167969 12.402344 C 3.136719 15.511719 4.304688 18.464844 6.460938 20.707031 L 6.453125 20.710938 L 15 29.257812 L 23.5 20.757812 L 23.492188 20.753906 C 25.667969 18.511719 26.855469 15.558594 26.832031 12.433594 C 26.8125 9.300781 25.582031 6.363281 23.367188 4.148438 C 22.234375 3.019531 20.921875 2.144531 19.457031 1.550781 Z M 19.457031 1.550781 " clip-rule="nonzero"/></clipPath><clipPath id="923737f024"><path d="M 0.144531 0.683594 L 23.855469 0.683594 L 23.855469 29.300781 L 0.144531 29.300781 Z M 0.144531 0.683594 " clip-rule="nonzero"/></clipPath><clipPath id="45b9f14ffb"><path d="M 16.457031 1.550781 C 15.035156 0.976562 13.539062 0.683594 12 0.683594 C 10.460938 0.683594 8.964844 0.976562 7.542969 1.550781 C 6.078125 2.144531 4.757812 3.019531 3.632812 4.148438 C 1.429688 6.355469 0.199219 9.285156 0.167969 12.402344 C 0.136719 15.511719 1.304688 18.464844 3.460938 20.707031 L 3.453125 20.710938 L 12 29.257812 L 20.5 20.757812 L 20.492188 20.753906 C 22.667969 18.511719 23.855469 15.558594 23.832031 12.433594 C 23.8125 9.300781 22.582031 6.363281 20.367188 4.148438 C 19.234375 3.019531 17.921875 2.144531 16.457031 1.550781 Z M 16.457031 1.550781 " clip-rule="nonzero"/></clipPath><clipPath id="db5beed230"><rect x="0" width="24" y="0" height="30"/></clipPath><clipPath id="d91eafab3e"><path d="M 4.261719 1.777344 L 25.738281 1.777344 L 25.738281 23.203125 L 4.261719 23.203125 Z M 4.261719 1.777344 " clip-rule="nonzero"/></clipPath><clipPath id="d494376bf8"><path d="M 14.996094 1.789062 C 9.089844 1.789062 4.300781 6.578125 4.300781 12.484375 C 4.300781 18.390625 9.089844 23.179688 14.996094 23.179688 C 20.902344 23.179688 25.691406 18.390625 25.691406 12.484375 C 25.691406 6.578125 20.902344 1.789062 14.996094 1.789062 Z M 14.996094 1.789062 " clip-rule="nonzero"/></clipPath><clipPath id="7606048453"><path d="M 0.261719 0.777344 L 21.738281 0.777344 L 21.738281 22.203125 L 0.261719 22.203125 Z M 0.261719 0.777344 " clip-rule="nonzero"/></clipPath><clipPath id="d35912c218"><path d="M 10.996094 0.789062 C 5.089844 0.789062 0.300781 5.578125 0.300781 11.484375 C 0.300781 17.390625 5.089844 22.179688 10.996094 22.179688 C 16.902344 22.179688 21.691406 17.390625 21.691406 11.484375 C 21.691406 5.578125 16.902344 0.789062 10.996094 0.789062 Z M 10.996094 0.789062 " clip-rule="nonzero"/></clipPath><clipPath id="30f5ee7b55"><rect x="0" width="22" y="0" height="23"/></clipPath><clipPath id="f6cea31631"><path d="M 19 11 L 21.941406 11 L 21.941406 14 L 19 14 Z M 19 11 " clip-rule="nonzero"/></clipPath><clipPath id="5245a0bc4e"><path d="M 16 16 L 18 16 L 18 19.496094 L 16 19.496094 Z M 16 16 " clip-rule="nonzero"/></clipPath><clipPath id="6d5fa82503"><path d="M 18 12.238281 L 21.941406 12.238281 L 21.941406 17.613281 L 18 17.613281 Z M 18 12.238281 " clip-rule="nonzero"/></clipPath><clipPath id="54db8719d4"><path d="M 7.773438 5.273438 L 19.714844 5.273438 L 19.714844 19.496094 L 7.773438 19.496094 Z M 7.773438 5.273438 " clip-rule="nonzero"/></clipPath></defs><g clip-path="url(#a65aadbffa)"><g clip-path="url(#28f9fcfd9e)"><g transform="matrix(1, 0, 0, 1, 3, 0.000000000000005773)"><g clip-path="url(#db5beed230)"><g clip-path="url(#923737f024)"><g clip-path="url(#45b9f14ffb)"><path fill="#faab11" d="M 0.167969 0.683594 L 23.832031 0.683594 L 23.832031 29.25 L 0.167969 29.25 Z M 0.167969 0.683594 " fill-opacity="1" fill-rule="nonzero"/></g></g></g></g></g></g><g clip-path="url(#d91eafab3e)"><g clip-path="url(#d494376bf8)"><g transform="matrix(1, 0, 0, 1, 4, 1)"><g clip-path="url(#30f5ee7b55)"><g clip-path="url(#7606048453)"><g clip-path="url(#d35912c218)"><rect x="-10.6" width="43.2" fill="#ffffff" height="54.6048" y="-9.3424" fill-opacity="1"/></g></g></g></g></g></g><path fill="#1800ad" d="M 18.539062 8.1875 L 18.089844 8.1875 L 18.089844 8.636719 C 18.539062 8.636719 18.089844 8.636719 18.539062 8.636719 L 18.539062 8.1875 " fill-opacity="1" fill-rule="nonzero"/><g clip-path="url(#f6cea31631)"><path fill="#1800ad" d="M 19.800781 13.015625 L 20.113281 13.335938 L 20.273438 13.179688 C 20.550781 12.914062 20.84375 12.648438 21.148438 12.394531 L 21.320312 12.25 L 21.035156 11.90625 L 20.863281 12.050781 C 20.546875 12.3125 20.246094 12.582031 19.960938 12.859375 L 19.800781 13.015625 " fill-opacity="1" fill-rule="nonzero"/></g><path fill="#1800ad" d="M 19.210938 7.292969 L 18.761719 7.292969 L 18.761719 7.742188 C 19.210938 7.742188 18.761719 7.742188 19.210938 7.742188 L 19.210938 7.292969 " fill-opacity="1" fill-rule="nonzero"/><path fill="#1800ad" d="M 19.210938 8.636719 C 19.660156 8.636719 19.210938 8.636719 19.660156 8.636719 L 19.660156 8.1875 L 19.210938 8.1875 L 19.210938 8.636719 " fill-opacity="1" fill-rule="nonzero"/><path fill="#1800ad" d="M 14.574219 12.050781 L 15.003906 11.925781 L 14.945312 11.710938 C 14.898438 11.550781 14.824219 11.074219 15.039062 10.820312 C 15.183594 10.652344 15.449219 10.585938 15.824219 10.628906 L 16.015625 10.648438 L 16.066406 10.460938 C 16.066406 10.457031 16.230469 9.859375 16.730469 9.625 C 17.066406 9.46875 17.492188 9.511719 17.992188 9.75 L 18.078125 9.792969 L 18.164062 9.761719 C 18.175781 9.753906 19.441406 9.320312 20.046875 9.828125 C 20.347656 10.082031 20.445312 10.550781 20.335938 11.226562 L 20.300781 11.445312 L 20.742188 11.519531 L 20.777344 11.296875 C 20.914062 10.457031 20.765625 9.847656 20.335938 9.484375 C 19.636719 8.902344 18.441406 9.207031 18.105469 9.308594 C 17.511719 9.042969 16.984375 9.011719 16.542969 9.21875 C 16.046875 9.449219 15.796875 9.914062 15.695312 10.167969 C 15.246094 10.15625 14.910156 10.273438 14.695312 10.53125 C 14.285156 11.023438 14.503906 11.804688 14.511719 11.835938 L 14.574219 12.050781 " fill-opacity="1" fill-rule="nonzero"/><path fill="#1800ad" d="M 15.402344 9.308594 L 14.953125 9.308594 L 14.953125 9.757812 C 15.402344 9.757812 14.953125 9.757812 15.402344 9.757812 L 15.402344 9.308594 " fill-opacity="1" fill-rule="nonzero"/><path fill="#1800ad" d="M 16.296875 8.1875 L 15.847656 8.1875 L 15.847656 8.636719 C 16.296875 8.636719 15.847656 8.636719 16.296875 8.636719 L 16.296875 8.1875 " fill-opacity="1" fill-rule="nonzero"/><g clip-path="url(#5245a0bc4e)"><path fill="#1800ad" d="M 17.371094 16.308594 C 16.601562 17.832031 16.527344 18.886719 16.523438 18.933594 L 16.507812 19.15625 L 16.953125 19.1875 L 16.96875 18.960938 C 16.96875 18.953125 17.046875 17.945312 17.769531 16.507812 L 17.871094 16.308594 L 17.46875 16.105469 L 17.371094 16.308594 " fill-opacity="1" fill-rule="nonzero"/></g><path fill="#1800ad" d="M 19.660156 16.929688 C 20.109375 16.929688 19.660156 16.929688 20.109375 16.929688 L 20.109375 16.480469 L 19.660156 16.480469 L 19.660156 16.929688 " fill-opacity="1" fill-rule="nonzero"/><g clip-path="url(#6d5fa82503)"><path fill="#1800ad" d="M 21.929688 12.355469 L 21.902344 12.378906 L 21.757812 12.5 C 20.109375 13.875 18.886719 15.40625 18.121094 17.058594 L 18.023438 17.261719 L 18.433594 17.449219 L 18.527344 17.25 C 19.242188 15.703125 20.375 14.265625 21.902344 12.964844 C 21.949219 12.925781 21.996094 12.882812 22.046875 12.84375 L 22.214844 12.699219 L 21.929688 12.355469 " fill-opacity="1" fill-rule="nonzero"/></g><path fill="#1800ad" d="M 20.332031 15.808594 C 20.78125 15.808594 20.332031 15.808594 20.78125 15.808594 L 20.78125 15.363281 L 20.332031 15.363281 L 20.332031 15.808594 " fill-opacity="1" fill-rule="nonzero"/><path fill="#1800ad" d="M 19.660156 18.5 C 20.109375 18.5 19.660156 18.5 20.109375 18.5 L 20.109375 18.050781 L 19.660156 18.050781 L 19.660156 18.5 " fill-opacity="1" fill-rule="nonzero"/><g clip-path="url(#54db8719d4)"><path fill="#1800ad" d="M 17.679688 15.03125 L 16.453125 14.390625 L 16.628906 14.261719 C 16.652344 14.25 16.675781 14.234375 16.699219 14.21875 C 16.800781 14.207031 16.902344 14.1875 17.003906 14.15625 C 17.746094 13.929688 18.199219 13.355469 18.082031 12.796875 C 18.015625 12.480469 17.730469 12.222656 17.304688 12.097656 C 17.304688 12.09375 17.304688 12.09375 17.300781 12.09375 L 17.738281 11.265625 L 19.242188 12.054688 Z M 16.1875 13.734375 C 16.148438 13.71875 16.109375 13.703125 16.074219 13.683594 C 16.046875 13.667969 16.019531 13.652344 15.988281 13.628906 C 15.921875 13.578125 15.859375 13.503906 15.828125 13.402344 C 15.746094 13.128906 15.777344 12.90625 15.914062 12.75 C 15.921875 12.738281 15.929688 12.730469 15.941406 12.71875 C 16.042969 12.617188 16.195312 12.542969 16.367188 12.5 C 16.441406 12.484375 16.519531 12.472656 16.601562 12.464844 C 16.660156 12.460938 16.722656 12.460938 16.785156 12.460938 C 16.808594 12.464844 16.832031 12.464844 16.855469 12.464844 C 16.933594 12.472656 17.011719 12.484375 17.089844 12.503906 C 17.117188 12.507812 17.148438 12.515625 17.175781 12.527344 C 17.4375 12.601562 17.613281 12.738281 17.644531 12.890625 C 17.695312 13.144531 17.488281 13.429688 17.148438 13.613281 C 17.0625 13.65625 16.96875 13.699219 16.871094 13.730469 C 16.867188 13.730469 16.863281 13.730469 16.859375 13.730469 C 16.75 13.765625 16.640625 13.78125 16.535156 13.785156 C 16.496094 13.785156 16.457031 13.78125 16.417969 13.78125 C 16.335938 13.773438 16.257812 13.757812 16.1875 13.734375 Z M 15.9375 14.210938 L 15.742188 14.351562 L 14.054688 15.566406 L 13.832031 15.726562 L 13.609375 15.890625 L 13.308594 16.105469 C 13.304688 16.105469 13.300781 16.109375 13.296875 16.109375 L 12.265625 16.0625 L 12.078125 15.886719 L 12.1875 13.835938 C 12.195312 13.804688 12.199219 13.769531 12.203125 13.734375 L 13.179688 14.824219 L 13.609375 14.5 L 14.054688 14.15625 L 15.335938 13.183594 C 15.339844 13.289062 15.359375 13.402344 15.398438 13.53125 C 15.457031 13.730469 15.589844 13.90625 15.777344 14.03125 C 15.804688 14.046875 15.835938 14.0625 15.863281 14.078125 C 15.902344 14.101562 15.9375 14.117188 15.976562 14.132812 C 15.992188 14.136719 16.007812 14.144531 16.023438 14.148438 Z M 14.359375 16.542969 C 14.484375 16.554688 14.609375 16.585938 14.730469 16.628906 C 14.90625 16.691406 15.066406 16.777344 15.199219 16.878906 C 15.40625 17.042969 15.519531 17.230469 15.492188 17.375 C 15.449219 17.644531 15.101562 17.839844 14.667969 17.871094 C 14.59375 17.875 14.515625 17.875 14.4375 17.871094 C 14.414062 17.867188 14.390625 17.867188 14.367188 17.863281 C 14.261719 17.847656 14.15625 17.824219 14.0625 17.785156 C 14.058594 17.785156 14.058594 17.785156 14.054688 17.78125 C 13.976562 17.75 13.898438 17.710938 13.832031 17.664062 C 13.773438 17.625 13.722656 17.578125 13.683594 17.53125 C 13.65625 17.5 13.628906 17.464844 13.609375 17.421875 C 13.574219 17.355469 13.550781 17.277344 13.558594 17.1875 C 13.566406 17.09375 13.582031 17.011719 13.609375 16.941406 C 13.65625 16.808594 13.726562 16.707031 13.832031 16.640625 C 13.859375 16.625 13.882812 16.609375 13.910156 16.597656 C 13.914062 16.597656 13.917969 16.59375 13.921875 16.59375 C 13.964844 16.574219 14.011719 16.5625 14.054688 16.554688 C 14.152344 16.535156 14.253906 16.53125 14.359375 16.542969 Z M 11.976562 17.742188 L 11.753906 17.730469 L 11.53125 17.722656 L 10.109375 17.65625 C 9.734375 17.636719 9.394531 17.421875 9.210938 17.089844 L 8.441406 13.902344 L 8.421875 13.832031 L 8.429688 13.621094 C 8.542969 12.984375 9.089844 12.265625 9.609375 12.308594 L 9.976562 12.339844 C 10.1875 12.503906 10.4375 12.605469 10.707031 12.628906 C 10.75 12.632812 10.792969 12.636719 10.832031 12.636719 C 10.972656 12.636719 11.109375 12.613281 11.246094 12.570312 C 11.277344 12.59375 11.3125 12.617188 11.34375 12.640625 C 11.394531 12.683594 11.441406 12.726562 11.484375 12.777344 C 11.503906 12.800781 11.523438 12.824219 11.542969 12.847656 C 11.621094 12.953125 11.679688 13.066406 11.714844 13.191406 C 11.773438 13.375 11.785156 13.570312 11.746094 13.765625 L 11.652344 15.488281 L 11.636719 15.777344 L 11.621094 16.03125 L 11.578125 16.03125 L 10.941406 16 L 10.800781 15.304688 L 10.652344 14.550781 L 10.609375 14.335938 C 10.542969 13.984375 10.328125 13.699219 10.039062 13.527344 C 9.859375 13.421875 9.652344 13.363281 9.4375 13.363281 C 9.429688 13.363281 9.421875 13.363281 9.414062 13.363281 L 9.1875 13.367188 L 9.195312 13.660156 L 9.199219 13.816406 L 9.214844 13.816406 L 9.421875 13.8125 C 9.425781 13.8125 9.429688 13.8125 9.4375 13.8125 C 9.472656 13.8125 9.511719 13.816406 9.546875 13.820312 C 9.847656 13.867188 10.09375 14.09375 10.164062 14.398438 C 10.164062 14.40625 10.167969 14.414062 10.171875 14.421875 L 10.242188 14.777344 L 10.566406 16.429688 L 11.597656 16.480469 L 11.820312 16.488281 L 12.042969 16.5 L 12.144531 16.503906 L 13.292969 16.558594 C 13.285156 16.570312 13.277344 16.585938 13.269531 16.597656 C 13.191406 16.738281 13.128906 16.917969 13.109375 17.148438 C 13.089844 17.382812 13.167969 17.609375 13.332031 17.804688 Z M 9.71875 10.648438 C 9.730469 10.523438 9.753906 10.394531 9.796875 10.269531 C 9.976562 9.695312 10.433594 9.3125 10.921875 9.3125 C 10.949219 9.3125 10.976562 9.3125 11.003906 9.316406 C 11.574219 9.367188 12.019531 9.941406 12.035156 10.652344 C 12.039062 10.71875 12.039062 10.785156 12.03125 10.851562 C 11.996094 11.242188 11.839844 11.597656 11.589844 11.847656 C 11.492188 11.949219 11.382812 12.023438 11.269531 12.082031 C 11.101562 12.160156 10.925781 12.199219 10.746094 12.183594 C 10.523438 12.164062 10.320312 12.0625 10.152344 11.90625 C 9.851562 11.625 9.671875 11.15625 9.71875 10.648438 Z M 19.640625 12.265625 C 19.695312 12.160156 19.707031 12.039062 19.671875 11.921875 C 19.636719 11.808594 19.558594 11.714844 19.453125 11.660156 L 17.945312 10.867188 C 17.726562 10.753906 17.457031 10.835938 17.339844 11.058594 L 16.835938 12.015625 C 16.40625 11.992188 15.933594 12.09375 15.625 12.402344 C 15.621094 12.40625 15.617188 12.410156 15.613281 12.414062 L 14.054688 13.597656 L 14.054688 5.273438 L 13.609375 5.273438 L 13.609375 13.9375 L 13.238281 14.21875 L 12.109375 12.957031 C 12.058594 12.824219 11.988281 12.695312 11.902344 12.578125 C 11.839844 12.496094 11.769531 12.417969 11.691406 12.347656 C 11.765625 12.292969 11.839844 12.234375 11.90625 12.164062 C 12.230469 11.839844 12.433594 11.386719 12.476562 10.890625 C 12.484375 10.808594 12.488281 10.722656 12.484375 10.640625 C 12.464844 9.703125 11.84375 8.9375 11.042969 8.867188 C 10.3125 8.800781 9.625 9.324219 9.367188 10.132812 C 9.316406 10.292969 9.285156 10.449219 9.273438 10.605469 C 9.230469 11.070312 9.335938 11.507812 9.546875 11.859375 C 8.753906 11.871094 8.109375 12.832031 7.984375 13.558594 L 7.976562 13.800781 L 7.953125 13.804688 L 7.972656 13.882812 L 7.773438 19.613281 L 8.222656 19.625 L 8.230469 19.394531 L 8.363281 15.5 L 8.78125 17.222656 L 8.800781 17.273438 C 9.054688 17.757812 9.546875 18.078125 10.085938 18.101562 L 11.507812 18.167969 L 11.4375 19.394531 L 11.425781 19.609375 L 11.875 19.632812 L 11.953125 18.191406 L 13.609375 18.269531 L 13.609375 19.621094 L 14.054688 19.621094 L 14.054688 18.253906 C 14.167969 18.285156 14.285156 18.308594 14.40625 18.316406 C 14.460938 18.320312 14.515625 18.324219 14.570312 18.324219 C 15.285156 18.324219 15.847656 17.972656 15.933594 17.449219 C 15.988281 17.132812 15.820312 16.796875 15.472656 16.527344 C 15.117188 16.246094 14.570312 16.042969 14.082031 16.097656 L 16.046875 14.679688 L 17.472656 15.429688 C 17.539062 15.464844 17.609375 15.480469 17.679688 15.480469 C 17.839844 15.480469 17.996094 15.394531 18.078125 15.242188 L 19.640625 12.265625 " fill-opacity="1" fill-rule="nonzero"/></g><path fill="#1800ad" d="M 18.761719 18.050781 C 19.210938 18.050781 18.761719 18.050781 19.210938 18.050781 L 19.210938 17.601562 L 18.761719 17.601562 L 18.761719 18.050781 " fill-opacity="1" fill-rule="nonzero"/></svg>