<svg xmlns="http://www.w3.org/2000/svg" xmlns:xlink="http://www.w3.org/1999/xlink" width="40" zoomAndPan="magnify" viewBox="0 0 30 37.92" height="40" preserveAspectRatio="xMidYMid meet" version="1.0"><defs><clipPath id="39abda291f"><path d="M 3.113281 0.683594 L 26.886719 0.683594 L 26.886719 29.300781 L 3.113281 29.300781 Z M 3.113281 0.683594 " clip-rule="nonzero"/></clipPath><clipPath id="519770b266"><path d="M 19.457031 1.550781 C 18.035156 0.976562 16.539062 0.683594 15 0.683594 C 13.460938 0.683594 11.964844 0.976562 10.542969 1.550781 C 9.078125 2.144531 7.757812 3.019531 6.632812 4.148438 C 4.429688 6.355469 3.199219 9.285156 3.167969 12.402344 C 3.136719 15.511719 4.304688 18.464844 6.460938 20.707031 L 6.453125 20.710938 L 15 29.257812 L 23.5 20.757812 L 23.492188 20.753906 C 25.667969 18.511719 26.855469 15.558594 26.832031 12.433594 C 26.8125 9.300781 25.582031 6.363281 23.367188 4.148438 C 22.234375 3.019531 20.921875 2.144531 19.457031 1.550781 Z M 19.457031 1.550781 " clip-rule="nonzero"/></clipPath><clipPath id="e3fc02a6df"><path d="M 0.144531 0.683594 L 23.855469 0.683594 L 23.855469 29.300781 L 0.144531 29.300781 Z M 0.144531 0.683594 " clip-rule="nonzero"/></clipPath><clipPath id="29e251cbf4"><path d="M 16.457031 1.550781 C 15.035156 0.976562 13.539062 0.683594 12 0.683594 C 10.460938 0.683594 8.964844 0.976562 7.542969 1.550781 C 6.078125 2.144531 4.757812 3.019531 3.632812 4.148438 C 1.429688 6.355469 0.199219 9.285156 0.167969 12.402344 C 0.136719 15.511719 1.304688 18.464844 3.460938 20.707031 L 3.453125 20.710938 L 12 29.257812 L 20.5 20.757812 L 20.492188 20.753906 C 22.667969 18.511719 23.855469 15.558594 23.832031 12.433594 C 23.8125 9.300781 22.582031 6.363281 20.367188 4.148438 C 19.234375 3.019531 17.921875 2.144531 16.457031 1.550781 Z M 16.457031 1.550781 " clip-rule="nonzero"/></clipPath><clipPath id="122d77d033"><rect x="0" width="24" y="0" height="30"/></clipPath><clipPath id="92161f925e"><path d="M 4.261719 1.777344 L 25.738281 1.777344 L 25.738281 23.203125 L 4.261719 23.203125 Z M 4.261719 1.777344 " clip-rule="nonzero"/></clipPath><clipPath id="85f3d209ba"><path d="M 14.996094 1.789062 C 9.089844 1.789062 4.300781 6.578125 4.300781 12.484375 C 4.300781 18.390625 9.089844 23.179688 14.996094 23.179688 C 20.902344 23.179688 25.691406 18.390625 25.691406 12.484375 C 25.691406 6.578125 20.902344 1.789062 14.996094 1.789062 Z M 14.996094 1.789062 " clip-rule="nonzero"/></clipPath><clipPath id="fea4a5cae4"><path d="M 0.261719 0.777344 L 21.738281 0.777344 L 21.738281 22.203125 L 0.261719 22.203125 Z M 0.261719 0.777344 " clip-rule="nonzero"/></clipPath><clipPath id="ffa35e2e03"><path d="M 10.996094 0.789062 C 5.089844 0.789062 0.300781 5.578125 0.300781 11.484375 C 0.300781 17.390625 5.089844 22.179688 10.996094 22.179688 C 16.902344 22.179688 21.691406 17.390625 21.691406 11.484375 C 21.691406 5.578125 16.902344 0.789062 10.996094 0.789062 Z M 10.996094 0.789062 " clip-rule="nonzero"/></clipPath><clipPath id="5cfaeeddff"><rect x="0" width="22" y="0" height="23"/></clipPath><clipPath id="0f0ff53721"><path d="M 5.894531 2.992188 L 23.855469 2.992188 L 23.855469 20.957031 L 5.894531 20.957031 Z M 5.894531 2.992188 " clip-rule="nonzero"/></clipPath></defs><g clip-path="url(#39abda291f)"><g clip-path="url(#519770b266)"><g transform="matrix(1, 0, 0, 1, 3, 0.000000000000005773)"><g clip-path="url(#122d77d033)"><g clip-path="url(#e3fc02a6df)"><g clip-path="url(#29e251cbf4)"><path fill="#faab11" d="M 0.167969 0.683594 L 23.832031 0.683594 L 23.832031 29.25 L 0.167969 29.25 Z M 0.167969 0.683594 " fill-opacity="1" fill-rule="nonzero"/></g></g></g></g></g></g><g clip-path="url(#92161f925e)"><g clip-path="url(#85f3d209ba)"><g transform="matrix(1, 0, 0, 1, 4, 1)"><g clip-path="url(#5cfaeeddff)"><g clip-path="url(#fea4a5cae4)"><g clip-path="url(#ffa35e2e03)"><rect x="-10.6" width="43.2" fill="#ffffff" height="54.6048" y="-9.3424" fill-opacity="1"/></g></g></g></g></g></g><g clip-path="url(#0f0ff53721)"><path fill="#000000" d="M 9.441406 16.898438 C 9.253906 16.886719 9.074219 16.945312 8.945312 17.082031 C 8.6875 17.355469 8.738281 17.824219 9.054688 18.132812 C 9.375 18.441406 9.839844 18.472656 10.097656 18.199219 C 10.351562 17.925781 10.304688 17.457031 9.984375 17.148438 C 9.828125 16.996094 9.628906 16.910156 9.441406 16.898438 Z M 15.046875 8.382812 C 15.1875 8.390625 15.332031 8.40625 15.472656 8.429688 L 15.726562 8.488281 L 13.578125 10.753906 L 14.070312 12.835938 L 16.144531 13.242188 L 18.292969 10.972656 L 18.359375 11.230469 C 18.601562 12.363281 18.300781 13.597656 17.445312 14.5 C 16.59375 15.402344 15.386719 15.757812 14.257812 15.5625 L 14.003906 15.503906 L 10.421875 19.285156 C 10.03125 19.699219 9.382812 19.710938 8.976562 19.316406 L 7.890625 18.265625 C 7.480469 17.867188 7.46875 17.210938 7.859375 16.796875 L 11.4375 13.019531 L 11.371094 12.761719 C 11.128906 11.628906 11.429688 10.394531 12.28125 9.492188 C 13.03125 8.703125 14.046875 8.332031 15.046875 8.382812 Z M 16.027344 2.992188 C 16.347656 2.992188 16.605469 3.253906 16.605469 3.578125 L 16.609375 5.046875 L 16.601562 5.136719 L 16.632812 5.144531 C 17.199219 5.292969 17.738281 5.507812 18.238281 5.78125 L 18.363281 5.855469 L 19.40625 4.75 C 19.640625 4.503906 20.03125 4.492188 20.277344 4.730469 L 21.90625 6.3125 C 22.03125 6.429688 22.09375 6.589844 22.097656 6.746094 C 22.101562 6.90625 22.042969 7.066406 21.925781 7.191406 L 20.878906 8.296875 L 21.09375 8.660156 C 21.367188 9.164062 21.582031 9.710938 21.726562 10.28125 L 21.734375 10.3125 L 21.789062 10.304688 L 23.261719 10.304688 C 23.585938 10.300781 23.851562 10.566406 23.851562 10.894531 L 23.851562 12.0625 L 23.855469 13.019531 C 23.855469 13.347656 23.59375 13.613281 23.269531 13.613281 L 21.796875 13.617188 L 21.742188 13.609375 L 21.734375 13.640625 C 21.589844 14.214844 21.378906 14.757812 21.105469 15.265625 L 20.890625 15.628906 L 21.945312 16.730469 C 22.0625 16.855469 22.117188 17.015625 22.117188 17.171875 C 22.113281 17.332031 22.050781 17.492188 21.929688 17.609375 L 20.304688 19.195312 C 20.058594 19.4375 19.671875 19.429688 19.433594 19.183594 L 18.382812 18.082031 L 18.261719 18.15625 C 17.761719 18.433594 17.226562 18.648438 16.660156 18.796875 L 16.625 18.804688 L 16.636719 18.894531 L 16.636719 20.363281 C 16.636719 20.6875 16.378906 20.949219 16.0625 20.953125 L 13.730469 20.957031 C 13.410156 20.957031 13.152344 20.695312 13.152344 20.371094 L 13.148438 18.902344 L 13.15625 18.8125 L 13.125 18.804688 C 12.839844 18.730469 12.566406 18.640625 12.296875 18.535156 L 12.292969 18.53125 L 13.558594 17.191406 L 13.980469 17.285156 C 15.667969 17.578125 17.460938 17.046875 18.734375 15.703125 C 20.769531 13.554688 20.695312 10.140625 18.574219 8.078125 C 16.445312 6.019531 13.074219 6.09375 11.039062 8.242188 C 9.765625 9.585938 9.316406 11.425781 9.679688 13.117188 L 9.789062 13.539062 L 8.476562 14.921875 L 8.46875 14.902344 C 8.289062 14.511719 8.140625 14.097656 8.027344 13.667969 L 8.023438 13.636719 L 7.960938 13.644531 L 6.488281 13.644531 C 6.164062 13.648438 5.902344 13.382812 5.902344 13.054688 L 5.898438 12.097656 L 5.898438 11.886719 L 5.894531 10.929688 C 5.894531 10.601562 6.15625 10.335938 6.480469 10.335938 L 7.953125 10.332031 L 8.015625 10.339844 L 8.023438 10.308594 C 8.167969 9.734375 8.378906 9.191406 8.652344 8.683594 L 8.835938 8.371094 L 8.761719 8.304688 L 7.75 7.246094 C 7.527344 7.015625 7.535156 6.644531 7.765625 6.417969 L 9.441406 4.78125 C 9.671875 4.558594 10.035156 4.5625 10.261719 4.796875 L 11.269531 5.855469 L 11.308594 5.90625 L 11.496094 5.792969 C 11.996094 5.519531 12.53125 5.300781 13.097656 5.152344 L 13.132812 5.144531 L 13.121094 5.054688 L 13.121094 3.585938 C 13.121094 3.261719 13.378906 3 13.695312 3 Z M 16.027344 2.992188 " fill-opacity="1" fill-rule="evenodd"/></g></svg>