<svg xmlns="http://www.w3.org/2000/svg" xmlns:xlink="http://www.w3.org/1999/xlink" width="40" zoomAndPan="magnify" viewBox="0 0 30 37.92" height="40" preserveAspectRatio="xMidYMid meet" version="1.0"><defs><clipPath id="3fcbabdbee"><path d="M 3.113281 0.683594 L 26.886719 0.683594 L 26.886719 29.300781 L 3.113281 29.300781 Z M 3.113281 0.683594 " clip-rule="nonzero"/></clipPath><clipPath id="bde95fa5f1"><path d="M 19.457031 1.550781 C 18.035156 0.976562 16.539062 0.683594 15 0.683594 C 13.460938 0.683594 11.964844 0.976562 10.542969 1.550781 C 9.078125 2.144531 7.757812 3.019531 6.632812 4.148438 C 4.429688 6.355469 3.199219 9.285156 3.167969 12.402344 C 3.136719 15.511719 4.304688 18.464844 6.460938 20.707031 L 6.453125 20.710938 L 15 29.257812 L 23.5 20.757812 L 23.492188 20.753906 C 25.667969 18.511719 26.855469 15.558594 26.832031 12.433594 C 26.8125 9.300781 25.582031 6.363281 23.367188 4.148438 C 22.234375 3.019531 20.921875 2.144531 19.457031 1.550781 Z M 19.457031 1.550781 " clip-rule="nonzero"/></clipPath><clipPath id="37df75366f"><path d="M 0.144531 0.683594 L 23.855469 0.683594 L 23.855469 29.300781 L 0.144531 29.300781 Z M 0.144531 0.683594 " clip-rule="nonzero"/></clipPath><clipPath id="a054bd1043"><path d="M 16.457031 1.550781 C 15.035156 0.976562 13.539062 0.683594 12 0.683594 C 10.460938 0.683594 8.964844 0.976562 7.542969 1.550781 C 6.078125 2.144531 4.757812 3.019531 3.632812 4.148438 C 1.429688 6.355469 0.199219 9.285156 0.167969 12.402344 C 0.136719 15.511719 1.304688 18.464844 3.460938 20.707031 L 3.453125 20.710938 L 12 29.257812 L 20.5 20.757812 L 20.492188 20.753906 C 22.667969 18.511719 23.855469 15.558594 23.832031 12.433594 C 23.8125 9.300781 22.582031 6.363281 20.367188 4.148438 C 19.234375 3.019531 17.921875 2.144531 16.457031 1.550781 Z M 16.457031 1.550781 " clip-rule="nonzero"/></clipPath><clipPath id="97aac71a07"><rect x="0" width="24" y="0" height="30"/></clipPath><clipPath id="bf170f73a9"><path d="M 4.261719 1.777344 L 25.738281 1.777344 L 25.738281 23.203125 L 4.261719 23.203125 Z M 4.261719 1.777344 " clip-rule="nonzero"/></clipPath><clipPath id="0c19e640a0"><path d="M 14.996094 1.789062 C 9.089844 1.789062 4.300781 6.578125 4.300781 12.484375 C 4.300781 18.390625 9.089844 23.179688 14.996094 23.179688 C 20.902344 23.179688 25.691406 18.390625 25.691406 12.484375 C 25.691406 6.578125 20.902344 1.789062 14.996094 1.789062 Z M 14.996094 1.789062 " clip-rule="nonzero"/></clipPath><clipPath id="acbfd5670e"><path d="M 0.261719 0.777344 L 21.738281 0.777344 L 21.738281 22.203125 L 0.261719 22.203125 Z M 0.261719 0.777344 " clip-rule="nonzero"/></clipPath><clipPath id="a97846fc43"><path d="M 10.996094 0.789062 C 5.089844 0.789062 0.300781 5.578125 0.300781 11.484375 C 0.300781 17.390625 5.089844 22.179688 10.996094 22.179688 C 16.902344 22.179688 21.691406 17.390625 21.691406 11.484375 C 21.691406 5.578125 16.902344 0.789062 10.996094 0.789062 Z M 10.996094 0.789062 " clip-rule="nonzero"/></clipPath><clipPath id="8f414a86a2"><rect x="0" width="22" y="0" height="23"/></clipPath><clipPath id="839ce58fc4"><path d="M 13 6 L 22.453125 6 L 22.453125 19 L 13 19 Z M 13 6 " clip-rule="nonzero"/></clipPath><clipPath id="02f13e48b0"><path d="M 7.484375 5.117188 L 16 5.117188 L 16 17 L 7.484375 17 Z M 7.484375 5.117188 " clip-rule="nonzero"/></clipPath><clipPath id="08313fa56d"><path d="M 7.484375 9 L 22.453125 9 L 22.453125 20 L 7.484375 20 Z M 7.484375 9 " clip-rule="nonzero"/></clipPath></defs><g clip-path="url(#3fcbabdbee)"><g clip-path="url(#bde95fa5f1)"><g transform="matrix(1, 0, 0, 1, 3, 0.000000000000005773)"><g clip-path="url(#97aac71a07)"><g clip-path="url(#37df75366f)"><g clip-path="url(#a054bd1043)"><path fill="#faab11" d="M 0.167969 0.683594 L 23.832031 0.683594 L 23.832031 29.25 L 0.167969 29.25 Z M 0.167969 0.683594 " fill-opacity="1" fill-rule="nonzero"/></g></g></g></g></g></g><g clip-path="url(#bf170f73a9)"><g clip-path="url(#0c19e640a0)"><g transform="matrix(1, 0, 0, 1, 4, 1)"><g clip-path="url(#8f414a86a2)"><g clip-path="url(#acbfd5670e)"><g clip-path="url(#a97846fc43)"><rect x="-10.6" width="43.2" fill="#ffffff" height="54.6048" y="-9.3424" fill-opacity="1"/></g></g></g></g></g></g><g clip-path="url(#839ce58fc4)"><path fill="#1800ad" d="M 22.511719 9.332031 L 22.511719 18.109375 L 21.902344 18.109375 L 21.902344 9.585938 L 16.703125 6.804688 L 16.210938 7.066406 L 16.042969 7.160156 L 13.273438 8.644531 L 15.667969 6.957031 L 15.863281 6.820312 L 16.703125 6.230469 Z M 22.511719 9.332031 " fill-opacity="1" fill-rule="nonzero"/></g><g clip-path="url(#02f13e48b0)"><path fill="#1800ad" d="M 15.628906 6.761719 L 15.457031 6.855469 L 15.082031 6.65625 L 13.292969 5.695312 L 8.097656 8.476562 L 8.097656 16.742188 L 7.484375 16.742188 L 7.484375 8.222656 L 13.292969 5.121094 L 15.28125 6.515625 Z M 15.628906 6.761719 " fill-opacity="1" fill-rule="nonzero"/></g><path fill="#1800ad" d="M 12.8125 16.300781 C 12.878906 16.300781 12.933594 16.226562 12.933594 16.132812 C 12.933594 16.042969 12.878906 15.96875 12.8125 15.96875 C 12.742188 15.96875 12.6875 16.042969 12.6875 16.132812 C 12.6875 16.226562 12.742188 16.300781 12.8125 16.300781 Z M 12.8125 16.300781 " fill-opacity="1" fill-rule="nonzero"/><path fill="#1800ad" d="M 13.515625 9.910156 C 13.519531 9.917969 13.53125 9.933594 13.53125 9.941406 C 13.527344 9.875 13.523438 9.804688 13.5 9.742188 C 13.492188 9.714844 13.476562 9.6875 13.453125 9.675781 C 13.429688 9.660156 13.390625 9.664062 13.378906 9.6875 C 13.371094 9.699219 13.367188 9.710938 13.367188 9.722656 C 13.367188 9.761719 13.375 9.796875 13.390625 9.832031 C 13.394531 9.835938 13.398438 9.839844 13.402344 9.839844 C 13.40625 9.839844 13.410156 9.839844 13.410156 9.835938 C 13.421875 9.824219 13.429688 9.796875 13.445312 9.792969 C 13.464844 9.816406 13.476562 9.84375 13.492188 9.871094 C 13.5 9.882812 13.507812 9.898438 13.515625 9.910156 Z M 13.515625 9.910156 " fill-opacity="1" fill-rule="nonzero"/><g clip-path="url(#08313fa56d)"><path fill="#1800ad" d="M 22.398438 18.371094 L 22.097656 18.332031 L 18.507812 17.847656 L 18.421875 17.835938 C 18.355469 17.828125 18.289062 17.816406 18.226562 17.808594 C 18.230469 17.808594 18.230469 17.808594 18.234375 17.808594 L 18.132812 17.792969 C 18.136719 17.792969 18.136719 17.796875 18.140625 17.796875 C 18.117188 17.792969 18.09375 17.789062 18.066406 17.785156 C 17.933594 17.769531 17.796875 17.75 17.664062 17.734375 L 18.019531 17.582031 C 18.132812 17.683594 18.175781 17.699219 18.28125 17.6875 C 18.296875 17.6875 18.316406 17.683594 18.335938 17.679688 C 18.382812 17.671875 18.398438 17.65625 18.398438 17.632812 C 18.394531 17.601562 18.347656 17.554688 18.300781 17.507812 C 18.289062 17.496094 18.277344 17.488281 18.269531 17.476562 L 18.410156 17.417969 C 18.453125 17.449219 18.492188 17.484375 18.53125 17.511719 C 18.550781 17.523438 18.566406 17.535156 18.582031 17.546875 C 18.628906 17.578125 18.667969 17.601562 18.695312 17.605469 C 18.804688 17.628906 18.835938 17.59375 18.863281 17.515625 C 18.871094 17.496094 18.878906 17.472656 18.886719 17.445312 C 18.894531 17.429688 18.894531 17.417969 18.890625 17.402344 C 18.886719 17.355469 18.847656 17.308594 18.800781 17.257812 L 20.847656 16.398438 L 21.367188 16.179688 L 20.875 16.167969 L 20.121094 16.152344 L 18.164062 16.113281 L 18.023438 16.109375 C 17.984375 16.085938 17.957031 16.070312 17.957031 16.070312 C 17.957031 16.070312 17.753906 16.15625 17.5625 16.21875 C 17.457031 16.257812 17.351562 16.289062 17.292969 16.292969 C 17.273438 16.289062 17.261719 16.285156 17.246094 16.285156 C 17.230469 16.273438 17.214844 16.25 17.203125 16.210938 C 17.183594 16.160156 17.171875 16.085938 17.160156 15.996094 C 17.152344 15.9375 17.140625 15.867188 17.132812 15.800781 C 17.121094 15.710938 17.109375 15.621094 17.085938 15.539062 C 17.019531 15.238281 16.777344 14.660156 16.667969 14.40625 C 16.558594 14.15625 16.597656 13.988281 16.527344 13.746094 C 16.457031 13.507812 16.257812 13.257812 16.238281 13.214844 C 16.214844 13.175781 17 12.625 17 12.625 C 17 12.625 17.027344 12.714844 17.058594 12.875 C 17.085938 13.035156 17.40625 13.707031 17.488281 13.976562 C 17.542969 14.15625 17.71875 14.972656 17.832031 15.503906 C 17.847656 15.574219 17.859375 15.636719 17.871094 15.695312 C 17.90625 15.863281 17.929688 15.96875 17.929688 15.96875 C 17.929688 15.96875 17.980469 15.8125 18.039062 15.625 C 18.0625 15.546875 18.089844 15.464844 18.117188 15.386719 C 18.132812 15.335938 18.144531 15.289062 18.160156 15.246094 C 18.25 14.96875 18.117188 14.875 18.109375 14.769531 C 18.097656 14.65625 18.078125 14.558594 18.039062 14.425781 C 18 14.296875 18.019531 14.066406 18.027344 13.835938 C 18.039062 13.605469 18.160156 12.734375 18.238281 12.40625 C 18.320312 12.074219 18.1875 11.9375 18.019531 11.65625 C 17.847656 11.375 17.820312 11.042969 17.820312 11.042969 C 17.820312 11.042969 17.707031 11.15625 17.609375 11.214844 C 17.507812 11.273438 17.019531 11.386719 16.988281 11.386719 C 16.957031 11.386719 16.90625 11.214844 16.789062 10.992188 C 16.671875 10.785156 16.425781 10.449219 16.398438 10.417969 C 16.421875 10.464844 16.730469 11.050781 16.796875 11.253906 C 16.867188 11.464844 17.140625 12.105469 17.140625 12.105469 C 17.140625 12.105469 17.140625 12.164062 17.019531 12.324219 C 16.898438 12.484375 16.128906 13.074219 16.128906 13.074219 C 16.128906 13.074219 16.058594 12.984375 15.996094 12.925781 C 15.9375 12.863281 15.9375 12.625 15.878906 12.484375 C 15.816406 12.34375 15.65625 12.164062 15.597656 12.074219 C 15.539062 11.984375 15.597656 11.914062 15.539062 11.820312 C 15.476562 11.726562 15.136719 11.691406 14.855469 11.421875 C 14.578125 11.152344 14.554688 10.355469 14.53125 10.300781 C 14.507812 10.246094 14.332031 10.21875 14.304688 10.078125 C 14.28125 9.9375 14.304688 9.703125 14.304688 9.578125 C 14.304688 9.453125 14.683594 9.257812 14.796875 9.210938 C 14.914062 9.164062 15.296875 9.210938 15.527344 9.261719 C 15.742188 9.308594 16.53125 9.753906 16.628906 9.804688 C 16.539062 9.746094 15.828125 9.28125 15.519531 9.195312 C 15.1875 9.105469 15.167969 9.121094 15.082031 9.101562 C 14.996094 9.082031 14.980469 9.027344 14.863281 9.007812 C 14.742188 8.988281 14.777344 9.121094 14.410156 9.113281 C 14.085938 9.101562 13.574219 9.347656 13.460938 9.425781 C 13.460938 9.425781 13.433594 9.429688 13.402344 9.433594 C 13.371094 9.4375 13.339844 9.441406 13.335938 9.441406 C 13.328125 9.441406 13.246094 9.4375 13.175781 9.433594 C 13.15625 9.425781 13.132812 9.417969 13.113281 9.410156 C 13.015625 9.367188 12.527344 9.003906 12.292969 9.007812 C 12.058594 9.015625 11.714844 9.277344 11.679688 9.296875 C 11.648438 9.316406 11.539062 9.269531 11.546875 9.441406 C 11.546875 9.449219 11.546875 9.453125 11.546875 9.460938 C 11.558594 9.652344 11.390625 9.671875 11.339844 9.96875 C 11.289062 10.242188 11.394531 10.488281 11.546875 10.683594 C 11.566406 10.703125 11.585938 10.722656 11.605469 10.742188 C 11.691406 10.792969 11.835938 10.941406 11.949219 10.925781 C 12.058594 10.804688 12.230469 10.640625 12.449219 10.515625 C 12.867188 10.273438 12.992188 10.167969 13.03125 10.039062 C 13.03125 10.039062 13.089844 10.199219 12.777344 10.378906 C 12.460938 10.558594 12.140625 10.789062 12.074219 10.894531 C 12.050781 10.9375 12.003906 10.980469 11.960938 11.03125 C 11.972656 11.167969 11.996094 11.304688 12.027344 11.441406 C 12.042969 11.511719 12.054688 11.582031 12.070312 11.652344 C 12.078125 11.691406 12.078125 11.765625 12.101562 11.796875 C 12.105469 11.800781 12.105469 11.800781 12.105469 11.804688 C 12.117188 11.8125 12.128906 11.816406 12.136719 11.820312 C 12.277344 11.851562 12.339844 11.675781 12.445312 11.539062 L 12.503906 11.65625 C 12.503906 11.65625 12.210938 11.816406 12.035156 12.109375 C 11.859375 12.398438 11.996094 12.359375 12.035156 12.667969 C 12.070312 12.9375 12.125 15.3125 12.140625 15.957031 C 12.140625 15.976562 12.140625 15.996094 12.140625 16.011719 L 12.128906 16.011719 C 12.128906 16.011719 12.105469 16.015625 12.105469 16.015625 C 11.949219 16.070312 11.789062 16.125 11.628906 16.179688 C 11.546875 16.207031 11.46875 16.234375 11.390625 16.265625 L 11.152344 16.351562 C 10.996094 16.410156 10.835938 16.46875 10.679688 16.53125 L 10.207031 16.710938 L 9.8125 16.867188 L 10.105469 16.898438 L 10.230469 16.914062 L 10.695312 16.964844 C 10.851562 16.980469 11.003906 17 11.160156 17.015625 L 11.394531 17.046875 L 11.625 17.074219 L 12.042969 17.128906 C 11.828125 17.390625 11.570312 17.707031 11.589844 17.804688 C 11.621094 17.949219 11.777344 18.023438 11.847656 18.03125 L 11.476562 18.1875 L 8.234375 17.578125 L 7.882812 17.707031 L 15.246094 19.09375 L 15.570312 19.15625 L 16.726562 19.371094 L 16.75 19.375 L 19.824219 19.957031 L 19.828125 19.957031 L 20.070312 19.808594 L 22.183594 18.5 L 22.398438 18.367188 Z M 18.289062 16.347656 C 18.304688 16.355469 18.324219 16.363281 18.339844 16.371094 L 18.332031 16.355469 L 20.121094 16.386719 L 20.359375 16.390625 L 18.65625 17.117188 C 18.621094 17.082031 18.589844 17.046875 18.5625 17.011719 C 18.457031 16.863281 18.375 16.699219 18.261719 16.476562 C 18.210938 16.375 18.1875 16.335938 18.179688 16.316406 C 18.167969 16.292969 18.175781 16.292969 18.171875 16.253906 C 18.207031 16.289062 18.242188 16.320312 18.289062 16.34375 Z M 18.257812 17.289062 L 18.160156 17.332031 C 18.121094 17.273438 18.089844 17.21875 18.082031 17.171875 C 18.078125 17.144531 18.15625 17.203125 18.257812 17.289062 Z M 16.15625 16.785156 C 16.265625 16.851562 16.5625 17 16.71875 17.066406 C 16.902344 17.148438 17.171875 17.066406 17.226562 17.039062 C 17.28125 17.007812 17.230469 16.636719 17.226562 16.558594 C 17.222656 16.476562 17.273438 16.359375 17.269531 16.394531 C 17.261719 16.433594 17.304688 16.789062 17.304688 16.921875 C 17.304688 17.054688 17.292969 17.261719 17.203125 17.363281 C 17.164062 17.410156 17.132812 17.457031 17.125 17.496094 C 17.113281 17.539062 17.132812 17.574219 17.191406 17.585938 C 17.289062 17.609375 17.398438 17.578125 17.488281 17.5 C 17.496094 17.496094 17.503906 17.488281 17.511719 17.480469 C 17.609375 17.390625 17.625 17.171875 17.609375 17.144531 C 17.589844 17.117188 17.449219 16.820312 17.558594 16.988281 C 17.644531 17.109375 17.773438 17.304688 17.890625 17.445312 L 17.324219 17.6875 L 17.074219 17.65625 C 16.777344 17.613281 16.476562 17.574219 16.179688 17.53125 L 14.183594 17.253906 L 14.125 17.246094 C 14.125 17.242188 14.125 17.238281 14.125 17.234375 C 14.128906 17.230469 14.128906 17.222656 14.128906 17.21875 L 14.128906 17.214844 L 14.136719 17.167969 C 14.140625 17.136719 14.140625 17.105469 14.144531 17.074219 C 14.144531 17.070312 14.144531 17.066406 14.144531 17.0625 C 14.148438 17.003906 14.148438 16.945312 14.148438 16.882812 C 14.148438 16.859375 14.144531 16.835938 14.140625 16.8125 C 14.148438 16.8125 14.160156 16.8125 14.167969 16.8125 L 14.207031 16.804688 C 14.230469 16.796875 14.246094 16.792969 14.265625 16.785156 C 14.335938 16.761719 14.40625 16.738281 14.476562 16.710938 L 14.53125 16.6875 C 14.546875 16.679688 14.566406 16.671875 14.585938 16.660156 C 14.59375 16.65625 14.605469 16.648438 14.617188 16.644531 L 14.6875 16.597656 C 14.707031 16.585938 14.722656 16.574219 14.746094 16.550781 C 14.757812 16.539062 14.773438 16.523438 14.785156 16.488281 C 14.785156 16.480469 14.789062 16.472656 14.789062 16.460938 L 14.789062 16.453125 C 14.789062 16.453125 14.789062 16.441406 14.789062 16.441406 L 14.789062 16.421875 C 14.789062 16.421875 14.824219 16.417969 14.824219 16.417969 C 14.832031 16.417969 14.839844 16.417969 14.847656 16.417969 C 14.855469 16.417969 14.859375 16.417969 14.867188 16.414062 L 14.878906 16.414062 L 14.882812 16.410156 C 14.890625 16.410156 14.894531 16.40625 14.898438 16.402344 L 14.90625 16.402344 C 14.90625 16.402344 14.910156 16.394531 14.910156 16.394531 L 14.914062 16.394531 L 14.921875 16.386719 C 14.925781 16.382812 14.929688 16.378906 14.933594 16.375 C 14.9375 16.371094 14.941406 16.367188 14.945312 16.363281 C 14.949219 16.351562 14.957031 16.34375 14.960938 16.335938 C 14.972656 16.316406 14.980469 16.296875 14.988281 16.277344 C 14.988281 16.273438 14.988281 16.273438 14.988281 16.269531 L 15.660156 16.285156 C 15.714844 16.328125 15.734375 16.410156 15.78125 16.457031 C 15.835938 16.511719 15.898438 16.550781 15.945312 16.609375 C 16.011719 16.683594 16.070312 16.753906 16.152344 16.785156 Z M 14.285156 16.230469 C 14.277344 16.210938 14.265625 16.183594 14.25 16.160156 C 14.246094 16.152344 14.242188 16.140625 14.234375 16.132812 C 14.390625 16.144531 14.542969 16.152344 14.648438 16.160156 C 14.667969 16.160156 14.6875 16.164062 14.703125 16.164062 C 14.734375 16.164062 14.757812 16.167969 14.773438 16.167969 C 14.789062 16.171875 14.796875 16.171875 14.796875 16.171875 C 14.796875 16.171875 14.796875 16.175781 14.800781 16.175781 C 14.800781 16.175781 14.804688 16.175781 14.808594 16.175781 C 14.867188 16.183594 14.867188 16.261719 14.808594 16.269531 C 14.765625 16.277344 14.71875 16.269531 14.675781 16.269531 C 14.65625 16.269531 14.632812 16.269531 14.609375 16.269531 C 14.523438 16.277344 14.40625 16.28125 14.289062 16.285156 C 14.292969 16.269531 14.289062 16.25 14.285156 16.230469 Z M 14.738281 13.351562 C 14.988281 13.402344 15.597656 13.269531 15.597656 13.269531 C 15.597656 13.269531 15.796875 14.011719 15.808594 14.320312 C 15.816406 14.628906 15.996094 15.777344 15.996094 15.800781 C 15.996094 15.828125 15.933594 15.925781 15.878906 16.03125 C 15.851562 16.050781 15.824219 16.066406 15.796875 16.078125 C 15.789062 16.082031 15.785156 16.085938 15.78125 16.089844 L 14.898438 16.078125 L 14.8125 16.078125 C 14.769531 16.054688 14.761719 16 14.734375 15.929688 C 14.710938 15.863281 14.675781 15.8125 14.609375 15.761719 C 14.542969 15.707031 14.453125 15.59375 14.40625 15.535156 C 14.363281 15.480469 14.28125 15.421875 14.167969 15.40625 C 14.046875 15.386719 13.875 15.449219 13.832031 15.457031 C 13.789062 15.464844 13.738281 15.421875 13.738281 15.421875 L 13.738281 15.566406 C 13.738281 15.566406 13.742188 15.566406 13.742188 15.566406 C 13.792969 15.550781 14.121094 15.460938 14.21875 15.496094 C 14.324219 15.535156 14.421875 15.726562 14.488281 15.765625 C 14.550781 15.804688 14.613281 15.90625 14.617188 15.925781 C 14.621094 15.933594 14.628906 15.980469 14.636719 16.042969 C 14.640625 16.058594 14.640625 16.078125 14.644531 16.097656 C 14.519531 16.085938 14.355469 16.074219 14.183594 16.0625 C 14.167969 16.042969 14.15625 16.023438 14.144531 16.007812 C 14.09375 15.9375 14.085938 15.8125 14.085938 15.8125 C 14.085938 15.8125 14.070312 15.964844 14.089844 16.023438 C 14.09375 16.035156 14.101562 16.046875 14.113281 16.058594 C 14.128906 16.082031 14.15625 16.109375 14.175781 16.132812 C 14.1875 16.140625 14.195312 16.152344 14.203125 16.160156 C 14.21875 16.175781 14.230469 16.191406 14.234375 16.203125 C 14.242188 16.226562 14.238281 16.261719 14.226562 16.292969 C 14.222656 16.300781 14.21875 16.308594 14.210938 16.316406 C 14.195312 16.34375 14.167969 16.355469 14.132812 16.328125 C 14.125 16.324219 14.117188 16.320312 14.109375 16.3125 C 14.101562 16.308594 14.097656 16.300781 14.089844 16.296875 C 14.035156 16.253906 13.984375 16.203125 13.941406 16.15625 C 13.929688 16.140625 13.917969 16.128906 13.90625 16.117188 C 13.90625 16.117188 13.90625 16.113281 13.90625 16.113281 C 13.886719 16.089844 13.859375 16.0625 13.828125 16.042969 C 13.78125 16.007812 13.730469 15.976562 13.722656 15.972656 C 13.730469 15.980469 13.75 16.007812 13.773438 16.039062 C 13.710938 16.035156 13.648438 16.03125 13.589844 16.03125 L 13.585938 16.011719 C 13.632812 16.011719 13.65625 16.015625 13.65625 16.015625 C 13.65625 16.015625 13.71875 15.828125 13.683594 15.726562 C 13.652344 15.628906 13.683594 15.5 13.683594 15.28125 C 13.683594 15.0625 13.566406 14.902344 13.484375 14.707031 C 13.40625 14.511719 13.25 14.082031 13.191406 13.753906 C 13.128906 13.425781 13.15625 13.398438 13.105469 12.980469 C 13.050781 12.558594 12.859375 12.3125 12.859375 12.3125 C 12.859375 12.3125 13.421875 12.214844 13.488281 12.101562 C 13.558594 11.988281 13.667969 11.75 13.679688 11.722656 C 13.691406 11.691406 13.746094 11.871094 13.75 11.902344 C 13.753906 11.929688 13.816406 12.230469 13.820312 12.445312 C 13.824219 12.664062 14.085938 13.214844 14.085938 13.214844 C 14.085938 13.214844 14.167969 13.582031 14.21875 13.839844 C 14.277344 14.140625 14.175781 14.5 14.183594 14.691406 C 14.191406 14.886719 14.238281 15.199219 14.238281 15.199219 C 14.238281 15.199219 14.246094 14.777344 14.273438 14.53125 C 14.304688 14.289062 14.355469 13.960938 14.324219 13.789062 C 14.292969 13.613281 14.222656 13.28125 14.234375 13.246094 C 14.34375 13.269531 14.554688 13.316406 14.734375 13.351562 Z M 13.027344 11.148438 C 13.257812 10.988281 13.152344 10.109375 13.152344 10.109375 L 13.136719 9.703125 C 13.136719 9.703125 13.148438 9.746094 13.167969 9.804688 C 13.183594 9.859375 13.210938 10.109375 13.226562 10.117188 C 13.242188 10.128906 13.417969 10.222656 13.429688 10.214844 C 13.445312 10.207031 13.457031 10.136719 13.457031 10.121094 C 13.453125 10.105469 13.253906 9.871094 13.238281 9.683594 C 13.226562 9.53125 13.277344 9.492188 13.304688 9.480469 L 13.316406 9.472656 C 13.316406 9.472656 13.371094 9.46875 13.480469 9.546875 C 13.585938 9.628906 13.625 9.765625 13.664062 9.851562 C 13.703125 9.941406 13.753906 10.042969 13.695312 10.09375 C 13.632812 10.148438 13.582031 10.136719 13.582031 10.136719 C 13.582031 10.136719 13.585938 10.1875 13.6875 10.136719 C 13.792969 10.085938 13.800781 10.042969 13.765625 9.945312 C 13.726562 9.847656 13.691406 9.789062 13.652344 9.683594 C 13.617188 9.582031 13.5 9.46875 13.484375 9.46875 C 13.511719 9.460938 13.550781 9.449219 13.605469 9.425781 C 13.757812 9.367188 14.300781 9.253906 14.324219 9.25 C 14.3125 9.257812 14.089844 9.402344 14.027344 9.546875 C 13.960938 9.695312 14.046875 9.835938 14.101562 9.980469 C 14.15625 10.128906 14.140625 10.148438 14.101562 10.292969 C 14.0625 10.4375 14.066406 10.542969 14.054688 10.578125 C 14.046875 10.613281 13.96875 10.78125 13.949219 10.695312 C 13.933594 10.621094 13.84375 10.347656 13.828125 10.300781 C 13.839844 10.34375 13.894531 10.578125 13.894531 10.65625 C 13.894531 10.738281 13.898438 11.128906 13.835938 11.226562 C 13.769531 11.328125 13.636719 11.550781 13.484375 11.558594 C 13.332031 11.5625 13.421875 11.515625 13.34375 11.507812 C 13.269531 11.496094 13.21875 11.53125 13.121094 11.507812 C 13.019531 11.484375 12.898438 11.515625 12.808594 11.449219 C 12.765625 11.417969 12.703125 11.386719 12.652344 11.363281 C 12.757812 11.300781 12.847656 11.265625 13.023438 11.148438 Z M 12.476562 15.839844 C 12.503906 15.792969 12.546875 15.746094 12.585938 15.710938 C 12.644531 15.660156 12.71875 15.589844 12.800781 15.585938 C 12.882812 15.582031 12.976562 15.660156 13.039062 15.707031 C 13.179688 15.820312 13.308594 15.945312 13.421875 16.085938 L 13.609375 16.097656 C 13.65625 16.097656 13.71875 16.101562 13.792969 16.105469 L 13.824219 16.109375 C 13.828125 16.121094 13.839844 16.136719 13.851562 16.152344 C 13.894531 16.203125 13.957031 16.277344 13.976562 16.296875 C 13.945312 16.300781 13.914062 16.300781 13.890625 16.300781 C 13.878906 16.300781 13.867188 16.300781 13.863281 16.300781 C 13.855469 16.300781 13.851562 16.300781 13.851562 16.300781 L 13.863281 16.300781 C 13.863281 16.300781 13.855469 16.300781 13.851562 16.300781 C 13.828125 16.300781 13.78125 16.292969 13.769531 16.296875 C 13.789062 16.300781 13.8125 16.300781 13.832031 16.304688 C 13.910156 16.316406 13.988281 16.328125 14 16.328125 C 14.019531 16.324219 14.097656 16.441406 14.191406 16.40625 C 14.242188 16.390625 14.273438 16.355469 14.285156 16.316406 C 14.390625 16.320312 14.503906 16.324219 14.597656 16.328125 L 14.609375 16.332031 L 14.605469 16.429688 C 14.601562 16.433594 14.59375 16.441406 14.589844 16.445312 L 14.542969 16.472656 L 14.519531 16.488281 C 14.515625 16.492188 14.511719 16.492188 14.503906 16.496094 C 14.492188 16.503906 14.476562 16.511719 14.460938 16.519531 L 14.414062 16.539062 C 14.347656 16.566406 14.277344 16.589844 14.210938 16.613281 C 14.195312 16.617188 14.179688 16.625 14.164062 16.625 L 14.15625 16.628906 L 14.148438 16.628906 C 14.148438 16.628906 14.148438 16.632812 14.148438 16.632812 C 14.148438 16.632812 14.144531 16.632812 14.140625 16.632812 L 14.136719 16.632812 C 14.132812 16.632812 14.128906 16.632812 14.125 16.632812 C 14.109375 16.628906 14.089844 16.628906 14.074219 16.625 C 14.046875 16.59375 13.824219 16.34375 13.777344 16.308594 L 13.546875 16.324219 C 13.550781 16.394531 13.519531 16.472656 13.46875 16.527344 C 13.414062 16.589844 13.335938 16.628906 13.253906 16.660156 C 13.207031 16.675781 13.15625 16.691406 13.105469 16.683594 C 13.050781 16.679688 13 16.65625 12.976562 16.609375 C 12.925781 16.554688 12.875 16.496094 12.824219 16.441406 C 12.8125 16.429688 12.800781 16.417969 12.789062 16.40625 C 12.75 16.359375 12.710938 16.316406 12.671875 16.265625 C 12.632812 16.210938 12.597656 16.148438 12.550781 16.09375 C 12.53125 16.070312 12.511719 16.050781 12.488281 16.03125 C 12.476562 16.027344 12.46875 16.023438 12.464844 16.011719 C 12.457031 16.003906 12.457031 15.996094 12.453125 15.984375 C 12.441406 15.933594 12.453125 15.886719 12.480469 15.839844 Z M 11.644531 16.921875 L 11.414062 16.890625 L 11.183594 16.855469 C 11.027344 16.832031 10.875 16.808594 10.71875 16.785156 L 10.671875 16.777344 L 10.757812 16.746094 C 10.917969 16.691406 11.078125 16.636719 11.234375 16.578125 L 11.472656 16.492188 C 11.550781 16.464844 11.628906 16.433594 11.710938 16.402344 C 11.863281 16.347656 12.015625 16.289062 12.164062 16.226562 C 12.246094 16.226562 12.324219 16.222656 12.40625 16.222656 C 12.414062 16.230469 12.417969 16.234375 12.425781 16.242188 C 12.429688 16.25 12.4375 16.253906 12.441406 16.257812 C 12.421875 16.316406 12.402344 16.371094 12.382812 16.425781 C 12.355469 16.496094 12.324219 16.570312 12.292969 16.640625 C 12.277344 16.675781 12.261719 16.710938 12.246094 16.742188 C 12.238281 16.757812 12.230469 16.769531 12.21875 16.785156 C 12.210938 16.800781 12.199219 16.816406 12.1875 16.832031 C 12.148438 16.882812 12.109375 16.933594 12.066406 16.980469 L 11.648438 16.921875 Z M 19.789062 19.757812 L 15.871094 19.019531 L 15.546875 18.957031 L 11.816406 18.253906 L 13.863281 17.390625 L 16.160156 17.691406 C 16.550781 17.742188 16.945312 17.796875 17.339844 17.847656 L 17.355469 17.863281 L 17.375 17.855469 C 17.515625 17.875 17.660156 17.894531 17.800781 17.910156 C 17.917969 17.929688 18.035156 17.945312 18.15625 17.960938 C 18.265625 17.976562 18.378906 17.988281 18.488281 18.003906 L 21.886719 18.464844 L 19.792969 19.757812 Z M 19.789062 19.757812 " fill-opacity="1" fill-rule="nonzero"/></g><path fill="#faab11" d="M 12.441406 16.257812 C 12.425781 16.3125 12.40625 16.367188 12.382812 16.421875 C 12.355469 16.496094 12.324219 16.566406 12.296875 16.640625 C 12.277344 16.671875 12.261719 16.710938 12.246094 16.742188 C 12.238281 16.757812 12.230469 16.765625 12.222656 16.785156 C 12.210938 16.796875 12.199219 16.8125 12.1875 16.828125 C 12.148438 16.878906 12.109375 16.929688 12.070312 16.980469 L 11.648438 16.921875 L 11.414062 16.890625 L 11.183594 16.855469 C 11.03125 16.832031 10.875 16.808594 10.722656 16.785156 L 10.671875 16.777344 L 10.757812 16.746094 C 10.917969 16.691406 11.078125 16.636719 11.238281 16.578125 L 11.472656 16.492188 C 11.554688 16.464844 11.632812 16.433594 11.710938 16.402344 C 11.863281 16.347656 12.015625 16.289062 12.167969 16.226562 C 12.246094 16.226562 12.328125 16.222656 12.410156 16.222656 C 12.414062 16.230469 12.421875 16.234375 12.425781 16.242188 C 12.433594 16.25 12.4375 16.253906 12.445312 16.257812 Z M 12.441406 16.257812 " fill-opacity="1" fill-rule="nonzero"/><path fill="#faab11" d="M 20.359375 16.390625 L 18.65625 17.117188 C 18.621094 17.082031 18.589844 17.046875 18.5625 17.011719 C 18.457031 16.863281 18.375 16.699219 18.261719 16.480469 C 18.210938 16.375 18.1875 16.335938 18.179688 16.316406 C 18.167969 16.292969 18.175781 16.292969 18.171875 16.253906 C 18.207031 16.289062 18.242188 16.320312 18.289062 16.347656 C 18.304688 16.355469 18.324219 16.363281 18.339844 16.371094 L 18.335938 16.355469 L 20.121094 16.386719 Z M 20.359375 16.390625 " fill-opacity="1" fill-rule="nonzero"/><path fill="#faab11" d="M 17.890625 17.445312 L 17.324219 17.6875 L 17.078125 17.652344 C 16.777344 17.613281 16.480469 17.574219 16.179688 17.53125 L 14.1875 17.253906 L 14.125 17.246094 C 14.125 17.242188 14.128906 17.238281 14.128906 17.234375 C 14.128906 17.230469 14.132812 17.21875 14.132812 17.21875 L 14.132812 17.214844 L 14.136719 17.167969 C 14.140625 17.132812 14.144531 17.105469 14.144531 17.070312 C 14.144531 17.066406 14.144531 17.066406 14.144531 17.0625 C 14.148438 17.003906 14.148438 16.941406 14.148438 16.878906 C 14.148438 16.859375 14.144531 16.835938 14.144531 16.8125 C 14.152344 16.8125 14.160156 16.8125 14.171875 16.8125 L 14.191406 16.808594 L 14.210938 16.800781 C 14.230469 16.796875 14.25 16.792969 14.265625 16.785156 C 14.339844 16.761719 14.410156 16.734375 14.480469 16.707031 L 14.53125 16.6875 C 14.550781 16.679688 14.566406 16.671875 14.589844 16.660156 C 14.597656 16.65625 14.609375 16.648438 14.621094 16.640625 L 14.640625 16.628906 L 14.691406 16.597656 C 14.707031 16.585938 14.726562 16.574219 14.75 16.550781 C 14.761719 16.539062 14.773438 16.523438 14.785156 16.488281 C 14.789062 16.480469 14.789062 16.46875 14.789062 16.460938 L 14.789062 16.453125 C 14.789062 16.453125 14.789062 16.4375 14.789062 16.4375 L 14.789062 16.417969 C 14.789062 16.417969 14.824219 16.417969 14.824219 16.417969 C 14.832031 16.417969 14.839844 16.417969 14.851562 16.417969 C 14.855469 16.417969 14.863281 16.417969 14.871094 16.414062 L 14.878906 16.410156 L 14.886719 16.410156 C 14.890625 16.40625 14.894531 16.40625 14.898438 16.402344 L 14.90625 16.398438 C 14.90625 16.398438 14.914062 16.394531 14.914062 16.394531 C 14.914062 16.394531 14.917969 16.390625 14.917969 16.390625 L 14.921875 16.386719 C 14.925781 16.382812 14.929688 16.378906 14.933594 16.375 C 14.9375 16.371094 14.941406 16.363281 14.945312 16.359375 C 14.953125 16.351562 14.960938 16.34375 14.964844 16.332031 C 14.972656 16.3125 14.984375 16.292969 14.988281 16.273438 C 14.988281 16.273438 14.988281 16.269531 14.988281 16.269531 L 15.664062 16.285156 C 15.714844 16.328125 15.738281 16.40625 15.785156 16.457031 C 15.835938 16.507812 15.898438 16.550781 15.949219 16.609375 C 16.011719 16.679688 16.070312 16.753906 16.152344 16.785156 C 16.261719 16.851562 16.558594 17 16.714844 17.070312 C 16.898438 17.148438 17.167969 17.070312 17.222656 17.039062 C 17.28125 17.007812 17.230469 16.636719 17.222656 16.558594 C 17.21875 16.476562 17.269531 16.359375 17.265625 16.394531 C 17.257812 16.433594 17.300781 16.789062 17.300781 16.921875 C 17.300781 17.054688 17.289062 17.261719 17.199219 17.363281 C 17.160156 17.410156 17.128906 17.457031 17.121094 17.496094 C 17.109375 17.539062 17.128906 17.574219 17.1875 17.585938 C 17.285156 17.609375 17.394531 17.578125 17.484375 17.5 C 17.492188 17.496094 17.5 17.488281 17.507812 17.480469 C 17.605469 17.390625 17.621094 17.171875 17.605469 17.144531 C 17.585938 17.117188 17.445312 16.820312 17.558594 16.988281 C 17.640625 17.109375 17.769531 17.304688 17.886719 17.445312 Z M 17.890625 17.445312 " fill-opacity="1" fill-rule="nonzero"/><path fill="#1800ad" d="M 21.886719 18.464844 L 19.789062 19.757812 L 15.871094 19.019531 L 15.546875 18.957031 L 11.816406 18.253906 L 13.863281 17.390625 L 16.160156 17.691406 C 16.550781 17.742188 16.945312 17.796875 17.339844 17.847656 L 17.355469 17.863281 L 17.375 17.855469 C 17.515625 17.875 17.660156 17.894531 17.800781 17.910156 C 17.917969 17.929688 18.035156 17.945312 18.15625 17.960938 C 18.265625 17.976562 18.378906 17.988281 18.488281 18.003906 Z M 21.886719 18.464844 " fill-opacity="1" fill-rule="nonzero"/><path fill="#faab11" d="M 16.152344 8.027344 L 16.671875 8.027344 L 16.671875 8.546875 L 16.152344 8.546875 Z M 16.152344 8.027344 " fill-opacity="1" fill-rule="nonzero"/><path fill="#faab11" d="M 16.886719 8.027344 L 17.410156 8.027344 L 17.410156 8.546875 L 16.886719 8.546875 Z M 16.886719 8.027344 " fill-opacity="1" fill-rule="nonzero"/><path fill="#faab11" d="M 16.152344 8.789062 L 16.671875 8.789062 L 16.671875 9.308594 L 16.152344 9.308594 Z M 16.152344 8.789062 " fill-opacity="1" fill-rule="nonzero"/><path fill="#faab11" d="M 16.886719 8.789062 L 17.410156 8.789062 L 17.410156 9.308594 L 16.886719 9.308594 Z M 16.886719 8.789062 " fill-opacity="1" fill-rule="nonzero"/></svg>