<svg xmlns="http://www.w3.org/2000/svg" xmlns:xlink="http://www.w3.org/1999/xlink" width="40" zoomAndPan="magnify" viewBox="0 0 30 37.92" height="40" preserveAspectRatio="xMidYMid meet" version="1.0"><defs><clipPath id="1857206822"><path d="M 3.113281 0.683594 L 26.886719 0.683594 L 26.886719 29.300781 L 3.113281 29.300781 Z M 3.113281 0.683594 " clip-rule="nonzero"/></clipPath><clipPath id="469b5432eb"><path d="M 19.457031 1.550781 C 18.035156 0.976562 16.539062 0.683594 15 0.683594 C 13.460938 0.683594 11.964844 0.976562 10.542969 1.550781 C 9.078125 2.144531 7.757812 3.019531 6.632812 4.148438 C 4.429688 6.355469 3.199219 9.285156 3.167969 12.402344 C 3.136719 15.511719 4.304688 18.464844 6.460938 20.707031 L 6.453125 20.710938 L 15 29.257812 L 23.5 20.757812 L 23.492188 20.753906 C 25.667969 18.511719 26.855469 15.558594 26.832031 12.433594 C 26.8125 9.300781 25.582031 6.363281 23.367188 4.148438 C 22.234375 3.019531 20.921875 2.144531 19.457031 1.550781 Z M 19.457031 1.550781 " clip-rule="nonzero"/></clipPath><clipPath id="f41b6fe4b4"><path d="M 0.144531 0.683594 L 23.855469 0.683594 L 23.855469 29.300781 L 0.144531 29.300781 Z M 0.144531 0.683594 " clip-rule="nonzero"/></clipPath><clipPath id="69b02bbcc2"><path d="M 16.457031 1.550781 C 15.035156 0.976562 13.539062 0.683594 12 0.683594 C 10.460938 0.683594 8.964844 0.976562 7.542969 1.550781 C 6.078125 2.144531 4.757812 3.019531 3.632812 4.148438 C 1.429688 6.355469 0.199219 9.285156 0.167969 12.402344 C 0.136719 15.511719 1.304688 18.464844 3.460938 20.707031 L 3.453125 20.710938 L 12 29.257812 L 20.5 20.757812 L 20.492188 20.753906 C 22.667969 18.511719 23.855469 15.558594 23.832031 12.433594 C 23.8125 9.300781 22.582031 6.363281 20.367188 4.148438 C 19.234375 3.019531 17.921875 2.144531 16.457031 1.550781 Z M 16.457031 1.550781 " clip-rule="nonzero"/></clipPath><clipPath id="e05220f473"><rect x="0" width="24" y="0" height="30"/></clipPath><clipPath id="12ae4d6789"><path d="M 4.261719 1.777344 L 25.738281 1.777344 L 25.738281 23.203125 L 4.261719 23.203125 Z M 4.261719 1.777344 " clip-rule="nonzero"/></clipPath><clipPath id="87db4390dc"><path d="M 14.996094 1.789062 C 9.089844 1.789062 4.300781 6.578125 4.300781 12.484375 C 4.300781 18.390625 9.089844 23.179688 14.996094 23.179688 C 20.902344 23.179688 25.691406 18.390625 25.691406 12.484375 C 25.691406 6.578125 20.902344 1.789062 14.996094 1.789062 Z M 14.996094 1.789062 " clip-rule="nonzero"/></clipPath><clipPath id="d1700f22e6"><path d="M 0.261719 0.777344 L 21.738281 0.777344 L 21.738281 22.203125 L 0.261719 22.203125 Z M 0.261719 0.777344 " clip-rule="nonzero"/></clipPath><clipPath id="5b9e7fe9de"><path d="M 10.996094 0.789062 C 5.089844 0.789062 0.300781 5.578125 0.300781 11.484375 C 0.300781 17.390625 5.089844 22.179688 10.996094 22.179688 C 16.902344 22.179688 21.691406 17.390625 21.691406 11.484375 C 21.691406 5.578125 16.902344 0.789062 10.996094 0.789062 Z M 10.996094 0.789062 " clip-rule="nonzero"/></clipPath><clipPath id="909a746a06"><rect x="0" width="22" y="0" height="23"/></clipPath><clipPath id="34e968f80e"><path d="M 8.140625 5.304688 L 21.613281 5.304688 L 21.613281 18.777344 L 8.140625 18.777344 Z M 8.140625 5.304688 " clip-rule="nonzero"/></clipPath></defs><g clip-path="url(#1857206822)"><g clip-path="url(#469b5432eb)"><g transform="matrix(1, 0, 0, 1, 3, 0.000000000000005773)"><g clip-path="url(#e05220f473)"><g clip-path="url(#f41b6fe4b4)"><g clip-path="url(#69b02bbcc2)"><path fill="#faab11" d="M 0.167969 0.683594 L 23.832031 0.683594 L 23.832031 29.25 L 0.167969 29.25 Z M 0.167969 0.683594 " fill-opacity="1" fill-rule="nonzero"/></g></g></g></g></g></g><g clip-path="url(#12ae4d6789)"><g clip-path="url(#87db4390dc)"><g transform="matrix(1, 0, 0, 1, 4, 1)"><g clip-path="url(#909a746a06)"><g clip-path="url(#d1700f22e6)"><g clip-path="url(#5b9e7fe9de)"><rect x="-10.6" width="43.2" fill="#ffffff" height="54.6048" y="-9.3424" fill-opacity="1"/></g></g></g></g></g></g><g clip-path="url(#34e968f80e)"><path fill="#1800ad" d="M 10.988281 11.167969 L 10.976562 11.167969 C 10.683594 11.167969 10.449219 10.933594 10.449219 10.640625 L 10.449219 10.550781 C 10.449219 10.257812 10.683594 10.019531 10.976562 10.019531 L 10.988281 10.019531 L 10.988281 9.730469 C 10.988281 9.605469 11.039062 9.484375 11.128906 9.398438 C 11.21875 9.308594 11.335938 9.257812 11.464844 9.257812 L 12.121094 9.257812 L 12.121094 8.902344 C 12.121094 8.519531 12.433594 8.210938 12.8125 8.210938 C 13.195312 8.210938 13.503906 8.519531 13.503906 8.902344 L 13.503906 9.257812 L 14.257812 9.257812 L 14.257812 8.835938 C 14.257812 8.402344 14.609375 8.050781 15.042969 8.050781 L 17.261719 8.050781 C 17.695312 8.050781 18.046875 8.402344 18.046875 8.835938 L 18.046875 9.257812 L 18.800781 9.257812 L 18.800781 8.902344 C 18.800781 8.519531 19.109375 8.210938 19.492188 8.210938 C 19.871094 8.210938 20.179688 8.519531 20.179688 8.902344 L 20.179688 9.257812 L 20.839844 9.257812 C 20.964844 9.257812 21.085938 9.308594 21.175781 9.398438 C 21.265625 9.484375 21.3125 9.605469 21.3125 9.730469 L 21.3125 10.019531 L 21.328125 10.019531 C 21.621094 10.019531 21.855469 10.257812 21.855469 10.550781 L 21.855469 10.640625 C 21.855469 10.933594 21.621094 11.167969 21.328125 11.167969 L 21.3125 11.167969 L 21.3125 15.417969 L 21.34375 15.417969 C 21.558594 15.417969 21.734375 15.589844 21.734375 15.804688 L 21.734375 16.53125 C 21.734375 16.910156 21.425781 17.21875 21.042969 17.21875 L 13.957031 17.21875 C 13.847656 17.21875 13.761719 17.132812 13.761719 17.027344 C 13.761719 16.917969 13.847656 16.832031 13.957031 16.832031 L 21.042969 16.832031 C 21.210938 16.832031 21.34375 16.699219 21.34375 16.53125 L 21.34375 15.804688 L 20.8125 15.804688 L 20.8125 16.027344 C 20.8125 16.125 20.773438 16.222656 20.707031 16.289062 C 20.636719 16.359375 20.542969 16.398438 20.445312 16.398438 L 14.628906 16.398438 C 14.519531 16.398438 14.433594 16.3125 14.433594 16.203125 C 14.433594 16.097656 14.519531 16.007812 14.628906 16.007812 C 14.628906 16.007812 20.066406 16.007812 20.425781 16.007812 L 20.425781 15.804688 C 20.425781 15.589844 20.597656 15.417969 20.8125 15.417969 L 20.925781 15.417969 L 20.925781 11.167969 L 11.378906 11.167969 L 11.378906 12.570312 C 11.378906 12.675781 11.292969 12.765625 11.183594 12.765625 C 11.078125 12.765625 10.988281 12.675781 10.988281 12.570312 Z M 11.378906 10.019531 L 20.925781 10.019531 L 20.925781 9.730469 C 20.925781 9.710938 20.917969 9.6875 20.902344 9.671875 C 20.882812 9.65625 20.863281 9.648438 20.839844 9.648438 L 11.464844 9.648438 C 11.441406 9.648438 11.417969 9.65625 11.402344 9.671875 C 11.386719 9.6875 11.378906 9.710938 11.378906 9.730469 Z M 10.976562 10.78125 L 21.328125 10.78125 C 21.40625 10.78125 21.46875 10.71875 21.46875 10.640625 L 21.46875 10.550781 C 21.46875 10.472656 21.40625 10.410156 21.328125 10.410156 L 10.976562 10.410156 C 10.898438 10.410156 10.835938 10.472656 10.835938 10.550781 L 10.835938 10.640625 C 10.835938 10.71875 10.898438 10.78125 10.976562 10.78125 Z M 12.511719 9.257812 L 13.113281 9.257812 L 13.113281 8.902344 C 13.113281 8.734375 12.980469 8.601562 12.8125 8.601562 C 12.644531 8.601562 12.511719 8.734375 12.511719 8.902344 Z M 14.644531 9.257812 L 17.660156 9.257812 L 17.660156 8.835938 C 17.660156 8.617188 17.480469 8.4375 17.261719 8.4375 L 15.042969 8.4375 C 14.824219 8.4375 14.644531 8.617188 14.644531 8.835938 Z M 19.1875 9.257812 L 19.792969 9.257812 L 19.792969 8.902344 C 19.792969 8.734375 19.65625 8.601562 19.492188 8.601562 C 19.324219 8.601562 19.1875 8.734375 19.1875 8.902344 Z M 12.8125 5.304688 C 13.519531 5.304688 14.097656 5.878906 14.097656 6.585938 C 14.097656 7.296875 13.519531 7.871094 12.8125 7.871094 C 12.105469 7.871094 11.53125 7.296875 11.53125 6.585938 C 11.53125 5.878906 12.105469 5.304688 12.8125 5.304688 Z M 12.8125 5.691406 C 12.320312 5.691406 11.917969 6.09375 11.917969 6.585938 C 11.917969 7.082031 12.320312 7.480469 12.8125 7.480469 C 13.308594 7.480469 13.707031 7.082031 13.707031 6.585938 C 13.707031 6.09375 13.308594 5.691406 12.8125 5.691406 Z M 12.617188 6.78125 L 12.378906 6.78125 C 12.273438 6.78125 12.1875 6.695312 12.1875 6.585938 C 12.1875 6.480469 12.273438 6.394531 12.378906 6.394531 L 12.617188 6.394531 L 12.617188 6.15625 C 12.617188 6.046875 12.707031 5.960938 12.8125 5.960938 C 12.921875 5.960938 13.007812 6.046875 13.007812 6.15625 L 13.007812 6.394531 L 13.246094 6.394531 C 13.351562 6.394531 13.441406 6.480469 13.441406 6.585938 C 13.441406 6.695312 13.351562 6.78125 13.246094 6.78125 L 13.007812 6.78125 L 13.007812 7.019531 C 13.007812 7.125 12.921875 7.214844 12.8125 7.214844 C 12.707031 7.214844 12.617188 7.125 12.617188 7.019531 Z M 19.492188 5.304688 C 20.199219 5.304688 20.773438 5.878906 20.773438 6.585938 C 20.773438 7.296875 20.199219 7.871094 19.492188 7.871094 C 18.78125 7.871094 18.207031 7.296875 18.207031 6.585938 C 18.207031 5.878906 18.78125 5.304688 19.492188 5.304688 Z M 19.492188 5.691406 C 18.996094 5.691406 18.597656 6.09375 18.597656 6.585938 C 18.597656 7.082031 18.996094 7.480469 19.492188 7.480469 C 19.984375 7.480469 20.386719 7.082031 20.386719 6.585938 C 20.386719 6.09375 19.984375 5.691406 19.492188 5.691406 Z M 19.058594 6.78125 C 18.953125 6.78125 18.863281 6.695312 18.863281 6.585938 C 18.863281 6.480469 18.953125 6.394531 19.058594 6.394531 L 19.921875 6.394531 C 20.03125 6.394531 20.117188 6.480469 20.117188 6.585938 C 20.117188 6.695312 20.03125 6.78125 19.921875 6.78125 Z M 15.164062 15.433594 C 15.234375 15.183594 15.523438 14.320312 15.636719 13.992188 L 15.054688 13.53125 C 15.011719 13.492188 14.984375 13.4375 14.984375 13.382812 C 14.980469 13.324219 15.007812 13.269531 15.050781 13.230469 L 16.871094 11.65625 C 16.9375 11.597656 17.039062 11.59375 17.109375 11.644531 C 17.183594 11.699219 17.210938 11.792969 17.179688 11.875 L 16.636719 13.257812 L 17.242188 13.695312 C 17.289062 13.726562 17.316406 13.78125 17.320312 13.839844 C 17.324219 13.898438 17.300781 13.953125 17.257812 13.996094 L 15.480469 15.628906 C 15.417969 15.6875 15.324219 15.699219 15.25 15.652344 C 15.175781 15.605469 15.140625 15.519531 15.164062 15.433594 Z M 15.757812 14.847656 L 16.820312 13.871094 L 16.289062 13.484375 C 16.214844 13.429688 16.1875 13.335938 16.21875 13.253906 L 16.53125 12.464844 C 16.53125 12.464844 15.480469 13.371094 15.480469 13.371094 L 15.984375 13.773438 C 16.050781 13.824219 16.074219 13.910156 16.046875 13.988281 C 16.046875 13.988281 15.898438 14.425781 15.757812 14.847656 Z M 13.847656 16.644531 C 13.460938 16.644531 13.265625 17.113281 13.539062 17.386719 C 13.6875 17.535156 13.6875 17.777344 13.539062 17.929688 L 13.136719 18.332031 C 12.988281 18.480469 12.746094 18.480469 12.597656 18.332031 C 12.320312 18.054688 11.851562 18.25 11.851562 18.640625 C 11.851562 18.851562 11.679688 19.019531 11.46875 19.019531 L 10.898438 19.019531 C 10.6875 19.019531 10.519531 18.851562 10.519531 18.640625 C 10.519531 18.25 10.046875 18.054688 9.773438 18.332031 C 9.625 18.480469 9.382812 18.480469 9.234375 18.332031 L 8.828125 17.929688 C 8.679688 17.777344 8.679688 17.535156 8.828125 17.386719 C 9.105469 17.113281 8.910156 16.644531 8.519531 16.644531 C 8.308594 16.644531 8.140625 16.472656 8.140625 16.261719 L 8.140625 15.691406 C 8.140625 15.480469 8.308594 15.308594 8.519531 15.308594 C 8.910156 15.308594 9.105469 14.839844 8.828125 14.566406 C 8.679688 14.414062 8.679688 14.171875 8.828125 14.023438 L 9.234375 13.621094 C 9.382812 13.472656 9.625 13.472656 9.773438 13.621094 C 10.046875 13.894531 10.519531 13.703125 10.519531 13.3125 C 10.519531 13.101562 10.6875 12.929688 10.898438 12.929688 L 11.46875 12.929688 C 11.679688 12.929688 11.851562 13.101562 11.851562 13.3125 C 11.851562 13.703125 12.320312 13.894531 12.597656 13.621094 C 12.746094 13.472656 12.988281 13.472656 13.136719 13.621094 L 13.539062 14.023438 C 13.6875 14.171875 13.6875 14.414062 13.539062 14.566406 C 13.265625 14.839844 13.460938 15.308594 13.847656 15.308594 C 14.058594 15.308594 14.230469 15.480469 14.230469 15.691406 L 14.230469 16.261719 C 14.230469 16.472656 14.058594 16.644531 13.847656 16.644531 Z M 8.527344 15.699219 L 8.527344 16.253906 C 9.253906 16.261719 9.621094 17.140625 9.109375 17.65625 L 9.503906 18.050781 C 10.019531 17.539062 10.902344 17.90625 10.90625 18.632812 L 11.460938 18.632812 C 11.46875 17.90625 12.347656 17.539062 12.867188 18.050781 L 13.257812 17.65625 C 12.75 17.140625 13.113281 16.261719 13.839844 16.253906 L 13.839844 15.699219 C 13.113281 15.691406 12.75 14.8125 13.257812 14.292969 L 12.867188 13.902344 C 12.347656 14.410156 11.46875 14.046875 11.460938 13.320312 L 10.90625 13.320312 C 10.902344 14.046875 10.019531 14.410156 9.503906 13.902344 L 9.109375 14.292969 C 9.621094 14.8125 9.253906 15.691406 8.527344 15.699219 Z M 11.183594 17.539062 C 10.324219 17.539062 9.621094 16.835938 9.621094 15.976562 C 9.621094 15.113281 10.324219 14.414062 11.183594 14.414062 C 12.046875 14.414062 12.75 15.113281 12.75 15.976562 C 12.75 16.835938 12.046875 17.539062 11.183594 17.539062 Z M 11.183594 17.152344 C 11.832031 17.152344 12.359375 16.625 12.359375 15.976562 C 12.359375 15.328125 11.832031 14.800781 11.183594 14.800781 C 10.535156 14.800781 10.007812 15.328125 10.007812 15.976562 C 10.007812 16.625 10.535156 17.152344 11.183594 17.152344 Z M 11.183594 17.152344 " fill-opacity="1" fill-rule="evenodd"/></g></svg>