<svg xmlns="http://www.w3.org/2000/svg" xmlns:xlink="http://www.w3.org/1999/xlink" width="40" zoomAndPan="magnify" viewBox="0 0 30 37.92" height="40" preserveAspectRatio="xMidYMid meet" version="1.0"><defs><clipPath id="c23485b33f"><path d="M 3.113281 0.683594 L 26.886719 0.683594 L 26.886719 29.300781 L 3.113281 29.300781 Z M 3.113281 0.683594 " clip-rule="nonzero"/></clipPath><clipPath id="ac2c7c7efd"><path d="M 19.457031 1.550781 C 18.035156 0.976562 16.539062 0.683594 15 0.683594 C 13.460938 0.683594 11.964844 0.976562 10.542969 1.550781 C 9.078125 2.144531 7.757812 3.019531 6.632812 4.148438 C 4.429688 6.355469 3.199219 9.285156 3.167969 12.402344 C 3.136719 15.511719 4.304688 18.464844 6.460938 20.707031 L 6.453125 20.710938 L 15 29.257812 L 23.5 20.757812 L 23.492188 20.753906 C 25.667969 18.511719 26.855469 15.558594 26.832031 12.433594 C 26.8125 9.300781 25.582031 6.363281 23.367188 4.148438 C 22.234375 3.019531 20.921875 2.144531 19.457031 1.550781 Z M 19.457031 1.550781 " clip-rule="nonzero"/></clipPath><clipPath id="45c995bda8"><path d="M 0.144531 0.683594 L 23.855469 0.683594 L 23.855469 29.300781 L 0.144531 29.300781 Z M 0.144531 0.683594 " clip-rule="nonzero"/></clipPath><clipPath id="c09643372f"><path d="M 16.457031 1.550781 C 15.035156 0.976562 13.539062 0.683594 12 0.683594 C 10.460938 0.683594 8.964844 0.976562 7.542969 1.550781 C 6.078125 2.144531 4.757812 3.019531 3.632812 4.148438 C 1.429688 6.355469 0.199219 9.285156 0.167969 12.402344 C 0.136719 15.511719 1.304688 18.464844 3.460938 20.707031 L 3.453125 20.710938 L 12 29.257812 L 20.5 20.757812 L 20.492188 20.753906 C 22.667969 18.511719 23.855469 15.558594 23.832031 12.433594 C 23.8125 9.300781 22.582031 6.363281 20.367188 4.148438 C 19.234375 3.019531 17.921875 2.144531 16.457031 1.550781 Z M 16.457031 1.550781 " clip-rule="nonzero"/></clipPath><clipPath id="ce74293858"><rect x="0" width="24" y="0" height="30"/></clipPath><clipPath id="a0a4e2d68f"><path d="M 4.261719 1.777344 L 25.738281 1.777344 L 25.738281 23.203125 L 4.261719 23.203125 Z M 4.261719 1.777344 " clip-rule="nonzero"/></clipPath><clipPath id="28d11109a1"><path d="M 14.996094 1.789062 C 9.089844 1.789062 4.300781 6.578125 4.300781 12.484375 C 4.300781 18.390625 9.089844 23.179688 14.996094 23.179688 C 20.902344 23.179688 25.691406 18.390625 25.691406 12.484375 C 25.691406 6.578125 20.902344 1.789062 14.996094 1.789062 Z M 14.996094 1.789062 " clip-rule="nonzero"/></clipPath><clipPath id="57902163ce"><path d="M 0.261719 0.777344 L 21.738281 0.777344 L 21.738281 22.203125 L 0.261719 22.203125 Z M 0.261719 0.777344 " clip-rule="nonzero"/></clipPath><clipPath id="a618198e77"><path d="M 10.996094 0.789062 C 5.089844 0.789062 0.300781 5.578125 0.300781 11.484375 C 0.300781 17.390625 5.089844 22.179688 10.996094 22.179688 C 16.902344 22.179688 21.691406 17.390625 21.691406 11.484375 C 21.691406 5.578125 16.902344 0.789062 10.996094 0.789062 Z M 10.996094 0.789062 " clip-rule="nonzero"/></clipPath><clipPath id="799f65bd0a"><rect x="0" width="22" y="0" height="23"/></clipPath><clipPath id="1313496bac"><path d="M 8.285156 5.730469 L 21.753906 5.730469 L 21.753906 19.199219 L 8.285156 19.199219 Z M 8.285156 5.730469 " clip-rule="nonzero"/></clipPath></defs><g clip-path="url(#c23485b33f)"><g clip-path="url(#ac2c7c7efd)"><g transform="matrix(1, 0, 0, 1, 3, 0.000000000000005773)"><g clip-path="url(#ce74293858)"><g clip-path="url(#45c995bda8)"><g clip-path="url(#c09643372f)"><path fill="#faab11" d="M 0.167969 0.683594 L 23.832031 0.683594 L 23.832031 29.25 L 0.167969 29.25 Z M 0.167969 0.683594 " fill-opacity="1" fill-rule="nonzero"/></g></g></g></g></g></g><g clip-path="url(#a0a4e2d68f)"><g clip-path="url(#28d11109a1)"><g transform="matrix(1, 0, 0, 1, 4, 1)"><g clip-path="url(#799f65bd0a)"><g clip-path="url(#57902163ce)"><g clip-path="url(#a618198e77)"><rect x="-10.6" width="43.2" fill="#ffffff" height="54.6048" y="-9.3424" fill-opacity="1"/></g></g></g></g></g></g><g clip-path="url(#1313496bac)"><path fill="#1800ad" d="M 12.90625 17.003906 C 12.890625 16.894531 12.96875 16.792969 13.078125 16.773438 C 13.1875 16.757812 13.292969 16.835938 13.308594 16.945312 C 13.375 17.402344 13.320312 17.84375 13.136719 18.261719 C 13.09375 18.367188 12.972656 18.414062 12.871094 18.367188 C 12.769531 18.324219 12.722656 18.203125 12.765625 18.101562 C 12.921875 17.75 12.964844 17.390625 12.90625 17.003906 Z M 15.957031 18.332031 C 15.96875 18.445312 15.890625 18.546875 15.78125 18.558594 C 15.667969 18.570312 15.566406 18.492188 15.554688 18.382812 C 15.480469 17.78125 16.195312 17.386719 16.683594 17.765625 C 17.15625 18.128906 16.953125 18.695312 16.488281 18.988281 C 16.1875 19.175781 15.773438 19.257812 15.375 19.109375 C 14.605469 18.824219 14.429688 17.683594 14.476562 16.960938 C 14.484375 16.851562 14.582031 16.765625 14.691406 16.773438 C 14.804688 16.78125 14.886719 16.875 14.878906 16.988281 C 14.855469 17.371094 14.898438 17.820312 15.039062 18.175781 C 15.144531 18.441406 15.300781 18.648438 15.511719 18.730469 C 16.007812 18.914062 16.539062 18.554688 16.546875 18.277344 C 16.550781 18.113281 16.3125 17.949219 16.105469 18.058594 C 16.003906 18.113281 15.941406 18.21875 15.957031 18.332031 Z M 12.1875 16.988281 C 12.179688 16.875 12.261719 16.78125 12.375 16.773438 C 12.484375 16.765625 12.582031 16.851562 12.589844 16.960938 C 12.636719 17.683594 12.460938 18.824219 11.691406 19.109375 C 11.164062 19.304688 10.546875 19.101562 10.257812 18.6875 C 9.796875 18.035156 10.550781 17.378906 11.152344 17.703125 C 11.402344 17.835938 11.546875 18.101562 11.511719 18.382812 C 11.5 18.492188 11.398438 18.570312 11.285156 18.558594 C 11.175781 18.546875 11.097656 18.445312 11.109375 18.332031 C 11.140625 18.082031 10.832031 17.929688 10.628906 18.085938 C 10.382812 18.277344 10.605469 18.527344 10.792969 18.644531 C 11 18.773438 11.28125 18.828125 11.554688 18.730469 C 11.769531 18.648438 11.921875 18.441406 12.027344 18.175781 C 12.167969 17.820312 12.210938 17.371094 12.1875 16.988281 Z M 13.757812 16.945312 C 13.773438 16.835938 13.875 16.757812 13.988281 16.773438 C 14.097656 16.792969 14.175781 16.894531 14.160156 17.003906 C 14.101562 17.390625 14.144531 17.75 14.296875 18.101562 C 14.34375 18.203125 14.296875 18.324219 14.195312 18.367188 C 14.089844 18.414062 13.972656 18.367188 13.929688 18.261719 C 13.746094 17.84375 13.691406 17.402344 13.757812 16.945312 Z M 10.339844 9.867188 C 10.660156 8.609375 11.652344 7.632812 12.917969 7.332031 C 12.917969 7.136719 12.902344 6.980469 13.0625 6.820312 C 13.148438 6.734375 13.273438 6.675781 13.40625 6.675781 L 14.023438 6.675781 L 14.023438 6.527344 C 14.023438 6.085938 14.382812 5.730469 14.824219 5.730469 L 20.902344 5.730469 C 21.34375 5.730469 21.703125 6.089844 21.703125 6.527344 L 21.703125 11.410156 C 21.703125 11.851562 21.34375 12.207031 20.902344 12.207031 L 18.777344 12.207031 L 18.777344 15.546875 C 18.777344 15.976562 18.425781 16.328125 17.996094 16.328125 L 9.070312 16.328125 C 8.640625 16.328125 8.289062 15.976562 8.289062 15.546875 L 8.289062 11.773438 C 8.289062 11.34375 8.640625 10.992188 9.070312 10.992188 L 9.730469 10.992188 L 9.730469 10.625 C 9.730469 10.257812 9.988281 9.941406 10.339844 9.867188 Z M 12.917969 7.75 C 11.875 8.03125 11.050781 8.839844 10.753906 9.882812 C 11.074219 9.980469 11.304688 10.277344 11.304688 10.625 L 11.304688 10.992188 L 14.023438 10.992188 L 14.023438 8.316406 L 13.40625 8.316406 C 13.136719 8.316406 12.917969 8.097656 12.917969 7.828125 Z M 10.898438 10.992188 L 10.898438 10.621094 C 10.898438 10.277344 10.46875 10.136719 10.242188 10.363281 C 10.175781 10.429688 10.136719 10.523438 10.136719 10.621094 L 10.136719 10.992188 Z M 12.40625 12.90625 L 14.660156 12.90625 C 14.773438 12.90625 14.863281 12.996094 14.863281 13.109375 L 14.863281 14.210938 C 14.863281 14.324219 14.773438 14.414062 14.660156 14.414062 L 12.40625 14.414062 C 12.292969 14.414062 12.203125 14.324219 12.203125 14.210938 L 12.203125 13.109375 C 12.203125 12.996094 12.292969 12.90625 12.40625 12.90625 Z M 14.457031 13.3125 L 12.609375 13.3125 L 12.609375 14.007812 L 14.457031 14.007812 Z M 17.273438 11.398438 L 16.992188 12.164062 C 16.964844 12.246094 16.886719 12.296875 16.804688 12.296875 L 10.261719 12.296875 C 10.171875 12.296875 10.09375 12.234375 10.066406 12.152344 L 9.789062 11.398438 L 9.070312 11.398438 C 8.863281 11.398438 8.695312 11.566406 8.695312 11.773438 L 8.695312 15.546875 C 8.695312 15.753906 8.863281 15.921875 9.070312 15.921875 L 9.789062 15.921875 L 10.066406 15.167969 C 10.09375 15.085938 10.171875 15.023438 10.261719 15.023438 L 16.804688 15.023438 C 16.886719 15.023438 16.964844 15.074219 16.992188 15.15625 L 17.273438 15.921875 L 17.996094 15.921875 C 18.199219 15.921875 18.371094 15.753906 18.371094 15.546875 L 18.371094 11.773438 C 18.371094 11.566406 18.199219 11.398438 17.996094 11.398438 Z M 10.222656 11.398438 L 10.402344 11.890625 L 16.664062 11.890625 L 16.84375 11.398438 Z M 16.84375 15.921875 L 16.664062 15.429688 L 10.402344 15.429688 L 10.222656 15.921875 Z M 14.429688 10.992188 L 17.996094 10.992188 C 18.425781 10.992188 18.777344 11.34375 18.777344 11.773438 L 18.777344 11.800781 L 20.902344 11.800781 C 21.117188 11.800781 21.296875 11.625 21.296875 11.410156 L 21.296875 6.527344 C 21.296875 6.3125 21.117188 6.132812 20.902344 6.132812 L 14.824219 6.132812 C 14.609375 6.132812 14.429688 6.3125 14.429688 6.527344 Z M 15.195312 7.082031 C 15.082031 7.082031 14.992188 6.992188 14.992188 6.878906 C 14.992188 6.769531 15.082031 6.675781 15.195312 6.675781 L 16.476562 6.675781 C 16.585938 6.675781 16.679688 6.769531 16.679688 6.878906 C 16.679688 6.992188 16.585938 7.082031 16.476562 7.082031 Z M 15.195312 8.589844 C 15.082031 8.589844 14.992188 8.5 14.992188 8.386719 C 14.992188 8.273438 15.082031 8.183594 15.195312 8.183594 L 16.476562 8.183594 C 16.585938 8.183594 16.679688 8.273438 16.679688 8.386719 C 16.679688 8.5 16.585938 8.589844 16.476562 8.589844 Z M 14.023438 7.082031 L 13.40625 7.082031 C 13.363281 7.082031 13.324219 7.121094 13.324219 7.167969 L 13.324219 7.824219 C 13.324219 7.871094 13.363281 7.910156 13.40625 7.910156 L 14.023438 7.910156 Z M 18.226562 9.742188 L 18.800781 9.171875 L 17.988281 9.171875 C 18.023438 9.382812 18.105469 9.578125 18.226562 9.742188 Z M 17.988281 8.765625 L 18.800781 8.765625 L 18.226562 8.195312 C 18.105469 8.359375 18.023438 8.554688 17.988281 8.765625 Z M 18.515625 7.90625 L 19.085938 8.480469 L 19.085938 7.667969 C 18.875 7.703125 18.679688 7.785156 18.515625 7.90625 Z M 19.492188 7.667969 L 19.492188 8.476562 L 20.066406 7.90625 C 19.898438 7.785156 19.703125 7.703125 19.492188 7.667969 Z M 20.351562 8.195312 L 19.777344 8.765625 L 20.589844 8.765625 C 20.554688 8.554688 20.472656 8.359375 20.351562 8.195312 Z M 20.589844 9.171875 L 19.777344 9.171875 L 20.351562 9.742188 C 20.472656 9.578125 20.554688 9.382812 20.589844 9.171875 Z M 20.066406 10.03125 L 19.492188 9.457031 L 19.492188 10.269531 C 19.703125 10.234375 19.898438 10.152344 20.066406 10.03125 Z M 19.085938 10.269531 L 19.085938 9.457031 L 18.515625 10.03125 C 18.679688 10.152344 18.875 10.234375 19.085938 10.269531 Z M 19.289062 7.246094 C 19.773438 7.246094 20.1875 7.4375 20.507812 7.75 C 20.507812 7.757812 21.011719 8.191406 21.011719 8.96875 C 21.011719 9.746094 20.507812 10.179688 20.507812 10.1875 C 19.816406 10.859375 18.761719 10.859375 18.070312 10.1875 C 18.070312 10.179688 17.566406 9.746094 17.566406 8.96875 C 17.566406 8.191406 18.070312 7.757812 18.070312 7.75 C 18.390625 7.4375 18.804688 7.246094 19.289062 7.246094 Z M 19.289062 7.246094 " fill-opacity="1" fill-rule="nonzero"/></g></svg>