<svg xmlns="http://www.w3.org/2000/svg" xmlns:xlink="http://www.w3.org/1999/xlink" width="40" zoomAndPan="magnify" viewBox="0 0 30 37.92" height="40" preserveAspectRatio="xMidYMid meet" version="1.0"><defs><clipPath id="7352297790"><path d="M 3.113281 0.683594 L 26.886719 0.683594 L 26.886719 29.300781 L 3.113281 29.300781 Z M 3.113281 0.683594 " clip-rule="nonzero"/></clipPath><clipPath id="a9dcf8a431"><path d="M 19.457031 1.550781 C 18.035156 0.976562 16.539062 0.683594 15 0.683594 C 13.460938 0.683594 11.964844 0.976562 10.542969 1.550781 C 9.078125 2.144531 7.757812 3.019531 6.632812 4.148438 C 4.429688 6.355469 3.199219 9.285156 3.167969 12.402344 C 3.136719 15.511719 4.304688 18.464844 6.460938 20.707031 L 6.453125 20.710938 L 15 29.257812 L 23.5 20.757812 L 23.492188 20.753906 C 25.667969 18.511719 26.855469 15.558594 26.832031 12.433594 C 26.8125 9.300781 25.582031 6.363281 23.367188 4.148438 C 22.234375 3.019531 20.921875 2.144531 19.457031 1.550781 Z M 19.457031 1.550781 " clip-rule="nonzero"/></clipPath><clipPath id="cf778a9a78"><path d="M 0.144531 0.683594 L 23.855469 0.683594 L 23.855469 29.300781 L 0.144531 29.300781 Z M 0.144531 0.683594 " clip-rule="nonzero"/></clipPath><clipPath id="9eb9a4f5e9"><path d="M 16.457031 1.550781 C 15.035156 0.976562 13.539062 0.683594 12 0.683594 C 10.460938 0.683594 8.964844 0.976562 7.542969 1.550781 C 6.078125 2.144531 4.757812 3.019531 3.632812 4.148438 C 1.429688 6.355469 0.199219 9.285156 0.167969 12.402344 C 0.136719 15.511719 1.304688 18.464844 3.460938 20.707031 L 3.453125 20.710938 L 12 29.257812 L 20.5 20.757812 L 20.492188 20.753906 C 22.667969 18.511719 23.855469 15.558594 23.832031 12.433594 C 23.8125 9.300781 22.582031 6.363281 20.367188 4.148438 C 19.234375 3.019531 17.921875 2.144531 16.457031 1.550781 Z M 16.457031 1.550781 " clip-rule="nonzero"/></clipPath><clipPath id="b62c7c991d"><rect x="0" width="24" y="0" height="30"/></clipPath><clipPath id="7a39b88c99"><path d="M 4.261719 1.777344 L 25.738281 1.777344 L 25.738281 23.203125 L 4.261719 23.203125 Z M 4.261719 1.777344 " clip-rule="nonzero"/></clipPath><clipPath id="a353e09cc8"><path d="M 14.996094 1.789062 C 9.089844 1.789062 4.300781 6.578125 4.300781 12.484375 C 4.300781 18.390625 9.089844 23.179688 14.996094 23.179688 C 20.902344 23.179688 25.691406 18.390625 25.691406 12.484375 C 25.691406 6.578125 20.902344 1.789062 14.996094 1.789062 Z M 14.996094 1.789062 " clip-rule="nonzero"/></clipPath><clipPath id="e195c312ee"><path d="M 0.261719 0.777344 L 21.738281 0.777344 L 21.738281 22.203125 L 0.261719 22.203125 Z M 0.261719 0.777344 " clip-rule="nonzero"/></clipPath><clipPath id="b2c19a2436"><path d="M 10.996094 0.789062 C 5.089844 0.789062 0.300781 5.578125 0.300781 11.484375 C 0.300781 17.390625 5.089844 22.179688 10.996094 22.179688 C 16.902344 22.179688 21.691406 17.390625 21.691406 11.484375 C 21.691406 5.578125 16.902344 0.789062 10.996094 0.789062 Z M 10.996094 0.789062 " clip-rule="nonzero"/></clipPath><clipPath id="4bbf446d87"><rect x="0" width="22" y="0" height="23"/></clipPath><clipPath id="2eb31d63ac"><path d="M 6.417969 5.867188 L 23.632812 5.867188 L 23.632812 17.84375 L 6.417969 17.84375 Z M 6.417969 5.867188 " clip-rule="nonzero"/></clipPath></defs><g clip-path="url(#7352297790)"><g clip-path="url(#a9dcf8a431)"><g transform="matrix(1, 0, 0, 1, 3, 0.000000000000005773)"><g clip-path="url(#b62c7c991d)"><g clip-path="url(#cf778a9a78)"><g clip-path="url(#9eb9a4f5e9)"><path fill="#faab11" d="M 0.167969 0.683594 L 23.832031 0.683594 L 23.832031 29.25 L 0.167969 29.25 Z M 0.167969 0.683594 " fill-opacity="1" fill-rule="nonzero"/></g></g></g></g></g></g><g clip-path="url(#7a39b88c99)"><g clip-path="url(#a353e09cc8)"><g transform="matrix(1, 0, 0, 1, 4, 1)"><g clip-path="url(#4bbf446d87)"><g clip-path="url(#e195c312ee)"><g clip-path="url(#b2c19a2436)"><rect x="-10.6" width="43.2" fill="#ffffff" height="54.6048" y="-9.3424" fill-opacity="1"/></g></g></g></g></g></g><g clip-path="url(#2eb31d63ac)"><path fill="#1800ad" d="M 14.453125 6.058594 L 8.035156 10.949219 L 10.070312 10.949219 L 14.875 7.289062 L 19.675781 10.949219 L 21.714844 10.949219 L 19.21875 9.046875 C 19.210938 9.042969 19.203125 9.035156 19.195312 9.03125 L 17.320312 7.597656 C 17.3125 7.59375 17.304688 7.589844 17.300781 7.582031 L 15.308594 6.066406 C 15.070312 5.871094 14.703125 5.867188 14.453125 6.058594 Z M 14.875 7.753906 L 10.316406 11.226562 L 10.316406 17.113281 L 10.320312 17.113281 C 10.320312 17.65625 10.761719 18.101562 11.304688 18.101562 L 18.441406 18.101562 C 18.984375 18.101562 19.429688 17.65625 19.429688 17.113281 L 19.429688 11.226562 Z M 17.605469 7.355469 L 19.132812 8.519531 L 19.132812 6.144531 L 17.605469 6.144531 Z M 17.085938 11.546875 C 15.863281 10.324219 13.882812 10.324219 12.660156 11.546875 C 11.441406 12.769531 11.441406 14.75 12.660156 15.96875 C 13.882812 17.191406 15.863281 17.191406 17.085938 15.96875 C 18.308594 14.75 18.308594 12.769531 17.085938 11.546875 Z M 14.875 10.261719 C 16.804688 10.261719 18.371094 11.828125 18.371094 13.757812 C 18.371094 15.691406 16.804688 17.257812 14.875 17.257812 C 12.941406 17.257812 11.375 15.691406 11.375 13.757812 C 11.375 11.828125 12.941406 10.261719 14.875 10.261719 Z M 14.277344 14.253906 L 13.464844 14.253906 C 12.273438 14.253906 12.511719 12.066406 13.34375 12.066406 C 14.011719 12.066406 13.84375 12.878906 14.378906 13.164062 L 14.378906 12.351562 C 14.378906 11.160156 16.5625 11.394531 16.5625 12.230469 C 16.5625 12.894531 15.75 12.730469 15.46875 13.265625 L 16.28125 13.265625 C 17.472656 13.265625 17.238281 15.449219 16.402344 15.449219 C 15.734375 15.449219 15.902344 14.636719 15.367188 14.351562 L 15.367188 15.164062 C 15.367188 16.359375 13.183594 16.121094 13.183594 15.289062 C 13.183594 14.621094 13.996094 14.789062 14.277344 14.253906 Z M 15.089844 13.542969 C 14.898438 13.351562 14.566406 13.488281 14.566406 13.757812 C 14.566406 14.027344 14.898438 14.167969 15.089844 13.976562 C 15.210938 13.855469 15.207031 13.660156 15.089844 13.542969 Z M 14.210938 13.882812 C 14.1875 13.757812 14.199219 13.628906 14.246094 13.511719 C 13.589844 13.210938 13.652344 12.4375 13.34375 12.4375 C 13 12.4375 12.769531 13.882812 13.46875 13.882812 Z M 15 14.421875 C 14.875 14.445312 14.746094 14.433594 14.628906 14.386719 C 14.328125 15.042969 13.550781 14.980469 13.550781 15.289062 C 13.550781 15.632812 15 15.863281 15 15.164062 Z M 15.539062 13.632812 C 15.5625 13.757812 15.546875 13.886719 15.503906 14.003906 C 16.15625 14.304688 16.09375 15.082031 16.402344 15.082031 C 16.746094 15.082031 16.976562 13.632812 16.28125 13.632812 Z M 14.875 13.082031 C 14.960938 13.082031 15.042969 13.097656 15.121094 13.128906 C 15.421875 12.476562 16.195312 12.539062 16.195312 12.230469 C 16.195312 11.886719 14.75 11.65625 14.75 12.351562 L 14.75 13.09375 C 14.789062 13.085938 14.832031 13.082031 14.875 13.082031 Z M 22.691406 15.132812 C 22.933594 15.125 22.949219 15.492188 22.707031 15.5 C 22.507812 15.507812 22.304688 15.734375 22.566406 15.882812 C 22.757812 15.988281 22.984375 15.941406 23.09375 15.726562 C 23.164062 15.582031 23.179688 15.390625 23.121094 15.238281 C 22.863281 14.574219 20.902344 14.886719 20.441406 14.960938 C 20.199219 14.996094 20.140625 14.632812 20.382812 14.59375 C 20.75 14.535156 21.40625 14.4375 22.015625 14.453125 C 22.789062 14.476562 23.480469 14.679688 23.523438 15.382812 C 23.550781 15.820312 23.292969 16.273438 22.824219 16.300781 C 22.25 16.335938 21.859375 15.785156 22.203125 15.371094 C 22.320312 15.230469 22.507812 15.140625 22.691406 15.132812 Z M 22.707031 12.808594 C 22.949219 12.816406 22.933594 13.1875 22.691406 13.175781 C 22.320312 13.160156 21.96875 12.8125 22.105469 12.425781 C 22.265625 11.960938 23.101562 11.777344 23.421875 12.417969 C 23.542969 12.652344 23.558594 12.953125 23.464844 13.203125 C 23.277344 13.679688 22.671875 13.835938 22.015625 13.855469 C 21.40625 13.871094 20.75 13.773438 20.378906 13.710938 C 20.140625 13.675781 20.199219 13.3125 20.4375 13.347656 C 20.902344 13.421875 22.863281 13.734375 23.121094 13.070312 C 23.21875 12.8125 23.117188 12.394531 22.800781 12.375 C 22.582031 12.359375 22.34375 12.53125 22.484375 12.699219 C 22.539062 12.761719 22.625 12.804688 22.707031 12.808594 Z M 6.785156 15.214844 C 6.554688 15.296875 6.429688 14.949219 6.660156 14.867188 C 8.023438 14.375 8.378906 15.527344 8.84375 15.386719 C 8.945312 15.355469 9.03125 15.277344 9.070312 15.179688 C 9.109375 15.082031 9.21875 15.039062 9.3125 15.078125 C 9.40625 15.117188 9.449219 15.222656 9.410156 15.320312 C 9.328125 15.519531 9.160156 15.671875 8.953125 15.738281 C 8.605469 15.84375 8.375 15.671875 8.109375 15.46875 C 7.816406 15.242188 7.457031 14.96875 6.785156 15.214844 Z M 6.785156 13.007812 C 6.554688 13.089844 6.429688 12.746094 6.660156 12.664062 C 8.023438 12.167969 8.378906 13.324219 8.84375 13.179688 C 8.945312 13.148438 9.03125 13.070312 9.070312 12.972656 C 9.109375 12.878906 9.21875 12.832031 9.3125 12.871094 C 9.40625 12.910156 9.449219 13.019531 9.410156 13.113281 C 9.328125 13.316406 9.160156 13.46875 8.953125 13.53125 C 8.605469 13.640625 8.375 13.464844 8.109375 13.261719 C 7.816406 13.035156 7.457031 12.765625 6.785156 13.007812 Z M 6.785156 13.007812 " fill-opacity="1" fill-rule="nonzero"/></g></svg>