<svg xmlns="http://www.w3.org/2000/svg" xmlns:xlink="http://www.w3.org/1999/xlink" width="40" zoomAndPan="magnify" viewBox="0 0 30 37.92" height="40" preserveAspectRatio="xMidYMid meet" version="1.0"><defs><clipPath id="caaa9bd205"><path d="M 3.113281 0.683594 L 26.886719 0.683594 L 26.886719 29.300781 L 3.113281 29.300781 Z M 3.113281 0.683594 " clip-rule="nonzero"/></clipPath><clipPath id="4cc31c76f6"><path d="M 19.457031 1.550781 C 18.035156 0.976562 16.539062 0.683594 15 0.683594 C 13.460938 0.683594 11.964844 0.976562 10.542969 1.550781 C 9.078125 2.144531 7.757812 3.019531 6.632812 4.148438 C 4.429688 6.355469 3.199219 9.285156 3.167969 12.402344 C 3.136719 15.511719 4.304688 18.464844 6.460938 20.707031 L 6.453125 20.710938 L 15 29.257812 L 23.5 20.757812 L 23.492188 20.753906 C 25.667969 18.511719 26.855469 15.558594 26.832031 12.433594 C 26.8125 9.300781 25.582031 6.363281 23.367188 4.148438 C 22.234375 3.019531 20.921875 2.144531 19.457031 1.550781 Z M 19.457031 1.550781 " clip-rule="nonzero"/></clipPath><clipPath id="3a15ac6e2f"><path d="M 0.144531 0.683594 L 23.855469 0.683594 L 23.855469 29.300781 L 0.144531 29.300781 Z M 0.144531 0.683594 " clip-rule="nonzero"/></clipPath><clipPath id="4f49f11a17"><path d="M 16.457031 1.550781 C 15.035156 0.976562 13.539062 0.683594 12 0.683594 C 10.460938 0.683594 8.964844 0.976562 7.542969 1.550781 C 6.078125 2.144531 4.757812 3.019531 3.632812 4.148438 C 1.429688 6.355469 0.199219 9.285156 0.167969 12.402344 C 0.136719 15.511719 1.304688 18.464844 3.460938 20.707031 L 3.453125 20.710938 L 12 29.257812 L 20.5 20.757812 L 20.492188 20.753906 C 22.667969 18.511719 23.855469 15.558594 23.832031 12.433594 C 23.8125 9.300781 22.582031 6.363281 20.367188 4.148438 C 19.234375 3.019531 17.921875 2.144531 16.457031 1.550781 Z M 16.457031 1.550781 " clip-rule="nonzero"/></clipPath><clipPath id="9bb7ae748c"><rect x="0" width="24" y="0" height="30"/></clipPath><clipPath id="899d1fb988"><path d="M 4.261719 1.777344 L 25.738281 1.777344 L 25.738281 23.203125 L 4.261719 23.203125 Z M 4.261719 1.777344 " clip-rule="nonzero"/></clipPath><clipPath id="e35327a75a"><path d="M 14.996094 1.789062 C 9.089844 1.789062 4.300781 6.578125 4.300781 12.484375 C 4.300781 18.390625 9.089844 23.179688 14.996094 23.179688 C 20.902344 23.179688 25.691406 18.390625 25.691406 12.484375 C 25.691406 6.578125 20.902344 1.789062 14.996094 1.789062 Z M 14.996094 1.789062 " clip-rule="nonzero"/></clipPath><clipPath id="f8d19cd80d"><path d="M 0.261719 0.777344 L 21.738281 0.777344 L 21.738281 22.203125 L 0.261719 22.203125 Z M 0.261719 0.777344 " clip-rule="nonzero"/></clipPath><clipPath id="8044b98876"><path d="M 10.996094 0.789062 C 5.089844 0.789062 0.300781 5.578125 0.300781 11.484375 C 0.300781 17.390625 5.089844 22.179688 10.996094 22.179688 C 16.902344 22.179688 21.691406 17.390625 21.691406 11.484375 C 21.691406 5.578125 16.902344 0.789062 10.996094 0.789062 Z M 10.996094 0.789062 " clip-rule="nonzero"/></clipPath><clipPath id="5847ef8851"><rect x="0" width="22" y="0" height="23"/></clipPath><clipPath id="d378a04b9c"><path d="M 7.429688 6.113281 L 22.398438 6.113281 L 22.398438 21.082031 L 7.429688 21.082031 Z M 7.429688 6.113281 " clip-rule="nonzero"/></clipPath></defs><g clip-path="url(#caaa9bd205)"><g clip-path="url(#4cc31c76f6)"><g transform="matrix(1, 0, 0, 1, 3, 0.000000000000005773)"><g clip-path="url(#9bb7ae748c)"><g clip-path="url(#3a15ac6e2f)"><g clip-path="url(#4f49f11a17)"><path fill="#faab11" d="M 0.167969 0.683594 L 23.832031 0.683594 L 23.832031 29.25 L 0.167969 29.25 Z M 0.167969 0.683594 " fill-opacity="1" fill-rule="nonzero"/></g></g></g></g></g></g><g clip-path="url(#899d1fb988)"><g clip-path="url(#e35327a75a)"><g transform="matrix(1, 0, 0, 1, 4, 1)"><g clip-path="url(#5847ef8851)"><g clip-path="url(#f8d19cd80d)"><g clip-path="url(#8044b98876)"><rect x="-10.6" width="43.2" fill="#ffffff" height="54.6048" y="-9.3424" fill-opacity="1"/></g></g></g></g></g></g><g clip-path="url(#d378a04b9c)"><path fill="#1800ad" d="M 19.113281 15.273438 L 16.941406 14.738281 L 16.511719 14.632812 C 16.183594 14.554688 15.871094 14.601562 15.578125 14.773438 L 14.925781 15.164062 L 15.003906 13.652344 C 15.078125 13.582031 15.144531 13.507812 15.207031 13.421875 L 16.335938 11.894531 C 16.648438 11.464844 16.558594 10.859375 16.128906 10.542969 C 15.84375 10.332031 15.476562 10.304688 15.171875 10.4375 L 15.210938 9.691406 C 15.621094 9.582031 15.925781 9.207031 15.925781 8.765625 L 15.925781 8.027344 L 21.550781 8.027344 C 22.078125 8.027344 22.503906 7.597656 22.503906 7.070312 C 22.503906 6.542969 22.078125 6.113281 21.550781 6.113281 L 8.390625 6.113281 C 7.863281 6.113281 7.433594 6.542969 7.433594 7.070312 C 7.433594 7.597656 7.863281 8.027344 8.390625 8.027344 L 14.011719 8.027344 L 14.011719 8.765625 C 14.011719 9.214844 14.324219 9.589844 14.738281 9.695312 L 14.675781 10.886719 L 13.59375 12.359375 C 13.539062 12.433594 13.46875 12.472656 13.378906 12.484375 C 13.273438 12.496094 13.140625 12.507812 12.988281 12.519531 C 12.542969 12.558594 12.132812 12.601562 11.789062 12.671875 C 11.933594 12.21875 11.847656 11.699219 11.519531 11.304688 C 11.007812 10.6875 10.085938 10.601562 9.46875 11.113281 C 8.851562 11.628906 8.765625 12.546875 9.277344 13.164062 C 9.527344 13.464844 9.878906 13.648438 10.265625 13.6875 C 10.3125 13.691406 10.355469 13.691406 10.402344 13.691406 C 10.46875 13.691406 10.539062 13.6875 10.605469 13.679688 C 10.585938 13.742188 10.574219 13.8125 10.566406 13.882812 C 10.527344 14.246094 10.628906 14.605469 10.859375 14.890625 L 11.753906 16.003906 C 11.757812 16.015625 11.765625 16.03125 11.777344 16.042969 C 11.789062 16.058594 11.804688 16.074219 11.820312 16.085938 L 12.921875 17.460938 C 13.1875 17.792969 13.527344 17.996094 13.933594 18.066406 L 15.265625 18.582031 L 15.835938 19.746094 L 16.265625 20.636719 C 16.375 20.871094 16.570312 21.046875 16.816406 21.132812 C 16.921875 21.167969 17.03125 21.1875 17.136719 21.1875 C 17.28125 21.1875 17.421875 21.15625 17.554688 21.089844 C 18.035156 20.859375 18.238281 20.285156 18.007812 19.804688 L 17.355469 18.445312 L 16.878906 17.457031 C 16.863281 17.417969 16.835938 17.386719 16.800781 17.363281 L 16.210938 16.96875 L 16.476562 16.746094 C 16.558594 16.679688 16.648438 16.65625 16.75 16.683594 L 18.65625 17.148438 C 18.90625 17.210938 19.164062 17.171875 19.386719 17.035156 C 19.601562 16.90625 19.753906 16.703125 19.816406 16.460938 C 19.820312 16.453125 19.820312 16.449219 19.824219 16.441406 C 19.949219 15.921875 19.632812 15.398438 19.113281 15.273438 Z M 12.304688 15.941406 L 13.753906 14.867188 L 14.050781 15.234375 L 12.601562 16.308594 Z M 13.859375 14.242188 L 14.519531 13.949219 L 14.464844 14.996094 Z M 7.902344 7.070312 C 7.902344 6.800781 8.121094 6.582031 8.390625 6.582031 L 21.550781 6.582031 C 21.816406 6.582031 22.035156 6.800781 22.035156 7.070312 C 22.035156 7.339844 21.816406 7.554688 21.550781 7.554688 L 8.390625 7.554688 C 8.121094 7.554688 7.902344 7.339844 7.902344 7.070312 Z M 14.484375 8.765625 L 14.484375 8.027344 L 15.457031 8.027344 L 15.457031 8.765625 C 15.457031 9.027344 15.242188 9.246094 14.980469 9.25 C 14.976562 9.25 14.972656 9.25 14.96875 9.25 C 14.703125 9.25 14.484375 9.03125 14.484375 8.765625 Z M 10.308594 13.21875 C 10.046875 13.191406 9.808594 13.066406 9.640625 12.863281 C 9.292969 12.445312 9.351562 11.824219 9.769531 11.476562 C 10.1875 11.128906 10.8125 11.1875 11.160156 11.605469 C 11.507812 12.023438 11.449219 12.648438 11.03125 12.992188 C 10.828125 13.164062 10.570312 13.242188 10.308594 13.21875 Z M 11.035156 13.933594 C 11.0625 13.691406 11.179688 13.476562 11.367188 13.328125 C 11.636719 13.109375 12.507812 13.035156 13.03125 12.988281 C 13.1875 12.976562 13.320312 12.964844 13.433594 12.953125 C 13.652344 12.925781 13.839844 12.816406 13.972656 12.636719 L 15.15625 11.027344 C 15.253906 10.894531 15.40625 10.828125 15.558594 10.828125 C 15.660156 10.828125 15.761719 10.859375 15.851562 10.921875 C 16.070312 11.085938 16.117188 11.394531 15.957031 11.613281 L 14.828125 13.144531 C 14.714844 13.296875 14.589844 13.402344 14.414062 13.480469 L 13.386719 13.9375 C 13.320312 13.96875 13.273438 14.027344 13.253906 14.097656 C 13.238281 14.167969 13.253906 14.242188 13.300781 14.300781 L 13.460938 14.5 L 12.011719 15.574219 L 11.226562 14.59375 C 11.078125 14.40625 11.007812 14.171875 11.035156 13.933594 Z M 16.484375 17.71875 L 16.929688 18.648438 L 17.582031 20.007812 C 17.699219 20.253906 17.597656 20.550781 17.351562 20.667969 C 17.230469 20.722656 17.097656 20.730469 16.972656 20.6875 C 16.847656 20.644531 16.746094 20.554688 16.6875 20.433594 L 16.261719 19.542969 L 15.644531 18.292969 C 15.621094 18.238281 15.574219 18.199219 15.519531 18.175781 L 14.9375 17.953125 C 15.078125 17.890625 15.210938 17.804688 15.335938 17.703125 L 15.835938 17.28125 Z M 19.371094 16.3125 C 19.367188 16.316406 19.367188 16.324219 19.367188 16.328125 C 19.335938 16.457031 19.253906 16.566406 19.140625 16.632812 C 19.027344 16.703125 18.894531 16.722656 18.765625 16.691406 L 16.863281 16.226562 C 16.617188 16.164062 16.371094 16.222656 16.175781 16.386719 L 15.675781 16.804688 C 15.671875 16.804688 15.667969 16.808594 15.667969 16.808594 L 15.03125 17.339844 C 14.765625 17.5625 14.46875 17.65625 14.125 17.621094 C 13.777344 17.585938 13.507812 17.4375 13.289062 17.167969 L 12.898438 16.675781 L 14.355469 15.59375 C 14.550781 15.75 14.820312 15.777344 15.042969 15.644531 L 15.820312 15.179688 C 16.003906 15.070312 16.191406 15.039062 16.398438 15.089844 L 16.828125 15.195312 L 19.003906 15.730469 C 19.261719 15.792969 19.425781 16.054688 19.371094 16.3125 Z M 22.496094 9.660156 C 22.488281 9.546875 22.40625 9.457031 22.296875 9.4375 C 21.316406 9.277344 20.488281 8.957031 19.773438 8.464844 C 19.691406 8.40625 19.585938 8.40625 19.503906 8.464844 C 18.789062 8.957031 17.960938 9.277344 16.980469 9.4375 C 16.871094 9.457031 16.789062 9.546875 16.785156 9.660156 C 16.71875 11.070312 16.929688 12.234375 17.40625 13.113281 C 17.867188 13.96875 18.59375 14.582031 19.558594 14.9375 C 19.582031 14.945312 19.613281 14.953125 19.640625 14.953125 C 19.667969 14.953125 19.695312 14.945312 19.71875 14.9375 C 20.6875 14.582031 21.410156 13.96875 21.871094 13.113281 C 22.351562 12.234375 22.558594 11.070312 22.496094 9.660156 Z M 19.640625 14.464844 C 17.960938 13.808594 17.175781 12.300781 17.246094 9.871094 C 18.15625 9.699219 18.941406 9.394531 19.640625 8.941406 C 20.335938 9.394531 21.121094 9.699219 22.03125 9.871094 C 22.101562 12.300781 21.316406 13.808594 19.640625 14.464844 Z M 21.5 10.113281 C 20.863281 9.964844 20.277344 9.734375 19.757812 9.429688 C 19.683594 9.386719 19.59375 9.386719 19.519531 9.429688 C 19 9.734375 18.414062 9.964844 17.78125 10.113281 C 17.671875 10.140625 17.597656 10.234375 17.597656 10.34375 C 17.605469 11.203125 17.734375 11.902344 18 12.484375 C 18.320312 13.1875 18.835938 13.707031 19.542969 14.027344 C 19.574219 14.042969 19.605469 14.046875 19.640625 14.046875 C 19.671875 14.046875 19.707031 14.042969 19.734375 14.027344 C 20.441406 13.707031 20.960938 13.1875 21.277344 12.484375 C 21.542969 11.902344 21.671875 11.203125 21.679688 10.34375 C 21.679688 10.234375 21.605469 10.140625 21.5 10.113281 Z M 19.640625 13.550781 C 18.636719 13.050781 18.121094 12.058594 18.074219 10.527344 C 18.636719 10.378906 19.160156 10.167969 19.640625 9.902344 C 20.117188 10.167969 20.640625 10.378906 21.207031 10.527344 C 21.15625 12.058594 20.644531 13.050781 19.640625 13.550781 Z M 19.453125 11.878906 L 20.261719 11.070312 C 20.355469 10.976562 20.503906 10.976562 20.597656 11.070312 C 20.6875 11.160156 20.6875 11.308594 20.597656 11.402344 L 19.621094 12.378906 C 19.574219 12.421875 19.511719 12.445312 19.453125 12.445312 C 19.394531 12.445312 19.332031 12.421875 19.285156 12.378906 L 18.683594 11.773438 C 18.589844 11.683594 18.589844 11.535156 18.683594 11.441406 C 18.773438 11.347656 18.921875 11.347656 19.015625 11.441406 Z M 19.453125 11.878906 " fill-opacity="1" fill-rule="nonzero"/></g></svg>