<svg xmlns="http://www.w3.org/2000/svg" xmlns:xlink="http://www.w3.org/1999/xlink" width="40" zoomAndPan="magnify" viewBox="0 0 30 37.92" height="40" preserveAspectRatio="xMidYMid meet" version="1.0"><defs><clipPath id="9794de6ba3"><path d="M 3.714844 1.402344 L 26.285156 1.402344 L 26.285156 28.578125 L 3.714844 28.578125 Z M 3.714844 1.402344 " clip-rule="nonzero"/></clipPath><clipPath id="1a4cef5dbd"><path d="M 19.230469 2.226562 C 17.882812 1.679688 16.460938 1.402344 15 1.402344 C 13.539062 1.402344 12.117188 1.679688 10.769531 2.226562 C 9.375 2.789062 8.121094 3.621094 7.050781 4.691406 C 4.960938 6.789062 3.792969 9.574219 3.761719 12.53125 C 3.734375 15.484375 4.84375 18.289062 6.890625 20.417969 L 6.882812 20.421875 L 15 28.539062 L 23.070312 20.46875 L 23.066406 20.464844 C 25.132812 18.332031 26.257812 15.527344 26.238281 12.558594 C 26.21875 9.585938 25.046875 6.796875 22.949219 4.691406 C 21.871094 3.621094 20.625 2.789062 19.230469 2.226562 Z M 19.230469 2.226562 " clip-rule="nonzero"/></clipPath><clipPath id="301c25c94b"><path d="M 0.714844 0.402344 L 23.285156 0.402344 L 23.285156 27.578125 L 0.714844 27.578125 Z M 0.714844 0.402344 " clip-rule="nonzero"/></clipPath><clipPath id="46f11cdc55"><path d="M 16.230469 1.226562 C 14.882812 0.679688 13.460938 0.402344 12 0.402344 C 10.539062 0.402344 9.117188 0.679688 7.769531 1.226562 C 6.375 1.789062 5.121094 2.621094 4.050781 3.691406 C 1.960938 5.789062 0.792969 8.574219 0.761719 11.53125 C 0.734375 14.484375 1.84375 17.289062 3.890625 19.417969 L 3.882812 19.421875 L 12 27.539062 L 20.070312 19.46875 L 20.066406 19.464844 C 22.132812 17.332031 23.257812 14.527344 23.238281 11.558594 C 23.21875 8.585938 22.046875 5.796875 19.949219 3.691406 C 18.871094 2.621094 17.625 1.789062 16.230469 1.226562 Z M 16.230469 1.226562 " clip-rule="nonzero"/></clipPath><clipPath id="8d4e0e799f"><rect x="0" width="24" y="0" height="28"/></clipPath><clipPath id="5359ea6593"><path d="M 4.800781 2.441406 L 25.199219 2.441406 L 25.199219 22.789062 L 4.800781 22.789062 Z M 4.800781 2.441406 " clip-rule="nonzero"/></clipPath><clipPath id="cfdd94b64c"><path d="M 14.996094 2.453125 C 9.386719 2.453125 4.839844 7 4.839844 12.609375 C 4.839844 18.21875 9.386719 22.765625 14.996094 22.765625 C 20.605469 22.765625 25.152344 18.21875 25.152344 12.609375 C 25.152344 7 20.605469 2.453125 14.996094 2.453125 Z M 14.996094 2.453125 " clip-rule="nonzero"/></clipPath><clipPath id="d9880945ea"><path d="M 0.820312 0.441406 L 21.179688 0.441406 L 21.179688 20.789062 L 0.820312 20.789062 Z M 0.820312 0.441406 " clip-rule="nonzero"/></clipPath><clipPath id="430250a4ea"><path d="M 10.996094 0.453125 C 5.386719 0.453125 0.839844 5 0.839844 10.609375 C 0.839844 16.21875 5.386719 20.765625 10.996094 20.765625 C 16.605469 20.765625 21.152344 16.21875 21.152344 10.609375 C 21.152344 5 16.605469 0.453125 10.996094 0.453125 Z M 10.996094 0.453125 " clip-rule="nonzero"/></clipPath><clipPath id="f0e3bed806"><rect x="0" width="22" y="0" height="21"/></clipPath><clipPath id="69185b53da"><path d="M 6.527344 5.511719 L 23.742188 5.511719 L 23.742188 18.984375 L 6.527344 18.984375 Z M 6.527344 5.511719 " clip-rule="nonzero"/></clipPath></defs><g clip-path="url(#9794de6ba3)"><g clip-path="url(#1a4cef5dbd)"><g transform="matrix(1, 0, 0, 1, 3, 1)"><g clip-path="url(#8d4e0e799f)"><g clip-path="url(#301c25c94b)"><g clip-path="url(#46f11cdc55)"><path fill="#ffca0c" d="M 0.761719 0.402344 L 23.238281 0.402344 L 23.238281 27.53125 L 0.761719 27.53125 Z M 0.761719 0.402344 " fill-opacity="1" fill-rule="nonzero"/></g></g></g></g></g></g><g clip-path="url(#5359ea6593)"><g clip-path="url(#cfdd94b64c)"><g transform="matrix(1, 0, 0, 1, 4, 2)"><g clip-path="url(#f0e3bed806)"><g clip-path="url(#d9880945ea)"><g clip-path="url(#430250a4ea)"><rect x="-10.6" width="43.2" fill="#ffffff" height="54.6048" y="-10.3424" fill-opacity="1"/></g></g></g></g></g></g><g clip-path="url(#69185b53da)"><path fill="#1800ad" d="M 15 10.4375 C 13.988281 11.214844 12.800781 11.585938 11.464844 11.542969 C 11.550781 15.757812 12.78125 17.421875 15 18.886719 C 17.21875 17.421875 18.449219 15.757812 18.535156 11.542969 C 17.199219 11.585938 16.011719 11.214844 15 10.4375 Z M 15 16.523438 C 14.703125 16.523438 14.417969 16.46875 14.140625 16.355469 C 13.867188 16.242188 13.625 16.078125 13.414062 15.871094 C 13.203125 15.660156 13.042969 15.417969 12.929688 15.140625 C 12.816406 14.867188 12.757812 14.582031 12.757812 14.285156 C 12.757812 13.988281 12.816406 13.703125 12.929688 13.425781 C 13.042969 13.152344 13.203125 12.910156 13.414062 12.699219 C 13.625 12.488281 13.867188 12.328125 14.140625 12.214844 C 14.417969 12.101562 14.703125 12.042969 15 12.042969 C 15.296875 12.042969 15.582031 12.101562 15.855469 12.214844 C 16.132812 12.328125 16.375 12.488281 16.582031 12.699219 C 16.792969 12.910156 16.957031 13.152344 17.070312 13.425781 C 17.183594 13.703125 17.242188 13.988281 17.242188 14.285156 C 17.238281 14.582031 17.183594 14.867188 17.070312 15.140625 C 16.957031 15.414062 16.792969 15.65625 16.582031 15.867188 C 16.375 16.078125 16.132812 16.238281 15.855469 16.355469 C 15.582031 16.46875 15.296875 16.523438 15 16.523438 Z M 23.46875 15.425781 C 23.46875 15.578125 23.4375 15.722656 23.378906 15.863281 C 23.320312 16.003906 23.238281 16.128906 23.132812 16.234375 C 23.023438 16.34375 22.902344 16.425781 22.761719 16.484375 C 22.621094 16.542969 22.476562 16.570312 22.324219 16.570312 L 18.039062 16.570312 C 18.058594 16.539062 18.074219 16.507812 18.089844 16.476562 C 18.421875 15.84375 18.667969 15.121094 18.832031 14.285156 L 22.324219 14.285156 C 22.476562 14.285156 22.621094 14.3125 22.761719 14.371094 C 22.902344 14.429688 23.023438 14.511719 23.132812 14.617188 C 23.238281 14.726562 23.320312 14.851562 23.378906 14.988281 C 23.4375 15.128906 23.46875 15.277344 23.46875 15.425781 Z M 11.910156 16.476562 C 11.925781 16.507812 11.941406 16.539062 11.960938 16.570312 L 7.671875 16.570312 C 7.519531 16.570312 7.375 16.542969 7.234375 16.484375 C 7.09375 16.425781 6.96875 16.34375 6.863281 16.234375 C 6.753906 16.128906 6.671875 16.003906 6.613281 15.863281 C 6.558594 15.726562 6.527344 15.578125 6.527344 15.425781 C 6.527344 15.277344 6.558594 15.128906 6.613281 14.988281 C 6.671875 14.851562 6.753906 14.726562 6.863281 14.617188 C 6.96875 14.511719 7.09375 14.429688 7.234375 14.371094 C 7.375 14.3125 7.519531 14.285156 7.671875 14.285156 L 11.167969 14.285156 C 11.332031 15.121094 11.578125 15.84375 11.910156 16.476562 Z M 8.582031 13.71875 C 8.539062 13.414062 8.515625 13.109375 8.515625 12.804688 C 8.515625 12.199219 8.597656 11.609375 8.761719 11.03125 C 8.925781 10.449219 9.164062 9.90625 9.480469 9.390625 C 9.796875 8.878906 10.175781 8.421875 10.621094 8.015625 C 11.066406 7.609375 11.558594 7.273438 12.097656 7.003906 L 11.972656 8.195312 C 11.964844 8.273438 11.984375 8.339844 12.03125 8.402344 C 12.082031 8.460938 12.144531 8.496094 12.222656 8.503906 C 12.230469 8.507812 12.242188 8.507812 12.253906 8.507812 C 12.421875 8.507812 12.515625 8.421875 12.53125 8.253906 L 12.710938 6.570312 L 12.769531 6.019531 C 12.785156 5.875 12.847656 5.753906 12.957031 5.65625 C 13.066406 5.5625 13.191406 5.511719 13.335938 5.511719 L 16.664062 5.511719 C 16.808594 5.511719 16.933594 5.5625 17.042969 5.660156 C 17.152344 5.753906 17.214844 5.875 17.230469 6.019531 L 17.289062 6.570312 L 17.46875 8.253906 C 17.484375 8.421875 17.578125 8.507812 17.75 8.507812 C 17.757812 8.507812 17.769531 8.507812 17.777344 8.503906 C 17.855469 8.496094 17.917969 8.460938 17.96875 8.402344 C 18.015625 8.339844 18.039062 8.273438 18.027344 8.195312 L 17.902344 7.003906 C 18.441406 7.273438 18.933594 7.609375 19.378906 8.015625 C 19.820312 8.421875 20.203125 8.878906 20.519531 9.390625 C 20.835938 9.90625 21.074219 10.449219 21.238281 11.03125 C 21.402344 11.609375 21.484375 12.199219 21.484375 12.804688 C 21.484375 13.109375 21.460938 13.414062 21.417969 13.71875 L 18.929688 13.71875 C 19.039062 12.984375 19.097656 12.164062 19.101562 11.246094 C 19.105469 11.164062 19.074219 11.09375 19.011719 11.039062 C 18.953125 10.980469 18.882812 10.957031 18.800781 10.960938 C 17.386719 11.070312 16.203125 10.710938 15.179688 9.859375 C 15.058594 9.757812 14.941406 9.757812 14.820312 9.859375 C 13.796875 10.710938 12.613281 11.070312 11.203125 10.960938 C 11.117188 10.957031 11.046875 10.980469 10.988281 11.039062 C 10.925781 11.09375 10.898438 11.164062 10.898438 11.246094 C 10.902344 12.164062 10.960938 12.984375 11.070312 13.71875 Z M 15 12.609375 C 14.777344 12.609375 14.5625 12.652344 14.359375 12.734375 C 14.152344 12.820312 13.972656 12.941406 13.8125 13.097656 C 13.65625 13.257812 13.535156 13.4375 13.449219 13.644531 C 13.367188 13.847656 13.324219 14.0625 13.324219 14.285156 C 13.324219 14.507812 13.367188 14.722656 13.449219 14.925781 C 13.535156 15.132812 13.65625 15.3125 13.8125 15.46875 C 13.972656 15.628906 14.152344 15.75 14.359375 15.832031 C 14.5625 15.917969 14.777344 15.960938 15 15.960938 C 15.222656 15.960938 15.4375 15.917969 15.640625 15.832031 C 15.847656 15.75 16.027344 15.628906 16.183594 15.46875 C 16.34375 15.3125 16.464844 15.132812 16.546875 14.925781 C 16.632812 14.71875 16.675781 14.507812 16.675781 14.285156 C 16.675781 14.0625 16.632812 13.847656 16.546875 13.644531 C 16.460938 13.4375 16.339844 13.257812 16.183594 13.101562 C 16.027344 12.941406 15.847656 12.820312 15.640625 12.738281 C 15.4375 12.652344 15.222656 12.609375 15 12.609375 Z M 16.167969 13.769531 L 14.976562 15.164062 C 14.925781 15.222656 14.863281 15.257812 14.789062 15.261719 C 14.710938 15.269531 14.644531 15.25 14.585938 15.199219 L 13.871094 14.621094 C 13.8125 14.574219 13.78125 14.511719 13.773438 14.433594 C 13.765625 14.359375 13.789062 14.292969 13.835938 14.230469 C 13.882812 14.171875 13.945312 14.136719 14.019531 14.128906 C 14.097656 14.121094 14.164062 14.136719 14.226562 14.183594 L 14.726562 14.589844 L 15.738281 13.40625 C 15.789062 13.34375 15.851562 13.3125 15.929688 13.308594 C 16.007812 13.300781 16.074219 13.324219 16.132812 13.375 C 16.191406 13.425781 16.226562 13.488281 16.230469 13.566406 C 16.238281 13.644531 16.214844 13.710938 16.167969 13.769531 Z M 16.167969 13.769531 " fill-opacity="1" fill-rule="nonzero"/></g></svg>