<svg xmlns="http://www.w3.org/2000/svg" xmlns:xlink="http://www.w3.org/1999/xlink" width="40" zoomAndPan="magnify" viewBox="0 0 30 37.92" height="40" preserveAspectRatio="xMidYMid meet" version="1.0"><defs><clipPath id="5fb51ebd85"><path d="M 3.113281 0.683594 L 26.886719 0.683594 L 26.886719 29.300781 L 3.113281 29.300781 Z M 3.113281 0.683594 " clip-rule="nonzero"/></clipPath><clipPath id="147780a83a"><path d="M 19.457031 1.550781 C 18.035156 0.976562 16.539062 0.683594 15 0.683594 C 13.460938 0.683594 11.964844 0.976562 10.542969 1.550781 C 9.078125 2.144531 7.757812 3.019531 6.632812 4.148438 C 4.429688 6.355469 3.199219 9.285156 3.167969 12.402344 C 3.136719 15.511719 4.304688 18.464844 6.460938 20.707031 L 6.453125 20.710938 L 15 29.257812 L 23.5 20.757812 L 23.492188 20.753906 C 25.667969 18.511719 26.855469 15.558594 26.832031 12.433594 C 26.8125 9.300781 25.582031 6.363281 23.367188 4.148438 C 22.234375 3.019531 20.921875 2.144531 19.457031 1.550781 Z M 19.457031 1.550781 " clip-rule="nonzero"/></clipPath><clipPath id="8c0861aa3a"><path d="M 0.144531 0.683594 L 23.855469 0.683594 L 23.855469 29.300781 L 0.144531 29.300781 Z M 0.144531 0.683594 " clip-rule="nonzero"/></clipPath><clipPath id="6e878f09dd"><path d="M 16.457031 1.550781 C 15.035156 0.976562 13.539062 0.683594 12 0.683594 C 10.460938 0.683594 8.964844 0.976562 7.542969 1.550781 C 6.078125 2.144531 4.757812 3.019531 3.632812 4.148438 C 1.429688 6.355469 0.199219 9.285156 0.167969 12.402344 C 0.136719 15.511719 1.304688 18.464844 3.460938 20.707031 L 3.453125 20.710938 L 12 29.257812 L 20.5 20.757812 L 20.492188 20.753906 C 22.667969 18.511719 23.855469 15.558594 23.832031 12.433594 C 23.8125 9.300781 22.582031 6.363281 20.367188 4.148438 C 19.234375 3.019531 17.921875 2.144531 16.457031 1.550781 Z M 16.457031 1.550781 " clip-rule="nonzero"/></clipPath><clipPath id="556002147b"><rect x="0" width="24" y="0" height="30"/></clipPath><clipPath id="aea7d7a009"><path d="M 4.261719 1.777344 L 25.738281 1.777344 L 25.738281 23.203125 L 4.261719 23.203125 Z M 4.261719 1.777344 " clip-rule="nonzero"/></clipPath><clipPath id="cc17b20f08"><path d="M 14.996094 1.789062 C 9.089844 1.789062 4.300781 6.578125 4.300781 12.484375 C 4.300781 18.390625 9.089844 23.179688 14.996094 23.179688 C 20.902344 23.179688 25.691406 18.390625 25.691406 12.484375 C 25.691406 6.578125 20.902344 1.789062 14.996094 1.789062 Z M 14.996094 1.789062 " clip-rule="nonzero"/></clipPath><clipPath id="d5f14ce5d6"><path d="M 0.261719 0.777344 L 21.738281 0.777344 L 21.738281 22.203125 L 0.261719 22.203125 Z M 0.261719 0.777344 " clip-rule="nonzero"/></clipPath><clipPath id="95e846ba56"><path d="M 10.996094 0.789062 C 5.089844 0.789062 0.300781 5.578125 0.300781 11.484375 C 0.300781 17.390625 5.089844 22.179688 10.996094 22.179688 C 16.902344 22.179688 21.691406 17.390625 21.691406 11.484375 C 21.691406 5.578125 16.902344 0.789062 10.996094 0.789062 Z M 10.996094 0.789062 " clip-rule="nonzero"/></clipPath><clipPath id="294b3677b6"><rect x="0" width="22" y="0" height="23"/></clipPath><clipPath id="22ae8664cb"><path d="M 10 16 L 23.722656 16 L 23.722656 19 L 10 19 Z M 10 16 " clip-rule="nonzero"/></clipPath><clipPath id="de5c579d79"><path d="M 13 14 L 23.722656 14 L 23.722656 17 L 13 17 Z M 13 14 " clip-rule="nonzero"/></clipPath><clipPath id="cb1fb66776"><path d="M 11 6.488281 L 21 6.488281 L 21 15 L 11 15 Z M 11 6.488281 " clip-rule="nonzero"/></clipPath><clipPath id="3344993f20"><path d="M 6.507812 11 L 12 11 L 12 19.960938 L 6.507812 19.960938 Z M 6.507812 11 " clip-rule="nonzero"/></clipPath></defs><g clip-path="url(#5fb51ebd85)"><g clip-path="url(#147780a83a)"><g transform="matrix(1, 0, 0, 1, 3, 0.000000000000005773)"><g clip-path="url(#556002147b)"><g clip-path="url(#8c0861aa3a)"><g clip-path="url(#6e878f09dd)"><path fill="#faab11" d="M 0.167969 0.683594 L 23.832031 0.683594 L 23.832031 29.25 L 0.167969 29.25 Z M 0.167969 0.683594 " fill-opacity="1" fill-rule="nonzero"/></g></g></g></g></g></g><g clip-path="url(#aea7d7a009)"><g clip-path="url(#cc17b20f08)"><g transform="matrix(1, 0, 0, 1, 4, 1)"><g clip-path="url(#294b3677b6)"><g clip-path="url(#d5f14ce5d6)"><g clip-path="url(#95e846ba56)"><rect x="-10.6" width="43.2" fill="#ffffff" height="54.6048" y="-9.3424" fill-opacity="1"/></g></g></g></g></g></g><path fill="#1800ad" d="M 13.722656 13.867188 L 13.691406 13.867188 C 13.574219 13.867188 13.476562 13.964844 13.476562 14.082031 C 13.476562 14.109375 13.484375 14.128906 13.488281 14.152344 C 13.519531 14.238281 13.597656 14.296875 13.691406 14.296875 L 20.027344 14.296875 C 20.121094 14.296875 20.199219 14.238281 20.230469 14.152344 C 20.238281 14.128906 20.242188 14.109375 20.242188 14.082031 C 20.242188 13.964844 20.144531 13.867188 20.027344 13.867188 L 19.996094 13.867188 L 19.996094 12.199219 L 13.722656 12.199219 Z M 13.722656 13.867188 " fill-opacity="1" fill-rule="nonzero"/><g clip-path="url(#22ae8664cb)"><path fill="#1800ad" d="M 13.722656 16.769531 C 13.722656 16.933594 13.761719 17.089844 13.824219 17.230469 L 13.402344 17.230469 L 13.402344 17.9375 L 10.351562 17.9375 L 10.351562 18.214844 L 23.476562 18.214844 L 23.476562 17.9375 L 20.320312 17.9375 L 20.320312 17.230469 L 19.894531 17.230469 C 19.960938 17.089844 19.996094 16.933594 19.996094 16.769531 L 19.996094 16.675781 L 13.722656 16.675781 Z M 13.722656 16.769531 " fill-opacity="1" fill-rule="nonzero"/></g><g clip-path="url(#de5c579d79)"><path fill="#1800ad" d="M 13.722656 16.109375 L 13.691406 16.109375 C 13.574219 16.109375 13.476562 16.203125 13.476562 16.324219 C 13.476562 16.347656 13.484375 16.371094 13.488281 16.390625 C 13.519531 16.476562 13.597656 16.539062 13.691406 16.539062 L 20.027344 16.539062 C 20.121094 16.539062 20.199219 16.476562 20.230469 16.390625 C 20.238281 16.371094 20.242188 16.347656 20.242188 16.324219 C 20.242188 16.203125 20.144531 16.109375 20.027344 16.109375 L 19.996094 16.109375 L 19.996094 15.617188 L 21.0625 15.617188 L 21.0625 16.675781 C 21.0625 16.738281 21.089844 16.796875 21.132812 16.839844 C 21.175781 16.882812 21.234375 16.90625 21.292969 16.90625 L 23.015625 16.90625 L 23.015625 16.445312 L 22.359375 16.445312 L 22.359375 16.003906 L 22.671875 16.003906 L 22.671875 15.820312 L 21.863281 15.820312 L 21.863281 16.003906 L 22.175781 16.003906 L 22.175781 16.445312 L 21.523438 16.445312 L 21.523438 15.386719 C 21.523438 15.324219 21.5 15.265625 21.457031 15.222656 C 21.414062 15.179688 21.355469 15.15625 21.292969 15.15625 L 19.996094 15.15625 L 19.996094 14.4375 L 13.722656 14.4375 Z M 13.722656 16.109375 " fill-opacity="1" fill-rule="nonzero"/></g><path fill="#1800ad" d="M 13.722656 11.628906 L 13.691406 11.628906 C 13.574219 11.628906 13.476562 11.726562 13.476562 11.84375 C 13.476562 11.867188 13.484375 11.890625 13.488281 11.914062 C 13.519531 11.996094 13.597656 12.058594 13.691406 12.058594 L 20.027344 12.058594 C 20.121094 12.058594 20.199219 11.996094 20.230469 11.914062 C 20.238281 11.890625 20.242188 11.867188 20.242188 11.84375 C 20.242188 11.726562 20.144531 11.628906 20.027344 11.628906 L 19.996094 11.628906 L 19.996094 9.957031 L 13.722656 9.957031 Z M 13.722656 11.628906 " fill-opacity="1" fill-rule="nonzero"/><g clip-path="url(#cb1fb66776)"><path fill="#1800ad" d="M 11.410156 14.753906 L 12.195312 14.753906 C 12.253906 14.753906 12.3125 14.730469 12.355469 14.6875 C 12.398438 14.644531 12.425781 14.585938 12.425781 14.523438 L 12.425781 7.53125 L 14.882812 7.53125 L 14.882812 8.191406 L 14.832031 8.191406 C 14.21875 8.191406 13.722656 8.6875 13.722656 9.296875 L 13.722656 9.390625 L 13.691406 9.390625 C 13.574219 9.390625 13.476562 9.484375 13.476562 9.605469 C 13.476562 9.628906 13.484375 9.652344 13.488281 9.675781 C 13.519531 9.757812 13.597656 9.820312 13.691406 9.820312 L 20.027344 9.820312 C 20.121094 9.820312 20.199219 9.757812 20.230469 9.675781 C 20.238281 9.652344 20.242188 9.628906 20.242188 9.605469 C 20.242188 9.484375 20.144531 9.390625 20.027344 9.390625 L 19.996094 9.390625 L 19.996094 9.296875 C 19.996094 8.6875 19.5 8.191406 18.890625 8.191406 L 15.34375 8.191406 L 15.34375 7.300781 C 15.34375 7.238281 15.320312 7.179688 15.277344 7.136719 C 15.234375 7.09375 15.175781 7.066406 15.113281 7.066406 L 13.457031 7.066406 L 13.457031 6.671875 L 13.769531 6.671875 L 13.769531 6.488281 L 12.960938 6.488281 L 12.960938 6.671875 L 13.273438 6.671875 L 13.273438 7.066406 L 12.195312 7.066406 C 12.132812 7.066406 12.074219 7.09375 12.03125 7.136719 C 11.988281 7.179688 11.964844 7.238281 11.964844 7.300781 L 11.964844 14.292969 L 11.402344 14.292969 C 11.40625 14.417969 11.410156 14.542969 11.410156 14.671875 C 11.410156 14.699219 11.410156 14.726562 11.410156 14.753906 Z M 11.410156 14.753906 " fill-opacity="1" fill-rule="nonzero"/></g><path fill="#1800ad" d="M 9.863281 10.1875 C 9.863281 10.324219 9.839844 10.457031 9.785156 10.585938 C 9.734375 10.710938 9.65625 10.824219 9.558594 10.921875 C 9.464844 11.019531 9.351562 11.09375 9.222656 11.148438 C 9.097656 11.199219 8.964844 11.226562 8.828125 11.226562 C 8.6875 11.226562 8.558594 11.199219 8.429688 11.148438 C 8.300781 11.09375 8.191406 11.019531 8.09375 10.921875 C 7.996094 10.824219 7.921875 10.710938 7.867188 10.585938 C 7.816406 10.457031 7.789062 10.324219 7.789062 10.1875 C 7.789062 10.050781 7.816406 9.917969 7.867188 9.792969 C 7.921875 9.664062 7.996094 9.550781 8.09375 9.453125 C 8.191406 9.355469 8.300781 9.28125 8.429688 9.230469 C 8.558594 9.175781 8.6875 9.152344 8.828125 9.152344 C 8.964844 9.152344 9.097656 9.175781 9.222656 9.230469 C 9.351562 9.28125 9.464844 9.355469 9.558594 9.453125 C 9.65625 9.550781 9.734375 9.664062 9.785156 9.792969 C 9.839844 9.917969 9.863281 10.050781 9.863281 10.1875 Z M 9.863281 10.1875 " fill-opacity="1" fill-rule="nonzero"/><g clip-path="url(#3344993f20)"><path fill="#1800ad" d="M 6.9375 15.902344 C 7.140625 15.890625 7.296875 15.714844 7.285156 15.511719 C 7.265625 15.207031 7.257812 14.925781 7.257812 14.671875 C 7.257812 13.554688 7.417969 12.929688 7.578125 12.601562 L 7.578125 19.519531 C 7.578125 19.832031 7.835938 20.089844 8.148438 20.089844 C 8.464844 20.089844 8.71875 19.832031 8.71875 19.519531 L 8.71875 15.355469 L 8.933594 15.355469 L 8.933594 19.519531 C 8.933594 19.832031 9.1875 20.089844 9.503906 20.089844 C 9.820312 20.089844 10.074219 19.832031 10.074219 19.519531 L 10.074219 12.601562 C 10.101562 12.660156 10.128906 12.722656 10.15625 12.796875 C 10.285156 13.160156 10.394531 13.75 10.394531 14.671875 C 10.394531 14.925781 10.386719 15.207031 10.367188 15.511719 C 10.355469 15.714844 10.511719 15.890625 10.714844 15.902344 C 10.722656 15.902344 10.730469 15.902344 10.738281 15.902344 C 10.929688 15.902344 11.09375 15.753906 11.105469 15.554688 C 11.125 15.234375 11.132812 14.941406 11.132812 14.671875 C 11.132812 13.28125 10.910156 12.511719 10.605469 12.046875 C 10.453125 11.816406 10.277344 11.667969 10.113281 11.589844 C 9.957031 11.507812 9.820312 11.492188 9.734375 11.488281 C 9.730469 11.488281 9.722656 11.488281 9.71875 11.488281 L 7.9375 11.488281 C 7.929688 11.488281 7.925781 11.488281 7.917969 11.488281 C 7.835938 11.492188 7.695312 11.507812 7.539062 11.585938 C 7.292969 11.710938 7.023438 11.980469 6.835938 12.457031 C 6.648438 12.933594 6.519531 13.628906 6.519531 14.671875 C 6.519531 14.941406 6.527344 15.234375 6.546875 15.554688 C 6.558594 15.753906 6.722656 15.902344 6.914062 15.902344 C 6.921875 15.902344 6.929688 15.902344 6.9375 15.902344 Z M 6.9375 15.902344 " fill-opacity="1" fill-rule="nonzero"/></g></svg>