<svg xmlns="http://www.w3.org/2000/svg" xmlns:xlink="http://www.w3.org/1999/xlink" width="40" zoomAndPan="magnify" viewBox="0 0 30 37.92" height="40" preserveAspectRatio="xMidYMid meet" version="1.0"><defs><clipPath id="cb42ab142e"><path d="M 3.113281 0.683594 L 26.886719 0.683594 L 26.886719 29.300781 L 3.113281 29.300781 Z M 3.113281 0.683594 " clip-rule="nonzero"/></clipPath><clipPath id="cec3e96734"><path d="M 19.457031 1.550781 C 18.035156 0.976562 16.539062 0.683594 15 0.683594 C 13.460938 0.683594 11.964844 0.976562 10.542969 1.550781 C 9.078125 2.144531 7.757812 3.019531 6.632812 4.148438 C 4.429688 6.355469 3.199219 9.285156 3.167969 12.402344 C 3.136719 15.511719 4.304688 18.464844 6.460938 20.707031 L 6.453125 20.710938 L 15 29.257812 L 23.5 20.757812 L 23.492188 20.753906 C 25.667969 18.511719 26.855469 15.558594 26.832031 12.433594 C 26.8125 9.300781 25.582031 6.363281 23.367188 4.148438 C 22.234375 3.019531 20.921875 2.144531 19.457031 1.550781 Z M 19.457031 1.550781 " clip-rule="nonzero"/></clipPath><clipPath id="cd0cad925a"><path d="M 0.144531 0.683594 L 23.855469 0.683594 L 23.855469 29.300781 L 0.144531 29.300781 Z M 0.144531 0.683594 " clip-rule="nonzero"/></clipPath><clipPath id="0c8df9bd33"><path d="M 16.457031 1.550781 C 15.035156 0.976562 13.539062 0.683594 12 0.683594 C 10.460938 0.683594 8.964844 0.976562 7.542969 1.550781 C 6.078125 2.144531 4.757812 3.019531 3.632812 4.148438 C 1.429688 6.355469 0.199219 9.285156 0.167969 12.402344 C 0.136719 15.511719 1.304688 18.464844 3.460938 20.707031 L 3.453125 20.710938 L 12 29.257812 L 20.5 20.757812 L 20.492188 20.753906 C 22.667969 18.511719 23.855469 15.558594 23.832031 12.433594 C 23.8125 9.300781 22.582031 6.363281 20.367188 4.148438 C 19.234375 3.019531 17.921875 2.144531 16.457031 1.550781 Z M 16.457031 1.550781 " clip-rule="nonzero"/></clipPath><clipPath id="ccca79a036"><rect x="0" width="24" y="0" height="30"/></clipPath><clipPath id="b5d1138fb5"><path d="M 4.261719 1.777344 L 25.738281 1.777344 L 25.738281 23.203125 L 4.261719 23.203125 Z M 4.261719 1.777344 " clip-rule="nonzero"/></clipPath><clipPath id="d02c2dccdc"><path d="M 14.996094 1.789062 C 9.089844 1.789062 4.300781 6.578125 4.300781 12.484375 C 4.300781 18.390625 9.089844 23.179688 14.996094 23.179688 C 20.902344 23.179688 25.691406 18.390625 25.691406 12.484375 C 25.691406 6.578125 20.902344 1.789062 14.996094 1.789062 Z M 14.996094 1.789062 " clip-rule="nonzero"/></clipPath><clipPath id="c2b23e4149"><path d="M 0.261719 0.777344 L 21.738281 0.777344 L 21.738281 22.203125 L 0.261719 22.203125 Z M 0.261719 0.777344 " clip-rule="nonzero"/></clipPath><clipPath id="be52360aed"><path d="M 10.996094 0.789062 C 5.089844 0.789062 0.300781 5.578125 0.300781 11.484375 C 0.300781 17.390625 5.089844 22.179688 10.996094 22.179688 C 16.902344 22.179688 21.691406 17.390625 21.691406 11.484375 C 21.691406 5.578125 16.902344 0.789062 10.996094 0.789062 Z M 10.996094 0.789062 " clip-rule="nonzero"/></clipPath><clipPath id="0afd5e61af"><rect x="0" width="22" y="0" height="23"/></clipPath><clipPath id="4bf45f7a6b"><path d="M 8.328125 4.894531 L 21.800781 4.894531 L 21.800781 19.863281 L 8.328125 19.863281 Z M 8.328125 4.894531 " clip-rule="nonzero"/></clipPath></defs><g clip-path="url(#cb42ab142e)"><g clip-path="url(#cec3e96734)"><g transform="matrix(1, 0, 0, 1, 3, 0.000000000000005773)"><g clip-path="url(#ccca79a036)"><g clip-path="url(#cd0cad925a)"><g clip-path="url(#0c8df9bd33)"><path fill="#faab11" d="M 0.167969 0.683594 L 23.832031 0.683594 L 23.832031 29.25 L 0.167969 29.25 Z M 0.167969 0.683594 " fill-opacity="1" fill-rule="nonzero"/></g></g></g></g></g></g><g clip-path="url(#b5d1138fb5)"><g clip-path="url(#d02c2dccdc)"><g transform="matrix(1, 0, 0, 1, 4, 1)"><g clip-path="url(#0afd5e61af)"><g clip-path="url(#c2b23e4149)"><g clip-path="url(#be52360aed)"><rect x="-10.6" width="43.2" fill="#ffffff" height="54.6048" y="-9.3424" fill-opacity="1"/></g></g></g></g></g></g><g clip-path="url(#4bf45f7a6b)"><path fill="#1800ad" d="M 10.578125 16.785156 C 10.605469 16.699219 10.609375 16.65625 10.597656 16.617188 C 10.640625 16.605469 10.671875 16.589844 10.683594 16.5625 L 10.851562 16.4375 C 10.882812 16.445312 10.921875 16.453125 10.953125 16.441406 C 10.867188 16.507812 10.570312 16.808594 10.578125 16.785156 Z M 21.667969 17.933594 L 21.667969 20.226562 L 8.328125 20.226562 L 8.328125 8.777344 L 15 4.894531 L 21.667969 8.777344 Z M 9.0625 18.675781 L 10.078125 18.675781 L 10.078125 17.976562 L 9.0625 17.976562 Z M 9.0625 18.863281 L 9.0625 19.558594 C 9.15625 19.558594 9.210938 19.558594 9.214844 19.554688 C 9.246094 19.558594 9.273438 19.554688 9.289062 19.5625 L 11.273438 19.5625 L 11.273438 18.863281 Z M 20.933594 19.5625 L 20.933594 18.863281 L 19.558594 18.863281 L 19.558594 19.558594 C 19.789062 19.558594 19.9375 19.558594 19.945312 19.554688 C 19.976562 19.558594 20.003906 19.554688 20.019531 19.5625 Z M 16.875 18.863281 L 16.875 19.558594 C 17.101562 19.558594 17.253906 19.558594 17.261719 19.554688 C 17.292969 19.558594 17.320312 19.554688 17.335938 19.5625 L 19.320312 19.5625 L 19.320312 18.863281 Z M 14.191406 18.863281 L 14.191406 19.558594 C 14.417969 19.558594 14.574219 19.558594 14.578125 19.554688 C 14.609375 19.558594 14.636719 19.554688 14.652344 19.5625 L 16.640625 19.5625 L 16.640625 18.863281 Z M 11.507812 18.863281 L 11.507812 19.558594 C 11.738281 19.558594 11.890625 19.558594 11.894531 19.554688 C 11.925781 19.558594 11.953125 19.554688 11.96875 19.5625 L 13.953125 19.5625 L 13.953125 18.863281 Z M 18.355469 17.976562 L 18.355469 18.667969 C 18.585938 18.667969 18.738281 18.667969 18.742188 18.667969 C 18.773438 18.671875 18.800781 18.664062 18.820312 18.675781 L 20.933594 18.675781 L 20.933594 17.976562 Z M 15.671875 17.976562 L 15.671875 18.667969 C 15.902344 18.667969 16.054688 18.667969 16.058594 18.667969 C 16.089844 18.671875 16.117188 18.664062 16.136719 18.675781 L 18.121094 18.675781 L 18.121094 17.976562 Z M 12.992188 17.976562 L 12.992188 18.667969 C 13.21875 18.667969 13.371094 18.667969 13.375 18.667969 C 13.40625 18.671875 13.433594 18.664062 13.453125 18.675781 L 15.4375 18.675781 L 15.4375 17.976562 Z M 10.308594 17.976562 L 10.308594 18.667969 C 10.539062 18.667969 10.6875 18.667969 10.695312 18.667969 C 10.722656 18.671875 10.753906 18.664062 10.765625 18.675781 L 12.753906 18.675781 L 12.753906 17.976562 Z M 9.0625 17.03125 L 9.0625 9.199219 L 15 5.742188 L 20.933594 9.199219 L 20.933594 16.984375 L 20.382812 16.984375 L 20.394531 16.910156 C 20.394531 16.910156 20.578125 16.566406 20.527344 16.21875 C 20.371094 15.144531 19.707031 14.628906 18.886719 14.097656 C 19.4375 14.539062 19.902344 14.886719 20.191406 15.507812 C 20.453125 16.074219 19.351562 16.242188 18.808594 16.320312 C 19.203125 16.195312 19.820312 15.847656 19.816406 15.65625 L 18.4375 15.929688 C 18.9375 15.710938 19.304688 15.457031 19.546875 15.171875 L 18.675781 15.457031 C 18.894531 15.238281 19.121094 15.070312 19.347656 14.957031 C 18.695312 14.144531 17.914062 13.433594 17.007812 12.828125 C 17.808594 13.128906 18.296875 13.554688 18.804688 13.84375 C 18.175781 13.300781 17.46875 12.761719 16.6875 12.234375 C 16.300781 12.015625 15.914062 11.945312 15.515625 12.015625 C 15.328125 12.058594 15.128906 12.164062 14.925781 12.320312 C 15.023438 12.207031 15.121094 12.128906 15.222656 12.085938 L 15.046875 12.128906 C 14.988281 12.140625 14.917969 12.195312 14.84375 12.304688 C 14.882812 12.761719 14.789062 13.046875 14.671875 13.175781 C 14.664062 13.132812 14.652344 13.082031 14.636719 13.03125 C 14.628906 13.105469 14.617188 13.164062 14.609375 13.21875 C 14.597656 13.230469 14.585938 13.234375 14.574219 13.242188 C 14.570312 13.183594 14.558594 13.125 14.539062 13.066406 C 14.527344 13.148438 14.515625 13.21875 14.503906 13.285156 C 14.492188 13.289062 14.488281 13.296875 14.476562 13.304688 C 14.480469 13.234375 14.464844 13.164062 14.445312 13.101562 C 14.429688 13.210938 14.414062 13.304688 14.398438 13.375 C 14.382812 13.398438 14.367188 13.425781 14.351562 13.457031 C 14.289062 13.597656 14.125 13.832031 14.035156 13.851562 C 14.253906 13.339844 14.054688 13.144531 14.019531 13.019531 L 14.121094 13.105469 C 14.085938 12.957031 14.042969 12.847656 13.988281 12.785156 C 13.894531 12.773438 13.816406 12.691406 13.75 12.535156 C 13.746094 12.589844 13.757812 12.644531 13.789062 12.6875 C 13.746094 12.65625 13.71875 12.605469 13.710938 12.554688 C 13.703125 12.503906 13.71875 12.449219 13.753906 12.40625 C 13.644531 12.304688 13.640625 12.207031 13.742188 12.109375 C 13.808594 12.0625 13.875 12.0625 13.933594 12.101562 C 14 12.132812 14.039062 12.1875 14.054688 12.269531 C 14.105469 12.28125 14.144531 12.320312 14.175781 12.390625 C 14.277344 12.390625 14.332031 12.34375 14.332031 12.242188 C 14.394531 12.214844 14.449219 12.222656 14.503906 12.261719 C 14.5 12.261719 14.5 12.261719 14.5 12.261719 C 14.34375 12.070312 14.214844 11.96875 14.113281 11.957031 L 14.035156 11.753906 L 13.992188 11.75 C 13.953125 11.707031 13.917969 11.625 13.894531 11.515625 C 13.605469 11.304688 13.328125 11.214844 13.0625 11.242188 C 12.878906 11.238281 12.734375 11.265625 12.621094 11.320312 C 12.605469 11.300781 12.574219 11.304688 12.519531 11.335938 C 12.480469 11.359375 12.46875 11.378906 12.488281 11.398438 L 12.292969 11.511719 C 11.964844 11.738281 11.886719 12.160156 12.0625 12.761719 C 11.996094 12.847656 11.625 13.261719 11.609375 13.316406 C 11.59375 13.4375 11.675781 13.503906 11.847656 13.496094 C 11.976562 13.503906 12.140625 13.378906 12.347656 13.128906 C 12.40625 13.230469 12.492188 13.316406 12.59375 13.375 C 12.597656 13.402344 12.613281 13.425781 12.636719 13.4375 C 12.664062 13.449219 12.691406 13.453125 12.714844 13.441406 C 12.710938 13.472656 12.695312 13.503906 12.664062 13.519531 C 12.703125 13.503906 12.734375 13.472656 12.753906 13.429688 C 12.808594 13.496094 12.84375 13.550781 12.859375 13.601562 C 12.933594 13.773438 12.964844 13.800781 13.054688 13.761719 C 13.089844 13.746094 13.113281 13.71875 13.128906 13.679688 C 13.191406 13.714844 13.246094 13.769531 13.273438 13.800781 C 13.292969 13.832031 13.347656 13.890625 13.417969 13.847656 C 13.417969 13.925781 13.472656 13.957031 13.570312 13.953125 C 13.660156 13.941406 13.757812 13.988281 13.804688 14.070312 C 13.796875 14.042969 13.78125 14.015625 13.761719 13.992188 C 13.820312 14.023438 13.871094 14.082031 13.898438 14.144531 C 13.902344 14.085938 13.886719 14.03125 13.859375 13.984375 C 13.929688 14.011719 13.976562 14.074219 13.988281 14.144531 C 13.839844 14.246094 13.746094 14.417969 13.703125 14.660156 C 13.753906 14.792969 13.84375 14.910156 13.957031 14.992188 C 13.832031 14.917969 13.722656 14.828125 13.628906 14.722656 C 13.5625 14.871094 13.527344 15.058594 13.519531 15.28125 C 13.320312 15.371094 13.121094 15.453125 12.925781 15.519531 C 12.550781 15.847656 12.25 16.039062 11.921875 16.125 C 11.8125 16.117188 11.679688 16.128906 11.566406 16.160156 C 11.507812 16.085938 11.382812 16.070312 11.292969 16.101562 L 11.203125 16.175781 C 11.136719 16.15625 11.085938 16.128906 11.039062 16.101562 C 10.921875 16.035156 10.90625 16.0625 10.789062 16.140625 C 10.671875 16.222656 10.59375 16.28125 10.410156 16.375 C 10.355469 16.433594 10.335938 16.507812 10.355469 16.601562 L 10.296875 16.914062 C 10.296875 16.925781 10.296875 16.929688 10.296875 16.9375 C 10.238281 16.9375 10.191406 16.925781 10.128906 16.917969 C 10.125 16.890625 10.066406 16.851562 10.042969 16.859375 L 9.984375 16.382812 C 9.976562 16.328125 9.960938 16.296875 9.925781 16.328125 L 9.320312 16.917969 L 9.929688 16.394531 L 9.296875 16.992188 L 9.410156 17.558594 C 9.398438 17.5625 9.390625 17.566406 9.382812 17.574219 C 9.359375 17.515625 9.351562 17.363281 9.3125 17.332031 C 9.296875 17.3125 9.253906 17.328125 9.238281 17.351562 C 9.21875 17.375 9.222656 17.40625 9.242188 17.425781 C 9.195312 17.453125 9.160156 17.496094 9.148438 17.550781 C 9.105469 17.566406 9.070312 17.601562 9.054688 17.648438 L 9.054688 17.03125 Z M 20.375 17.097656 L 20.933594 17.097656 L 20.933594 17.796875 L 19.292969 17.796875 L 19.292969 17.097656 Z M 14.230469 16.992188 L 17.007812 16.992188 C 16.082031 16.65625 15.519531 16.320312 15.074219 15.867188 C 14.773438 16.117188 14.6875 16.15625 14.21875 16.386719 C 14.355469 16.347656 14.496094 16.28125 14.628906 16.238281 C 14.476562 16.324219 13.691406 16.734375 13.640625 16.8125 C 13.589844 16.75 13.546875 16.679688 13.46875 16.667969 C 13.535156 16.6875 13.5625 16.773438 13.601562 16.839844 C 13.601562 16.953125 13.691406 16.9375 13.5625 16.996094 L 14.230469 16.996094 Z M 17.265625 16.992188 L 17.496094 16.992188 C 17.652344 16.753906 17.730469 16.566406 17.839844 16.335938 C 17.621094 16.652344 17.460938 16.8125 17.265625 16.992188 Z M 13.902344 17.789062 L 13.902344 17.09375 L 13.390625 17.09375 C 13.332031 17.109375 13.277344 17.152344 13.222656 17.222656 C 13.246094 17.328125 13.230469 17.394531 13.171875 17.421875 C 13.152344 17.511719 13.113281 17.558594 13.054688 17.550781 C 13.050781 17.589844 13.03125 17.625 12.992188 17.660156 C 12.941406 17.710938 12.882812 17.714844 12.8125 17.671875 C 12.75 17.542969 12.703125 17.476562 12.667969 17.464844 C 12.644531 17.46875 12.636719 17.492188 12.648438 17.523438 C 12.644531 17.578125 12.613281 17.597656 12.554688 17.582031 L 12.347656 17.464844 C 12.308594 17.445312 12.289062 17.335938 12.289062 17.125 L 11.671875 17.144531 C 11.675781 17.53125 11.683594 17.765625 11.683594 17.765625 L 11.671875 17.769531 C 11.695312 17.78125 13.113281 17.789062 13.902344 17.789062 Z M 14.140625 17.097656 L 16.480469 17.097656 L 16.480469 17.796875 L 14.496094 17.796875 C 14.480469 17.789062 14.453125 17.792969 14.421875 17.789062 C 14.417969 17.792969 14.371094 17.792969 14.140625 17.792969 Z M 16.71875 17.097656 L 19.0625 17.097656 L 19.0625 17.796875 L 16.722656 17.796875 L 16.722656 17.097656 Z M 10.097656 17.550781 C 10.136719 17.550781 10.167969 17.5625 10.199219 17.582031 C 10.226562 17.625 10.28125 17.640625 10.324219 17.621094 C 10.332031 17.601562 10.351562 17.589844 10.371094 17.59375 C 10.390625 17.59375 10.410156 17.609375 10.414062 17.628906 C 10.417969 17.640625 10.425781 17.648438 10.4375 17.652344 C 10.449219 17.652344 10.460938 17.648438 10.464844 17.636719 C 10.46875 17.628906 10.46875 17.617188 10.464844 17.609375 C 10.457031 17.59375 10.460938 17.578125 10.46875 17.566406 C 10.480469 17.550781 10.496094 17.546875 10.511719 17.550781 C 10.527344 17.554688 10.539062 17.570312 10.539062 17.589844 C 10.539062 17.613281 10.5625 17.632812 10.585938 17.632812 C 10.601562 17.632812 10.609375 17.617188 10.625 17.613281 C 10.691406 17.582031 10.644531 17.550781 10.746094 17.613281 C 10.753906 17.621094 10.765625 17.625 10.78125 17.632812 C 10.808594 17.640625 10.839844 17.625 10.867188 17.605469 C 11.023438 17.480469 10.875 17.679688 11.023438 17.597656 C 11.035156 17.59375 11.042969 17.609375 11.058594 17.609375 C 11.070312 17.601562 11.125 17.609375 11.117188 17.59375 C 11.148438 17.566406 11.195312 17.558594 11.207031 17.609375 C 11.246094 17.660156 11.242188 17.632812 11.304688 17.625 C 11.363281 17.625 11.421875 17.585938 11.449219 17.535156 C 11.464844 17.507812 11.492188 17.492188 11.523438 17.484375 L 11.527344 17.121094 C 11.527344 17.042969 11.640625 17.085938 11.722656 17.085938 L 11.722656 17.058594 C 11.722656 17.035156 11.730469 17.019531 11.75 17.015625 L 11.820312 16.996094 C 11.839844 16.972656 11.871094 16.957031 11.90625 16.949219 C 11.949219 16.945312 11.980469 16.9375 12.003906 16.929688 C 12.078125 16.886719 12.148438 16.851562 12.214844 16.832031 L 12.417969 16.710938 C 12.4375 16.671875 12.460938 16.640625 12.480469 16.625 C 12.183594 16.664062 11.992188 16.640625 11.683594 16.699219 C 11.695312 16.652344 11.683594 16.597656 11.648438 16.527344 L 11.65625 16.660156 C 11.667969 16.734375 11.621094 16.796875 11.511719 16.84375 C 11.441406 16.902344 11.351562 16.914062 11.238281 16.878906 C 11.203125 16.910156 10.964844 17.125 10.964844 17.050781 C 10.921875 17.128906 10.847656 17.148438 10.738281 17.195312 C 10.679688 17.183594 10.636719 17.15625 10.613281 17.113281 C 10.578125 17.148438 10.523438 17.109375 10.527344 17.085938 C 10.554688 17.082031 10.546875 17.074219 10.546875 17.066406 C 10.484375 17.109375 10.289062 17.097656 10.144531 17.070312 C 10.136719 17.109375 10.109375 17.136719 10.078125 17.140625 L 10.113281 17.550781 Z M 14.082031 12.550781 C 14.085938 12.652344 14.035156 12.695312 13.933594 12.671875 C 13.945312 12.703125 13.972656 12.722656 14.003906 12.722656 C 14.035156 12.726562 14.0625 12.710938 14.078125 12.679688 C 14.097656 12.640625 14.097656 12.5625 14.105469 12.460938 C 14.109375 12.433594 14.101562 12.410156 14.085938 12.378906 C 14.09375 12.433594 14.09375 12.492188 14.082031 12.550781 Z M 13.976562 12.363281 C 13.957031 12.3125 13.914062 12.277344 13.859375 12.265625 L 13.917969 12.320312 C 13.859375 12.308594 13.820312 12.3125 13.792969 12.332031 C 13.800781 12.351562 13.816406 12.367188 13.847656 12.375 C 13.851562 12.386719 13.851562 12.394531 13.847656 12.40625 C 13.839844 12.417969 13.832031 12.417969 13.816406 12.417969 C 13.832031 12.433594 13.847656 12.4375 13.863281 12.4375 C 13.898438 12.457031 13.902344 12.480469 13.882812 12.507812 C 13.878906 12.515625 13.878906 12.519531 13.878906 12.53125 C 13.882812 12.535156 13.886719 12.542969 13.890625 12.546875 C 13.917969 12.511719 13.917969 12.464844 13.902344 12.425781 C 13.933594 12.40625 13.960938 12.402344 13.980469 12.414062 C 13.964844 12.402344 13.960938 12.375 13.976562 12.363281 Z M 14.035156 12.410156 C 14.054688 12.3125 14.023438 12.21875 13.933594 12.121094 C 13.898438 12.105469 13.859375 12.105469 13.804688 12.121094 C 13.738281 12.160156 13.71875 12.210938 13.746094 12.273438 C 13.78125 12.269531 13.808594 12.253906 13.835938 12.234375 C 13.816406 12.226562 13.796875 12.230469 13.777344 12.238281 C 13.804688 12.210938 13.847656 12.195312 13.886719 12.195312 C 13.925781 12.199219 13.960938 12.21875 13.984375 12.25 C 14.027344 12.300781 14.046875 12.351562 14.035156 12.410156 Z M 13.53125 15.382812 C 13.34375 15.730469 13.546875 15.707031 13.195312 15.914062 C 12.9375 16.089844 12.578125 16.226562 12.113281 16.328125 C 12.113281 16.328125 12.183594 16.328125 12.324219 16.324219 C 12.136719 16.40625 11.875 16.402344 11.601562 16.410156 C 11.546875 16.480469 11.441406 16.5625 11.296875 16.558594 C 11.214844 16.652344 11.09375 16.726562 11.042969 16.71875 C 11.253906 16.460938 11.121094 16.269531 10.800781 16.382812 C 10.800781 16.382812 10.820312 16.355469 10.851562 16.308594 C 10.851562 16.308594 10.710938 16.355469 10.507812 16.5 C 10.480469 16.519531 10.476562 16.917969 10.339844 16.898438 C 10.402344 16.683594 10.375 16.519531 10.4375 16.414062 C 10.640625 16.296875 10.777344 16.191406 10.902344 16.105469 C 10.945312 16.113281 11.019531 16.167969 11.050781 16.199219 C 11.046875 16.195312 11.042969 16.1875 11.039062 16.183594 C 11.039062 16.183594 11.097656 16.207031 11.222656 16.25 C 11.363281 16.25 11.484375 16.277344 11.589844 16.335938 C 11.601562 16.324219 11.566406 16.265625 11.519531 16.226562 C 11.671875 16.222656 11.851562 16.199219 12.035156 16.148438 C 12.308594 16.082031 12.640625 15.890625 13.066406 15.578125 C 13.066406 15.578125 13.003906 15.597656 12.917969 15.589844 C 12.921875 15.589844 13.109375 15.539062 13.53125 15.382812 Z M 13.074219 16.453125 C 13.035156 16.46875 12.992188 16.492188 12.917969 16.511719 C 12.933594 16.511719 12.984375 16.511719 13.054688 16.507812 C 12.945312 16.535156 12.828125 16.554688 12.707031 16.5625 C 12.835938 16.519531 12.960938 16.484375 13.074219 16.453125 Z M 11.453125 16.140625 C 11.378906 16.125 11.339844 16.113281 11.265625 16.183594 C 11.308594 16.191406 11.355469 16.195312 11.410156 16.195312 C 11.4375 16.167969 11.46875 16.140625 11.453125 16.140625 Z M 14.183594 15.453125 L 14.355469 15.542969 C 14.070312 15.78125 13.796875 16.03125 13.542969 16.292969 C 13.503906 16.316406 13.433594 16.34375 13.328125 16.375 L 13.304688 16.410156 C 13.378906 16.453125 13.414062 16.476562 13.410156 16.480469 L 13.238281 16.4375 C 13.144531 16.515625 13.019531 16.558594 12.871094 16.566406 C 12.789062 16.585938 12.691406 16.621094 12.578125 16.617188 C 12.527344 16.628906 12.519531 16.640625 12.480469 16.71875 C 12.457031 16.746094 12.339844 16.8125 12.207031 16.867188 C 12.214844 16.878906 12.203125 16.878906 12.207031 16.894531 C 12.195312 16.878906 12.191406 16.882812 12.179688 16.878906 C 12.148438 16.890625 12.101562 16.902344 12.042969 16.929688 C 12.015625 16.949219 11.976562 16.960938 11.949219 16.957031 C 11.902344 16.964844 11.878906 16.964844 11.863281 16.980469 C 11.878906 16.996094 11.878906 17 11.875 17.019531 C 11.871094 17.003906 11.871094 17 11.855469 16.996094 C 11.832031 17.003906 11.824219 17.007812 11.785156 17.023438 C 11.800781 17.058594 11.804688 17.066406 11.855469 17.042969 C 11.90625 17.074219 11.957031 17.078125 12.015625 17.046875 L 12.074219 17.019531 C 12.136719 17.039062 12.191406 17.023438 12.226562 16.988281 C 12.277344 16.988281 12.3125 16.980469 12.335938 16.96875 C 12.339844 16.910156 12.347656 16.898438 12.402344 16.871094 C 12.347656 16.910156 12.347656 16.9375 12.363281 17.039062 C 12.367188 17.097656 12.378906 17.144531 12.398438 17.175781 C 12.378906 17.238281 12.398438 17.28125 12.449219 17.308594 C 12.46875 17.308594 12.507812 17.324219 12.554688 17.34375 L 12.488281 17.332031 C 12.523438 17.367188 12.5625 17.382812 12.601562 17.378906 C 12.652344 17.394531 12.671875 17.382812 12.652344 17.351562 C 12.632812 17.269531 12.601562 17.234375 12.5625 17.234375 C 12.59375 17.207031 12.59375 17.175781 12.578125 17.140625 C 12.554688 17.09375 12.550781 17.042969 12.570312 16.996094 C 12.542969 16.917969 12.5625 16.871094 12.628906 16.855469 C 12.667969 16.839844 12.703125 16.808594 12.726562 16.765625 C 12.78125 16.769531 12.820312 16.761719 12.871094 16.820312 C 12.828125 16.816406 12.78125 16.824219 12.738281 16.839844 C 12.695312 16.886719 12.65625 16.949219 12.621094 17.023438 C 12.597656 17.070312 12.609375 17.105469 12.65625 17.117188 C 12.691406 17.125 12.722656 17.125 12.75 17.113281 C 12.734375 17.140625 12.695312 17.15625 12.636719 17.164062 C 12.660156 17.226562 12.695312 17.265625 12.746094 17.28125 C 12.777344 17.28125 12.800781 17.285156 12.816406 17.289062 C 12.792969 17.304688 12.761719 17.308594 12.734375 17.308594 C 12.777344 17.339844 12.816406 17.347656 12.84375 17.339844 C 12.828125 17.363281 12.796875 17.371094 12.75 17.363281 C 12.765625 17.382812 12.789062 17.390625 12.820312 17.394531 C 12.800781 17.40625 12.78125 17.421875 12.765625 17.457031 C 12.804688 17.421875 12.84375 17.417969 12.890625 17.441406 C 12.832031 17.4375 12.804688 17.453125 12.796875 17.496094 C 12.792969 17.523438 12.800781 17.539062 12.820312 17.546875 C 12.871094 17.546875 12.90625 17.539062 12.925781 17.519531 C 12.917969 17.503906 12.910156 17.488281 12.894531 17.472656 C 12.90625 17.464844 12.917969 17.460938 12.941406 17.453125 C 12.921875 17.40625 12.894531 17.355469 12.863281 17.304688 C 12.886719 17.246094 12.878906 17.195312 12.84375 17.15625 L 12.804688 17.171875 C 12.816406 17.136719 12.824219 17.109375 12.847656 17.097656 L 12.84375 17.039062 C 12.835938 16.992188 12.859375 16.976562 12.910156 16.960938 C 12.960938 16.976562 12.960938 16.992188 12.960938 16.992188 L 12.925781 17.003906 C 13.007812 17.035156 12.992188 17.019531 13.023438 17.152344 C 13.027344 17.183594 13.054688 17.203125 13.105469 17.203125 C 13.078125 17.214844 13.0625 17.222656 13.050781 17.21875 C 13.085938 17.234375 13.117188 17.238281 13.144531 17.230469 C 13.15625 17.277344 13.128906 17.296875 13.0625 17.296875 C 13.046875 17.324219 13.046875 17.351562 13.0625 17.371094 C 13.082031 17.390625 13.117188 17.390625 13.164062 17.378906 C 13.183594 17.351562 13.183594 17.332031 13.164062 17.308594 C 13.191406 17.28125 13.203125 17.25 13.203125 17.214844 C 13.207031 17.179688 13.199219 17.160156 13.175781 17.152344 C 13.191406 17.140625 13.199219 17.097656 13.191406 17.011719 C 13.183594 16.976562 13.164062 16.953125 13.136719 16.941406 C 13.164062 16.9375 13.191406 16.941406 13.214844 16.957031 C 13.296875 16.964844 13.367188 16.953125 13.425781 16.933594 C 13.382812 16.972656 13.320312 17 13.246094 17.019531 C 13.472656 17.011719 13.574219 16.890625 13.492188 16.785156 C 13.460938 16.746094 13.417969 16.644531 13.34375 16.59375 C 13.410156 16.59375 13.464844 16.601562 13.519531 16.621094 L 13.449219 16.511719 L 13.570312 16.566406 L 14.894531 15.695312 L 14.527344 16.078125 L 15.347656 15.550781 L 15.074219 15.601562 C 15.179688 15.414062 15.320312 15.292969 15.5 15.230469 C 15.519531 15.25 15.511719 15.285156 15.480469 15.332031 C 15.609375 15.328125 15.675781 15.28125 15.6875 15.183594 L 15.898438 14.523438 C 15.894531 14.460938 15.859375 14.429688 15.800781 14.429688 C 15.019531 14.6875 14.894531 14.621094 14.84375 14.652344 L 14.800781 14.773438 L 14.949219 14.742188 C 14.746094 14.84375 14.574219 14.976562 14.425781 15.132812 C 14.34375 15.230469 14.265625 15.335938 14.183594 15.453125 Z M 10.523438 16.941406 C 10.542969 16.914062 10.582031 16.9375 10.589844 16.96875 C 10.59375 16.980469 10.59375 16.992188 10.585938 17 C 10.585938 16.996094 10.582031 16.984375 10.582031 16.980469 C 10.550781 17.023438 10.46875 17.035156 10.339844 17.019531 C 10.339844 17.019531 10.367188 17.015625 10.410156 17.003906 C 10.351562 17.007812 10.265625 16.996094 10.15625 16.976562 C 10.382812 16.996094 10.511719 16.988281 10.554688 16.949219 C 10.542969 16.941406 10.535156 16.941406 10.523438 16.941406 Z M 10.648438 16.976562 C 10.648438 16.953125 10.636719 16.929688 10.625 16.910156 L 10.914062 16.601562 L 10.589844 16.882812 C 10.578125 16.882812 10.566406 16.878906 10.554688 16.878906 C 10.785156 16.660156 10.972656 16.46875 10.972656 16.46875 C 10.992188 16.457031 11.007812 16.464844 11.027344 16.484375 C 11.046875 16.5 11.015625 16.582031 11.007812 16.605469 C 11.039062 16.566406 11.050781 16.546875 11.058594 16.496094 C 11.105469 16.625 10.9375 16.667969 10.910156 16.765625 C 10.863281 16.753906 10.824219 16.792969 10.773438 16.835938 C 10.695312 16.894531 10.652344 16.949219 10.648438 16.976562 Z M 10.859375 17.054688 C 10.863281 17.011719 10.824219 16.925781 10.789062 16.882812 C 10.570312 17.042969 10.742188 17.125 10.757812 17.109375 C 10.699219 17.050781 10.738281 17.027344 10.808594 16.96875 Z M 11.644531 13.304688 C 11.886719 13.128906 12.011719 13.273438 12.222656 13.121094 C 12.425781 12.96875 12.707031 12.675781 12.78125 12.59375 C 12.71875 12.703125 12.449219 13.007812 12.226562 13.160156 C 12.058594 13.273438 11.875 13.203125 11.644531 13.304688 Z M 12.113281 12.714844 C 12.449219 12.5625 12.675781 12.542969 12.808594 12.480469 C 12.734375 12.039062 12.621094 11.609375 12.476562 11.476562 C 12.078125 11.707031 11.960938 12.117188 12.113281 12.714844 Z M 13.859375 13.554688 C 13.804688 13.429688 13.660156 13.414062 13.53125 13.410156 C 13.5625 13.40625 13.59375 13.375 13.621094 13.378906 C 13.339844 13.445312 13.234375 13.359375 13.199219 13.207031 C 13.234375 13.167969 13.25 13.125 13.25 13.074219 C 13.234375 13.117188 13.191406 13.15625 13.144531 13.171875 C 13.140625 13.101562 13.15625 13.046875 13.191406 13.015625 C 13.21875 12.988281 13.257812 12.980469 13.304688 13.003906 C 13.292969 12.984375 13.269531 12.964844 13.234375 12.945312 L 13.328125 12.855469 L 13.210938 12.933594 L 13.148438 12.875 L 13.195312 12.957031 C 13.089844 13.070312 13.007812 13.128906 12.957031 13.128906 C 13.015625 13.097656 13.046875 13.066406 13.054688 13.03125 C 13.011719 13.007812 12.949219 13.011719 12.882812 13.042969 C 12.808594 13.085938 12.765625 13.136719 12.75 13.195312 C 12.710938 13.234375 12.664062 13.203125 12.601562 13.097656 L 12.738281 12.886719 L 12.539062 12.976562 L 12.972656 12.519531 L 13.070312 12.691406 C 13.191406 12.585938 13.316406 12.566406 13.4375 12.644531 C 13.574219 12.65625 13.683594 12.726562 13.761719 12.863281 L 13.644531 12.804688 C 13.78125 12.914062 13.855469 13.058594 13.894531 13.21875 C 13.84375 13.226562 13.796875 13.21875 13.757812 13.203125 C 13.847656 13.246094 13.875 13.355469 13.882812 13.507812 C 13.914062 13.554688 13.902344 13.570312 13.859375 13.554688 Z M 13.144531 13.40625 C 13.214844 13.445312 13.234375 13.484375 13.203125 13.515625 C 13.148438 13.546875 13.105469 13.601562 13.085938 13.679688 C 13.035156 13.742188 12.992188 13.746094 12.960938 13.683594 C 12.960938 13.628906 12.910156 13.53125 12.824219 13.386719 C 12.800781 13.355469 12.804688 13.324219 12.84375 13.292969 L 12.84375 13.347656 C 12.847656 13.339844 12.859375 13.324219 12.886719 13.292969 L 12.882812 13.347656 L 12.933594 13.308594 L 12.933594 13.355469 C 12.9375 13.328125 12.964844 13.304688 13.019531 13.289062 C 12.992188 13.328125 12.992188 13.367188 13.019531 13.410156 C 13.019531 13.4375 13.03125 13.46875 13.046875 13.488281 C 13.066406 13.503906 13.097656 13.515625 13.125 13.515625 C 13.113281 13.5 13.105469 13.480469 13.113281 13.460938 C 13.113281 13.433594 13.125 13.417969 13.144531 13.40625 Z M 13.789062 13.621094 C 13.828125 13.65625 13.847656 13.703125 13.847656 13.75 L 13.789062 13.675781 C 13.808594 13.773438 13.800781 13.84375 13.746094 13.875 L 13.6875 13.863281 C 13.691406 13.835938 13.691406 13.8125 13.675781 13.789062 C 13.664062 13.820312 13.648438 13.84375 13.625 13.855469 C 13.566406 13.882812 13.53125 13.878906 13.519531 13.839844 C 13.574219 13.789062 13.617188 13.707031 13.648438 13.585938 C 13.703125 13.574219 13.75 13.589844 13.789062 13.621094 Z M 13.546875 13.566406 C 13.488281 13.601562 13.433594 13.660156 13.375 13.746094 C 13.359375 13.757812 13.339844 13.746094 13.328125 13.71875 C 13.320312 13.703125 13.277344 13.675781 13.203125 13.632812 C 13.246094 13.558594 13.3125 13.515625 13.390625 13.519531 C 13.464844 13.515625 13.519531 13.53125 13.546875 13.566406 Z M 14.832031 14.472656 C 14.859375 14.269531 14.882812 14.121094 14.9375 13.921875 C 15.285156 13.785156 15.566406 13.695312 15.742188 13.773438 C 15.789062 13.753906 15.839844 13.730469 15.886719 13.6875 C 15.644531 13.566406 15.359375 13.546875 15.101562 13.632812 C 15.386719 13.53125 15.699219 13.515625 15.996094 13.59375 C 16.007812 13.582031 16.019531 13.570312 16.03125 13.558594 C 15.8125 13.375 15.527344 13.289062 15.242188 13.324219 C 15.542969 13.28125 15.84375 13.328125 16.113281 13.457031 C 16.128906 13.4375 16.140625 13.417969 16.15625 13.398438 C 15.933594 13.191406 15.628906 13.09375 15.328125 13.132812 C 15.640625 13.089844 15.957031 13.140625 16.238281 13.28125 C 16.257812 13.246094 16.285156 13.210938 16.304688 13.175781 C 16.132812 12.804688 15.800781 12.605469 15.289062 12.589844 C 15.933594 12.515625 16.355469 12.769531 16.5625 13.347656 C 16.453125 13.503906 16.371094 13.742188 16.320312 14.058594 L 16.226562 14.0625 L 16.300781 14.128906 L 16.292969 14.21875 C 16.105469 14.1875 15.679688 14.261719 15.019531 14.4375 C 15.136719 14.285156 15.214844 14.152344 15.261719 14.035156 C 15.234375 14.085938 15.089844 14.230469 14.832031 14.472656 Z M 12.523438 17.421875 C 12.550781 17.394531 12.59375 17.402344 12.621094 17.425781 C 12.621094 17.476562 12.539062 17.492188 12.523438 17.421875 Z M 12.523438 17.421875 " fill-opacity="1" fill-rule="evenodd"/></g></svg>