<svg xmlns="http://www.w3.org/2000/svg" xmlns:xlink="http://www.w3.org/1999/xlink" width="40" zoomAndPan="magnify" viewBox="0 0 30 37.92" height="40" preserveAspectRatio="xMidYMid meet" version="1.0"><defs><clipPath id="6a14361db0"><path d="M 3.113281 0.683594 L 26.886719 0.683594 L 26.886719 29.300781 L 3.113281 29.300781 Z M 3.113281 0.683594 " clip-rule="nonzero"/></clipPath><clipPath id="7985cec9f0"><path d="M 19.457031 1.550781 C 18.035156 0.976562 16.539062 0.683594 15 0.683594 C 13.460938 0.683594 11.964844 0.976562 10.542969 1.550781 C 9.078125 2.144531 7.757812 3.019531 6.632812 4.148438 C 4.429688 6.355469 3.199219 9.285156 3.167969 12.402344 C 3.136719 15.511719 4.304688 18.464844 6.460938 20.707031 L 6.453125 20.710938 L 15 29.257812 L 23.5 20.757812 L 23.492188 20.753906 C 25.667969 18.511719 26.855469 15.558594 26.832031 12.433594 C 26.8125 9.300781 25.582031 6.363281 23.367188 4.148438 C 22.234375 3.019531 20.921875 2.144531 19.457031 1.550781 Z M 19.457031 1.550781 " clip-rule="nonzero"/></clipPath><clipPath id="3a57e9f7a5"><path d="M 0.144531 0.683594 L 23.855469 0.683594 L 23.855469 29.300781 L 0.144531 29.300781 Z M 0.144531 0.683594 " clip-rule="nonzero"/></clipPath><clipPath id="75ec32ca1c"><path d="M 16.457031 1.550781 C 15.035156 0.976562 13.539062 0.683594 12 0.683594 C 10.460938 0.683594 8.964844 0.976562 7.542969 1.550781 C 6.078125 2.144531 4.757812 3.019531 3.632812 4.148438 C 1.429688 6.355469 0.199219 9.285156 0.167969 12.402344 C 0.136719 15.511719 1.304688 18.464844 3.460938 20.707031 L 3.453125 20.710938 L 12 29.257812 L 20.5 20.757812 L 20.492188 20.753906 C 22.667969 18.511719 23.855469 15.558594 23.832031 12.433594 C 23.8125 9.300781 22.582031 6.363281 20.367188 4.148438 C 19.234375 3.019531 17.921875 2.144531 16.457031 1.550781 Z M 16.457031 1.550781 " clip-rule="nonzero"/></clipPath><clipPath id="665cea47d3"><rect x="0" width="24" y="0" height="30"/></clipPath><clipPath id="b4d9d507c6"><path d="M 4.261719 1.777344 L 25.738281 1.777344 L 25.738281 23.203125 L 4.261719 23.203125 Z M 4.261719 1.777344 " clip-rule="nonzero"/></clipPath><clipPath id="682155e4bc"><path d="M 14.996094 1.789062 C 9.089844 1.789062 4.300781 6.578125 4.300781 12.484375 C 4.300781 18.390625 9.089844 23.179688 14.996094 23.179688 C 20.902344 23.179688 25.691406 18.390625 25.691406 12.484375 C 25.691406 6.578125 20.902344 1.789062 14.996094 1.789062 Z M 14.996094 1.789062 " clip-rule="nonzero"/></clipPath><clipPath id="63ce495446"><path d="M 0.261719 0.777344 L 21.738281 0.777344 L 21.738281 22.203125 L 0.261719 22.203125 Z M 0.261719 0.777344 " clip-rule="nonzero"/></clipPath><clipPath id="aa1228a736"><path d="M 10.996094 0.789062 C 5.089844 0.789062 0.300781 5.578125 0.300781 11.484375 C 0.300781 17.390625 5.089844 22.179688 10.996094 22.179688 C 16.902344 22.179688 21.691406 17.390625 21.691406 11.484375 C 21.691406 5.578125 16.902344 0.789062 10.996094 0.789062 Z M 10.996094 0.789062 " clip-rule="nonzero"/></clipPath><clipPath id="5879c41e5b"><rect x="0" width="22" y="0" height="23"/></clipPath><clipPath id="1748acc1f3"><path d="M 13 4.117188 L 17 4.117188 L 17 7 L 13 7 Z M 13 4.117188 " clip-rule="nonzero"/></clipPath><clipPath id="927b1c1fda"><path d="M 12 7 L 17 7 L 17 21.332031 L 12 21.332031 Z M 12 7 " clip-rule="nonzero"/></clipPath><clipPath id="7b1b23e4c7"><path d="M 9.117188 14 L 10 14 L 10 15 L 9.117188 15 Z M 9.117188 14 " clip-rule="nonzero"/></clipPath><clipPath id="0a36974139"><path d="M 9.117188 16 L 14 16 L 14 19 L 9.117188 19 Z M 9.117188 16 " clip-rule="nonzero"/></clipPath><clipPath id="701908a441"><path d="M 9.117188 14 L 14 14 L 14 16 L 9.117188 16 Z M 9.117188 14 " clip-rule="nonzero"/></clipPath><clipPath id="ee2439498f"><path d="M 18 4.117188 L 21 4.117188 L 21 18 L 18 18 Z M 18 4.117188 " clip-rule="nonzero"/></clipPath></defs><g clip-path="url(#6a14361db0)"><g clip-path="url(#7985cec9f0)"><g transform="matrix(1, 0, 0, 1, 3, 0.000000000000005773)"><g clip-path="url(#665cea47d3)"><g clip-path="url(#3a57e9f7a5)"><g clip-path="url(#75ec32ca1c)"><path fill="#faab11" d="M 0.167969 0.683594 L 23.832031 0.683594 L 23.832031 29.25 L 0.167969 29.25 Z M 0.167969 0.683594 " fill-opacity="1" fill-rule="nonzero"/></g></g></g></g></g></g><g clip-path="url(#b4d9d507c6)"><g clip-path="url(#682155e4bc)"><g transform="matrix(1, 0, 0, 1, 4, 1)"><g clip-path="url(#5879c41e5b)"><g clip-path="url(#63ce495446)"><g clip-path="url(#aa1228a736)"><rect x="-10.6" width="43.2" fill="#ffffff" height="54.6048" y="-9.3424" fill-opacity="1"/></g></g></g></g></g></g><path fill="#1800ad" d="M 14.328125 7.78125 L 14.328125 9.066406 L 15.449219 9.066406 L 15.449219 7.8125 C 15.074219 7.734375 14.695312 7.722656 14.328125 7.78125 Z M 14.328125 7.78125 " fill-opacity="1" fill-rule="nonzero"/><g clip-path="url(#1748acc1f3)"><path fill="#1800ad" d="M 13.671875 6.4375 C 14.980469 6.085938 16.09375 6.414062 16.09375 6.414062 C 16.121094 6.390625 16.378906 6.152344 16.351562 6.179688 C 16.402344 5.15625 15.695312 4.792969 15.695312 4.792969 C 15.335938 5.179688 15.28125 6.039062 15.265625 6.089844 C 15.207031 5.046875 15.597656 4.636719 15.613281 4.609375 C 14.761719 4.15625 14.175781 4.609375 14.175781 4.609375 C 14.585938 5.152344 14.5 6.058594 14.503906 6.085938 C 14.371094 5.230469 14.195312 5.054688 14.0625 4.832031 C 13.292969 5.269531 13.433594 6.179688 13.433594 6.179688 C 13.457031 6.203125 13.695312 6.464844 13.671875 6.4375 Z M 13.671875 6.4375 " fill-opacity="1" fill-rule="nonzero"/></g><path fill="#1800ad" d="M 13.652344 6.824219 C 13.890625 7.261719 14.355469 7.558594 14.890625 7.558594 C 15.421875 7.558594 15.882812 7.261719 16.121094 6.828125 C 16.199219 6.808594 16.246094 6.796875 16.246094 6.796875 L 16.53125 6.492188 L 16.53125 6.375 L 16.382812 6.386719 C 16.355469 6.414062 16.105469 6.671875 16.128906 6.644531 C 14.808594 6.269531 13.652344 6.644531 13.652344 6.644531 C 13.628906 6.625 13.507812 6.507812 13.386719 6.386719 L 13.246094 6.375 L 13.246094 6.515625 L 13.546875 6.796875 C 13.582031 6.808594 13.617188 6.816406 13.652344 6.824219 Z M 13.652344 6.824219 " fill-opacity="1" fill-rule="nonzero"/><g clip-path="url(#927b1c1fda)"><path fill="#1800ad" d="M 16.128906 8.019531 C 15.984375 7.957031 15.84375 7.910156 15.699219 7.871094 L 15.699219 9.3125 L 14.078125 9.3125 L 14.078125 7.828125 C 13.9375 7.863281 13.792969 7.910156 13.652344 7.964844 L 13.652344 11.894531 L 12.820312 11.894531 C 12.878906 12.710938 12.988281 14.199219 12.984375 14.140625 L 13.027344 14.679688 L 13.027344 14.707031 L 13.148438 14.707031 C 13.46875 14.714844 13.75 14.972656 13.75 15.296875 L 13.75 15.382812 L 14.179688 15.382812 L 14.179688 16.179688 L 13.964844 16.179688 L 13.964844 17.722656 C 13.964844 18.027344 13.753906 18.28125 13.472656 18.355469 L 13.472656 18.464844 L 13.171875 18.464844 L 13.171875 20.679688 C 13.171875 21.101562 13.511719 21.441406 13.933594 21.441406 C 14.351562 21.441406 14.695312 21.101562 14.695312 20.679688 L 14.695312 15.601562 L 15.082031 15.601562 L 15.082031 20.679688 C 15.082031 21.101562 15.425781 21.441406 15.84375 21.441406 C 16.265625 21.441406 16.609375 21.101562 16.609375 20.679688 L 16.609375 15.597656 C 16.609375 15.59375 16.605469 15.585938 16.605469 15.582031 L 16.609375 15.582031 C 16.65625 15.558594 16.691406 15.507812 16.691406 15.453125 C 16.734375 14.886719 16.972656 11.683594 16.957031 11.894531 L 16.128906 11.894531 Z M 16.128906 8.019531 " fill-opacity="1" fill-rule="nonzero"/></g><path fill="#1800ad" d="M 19.265625 9.65625 C 18.320312 9.644531 17.351562 8.726562 17.335938 8.714844 C 17.308594 8.6875 16.824219 8.34375 16.375 8.128906 L 16.375 11.648438 L 16.984375 11.648438 L 17.121094 9.847656 C 17.589844 10.1875 18.34375 10.625 19.160156 10.671875 Z M 19.265625 9.65625 " fill-opacity="1" fill-rule="nonzero"/><path fill="#1800ad" d="M 20.253906 9.421875 L 20.140625 10.511719 C 20.242188 10.46875 20.34375 10.417969 20.445312 10.359375 C 20.6875 10.214844 20.765625 9.90625 20.621094 9.664062 C 20.539062 9.527344 20.402344 9.441406 20.253906 9.421875 Z M 20.253906 9.421875 " fill-opacity="1" fill-rule="nonzero"/><g clip-path="url(#7b1b23e4c7)"><path fill="#1800ad" d="M 9.820312 14.832031 L 9.886719 14.832031 L 9.886719 14.960938 L 9.820312 14.960938 Z M 9.820312 14.832031 " fill-opacity="1" fill-rule="nonzero"/></g><g clip-path="url(#0a36974139)"><path fill="#1800ad" d="M 13.171875 18.210938 L 13.21875 18.210938 L 13.21875 18.117188 L 13.316406 18.117188 C 13.535156 18.117188 13.710938 17.941406 13.710938 17.722656 L 13.710938 16.179688 C 12.625 16.179688 10.484375 16.179688 9.324219 16.179688 L 9.324219 17.722656 C 9.324219 17.941406 9.503906 18.117188 9.71875 18.117188 L 9.820312 18.117188 L 9.820312 18.210938 L 9.886719 18.210938 L 9.886719 18.117188 L 10.144531 18.117188 L 10.144531 18.210938 L 10.210938 18.210938 L 10.210938 18.117188 L 10.46875 18.117188 L 10.46875 18.210938 L 10.539062 18.210938 L 10.539062 18.117188 L 10.796875 18.117188 L 10.796875 18.210938 L 10.863281 18.210938 L 10.863281 18.117188 L 12.171875 18.117188 L 12.171875 18.210938 L 12.238281 18.210938 L 12.238281 18.117188 L 12.5 18.117188 L 12.5 18.210938 L 12.566406 18.210938 L 12.566406 18.117188 L 12.824219 18.117188 L 12.824219 18.210938 L 12.894531 18.210938 L 12.894531 18.117188 L 13.152344 18.117188 L 13.152344 18.210938 Z M 12.828125 17.496094 C 12.828125 17.546875 12.785156 17.589844 12.734375 17.589844 L 10.300781 17.589844 C 10.25 17.589844 10.207031 17.546875 10.207031 17.496094 L 10.207031 16.449219 L 12.828125 16.449219 Z M 12.828125 17.496094 " fill-opacity="1" fill-rule="nonzero"/></g><g clip-path="url(#701908a441)"><path fill="#1800ad" d="M 13.925781 15.925781 L 13.925781 15.636719 L 13.496094 15.636719 C 13.496094 15.609375 13.496094 15.269531 13.496094 15.296875 C 13.496094 15.136719 13.375 15.015625 13.21875 14.976562 L 13.21875 14.832031 L 13.152344 14.832031 L 13.152344 14.960938 C 13.125 14.960938 12.867188 14.960938 12.894531 14.960938 L 12.894531 14.832031 L 12.824219 14.832031 L 12.824219 14.960938 L 12.566406 14.960938 L 12.566406 14.832031 L 12.5 14.832031 L 12.5 14.960938 L 12.304688 14.960938 L 12.304688 14.394531 L 12.175781 14.394531 C 12.132812 14.445312 12.082031 14.488281 12.027344 14.523438 L 12.175781 14.523438 L 12.175781 14.960938 L 10.859375 14.960938 L 10.859375 14.523438 L 11.195312 14.523438 C 11.140625 14.488281 11.089844 14.445312 11.046875 14.394531 L 10.734375 14.394531 L 10.734375 14.960938 L 10.539062 14.960938 L 10.539062 14.832031 L 10.472656 14.832031 L 10.472656 14.960938 L 10.210938 14.960938 L 10.210938 14.832031 L 10.144531 14.832031 L 10.144531 14.960938 L 9.886719 14.960938 C 9.691406 14.96875 9.539062 15.113281 9.539062 15.296875 L 9.539062 15.636719 L 9.109375 15.636719 L 9.109375 15.925781 C 10.925781 15.925781 12.203125 15.925781 13.925781 15.925781 Z M 13.925781 15.925781 " fill-opacity="1" fill-rule="nonzero"/></g><path fill="#1800ad" d="M 11.613281 14.394531 C 11.613281 14.394531 11.617188 14.394531 11.617188 14.394531 C 11.902344 14.390625 12.121094 14.15625 12.121094 13.878906 C 12.121094 12.699219 12.277344 11.582031 12.699219 10.441406 L 12.792969 11.648438 L 13.40625 11.648438 L 13.40625 8.074219 C 13.160156 8.195312 12.46875 8.632812 12.363281 8.785156 C 11.65625 9.902344 11.0625 11.894531 11.105469 13.890625 C 11.113281 14.171875 11.335938 14.394531 11.613281 14.394531 Z M 11.613281 14.394531 " fill-opacity="1" fill-rule="nonzero"/><g clip-path="url(#ee2439498f)"><path fill="#1800ad" d="M 19.628906 4.6875 L 19.570312 5.210938 L 19.980469 5.257812 C 18.933594 15.296875 19.175781 12.972656 18.742188 17.160156 L 18.335938 17.117188 L 18.277344 17.640625 L 19.539062 17.773438 L 19.59375 17.25 L 19.1875 17.207031 C 19.910156 10.242188 19.328125 15.828125 20.425781 5.300781 L 20.832031 5.34375 L 20.886719 4.820312 Z M 19.628906 4.6875 " fill-opacity="1" fill-rule="nonzero"/></g></svg>