<svg xmlns="http://www.w3.org/2000/svg" xmlns:xlink="http://www.w3.org/1999/xlink" width="40" zoomAndPan="magnify" viewBox="0 0 30 37.92" height="40" preserveAspectRatio="xMidYMid meet" version="1.0"><defs><clipPath id="fb3e81ac04"><path d="M 3.113281 0.683594 L 26.886719 0.683594 L 26.886719 29.300781 L 3.113281 29.300781 Z M 3.113281 0.683594 " clip-rule="nonzero"/></clipPath><clipPath id="11f2309e5c"><path d="M 19.457031 1.550781 C 18.035156 0.976562 16.539062 0.683594 15 0.683594 C 13.460938 0.683594 11.964844 0.976562 10.542969 1.550781 C 9.078125 2.144531 7.757812 3.019531 6.632812 4.148438 C 4.429688 6.355469 3.199219 9.285156 3.167969 12.402344 C 3.136719 15.511719 4.304688 18.464844 6.460938 20.707031 L 6.453125 20.710938 L 15 29.257812 L 23.5 20.757812 L 23.492188 20.753906 C 25.667969 18.511719 26.855469 15.558594 26.832031 12.433594 C 26.8125 9.300781 25.582031 6.363281 23.367188 4.148438 C 22.234375 3.019531 20.921875 2.144531 19.457031 1.550781 Z M 19.457031 1.550781 " clip-rule="nonzero"/></clipPath><clipPath id="7324dfef0a"><path d="M 0.144531 0.683594 L 23.855469 0.683594 L 23.855469 29.300781 L 0.144531 29.300781 Z M 0.144531 0.683594 " clip-rule="nonzero"/></clipPath><clipPath id="87afbeb3ef"><path d="M 16.457031 1.550781 C 15.035156 0.976562 13.539062 0.683594 12 0.683594 C 10.460938 0.683594 8.964844 0.976562 7.542969 1.550781 C 6.078125 2.144531 4.757812 3.019531 3.632812 4.148438 C 1.429688 6.355469 0.199219 9.285156 0.167969 12.402344 C 0.136719 15.511719 1.304688 18.464844 3.460938 20.707031 L 3.453125 20.710938 L 12 29.257812 L 20.5 20.757812 L 20.492188 20.753906 C 22.667969 18.511719 23.855469 15.558594 23.832031 12.433594 C 23.8125 9.300781 22.582031 6.363281 20.367188 4.148438 C 19.234375 3.019531 17.921875 2.144531 16.457031 1.550781 Z M 16.457031 1.550781 " clip-rule="nonzero"/></clipPath><clipPath id="e4f8bc3865"><rect x="0" width="24" y="0" height="30"/></clipPath><clipPath id="90c81d95ab"><path d="M 4.261719 1.777344 L 25.738281 1.777344 L 25.738281 23.203125 L 4.261719 23.203125 Z M 4.261719 1.777344 " clip-rule="nonzero"/></clipPath><clipPath id="2e3fc9bf6e"><path d="M 14.996094 1.789062 C 9.089844 1.789062 4.300781 6.578125 4.300781 12.484375 C 4.300781 18.390625 9.089844 23.179688 14.996094 23.179688 C 20.902344 23.179688 25.691406 18.390625 25.691406 12.484375 C 25.691406 6.578125 20.902344 1.789062 14.996094 1.789062 Z M 14.996094 1.789062 " clip-rule="nonzero"/></clipPath><clipPath id="9af9b191f9"><path d="M 0.261719 0.777344 L 21.738281 0.777344 L 21.738281 22.203125 L 0.261719 22.203125 Z M 0.261719 0.777344 " clip-rule="nonzero"/></clipPath><clipPath id="bbdcefe7ef"><path d="M 10.996094 0.789062 C 5.089844 0.789062 0.300781 5.578125 0.300781 11.484375 C 0.300781 17.390625 5.089844 22.179688 10.996094 22.179688 C 16.902344 22.179688 21.691406 17.390625 21.691406 11.484375 C 21.691406 5.578125 16.902344 0.789062 10.996094 0.789062 Z M 10.996094 0.789062 " clip-rule="nonzero"/></clipPath><clipPath id="6b4df98cbe"><rect x="0" width="22" y="0" height="23"/></clipPath><clipPath id="6e661a95b3"><path d="M 9.484375 5 L 14 5 L 14 9 L 9.484375 9 Z M 9.484375 5 " clip-rule="nonzero"/></clipPath><clipPath id="a2a585831b"><path d="M 15 5 L 21.460938 5 L 21.460938 9 L 15 9 Z M 15 5 " clip-rule="nonzero"/></clipPath><clipPath id="5819333de4"><path d="M 13 18 L 15 18 L 15 19.9375 L 13 19.9375 Z M 13 18 " clip-rule="nonzero"/></clipPath><clipPath id="7c6485a6bd"><path d="M 12 8 L 17 8 L 17 19.9375 L 12 19.9375 Z M 12 8 " clip-rule="nonzero"/></clipPath></defs><g clip-path="url(#fb3e81ac04)"><g clip-path="url(#11f2309e5c)"><g transform="matrix(1, 0, 0, 1, 3, 0.000000000000005773)"><g clip-path="url(#e4f8bc3865)"><g clip-path="url(#7324dfef0a)"><g clip-path="url(#87afbeb3ef)"><path fill="#faab11" d="M 0.167969 0.683594 L 23.832031 0.683594 L 23.832031 29.25 L 0.167969 29.25 Z M 0.167969 0.683594 " fill-opacity="1" fill-rule="nonzero"/></g></g></g></g></g></g><g clip-path="url(#90c81d95ab)"><g clip-path="url(#2e3fc9bf6e)"><g transform="matrix(1, 0, 0, 1, 4, 1)"><g clip-path="url(#6b4df98cbe)"><g clip-path="url(#9af9b191f9)"><g clip-path="url(#bbdcefe7ef)"><rect x="-10.6" width="43.2" fill="#ffffff" height="54.6048" y="-9.3424" fill-opacity="1"/></g></g></g></g></g></g><g clip-path="url(#6e661a95b3)"><path fill="#1800ad" d="M 13.957031 8.035156 C 13.785156 7.921875 13.636719 7.773438 13.519531 7.589844 C 13.515625 7.589844 13.453125 7.574219 13.453125 7.574219 L 13.070312 7.214844 L 13.070312 6.75 L 13.234375 6.761719 C 13.222656 6.589844 13.226562 6.199219 13.449219 5.839844 L 9.546875 5.839844 L 9.546875 6.28125 L 10.011719 6.28125 L 10.011719 6.71875 L 10.402344 6.71875 L 10.402344 7.160156 L 9.921875 7.160156 L 9.921875 7.601562 L 10.242188 7.601562 L 10.242188 8.035156 Z M 13.957031 8.035156 " fill-opacity="1" fill-rule="nonzero"/></g><g clip-path="url(#a2a585831b)"><path fill="#1800ad" d="M 21.410156 7.160156 L 21.410156 6.71875 L 21.023438 6.71875 L 21.023438 6.28125 L 20.554688 6.28125 L 20.554688 5.839844 L 16.113281 5.839844 C 16.242188 6.0625 16.347656 6.363281 16.339844 6.761719 L 16.5 6.75 L 16.5 7.183594 L 16.136719 7.570312 C 16.136719 7.570312 16.066406 7.589844 16.046875 7.59375 C 15.933594 7.773438 15.785156 7.921875 15.613281 8.035156 L 17.972656 8.035156 L 18.125 7.746094 C 18.300781 7.421875 18.707031 7.292969 19.035156 7.46875 C 19.253906 7.585938 19.382812 7.804688 19.390625 8.035156 L 21.253906 8.035156 L 21.253906 7.601562 L 20.933594 7.601562 L 20.933594 7.160156 Z M 21.410156 7.160156 " fill-opacity="1" fill-rule="nonzero"/></g><g clip-path="url(#5819333de4)"><path fill="#1800ad" d="M 13.246094 19.082031 C 13.007812 19.367188 13.050781 19.792969 13.332031 20.027344 C 13.605469 20.257812 14.03125 20.234375 14.28125 19.941406 L 14.707031 19.425781 L 14.109375 18.042969 Z M 13.246094 19.082031 " fill-opacity="1" fill-rule="nonzero"/></g><path fill="#1800ad" d="M 13.4375 8.53125 C 13.175781 8.65625 12.921875 8.824219 12.671875 9.035156 L 12.671875 9.039062 C 12.640625 9.066406 12.613281 9.101562 12.585938 9.140625 C 12.058594 9.933594 11.464844 11.851562 11.644531 13.917969 C 11.664062 14.152344 11.859375 14.324219 12.089844 14.324219 L 12.128906 14.324219 C 12.375 14.304688 12.558594 14.085938 12.535156 13.839844 C 12.460938 12.996094 12.527344 12.25 12.644531 11.625 C 12.695312 11.363281 12.753906 11.125 12.816406 10.914062 L 12.882812 11.777344 L 13.4375 11.777344 Z M 13.4375 8.53125 " fill-opacity="1" fill-rule="nonzero"/><path fill="#1800ad" d="M 14.273438 8.265625 L 14.273438 9.433594 L 15.296875 9.433594 L 15.296875 8.292969 C 14.960938 8.222656 14.59375 8.214844 14.273438 8.265625 Z M 14.273438 8.265625 " fill-opacity="1" fill-rule="nonzero"/><path fill="#1800ad" d="M 13.679688 7.042969 C 14.867188 6.722656 15.878906 7.023438 15.878906 7.023438 L 16.046875 6.867188 L 16.113281 6.808594 C 16.160156 5.886719 15.535156 5.574219 15.519531 5.550781 C 15.210938 5.859375 15.132812 6.707031 15.125 6.730469 C 15.074219 5.738281 15.433594 5.410156 15.441406 5.386719 C 14.667969 4.976562 14.136719 5.386719 14.136719 5.386719 C 14.507812 5.859375 14.433594 6.703125 14.4375 6.726562 C 14.363281 6.261719 14.28125 5.9375 14.03125 5.585938 C 13.335938 5.988281 13.472656 6.785156 13.464844 6.808594 C 13.484375 6.832031 13.699219 7.066406 13.679688 7.042969 Z M 13.679688 7.042969 " fill-opacity="1" fill-rule="nonzero"/><path fill="#1800ad" d="M 15.90625 7.398438 C 15.976562 7.382812 16.015625 7.371094 16.015625 7.371094 L 16.277344 7.089844 L 16.277344 6.984375 L 16.140625 6.996094 C 16.117188 7.019531 15.890625 7.257812 15.910156 7.234375 C 14.710938 6.894531 13.660156 7.234375 13.660156 7.234375 C 13.636719 7.210938 13.546875 7.128906 13.417969 6.996094 L 13.292969 6.984375 L 13.292969 7.117188 L 13.5625 7.371094 C 13.597656 7.378906 13.628906 7.386719 13.664062 7.394531 C 13.878906 7.792969 14.296875 8.0625 14.785156 8.0625 C 15.261719 8.0625 15.6875 7.796875 15.90625 7.398438 Z M 15.90625 7.398438 " fill-opacity="1" fill-rule="nonzero"/><g clip-path="url(#7c6485a6bd)"><path fill="#1800ad" d="M 15.910156 8.480469 C 15.78125 8.425781 15.648438 8.382812 15.519531 8.347656 L 15.519531 9.65625 L 14.050781 9.65625 L 14.050781 8.308594 C 13.921875 8.339844 13.789062 8.382812 13.660156 8.429688 L 13.660156 12 L 12.90625 12 L 12.90625 12.101562 C 12.933594 12.421875 12.820312 10.941406 13.148438 15.230469 C 13.164062 15.363281 14.265625 17.84375 15.105469 19.78125 C 15.253906 20.117188 15.648438 20.277344 15.992188 20.128906 C 16.332031 19.980469 16.488281 19.582031 16.339844 19.246094 C 16.328125 19.21875 14.640625 15.335938 14.652344 15.363281 C 14.683594 15.363281 15.070312 15.363281 15.046875 15.363281 L 15.0625 15.363281 L 15.0625 15.75 L 15.988281 17.878906 L 16.253906 17.5625 C 16.351562 17.445312 16.40625 17.292969 16.40625 17.136719 L 16.40625 15.28125 C 16.429688 15.246094 16.679688 11.777344 16.664062 12 L 15.910156 12 Z M 15.910156 8.480469 " fill-opacity="1" fill-rule="nonzero"/></g><path fill="#1800ad" d="M 18.929688 7.664062 C 18.710938 7.550781 18.4375 7.632812 18.324219 7.851562 C 18.3125 7.875 17.527344 9.355469 17.578125 9.261719 C 17.554688 9.253906 16.855469 9.023438 16.898438 9.035156 C 16.640625 8.851562 16.386719 8.699219 16.132812 8.582031 L 16.132812 11.777344 L 16.6875 11.777344 L 16.824219 9.957031 C 17.003906 10.015625 17.695312 10.242188 17.65625 10.230469 C 17.859375 10.296875 18.089844 10.210938 18.195312 10.015625 L 19.117188 8.273438 C 19.15625 8.195312 19.171875 8.117188 19.167969 8.035156 C 19.160156 7.882812 19.074219 7.742188 18.929688 7.664062 Z M 18.929688 7.664062 " fill-opacity="1" fill-rule="nonzero"/></svg>