<svg xmlns="http://www.w3.org/2000/svg" xmlns:xlink="http://www.w3.org/1999/xlink" width="40" zoomAndPan="magnify" viewBox="0 0 30 37.92" height="40" preserveAspectRatio="xMidYMid meet" version="1.0"><defs><clipPath id="a16c89553f"><path d="M 3.113281 0.683594 L 26.886719 0.683594 L 26.886719 29.300781 L 3.113281 29.300781 Z M 3.113281 0.683594 " clip-rule="nonzero"/></clipPath><clipPath id="d815ac3e16"><path d="M 19.457031 1.550781 C 18.035156 0.976562 16.539062 0.683594 15 0.683594 C 13.460938 0.683594 11.964844 0.976562 10.542969 1.550781 C 9.078125 2.144531 7.757812 3.019531 6.632812 4.148438 C 4.429688 6.355469 3.199219 9.285156 3.167969 12.402344 C 3.136719 15.511719 4.304688 18.464844 6.460938 20.707031 L 6.453125 20.710938 L 15 29.257812 L 23.5 20.757812 L 23.492188 20.753906 C 25.667969 18.511719 26.855469 15.558594 26.832031 12.433594 C 26.8125 9.300781 25.582031 6.363281 23.367188 4.148438 C 22.234375 3.019531 20.921875 2.144531 19.457031 1.550781 Z M 19.457031 1.550781 " clip-rule="nonzero"/></clipPath><clipPath id="dc6b74f268"><path d="M 0.144531 0.683594 L 23.855469 0.683594 L 23.855469 29.300781 L 0.144531 29.300781 Z M 0.144531 0.683594 " clip-rule="nonzero"/></clipPath><clipPath id="786f1eada8"><path d="M 16.457031 1.550781 C 15.035156 0.976562 13.539062 0.683594 12 0.683594 C 10.460938 0.683594 8.964844 0.976562 7.542969 1.550781 C 6.078125 2.144531 4.757812 3.019531 3.632812 4.148438 C 1.429688 6.355469 0.199219 9.285156 0.167969 12.402344 C 0.136719 15.511719 1.304688 18.464844 3.460938 20.707031 L 3.453125 20.710938 L 12 29.257812 L 20.5 20.757812 L 20.492188 20.753906 C 22.667969 18.511719 23.855469 15.558594 23.832031 12.433594 C 23.8125 9.300781 22.582031 6.363281 20.367188 4.148438 C 19.234375 3.019531 17.921875 2.144531 16.457031 1.550781 Z M 16.457031 1.550781 " clip-rule="nonzero"/></clipPath><clipPath id="2d3cbf3098"><rect x="0" width="24" y="0" height="30"/></clipPath><clipPath id="7dafd5d215"><path d="M 4.261719 1.777344 L 25.738281 1.777344 L 25.738281 23.203125 L 4.261719 23.203125 Z M 4.261719 1.777344 " clip-rule="nonzero"/></clipPath><clipPath id="b5cdcb6833"><path d="M 14.996094 1.789062 C 9.089844 1.789062 4.300781 6.578125 4.300781 12.484375 C 4.300781 18.390625 9.089844 23.179688 14.996094 23.179688 C 20.902344 23.179688 25.691406 18.390625 25.691406 12.484375 C 25.691406 6.578125 20.902344 1.789062 14.996094 1.789062 Z M 14.996094 1.789062 " clip-rule="nonzero"/></clipPath><clipPath id="080d6df3d5"><path d="M 0.261719 0.777344 L 21.738281 0.777344 L 21.738281 22.203125 L 0.261719 22.203125 Z M 0.261719 0.777344 " clip-rule="nonzero"/></clipPath><clipPath id="9fdd2dd10f"><path d="M 10.996094 0.789062 C 5.089844 0.789062 0.300781 5.578125 0.300781 11.484375 C 0.300781 17.390625 5.089844 22.179688 10.996094 22.179688 C 16.902344 22.179688 21.691406 17.390625 21.691406 11.484375 C 21.691406 5.578125 16.902344 0.789062 10.996094 0.789062 Z M 10.996094 0.789062 " clip-rule="nonzero"/></clipPath><clipPath id="e5c085f03d"><rect x="0" width="22" y="0" height="23"/></clipPath><clipPath id="f593568bb6"><path d="M 10.136719 3 L 13 3 L 13 17 L 10.136719 17 Z M 10.136719 3 " clip-rule="nonzero"/></clipPath><clipPath id="e5b876ea8a"><path d="M 13 2.992188 L 18.371094 2.992188 L 18.371094 21.703125 L 13 21.703125 Z M 13 2.992188 " clip-rule="nonzero"/></clipPath></defs><g clip-path="url(#a16c89553f)"><g clip-path="url(#d815ac3e16)"><g transform="matrix(1, 0, 0, 1, 3, 0.000000000000005773)"><g clip-path="url(#2d3cbf3098)"><g clip-path="url(#dc6b74f268)"><g clip-path="url(#786f1eada8)"><path fill="#faab11" d="M 0.167969 0.683594 L 23.832031 0.683594 L 23.832031 29.25 L 0.167969 29.25 Z M 0.167969 0.683594 " fill-opacity="1" fill-rule="nonzero"/></g></g></g></g></g></g><g clip-path="url(#7dafd5d215)"><g clip-path="url(#b5cdcb6833)"><g transform="matrix(1, 0, 0, 1, 4, 1)"><g clip-path="url(#e5c085f03d)"><g clip-path="url(#080d6df3d5)"><g clip-path="url(#9fdd2dd10f)"><rect x="-10.6" width="43.2" fill="#ffffff" height="54.6048" y="-9.3424" fill-opacity="1"/></g></g></g></g></g></g><path fill="#1800ad" d="M 12.324219 4.550781 L 12.183594 4.550781 L 12.183594 9.265625 C 12.230469 9.285156 12.28125 9.3125 12.324219 9.34375 Z M 12.324219 4.550781 " fill-opacity="1" fill-rule="nonzero"/><path fill="#1800ad" d="M 14.519531 9.804688 L 13.714844 11.09375 L 12.09375 11.320312 C 11.863281 11.34375 11.605469 11.488281 11.453125 11.792969 L 11.453125 13.621094 C 11.769531 13.734375 12.21875 13.78125 12.4375 13.800781 C 12.4375 13.789062 12.433594 13.777344 12.433594 13.769531 L 12.375 13.742188 C 12.277344 13.699219 12.203125 13.617188 12.171875 13.511719 L 11.769531 12.160156 C 11.742188 12.066406 11.753906 11.96875 11.800781 11.882812 C 11.847656 11.796875 11.921875 11.734375 12.015625 11.707031 C 12.050781 11.699219 12.085938 11.691406 12.121094 11.691406 C 12.28125 11.691406 12.425781 11.800781 12.46875 11.953125 L 12.597656 12.390625 C 12.613281 12.316406 12.628906 12.246094 12.640625 12.179688 C 12.675781 12.0625 12.683594 11.929688 12.664062 11.8125 L 13.921875 11.636719 C 14.007812 11.625 14.078125 11.578125 14.125 11.507812 L 15 10.105469 C 15.082031 9.976562 15.046875 9.808594 14.925781 9.722656 L 14.960938 9.621094 L 15.207031 8.957031 L 15.933594 9.222656 L 16.019531 8.980469 L 14.414062 8.390625 L 14.324219 8.632812 L 15.050781 8.898438 L 14.808594 9.570312 L 14.769531 9.671875 C 14.671875 9.667969 14.574219 9.714844 14.519531 9.804688 Z M 14.519531 9.804688 " fill-opacity="1" fill-rule="nonzero"/><path fill="#1800ad" d="M 12.410156 15.058594 L 12.875 15.386719 L 13.542969 17.726562 C 13.597656 17.921875 13.773438 18.046875 13.964844 18.046875 C 14.007812 18.046875 14.046875 18.042969 14.085938 18.03125 C 14.320312 17.964844 14.457031 17.71875 14.390625 17.484375 L 13.683594 14.996094 C 13.65625 14.898438 13.59375 14.8125 13.511719 14.753906 L 12.953125 14.359375 C 12.875 14.503906 12.695312 14.8125 12.410156 15.058594 Z M 12.410156 15.058594 " fill-opacity="1" fill-rule="nonzero"/><path fill="#1800ad" d="M 12.644531 9.953125 L 11.453125 10.457031 L 11.453125 10.96875 C 11.628906 11.117188 11.871094 11.183594 12.113281 11.136719 C 12.546875 11.050781 12.824219 10.632812 12.738281 10.203125 C 12.722656 10.113281 12.6875 10.027344 12.644531 9.953125 Z M 12.644531 9.953125 " fill-opacity="1" fill-rule="nonzero"/><path fill="#1800ad" d="M 11.453125 10.367188 L 12.628906 9.871094 C 12.6875 9.847656 12.710938 9.785156 12.6875 9.726562 C 12.664062 9.671875 12.601562 9.644531 12.542969 9.667969 L 12.5 9.6875 C 12.308594 9.351562 11.894531 9.203125 11.53125 9.355469 C 11.503906 9.367188 11.476562 9.382812 11.453125 9.394531 Z M 11.453125 10.367188 " fill-opacity="1" fill-rule="nonzero"/><path fill="#1800ad" d="M 13.972656 14.339844 C 14.007812 14.355469 14.046875 14.363281 14.085938 14.363281 C 14.195312 14.363281 14.300781 14.296875 14.34375 14.191406 C 14.40625 14.046875 14.339844 13.882812 14.195312 13.820312 L 12.753906 13.199219 L 12.390625 11.976562 C 12.347656 11.828125 12.191406 11.742188 12.039062 11.785156 C 11.890625 11.832031 11.804688 11.988281 11.847656 12.136719 L 12.25 13.488281 C 12.273438 13.570312 12.332031 13.632812 12.410156 13.667969 Z M 13.972656 14.339844 " fill-opacity="1" fill-rule="nonzero"/><g clip-path="url(#f593568bb6)"><path fill="#1800ad" d="M 10.230469 14.402344 L 10.433594 15.980469 C 10.433594 16.058594 10.730469 16.121094 11.101562 16.121094 C 11.46875 16.121094 11.769531 16.058594 11.769531 15.980469 L 11.898438 14.976562 L 12.234375 14.976562 C 12.542969 14.730469 12.742188 14.382812 12.804688 14.257812 L 12.5625 14.085938 L 12.453125 14.007812 C 12.453125 14.003906 12.453125 14 12.453125 13.996094 C 12.453125 13.988281 12.453125 13.984375 12.453125 13.976562 C 12.253906 13.964844 11.804688 13.921875 11.453125 13.808594 L 11.453125 14.078125 C 11.40625 14.074219 11.359375 14.070312 11.308594 14.066406 L 11.308594 3.953125 L 11.3125 3.953125 L 11.3125 3.8125 L 11.171875 3.8125 L 11.171875 9.667969 C 11.0625 9.847656 11.027344 10.070312 11.089844 10.28125 L 11.046875 10.300781 C 10.988281 10.324219 10.960938 10.390625 10.988281 10.445312 C 11.011719 10.5 11.074219 10.527344 11.132812 10.503906 L 11.171875 10.488281 L 11.171875 12.851562 C 11.144531 13.082031 11.140625 13.3125 11.160156 13.582031 L 11.171875 13.566406 L 11.171875 13.6875 C 11.167969 13.683594 11.167969 13.683594 11.167969 13.683594 C 11.167969 13.695312 11.167969 13.707031 11.171875 13.71875 L 11.171875 14.0625 C 11.152344 14.0625 11.136719 14.0625 11.121094 14.0625 C 11.113281 14.0625 11.105469 14.0625 11.101562 14.0625 C 11.027344 14.0625 10.953125 14.0625 10.882812 14.070312 L 10.421875 12.613281 L 10.230469 12.675781 L 10.675781 14.085938 C 10.359375 14.125 10.144531 14.207031 10.144531 14.300781 C 10.144531 14.335938 10.175781 14.371094 10.230469 14.402344 Z M 10.757812 14.335938 L 10.949219 14.277344 L 10.914062 14.167969 C 10.972656 14.164062 11.035156 14.160156 11.101562 14.160156 C 11.496094 14.160156 11.820312 14.222656 11.820312 14.292969 C 11.820312 14.367188 11.496094 14.425781 11.101562 14.425781 C 10.703125 14.425781 10.382812 14.367188 10.382812 14.292969 C 10.382812 14.246094 10.511719 14.207031 10.707031 14.183594 Z M 10.757812 14.335938 " fill-opacity="1" fill-rule="nonzero"/></g><g clip-path="url(#e5b876ea8a)"><path fill="#1800ad" d="M 17.488281 20.671875 L 13.367188 19.011719 L 13.367188 19.09375 L 18.625 21.550781 L 18.625 21.128906 L 17.898438 20.835938 L 17.898438 3.707031 L 18.625 3.414062 L 18.625 2.992188 L 13.367188 5.453125 L 13.367188 5.535156 L 17.488281 3.871094 Z M 17.488281 20.671875 " fill-opacity="1" fill-rule="nonzero"/></g><path fill="#1800ad" d="M 15.367188 15.9375 L 16.15625 14.460938 L 16.210938 14.492188 L 15.421875 15.96875 Z M 15.367188 15.9375 " fill-opacity="1" fill-rule="nonzero"/><path fill="#1800ad" d="M 15.617188 16.070312 L 16.40625 14.59375 L 16.460938 14.625 L 15.671875 16.101562 Z M 15.617188 16.070312 " fill-opacity="1" fill-rule="nonzero"/><path fill="#1800ad" d="M 15.066406 16.796875 L 16.707031 13.734375 L 16.761719 13.765625 L 15.121094 16.828125 Z M 15.066406 16.796875 " fill-opacity="1" fill-rule="nonzero"/><path fill="#1800ad" d="M 14.484375 12.609375 L 15.066406 11.523438 L 15.105469 11.546875 L 14.527344 12.628906 Z M 14.484375 12.609375 " fill-opacity="1" fill-rule="nonzero"/><path fill="#1800ad" d="M 14.667969 12.707031 L 15.25 11.621094 L 15.289062 11.644531 L 14.710938 12.726562 Z M 14.667969 12.707031 " fill-opacity="1" fill-rule="nonzero"/><path fill="#1800ad" d="M 14.265625 13.238281 L 15.46875 10.992188 L 15.511719 11.015625 L 14.308594 13.261719 Z M 14.265625 13.238281 " fill-opacity="1" fill-rule="nonzero"/><path fill="#1800ad" d="M 14.488281 6.617188 L 14.523438 6.617188 L 14.523438 8.273438 L 14.488281 8.273438 Z M 14.488281 6.617188 " fill-opacity="1" fill-rule="nonzero"/><path fill="#1800ad" d="M 15.957031 5.527344 L 16.027344 5.527344 L 16.027344 8.804688 L 15.957031 8.804688 Z M 15.957031 5.527344 " fill-opacity="1" fill-rule="nonzero"/><path fill="#1800ad" d="M 15.71875 5.929688 L 15.773438 5.929688 L 15.773438 8.476562 L 15.71875 8.476562 Z M 15.71875 5.929688 " fill-opacity="1" fill-rule="nonzero"/></svg>