<svg xmlns="http://www.w3.org/2000/svg" xmlns:xlink="http://www.w3.org/1999/xlink" width="40" zoomAndPan="magnify" viewBox="0 0 30 37.92" height="40" preserveAspectRatio="xMidYMid meet" version="1.0"><defs><clipPath id="7d4dc781dc"><path d="M 3.113281 0.683594 L 26.886719 0.683594 L 26.886719 29.300781 L 3.113281 29.300781 Z M 3.113281 0.683594 " clip-rule="nonzero"/></clipPath><clipPath id="f4d8a87c1f"><path d="M 19.457031 1.550781 C 18.035156 0.976562 16.539062 0.683594 15 0.683594 C 13.460938 0.683594 11.964844 0.976562 10.542969 1.550781 C 9.078125 2.144531 7.757812 3.019531 6.632812 4.148438 C 4.429688 6.355469 3.199219 9.285156 3.167969 12.402344 C 3.136719 15.511719 4.304688 18.464844 6.460938 20.707031 L 6.453125 20.710938 L 15 29.257812 L 23.5 20.757812 L 23.492188 20.753906 C 25.667969 18.511719 26.855469 15.558594 26.832031 12.433594 C 26.8125 9.300781 25.582031 6.363281 23.367188 4.148438 C 22.234375 3.019531 20.921875 2.144531 19.457031 1.550781 Z M 19.457031 1.550781 " clip-rule="nonzero"/></clipPath><clipPath id="3dac56185b"><path d="M 0.144531 0.683594 L 23.855469 0.683594 L 23.855469 29.300781 L 0.144531 29.300781 Z M 0.144531 0.683594 " clip-rule="nonzero"/></clipPath><clipPath id="e040f75ca7"><path d="M 16.457031 1.550781 C 15.035156 0.976562 13.539062 0.683594 12 0.683594 C 10.460938 0.683594 8.964844 0.976562 7.542969 1.550781 C 6.078125 2.144531 4.757812 3.019531 3.632812 4.148438 C 1.429688 6.355469 0.199219 9.285156 0.167969 12.402344 C 0.136719 15.511719 1.304688 18.464844 3.460938 20.707031 L 3.453125 20.710938 L 12 29.257812 L 20.5 20.757812 L 20.492188 20.753906 C 22.667969 18.511719 23.855469 15.558594 23.832031 12.433594 C 23.8125 9.300781 22.582031 6.363281 20.367188 4.148438 C 19.234375 3.019531 17.921875 2.144531 16.457031 1.550781 Z M 16.457031 1.550781 " clip-rule="nonzero"/></clipPath><clipPath id="22930912bd"><rect x="0" width="24" y="0" height="30"/></clipPath><clipPath id="c1438d1527"><path d="M 4.261719 1.777344 L 25.738281 1.777344 L 25.738281 23.203125 L 4.261719 23.203125 Z M 4.261719 1.777344 " clip-rule="nonzero"/></clipPath><clipPath id="a4784c5093"><path d="M 14.996094 1.789062 C 9.089844 1.789062 4.300781 6.578125 4.300781 12.484375 C 4.300781 18.390625 9.089844 23.179688 14.996094 23.179688 C 20.902344 23.179688 25.691406 18.390625 25.691406 12.484375 C 25.691406 6.578125 20.902344 1.789062 14.996094 1.789062 Z M 14.996094 1.789062 " clip-rule="nonzero"/></clipPath><clipPath id="c375d4053e"><path d="M 0.261719 0.777344 L 21.738281 0.777344 L 21.738281 22.203125 L 0.261719 22.203125 Z M 0.261719 0.777344 " clip-rule="nonzero"/></clipPath><clipPath id="43ad010429"><path d="M 10.996094 0.789062 C 5.089844 0.789062 0.300781 5.578125 0.300781 11.484375 C 0.300781 17.390625 5.089844 22.179688 10.996094 22.179688 C 16.902344 22.179688 21.691406 17.390625 21.691406 11.484375 C 21.691406 5.578125 16.902344 0.789062 10.996094 0.789062 Z M 10.996094 0.789062 " clip-rule="nonzero"/></clipPath><clipPath id="7d8cc0407b"><rect x="0" width="22" y="0" height="23"/></clipPath><clipPath id="befb020a1d"><path d="M 8.085938 9 L 11 9 L 11 13 L 8.085938 13 Z M 8.085938 9 " clip-rule="nonzero"/></clipPath><clipPath id="c243365a48"><path d="M 8.085938 6 L 14 6 L 14 10 L 8.085938 10 Z M 8.085938 6 " clip-rule="nonzero"/></clipPath><clipPath id="085cc3afe5"><path d="M 20 5.710938 L 21.554688 5.710938 L 21.554688 19.183594 L 20 19.183594 Z M 20 5.710938 " clip-rule="nonzero"/></clipPath><clipPath id="810e4888e8"><path d="M 8.085938 14 L 13 14 L 13 19.183594 L 8.085938 19.183594 Z M 8.085938 14 " clip-rule="nonzero"/></clipPath><clipPath id="b83f9fd0f0"><path d="M 8.085938 14 L 10 14 L 10 18 L 8.085938 18 Z M 8.085938 14 " clip-rule="nonzero"/></clipPath></defs><g clip-path="url(#7d4dc781dc)"><g clip-path="url(#f4d8a87c1f)"><g transform="matrix(1, 0, 0, 1, 3, 0.000000000000005773)"><g clip-path="url(#22930912bd)"><g clip-path="url(#3dac56185b)"><g clip-path="url(#e040f75ca7)"><path fill="#faab11" d="M 0.167969 0.683594 L 23.832031 0.683594 L 23.832031 29.25 L 0.167969 29.25 Z M 0.167969 0.683594 " fill-opacity="1" fill-rule="nonzero"/></g></g></g></g></g></g><g clip-path="url(#c1438d1527)"><g clip-path="url(#a4784c5093)"><g transform="matrix(1, 0, 0, 1, 4, 1)"><g clip-path="url(#7d8cc0407b)"><g clip-path="url(#c375d4053e)"><g clip-path="url(#43ad010429)"><rect x="-10.6" width="43.2" fill="#ffffff" height="54.6048" y="-9.3424" fill-opacity="1"/></g></g></g></g></g></g><g clip-path="url(#befb020a1d)"><path fill="#1800ad" d="M 10.132812 12.363281 C 9.933594 12.183594 9.8125 11.921875 9.8125 11.636719 C 9.8125 11.175781 10.128906 10.789062 10.550781 10.679688 L 10.550781 9.660156 L 8.085938 9.660156 L 8.085938 11.796875 L 8.90625 12.824219 L 10.132812 12.363281 " fill-opacity="1" fill-rule="nonzero"/></g><path fill="#1800ad" d="M 11.539062 8.179688 L 13 8.179688 C 12.890625 7.425781 12.292969 6.828125 11.539062 6.71875 L 11.539062 8.179688 " fill-opacity="1" fill-rule="nonzero"/><g clip-path="url(#c243365a48)"><path fill="#1800ad" d="M 13.019531 8.675781 L 11.292969 8.675781 C 11.15625 8.675781 11.046875 8.5625 11.046875 8.425781 L 11.046875 6.699219 L 9.8125 6.699219 C 8.941406 6.699219 8.222656 7.34375 8.105469 8.179688 L 8.824219 8.179688 L 8.824219 8.675781 L 8.085938 8.675781 L 8.085938 9.167969 L 13.019531 9.167969 L 13.019531 8.675781 " fill-opacity="1" fill-rule="nonzero"/></g><path fill="#1800ad" d="M 12.035156 10.648438 L 12.527344 10.648438 L 12.527344 11.144531 L 12.035156 11.144531 Z M 13.019531 12.757812 L 13.019531 9.660156 L 11.046875 9.660156 L 11.046875 10.894531 C 11.046875 11.03125 10.933594 11.144531 10.800781 11.144531 C 10.527344 11.144531 10.304688 11.363281 10.304688 11.636719 C 10.304688 11.910156 10.527344 12.128906 10.800781 12.128906 C 10.917969 12.128906 11.019531 12.214844 11.042969 12.332031 C 11.0625 12.449219 10.996094 12.566406 10.886719 12.609375 L 9.070312 13.289062 L 9.070312 14.105469 L 12.035156 14.105469 C 12.597656 14.105469 12.949219 13.796875 13.007812 13.273438 L 11.761719 12.859375 L 11.917969 12.390625 L 13.019531 12.757812 " fill-opacity="1" fill-rule="nonzero"/><path fill="#1800ad" d="M 15.984375 8.921875 C 15.984375 8.785156 15.871094 8.675781 15.734375 8.675781 L 13.515625 8.675781 L 13.515625 9.167969 L 15.734375 9.167969 C 15.871094 9.167969 15.984375 9.058594 15.984375 8.921875 " fill-opacity="1" fill-rule="nonzero"/><path fill="#1800ad" d="M 18.699219 15.09375 L 17.214844 15.09375 C 16.894531 15.09375 16.621094 15.296875 16.519531 15.585938 L 17.710938 15.585938 C 18.390625 15.585938 18.945312 16.140625 18.945312 16.820312 L 18.945312 17.289062 C 18.945312 17.417969 19.035156 17.539062 19.148438 17.554688 C 19.222656 17.570312 19.292969 17.550781 19.351562 17.5 C 19.40625 17.457031 19.4375 17.386719 19.4375 17.3125 L 19.4375 15.832031 C 19.4375 15.421875 19.105469 15.09375 18.699219 15.09375 " fill-opacity="1" fill-rule="nonzero"/><path fill="#1800ad" d="M 18.699219 13.117188 L 19.4375 13.117188 L 19.4375 12.625 L 18 12.625 C 18.101562 12.910156 18.375 13.117188 18.699219 13.117188 " fill-opacity="1" fill-rule="nonzero"/><path fill="#1800ad" d="M 18 10.402344 L 19.4375 10.402344 L 19.4375 9.910156 L 18.699219 9.910156 C 18.375 9.910156 18.101562 10.113281 18 10.402344 " fill-opacity="1" fill-rule="nonzero"/><g clip-path="url(#085cc3afe5)"><path fill="#1800ad" d="M 20.917969 19.535156 L 21.90625 19.535156 L 21.90625 5.710938 L 20.917969 5.710938 L 20.917969 19.535156 " fill-opacity="1" fill-rule="nonzero"/></g><path fill="#1800ad" d="M 12.671875 16.574219 L 14.894531 14.351562 L 14.007812 13.464844 L 12.949219 14.527344 C 12.902344 14.574219 12.839844 14.597656 12.773438 14.597656 L 11.046875 14.597656 L 11.046875 16.324219 C 11.046875 17.195312 11.691406 17.914062 12.527344 18.035156 L 12.527344 17.066406 L 11.785156 17.066406 L 11.785156 16.574219 L 12.671875 16.574219 " fill-opacity="1" fill-rule="nonzero"/><path fill="#1800ad" d="M 15.214844 17.425781 C 15.175781 17.507812 15.089844 17.558594 14.996094 17.558594 L 13.019531 17.558594 L 13.019531 18.527344 L 15.898438 18.304688 L 17.257812 17.402344 L 17.367188 17.066406 L 15.394531 17.066406 L 15.214844 17.425781 " fill-opacity="1" fill-rule="nonzero"/><path fill="#1800ad" d="M 17.710938 16.078125 L 14.996094 16.078125 L 14.996094 16.574219 L 18.40625 16.574219 C 18.304688 16.285156 18.03125 16.078125 17.710938 16.078125 " fill-opacity="1" fill-rule="nonzero"/><g clip-path="url(#810e4888e8)"><path fill="#1800ad" d="M 10.550781 16.324219 L 10.550781 14.597656 L 10.058594 14.597656 L 10.058594 16.820312 C 10.058594 17.5 9.503906 18.054688 8.824219 18.054688 L 8.085938 18.054688 L 8.085938 19.535156 L 10.058594 19.535156 L 10.058594 18.300781 L 10.550781 18.300781 L 10.550781 19.535156 L 12.527344 19.535156 L 12.527344 18.535156 C 11.417969 18.410156 10.550781 17.46875 10.550781 16.324219 " fill-opacity="1" fill-rule="nonzero"/></g><path fill="#1800ad" d="M 19.933594 14.105469 L 20.425781 14.105469 L 20.425781 8.675781 L 19.933594 8.675781 L 19.933594 14.105469 " fill-opacity="1" fill-rule="nonzero"/><g clip-path="url(#b83f9fd0f0)"><path fill="#1800ad" d="M 9.566406 16.820312 L 9.566406 14.597656 L 8.824219 14.597656 C 8.414062 14.597656 8.085938 14.929688 8.085938 15.339844 L 8.085938 17.558594 L 8.824219 17.558594 C 9.234375 17.558594 9.566406 17.230469 9.566406 16.820312 " fill-opacity="1" fill-rule="nonzero"/></g><path fill="#1800ad" d="M 17.042969 12.203125 C 17.089844 12.15625 17.152344 12.128906 17.214844 12.128906 L 17.957031 12.128906 C 18.09375 12.128906 18.203125 12.019531 18.203125 11.882812 L 18.203125 11.144531 C 18.203125 11.007812 18.09375 10.894531 17.957031 10.894531 L 16.578125 10.894531 L 14.355469 13.117188 L 15.242188 14.003906 L 17.042969 12.203125 " fill-opacity="1" fill-rule="nonzero"/><path fill="#1800ad" d="M 19.191406 18.054688 C 19.054688 18.054688 18.945312 18.164062 18.945312 18.300781 C 18.945312 18.4375 19.054688 18.546875 19.191406 18.546875 C 19.328125 18.546875 19.4375 18.4375 19.4375 18.300781 C 19.4375 18.164062 19.328125 18.054688 19.191406 18.054688 " fill-opacity="1" fill-rule="nonzero"/></svg>