<svg xmlns="http://www.w3.org/2000/svg" xmlns:xlink="http://www.w3.org/1999/xlink" width="40" zoomAndPan="magnify" viewBox="0 0 30 37.92" height="40" preserveAspectRatio="xMidYMid meet" version="1.0"><defs><clipPath id="173d404c46"><path d="M 3.113281 0.683594 L 26.886719 0.683594 L 26.886719 29.300781 L 3.113281 29.300781 Z M 3.113281 0.683594 " clip-rule="nonzero"/></clipPath><clipPath id="328106a1e1"><path d="M 19.457031 1.550781 C 18.035156 0.976562 16.539062 0.683594 15 0.683594 C 13.460938 0.683594 11.964844 0.976562 10.542969 1.550781 C 9.078125 2.144531 7.757812 3.019531 6.632812 4.148438 C 4.429688 6.355469 3.199219 9.285156 3.167969 12.402344 C 3.136719 15.511719 4.304688 18.464844 6.460938 20.707031 L 6.453125 20.710938 L 15 29.257812 L 23.5 20.757812 L 23.492188 20.753906 C 25.667969 18.511719 26.855469 15.558594 26.832031 12.433594 C 26.8125 9.300781 25.582031 6.363281 23.367188 4.148438 C 22.234375 3.019531 20.921875 2.144531 19.457031 1.550781 Z M 19.457031 1.550781 " clip-rule="nonzero"/></clipPath><clipPath id="46b64ebe9e"><path d="M 0.144531 0.683594 L 23.855469 0.683594 L 23.855469 29.300781 L 0.144531 29.300781 Z M 0.144531 0.683594 " clip-rule="nonzero"/></clipPath><clipPath id="85d07e4500"><path d="M 16.457031 1.550781 C 15.035156 0.976562 13.539062 0.683594 12 0.683594 C 10.460938 0.683594 8.964844 0.976562 7.542969 1.550781 C 6.078125 2.144531 4.757812 3.019531 3.632812 4.148438 C 1.429688 6.355469 0.199219 9.285156 0.167969 12.402344 C 0.136719 15.511719 1.304688 18.464844 3.460938 20.707031 L 3.453125 20.710938 L 12 29.257812 L 20.5 20.757812 L 20.492188 20.753906 C 22.667969 18.511719 23.855469 15.558594 23.832031 12.433594 C 23.8125 9.300781 22.582031 6.363281 20.367188 4.148438 C 19.234375 3.019531 17.921875 2.144531 16.457031 1.550781 Z M 16.457031 1.550781 " clip-rule="nonzero"/></clipPath><clipPath id="61b4a64444"><rect x="0" width="24" y="0" height="30"/></clipPath><clipPath id="fe9b473696"><path d="M 4.261719 1.777344 L 25.738281 1.777344 L 25.738281 23.203125 L 4.261719 23.203125 Z M 4.261719 1.777344 " clip-rule="nonzero"/></clipPath><clipPath id="aa289abaed"><path d="M 14.996094 1.789062 C 9.089844 1.789062 4.300781 6.578125 4.300781 12.484375 C 4.300781 18.390625 9.089844 23.179688 14.996094 23.179688 C 20.902344 23.179688 25.691406 18.390625 25.691406 12.484375 C 25.691406 6.578125 20.902344 1.789062 14.996094 1.789062 Z M 14.996094 1.789062 " clip-rule="nonzero"/></clipPath><clipPath id="b0203a8a7f"><path d="M 0.261719 0.777344 L 21.738281 0.777344 L 21.738281 22.203125 L 0.261719 22.203125 Z M 0.261719 0.777344 " clip-rule="nonzero"/></clipPath><clipPath id="6670294de1"><path d="M 10.996094 0.789062 C 5.089844 0.789062 0.300781 5.578125 0.300781 11.484375 C 0.300781 17.390625 5.089844 22.179688 10.996094 22.179688 C 16.902344 22.179688 21.691406 17.390625 21.691406 11.484375 C 21.691406 5.578125 16.902344 0.789062 10.996094 0.789062 Z M 10.996094 0.789062 " clip-rule="nonzero"/></clipPath><clipPath id="e9b04344e8"><rect x="0" width="22" y="0" height="23"/></clipPath><clipPath id="bd0d56db2b"><path d="M 6.089844 5.773438 L 24 5.773438 L 24 19.992188 L 6.089844 19.992188 Z M 6.089844 5.773438 " clip-rule="nonzero"/></clipPath></defs><g clip-path="url(#173d404c46)"><g clip-path="url(#328106a1e1)"><g transform="matrix(1, 0, 0, 1, 3, 0.000000000000005773)"><g clip-path="url(#61b4a64444)"><g clip-path="url(#46b64ebe9e)"><g clip-path="url(#85d07e4500)"><path fill="#faab11" d="M 0.167969 0.683594 L 23.832031 0.683594 L 23.832031 29.25 L 0.167969 29.25 Z M 0.167969 0.683594 " fill-opacity="1" fill-rule="nonzero"/></g></g></g></g></g></g><g clip-path="url(#fe9b473696)"><g clip-path="url(#aa289abaed)"><g transform="matrix(1, 0, 0, 1, 4, 1)"><g clip-path="url(#e9b04344e8)"><g clip-path="url(#b0203a8a7f)"><g clip-path="url(#6670294de1)"><rect x="-10.6" width="43.2" fill="#ffffff" height="54.6048" y="-9.3424" fill-opacity="1"/></g></g></g></g></g></g><g clip-path="url(#bd0d56db2b)"><path fill="#1800ad" d="M 23.878906 11.519531 C 23.878906 11.464844 23.882812 11.414062 23.882812 11.363281 L 21.347656 11.363281 L 21.347656 8.960938 L 23.714844 8.960938 C 23.707031 8.910156 23.695312 8.855469 23.6875 8.804688 L 23.4375 8.804688 L 23.4375 7.894531 C 23.390625 7.761719 23.339844 7.636719 23.28125 7.515625 L 23.28125 8.804688 L 19.253906 8.804688 L 19.253906 6.402344 L 22.464844 6.402344 C 22.40625 6.351562 22.339844 6.296875 22.277344 6.246094 L 16.601562 6.246094 L 16.601562 6.117188 L 16.835938 6.117188 L 16.835938 5.773438 L 16.195312 5.773438 L 16.195312 6.117188 L 16.433594 6.117188 L 16.433594 6.246094 L 10.417969 6.246094 C 10.28125 6.296875 10.144531 6.351562 10.007812 6.402344 L 10.734375 6.402344 L 10.734375 7.683594 C 10.605469 7.660156 10.476562 7.648438 10.34375 7.652344 C 10.246094 7.441406 10.035156 7.296875 9.789062 7.296875 C 9.769531 7.296875 9.753906 7.296875 9.738281 7.300781 C 9.953125 7.320312 10.132812 7.464844 10.203125 7.660156 L 9.3125 7.710938 L 9.316406 7.804688 L 9.316406 7.945312 L 9.3125 8.035156 L 9.316406 8.035156 L 9.308594 8.101562 L 9.71875 8.140625 C 9.84375 8.152344 9.964844 8.179688 10.074219 8.21875 C 9.976562 8.320312 9.84375 8.378906 9.695312 8.378906 C 9.441406 8.378906 9.230469 8.207031 9.171875 7.972656 C 9.203125 8.289062 9.464844 8.535156 9.789062 8.535156 C 9.980469 8.535156 10.152344 8.441406 10.265625 8.300781 C 10.449219 8.398438 10.609375 8.53125 10.734375 8.6875 L 10.734375 8.804688 L 6.804688 8.804688 C 6.769531 8.855469 6.738281 8.90625 6.707031 8.960938 L 8.644531 8.960938 L 8.644531 11.363281 L 6.109375 11.363281 C 6.109375 11.417969 6.109375 11.46875 6.113281 11.519531 L 6.550781 11.519531 L 6.550781 13.921875 L 6.46875 13.921875 C 6.484375 13.972656 6.496094 14.027344 6.511719 14.078125 L 8.644531 14.078125 L 8.644531 16.480469 L 7.390625 16.480469 C 7.414062 16.53125 7.4375 16.582031 7.464844 16.636719 L 10.734375 16.636719 L 10.734375 19.125 L 10.890625 19.125 L 10.890625 16.632812 L 11.058594 16.632812 L 11.058594 17.195312 C 11.058594 18.089844 11.785156 18.816406 12.679688 18.816406 L 14.917969 18.816406 L 14.917969 19.125 L 15.074219 19.125 L 15.074219 18.816406 L 15.53125 18.816406 L 15.53125 20.027344 L 15.488281 20.027344 L 15.488281 20.246094 L 15.8125 20.246094 L 15.8125 20.027344 L 15.769531 20.027344 L 15.769531 19.3125 L 16.363281 19.609375 L 16.363281 20.027344 L 16.324219 20.027344 L 16.324219 20.246094 L 16.644531 20.246094 L 16.644531 20.027344 L 16.605469 20.027344 L 16.605469 18.816406 L 18.027344 18.816406 C 17.980469 19.035156 17.941406 19.183594 17.941406 19.1875 C 17.9375 19.203125 17.941406 19.222656 17.953125 19.234375 C 17.964844 19.25 17.980469 19.257812 17.992188 19.269531 C 17.765625 19.445312 17.097656 19.476562 17.335938 19.65625 C 17.597656 19.855469 17.898438 19.664062 17.898438 19.664062 L 18.066406 19.648438 L 18.066406 19.710938 L 18.363281 19.710938 C 18.363281 19.710938 18.402344 19.546875 18.382812 19.460938 C 18.378906 19.453125 18.378906 19.445312 18.375 19.4375 C 18.398438 19.4375 18.421875 19.441406 18.445312 19.441406 C 18.46875 19.441406 18.488281 19.429688 18.492188 19.410156 C 18.5 19.398438 18.972656 18.140625 18.800781 17.015625 C 18.808594 16.894531 18.839844 16.769531 18.886719 16.636719 L 19.097656 16.636719 L 19.097656 19.125 L 19.257812 19.125 L 19.257812 16.632812 L 19.484375 16.632812 C 19.523438 16.867188 19.558594 17.078125 19.59375 17.199219 C 19.613281 17.277344 19.625 17.355469 19.625 17.441406 C 19.628906 17.671875 19.652344 18.246094 19.71875 18.511719 C 19.800781 18.835938 19.769531 19.453125 19.769531 19.457031 C 19.769531 19.472656 19.773438 19.484375 19.785156 19.496094 C 19.789062 19.503906 19.796875 19.507812 19.804688 19.507812 C 19.769531 19.5625 19.738281 19.621094 19.761719 19.660156 C 19.804688 19.753906 20.390625 19.828125 20.3125 19.632812 C 20.296875 19.585938 20.277344 19.546875 20.261719 19.511719 C 20.273438 19.507812 20.285156 19.503906 20.296875 19.492188 C 20.304688 19.480469 20.308594 19.464844 20.304688 19.449219 C 20.304688 19.445312 20.246094 19.105469 20.304688 18.332031 C 20.34375 17.851562 20.300781 17.519531 20.253906 17.324219 C 20.230469 17.226562 20.222656 17.128906 20.222656 17.035156 C 20.222656 16.996094 20.226562 16.960938 20.230469 16.925781 L 20.230469 16.898438 C 20.238281 16.824219 20.25 16.734375 20.257812 16.632812 L 22.527344 16.632812 C 22.554688 16.582031 22.578125 16.53125 22.601562 16.476562 L 21.347656 16.476562 L 21.347656 14.074219 L 23.480469 14.074219 C 23.496094 14.023438 23.507812 13.972656 23.523438 13.917969 L 23.441406 13.917969 L 23.441406 11.519531 Z M 21.191406 8.960938 L 21.191406 11.363281 L 19.621094 11.363281 C 19.59375 11.292969 19.566406 11.199219 19.542969 11.09375 C 19.554688 11.035156 19.566406 10.957031 19.578125 10.871094 C 19.582031 10.863281 19.589844 10.851562 19.589844 10.84375 C 19.621094 10.757812 19.621094 10.605469 19.613281 10.472656 C 19.613281 10.453125 19.617188 10.429688 19.617188 10.410156 L 19.695312 10.398438 C 19.746094 10.390625 19.785156 10.34375 19.777344 10.292969 C 19.769531 10.238281 19.722656 10.203125 19.667969 10.207031 L 19.648438 10.210938 L 19.648438 10.203125 C 19.625 9.996094 19.515625 9.820312 19.363281 9.703125 C 19.210938 9.582031 19.011719 9.523438 18.804688 9.550781 C 18.390625 9.601562 18.097656 9.980469 18.148438 10.394531 L 18.148438 10.402344 L 17.847656 10.441406 C 17.792969 10.449219 17.753906 10.496094 17.761719 10.546875 C 17.769531 10.601562 17.816406 10.636719 17.871094 10.628906 L 18.328125 10.574219 C 18.355469 10.875 18.429688 11.234375 18.617188 11.363281 L 17.160156 11.363281 L 17.160156 8.960938 Z M 20.054688 11.578125 C 20.265625 11.636719 20.453125 11.777344 20.5625 11.96875 L 20.972656 12.679688 L 20.445312 12.96875 L 20.3125 12.679688 C 20.304688 12.652344 20.273438 12.640625 20.246094 12.652344 C 20.21875 12.660156 20.074219 12.746094 19.980469 13.277344 C 19.914062 13.652344 20.003906 14.164062 20.066406 14.445312 C 19.992188 14.460938 19.921875 14.476562 19.851562 14.488281 C 19.851562 14.488281 19.851562 14.484375 19.847656 14.484375 C 19.832031 14.480469 19.8125 14.484375 19.796875 14.496094 C 19.726562 14.503906 19.660156 14.511719 19.589844 14.515625 L 19.589844 14.507812 C 19.582031 14.46875 19.542969 14.449219 19.507812 14.457031 C 19.476562 14.464844 19.457031 14.492188 19.457031 14.523438 C 19.21875 14.527344 18.988281 14.503906 18.757812 14.453125 L 18.695312 13.40625 L 18.457031 12.523438 L 18.457031 12.964844 L 18.101562 12.890625 L 18.152344 12.210938 C 18.171875 11.914062 18.367188 11.660156 18.644531 11.558594 L 18.722656 11.527344 C 18.710938 11.589844 18.730469 11.648438 18.785156 11.6875 C 18.847656 11.734375 18.953125 11.753906 19.066406 11.753906 C 19.257812 11.753906 19.480469 11.695312 19.585938 11.613281 C 19.628906 11.574219 19.652344 11.53125 19.65625 11.488281 C 19.660156 11.496094 19.664062 11.507812 19.664062 11.515625 L 19.835938 11.515625 Z M 20.882812 15.007812 L 20.710938 14.984375 C 20.769531 14.691406 20.765625 14.453125 20.765625 14.179688 C 20.765625 13.964844 20.765625 13.742188 20.789062 13.457031 C 20.792969 13.441406 20.785156 13.429688 20.777344 13.417969 C 20.707031 13.335938 20.597656 13.152344 20.535156 13.039062 L 20.992188 12.789062 C 21.054688 12.894531 21.144531 13.089844 21.195312 13.378906 C 21.277344 13.835938 20.953125 14.800781 20.882812 15.007812 Z M 20.085938 13.921875 C 20.058594 13.710938 20.050781 13.484375 20.085938 13.296875 C 20.140625 12.992188 20.207031 12.851562 20.25 12.792969 L 20.371094 13.066406 C 20.375 13.078125 20.386719 13.089844 20.402344 13.09375 C 20.414062 13.097656 20.429688 13.097656 20.441406 13.089844 C 20.5 13.191406 20.605469 13.375 20.683594 13.46875 C 20.667969 13.636719 20.660156 13.785156 20.660156 13.921875 Z M 19.375 15.292969 C 19.363281 15.28125 19.351562 15.273438 19.339844 15.273438 L 19.347656 15.160156 C 19.363281 15.175781 19.378906 15.1875 19.394531 15.203125 C 19.386719 15.230469 19.378906 15.261719 19.375 15.292969 Z M 18.203125 17.054688 C 18.242188 17.429688 18.1875 17.910156 18.117188 18.324219 L 16.605469 18.191406 L 16.605469 16.632812 L 18.199219 16.632812 C 18.1875 16.785156 18.1875 16.929688 18.203125 17.054688 Z M 11.199219 11.519531 L 11.375 11.519531 L 11.382812 13.917969 L 11.195312 13.917969 L 11.195312 11.519531 Z M 11.058594 13.921875 L 10.890625 13.921875 L 10.890625 11.519531 L 11.058594 11.519531 Z M 10.890625 8.667969 L 10.890625 8.445312 C 11.003906 8.546875 11.101562 8.671875 11.175781 8.804688 L 10.980469 8.804688 C 10.953125 8.757812 10.925781 8.710938 10.890625 8.667969 Z M 10.167969 7.941406 C 10.183594 7.941406 10.203125 7.941406 10.222656 7.945312 C 10.222656 7.945312 10.222656 7.949219 10.21875 7.953125 C 10.203125 7.945312 10.183594 7.941406 10.167969 7.941406 Z M 10.171875 8.082031 C 10.167969 8.089844 10.164062 8.097656 10.160156 8.105469 C 10.121094 8.089844 10.078125 8.074219 10.039062 8.0625 C 10.082031 8.066406 10.128906 8.074219 10.171875 8.082031 Z M 10.402344 7.960938 C 10.519531 7.980469 10.628906 8.011719 10.734375 8.054688 L 10.734375 8.152344 C 10.628906 8.089844 10.519531 8.035156 10.398438 7.996094 C 10.398438 7.984375 10.398438 7.972656 10.402344 7.960938 Z M 10.890625 8.132812 C 11.160156 8.285156 11.378906 8.523438 11.507812 8.804688 L 11.332031 8.804688 C 11.226562 8.59375 11.074219 8.40625 10.890625 8.261719 Z M 16.105469 9.015625 L 16.136719 8.960938 L 16.46875 8.960938 L 16.46875 9.113281 L 16.5625 9.113281 L 16.5625 8.960938 L 16.894531 8.960938 L 16.929688 9.015625 L 17.007812 8.96875 L 17.007812 11.363281 L 15.769531 11.363281 L 15.769531 10.519531 L 15.808594 10.519531 L 15.808594 10.300781 L 15.488281 10.300781 L 15.488281 10.519531 L 15.527344 10.519531 L 15.527344 11.363281 L 12.984375 11.363281 L 12.984375 8.960938 L 16.027344 8.960938 L 16.023438 8.96875 Z M 19.164062 10.464844 L 19.167969 10.609375 L 19.230469 10.609375 C 19.230469 10.609375 19.230469 10.511719 19.261719 10.453125 L 19.351562 10.445312 C 19.402344 10.5 19.429688 10.628906 19.398438 10.679688 C 19.359375 10.746094 19.359375 10.765625 19.359375 10.789062 C 19.359375 10.808594 19.546875 11.460938 19.550781 11.472656 C 19.554688 11.480469 19.5625 11.5 19.519531 11.535156 C 19.378906 11.648438 18.964844 11.695312 18.847656 11.609375 C 18.828125 11.59375 18.816406 11.574219 18.828125 11.539062 C 18.835938 11.515625 18.871094 11.410156 18.878906 11.378906 C 18.882812 11.363281 18.878906 11.34375 18.871094 11.332031 C 18.859375 11.320312 18.84375 11.3125 18.828125 11.3125 C 18.8125 11.3125 18.796875 11.316406 18.777344 11.3125 C 18.5625 11.304688 18.46875 10.914062 18.4375 10.558594 Z M 16.363281 18.359375 L 15.867188 18.332031 L 15.765625 18.28125 L 15.765625 18.253906 L 16.359375 18.308594 L 16.359375 18.359375 Z M 16.605469 18.328125 L 18.042969 18.457031 L 16.605469 18.371094 Z M 11.507812 9.527344 C 11.507812 9.328125 11.46875 9.136719 11.402344 8.960938 L 11.570312 8.960938 C 11.617188 9.101562 11.640625 9.253906 11.644531 9.414062 L 11.65625 11.363281 L 11.515625 11.363281 Z M 11.660156 11.519531 L 11.675781 13.917969 L 11.523438 13.917969 L 11.515625 11.519531 Z M 11.796875 11.519531 L 11.925781 11.519531 L 11.964844 13.917969 L 11.816406 13.917969 Z M 11.96875 14.074219 L 12.011719 16.464844 C 12.011719 16.46875 12.011719 16.472656 12.011719 16.476562 L 11.832031 16.476562 L 11.816406 14.074219 Z M 16.363281 13.613281 L 16.363281 13.65625 C 16.359375 13.648438 16.351562 13.644531 16.34375 13.632812 C 16.335938 13.613281 16.332031 13.59375 16.328125 13.582031 Z M 16.25 13.675781 C 16.277344 13.730469 16.316406 13.773438 16.363281 13.796875 L 16.363281 13.921875 L 16.121094 13.921875 L 15.769531 13.566406 L 15.769531 12.984375 L 16.246094 13.488281 C 16.222656 13.53125 16.214844 13.589844 16.25 13.675781 Z M 16.363281 16.082031 L 15.769531 15.785156 L 15.769531 15.152344 L 16.363281 15.449219 Z M 16.363281 17.746094 L 15.769531 17.449219 L 15.769531 16.816406 L 16.363281 17.113281 Z M 15.527344 18.09375 L 15.074219 18.050781 L 15.074219 16.632812 L 15.527344 16.632812 Z M 15.074219 13.210938 L 15.53125 13.667969 L 15.53125 13.921875 L 15.074219 13.921875 Z M 15.769531 13.90625 L 15.78125 13.921875 L 15.769531 13.921875 Z M 15.9375 14.074219 L 16.363281 14.5 L 16.363281 15.246094 L 15.769531 14.953125 L 15.769531 14.074219 Z M 16.363281 14.160156 L 16.277344 14.074219 L 16.363281 14.074219 Z M 15.527344 13.328125 L 15.195312 12.996094 L 15.074219 13.117188 L 15.074219 11.519531 L 15.53125 11.519531 L 15.53125 13.328125 Z M 15.527344 14.074219 L 15.527344 16.476562 L 12.984375 16.476562 L 12.984375 14.074219 Z M 14.917969 16.632812 L 14.917969 18.039062 L 13.5 17.914062 C 12.800781 17.851562 12.253906 17.316406 12.164062 16.636719 L 14.917969 16.636719 Z M 12.824219 16.476562 L 12.148438 16.476562 C 12.148438 16.472656 12.148438 16.46875 12.148438 16.460938 L 12.105469 14.074219 L 12.824219 14.074219 Z M 12.023438 16.632812 C 12.113281 17.386719 12.714844 17.980469 13.484375 18.050781 L 14.917969 18.179688 L 14.917969 18.273438 L 13.230469 18.175781 C 12.453125 18.132812 11.839844 17.484375 11.832031 16.707031 L 11.832031 16.632812 Z M 15.074219 18.195312 L 15.53125 18.234375 L 15.53125 18.3125 L 15.074219 18.285156 Z M 15.769531 18.117188 L 15.769531 17.648438 L 16.363281 17.945312 L 16.363281 18.167969 Z M 16.363281 16.914062 L 15.804688 16.632812 L 16.363281 16.632812 Z M 15.769531 16.476562 L 15.769531 15.984375 L 16.363281 16.28125 L 16.363281 16.480469 L 15.769531 16.480469 Z M 16.605469 14.074219 L 17.003906 14.074219 L 17.003906 16.476562 L 16.605469 16.476562 Z M 16.605469 13.921875 L 16.605469 13.804688 C 16.742188 13.765625 16.878906 13.683594 16.949219 13.628906 C 17.097656 13.601562 17.273438 13.609375 17.496094 13.617188 C 17.652344 13.625 17.832031 13.632812 18.035156 13.628906 L 18.210938 13.605469 C 18.320312 13.589844 18.417969 13.539062 18.488281 13.464844 C 18.511719 13.601562 18.539062 13.757812 18.5625 13.921875 Z M 18.464844 13.328125 C 18.410156 13.417969 18.3125 13.484375 18.203125 13.503906 L 18.03125 13.523438 C 17.832031 13.527344 17.65625 13.523438 17.5 13.515625 C 17.277344 13.507812 17.082031 13.5 16.921875 13.53125 C 16.914062 13.53125 16.90625 13.535156 16.898438 13.539062 C 16.816406 13.601562 16.707031 13.664062 16.605469 13.695312 L 16.605469 13.519531 L 16.542969 13.453125 C 16.558594 13.453125 16.574219 13.453125 16.589844 13.449219 C 16.617188 13.449219 16.640625 13.425781 16.640625 13.398438 C 16.640625 13.371094 16.617188 13.347656 16.589844 13.347656 C 16.554688 13.347656 16.503906 13.339844 16.496094 13.300781 C 16.53125 13.292969 16.644531 13.300781 16.890625 13.375 C 16.894531 13.375 16.898438 13.375 16.90625 13.375 C 17.050781 13.371094 17.195312 13.324219 17.351562 13.273438 C 17.570312 13.199219 17.800781 13.125 18.058594 13.160156 C 18.074219 13.164062 18.085938 13.160156 18.097656 13.152344 C 18.109375 13.140625 18.117188 13.128906 18.117188 13.117188 L 18.128906 13.007812 L 18.414062 13.066406 C 18.421875 13.113281 18.441406 13.207031 18.464844 13.328125 Z M 18.050781 12.207031 L 17.996094 12.933594 C 17.996094 12.953125 18.007812 12.972656 18.027344 12.980469 L 18.019531 13.050781 C 17.757812 13.027344 17.527344 13.105469 17.316406 13.175781 C 17.171875 13.222656 17.035156 13.265625 16.910156 13.273438 C 16.511719 13.152344 16.449219 13.203125 16.421875 13.222656 C 16.398438 13.238281 16.390625 13.261719 16.390625 13.292969 L 15.769531 12.632812 L 15.769531 11.519531 L 18.492188 11.519531 C 18.242188 11.660156 18.070312 11.914062 18.050781 12.207031 Z M 17.007812 8.96875 L 17.003906 8.960938 L 17.007812 8.960938 Z M 14.917969 11.519531 L 14.917969 13.917969 L 12.105469 13.917969 L 12.0625 11.519531 Z M 12.824219 11.363281 L 12.0625 11.363281 L 12.023438 9.246094 C 12.023438 9.148438 12.011719 9.054688 11.992188 8.964844 L 12.824219 8.964844 Z M 11.886719 9.246094 L 11.921875 11.363281 L 11.796875 11.363281 L 11.785156 9.410156 C 11.78125 9.253906 11.757812 9.105469 11.71875 8.960938 L 11.855469 8.960938 C 11.875 9.054688 11.886719 9.148438 11.886719 9.246094 Z M 11.660156 8.804688 C 11.511719 8.445312 11.238281 8.152344 10.890625 7.976562 L 10.890625 7.871094 C 11.082031 7.9375 11.257812 8.042969 11.414062 8.183594 C 11.601562 8.355469 11.738281 8.570312 11.8125 8.804688 Z M 11.253906 8.960938 C 11.328125 9.136719 11.367188 9.328125 11.367188 9.53125 L 11.375 11.363281 L 11.195312 11.363281 L 11.195312 9.617188 C 11.195312 9.382812 11.144531 9.164062 11.058594 8.960938 Z M 11.382812 14.074219 L 11.390625 16.476562 L 11.195312 16.476562 L 11.195312 14.074219 Z M 11.523438 14.074219 L 11.675781 14.074219 L 11.691406 16.476562 L 11.53125 16.476562 Z M 11.695312 16.632812 L 11.695312 16.707031 C 11.699219 17.558594 12.371094 18.265625 13.222656 18.316406 L 14.917969 18.414062 L 14.917969 18.472656 L 12.972656 18.410156 C 12.167969 18.386719 11.535156 17.738281 11.535156 16.9375 L 11.53125 16.632812 Z M 15.074219 18.421875 L 15.53125 18.449219 L 15.53125 18.488281 L 15.074219 18.476562 Z M 15.769531 18.480469 L 15.804688 18.5 L 15.769531 18.496094 Z M 16.105469 18.648438 L 16.164062 18.679688 L 15.769531 18.679688 L 15.769531 18.636719 Z M 16.234375 18.511719 L 16.183594 18.488281 L 16.363281 18.5 L 16.363281 18.515625 Z M 16.605469 18.511719 L 16.988281 18.535156 L 16.605469 18.523438 Z M 18.210938 16.476562 L 17.164062 16.476562 L 17.164062 14.074219 L 18.582031 14.074219 C 18.609375 14.289062 18.625 14.488281 18.617188 14.628906 C 18.585938 14.726562 18.292969 15.683594 18.210938 16.476562 Z M 19.664062 14.835938 L 19.621094 14.640625 L 19.75 14.640625 L 19.703125 14.839844 C 19.691406 14.835938 19.679688 14.835938 19.664062 14.835938 Z M 19.886719 14.640625 L 20.027344 14.640625 C 20.050781 14.691406 20.074219 14.75 20.09375 14.8125 C 20.046875 14.828125 19.996094 14.832031 19.945312 14.835938 C 19.910156 14.839844 19.875 14.839844 19.839844 14.839844 Z M 19.496094 14.695312 L 19.523438 14.828125 C 19.5 14.824219 19.476562 14.820312 19.453125 14.8125 C 19.464844 14.773438 19.480469 14.734375 19.496094 14.695312 Z M 19.453125 14.816406 C 19.5 14.839844 19.550781 14.851562 19.601562 14.855469 C 19.660156 14.863281 19.714844 14.867188 19.773438 14.867188 C 19.832031 14.867188 19.886719 14.863281 19.945312 14.855469 C 19.996094 14.851562 20.046875 14.839844 20.09375 14.816406 C 20.128906 14.933594 20.152344 15.050781 20.121094 15.089844 C 20.078125 15.148438 19.9375 15.1875 19.773438 15.1875 C 19.613281 15.1875 19.472656 15.148438 19.429688 15.089844 C 19.398438 15.050781 19.414062 14.941406 19.453125 14.816406 Z M 20.664062 15.082031 L 20.878906 15.113281 C 20.867188 15.214844 20.835938 15.320312 20.785156 15.355469 C 20.722656 15.402344 20.597656 15.410156 20.53125 15.375 C 20.492188 15.355469 20.492188 15.335938 20.492188 15.328125 C 20.488281 15.269531 20.535156 15.222656 20.585938 15.171875 C 20.613281 15.144531 20.640625 15.113281 20.664062 15.082031 Z M 15.074219 6.402344 L 16.433594 6.402344 L 16.433594 7.082031 C 16.351562 7.117188 16.292969 7.195312 16.292969 7.289062 L 16.292969 7.398438 C 16.292969 7.578125 16.21875 7.746094 16.105469 7.882812 C 16.003906 8.003906 15.953125 8.171875 15.996094 8.347656 C 16.039062 8.546875 16.199219 8.707031 16.398438 8.75 C 16.746094 8.824219 17.050781 8.5625 17.050781 8.226562 C 17.050781 8.089844 17 7.964844 16.917969 7.871094 C 16.800781 7.742188 16.738281 7.574219 16.738281 7.398438 L 16.738281 7.289062 C 16.738281 7.195312 16.679688 7.117188 16.601562 7.082031 L 16.601562 6.402344 L 19.097656 6.402344 L 19.097656 8.804688 L 16.914062 8.804688 L 16.871094 8.726562 L 16.789062 8.773438 L 16.804688 8.800781 L 16.226562 8.800781 L 16.246094 8.773438 L 16.164062 8.726562 L 16.121094 8.804688 L 15.078125 8.804688 L 15.078125 6.402344 Z M 10.890625 6.402344 L 14.917969 6.402344 L 14.917969 8.804688 L 11.957031 8.804688 C 11.875 8.53125 11.722656 8.285156 11.507812 8.082031 C 11.328125 7.914062 11.117188 7.796875 10.890625 7.726562 Z M 10.734375 7.824219 L 10.734375 7.90625 C 10.628906 7.867188 10.511719 7.835938 10.394531 7.820312 C 10.394531 7.8125 10.394531 7.800781 10.394531 7.789062 C 10.507812 7.789062 10.625 7.800781 10.734375 7.824219 Z M 10.230469 7.804688 C 10.207031 7.800781 10.183594 7.800781 10.164062 7.800781 C 10.160156 7.800781 10.160156 7.800781 10.15625 7.800781 L 10.230469 7.796875 C 10.230469 7.796875 10.230469 7.800781 10.230469 7.804688 Z M 10.339844 8.1875 C 10.351562 8.167969 10.359375 8.148438 10.363281 8.132812 C 10.5 8.175781 10.621094 8.238281 10.734375 8.320312 L 10.734375 8.484375 C 10.621094 8.363281 10.488281 8.265625 10.339844 8.1875 Z M 8.800781 8.960938 L 10.90625 8.960938 C 11.003906 9.160156 11.058594 9.382812 11.058594 9.617188 L 11.058594 11.363281 L 8.796875 11.363281 L 8.796875 8.960938 Z M 6.707031 13.921875 L 6.707031 11.519531 L 10.734375 11.519531 L 10.734375 13.917969 L 6.707031 13.917969 Z M 8.800781 16.476562 L 8.800781 14.074219 L 11.058594 14.074219 L 11.058594 16.476562 Z M 12.679688 18.679688 C 11.863281 18.679688 11.199219 18.015625 11.199219 17.199219 L 11.199219 16.636719 L 11.394531 16.636719 L 11.394531 16.9375 C 11.398438 17.816406 12.089844 18.527344 12.96875 18.550781 L 14.917969 18.613281 L 14.917969 18.679688 Z M 15.074219 18.679688 L 15.074219 18.617188 L 15.53125 18.628906 L 15.53125 18.679688 Z M 15.769531 19.113281 L 15.769531 18.816406 L 16.363281 18.816406 L 16.363281 19.410156 Z M 16.605469 18.660156 L 17.113281 18.675781 L 16.605469 18.675781 Z M 18.421875 18.816406 L 18.421875 18.679688 L 18.425781 18.578125 L 18.421875 18.578125 L 18.425781 18.480469 L 18.417969 18.480469 L 18.429688 18.351562 L 18.222656 18.335938 C 18.292969 17.917969 18.34375 17.429688 18.304688 17.046875 C 18.230469 16.3125 18.632812 14.933594 18.703125 14.691406 L 18.890625 14.691406 C 19.046875 14.722656 19.203125 14.734375 19.371094 14.734375 C 19.324219 14.859375 19.289062 15.023438 19.328125 15.117188 L 18.9375 15.738281 L 19.160156 15.621094 C 18.753906 16.207031 18.519531 17.203125 18.519531 17.203125 L 18.648438 17.050781 L 18.609375 17.398438 L 18.707031 17.117188 C 18.722656 17.226562 18.730469 17.335938 18.730469 17.445312 C 18.589844 18.085938 18.503906 18.75 18.285156 19.320312 C 18.191406 19.296875 18.113281 19.253906 18.046875 19.1875 C 18.0625 19.128906 18.09375 18.996094 18.132812 18.816406 Z M 18.949219 16.476562 C 18.988281 16.378906 19.039062 16.273438 19.089844 16.167969 C 19.175781 15.984375 19.265625 15.792969 19.324219 15.605469 C 19.355469 15.832031 19.40625 16.164062 19.457031 16.476562 Z M 19.726562 17.4375 C 19.726562 17.34375 19.710938 17.257812 19.691406 17.171875 C 19.613281 16.863281 19.476562 15.949219 19.417969 15.53125 C 19.554688 15.632812 19.90625 15.640625 20.082031 15.558594 C 20.082031 15.929688 20.058594 16.375 19.988281 16.8125 C 19.988281 16.8125 20.148438 16.371094 20.160156 16.371094 C 20.160156 16.398438 19.941406 17.199219 19.988281 17.324219 L 20.117188 17.03125 C 20.117188 17.03125 20.117188 17.035156 20.117188 17.035156 C 20.117188 17.09375 20.125 17.160156 20.128906 17.226562 C 20.089844 17.445312 20.054688 17.691406 20.0625 17.828125 C 20.078125 18.066406 20.097656 19.054688 20.101562 19.367188 L 19.890625 19.402344 C 19.890625 19.402344 19.886719 19.402344 19.882812 19.40625 L 19.875 19.40625 C 19.878906 19.246094 19.886719 18.769531 19.816406 18.484375 C 19.75 18.222656 19.734375 17.617188 19.726562 17.4375 Z M 20.265625 16.476562 C 20.308594 15.914062 20.339844 15.105469 20.21875 14.625 C 20.21875 14.621094 20.152344 14.378906 20.105469 14.074219 L 20.65625 14.074219 C 20.65625 14.109375 20.65625 14.144531 20.65625 14.179688 C 20.660156 14.453125 20.660156 14.691406 20.601562 14.980469 C 20.585938 15.023438 20.550781 15.058594 20.511719 15.097656 C 20.449219 15.15625 20.378906 15.226562 20.382812 15.332031 C 20.382812 15.390625 20.417969 15.441406 20.480469 15.46875 C 20.519531 15.492188 20.578125 15.5 20.632812 15.5 C 20.707031 15.5 20.789062 15.480469 20.839844 15.441406 C 20.976562 15.347656 20.988281 15.058594 20.992188 15 C 21.035156 14.875 21.117188 14.625 21.1875 14.34375 L 21.1875 16.476562 Z M 23.28125 13.921875 L 21.277344 13.921875 C 21.3125 13.710938 21.328125 13.511719 21.296875 13.363281 C 21.242188 13.058594 21.148438 12.851562 21.082031 12.738281 C 21.085938 12.730469 21.089844 12.726562 21.089844 12.71875 C 21.09375 12.703125 21.09375 12.6875 21.085938 12.675781 L 20.652344 11.917969 C 20.550781 11.742188 20.386719 11.601562 20.199219 11.519531 L 23.28125 11.519531 Z M 23.28125 13.921875 " fill-opacity="1" fill-rule="nonzero"/></g><path fill="#1800ad" d="M 17.140625 8.164062 L 17.417969 8.164062 L 17.417969 8.257812 L 17.140625 8.257812 Z M 17.140625 8.164062 " fill-opacity="1" fill-rule="nonzero"/><path fill="#1800ad" d="M 15.613281 8.164062 L 15.886719 8.164062 L 15.886719 8.257812 L 15.613281 8.257812 Z M 15.613281 8.164062 " fill-opacity="1" fill-rule="nonzero"/><path fill="#1800ad" d="M 15.710938 8.621094 L 15.949219 8.484375 L 15.996094 8.566406 L 15.757812 8.703125 Z M 15.710938 8.621094 " fill-opacity="1" fill-rule="nonzero"/><path fill="#1800ad" d="M 17.035156 8.566406 L 17.082031 8.484375 L 17.320312 8.621094 L 17.273438 8.703125 Z M 17.035156 8.566406 " fill-opacity="1" fill-rule="nonzero"/></svg>