<svg xmlns="http://www.w3.org/2000/svg" xmlns:xlink="http://www.w3.org/1999/xlink" width="40" zoomAndPan="magnify" viewBox="0 0 30 37.92" height="40" preserveAspectRatio="xMidYMid meet" version="1.0"><defs><clipPath id="468c883a3a"><path d="M 3.113281 0.683594 L 26.886719 0.683594 L 26.886719 29.300781 L 3.113281 29.300781 Z M 3.113281 0.683594 " clip-rule="nonzero"/></clipPath><clipPath id="78df5b0155"><path d="M 19.457031 1.550781 C 18.035156 0.976562 16.539062 0.683594 15 0.683594 C 13.460938 0.683594 11.964844 0.976562 10.542969 1.550781 C 9.078125 2.144531 7.757812 3.019531 6.632812 4.148438 C 4.429688 6.355469 3.199219 9.285156 3.167969 12.402344 C 3.136719 15.511719 4.304688 18.464844 6.460938 20.707031 L 6.453125 20.710938 L 15 29.257812 L 23.5 20.757812 L 23.492188 20.753906 C 25.667969 18.511719 26.855469 15.558594 26.832031 12.433594 C 26.8125 9.300781 25.582031 6.363281 23.367188 4.148438 C 22.234375 3.019531 20.921875 2.144531 19.457031 1.550781 Z M 19.457031 1.550781 " clip-rule="nonzero"/></clipPath><clipPath id="c128617f8d"><path d="M 0.144531 0.683594 L 23.855469 0.683594 L 23.855469 29.300781 L 0.144531 29.300781 Z M 0.144531 0.683594 " clip-rule="nonzero"/></clipPath><clipPath id="9a5d35bebe"><path d="M 16.457031 1.550781 C 15.035156 0.976562 13.539062 0.683594 12 0.683594 C 10.460938 0.683594 8.964844 0.976562 7.542969 1.550781 C 6.078125 2.144531 4.757812 3.019531 3.632812 4.148438 C 1.429688 6.355469 0.199219 9.285156 0.167969 12.402344 C 0.136719 15.511719 1.304688 18.464844 3.460938 20.707031 L 3.453125 20.710938 L 12 29.257812 L 20.5 20.757812 L 20.492188 20.753906 C 22.667969 18.511719 23.855469 15.558594 23.832031 12.433594 C 23.8125 9.300781 22.582031 6.363281 20.367188 4.148438 C 19.234375 3.019531 17.921875 2.144531 16.457031 1.550781 Z M 16.457031 1.550781 " clip-rule="nonzero"/></clipPath><clipPath id="b9debfd45c"><rect x="0" width="24" y="0" height="30"/></clipPath><clipPath id="ff76383dc0"><path d="M 4.261719 1.777344 L 25.738281 1.777344 L 25.738281 23.203125 L 4.261719 23.203125 Z M 4.261719 1.777344 " clip-rule="nonzero"/></clipPath><clipPath id="c2e4d06a86"><path d="M 14.996094 1.789062 C 9.089844 1.789062 4.300781 6.578125 4.300781 12.484375 C 4.300781 18.390625 9.089844 23.179688 14.996094 23.179688 C 20.902344 23.179688 25.691406 18.390625 25.691406 12.484375 C 25.691406 6.578125 20.902344 1.789062 14.996094 1.789062 Z M 14.996094 1.789062 " clip-rule="nonzero"/></clipPath><clipPath id="0cccb6dea2"><path d="M 0.261719 0.777344 L 21.738281 0.777344 L 21.738281 22.203125 L 0.261719 22.203125 Z M 0.261719 0.777344 " clip-rule="nonzero"/></clipPath><clipPath id="0d467bd842"><path d="M 10.996094 0.789062 C 5.089844 0.789062 0.300781 5.578125 0.300781 11.484375 C 0.300781 17.390625 5.089844 22.179688 10.996094 22.179688 C 16.902344 22.179688 21.691406 17.390625 21.691406 11.484375 C 21.691406 5.578125 16.902344 0.789062 10.996094 0.789062 Z M 10.996094 0.789062 " clip-rule="nonzero"/></clipPath><clipPath id="7d2440e29e"><rect x="0" width="22" y="0" height="23"/></clipPath><clipPath id="9facb31e3a"><path d="M 10.542969 3.886719 L 19.527344 3.886719 L 19.527344 21.101562 L 10.542969 21.101562 Z M 10.542969 3.886719 " clip-rule="nonzero"/></clipPath></defs><g clip-path="url(#468c883a3a)"><g clip-path="url(#78df5b0155)"><g transform="matrix(1, 0, 0, 1, 3, 0.000000000000005773)"><g clip-path="url(#b9debfd45c)"><g clip-path="url(#c128617f8d)"><g clip-path="url(#9a5d35bebe)"><path fill="#faab11" d="M 0.167969 0.683594 L 23.832031 0.683594 L 23.832031 29.25 L 0.167969 29.25 Z M 0.167969 0.683594 " fill-opacity="1" fill-rule="nonzero"/></g></g></g></g></g></g><g clip-path="url(#ff76383dc0)"><g clip-path="url(#c2e4d06a86)"><g transform="matrix(1, 0, 0, 1, 4, 1)"><g clip-path="url(#7d2440e29e)"><g clip-path="url(#0cccb6dea2)"><g clip-path="url(#0d467bd842)"><rect x="-10.6" width="43.2" fill="#ffffff" height="54.6048" y="-9.3424" fill-opacity="1"/></g></g></g></g></g></g><g clip-path="url(#9facb31e3a)"><path fill="#1800ad" d="M 19.390625 20.394531 C 19.382812 20.382812 19.359375 20.382812 19.351562 20.382812 C 19.34375 20.382812 18.609375 18.511719 18.609375 18.511719 L 18.164062 17.40625 C 18.164062 17.40625 18.164062 17.390625 18.164062 17.386719 C 18.164062 17.382812 18.164062 17.363281 18.164062 17.355469 C 18.160156 17.351562 18.167969 16.871094 18.179688 16.703125 C 18.195312 16.535156 18.214844 16.1875 18.214844 16.1875 C 18.214844 16.1875 18.246094 16.199219 18.261719 16.207031 C 18.277344 16.214844 18.335938 16.179688 18.445312 16.101562 C 18.558594 16.023438 18.628906 15.902344 18.632812 15.894531 C 18.636719 15.882812 18.605469 15.800781 18.566406 15.738281 C 18.527344 15.675781 18.449219 15.511719 18.402344 15.429688 C 18.359375 15.347656 18.363281 15.386719 18.351562 15.355469 C 18.339844 15.324219 18.296875 15.300781 18.285156 15.289062 C 18.269531 15.277344 18.230469 15.25 18.222656 15.242188 C 18.214844 15.234375 18.234375 15.011719 18.234375 14.875 C 18.234375 14.738281 18.171875 14.121094 18.15625 14.066406 C 18.144531 14.007812 18.109375 13.96875 18.089844 13.929688 C 18.074219 13.890625 18.066406 13.882812 18.085938 13.839844 C 18.101562 13.792969 18.117188 13.785156 18.160156 13.6875 C 18.207031 13.59375 18.433594 12.644531 18.4375 12.621094 C 18.441406 12.597656 18.457031 12.546875 18.460938 12.460938 C 18.464844 12.371094 18.429688 12.367188 18.445312 12.296875 C 18.460938 12.222656 18.523438 12.105469 18.554688 12.046875 C 18.589844 11.988281 18.601562 11.964844 18.695312 11.71875 C 18.785156 11.480469 18.878906 11.121094 18.90625 11.003906 C 18.988281 10.984375 19.074219 10.949219 19.140625 10.914062 C 19.296875 10.832031 19.269531 10.765625 19.308594 10.546875 C 19.34375 10.328125 19.289062 10.355469 19.269531 10.207031 C 19.253906 10.0625 19.214844 9.960938 19.214844 9.894531 C 19.214844 9.832031 19.160156 9.667969 19.160156 9.667969 C 19.160156 9.667969 19.214844 9.566406 19.214844 9.519531 C 19.214844 9.472656 19.160156 9.347656 18.832031 9.320312 C 18.820312 9.316406 18.808594 9.316406 18.796875 9.316406 L 18.796875 9.136719 C 18.796875 9.113281 18.777344 9.089844 18.75 9.089844 C 18.722656 9.089844 18.703125 9.113281 18.703125 9.136719 L 18.703125 9.324219 C 18.703125 9.324219 18.699219 9.324219 18.699219 9.324219 L 18.699219 8.960938 C 18.699219 8.933594 18.679688 8.910156 18.652344 8.910156 C 18.625 8.910156 18.605469 8.933594 18.605469 8.960938 L 18.605469 9.042969 C 18.605469 9.015625 18.582031 8.996094 18.558594 8.996094 C 18.53125 8.996094 18.511719 9.015625 18.511719 9.042969 L 18.511719 9.386719 C 18.492188 9.394531 18.476562 9.402344 18.460938 9.410156 C 18.40625 9.285156 18.34375 9.144531 18.308594 9.078125 C 18.230469 8.945312 18.046875 8.351562 18.023438 8.1875 C 17.996094 8.023438 17.84375 7.492188 17.828125 7.359375 C 17.816406 7.226562 17.832031 7.191406 17.816406 7.058594 C 17.800781 6.929688 17.636719 6.527344 17.625 6.484375 C 17.617188 6.445312 17.582031 6.386719 17.519531 6.300781 C 17.453125 6.210938 17.242188 6.003906 17.191406 5.945312 C 17.140625 5.886719 17.0625 5.957031 17.054688 5.953125 C 17.046875 5.953125 17.042969 5.945312 17.027344 5.910156 C 17.007812 5.878906 17.007812 5.871094 16.964844 5.828125 C 16.925781 5.785156 16.914062 5.800781 16.890625 5.800781 C 16.867188 5.800781 16.8125 5.8125 16.808594 5.808594 C 16.804688 5.804688 16.792969 5.78125 16.78125 5.757812 C 16.765625 5.734375 16.78125 5.730469 16.78125 5.710938 C 16.78125 5.691406 16.769531 5.679688 16.746094 5.65625 C 16.722656 5.628906 16.710938 5.609375 16.707031 5.597656 C 16.703125 5.582031 16.714844 5.589844 16.730469 5.582031 C 16.746094 5.578125 16.835938 5.402344 16.839844 5.398438 C 16.839844 5.394531 16.820312 5.394531 16.816406 5.382812 C 16.816406 5.367188 16.839844 5.378906 16.851562 5.378906 C 16.859375 5.375 16.914062 5.390625 16.941406 5.398438 C 16.964844 5.410156 17.039062 5.449219 17.046875 5.445312 C 17.054688 5.441406 16.972656 5.363281 16.957031 5.34375 C 16.945312 5.324219 17 5.230469 17.050781 5.089844 C 17.101562 4.949219 17.125 4.589844 17.078125 4.445312 C 17.027344 4.300781 16.902344 4.214844 16.722656 4.074219 C 16.542969 3.933594 16.210938 3.902344 15.996094 3.914062 C 15.777344 3.925781 15.636719 4.027344 15.527344 4.152344 C 15.417969 4.28125 15.308594 4.625 15.308594 4.625 C 15.308594 4.625 14.976562 4.585938 14.933594 4.59375 C 14.890625 4.597656 14.910156 4.65625 15.015625 4.710938 C 15.121094 4.765625 15.378906 4.820312 15.378906 4.820312 C 15.378906 4.820312 15.363281 4.867188 15.34375 4.902344 C 15.328125 4.9375 15.292969 4.976562 15.269531 5.03125 C 15.242188 5.085938 15.292969 5.117188 15.300781 5.132812 C 15.304688 5.152344 15.300781 5.152344 15.273438 5.199219 C 15.25 5.246094 15.09375 5.363281 15.078125 5.390625 C 15.058594 5.417969 15.066406 5.449219 15.117188 5.480469 C 15.167969 5.511719 15.203125 5.519531 15.203125 5.527344 C 15.207031 5.539062 15.171875 5.605469 15.160156 5.621094 C 15.148438 5.632812 15.136719 5.65625 15.15625 5.679688 C 15.171875 5.707031 15.273438 5.757812 15.273438 5.757812 L 15.199219 5.757812 C 15.199219 5.757812 15.101562 5.757812 15.0625 5.757812 C 15.019531 5.761719 14.964844 5.730469 14.902344 5.71875 C 14.839844 5.707031 14.542969 5.609375 14.398438 5.597656 C 14.253906 5.589844 13.761719 5.613281 13.675781 5.609375 C 13.59375 5.601562 13.273438 5.644531 13.261719 5.636719 C 13.25 5.628906 13.183594 5.609375 13.183594 5.609375 C 13.183594 5.609375 13.175781 5.589844 13.167969 5.570312 C 13.164062 5.546875 13.140625 5.496094 13.109375 5.472656 C 13.074219 5.449219 13.007812 5.5 13.007812 5.5 C 13.007812 5.5 12.972656 5.460938 12.941406 5.449219 C 12.90625 5.441406 12.816406 5.503906 12.816406 5.503906 C 12.816406 5.503906 12.800781 5.496094 12.785156 5.488281 C 12.769531 5.480469 12.71875 5.492188 12.6875 5.507812 C 12.660156 5.523438 12.597656 5.566406 12.578125 5.570312 C 12.5625 5.578125 12.519531 5.621094 12.515625 5.636719 C 12.515625 5.636719 12.121094 5.621094 12.101562 5.621094 C 12.078125 5.621094 12.035156 5.632812 12.027344 5.640625 C 12.019531 5.644531 11.65625 5.644531 11.65625 5.644531 L 11.644531 5.746094 L 11.613281 5.746094 C 11.613281 5.746094 11.617188 5.679688 11.613281 5.679688 C 11.609375 5.679688 11.308594 5.664062 11.300781 5.667969 C 11.289062 5.671875 11.214844 5.71875 11.207031 5.730469 C 11.207031 5.738281 11.203125 5.765625 11.203125 5.792969 L 10.855469 5.769531 L 10.851562 5.765625 L 10.832031 5.761719 L 10.832031 5.769531 L 10.816406 5.769531 L 10.8125 5.761719 L 10.792969 5.761719 L 10.796875 5.765625 L 10.777344 5.765625 L 10.777344 5.757812 L 10.753906 5.757812 L 10.757812 5.765625 L 10.738281 5.761719 L 10.738281 5.757812 L 10.71875 5.753906 L 10.71875 5.761719 L 10.710938 5.761719 C 10.710938 5.761719 10.703125 5.761719 10.703125 5.761719 L 10.703125 5.753906 L 10.683594 5.753906 L 10.683594 5.757812 L 10.667969 5.757812 L 10.664062 5.75 L 10.644531 5.75 L 10.648438 5.757812 L 10.628906 5.753906 L 10.628906 5.75 L 10.605469 5.746094 L 10.609375 5.753906 L 10.589844 5.753906 L 10.589844 5.746094 L 10.570312 5.746094 L 10.570312 5.75 L 10.5625 5.75 C 10.5625 5.75 10.546875 5.765625 10.546875 5.765625 L 10.558594 5.78125 L 10.578125 5.78125 L 10.582031 5.789062 L 10.601562 5.789062 L 10.597656 5.785156 L 10.617188 5.785156 L 10.617188 5.792969 L 10.640625 5.792969 L 10.636719 5.785156 L 10.65625 5.789062 L 10.65625 5.792969 L 10.675781 5.796875 L 10.675781 5.789062 L 10.691406 5.789062 L 10.695312 5.796875 L 10.714844 5.796875 L 10.714844 5.792969 L 10.726562 5.792969 L 10.730469 5.800781 L 10.75 5.800781 L 10.746094 5.792969 L 10.765625 5.796875 L 10.769531 5.800781 L 10.789062 5.804688 L 10.785156 5.796875 L 10.804688 5.796875 L 10.804688 5.804688 L 10.824219 5.804688 L 10.824219 5.800781 L 10.84375 5.800781 L 10.84375 5.808594 L 10.863281 5.808594 L 10.863281 5.800781 L 11.203125 5.824219 C 11.199219 5.859375 11.199219 5.886719 11.203125 5.894531 C 11.207031 5.90625 11.25 5.972656 11.273438 5.976562 C 11.300781 5.980469 11.59375 6.011719 11.597656 6.011719 C 11.601562 6.011719 11.601562 5.917969 11.601562 5.917969 L 11.625 5.917969 C 11.625 5.917969 11.621094 6.019531 11.625 6.027344 C 11.632812 6.035156 11.867188 6.066406 11.875 6.070312 C 11.882812 6.070312 11.886719 6.078125 11.898438 6.085938 C 11.90625 6.097656 11.992188 6.101562 12 6.101562 C 12.007812 6.101562 12.007812 6.117188 12.007812 6.121094 C 12.003906 6.125 11.996094 6.140625 11.984375 6.152344 C 11.972656 6.164062 11.945312 6.199219 11.953125 6.242188 C 11.964844 6.285156 12.046875 6.324219 12.046875 6.324219 C 12.046875 6.324219 12.03125 6.351562 12.011719 6.367188 C 11.992188 6.386719 11.988281 6.421875 12.003906 6.457031 C 12.023438 6.496094 12.085938 6.507812 12.085938 6.507812 C 12.085938 6.507812 12.066406 6.527344 12.0625 6.578125 C 12.0625 6.628906 12.082031 6.640625 12.082031 6.640625 C 12.082031 6.640625 12.089844 6.65625 12.082031 6.664062 C 12.078125 6.671875 12.070312 6.71875 12.085938 6.75 C 12.105469 6.777344 12.234375 6.796875 12.234375 6.796875 C 12.234375 6.796875 12.230469 6.898438 12.230469 6.914062 C 12.234375 6.929688 12.226562 6.957031 12.21875 6.96875 C 12.210938 6.980469 11.804688 6.996094 11.792969 7.007812 C 11.78125 7.023438 11.800781 7.453125 11.808594 7.46875 C 11.820312 7.480469 12.71875 7.488281 12.738281 7.476562 C 12.753906 7.464844 12.742188 7.019531 12.734375 7 C 12.726562 6.984375 12.695312 6.972656 12.691406 6.964844 C 12.691406 6.957031 12.691406 6.964844 12.710938 6.960938 C 12.730469 6.957031 12.746094 6.941406 12.757812 6.933594 C 12.765625 6.925781 12.777344 6.945312 12.820312 7.003906 C 12.867188 7.0625 13.042969 7.335938 13.136719 7.46875 C 13.230469 7.601562 13.660156 8.105469 13.773438 8.203125 C 13.886719 8.300781 14.15625 8.554688 14.175781 8.558594 C 14.195312 8.5625 14.234375 8.570312 14.300781 8.558594 C 14.371094 8.550781 14.421875 8.511719 14.496094 8.5 C 14.574219 8.488281 14.703125 8.460938 14.984375 8.359375 C 15.269531 8.261719 15.488281 8.148438 15.492188 8.15625 C 15.496094 8.160156 15.511719 8.175781 15.527344 8.1875 C 15.542969 8.195312 15.554688 8.167969 15.597656 8.148438 C 15.644531 8.132812 15.878906 8.015625 15.949219 8.011719 C 16.023438 8.003906 16.035156 8.007812 16.070312 8.097656 C 16.105469 8.183594 16.132812 8.261719 16.210938 8.46875 C 16.292969 8.675781 16.433594 8.902344 16.449219 8.949219 C 16.464844 8.996094 16.476562 9.136719 16.476562 9.226562 C 16.476562 9.320312 16.503906 9.359375 16.554688 9.472656 C 16.609375 9.585938 16.714844 9.996094 16.714844 10.03125 C 16.714844 10.0625 16.746094 10.164062 16.765625 10.191406 C 16.78125 10.214844 16.789062 10.265625 16.789062 10.285156 C 16.789062 10.300781 16.761719 10.351562 16.753906 10.34375 C 16.746094 10.339844 16.714844 10.207031 16.703125 10.183594 C 16.6875 10.15625 16.601562 10.167969 16.582031 10.175781 C 16.5625 10.1875 16.550781 10.246094 16.550781 10.253906 C 16.546875 10.257812 16.5 10.203125 16.46875 10.207031 C 16.4375 10.210938 16.382812 10.21875 16.371094 10.296875 C 16.363281 10.371094 16.453125 10.886719 16.453125 10.894531 C 16.453125 10.902344 16.417969 10.914062 16.367188 10.929688 C 16.316406 10.941406 16.28125 10.964844 16.246094 11.023438 C 16.207031 11.082031 16.171875 11.136719 16.152344 11.167969 C 16.128906 11.199219 15.871094 11.5625 15.871094 11.574219 C 15.871094 11.585938 14.953125 9.160156 14.898438 9.070312 C 14.847656 8.980469 14.683594 8.914062 14.601562 8.890625 C 14.519531 8.871094 13.972656 8.882812 13.972656 8.882812 C 13.972656 8.882812 13.921875 8.890625 13.84375 8.910156 C 13.765625 8.929688 13.679688 9 13.628906 9.070312 C 13.582031 9.140625 13.574219 9.242188 13.585938 9.378906 C 13.59375 9.515625 13.839844 10.234375 13.839844 10.234375 L 14.375 11.9375 C 14.375 11.9375 14.320312 11.964844 14.222656 12.03125 C 14.125 12.09375 14.0625 12.183594 13.960938 12.40625 C 13.863281 12.628906 12.148438 20.359375 12.140625 20.375 C 12.136719 20.394531 12.128906 20.398438 12.125 20.410156 C 12.117188 20.425781 12.09375 20.546875 12.097656 20.5625 C 12.101562 20.578125 12.15625 20.652344 12.183594 20.660156 C 12.207031 20.667969 12.289062 20.675781 12.324219 20.664062 C 12.359375 20.648438 12.390625 20.589844 12.394531 20.566406 C 12.398438 20.546875 12.40625 20.488281 12.402344 20.464844 C 12.402344 20.445312 12.480469 20.125 12.480469 20.125 L 14.023438 19.613281 C 14.023438 19.613281 13.976562 19.925781 13.96875 19.953125 C 13.964844 19.976562 13.988281 20.003906 14.035156 20.035156 C 14.082031 20.0625 14.183594 20.042969 14.195312 20.03125 C 14.207031 20.015625 14.234375 19.898438 14.234375 19.890625 C 14.230469 19.882812 15.148438 14.375 15.148438 14.371094 C 15.148438 14.367188 16.34375 18.050781 16.34375 18.050781 C 16.34375 18.050781 16.285156 18.066406 16.242188 18.113281 C 16.195312 18.160156 16.1875 18.226562 16.183594 18.242188 C 16.175781 18.261719 16.152344 18.273438 16.148438 18.304688 C 16.140625 18.335938 16.140625 18.433594 16.15625 18.46875 C 16.167969 18.503906 16.207031 18.527344 16.3125 18.546875 C 16.414062 18.5625 16.484375 18.558594 16.484375 18.558594 C 16.484375 18.558594 17.34375 21.132812 17.339844 21.140625 C 17.339844 21.144531 17.332031 21.148438 17.324219 21.164062 C 17.320312 21.179688 17.371094 21.300781 17.378906 21.324219 C 17.386719 21.34375 17.433594 21.359375 17.476562 21.371094 C 17.519531 21.382812 17.597656 21.375 17.648438 21.355469 C 17.699219 21.339844 17.738281 21.285156 17.746094 21.269531 C 17.757812 21.253906 17.71875 21.148438 17.710938 21.125 C 17.699219 21.097656 17.671875 21.09375 17.664062 21.09375 C 17.652344 21.09375 17.515625 20.601562 17.515625 20.601562 L 18.902344 20.058594 C 18.902344 20.058594 19.027344 20.421875 19.03125 20.429688 C 19.035156 20.433594 19.023438 20.441406 19.027344 20.449219 C 19.027344 20.457031 19.054688 20.5625 19.070312 20.589844 C 19.085938 20.621094 19.105469 20.609375 19.140625 20.613281 C 19.175781 20.621094 19.257812 20.632812 19.296875 20.632812 C 19.335938 20.632812 19.445312 20.554688 19.445312 20.539062 C 19.445312 20.523438 19.390625 20.40625 19.386719 20.394531 Z M 15.867188 6.628906 C 15.859375 6.636719 15.796875 6.757812 15.742188 6.816406 C 15.691406 6.875 15.664062 6.894531 15.617188 6.964844 C 15.570312 7.039062 15.546875 7.058594 15.511719 7.113281 C 15.472656 7.167969 15.457031 7.167969 15.421875 7.179688 C 15.386719 7.191406 15.328125 7.203125 15.292969 7.21875 C 15.253906 7.238281 15.0625 7.324219 14.992188 7.347656 C 14.925781 7.375 14.886719 7.386719 14.878906 7.40625 C 14.871094 7.425781 14.738281 7.539062 14.652344 7.597656 C 14.566406 7.65625 14.5 7.699219 14.46875 7.714844 C 14.441406 7.730469 14.445312 7.738281 14.390625 7.734375 C 14.339844 7.730469 13.601562 7.179688 13.492188 7.070312 C 13.386719 6.964844 13.285156 6.722656 13.195312 6.644531 C 13.101562 6.5625 13.113281 6.570312 13.046875 6.527344 C 12.980469 6.480469 12.929688 6.414062 12.894531 6.375 C 12.863281 6.332031 12.761719 6.242188 12.761719 6.230469 C 12.761719 6.214844 12.800781 6.191406 12.816406 6.171875 C 12.835938 6.15625 12.855469 6.167969 12.855469 6.167969 C 12.886719 6.191406 12.972656 6.234375 13 6.246094 C 13.027344 6.257812 13.050781 6.269531 13.089844 6.269531 C 13.125 6.273438 13.183594 6.269531 13.210938 6.222656 C 13.238281 6.175781 13.238281 6.117188 13.238281 6.109375 C 13.242188 6.105469 13.261719 6.105469 13.335938 6.09375 C 13.40625 6.085938 13.71875 6.152344 13.835938 6.195312 C 13.953125 6.238281 14.484375 6.238281 14.570312 6.234375 C 14.65625 6.234375 14.769531 6.25 14.769531 6.25 C 14.769531 6.25 15.203125 6.410156 15.441406 6.488281 C 15.675781 6.570312 15.75 6.582031 15.804688 6.601562 C 15.863281 6.625 15.871094 6.625 15.867188 6.632812 Z M 16.519531 12.925781 C 16.535156 12.914062 16.59375 12.890625 16.636719 12.871094 C 16.679688 12.851562 16.738281 12.855469 16.738281 12.855469 C 16.742188 12.886719 16.722656 13.042969 16.722656 13.140625 C 16.722656 13.242188 16.726562 13.277344 16.726562 13.277344 C 16.726562 13.277344 16.71875 13.230469 16.683594 13.175781 C 16.652344 13.117188 16.625 13.066406 16.605469 13.042969 C 16.585938 13.023438 16.578125 13.011719 16.550781 12.992188 C 16.527344 12.96875 16.5 12.941406 16.519531 12.925781 Z M 14.226562 12.316406 C 14.308594 12.1875 14.433594 12.117188 14.433594 12.121094 C 14.433594 12.125 14.804688 13.269531 14.804688 13.269531 C 14.804688 13.269531 13.988281 13.398438 13.984375 13.40625 C 13.984375 13.410156 14.144531 12.445312 14.226562 12.316406 Z M 14.039062 19.488281 L 12.523438 19.964844 L 13.9375 13.617188 C 13.972656 13.605469 14.0625 13.578125 14.070312 13.589844 C 14.082031 13.597656 14.09375 13.625 14.117188 13.628906 C 14.140625 13.628906 14.9375 13.683594 14.9375 13.683594 L 14.992188 13.855469 Z M 15.136719 13.027344 C 15.148438 13.066406 15.121094 13.113281 15.105469 13.183594 C 15.105469 13.183594 13.871094 9.355469 13.855469 9.304688 C 13.839844 9.253906 13.835938 9.175781 13.84375 9.144531 C 13.851562 9.113281 13.902344 9.085938 13.945312 9.082031 C 13.988281 9.078125 14.355469 9.050781 14.425781 9.074219 C 14.496094 9.09375 14.601562 9.171875 14.679688 9.265625 C 14.757812 9.359375 15.660156 11.757812 15.660156 11.757812 C 15.660156 11.757812 15.554688 11.878906 15.460938 11.976562 C 15.371094 12.078125 15.28125 12.222656 15.265625 12.324219 C 15.246094 12.425781 15.167969 12.5625 15.125 12.65625 C 15.085938 12.746094 15.082031 12.753906 15.074219 12.8125 C 15.070312 12.875 15.125 12.984375 15.136719 13.027344 Z M 15.25 13.671875 C 15.253906 13.671875 15.527344 13.636719 15.527344 13.636719 C 15.550781 13.671875 16.058594 14.457031 16.175781 14.609375 C 16.296875 14.765625 16.292969 14.761719 16.355469 14.851562 C 16.414062 14.9375 16.445312 14.976562 16.449219 14.980469 C 16.457031 14.988281 15.734375 15.125 15.730469 15.125 C 15.726562 15.125 15.242188 13.671875 15.25 13.671875 Z M 16.28125 16.820312 L 15.828125 15.414062 C 15.835938 15.410156 16.660156 15.230469 16.664062 15.234375 C 16.667969 15.238281 16.964844 15.589844 16.972656 15.617188 C 16.976562 15.648438 16.972656 15.832031 16.980469 15.914062 C 16.988281 15.996094 16.984375 16.03125 16.96875 16.058594 C 16.949219 16.085938 16.945312 16.085938 16.929688 16.097656 C 16.910156 16.105469 16.882812 16.113281 16.824219 16.132812 C 16.761719 16.152344 16.753906 16.128906 16.640625 16.191406 C 16.53125 16.25 16.460938 16.296875 16.441406 16.339844 C 16.421875 16.386719 16.394531 16.421875 16.40625 16.492188 C 16.417969 16.5625 16.421875 16.632812 16.484375 16.65625 C 16.546875 16.679688 16.703125 16.703125 16.699219 16.703125 C 16.691406 16.703125 16.28125 16.820312 16.28125 16.820312 Z M 16.792969 17.847656 C 16.785156 17.882812 16.640625 17.929688 16.632812 17.941406 C 16.621094 17.953125 16.378906 17.132812 16.375 17.121094 C 16.375 17.121094 16.949219 16.960938 16.964844 16.957031 C 16.980469 16.949219 17 16.996094 17.011719 17.054688 C 17.019531 17.113281 17.035156 17.132812 17.046875 17.179688 C 17.058594 17.222656 17.039062 17.277344 17.03125 17.335938 C 17.019531 17.398438 16.984375 17.449219 17.007812 17.519531 C 17.03125 17.589844 17.058594 17.621094 17.054688 17.628906 C 17.050781 17.640625 17.023438 17.667969 17.023438 17.667969 C 17.023438 17.667969 16.933594 17.722656 16.847656 17.777344 C 16.765625 17.828125 16.800781 17.816406 16.792969 17.847656 Z M 17.394531 20.234375 C 17.390625 20.226562 16.929688 18.855469 16.929688 18.855469 L 18.269531 18.421875 L 18.753906 19.695312 Z M 17.394531 20.234375 " fill-opacity="1" fill-rule="nonzero"/></g></svg>