<svg xmlns="http://www.w3.org/2000/svg" xmlns:xlink="http://www.w3.org/1999/xlink" width="40" zoomAndPan="magnify" viewBox="0 0 30 37.92" height="40" preserveAspectRatio="xMidYMid meet" version="1.0"><defs><clipPath id="c3f175e6ee"><path d="M 3.113281 0.683594 L 26.886719 0.683594 L 26.886719 29.300781 L 3.113281 29.300781 Z M 3.113281 0.683594 " clip-rule="nonzero"/></clipPath><clipPath id="7376c56eaa"><path d="M 19.457031 1.550781 C 18.035156 0.976562 16.539062 0.683594 15 0.683594 C 13.460938 0.683594 11.964844 0.976562 10.542969 1.550781 C 9.078125 2.144531 7.757812 3.019531 6.632812 4.148438 C 4.429688 6.355469 3.199219 9.285156 3.167969 12.402344 C 3.136719 15.511719 4.304688 18.464844 6.460938 20.707031 L 6.453125 20.710938 L 15 29.257812 L 23.5 20.757812 L 23.492188 20.753906 C 25.667969 18.511719 26.855469 15.558594 26.832031 12.433594 C 26.8125 9.300781 25.582031 6.363281 23.367188 4.148438 C 22.234375 3.019531 20.921875 2.144531 19.457031 1.550781 Z M 19.457031 1.550781 " clip-rule="nonzero"/></clipPath><clipPath id="17c43c4db8"><path d="M 0.144531 0.683594 L 23.855469 0.683594 L 23.855469 29.300781 L 0.144531 29.300781 Z M 0.144531 0.683594 " clip-rule="nonzero"/></clipPath><clipPath id="4aa95bc0b9"><path d="M 16.457031 1.550781 C 15.035156 0.976562 13.539062 0.683594 12 0.683594 C 10.460938 0.683594 8.964844 0.976562 7.542969 1.550781 C 6.078125 2.144531 4.757812 3.019531 3.632812 4.148438 C 1.429688 6.355469 0.199219 9.285156 0.167969 12.402344 C 0.136719 15.511719 1.304688 18.464844 3.460938 20.707031 L 3.453125 20.710938 L 12 29.257812 L 20.5 20.757812 L 20.492188 20.753906 C 22.667969 18.511719 23.855469 15.558594 23.832031 12.433594 C 23.8125 9.300781 22.582031 6.363281 20.367188 4.148438 C 19.234375 3.019531 17.921875 2.144531 16.457031 1.550781 Z M 16.457031 1.550781 " clip-rule="nonzero"/></clipPath><clipPath id="c242cf4012"><rect x="0" width="24" y="0" height="30"/></clipPath><clipPath id="891c1779eb"><path d="M 4.261719 1.777344 L 25.738281 1.777344 L 25.738281 23.203125 L 4.261719 23.203125 Z M 4.261719 1.777344 " clip-rule="nonzero"/></clipPath><clipPath id="d3e79c6b85"><path d="M 14.996094 1.789062 C 9.089844 1.789062 4.300781 6.578125 4.300781 12.484375 C 4.300781 18.390625 9.089844 23.179688 14.996094 23.179688 C 20.902344 23.179688 25.691406 18.390625 25.691406 12.484375 C 25.691406 6.578125 20.902344 1.789062 14.996094 1.789062 Z M 14.996094 1.789062 " clip-rule="nonzero"/></clipPath><clipPath id="0bf9741191"><path d="M 0.261719 0.777344 L 21.738281 0.777344 L 21.738281 22.203125 L 0.261719 22.203125 Z M 0.261719 0.777344 " clip-rule="nonzero"/></clipPath><clipPath id="427e359adb"><path d="M 10.996094 0.789062 C 5.089844 0.789062 0.300781 5.578125 0.300781 11.484375 C 0.300781 17.390625 5.089844 22.179688 10.996094 22.179688 C 16.902344 22.179688 21.691406 17.390625 21.691406 11.484375 C 21.691406 5.578125 16.902344 0.789062 10.996094 0.789062 Z M 10.996094 0.789062 " clip-rule="nonzero"/></clipPath><clipPath id="5e916dd4f8"><rect x="0" width="22" y="0" height="23"/></clipPath><clipPath id="eeb29d5754"><path d="M 14 11 L 22 11 L 22 20.121094 L 14 20.121094 Z M 14 11 " clip-rule="nonzero"/></clipPath><clipPath id="011d68fc2e"><path d="M 6.476562 13 L 10 13 L 10 17 L 6.476562 17 Z M 6.476562 13 " clip-rule="nonzero"/></clipPath><clipPath id="f03df81281"><path d="M 6.476562 15 L 15 15 L 15 20.121094 L 6.476562 20.121094 Z M 6.476562 15 " clip-rule="nonzero"/></clipPath><clipPath id="f5a7099cb2"><path d="M 21 10 L 25.1875 10 L 25.1875 14 L 21 14 Z M 21 10 " clip-rule="nonzero"/></clipPath><clipPath id="9b5fa39a8f"><path d="M 13 3.65625 L 16 3.65625 L 16 6 L 13 6 Z M 13 3.65625 " clip-rule="nonzero"/></clipPath></defs><g clip-path="url(#c3f175e6ee)"><g clip-path="url(#7376c56eaa)"><g transform="matrix(1, 0, 0, 1, 3, 0.000000000000005773)"><g clip-path="url(#c242cf4012)"><g clip-path="url(#17c43c4db8)"><g clip-path="url(#4aa95bc0b9)"><path fill="#faab11" d="M 0.167969 0.683594 L 23.832031 0.683594 L 23.832031 29.25 L 0.167969 29.25 Z M 0.167969 0.683594 " fill-opacity="1" fill-rule="nonzero"/></g></g></g></g></g></g><g clip-path="url(#891c1779eb)"><g clip-path="url(#d3e79c6b85)"><g transform="matrix(1, 0, 0, 1, 4, 1)"><g clip-path="url(#5e916dd4f8)"><g clip-path="url(#0bf9741191)"><g clip-path="url(#427e359adb)"><rect x="-10.6" width="43.2" fill="#ffffff" height="54.6048" y="-9.3424" fill-opacity="1"/></g></g></g></g></g></g><g clip-path="url(#eeb29d5754)"><path fill="#1800ad" d="M 14.429688 19.265625 L 14.429688 20.339844 L 21.179688 12.007812 L 21.179688 11.242188 L 20.835938 11.378906 Z M 14.429688 19.265625 " fill-opacity="1" fill-rule="nonzero"/><path fill="#1800ad" d="M 14.429688 20.4375 C 14.417969 20.4375 14.410156 20.4375 14.398438 20.433594 C 14.359375 20.417969 14.332031 20.382812 14.332031 20.339844 L 14.332031 19.265625 C 14.332031 19.242188 14.339844 19.21875 14.355469 19.203125 L 20.757812 11.316406 C 20.769531 11.304688 20.78125 11.292969 20.800781 11.289062 L 21.140625 11.148438 C 21.171875 11.136719 21.207031 11.140625 21.234375 11.160156 C 21.261719 11.175781 21.277344 11.207031 21.277344 11.242188 L 21.277344 12.003906 C 21.277344 12.027344 21.269531 12.050781 21.253906 12.066406 L 14.507812 20.402344 C 14.488281 20.425781 14.460938 20.4375 14.429688 20.4375 Z M 14.527344 19.300781 L 14.527344 20.0625 L 21.082031 11.972656 L 21.082031 11.386719 L 20.894531 11.460938 L 14.53125 19.300781 Z M 14.527344 19.300781 " fill-opacity="1" fill-rule="nonzero"/></g><path fill="#1800ad" d="M 21.179688 12.007812 L 24.195312 13.625 L 24.195312 12.972656 L 21.179688 11.242188 Z M 21.179688 12.007812 " fill-opacity="1" fill-rule="nonzero"/><path fill="#1800ad" d="M 24.195312 13.722656 C 24.179688 13.722656 24.164062 13.71875 24.148438 13.710938 L 21.132812 12.09375 C 21.101562 12.074219 21.082031 12.042969 21.082031 12.007812 L 21.082031 11.242188 C 21.082031 11.207031 21.097656 11.175781 21.128906 11.15625 C 21.160156 11.140625 21.195312 11.136719 21.226562 11.15625 L 24.246094 12.886719 C 24.277344 12.90625 24.296875 12.9375 24.296875 12.972656 L 24.296875 13.625 C 24.296875 13.660156 24.277344 13.691406 24.246094 13.707031 C 24.230469 13.71875 24.214844 13.722656 24.195312 13.722656 Z M 21.277344 11.949219 L 24.097656 13.460938 L 24.097656 13.03125 L 21.277344 11.410156 Z M 21.277344 11.949219 " fill-opacity="1" fill-rule="nonzero"/><path fill="#ffffff" d="M 14.820312 8.402344 L 13.550781 9.957031 L 11.964844 9.175781 L 13.269531 7.636719 Z M 14.820312 8.402344 " fill-opacity="1" fill-rule="nonzero"/><path fill="#1800ad" d="M 13.550781 10.054688 C 13.535156 10.054688 13.519531 10.050781 13.507812 10.042969 L 11.921875 9.265625 C 11.894531 9.25 11.875 9.226562 11.867188 9.195312 C 11.859375 9.167969 11.867188 9.136719 11.886719 9.113281 L 13.195312 7.574219 C 13.222656 7.539062 13.273438 7.527344 13.3125 7.546875 L 14.863281 8.316406 C 14.890625 8.328125 14.910156 8.355469 14.917969 8.382812 C 14.921875 8.414062 14.914062 8.441406 14.894531 8.464844 L 13.625 10.015625 C 13.605469 10.039062 13.578125 10.054688 13.550781 10.054688 Z M 12.121094 9.144531 L 13.523438 9.832031 L 14.667969 8.4375 L 13.292969 7.757812 Z M 12.121094 9.144531 " fill-opacity="1" fill-rule="nonzero"/><path fill="#ffffff" d="M 13.550781 9.957031 L 11.707031 12.203125 L 10.078125 11.398438 L 11.964844 9.175781 Z M 13.550781 9.957031 " fill-opacity="1" fill-rule="nonzero"/><path fill="#1800ad" d="M 11.707031 12.300781 C 11.695312 12.300781 11.679688 12.296875 11.664062 12.289062 L 10.035156 11.488281 C 10.007812 11.476562 9.988281 11.449219 9.980469 11.421875 C 9.972656 11.390625 9.980469 11.359375 10 11.335938 L 11.886719 9.113281 C 11.917969 9.078125 11.964844 9.066406 12.007812 9.089844 L 13.59375 9.867188 C 13.621094 9.878906 13.640625 9.90625 13.644531 9.933594 C 13.652344 9.964844 13.644531 9.996094 13.625 10.015625 L 11.785156 12.265625 C 11.765625 12.289062 11.738281 12.300781 11.707031 12.300781 Z M 10.234375 11.367188 L 11.683594 12.078125 L 13.394531 9.988281 L 11.988281 9.296875 Z M 10.234375 11.367188 " fill-opacity="1" fill-rule="nonzero"/><path fill="#ffffff" d="M 11.707031 12.203125 L 9.878906 14.433594 L 8.1875 13.625 L 10.078125 11.398438 Z M 11.707031 12.203125 " fill-opacity="1" fill-rule="nonzero"/><path fill="#1800ad" d="M 9.878906 14.535156 C 9.863281 14.535156 9.851562 14.53125 9.835938 14.523438 L 8.148438 13.714844 C 8.121094 13.699219 8.097656 13.675781 8.09375 13.644531 C 8.085938 13.617188 8.09375 13.585938 8.113281 13.5625 L 10.003906 11.335938 C 10.03125 11.300781 10.082031 11.292969 10.121094 11.3125 L 11.753906 12.113281 C 11.78125 12.128906 11.800781 12.152344 11.804688 12.179688 C 11.8125 12.210938 11.804688 12.242188 11.785156 12.265625 L 9.957031 14.496094 C 9.9375 14.519531 9.910156 14.535156 9.878906 14.535156 Z M 8.347656 13.589844 L 9.851562 14.3125 L 11.554688 12.234375 L 10.101562 11.523438 Z M 8.347656 13.589844 " fill-opacity="1" fill-rule="nonzero"/><g clip-path="url(#011d68fc2e)"><path fill="#ffffff" d="M 9.878906 14.433594 L 8.316406 16.34375 L 6.582031 15.519531 L 8.1875 13.625 Z M 9.878906 14.433594 " fill-opacity="1" fill-rule="nonzero"/><path fill="#1800ad" d="M 8.316406 16.441406 C 8.300781 16.441406 8.285156 16.4375 8.273438 16.433594 L 6.539062 15.609375 C 6.511719 15.597656 6.492188 15.570312 6.484375 15.539062 C 6.480469 15.511719 6.488281 15.480469 6.507812 15.457031 L 8.113281 13.5625 C 8.144531 13.527344 8.191406 13.515625 8.230469 13.535156 L 9.921875 14.347656 C 9.949219 14.359375 9.96875 14.382812 9.972656 14.414062 C 9.980469 14.445312 9.972656 14.472656 9.953125 14.496094 L 8.390625 16.40625 C 8.371094 16.429688 8.34375 16.441406 8.316406 16.441406 Z M 6.738281 15.488281 L 8.289062 16.222656 L 9.722656 14.46875 L 8.214844 13.746094 L 6.738281 15.484375 Z M 6.738281 15.488281 " fill-opacity="1" fill-rule="nonzero"/></g><path fill="#ffffff" d="M 11.917969 15.414062 L 10.375 17.320312 L 8.316406 16.34375 L 9.878906 14.433594 Z M 11.917969 15.414062 " fill-opacity="1" fill-rule="nonzero"/><path fill="#1800ad" d="M 10.375 17.417969 C 10.359375 17.417969 10.347656 17.417969 10.332031 17.410156 L 8.273438 16.433594 C 8.246094 16.417969 8.226562 16.394531 8.21875 16.363281 C 8.214844 16.335938 8.21875 16.304688 8.238281 16.28125 L 9.804688 14.371094 C 9.832031 14.335938 9.882812 14.328125 9.921875 14.347656 L 11.960938 15.324219 C 11.988281 15.335938 12.007812 15.363281 12.015625 15.390625 C 12.023438 15.421875 12.015625 15.453125 11.996094 15.476562 L 10.453125 17.382812 C 10.433594 17.40625 10.40625 17.421875 10.375 17.421875 Z M 8.472656 16.308594 L 10.347656 17.199219 L 11.765625 15.449219 L 9.90625 14.558594 Z M 8.472656 16.308594 " fill-opacity="1" fill-rule="nonzero"/><path fill="#ffffff" d="M 16.796875 9.382812 L 15.542969 10.933594 L 13.550781 9.957031 L 14.820312 8.402344 Z M 16.796875 9.382812 " fill-opacity="1" fill-rule="nonzero"/><path fill="#1800ad" d="M 15.542969 11.03125 C 15.527344 11.03125 15.511719 11.027344 15.5 11.019531 L 13.507812 10.042969 C 13.480469 10.03125 13.460938 10.003906 13.453125 9.976562 C 13.449219 9.945312 13.457031 9.914062 13.472656 9.890625 L 14.746094 8.339844 C 14.773438 8.304688 14.824219 8.296875 14.863281 8.316406 L 16.839844 9.292969 C 16.867188 9.308594 16.886719 9.332031 16.894531 9.359375 C 16.898438 9.390625 16.894531 9.421875 16.875 9.445312 L 15.621094 10.996094 C 15.601562 11.019531 15.574219 11.03125 15.542969 11.03125 Z M 13.703125 9.921875 L 15.515625 10.808594 L 16.644531 9.417969 L 14.847656 8.527344 Z M 13.703125 9.921875 " fill-opacity="1" fill-rule="nonzero"/><path fill="#ffffff" d="M 14.128906 16.472656 L 12.605469 18.378906 L 10.375 17.320312 L 11.917969 15.414062 Z M 14.128906 16.472656 " fill-opacity="1" fill-rule="nonzero"/><path fill="#1800ad" d="M 12.605469 18.480469 C 12.59375 18.480469 12.578125 18.476562 12.5625 18.46875 L 10.332031 17.410156 C 10.304688 17.398438 10.285156 17.371094 10.28125 17.34375 C 10.273438 17.3125 10.28125 17.28125 10.300781 17.257812 L 11.84375 15.351562 C 11.871094 15.316406 11.921875 15.304688 11.960938 15.324219 L 14.171875 16.382812 C 14.199219 16.394531 14.21875 16.421875 14.222656 16.449219 C 14.230469 16.480469 14.222656 16.511719 14.207031 16.535156 L 12.683594 18.441406 C 12.664062 18.464844 12.636719 18.480469 12.605469 18.480469 Z M 10.53125 17.285156 L 12.578125 18.257812 L 13.972656 16.507812 L 11.945312 15.535156 L 10.53125 17.289062 Z M 10.53125 17.285156 " fill-opacity="1" fill-rule="nonzero"/><path fill="#1800ad" d="M 18.9375 10.441406 L 17.703125 11.992188 L 15.542969 10.933594 L 16.796875 9.382812 Z M 18.9375 10.441406 " fill-opacity="1" fill-rule="nonzero"/><path fill="#1800ad" d="M 17.703125 12.089844 C 17.6875 12.089844 17.671875 12.089844 17.65625 12.082031 L 15.5 11.019531 C 15.472656 11.007812 15.453125 10.984375 15.445312 10.953125 C 15.441406 10.925781 15.449219 10.894531 15.464844 10.871094 L 16.71875 9.320312 C 16.75 9.285156 16.800781 9.273438 16.839844 9.292969 L 18.980469 10.351562 C 19.007812 10.367188 19.027344 10.390625 19.035156 10.417969 C 19.039062 10.449219 19.035156 10.480469 19.015625 10.503906 L 17.777344 12.054688 C 17.757812 12.078125 17.730469 12.089844 17.699219 12.089844 Z M 15.695312 10.898438 L 17.675781 11.871094 L 18.785156 10.476562 L 16.824219 9.503906 L 15.699219 10.898438 Z M 15.695312 10.898438 " fill-opacity="1" fill-rule="nonzero"/><path fill="#ffffff" d="M 20.835938 11.378906 L 19.589844 12.921875 L 17.703125 11.992188 L 18.9375 10.441406 Z M 20.835938 11.378906 " fill-opacity="1" fill-rule="nonzero"/><path fill="#1800ad" d="M 19.589844 13.019531 C 19.578125 13.019531 19.5625 13.015625 19.546875 13.007812 L 17.65625 12.082031 C 17.632812 12.066406 17.613281 12.042969 17.605469 12.015625 C 17.597656 11.984375 17.605469 11.953125 17.625 11.929688 L 18.859375 10.378906 C 18.878906 10.359375 18.902344 10.347656 18.925781 10.34375 C 18.945312 10.34375 18.964844 10.34375 18.980469 10.355469 L 20.878906 11.292969 C 20.902344 11.304688 20.921875 11.328125 20.929688 11.359375 C 20.9375 11.386719 20.929688 11.417969 20.910156 11.441406 L 19.667969 12.984375 C 19.648438 13.007812 19.621094 13.019531 19.589844 13.019531 Z M 17.855469 11.957031 L 19.5625 12.796875 L 20.679688 11.414062 L 18.964844 10.566406 Z M 17.855469 11.957031 " fill-opacity="1" fill-rule="nonzero"/><path fill="#ffffff" d="M 19.589844 12.921875 L 17.765625 15.179688 L 15.894531 14.257812 L 17.703125 11.992188 Z M 19.589844 12.921875 " fill-opacity="1" fill-rule="nonzero"/><path fill="#1800ad" d="M 17.765625 15.277344 C 17.753906 15.277344 17.738281 15.273438 17.722656 15.265625 L 15.851562 14.347656 C 15.824219 14.332031 15.804688 14.308594 15.796875 14.28125 C 15.792969 14.25 15.796875 14.21875 15.816406 14.199219 L 17.625 11.929688 C 17.652344 11.894531 17.703125 11.882812 17.746094 11.902344 L 19.636719 12.832031 C 19.660156 12.84375 19.679688 12.871094 19.6875 12.898438 C 19.695312 12.929688 19.6875 12.957031 19.667969 12.980469 L 17.84375 15.242188 C 17.824219 15.265625 17.796875 15.277344 17.765625 15.277344 Z M 16.046875 14.226562 L 17.738281 15.058594 L 19.4375 12.953125 L 17.726562 12.117188 Z M 16.046875 14.226562 " fill-opacity="1" fill-rule="nonzero"/><path fill="#ffffff" d="M 17.765625 15.179688 L 16 17.371094 L 14.128906 16.472656 L 15.894531 14.257812 Z M 17.765625 15.179688 " fill-opacity="1" fill-rule="nonzero"/><path fill="#1800ad" d="M 16 17.46875 C 15.984375 17.46875 15.96875 17.464844 15.957031 17.457031 L 14.085938 16.5625 C 14.058594 16.546875 14.039062 16.523438 14.03125 16.496094 C 14.027344 16.464844 14.03125 16.433594 14.050781 16.410156 L 15.816406 14.199219 C 15.84375 14.160156 15.894531 14.148438 15.9375 14.171875 L 17.8125 15.089844 C 17.835938 15.105469 17.855469 15.128906 17.863281 15.160156 C 17.871094 15.1875 17.863281 15.21875 17.84375 15.242188 L 16.074219 17.429688 C 16.054688 17.457031 16.027344 17.46875 16 17.46875 Z M 14.28125 16.4375 L 15.972656 17.246094 L 17.613281 15.214844 L 15.921875 14.382812 Z M 14.28125 16.4375 " fill-opacity="1" fill-rule="nonzero"/><path fill="#ffffff" d="M 16 17.371094 L 14.46875 19.265625 L 12.605469 18.378906 L 14.128906 16.472656 Z M 16 17.371094 " fill-opacity="1" fill-rule="nonzero"/><path fill="#1800ad" d="M 14.46875 19.363281 C 14.453125 19.363281 14.441406 19.359375 14.425781 19.355469 L 12.5625 18.46875 C 12.535156 18.457031 12.515625 18.433594 12.511719 18.402344 C 12.503906 18.375 12.511719 18.34375 12.53125 18.320312 L 14.050781 16.410156 C 14.078125 16.375 14.128906 16.363281 14.171875 16.382812 L 16.039062 17.28125 C 16.066406 17.292969 16.085938 17.320312 16.09375 17.347656 C 16.101562 17.378906 16.09375 17.40625 16.074219 17.429688 L 14.542969 19.328125 C 14.523438 19.351562 14.496094 19.363281 14.46875 19.363281 Z M 12.761719 18.34375 L 14.441406 19.144531 L 15.84375 17.40625 L 14.15625 16.597656 Z M 12.761719 18.34375 " fill-opacity="1" fill-rule="nonzero"/><path fill="#ffffff" d="M 17.703125 11.992188 L 15.894531 14.257812 L 13.71875 13.1875 L 15.542969 10.933594 Z M 17.703125 11.992188 " fill-opacity="1" fill-rule="nonzero"/><path fill="#1800ad" d="M 15.894531 14.359375 C 15.878906 14.359375 15.863281 14.355469 15.851562 14.347656 L 13.675781 13.277344 C 13.648438 13.265625 13.628906 13.238281 13.621094 13.210938 C 13.617188 13.179688 13.621094 13.152344 13.640625 13.128906 L 15.464844 10.871094 C 15.496094 10.835938 15.542969 10.824219 15.585938 10.84375 L 17.746094 11.902344 C 17.769531 11.917969 17.789062 11.941406 17.796875 11.972656 C 17.804688 12 17.796875 12.03125 17.777344 12.054688 L 15.972656 14.320312 C 15.953125 14.34375 15.921875 14.355469 15.894531 14.355469 Z M 13.871094 13.15625 L 15.867188 14.136719 L 17.546875 12.027344 L 15.570312 11.054688 Z M 13.871094 13.15625 " fill-opacity="1" fill-rule="nonzero"/><path fill="#ffffff" d="M 15.542969 10.933594 L 13.71875 13.1875 L 11.707031 12.203125 L 13.550781 9.957031 Z M 15.542969 10.933594 " fill-opacity="1" fill-rule="nonzero"/><path fill="#1800ad" d="M 13.71875 13.289062 C 13.703125 13.289062 13.6875 13.285156 13.675781 13.277344 L 11.664062 12.289062 C 11.636719 12.277344 11.617188 12.253906 11.613281 12.222656 C 11.605469 12.195312 11.613281 12.164062 11.632812 12.140625 L 13.472656 9.890625 C 13.503906 9.855469 13.550781 9.847656 13.59375 9.867188 L 15.585938 10.84375 C 15.613281 10.859375 15.632812 10.882812 15.640625 10.910156 C 15.644531 10.941406 15.636719 10.972656 15.621094 10.996094 L 13.792969 13.25 C 13.773438 13.273438 13.746094 13.289062 13.71875 13.289062 Z M 11.863281 12.167969 L 13.691406 13.066406 L 15.390625 10.96875 L 13.578125 10.078125 Z M 11.863281 12.167969 " fill-opacity="1" fill-rule="nonzero"/><path fill="#ffffff" d="M 15.894531 14.257812 L 14.128906 16.472656 L 11.917969 15.414062 L 13.71875 13.1875 Z M 15.894531 14.257812 " fill-opacity="1" fill-rule="nonzero"/><path fill="#1800ad" d="M 14.128906 16.570312 C 14.113281 16.570312 14.097656 16.566406 14.085938 16.5625 L 11.875 15.503906 C 11.851562 15.488281 11.828125 15.464844 11.824219 15.433594 C 11.816406 15.40625 11.824219 15.375 11.84375 15.351562 L 13.640625 13.128906 C 13.671875 13.09375 13.71875 13.082031 13.761719 13.101562 L 15.9375 14.171875 C 15.964844 14.183594 15.984375 14.207031 15.988281 14.238281 C 15.996094 14.265625 15.988281 14.296875 15.972656 14.320312 L 14.207031 16.535156 C 14.1875 16.558594 14.15625 16.570312 14.128906 16.570312 Z M 12.074219 15.378906 L 14.101562 16.351562 L 15.742188 14.292969 L 13.746094 13.3125 Z M 12.074219 15.378906 " fill-opacity="1" fill-rule="nonzero"/><path fill="#ffffff" d="M 13.71875 13.1875 L 11.917969 15.414062 L 9.878906 14.433594 L 11.707031 12.203125 Z M 13.71875 13.1875 " fill-opacity="1" fill-rule="nonzero"/><path fill="#1800ad" d="M 11.917969 15.511719 C 11.90625 15.511719 11.890625 15.507812 11.875 15.503906 L 9.835938 14.523438 C 9.808594 14.511719 9.789062 14.484375 9.78125 14.457031 C 9.777344 14.425781 9.785156 14.394531 9.804688 14.371094 L 11.632812 12.140625 C 11.660156 12.105469 11.710938 12.09375 11.75 12.113281 L 13.761719 13.101562 C 13.789062 13.113281 13.808594 13.140625 13.8125 13.167969 C 13.820312 13.199219 13.8125 13.226562 13.792969 13.25 L 11.996094 15.476562 C 11.976562 15.5 11.949219 15.511719 11.917969 15.511719 Z M 10.035156 14.402344 L 11.890625 15.292969 L 13.5625 13.222656 L 11.734375 12.324219 Z M 10.035156 14.402344 " fill-opacity="1" fill-rule="nonzero"/><g clip-path="url(#f03df81281)"><path fill="#1800ad" d="M 6.582031 15.519531 L 6.582031 16.605469 L 14.429688 20.351562 L 14.429688 19.265625 Z M 6.582031 15.519531 " fill-opacity="1" fill-rule="nonzero"/><path fill="#1800ad" d="M 14.429688 20.449219 C 14.417969 20.449219 14.402344 20.445312 14.386719 20.441406 L 6.539062 16.695312 C 6.503906 16.679688 6.484375 16.644531 6.484375 16.605469 L 6.484375 15.519531 C 6.484375 15.488281 6.5 15.453125 6.527344 15.4375 C 6.558594 15.417969 6.59375 15.417969 6.625 15.429688 L 14.472656 19.175781 C 14.507812 19.191406 14.527344 19.226562 14.527344 19.265625 L 14.527344 20.351562 C 14.527344 20.382812 14.511719 20.414062 14.484375 20.433594 C 14.46875 20.445312 14.449219 20.449219 14.429688 20.449219 Z M 6.679688 16.542969 L 14.332031 20.195312 L 14.332031 19.328125 L 6.679688 15.675781 Z M 6.679688 16.542969 " fill-opacity="1" fill-rule="nonzero"/></g><path fill="#ffffff" d="M 21.609375 11.066406 L 20.835938 11.378906 L 13.332031 7.617188 L 14.105469 7.304688 Z M 21.609375 11.066406 " fill-opacity="1" fill-rule="nonzero"/><path fill="#1800ad" d="M 20.835938 11.476562 C 20.820312 11.476562 20.804688 11.476562 20.792969 11.46875 L 13.289062 7.703125 C 13.253906 7.6875 13.230469 7.648438 13.234375 7.609375 C 13.234375 7.574219 13.257812 7.539062 13.292969 7.523438 L 14.066406 7.210938 C 14.09375 7.199219 14.125 7.203125 14.148438 7.214844 L 21.652344 10.980469 C 21.6875 10.996094 21.707031 11.03125 21.707031 11.070312 C 21.707031 11.109375 21.683594 11.144531 21.644531 11.160156 L 20.871094 11.472656 C 20.859375 11.476562 20.847656 11.476562 20.835938 11.476562 Z M 13.570312 7.625 L 20.839844 11.273438 L 21.371094 11.058594 L 14.101562 7.410156 Z M 13.570312 7.625 " fill-opacity="1" fill-rule="nonzero"/><path fill="#ffffff" d="M 21.609375 11.066406 L 23.011719 11.765625 L 23.011719 11.902344 L 24.398438 12.675781 L 24.398438 12.828125 L 24.933594 13.164062 L 24.933594 13.398438 L 21.179688 11.242188 Z M 21.609375 11.066406 " fill-opacity="1" fill-rule="nonzero"/><g clip-path="url(#f5a7099cb2)"><path fill="#1800ad" d="M 24.933594 13.496094 C 24.917969 13.496094 24.902344 13.492188 24.886719 13.484375 L 21.128906 11.328125 C 21.097656 11.308594 21.078125 11.273438 21.082031 11.234375 C 21.082031 11.195312 21.105469 11.164062 21.140625 11.148438 L 21.570312 10.976562 C 21.597656 10.964844 21.628906 10.96875 21.652344 10.980469 L 23.054688 11.675781 C 23.085938 11.695312 23.109375 11.726562 23.109375 11.765625 L 23.109375 11.847656 L 24.445312 12.585938 C 24.476562 12.605469 24.496094 12.636719 24.496094 12.671875 L 24.496094 12.773438 L 24.988281 13.082031 C 25.015625 13.097656 25.035156 13.128906 25.035156 13.164062 L 25.035156 13.398438 C 25.035156 13.433594 25.015625 13.464844 24.984375 13.480469 C 24.96875 13.492188 24.953125 13.496094 24.933594 13.496094 Z M 21.402344 11.257812 L 24.835938 13.226562 L 24.835938 13.21875 L 24.34375 12.910156 C 24.316406 12.894531 24.296875 12.859375 24.296875 12.828125 L 24.296875 12.730469 L 22.960938 11.988281 C 22.929688 11.972656 22.914062 11.941406 22.914062 11.90625 L 22.914062 11.828125 L 21.605469 11.175781 Z M 21.402344 11.257812 " fill-opacity="1" fill-rule="nonzero"/></g><path fill="#ffffff" d="M 17.960938 9.496094 L 16.722656 11.050781 L 14.566406 9.988281 L 15.820312 8.4375 Z M 17.960938 9.496094 " fill-opacity="1" fill-rule="nonzero"/><path fill="#1800ad" d="M 16.722656 11.148438 C 16.707031 11.148438 16.695312 11.144531 16.679688 11.136719 L 14.523438 10.078125 C 14.496094 10.0625 14.476562 10.039062 14.46875 10.011719 C 14.460938 9.980469 14.46875 9.949219 14.488281 9.925781 L 15.742188 8.375 C 15.773438 8.339844 15.820312 8.328125 15.863281 8.351562 L 18.003906 9.410156 C 18.03125 9.421875 18.050781 9.445312 18.054688 9.476562 C 18.0625 9.503906 18.054688 9.535156 18.039062 9.558594 L 16.800781 11.109375 C 16.78125 11.132812 16.753906 11.148438 16.722656 11.148438 Z M 14.71875 9.957031 L 16.695312 10.925781 L 17.808594 9.53125 L 15.847656 8.5625 Z M 14.71875 9.957031 " fill-opacity="1" fill-rule="nonzero"/><path fill="#ffffff" d="M 15.730469 5.742188 C 15.296875 5.683594 13.203125 4.9375 13.203125 4.9375 L 13.230469 4.664062 C 13.246094 4.519531 13.515625 4.503906 13.515625 4.503906 L 15.40625 5.355469 C 15.808594 5.605469 15.730469 5.746094 15.730469 5.746094 Z M 15.730469 5.742188 " fill-opacity="1" fill-rule="nonzero"/><path fill="#1800ad" d="M 15.730469 5.84375 C 15.726562 5.84375 15.722656 5.84375 15.714844 5.839844 C 15.277344 5.78125 13.253906 5.058594 13.167969 5.03125 C 13.128906 5.015625 13.101562 4.972656 13.105469 4.925781 L 13.132812 4.65625 C 13.15625 4.433594 13.472656 4.40625 13.507812 4.40625 C 13.523438 4.402344 13.539062 4.40625 13.554688 4.414062 L 15.445312 5.265625 C 15.449219 5.265625 15.453125 5.269531 15.457031 5.273438 C 15.90625 5.550781 15.84375 5.742188 15.816406 5.792969 C 15.796875 5.824219 15.765625 5.84375 15.730469 5.84375 Z M 13.308594 4.871094 C 13.640625 4.988281 15.015625 5.46875 15.578125 5.609375 C 15.539062 5.566406 15.472656 5.511719 15.359375 5.441406 L 13.496094 4.601562 C 13.414062 4.613281 13.332031 4.648438 13.328125 4.675781 Z M 13.308594 4.871094 " fill-opacity="1" fill-rule="nonzero"/><g clip-path="url(#9b5fa39a8f)"><path fill="#ffffff" d="M 15.40625 5.355469 L 13.515625 4.503906 C 13.832031 3.761719 14.578125 3.945312 14.578125 3.945312 C 15.8125 4.261719 15.40625 5.355469 15.40625 5.355469 Z M 15.40625 5.355469 " fill-opacity="1" fill-rule="nonzero"/><path fill="#1800ad" d="M 15.40625 5.453125 C 15.394531 5.453125 15.378906 5.449219 15.367188 5.445312 L 13.472656 4.59375 C 13.425781 4.570312 13.402344 4.515625 13.425781 4.464844 C 13.769531 3.65625 14.59375 3.847656 14.601562 3.851562 C 15.015625 3.957031 15.300781 4.15625 15.449219 4.445312 C 15.679688 4.886719 15.507812 5.367188 15.5 5.390625 C 15.488281 5.414062 15.46875 5.433594 15.445312 5.445312 C 15.433594 5.449219 15.421875 5.453125 15.40625 5.453125 Z M 13.648438 4.453125 L 15.34375 5.21875 C 15.375 5.070312 15.410156 4.789062 15.277344 4.535156 C 15.152344 4.300781 14.90625 4.132812 14.554688 4.042969 C 14.527344 4.035156 13.945312 3.902344 13.648438 4.457031 Z M 13.648438 4.453125 " fill-opacity="1" fill-rule="nonzero"/></g><path fill="#1800ad" d="M 14.46875 5.363281 C 14.070312 5.980469 13.339844 5.742188 13.339844 5.742188 C 13.222656 5.125 13.339844 4.984375 13.339844 4.984375 Z M 14.46875 5.363281 " fill-opacity="1" fill-rule="nonzero"/><path fill="#1800ad" d="M 13.664062 5.886719 C 13.460938 5.886719 13.316406 5.839844 13.3125 5.839844 C 13.277344 5.828125 13.253906 5.796875 13.246094 5.761719 C 13.125 5.144531 13.230469 4.964844 13.265625 4.921875 C 13.292969 4.890625 13.335938 4.878906 13.371094 4.894531 L 14.5 5.269531 C 14.53125 5.277344 14.554688 5.300781 14.5625 5.332031 C 14.574219 5.359375 14.570312 5.390625 14.554688 5.417969 C 14.304688 5.800781 13.933594 5.886719 13.664062 5.886719 Z M 13.425781 5.664062 C 13.578125 5.699219 14.011719 5.757812 14.308594 5.414062 L 13.402344 5.109375 C 13.382812 5.191406 13.371094 5.355469 13.425781 5.664062 Z M 13.425781 5.664062 " fill-opacity="1" fill-rule="nonzero"/><path fill="#ffffff" d="M 15.242188 5.617188 L 14.65625 6.714844 C 14.402344 7.121094 13.949219 6.644531 13.949219 6.644531 L 13.320312 6.851562 L 13.046875 5.988281 L 13.339844 5.742188 C 13.339844 5.742188 14.070312 5.980469 14.46875 5.363281 Z M 15.242188 5.617188 " fill-opacity="1" fill-rule="nonzero"/><path fill="#1800ad" d="M 14.390625 6.976562 C 14.195312 6.976562 14.007812 6.835938 13.925781 6.757812 L 13.351562 6.945312 C 13.324219 6.953125 13.296875 6.949219 13.273438 6.9375 C 13.25 6.925781 13.234375 6.90625 13.226562 6.878906 L 12.953125 6.019531 C 12.941406 5.980469 12.953125 5.941406 12.984375 5.914062 L 13.277344 5.667969 C 13.304688 5.648438 13.339844 5.640625 13.371094 5.652344 C 13.398438 5.660156 14.035156 5.855469 14.386719 5.308594 C 14.414062 5.273438 14.460938 5.253906 14.5 5.269531 L 15.273438 5.527344 C 15.300781 5.535156 15.324219 5.554688 15.332031 5.582031 C 15.34375 5.609375 15.34375 5.640625 15.328125 5.664062 L 14.742188 6.761719 C 14.742188 6.765625 14.742188 6.765625 14.738281 6.769531 C 14.640625 6.925781 14.519531 6.96875 14.429688 6.976562 C 14.417969 6.976562 14.40625 6.976562 14.390625 6.976562 Z M 13.949219 6.546875 C 13.976562 6.546875 14.003906 6.558594 14.023438 6.578125 C 14.078125 6.640625 14.265625 6.796875 14.414062 6.78125 C 14.472656 6.773438 14.527344 6.738281 14.570312 6.667969 L 15.101562 5.675781 L 14.507812 5.480469 C 14.136719 5.980469 13.546875 5.894531 13.367188 5.851562 L 13.160156 6.023438 L 13.382812 6.726562 L 13.917969 6.554688 C 13.929688 6.550781 13.9375 6.546875 13.949219 6.546875 Z M 13.949219 6.546875 " fill-opacity="1" fill-rule="nonzero"/><path fill="#1800ad" d="M 13.949219 6.746094 C 13.90625 6.746094 13.863281 6.714844 13.855469 6.667969 L 13.785156 6.363281 C 13.769531 6.308594 13.804688 6.257812 13.855469 6.246094 C 13.910156 6.234375 13.960938 6.265625 13.976562 6.320312 L 14.046875 6.625 C 14.058594 6.675781 14.023438 6.730469 13.972656 6.742188 C 13.964844 6.742188 13.957031 6.746094 13.949219 6.746094 Z M 13.949219 6.746094 " fill-opacity="1" fill-rule="nonzero"/><path fill="#ffffff" d="M 14.3125 8.765625 L 13.152344 8.933594 L 13.09375 8.707031 L 12.9375 8.324219 C 12.101562 8.699219 12.148438 7.855469 12.148438 7.855469 C 12.292969 6.972656 12.792969 6.644531 12.792969 6.644531 C 13.082031 6.441406 13.441406 6.421875 13.71875 6.449219 C 13.769531 6.507812 13.824219 6.574219 13.878906 6.644531 C 13.878906 6.644531 14.183594 6.945312 14.25 7.363281 Z M 14.3125 8.765625 " fill-opacity="1" fill-rule="nonzero"/><path fill="#1800ad" d="M 13.152344 9.03125 C 13.109375 9.03125 13.070312 9.003906 13.058594 8.957031 L 13 8.738281 L 12.882812 8.453125 C 12.632812 8.546875 12.433594 8.542969 12.285156 8.441406 C 12.027344 8.261719 12.046875 7.867188 12.046875 7.851562 C 12.046875 7.847656 12.046875 7.84375 12.046875 7.839844 C 12.195312 6.941406 12.695312 6.59375 12.738281 6.566406 C 13.058594 6.335938 13.453125 6.324219 13.726562 6.351562 C 13.753906 6.351562 13.777344 6.367188 13.792969 6.386719 C 13.847656 6.453125 13.902344 6.515625 13.953125 6.582031 C 13.992188 6.625 14.277344 6.929688 14.347656 7.347656 C 14.347656 7.351562 14.347656 7.355469 14.347656 7.359375 L 14.410156 8.761719 C 14.414062 8.8125 14.375 8.855469 14.328125 8.863281 L 13.164062 9.03125 C 13.160156 9.03125 13.15625 9.03125 13.152344 9.03125 Z M 12.9375 8.226562 C 12.949219 8.226562 12.960938 8.226562 12.972656 8.234375 C 12.996094 8.242188 13.015625 8.261719 13.027344 8.285156 L 13.183594 8.671875 C 13.1875 8.675781 13.1875 8.679688 13.1875 8.683594 L 13.226562 8.824219 L 14.210938 8.683594 L 14.152344 7.375 C 14.085938 6.996094 13.8125 6.71875 13.808594 6.714844 C 13.808594 6.710938 13.804688 6.710938 13.800781 6.707031 C 13.757812 6.652344 13.714844 6.597656 13.667969 6.542969 C 13.429688 6.523438 13.109375 6.542969 12.851562 6.726562 C 12.847656 6.726562 12.847656 6.726562 12.847656 6.726562 C 12.84375 6.730469 12.382812 7.042969 12.246094 7.867188 C 12.242188 7.953125 12.261719 8.183594 12.398438 8.277344 C 12.503906 8.351562 12.671875 8.335938 12.894531 8.234375 C 12.90625 8.230469 12.921875 8.226562 12.933594 8.226562 Z M 12.9375 8.226562 " fill-opacity="1" fill-rule="nonzero"/><path fill="#1800ad" d="M 12.148438 7.855469 C 12.148438 7.855469 12.101562 8.699219 12.9375 8.324219 L 13.09375 8.707031 C 13.09375 8.707031 12.984375 8.867188 12.835938 9.039062 C 12.738281 9.152344 12.628906 9.269531 12.515625 9.355469 C 12.492188 9.375 12.464844 9.394531 12.441406 9.410156 C 12.402344 9.4375 12.363281 9.457031 12.324219 9.472656 C 12.285156 9.488281 12.246094 9.496094 12.210938 9.492188 C 12.210938 9.492188 10.242188 9.941406 9.992188 8.589844 C 9.988281 8.5625 9.984375 8.535156 9.980469 8.507812 C 9.980469 8.507812 10.015625 8.285156 10.128906 7.96875 C 10.1875 7.804688 10.265625 7.617188 10.367188 7.421875 C 10.730469 6.730469 11.402344 5.953125 12.617188 5.855469 C 12.726562 5.84375 12.84375 5.84375 12.960938 5.84375 C 12.960938 5.84375 13.074219 5.835938 13.324219 6.046875 C 13.429688 6.136719 13.5625 6.265625 13.71875 6.449219 C 13.445312 6.421875 13.085938 6.441406 12.792969 6.644531 C 12.792969 6.644531 12.292969 6.972656 12.148438 7.855469 Z M 12.148438 7.855469 " fill-opacity="1" fill-rule="nonzero"/><path fill="#1800ad" d="M 11.503906 9.664062 C 11.148438 9.664062 10.726562 9.605469 10.402344 9.390625 C 10.128906 9.210938 9.957031 8.945312 9.894531 8.605469 C 9.890625 8.574219 9.886719 8.542969 9.882812 8.519531 C 9.882812 8.511719 9.882812 8.5 9.882812 8.492188 C 9.882812 8.480469 9.921875 8.257812 10.035156 7.9375 C 10.105469 7.738281 10.1875 7.550781 10.28125 7.375 C 10.636719 6.691406 11.332031 5.859375 12.609375 5.753906 C 12.722656 5.746094 12.839844 5.742188 12.960938 5.746094 C 13.007812 5.746094 13.140625 5.765625 13.386719 5.972656 C 13.511719 6.078125 13.648438 6.214844 13.789062 6.382812 C 13.816406 6.414062 13.820312 6.457031 13.804688 6.492188 C 13.785156 6.53125 13.746094 6.550781 13.707031 6.546875 C 13.464844 6.519531 13.121094 6.53125 12.847656 6.726562 C 12.839844 6.730469 12.382812 7.042969 12.242188 7.867188 C 12.238281 7.953125 12.261719 8.183594 12.394531 8.277344 C 12.503906 8.347656 12.667969 8.335938 12.894531 8.234375 C 12.917969 8.222656 12.945312 8.222656 12.96875 8.230469 C 12.996094 8.242188 13.015625 8.261719 13.023438 8.285156 L 13.183594 8.671875 C 13.195312 8.699219 13.191406 8.734375 13.175781 8.761719 C 13.167969 8.769531 13.058594 8.929688 12.90625 9.105469 C 12.789062 9.242188 12.679688 9.351562 12.578125 9.433594 C 12.546875 9.457031 12.519531 9.476562 12.492188 9.492188 C 12.445312 9.523438 12.398438 9.546875 12.355469 9.5625 C 12.308594 9.582031 12.261719 9.589844 12.21875 9.589844 C 12.152344 9.605469 11.859375 9.664062 11.503906 9.664062 Z M 10.078125 8.511719 C 10.082031 8.527344 10.085938 8.550781 10.089844 8.570312 C 10.140625 8.855469 10.285156 9.078125 10.507812 9.226562 C 11.125 9.632812 12.175781 9.398438 12.1875 9.398438 C 12.195312 9.394531 12.207031 9.394531 12.214844 9.394531 C 12.234375 9.394531 12.261719 9.390625 12.289062 9.378906 C 12.316406 9.367188 12.351562 9.351562 12.386719 9.328125 C 12.410156 9.3125 12.429688 9.296875 12.457031 9.277344 C 12.546875 9.207031 12.652344 9.105469 12.761719 8.976562 C 12.859375 8.863281 12.941406 8.753906 12.984375 8.695312 L 12.882812 8.453125 C 12.636719 8.546875 12.433594 8.539062 12.285156 8.4375 C 12.03125 8.261719 12.046875 7.867188 12.046875 7.851562 C 12.046875 7.847656 12.046875 7.84375 12.050781 7.839844 C 12.199219 6.941406 12.695312 6.59375 12.738281 6.566406 C 12.972656 6.398438 13.25 6.34375 13.488281 6.339844 C 13.40625 6.253906 13.332031 6.183594 13.261719 6.125 C 13.078125 5.96875 12.980469 5.945312 12.964844 5.941406 C 12.960938 5.941406 12.964844 5.941406 12.957031 5.941406 C 12.84375 5.941406 12.734375 5.945312 12.625 5.953125 C 11.4375 6.046875 10.789062 6.828125 10.453125 7.464844 C 10.367188 7.632812 10.289062 7.816406 10.222656 8.003906 C 10.128906 8.261719 10.089844 8.457031 10.078125 8.511719 Z M 10.078125 8.511719 " fill-opacity="1" fill-rule="nonzero"/><path fill="#ffffff" d="M 11.289062 8.453125 C 11.640625 8.667969 12.136719 8.882812 12.835938 9.042969 C 12.71875 9.175781 12.574219 9.324219 12.441406 9.410156 C 11.75 9.226562 11.246094 8.980469 10.878906 8.726562 C 10.503906 8.464844 10.269531 8.195312 10.128906 7.96875 C 10.1875 7.804688 10.265625 7.617188 10.367188 7.421875 C 10.398438 7.527344 10.507812 7.808594 10.835938 8.113281 C 10.859375 8.136719 10.882812 8.15625 10.910156 8.179688 C 11.4375 6.832031 12.078125 6.171875 12.617188 5.855469 C 12.726562 5.84375 12.84375 5.84375 12.960938 5.84375 C 12.960938 5.84375 13.074219 5.835938 13.324219 6.046875 C 13.191406 6.082031 13.023438 6.140625 12.835938 6.253906 C 12.40625 6.515625 11.796875 7.109375 11.289062 8.453125 Z M 11.289062 8.453125 " fill-opacity="1" fill-rule="nonzero"/><path fill="#1800ad" d="M 12.441406 9.507812 C 12.433594 9.507812 12.421875 9.507812 12.414062 9.503906 C 11.785156 9.335938 11.25 9.105469 10.828125 8.8125 C 10.824219 8.808594 10.824219 8.808594 10.824219 8.808594 C 10.488281 8.578125 10.226562 8.3125 10.046875 8.023438 C 10.03125 7.996094 10.027344 7.964844 10.035156 7.9375 C 10.105469 7.738281 10.1875 7.550781 10.28125 7.375 C 10.300781 7.339844 10.339844 7.316406 10.378906 7.324219 C 10.417969 7.328125 10.453125 7.355469 10.460938 7.390625 C 10.492188 7.488281 10.585938 7.734375 10.871094 8.011719 C 11.316406 6.925781 11.886719 6.171875 12.570312 5.769531 C 12.582031 5.761719 12.597656 5.757812 12.613281 5.753906 C 12.722656 5.746094 12.84375 5.742188 12.960938 5.746094 L 12.964844 5.746094 C 13.007812 5.746094 13.144531 5.765625 13.386719 5.972656 C 13.417969 5.996094 13.429688 6.035156 13.421875 6.070312 C 13.414062 6.105469 13.382812 6.136719 13.347656 6.144531 C 13.195312 6.179688 13.039062 6.246094 12.886719 6.339844 C 12.484375 6.582031 11.902344 7.140625 11.410156 8.410156 C 11.804688 8.636719 12.289062 8.816406 12.855469 8.945312 C 12.890625 8.953125 12.917969 8.976562 12.929688 9.011719 C 12.941406 9.042969 12.933594 9.078125 12.910156 9.105469 C 12.757812 9.28125 12.617188 9.414062 12.496094 9.492188 C 12.476562 9.503906 12.460938 9.507812 12.441406 9.507812 Z M 10.9375 8.648438 C 11.332031 8.921875 11.832031 9.140625 12.421875 9.304688 C 12.492188 9.253906 12.570312 9.183594 12.652344 9.097656 C 12.097656 8.960938 11.625 8.773438 11.238281 8.535156 C 11.199219 8.511719 11.179688 8.460938 11.199219 8.417969 C 11.714844 7.042969 12.34375 6.4375 12.78125 6.171875 C 12.890625 6.105469 13 6.050781 13.109375 6.011719 C 13.023438 5.957031 12.976562 5.945312 12.964844 5.945312 C 12.960938 5.945312 12.964844 5.945312 12.960938 5.945312 C 12.851562 5.941406 12.75 5.945312 12.648438 5.953125 C 11.988281 6.351562 11.433594 7.113281 11 8.214844 C 10.988281 8.246094 10.964844 8.269531 10.933594 8.277344 C 10.902344 8.285156 10.871094 8.277344 10.847656 8.253906 C 10.820312 8.234375 10.796875 8.214844 10.769531 8.1875 C 10.558594 7.992188 10.433594 7.800781 10.359375 7.660156 C 10.316406 7.757812 10.277344 7.855469 10.238281 7.957031 C 10.40625 8.210938 10.636719 8.441406 10.933594 8.644531 C 10.933594 8.648438 10.933594 8.648438 10.9375 8.648438 Z M 10.9375 8.648438 " fill-opacity="1" fill-rule="nonzero"/><path fill="#1800ad" d="M 13.148438 9.011719 C 13.105469 9.011719 13.066406 8.984375 13.054688 8.945312 L 12.726562 8.003906 C 12.707031 7.953125 12.734375 7.898438 12.785156 7.878906 C 12.839844 7.859375 12.894531 7.886719 12.914062 7.9375 L 13.242188 8.878906 C 13.257812 8.929688 13.230469 8.984375 13.179688 9.003906 C 13.167969 9.007812 13.15625 9.011719 13.148438 9.011719 Z M 13.148438 9.011719 " fill-opacity="1" fill-rule="nonzero"/><path fill="#1800ad" d="M 13.324219 7.121094 C 13.296875 7.121094 13.269531 7.113281 13.25 7.089844 C 13.214844 7.050781 13.21875 6.988281 13.257812 6.953125 C 13.277344 6.9375 13.695312 6.566406 14.121094 6.816406 C 14.167969 6.84375 14.183594 6.90625 14.15625 6.953125 C 14.128906 7 14.070312 7.015625 14.023438 6.988281 C 13.71875 6.808594 13.402344 7.085938 13.390625 7.097656 C 13.371094 7.113281 13.347656 7.121094 13.324219 7.121094 Z M 13.324219 7.121094 " fill-opacity="1" fill-rule="nonzero"/><path fill="#ffffff" d="M 13.324219 8.910156 C 13.324219 8.910156 13.4375 9.703125 14.054688 10.082031 L 15.53125 10.660156 C 15.769531 10.753906 16.039062 10.730469 16.25 10.582031 C 16.257812 10.574219 16.269531 10.566406 16.28125 10.558594 C 16.28125 10.558594 16.90625 10.09375 16.335938 9.832031 C 16.335938 9.832031 16.140625 9.734375 15.871094 9.984375 L 15.890625 9.917969 C 15.90625 9.855469 15.855469 9.789062 15.789062 9.792969 C 15.722656 9.800781 15.652344 9.859375 15.644531 10.082031 C 15.644531 10.082031 14.671875 9.289062 14.460938 9.234375 L 14.273438 8.773438 Z M 13.324219 8.910156 " fill-opacity="1" fill-rule="nonzero"/><path fill="#1800ad" d="M 15.824219 10.816406 C 15.714844 10.816406 15.601562 10.792969 15.496094 10.75 L 14.019531 10.171875 C 14.011719 10.167969 14.007812 10.167969 14.003906 10.164062 C 13.355469 9.765625 13.234375 8.957031 13.226562 8.921875 C 13.21875 8.871094 13.257812 8.820312 13.3125 8.8125 L 14.261719 8.675781 C 14.304688 8.667969 14.347656 8.691406 14.367188 8.734375 L 14.535156 9.15625 C 14.761719 9.257812 15.300781 9.675781 15.574219 9.894531 C 15.617188 9.746094 15.707031 9.703125 15.78125 9.695312 C 15.84375 9.691406 15.90625 9.714844 15.945312 9.765625 C 15.953125 9.773438 15.960938 9.78125 15.964844 9.792969 C 16.203125 9.660156 16.371094 9.738281 16.378906 9.742188 C 16.558594 9.824219 16.65625 9.941406 16.671875 10.082031 C 16.703125 10.359375 16.378906 10.609375 16.339844 10.636719 C 16.332031 10.644531 16.316406 10.65625 16.304688 10.664062 C 16.164062 10.761719 15.996094 10.8125 15.824219 10.8125 Z M 14.097656 9.992188 L 15.566406 10.570312 C 15.78125 10.652344 16.015625 10.628906 16.191406 10.503906 C 16.199219 10.496094 16.210938 10.488281 16.21875 10.480469 C 16.292969 10.425781 16.492188 10.242188 16.476562 10.101562 C 16.46875 10.035156 16.410156 9.972656 16.296875 9.921875 C 16.289062 9.917969 16.148438 9.863281 15.9375 10.058594 C 15.902344 10.085938 15.855469 10.09375 15.816406 10.070312 C 15.78125 10.046875 15.761719 10 15.773438 9.957031 L 15.792969 9.894531 C 15.773438 9.902344 15.746094 9.957031 15.746094 10.082031 C 15.742188 10.121094 15.722656 10.152344 15.6875 10.167969 C 15.652344 10.183594 15.613281 10.179688 15.585938 10.15625 C 15.214844 9.855469 14.574219 9.367188 14.433594 9.328125 C 14.40625 9.320312 14.378906 9.300781 14.367188 9.269531 L 14.210938 8.882812 L 13.441406 8.992188 C 13.492188 9.203125 13.65625 9.71875 14.097656 9.992188 Z M 13.324219 8.910156 Z M 13.324219 8.910156 " fill-opacity="1" fill-rule="nonzero"/><path fill="#ffffff" d="M 14.257812 7.492188 L 15.355469 8.125 C 15.355469 8.125 16.378906 8.132812 16.554688 8.667969 C 16.578125 8.730469 16.546875 8.796875 16.492188 8.824219 C 16.453125 8.839844 16.40625 8.851562 16.335938 8.851562 C 16.335938 8.851562 15.917969 8.703125 15.71875 8.746094 C 15.71875 8.746094 15.832031 8.808594 15.914062 8.859375 C 15.976562 8.898438 15.996094 8.992188 15.941406 9.046875 C 15.914062 9.078125 15.863281 9.097656 15.785156 9.078125 C 15.785156 9.078125 15.289062 8.945312 15.210938 8.648438 L 14.296875 8.398438 Z M 14.257812 7.492188 " fill-opacity="1" fill-rule="nonzero"/><path fill="#1800ad" d="M 15.84375 9.183594 C 15.820312 9.183594 15.792969 9.179688 15.761719 9.175781 C 15.707031 9.160156 15.261719 9.03125 15.136719 8.730469 L 14.269531 8.496094 C 14.230469 8.484375 14.199219 8.445312 14.199219 8.402344 L 14.160156 7.496094 C 14.15625 7.460938 14.175781 7.425781 14.207031 7.410156 C 14.238281 7.390625 14.273438 7.390625 14.304688 7.40625 L 15.382812 8.027344 C 15.554688 8.035156 16.46875 8.085938 16.648438 8.640625 C 16.6875 8.75 16.632812 8.867188 16.53125 8.914062 C 16.476562 8.941406 16.410156 8.953125 16.335938 8.949219 C 16.324219 8.949219 16.3125 8.945312 16.304688 8.945312 C 16.238281 8.921875 16.144531 8.894531 16.050781 8.871094 C 16.058594 8.894531 16.066406 8.914062 16.070312 8.941406 C 16.078125 9.003906 16.058594 9.070312 16.015625 9.113281 C 15.980469 9.148438 15.929688 9.183594 15.84375 9.183594 Z M 14.394531 8.324219 L 15.238281 8.554688 C 15.273438 8.5625 15.300781 8.589844 15.308594 8.625 C 15.359375 8.820312 15.6875 8.949219 15.8125 8.984375 C 15.820312 8.984375 15.859375 8.992188 15.871094 8.980469 C 15.871094 8.980469 15.875 8.976562 15.875 8.964844 C 15.875 8.957031 15.867188 8.949219 15.859375 8.941406 C 15.785156 8.894531 15.671875 8.832031 15.671875 8.832031 C 15.632812 8.808594 15.617188 8.769531 15.621094 8.730469 C 15.628906 8.6875 15.660156 8.65625 15.699219 8.648438 C 15.902344 8.609375 16.265625 8.722656 16.355469 8.753906 C 16.390625 8.753906 16.425781 8.746094 16.449219 8.734375 C 16.460938 8.730469 16.46875 8.714844 16.460938 8.699219 C 16.335938 8.316406 15.621094 8.226562 15.355469 8.226562 C 15.339844 8.226562 15.324219 8.21875 15.308594 8.210938 L 14.363281 7.667969 L 14.390625 8.324219 Z M 14.394531 8.324219 " fill-opacity="1" fill-rule="nonzero"/><path fill="#ffffff" d="M 12.464844 11.21875 L 12.382812 12.890625 L 12.375 13.0625 C 12.375 13.183594 12.285156 13.417969 12.195312 13.621094 C 12.097656 13.839844 12 14.023438 12 14.023438 C 11.953125 14.394531 11.734375 14.546875 11.734375 14.546875 C 11.625 14.65625 11.34375 15.226562 11.34375 15.226562 C 11.238281 15.617188 11.0625 15.789062 11.0625 15.789062 L 11.035156 15.9375 C 11.007812 15.949219 10.980469 15.957031 10.953125 15.964844 C 10.433594 16.117188 9.816406 15.832031 9.816406 15.832031 C 9.707031 14.667969 10.617188 13.171875 10.617188 13.171875 C 10.5625 13.011719 10.71875 12.847656 10.71875 12.847656 C 10.503906 12.597656 10.574219 12.175781 10.574219 12.175781 C 10.328125 11.6875 10.28125 11.023438 10.28125 11.023438 C 10.761719 10.984375 10.867188 10.652344 10.871094 10.382812 C 10.875 10.1875 10.828125 10.023438 10.828125 10.023438 C 10.351562 9.988281 9.820312 9.515625 9.804688 9.503906 C 9.84375 9.085938 9.945312 8.742188 9.992188 8.589844 C 10.242188 9.945312 12.210938 9.492188 12.210938 9.492188 C 12.246094 9.496094 12.285156 9.488281 12.324219 9.472656 C 12.582031 9.953125 12.464844 11.21875 12.464844 11.21875 Z M 12.464844 11.21875 " fill-opacity="1" fill-rule="nonzero"/><path fill="#1800ad" d="M 10.617188 16.109375 C 10.183594 16.109375 9.792969 15.929688 9.773438 15.921875 C 9.742188 15.90625 9.71875 15.875 9.714844 15.839844 C 9.617188 14.746094 10.371094 13.398438 10.511719 13.15625 C 10.488281 13.03125 10.546875 12.914062 10.59375 12.847656 C 10.441406 12.609375 10.460938 12.292969 10.46875 12.191406 C 10.230469 11.695312 10.1875 11.058594 10.183594 11.03125 C 10.179688 10.976562 10.222656 10.929688 10.273438 10.925781 C 10.601562 10.898438 10.765625 10.722656 10.773438 10.378906 C 10.773438 10.273438 10.757812 10.175781 10.746094 10.113281 C 10.257812 10.039062 9.761719 9.59375 9.738281 9.574219 C 9.714844 9.554688 9.703125 9.523438 9.707031 9.492188 C 9.746094 9.074219 9.84375 8.726562 9.898438 8.558594 C 9.914062 8.515625 9.953125 8.488281 10 8.488281 C 10.042969 8.492188 10.082031 8.527344 10.089844 8.570312 C 10.140625 8.855469 10.28125 9.078125 10.507812 9.226562 C 11.125 9.632812 12.175781 9.398438 12.1875 9.398438 C 12.195312 9.394531 12.207031 9.394531 12.214844 9.394531 C 12.234375 9.394531 12.261719 9.390625 12.289062 9.378906 C 12.335938 9.363281 12.386719 9.382812 12.410156 9.425781 C 12.675781 9.921875 12.570312 11.144531 12.5625 11.226562 L 12.472656 13.0625 C 12.472656 13.179688 12.410156 13.375 12.285156 13.660156 C 12.203125 13.84375 12.121094 14.003906 12.097656 14.054688 C 12.042969 14.414062 11.847656 14.585938 11.800781 14.621094 C 11.726562 14.703125 11.542969 15.050781 11.4375 15.261719 C 11.347656 15.585938 11.207031 15.769531 11.152344 15.832031 L 11.128906 15.957031 C 11.125 15.988281 11.101562 16.015625 11.070312 16.03125 C 11.042969 16.039062 11.011719 16.050781 10.980469 16.058594 C 10.859375 16.09375 10.738281 16.109375 10.617188 16.109375 Z M 11.035156 15.9375 Z M 9.90625 15.765625 C 10.0625 15.828125 10.53125 15.988281 10.925781 15.871094 C 10.933594 15.871094 10.9375 15.867188 10.945312 15.863281 L 10.964844 15.769531 C 10.96875 15.75 10.980469 15.730469 10.992188 15.71875 C 10.992188 15.714844 11.152344 15.554688 11.25 15.199219 C 11.253906 15.195312 11.253906 15.1875 11.257812 15.183594 C 11.304688 15.085938 11.546875 14.59375 11.664062 14.476562 C 11.667969 14.472656 11.675781 14.46875 11.679688 14.464844 C 11.6875 14.460938 11.863281 14.332031 11.90625 14.011719 C 11.90625 14 11.910156 13.988281 11.914062 13.976562 C 11.917969 13.976562 12.011719 13.792969 12.105469 13.582031 C 12.253906 13.242188 12.277344 13.109375 12.277344 13.058594 C 12.277344 13.011719 12.277344 13.058594 12.277344 13.054688 L 12.367188 11.214844 C 12.367188 11.210938 12.367188 11.210938 12.367188 11.207031 C 12.367188 11.195312 12.46875 10.082031 12.269531 9.589844 C 12.253906 9.589844 12.234375 9.589844 12.21875 9.589844 C 12.085938 9.621094 11.058594 9.824219 10.402344 9.390625 C 10.222656 9.273438 10.089844 9.121094 10 8.933594 C 9.964844 9.078125 9.929688 9.261719 9.910156 9.460938 C 10.035156 9.566406 10.460938 9.898438 10.835938 9.925781 C 10.875 9.929688 10.910156 9.957031 10.921875 9.996094 C 10.921875 10.003906 10.972656 10.175781 10.96875 10.382812 C 10.960938 10.789062 10.757812 11.042969 10.390625 11.109375 C 10.410156 11.304688 10.480469 11.769531 10.660156 12.132812 C 10.667969 12.148438 10.671875 12.171875 10.667969 12.191406 C 10.667969 12.195312 10.613281 12.574219 10.792969 12.785156 C 10.824219 12.824219 10.824219 12.878906 10.789062 12.917969 C 10.785156 12.917969 10.675781 13.039062 10.710938 13.140625 C 10.71875 13.167969 10.714844 13.199219 10.699219 13.222656 C 10.691406 13.238281 9.839844 14.65625 9.910156 15.765625 Z M 9.90625 15.765625 " fill-opacity="1" fill-rule="nonzero"/><path fill="#ffffff" d="M 10.871094 10.382812 C 10.328125 10.328125 9.988281 10.125 9.796875 9.960938 C 9.792969 9.941406 9.792969 9.933594 9.792969 9.933594 C 9.785156 9.785156 9.792969 9.640625 9.804688 9.5 C 9.820312 9.515625 10.347656 9.984375 10.828125 10.023438 C 10.828125 10.023438 10.875 10.1875 10.871094 10.378906 Z M 10.871094 10.382812 " fill-opacity="1" fill-rule="nonzero"/><path fill="#1800ad" d="M 10.871094 10.480469 C 10.867188 10.480469 10.863281 10.480469 10.859375 10.480469 C 10.292969 10.425781 9.933594 10.207031 9.734375 10.035156 C 9.714844 10.023438 9.703125 10 9.699219 9.980469 C 9.695312 9.957031 9.695312 9.945312 9.695312 9.945312 C 9.695312 9.941406 9.695312 9.9375 9.695312 9.9375 C 9.6875 9.796875 9.691406 9.648438 9.707031 9.492188 C 9.710938 9.457031 9.734375 9.425781 9.769531 9.410156 C 9.804688 9.398438 9.84375 9.402344 9.871094 9.429688 C 9.875 9.433594 10.390625 9.890625 10.835938 9.925781 C 10.875 9.929688 10.910156 9.957031 10.921875 9.996094 C 10.921875 10.003906 10.972656 10.175781 10.96875 10.382812 C 10.96875 10.410156 10.957031 10.4375 10.9375 10.457031 C 10.917969 10.472656 10.894531 10.480469 10.871094 10.480469 Z M 9.890625 9.910156 C 10.058594 10.046875 10.339844 10.207031 10.769531 10.269531 C 10.761719 10.207031 10.753906 10.152344 10.746094 10.113281 C 10.414062 10.0625 10.078125 9.839844 9.890625 9.699219 C 9.886719 9.769531 9.886719 9.84375 9.890625 9.910156 Z M 9.890625 9.910156 " fill-opacity="1" fill-rule="nonzero"/><path fill="#ffffff" d="M 10.871094 10.382812 C 10.867188 10.652344 10.757812 10.984375 10.28125 11.023438 C 9.941406 10.742188 9.820312 10.105469 9.796875 9.960938 C 9.988281 10.125 10.328125 10.328125 10.871094 10.382812 Z M 10.871094 10.382812 " fill-opacity="1" fill-rule="nonzero"/><path fill="#1800ad" d="M 10.28125 11.121094 C 10.257812 11.121094 10.238281 11.113281 10.21875 11.097656 C 9.859375 10.800781 9.730469 10.164062 9.699219 9.976562 C 9.691406 9.9375 9.710938 9.894531 9.75 9.875 C 9.785156 9.855469 9.828125 9.859375 9.859375 9.886719 C 10.039062 10.039062 10.363281 10.230469 10.878906 10.285156 C 10.929688 10.289062 10.96875 10.332031 10.96875 10.382812 C 10.960938 10.824219 10.71875 11.085938 10.289062 11.121094 C 10.289062 11.121094 10.285156 11.121094 10.28125 11.121094 Z M 9.945312 10.191406 C 10.007812 10.417969 10.121094 10.738281 10.316406 10.921875 C 10.589844 10.886719 10.738281 10.738281 10.765625 10.46875 C 10.410156 10.421875 10.140625 10.308594 9.945312 10.191406 Z M 9.945312 10.191406 " fill-opacity="1" fill-rule="nonzero"/><path fill="#1800ad" d="M 9.804688 9.601562 C 9.78125 9.601562 9.753906 9.589844 9.734375 9.570312 C 9.695312 9.53125 9.695312 9.46875 9.734375 9.433594 C 9.773438 9.394531 9.835938 9.394531 9.875 9.433594 C 9.914062 9.46875 9.914062 9.53125 9.875 9.570312 C 9.855469 9.589844 9.832031 9.601562 9.804688 9.601562 Z M 9.804688 9.601562 " fill-opacity="1" fill-rule="nonzero"/><path fill="#ffffff" d="M 13.570312 12.890625 C 13.167969 13.105469 12.382812 12.890625 12.382812 12.890625 L 12.464844 11.21875 C 12.464844 11.21875 12.582031 9.953125 12.324219 9.472656 C 12.359375 9.457031 12.398438 9.4375 12.441406 9.410156 C 12.464844 9.394531 12.492188 9.375 12.515625 9.355469 C 12.640625 9.550781 13.578125 10.007812 13.578125 10.007812 C 14.304688 10.308594 14.4375 10.667969 14.4375 10.667969 C 14.753906 11.402344 13.570312 12.890625 13.570312 12.890625 Z M 13.570312 12.890625 " fill-opacity="1" fill-rule="nonzero"/><path fill="#1800ad" d="M 13.082031 13.085938 C 12.722656 13.085938 12.378906 12.992188 12.355469 12.984375 C 12.3125 12.972656 12.28125 12.933594 12.285156 12.886719 L 12.367188 11.214844 C 12.367188 11.210938 12.367188 11.210938 12.367188 11.207031 C 12.367188 11.195312 12.476562 9.96875 12.238281 9.519531 C 12.222656 9.492188 12.222656 9.464844 12.230469 9.4375 C 12.242188 9.410156 12.261719 9.390625 12.289062 9.378906 C 12.316406 9.367188 12.351562 9.351562 12.386719 9.328125 C 12.40625 9.3125 12.429688 9.296875 12.457031 9.277344 C 12.476562 9.261719 12.507812 9.253906 12.535156 9.257812 C 12.5625 9.261719 12.585938 9.277344 12.601562 9.300781 C 12.675781 9.421875 13.242188 9.734375 13.621094 9.921875 C 14.34375 10.222656 14.511719 10.589844 14.53125 10.632812 C 14.863281 11.410156 13.695312 12.890625 13.648438 12.949219 C 13.640625 12.960938 13.628906 12.96875 13.617188 12.976562 C 13.46875 13.058594 13.273438 13.085938 13.082031 13.085938 Z M 13.570312 12.890625 Z M 12.484375 12.8125 C 12.679688 12.859375 13.210938 12.957031 13.507812 12.8125 C 13.832031 12.398438 14.585938 11.257812 14.347656 10.710938 C 14.347656 10.707031 14.347656 10.707031 14.347656 10.703125 C 14.34375 10.703125 14.207031 10.378906 13.542969 10.101562 C 13.539062 10.101562 13.539062 10.101562 13.535156 10.097656 C 13.394531 10.027344 12.742188 9.703125 12.503906 9.488281 C 12.5 9.488281 12.496094 9.492188 12.496094 9.492188 C 12.480469 9.503906 12.464844 9.511719 12.453125 9.519531 C 12.664062 10.058594 12.570312 11.152344 12.5625 11.226562 Z M 12.484375 12.8125 " fill-opacity="1" fill-rule="nonzero"/><path fill="#1800ad" d="M 12.941406 11.582031 C 12.929688 11.582031 12.914062 11.582031 12.902344 11.574219 C 12.628906 11.46875 12.445312 11.242188 12.4375 11.234375 C 12.402344 11.191406 12.410156 11.128906 12.453125 11.09375 C 12.496094 11.058594 12.554688 11.066406 12.589844 11.109375 C 12.589844 11.113281 12.75 11.304688 12.976562 11.394531 C 13.027344 11.414062 13.050781 11.46875 13.03125 11.519531 C 13.015625 11.558594 12.980469 11.582031 12.941406 11.582031 Z M 12.941406 11.582031 " fill-opacity="1" fill-rule="nonzero"/><path fill="#1800ad" d="M 14.292969 13.496094 C 14.292969 13.496094 14.222656 13.898438 13.652344 13.832031 L 13.179688 13.671875 C 13.179688 13.671875 12.632812 13.875 12.195312 13.621094 C 12.285156 13.414062 12.375 13.183594 12.375 13.058594 L 12.382812 12.890625 C 12.382812 12.890625 13.167969 13.105469 13.570312 12.890625 C 13.570312 12.890625 14.359375 12.84375 14.292969 13.496094 Z M 14.292969 13.496094 " fill-opacity="1" fill-rule="nonzero"/><path fill="#1800ad" d="M 13.777344 13.9375 C 13.734375 13.9375 13.691406 13.933594 13.640625 13.929688 C 13.636719 13.929688 13.628906 13.925781 13.621094 13.925781 L 13.179688 13.773438 C 13.046875 13.816406 12.558594 13.945312 12.144531 13.707031 C 12.101562 13.683594 12.085938 13.628906 12.105469 13.582031 C 12.253906 13.242188 12.277344 13.109375 12.277344 13.058594 C 12.277344 13.011719 12.277344 13.058594 12.277344 13.054688 L 12.285156 12.886719 C 12.285156 12.855469 12.300781 12.828125 12.324219 12.8125 C 12.347656 12.792969 12.378906 12.789062 12.410156 12.796875 C 12.417969 12.796875 13.164062 13 13.523438 12.804688 C 13.535156 12.796875 13.550781 12.792969 13.5625 12.792969 C 13.582031 12.789062 14.007812 12.769531 14.246094 13.019531 C 14.363281 13.140625 14.410156 13.304688 14.390625 13.507812 C 14.390625 13.511719 14.390625 13.511719 14.390625 13.515625 C 14.390625 13.519531 14.308594 13.9375 13.777344 13.9375 Z M 13.675781 13.734375 C 14.109375 13.78125 14.1875 13.527344 14.195312 13.484375 C 14.210938 13.34375 14.179688 13.234375 14.101562 13.152344 C 13.96875 13.011719 13.707031 12.984375 13.597656 12.988281 C 13.257812 13.15625 12.714844 13.066406 12.476562 13.015625 L 12.472656 13.0625 C 12.472656 13.167969 12.421875 13.335938 12.320312 13.578125 C 12.699219 13.738281 13.140625 13.582031 13.144531 13.578125 C 13.167969 13.570312 13.191406 13.570312 13.210938 13.578125 Z M 14.292969 13.496094 Z M 14.292969 13.496094 " fill-opacity="1" fill-rule="nonzero"/><path fill="#1800ad" d="M 12.195312 13.71875 C 12.140625 13.71875 12.097656 13.675781 12.097656 13.621094 C 12.097656 13.566406 12.140625 13.523438 12.195312 13.523438 C 12.25 13.523438 12.292969 13.566406 12.292969 13.621094 C 12.292969 13.675781 12.25 13.71875 12.195312 13.71875 Z M 12.195312 13.71875 " fill-opacity="1" fill-rule="nonzero"/><path fill="#1800ad" d="M 11.589844 16.875 C 10.75 17.078125 10.332031 16.664062 10.332031 16.664062 L 10.238281 16.78125 C 9.949219 16.789062 9.679688 16.648438 9.679688 16.648438 C 9.644531 16.230469 9.816406 15.832031 9.816406 15.832031 C 9.816406 15.832031 10.433594 16.117188 10.953125 15.964844 C 10.992188 16.152344 11.488281 16.332031 11.488281 16.332031 C 11.765625 16.53125 11.589844 16.875 11.589844 16.875 Z M 11.589844 16.875 " fill-opacity="1" fill-rule="nonzero"/><path fill="#1800ad" d="M 11.140625 17.03125 C 10.738281 17.03125 10.472656 16.890625 10.347656 16.804688 L 10.3125 16.84375 C 10.292969 16.867188 10.265625 16.878906 10.238281 16.882812 C 10.230469 16.882812 10.226562 16.882812 10.21875 16.882812 C 9.917969 16.882812 9.644531 16.742188 9.632812 16.734375 C 9.605469 16.71875 9.582031 16.691406 9.582031 16.65625 C 9.546875 16.21875 9.714844 15.8125 9.722656 15.792969 C 9.734375 15.769531 9.753906 15.75 9.777344 15.742188 C 9.804688 15.730469 9.832031 15.730469 9.855469 15.742188 C 9.859375 15.746094 10.445312 16.011719 10.925781 15.871094 C 10.949219 15.863281 10.980469 15.867188 11.003906 15.882812 C 11.027344 15.894531 11.042969 15.917969 11.050781 15.945312 C 11.066406 16.023438 11.3125 16.164062 11.523438 16.238281 C 11.53125 16.242188 11.539062 16.246094 11.546875 16.25 C 11.820312 16.449219 11.75 16.777344 11.675781 16.921875 C 11.664062 16.949219 11.640625 16.964844 11.613281 16.972656 C 11.4375 17.015625 11.28125 17.03125 11.140625 17.03125 Z M 11.589844 16.875 Z M 11.589844 16.875 Z M 10.332031 16.566406 C 10.355469 16.566406 10.382812 16.578125 10.398438 16.59375 C 10.414062 16.609375 10.777344 16.949219 11.519531 16.792969 C 11.546875 16.710938 11.589844 16.535156 11.441406 16.417969 C 11.320312 16.375 11.015625 16.25 10.898438 16.082031 C 10.492188 16.167969 10.0625 16.035156 9.871094 15.964844 C 9.828125 16.089844 9.765625 16.332031 9.773438 16.585938 C 9.851562 16.617188 10.015625 16.675781 10.1875 16.683594 L 10.253906 16.601562 C 10.269531 16.582031 10.296875 16.570312 10.324219 16.566406 C 10.328125 16.566406 10.328125 16.566406 10.332031 16.566406 Z M 10.332031 16.566406 " fill-opacity="1" fill-rule="nonzero"/><path fill="#1800ad" d="M 10.953125 16.0625 C 10.898438 16.0625 10.855469 16.019531 10.855469 15.964844 C 10.855469 15.910156 10.898438 15.867188 10.953125 15.867188 C 11.007812 15.867188 11.050781 15.910156 11.050781 15.964844 C 11.050781 16.019531 11.007812 16.066406 10.953125 16.066406 Z M 10.953125 16.0625 " fill-opacity="1" fill-rule="nonzero"/><path fill="#1800ad" d="M 11.199219 13.085938 C 10.746094 13.085938 10.644531 12.925781 10.628906 12.890625 L 10.804688 12.804688 C 10.804688 12.804688 10.804688 12.800781 10.800781 12.796875 C 10.800781 12.800781 10.882812 12.902344 11.269531 12.890625 C 11.320312 12.886719 11.367188 12.929688 11.371094 12.984375 C 11.371094 13.039062 11.328125 13.085938 11.277344 13.085938 C 11.25 13.085938 11.222656 13.089844 11.199219 13.089844 Z M 11.199219 13.085938 " fill-opacity="1" fill-rule="nonzero"/><path fill="#1800ad" d="M 11.117188 13.382812 C 10.78125 13.382812 10.578125 13.261719 10.566406 13.257812 C 10.519531 13.226562 10.503906 13.167969 10.53125 13.121094 C 10.558594 13.074219 10.621094 13.058594 10.667969 13.085938 C 10.679688 13.097656 10.996094 13.277344 11.492188 13.128906 C 11.546875 13.117188 11.601562 13.144531 11.617188 13.199219 C 11.632812 13.25 11.601562 13.304688 11.550781 13.320312 C 11.386719 13.367188 11.242188 13.382812 11.117188 13.382812 Z M 11.117188 13.382812 " fill-opacity="1" fill-rule="nonzero"/><path fill="#ffffff" d="M 17.136719 12.703125 C 16.992188 12.800781 16.734375 12.976562 16.597656 13.070312 L 16.5625 12.945312 L 16.589844 12.914062 L 16.285156 12.3125 C 16.285156 12.3125 16.492188 12.109375 16.945312 12.617188 L 17.042969 12.59375 Z M 17.136719 12.703125 " fill-opacity="1" fill-rule="nonzero"/><path fill="#1800ad" d="M 16.597656 13.167969 C 16.585938 13.167969 16.578125 13.167969 16.566406 13.164062 C 16.535156 13.152344 16.511719 13.128906 16.503906 13.097656 L 16.46875 12.972656 C 16.460938 12.949219 16.464844 12.921875 16.476562 12.898438 L 16.195312 12.355469 C 16.175781 12.316406 16.183594 12.269531 16.214844 12.242188 C 16.226562 12.230469 16.296875 12.167969 16.425781 12.171875 C 16.589844 12.179688 16.777344 12.292969 16.980469 12.507812 L 17.019531 12.496094 C 17.054688 12.488281 17.09375 12.5 17.117188 12.527344 L 17.210938 12.640625 C 17.230469 12.660156 17.238281 12.6875 17.234375 12.714844 C 17.230469 12.746094 17.214844 12.769531 17.191406 12.785156 C 17.058594 12.875 16.824219 13.035156 16.683594 13.128906 L 16.652344 13.152344 C 16.636719 13.164062 16.617188 13.167969 16.597656 13.167969 Z M 16.425781 12.371094 L 16.679688 12.867188 C 16.683594 12.875 16.6875 12.882812 16.6875 12.890625 C 16.769531 12.835938 16.863281 12.769531 16.949219 12.714844 C 16.917969 12.714844 16.890625 12.703125 16.871094 12.679688 C 16.660156 12.445312 16.511719 12.378906 16.425781 12.371094 Z M 16.425781 12.371094 " fill-opacity="1" fill-rule="nonzero"/><path fill="#ffffff" d="M 17.867188 13.789062 L 17.375 14.171875 L 17.285156 14.0625 L 17.097656 13.84375 L 17.683594 13.335938 L 17.890625 13.574219 L 17.902344 13.589844 C 17.902344 13.589844 17.992188 13.671875 17.867188 13.789062 Z M 17.867188 13.789062 " fill-opacity="1" fill-rule="nonzero"/><path fill="#1800ad" d="M 17.375 14.269531 C 17.347656 14.269531 17.320312 14.257812 17.300781 14.234375 L 17.023438 13.910156 C 16.988281 13.867188 16.992188 13.804688 17.03125 13.769531 L 17.621094 13.261719 C 17.660156 13.226562 17.722656 13.230469 17.757812 13.273438 L 17.972656 13.523438 C 17.992188 13.539062 18.03125 13.589844 18.03125 13.667969 C 18.03125 13.734375 18 13.800781 17.933594 13.863281 C 17.929688 13.863281 17.929688 13.867188 17.925781 13.867188 L 17.4375 14.25 C 17.417969 14.265625 17.398438 14.269531 17.375 14.269531 Z M 17.234375 13.855469 L 17.390625 14.035156 L 17.800781 13.714844 C 17.8125 13.703125 17.84375 13.675781 17.832031 13.660156 C 17.828125 13.65625 17.832031 13.65625 17.828125 13.652344 L 17.675781 13.476562 Z M 17.867188 13.789062 Z M 17.867188 13.789062 " fill-opacity="1" fill-rule="nonzero"/><path fill="#1800ad" d="M 16.597656 13.070312 L 16.621094 13.144531 L 16.625 13.164062 L 16.894531 13.566406 L 16.90625 13.585938 C 16.957031 13.539062 17.082031 13.621094 17.082031 13.621094 C 17.191406 13.746094 17.089844 13.832031 17.089844 13.832031 L 17.097656 13.84375 L 17.683594 13.335938 L 17.136719 12.703125 C 16.992188 12.800781 16.734375 12.976562 16.597656 13.070312 Z M 16.597656 13.070312 " fill-opacity="1" fill-rule="nonzero"/><path fill="#1800ad" d="M 17.097656 13.941406 C 17.09375 13.941406 17.09375 13.941406 17.089844 13.941406 C 17.0625 13.941406 17.039062 13.929688 17.023438 13.910156 L 17.011719 13.898438 C 16.996094 13.878906 16.984375 13.851562 16.988281 13.824219 C 16.992188 13.796875 17.003906 13.777344 17.023438 13.761719 C 17.027344 13.757812 17.046875 13.738281 17.015625 13.695312 C 16.996094 13.683594 16.96875 13.675781 16.957031 13.671875 C 16.9375 13.683594 16.917969 13.6875 16.894531 13.683594 C 16.867188 13.679688 16.839844 13.664062 16.824219 13.640625 L 16.542969 13.21875 C 16.539062 13.210938 16.535156 13.199219 16.53125 13.191406 L 16.503906 13.097656 C 16.492188 13.058594 16.507812 13.015625 16.542969 12.988281 C 16.679688 12.898438 16.9375 12.722656 17.082031 12.621094 C 17.125 12.59375 17.179688 12.601562 17.210938 12.640625 L 17.757812 13.273438 C 17.777344 13.292969 17.785156 13.320312 17.78125 13.34375 C 17.78125 13.371094 17.769531 13.394531 17.75 13.414062 L 17.160156 13.917969 C 17.144531 13.933594 17.121094 13.941406 17.097656 13.941406 Z M 16.953125 13.472656 C 17.027344 13.472656 17.105469 13.519531 17.136719 13.539062 C 17.144531 13.542969 17.152344 13.550781 17.15625 13.558594 C 17.175781 13.578125 17.191406 13.601562 17.203125 13.625 L 17.546875 13.328125 L 17.121094 12.835938 C 16.996094 12.917969 16.832031 13.03125 16.714844 13.109375 L 16.714844 13.121094 Z M 16.953125 13.472656 " fill-opacity="1" fill-rule="nonzero"/><path fill="#ffffff" d="M 16.507812 13.230469 L 16.542969 13.285156 L 16.765625 13.597656 L 16.792969 13.640625 L 16.894531 13.566406 L 16.625 13.164062 L 16.621094 13.144531 Z M 16.507812 13.230469 " fill-opacity="1" fill-rule="nonzero"/><path fill="#1800ad" d="M 16.792969 13.738281 C 16.785156 13.738281 16.78125 13.738281 16.773438 13.734375 C 16.75 13.730469 16.726562 13.71875 16.710938 13.695312 L 16.425781 13.289062 C 16.394531 13.246094 16.40625 13.1875 16.449219 13.152344 L 16.5625 13.066406 C 16.585938 13.046875 16.621094 13.042969 16.652344 13.054688 C 16.683594 13.0625 16.707031 13.085938 16.714844 13.117188 L 16.714844 13.121094 C 16.714844 13.121094 16.976562 13.511719 16.976562 13.511719 C 17.007812 13.558594 16.996094 13.617188 16.953125 13.648438 L 16.847656 13.71875 C 16.832031 13.730469 16.8125 13.738281 16.792969 13.738281 Z M 16.792969 13.738281 " fill-opacity="1" fill-rule="nonzero"/><path fill="#ffffff" d="M 14.441406 14.804688 C 14.421875 14.875 14.429688 14.953125 14.472656 15.019531 C 14.558594 15.148438 14.730469 15.175781 14.851562 15.082031 L 16.765625 13.597656 L 16.542969 13.285156 L 14.542969 14.660156 C 14.492188 14.695312 14.457031 14.75 14.441406 14.804688 Z M 14.441406 14.804688 " fill-opacity="1" fill-rule="nonzero"/><path fill="#1800ad" d="M 14.691406 15.234375 C 14.671875 15.234375 14.652344 15.234375 14.632812 15.230469 C 14.535156 15.214844 14.445312 15.160156 14.390625 15.074219 C 14.335938 14.988281 14.316406 14.878906 14.34375 14.78125 C 14.367188 14.699219 14.417969 14.628906 14.488281 14.578125 L 16.488281 13.203125 C 16.53125 13.171875 16.59375 13.183594 16.625 13.230469 L 16.84375 13.542969 C 16.875 13.585938 16.867188 13.644531 16.824219 13.675781 L 14.910156 15.160156 C 14.847656 15.210938 14.769531 15.234375 14.691406 15.234375 Z M 16.519531 13.421875 L 14.597656 14.742188 C 14.566406 14.765625 14.546875 14.796875 14.535156 14.832031 C 14.523438 14.878906 14.53125 14.925781 14.554688 14.964844 C 14.582031 15.003906 14.621094 15.03125 14.664062 15.035156 C 14.710938 15.042969 14.753906 15.03125 14.792969 15.003906 L 16.628906 13.578125 Z M 14.441406 14.804688 Z M 14.441406 14.804688 " fill-opacity="1" fill-rule="nonzero"/></svg>