<svg xmlns="http://www.w3.org/2000/svg" xmlns:xlink="http://www.w3.org/1999/xlink" width="40" zoomAndPan="magnify" viewBox="0 0 30 37.92" height="40" preserveAspectRatio="xMidYMid meet" version="1.0"><defs><clipPath id="3fc79705d9"><path d="M 3.113281 0.683594 L 26.886719 0.683594 L 26.886719 29.300781 L 3.113281 29.300781 Z M 3.113281 0.683594 " clip-rule="nonzero"/></clipPath><clipPath id="70e8edad38"><path d="M 19.457031 1.550781 C 18.035156 0.976562 16.539062 0.683594 15 0.683594 C 13.460938 0.683594 11.964844 0.976562 10.542969 1.550781 C 9.078125 2.144531 7.757812 3.019531 6.632812 4.148438 C 4.429688 6.355469 3.199219 9.285156 3.167969 12.402344 C 3.136719 15.511719 4.304688 18.464844 6.460938 20.707031 L 6.453125 20.710938 L 15 29.257812 L 23.5 20.757812 L 23.492188 20.753906 C 25.667969 18.511719 26.855469 15.558594 26.832031 12.433594 C 26.8125 9.300781 25.582031 6.363281 23.367188 4.148438 C 22.234375 3.019531 20.921875 2.144531 19.457031 1.550781 Z M 19.457031 1.550781 " clip-rule="nonzero"/></clipPath><clipPath id="b59b60ed8c"><path d="M 0.144531 0.683594 L 23.855469 0.683594 L 23.855469 29.300781 L 0.144531 29.300781 Z M 0.144531 0.683594 " clip-rule="nonzero"/></clipPath><clipPath id="c9ef6cb769"><path d="M 16.457031 1.550781 C 15.035156 0.976562 13.539062 0.683594 12 0.683594 C 10.460938 0.683594 8.964844 0.976562 7.542969 1.550781 C 6.078125 2.144531 4.757812 3.019531 3.632812 4.148438 C 1.429688 6.355469 0.199219 9.285156 0.167969 12.402344 C 0.136719 15.511719 1.304688 18.464844 3.460938 20.707031 L 3.453125 20.710938 L 12 29.257812 L 20.5 20.757812 L 20.492188 20.753906 C 22.667969 18.511719 23.855469 15.558594 23.832031 12.433594 C 23.8125 9.300781 22.582031 6.363281 20.367188 4.148438 C 19.234375 3.019531 17.921875 2.144531 16.457031 1.550781 Z M 16.457031 1.550781 " clip-rule="nonzero"/></clipPath><clipPath id="6f8d527544"><rect x="0" width="24" y="0" height="30"/></clipPath><clipPath id="5922e8530d"><path d="M 4.261719 1.777344 L 25.738281 1.777344 L 25.738281 23.203125 L 4.261719 23.203125 Z M 4.261719 1.777344 " clip-rule="nonzero"/></clipPath><clipPath id="ba5a58aaad"><path d="M 14.996094 1.789062 C 9.089844 1.789062 4.300781 6.578125 4.300781 12.484375 C 4.300781 18.390625 9.089844 23.179688 14.996094 23.179688 C 20.902344 23.179688 25.691406 18.390625 25.691406 12.484375 C 25.691406 6.578125 20.902344 1.789062 14.996094 1.789062 Z M 14.996094 1.789062 " clip-rule="nonzero"/></clipPath><clipPath id="85f756dd06"><path d="M 0.261719 0.777344 L 21.738281 0.777344 L 21.738281 22.203125 L 0.261719 22.203125 Z M 0.261719 0.777344 " clip-rule="nonzero"/></clipPath><clipPath id="5b823e44f3"><path d="M 10.996094 0.789062 C 5.089844 0.789062 0.300781 5.578125 0.300781 11.484375 C 0.300781 17.390625 5.089844 22.179688 10.996094 22.179688 C 16.902344 22.179688 21.691406 17.390625 21.691406 11.484375 C 21.691406 5.578125 16.902344 0.789062 10.996094 0.789062 Z M 10.996094 0.789062 " clip-rule="nonzero"/></clipPath><clipPath id="aeaa7e96c2"><rect x="0" width="22" y="0" height="23"/></clipPath><clipPath id="c59bfabbf8"><path d="M 5.960938 8 L 15 8 L 15 19 L 5.960938 19 Z M 5.960938 8 " clip-rule="nonzero"/></clipPath><clipPath id="1d36bbe6e3"><path d="M 13 4.128906 L 16 4.128906 L 16 8 L 13 8 Z M 13 4.128906 " clip-rule="nonzero"/></clipPath><clipPath id="af0d62272c"><path d="M 12 16 L 15 16 L 15 20.59375 L 12 20.59375 Z M 12 16 " clip-rule="nonzero"/></clipPath><clipPath id="dd60b03775"><path d="M 11 20 L 13 20 L 13 20.59375 L 11 20.59375 Z M 11 20 " clip-rule="nonzero"/></clipPath><clipPath id="2f84c6bcc0"><path d="M 14 20 L 16 20 L 16 20.59375 L 14 20.59375 Z M 14 20 " clip-rule="nonzero"/></clipPath><clipPath id="f058b29f6c"><path d="M 14 9 L 21.675781 9 L 21.675781 20.59375 L 14 20.59375 Z M 14 9 " clip-rule="nonzero"/></clipPath></defs><g clip-path="url(#3fc79705d9)"><g clip-path="url(#70e8edad38)"><g transform="matrix(1, 0, 0, 1, 3, 0.000000000000005773)"><g clip-path="url(#6f8d527544)"><g clip-path="url(#b59b60ed8c)"><g clip-path="url(#c9ef6cb769)"><path fill="#faab11" d="M 0.167969 0.683594 L 23.832031 0.683594 L 23.832031 29.25 L 0.167969 29.25 Z M 0.167969 0.683594 " fill-opacity="1" fill-rule="nonzero"/></g></g></g></g></g></g><g clip-path="url(#5922e8530d)"><g clip-path="url(#ba5a58aaad)"><g transform="matrix(1, 0, 0, 1, 4, 1)"><g clip-path="url(#aeaa7e96c2)"><g clip-path="url(#85f756dd06)"><g clip-path="url(#5b823e44f3)"><rect x="-10.6" width="43.2" fill="#ffffff" height="54.6048" y="-9.3424" fill-opacity="1"/></g></g></g></g></g></g><g clip-path="url(#c59bfabbf8)"><path fill="#1800ad" d="M 14 10.042969 L 13.820312 10.0625 L 13.5 9.300781 L 13.898438 9.378906 L 14.007812 9.054688 C 13.980469 9.023438 13.953125 8.988281 13.925781 8.953125 L 13.824219 9.246094 L 13.449219 9.175781 L 13.324219 8.875 L 13.21875 8.917969 L 13.316406 9.148438 L 13.054688 9.097656 L 12.792969 9.296875 L 12.132812 9.476562 C 12.027344 9.441406 11.5625 9.289062 11.414062 9.289062 C 11.363281 9.289062 11.308594 9.304688 11.253906 9.320312 L 11.0625 8.863281 L 10.960938 8.90625 L 11.148438 9.363281 C 11.054688 9.402344 10.984375 9.445312 10.976562 9.449219 L 10.5 9.753906 L 9.5625 9.964844 L 8.84375 10.191406 L 8.683594 9.859375 L 8.582031 9.910156 L 8.734375 10.226562 L 8.476562 10.308594 L 8.25 9.847656 L 8.148438 9.898438 L 8.367188 10.339844 L 8.050781 10.441406 L 7.894531 10.898438 L 7.351562 11.203125 L 6.527344 10.820312 L 6.480469 10.921875 L 7.230469 11.273438 L 7.066406 11.363281 L 7.125 11.527344 L 6.894531 11.714844 L 6.976562 12.101562 L 6.957031 12.707031 L 6.933594 12.769531 L 6.09375 12.550781 L 6.066406 12.660156 L 6.898438 12.878906 L 6.707031 13.417969 L 6.972656 14.027344 L 6.953125 14.492188 L 6.519531 14.367188 L 6.488281 14.476562 L 6.949219 14.609375 L 6.9375 14.847656 L 6.9375 14.859375 L 5.992188 14.613281 L 5.960938 14.722656 L 6.945312 14.980469 L 6.976562 15.546875 L 7.144531 16.238281 L 6.972656 16.976562 L 6.636719 16.976562 L 6.636719 18.652344 L 8.3125 18.652344 L 8.3125 16.976562 L 8.066406 16.976562 L 7.953125 16.328125 L 7.949219 16.171875 L 8.699219 16.398438 L 8.734375 16.289062 L 7.945312 16.054688 L 7.933594 15.78125 L 7.804688 15.652344 L 7.878906 14.988281 L 7.902344 14.886719 L 8.503906 15.058594 L 8.535156 14.953125 L 7.925781 14.773438 L 7.996094 14.464844 L 7.859375 14.121094 L 7.859375 13.761719 L 7.992188 13.269531 L 7.992188 13.257812 C 7.972656 13.046875 7.945312 12.742188 7.9375 12.621094 L 8.699219 12.847656 L 8.734375 12.738281 L 7.933594 12.5 L 7.933594 11.960938 L 8.011719 11.847656 L 8.230469 11.78125 L 8.515625 11.667969 L 8.667969 11.9375 L 8.765625 11.878906 L 8.625 11.625 L 8.976562 11.484375 L 9.269531 11.324219 L 9.316406 11.414062 L 9.417969 11.367188 L 9.371094 11.269531 L 9.484375 11.203125 L 9.902344 11.144531 L 10.039062 11.515625 L 10.148438 11.476562 L 10.011719 11.105469 L 10.316406 10.761719 L 10.320312 10.765625 L 10.660156 11.574219 L 10.761719 11.53125 L 10.453125 10.789062 L 10.527344 10.800781 L 10.875 10.421875 L 11.699219 10.421875 L 11.828125 10.578125 L 12.144531 10.511719 L 12.253906 10.726562 L 12.355469 10.675781 L 12.257812 10.484375 L 12.402344 10.453125 L 12.507812 10.386719 L 13.007812 11.414062 L 13.109375 11.367188 L 12.601562 10.324219 L 12.742188 10.234375 L 13.316406 10.277344 L 13.441406 10.613281 L 13.546875 10.574219 L 13.433594 10.265625 L 13.675781 10.195312 L 13.746094 10.1875 L 13.785156 10.273438 L 13.890625 10.230469 L 13.863281 10.171875 L 14.007812 10.15625 L 14.382812 10.152344 L 14.359375 10.039062 Z M 8.199219 18.542969 L 6.75 18.542969 L 6.75 17.089844 L 8.199219 17.089844 Z M 7.824219 15.832031 L 7.828125 16.019531 L 7.660156 15.96875 L 7.628906 16.078125 L 7.835938 16.136719 L 7.839844 16.335938 L 7.953125 16.976562 L 7.089844 16.976562 L 7.257812 16.238281 L 7.085938 15.535156 L 7.058594 15.007812 L 7.253906 15.058594 L 7.28125 14.949219 L 7.050781 14.890625 L 7.050781 14.847656 L 7.058594 14.640625 L 7.792969 14.855469 L 7.765625 14.964844 L 7.6875 15.695312 Z M 8.933594 11.382812 L 8.566406 11.527344 L 8.417969 11.257812 L 8.320312 11.3125 L 8.460938 11.566406 L 8.191406 11.675781 L 7.9375 11.75 L 7.824219 11.929688 L 7.824219 12.46875 L 7.660156 12.417969 L 7.628906 12.527344 L 7.824219 12.585938 C 7.828125 12.695312 7.871094 13.164062 7.878906 13.257812 L 7.75 13.738281 L 7.746094 14.140625 L 7.875 14.472656 L 7.816406 14.742188 L 7.066406 14.527344 L 7.089844 14.007812 L 6.828125 13.414062 L 7.007812 12.90625 L 7.355469 13 L 7.382812 12.890625 L 7.042969 12.800781 L 7.066406 12.738281 L 7.089844 12.097656 L 7.089844 12.089844 L 7.019531 11.761719 L 7.261719 11.5625 L 7.207031 11.414062 L 7.355469 11.332031 L 7.515625 11.402344 L 7.5625 11.300781 L 7.480469 11.261719 L 7.988281 10.976562 L 8.140625 10.53125 L 8.421875 10.445312 L 8.5625 10.726562 L 8.664062 10.675781 L 8.53125 10.410156 L 8.785156 10.328125 L 9.222656 11.222656 Z M 13.65625 10.082031 L 13.394531 10.160156 L 13.296875 9.902344 L 13.191406 9.941406 L 13.273438 10.160156 L 12.710938 10.117188 L 12.550781 10.222656 L 12.375 9.859375 L 12.273438 9.910156 L 12.457031 10.285156 L 12.359375 10.347656 L 12.207031 10.382812 L 11.941406 9.847656 L 11.839844 9.898438 L 12.09375 10.40625 L 11.871094 10.453125 L 11.753906 10.308594 L 10.824219 10.308594 L 10.488281 10.679688 L 10.402344 10.664062 L 10.199219 10.175781 L 10.09375 10.21875 L 10.269531 10.644531 L 9.964844 10.988281 L 9.898438 10.804688 L 9.792969 10.84375 L 9.863281 11.035156 L 9.445312 11.09375 L 9.320312 11.167969 L 8.894531 10.292969 L 9.589844 10.074219 L 10.542969 9.859375 L 11.035156 9.546875 C 11.066406 9.527344 11.125 9.496094 11.191406 9.464844 L 11.320312 9.773438 L 11.425781 9.730469 L 11.296875 9.425781 C 11.339844 9.414062 11.378906 9.402344 11.414062 9.402344 C 11.535156 9.402344 11.960938 9.539062 12.113281 9.589844 L 12.128906 9.59375 L 12.84375 9.398438 L 13.082031 9.21875 L 13.367188 9.273438 L 13.703125 10.078125 Z M 13.65625 10.082031 " fill-opacity="1" fill-rule="nonzero"/></g><g clip-path="url(#1d36bbe6e3)"><path fill="#1800ad" d="M 13.941406 7.25 L 13.941406 7.246094 L 14.417969 7.019531 L 14.371094 6.917969 L 13.949219 7.117188 L 13.960938 6.824219 L 14.640625 6.515625 L 14.640625 6.542969 L 14.769531 6.875 L 14.660156 7.367188 L 14.644531 7.488281 L 14.761719 7.46875 L 14.769531 7.386719 L 14.886719 6.867188 L 14.753906 6.519531 L 14.753906 6.464844 L 15.179688 6.273438 L 15.132812 6.167969 L 14.753906 6.34375 L 14.753906 6.164062 L 14.882812 5.671875 L 14.882812 5.660156 C 14.875 5.578125 14.867188 5.480469 14.859375 5.382812 L 15.355469 5.648438 L 15.410156 5.550781 L 14.847656 5.25 C 14.835938 5.105469 14.828125 4.988281 14.828125 4.96875 L 14.828125 4.363281 L 14.9375 4.191406 L 14.84375 4.128906 L 14.714844 4.332031 L 14.714844 4.96875 C 14.714844 4.988281 14.722656 5.078125 14.730469 5.183594 L 13.96875 4.777344 L 13.980469 4.5 L 13.980469 4.492188 L 13.902344 4.128906 L 13.792969 4.152344 L 13.867188 4.503906 L 13.859375 4.71875 L 13.460938 4.503906 L 13.40625 4.605469 L 13.855469 4.84375 L 13.847656 5.109375 L 13.597656 5.820312 L 13.867188 6.429688 L 13.851562 6.75 L 13.480469 6.917969 L 13.527344 7.019531 L 13.847656 6.875 L 13.832031 7.171875 L 13.410156 7.371094 L 13.457031 7.472656 L 13.832031 7.296875 L 13.851562 7.640625 L 13.960938 7.617188 Z M 13.71875 5.8125 L 13.957031 5.136719 L 13.964844 4.902344 L 14.742188 5.320312 C 14.753906 5.464844 14.765625 5.613281 14.769531 5.660156 L 14.640625 6.140625 L 14.640625 6.394531 L 13.96875 6.699219 L 13.980469 6.410156 Z M 13.71875 5.8125 " fill-opacity="1" fill-rule="nonzero"/></g><path fill="#1800ad" d="M 14.914062 9.203125 L 14.921875 9.246094 C 14.925781 9.246094 14.929688 9.246094 14.9375 9.246094 L 15.167969 9.125 L 15.28125 9.371094 C 15.320312 9.402344 15.355469 9.4375 15.386719 9.476562 L 15.417969 9.515625 L 15.40625 9.371094 L 15.222656 8.96875 L 14.933594 9.117188 L 14.925781 9.085938 C 14.917969 9.109375 14.90625 9.128906 14.898438 9.152344 C 14.90625 9.167969 14.910156 9.183594 14.914062 9.203125 Z M 14.914062 9.203125 " fill-opacity="1" fill-rule="nonzero"/><path fill="#1800ad" d="M 7.398438 17.441406 L 7.546875 17.441406 L 7.546875 17.753906 L 7.398438 17.753906 Z M 7.398438 17.441406 " fill-opacity="1" fill-rule="nonzero"/><path fill="#1800ad" d="M 7.023438 18.042969 L 7.335938 18.042969 L 7.335938 18.191406 L 7.023438 18.191406 Z M 7.023438 18.042969 " fill-opacity="1" fill-rule="nonzero"/><path fill="#1800ad" d="M 7.609375 18.042969 L 7.921875 18.042969 L 7.921875 18.191406 L 7.609375 18.191406 Z M 7.609375 18.042969 " fill-opacity="1" fill-rule="nonzero"/><g clip-path="url(#af0d62272c)"><path fill="#1800ad" d="M 13.613281 17.65625 C 13.582031 17.632812 13.5625 17.59375 13.5625 17.550781 C 13.5625 17.484375 13.617188 17.425781 13.6875 17.425781 C 13.757812 17.425781 13.816406 17.484375 13.816406 17.550781 C 13.816406 17.609375 13.777344 17.65625 13.726562 17.671875 C 13.640625 18.230469 13.175781 18.652344 12.601562 18.675781 L 12.601562 19.835938 C 12.601562 19.957031 13.078125 20.058594 13.667969 20.058594 C 14.257812 20.058594 14.738281 19.957031 14.738281 19.835938 L 14.738281 17.125 C 14.738281 17.003906 14.257812 16.902344 13.667969 16.902344 C 13.078125 16.902344 12.601562 17.003906 12.601562 17.125 L 12.601562 18.5625 C 13.109375 18.539062 13.535156 18.152344 13.613281 17.65625 Z M 14.535156 17.175781 C 14.535156 17.203125 14.476562 17.230469 14.378906 17.25 L 14.378906 18.535156 C 14.378906 18.570312 14.351562 18.601562 14.316406 18.601562 C 14.28125 18.601562 14.25 18.570312 14.25 18.535156 L 14.25 17.273438 C 14.230469 17.277344 14.207031 17.28125 14.183594 17.28125 L 14.183594 17.589844 C 14.183594 17.628906 14.15625 17.65625 14.121094 17.65625 C 14.085938 17.65625 14.054688 17.628906 14.054688 17.589844 L 14.054688 17.292969 C 13.9375 17.304688 13.808594 17.308594 13.667969 17.308594 C 13.191406 17.308594 12.804688 17.25 12.804688 17.175781 C 12.804688 17.101562 13.191406 17.039062 13.667969 17.039062 C 14.148438 17.039062 14.535156 17.101562 14.535156 17.175781 Z M 14.535156 17.175781 " fill-opacity="1" fill-rule="nonzero"/></g><path fill="#1800ad" d="M 15.441406 8.148438 L 15.378906 8.050781 L 15.175781 8.1875 C 15.171875 8.234375 15.164062 8.285156 15.15625 8.335938 Z M 15.441406 8.148438 " fill-opacity="1" fill-rule="nonzero"/><path fill="#1800ad" d="M 12.078125 19.828125 C 12.078125 19.863281 12.03125 19.894531 11.933594 19.921875 C 11.835938 19.945312 11.71875 19.957031 11.582031 19.957031 C 11.449219 19.957031 11.332031 19.945312 11.234375 19.921875 C 11.136719 19.894531 11.089844 19.863281 11.089844 19.828125 C 11.089844 19.792969 11.136719 19.761719 11.234375 19.738281 C 11.332031 19.710938 11.449219 19.699219 11.582031 19.699219 C 11.71875 19.699219 11.835938 19.710938 11.933594 19.738281 C 12.03125 19.761719 12.078125 19.792969 12.078125 19.828125 Z M 12.078125 19.828125 " fill-opacity="1" fill-rule="nonzero"/><g clip-path="url(#dd60b03775)"><path fill="#1800ad" d="M 12.644531 20.324219 C 12.644531 20.269531 12.464844 20.222656 12.246094 20.222656 C 12.027344 20.222656 11.851562 20.269531 11.851562 20.324219 C 11.851562 20.382812 12.027344 20.429688 12.246094 20.429688 C 12.464844 20.429688 12.644531 20.382812 12.644531 20.324219 Z M 12.644531 20.324219 " fill-opacity="1" fill-rule="nonzero"/></g><g clip-path="url(#2f84c6bcc0)"><path fill="#1800ad" d="M 14.78125 20.222656 C 14.5625 20.222656 14.382812 20.269531 14.382812 20.324219 C 14.382812 20.382812 14.5625 20.429688 14.78125 20.429688 C 15 20.429688 15.175781 20.382812 15.175781 20.324219 C 15.175781 20.269531 15 20.222656 14.78125 20.222656 Z M 14.78125 20.222656 " fill-opacity="1" fill-rule="nonzero"/></g><path fill="#1800ad" d="M 14.636719 10.59375 C 14.65625 10.691406 14.75 10.757812 14.847656 10.738281 C 14.855469 10.734375 14.867188 10.734375 14.875 10.730469 L 14.59375 10.355469 Z M 14.636719 10.59375 " fill-opacity="1" fill-rule="nonzero"/><path fill="#1800ad" d="M 14.394531 9.300781 L 14.433594 9.511719 C 14.46875 9.453125 14.515625 9.40625 14.570312 9.363281 C 14.625 9.320312 14.6875 9.289062 14.753906 9.269531 L 14.746094 9.234375 C 14.738281 9.203125 14.726562 9.175781 14.707031 9.15625 C 14.832031 8.910156 15.113281 8.257812 14.988281 7.597656 L 13.574219 7.863281 C 13.699219 8.523438 14.195312 9.027344 14.402344 9.210938 C 14.390625 9.238281 14.386719 9.269531 14.394531 9.300781 Z M 14.394531 9.300781 " fill-opacity="1" fill-rule="nonzero"/><path fill="#1800ad" d="M 17.347656 13.109375 C 17.164062 13.21875 17.085938 13.4375 17.144531 13.632812 L 16.273438 13.773438 L 16.136719 13.695312 L 16.777344 13.578125 L 16.722656 13.265625 L 15.515625 13.484375 C 15.367188 13.578125 15.289062 13.710938 15.042969 13.71875 C 14.835938 13.730469 14.742188 13.671875 14.699219 13.632812 L 14.570312 13.65625 L 14.628906 13.96875 L 15.890625 13.742188 L 15.886719 13.746094 L 16.242188 13.949219 L 17.230469 13.789062 C 17.316406 13.894531 17.445312 13.953125 17.578125 13.953125 C 17.65625 13.953125 17.734375 13.929688 17.808594 13.886719 L 18.292969 13.597656 L 18.054688 12.691406 Z M 17.347656 13.109375 " fill-opacity="1" fill-rule="nonzero"/><path fill="#1800ad" d="M 18.765625 9.890625 C 19.414062 10.15625 20.15625 9.84375 20.421875 9.191406 C 20.6875 8.542969 20.375 7.800781 19.726562 7.535156 C 19.402344 7.402344 19.058594 7.414062 18.757812 7.539062 C 18.738281 7.527344 18.71875 7.519531 18.695312 7.511719 C 18.210938 7.3125 17.757812 7.246094 17.542969 7.324219 C 17.480469 7.347656 17.4375 7.378906 17.417969 7.425781 C 17.335938 7.632812 17.769531 8.007812 18.390625 8.261719 C 18.519531 8.3125 18.648438 8.355469 18.773438 8.390625 C 18.585938 8.414062 18.328125 8.382812 18.039062 8.308594 C 17.828125 8.9375 18.140625 9.632812 18.765625 9.890625 Z M 18.765625 9.890625 " fill-opacity="1" fill-rule="nonzero"/><g clip-path="url(#f058b29f6c)"><path fill="#1800ad" d="M 18.667969 14.515625 L 17.03125 16.328125 C 16.917969 16.449219 16.855469 16.613281 16.847656 16.78125 L 16.765625 19.71875 C 16.753906 20.105469 17.058594 20.433594 17.449219 20.445312 C 17.457031 20.445312 17.464844 20.445312 17.46875 20.445312 C 17.851562 20.445312 18.164062 20.140625 18.175781 19.757812 L 18.253906 17.082031 L 19.644531 15.542969 L 19.167969 16.640625 C 19.085938 16.824219 19.089844 17.035156 19.171875 17.21875 L 20.5 20.089844 C 20.621094 20.347656 20.875 20.5 21.144531 20.5 C 21.242188 20.5 21.34375 20.480469 21.4375 20.433594 C 21.792969 20.273438 21.945312 19.851562 21.785156 19.496094 L 20.589844 16.914062 L 21.664062 14.445312 C 21.746094 14.253906 21.738281 14.050781 21.660156 13.878906 L 21 11.371094 L 20.863281 10.859375 L 20.925781 10.5625 C 20.976562 10.316406 20.820312 10.078125 20.574219 10.027344 C 20.535156 10.019531 20.496094 10.015625 20.460938 10.019531 C 20.457031 10.019531 20.457031 10.015625 20.453125 10.015625 L 20.441406 10.019531 C 20.402344 10.023438 20.363281 10.03125 20.328125 10.046875 L 18.242188 10.515625 C 18.203125 10.519531 18.160156 10.523438 18.121094 10.539062 L 17.59375 10.710938 L 16.441406 11.085938 L 15.28125 9.554688 C 15.128906 9.355469 14.847656 9.316406 14.648438 9.46875 C 14.449219 9.617188 14.410156 9.902344 14.5625 10.101562 L 15.917969 11.890625 C 16.003906 12.003906 16.136719 12.066406 16.277344 12.066406 C 16.324219 12.066406 16.371094 12.0625 16.417969 12.046875 L 17.847656 11.578125 L 17.890625 11.566406 L 18.097656 12.347656 Z M 18.667969 14.515625 " fill-opacity="1" fill-rule="nonzero"/></g><path fill="#1800ad" d="M 16.601562 13.167969 C 16.511719 13.175781 16.0625 13.199219 15.933594 13.183594 C 15.808594 13.167969 15.574219 13.386719 15.574219 13.386719 L 15.539062 13.417969 L 16.613281 13.222656 C 16.613281 13.222656 16.6875 13.164062 16.601562 13.167969 Z M 16.601562 13.167969 " fill-opacity="1" fill-rule="nonzero"/><path fill="#1800ad" d="M 15.507812 13.441406 L 15.496094 13.390625 L 14.554688 13.550781 L 14.566406 13.617188 L 14.675781 13.597656 L 15.507812 13.453125 Z M 15.507812 13.441406 " fill-opacity="1" fill-rule="nonzero"/></svg>