<svg xmlns="http://www.w3.org/2000/svg" xmlns:xlink="http://www.w3.org/1999/xlink" width="40" zoomAndPan="magnify" viewBox="0 0 30 37.92" height="40" preserveAspectRatio="xMidYMid meet" version="1.0"><defs><clipPath id="728a31b7a3"><path d="M 3.113281 0.683594 L 26.886719 0.683594 L 26.886719 29.300781 L 3.113281 29.300781 Z M 3.113281 0.683594 " clip-rule="nonzero"/></clipPath><clipPath id="8ba56117fe"><path d="M 19.457031 1.550781 C 18.035156 0.976562 16.539062 0.683594 15 0.683594 C 13.460938 0.683594 11.964844 0.976562 10.542969 1.550781 C 9.078125 2.144531 7.757812 3.019531 6.632812 4.148438 C 4.429688 6.355469 3.199219 9.285156 3.167969 12.402344 C 3.136719 15.511719 4.304688 18.464844 6.460938 20.707031 L 6.453125 20.710938 L 15 29.257812 L 23.5 20.757812 L 23.492188 20.753906 C 25.667969 18.511719 26.855469 15.558594 26.832031 12.433594 C 26.8125 9.300781 25.582031 6.363281 23.367188 4.148438 C 22.234375 3.019531 20.921875 2.144531 19.457031 1.550781 Z M 19.457031 1.550781 " clip-rule="nonzero"/></clipPath><clipPath id="9bb0684c08"><path d="M 0.144531 0.683594 L 23.855469 0.683594 L 23.855469 29.300781 L 0.144531 29.300781 Z M 0.144531 0.683594 " clip-rule="nonzero"/></clipPath><clipPath id="04c24ce652"><path d="M 16.457031 1.550781 C 15.035156 0.976562 13.539062 0.683594 12 0.683594 C 10.460938 0.683594 8.964844 0.976562 7.542969 1.550781 C 6.078125 2.144531 4.757812 3.019531 3.632812 4.148438 C 1.429688 6.355469 0.199219 9.285156 0.167969 12.402344 C 0.136719 15.511719 1.304688 18.464844 3.460938 20.707031 L 3.453125 20.710938 L 12 29.257812 L 20.5 20.757812 L 20.492188 20.753906 C 22.667969 18.511719 23.855469 15.558594 23.832031 12.433594 C 23.8125 9.300781 22.582031 6.363281 20.367188 4.148438 C 19.234375 3.019531 17.921875 2.144531 16.457031 1.550781 Z M 16.457031 1.550781 " clip-rule="nonzero"/></clipPath><clipPath id="a533bb91de"><rect x="0" width="24" y="0" height="30"/></clipPath><clipPath id="a32a2f08e5"><path d="M 4.261719 1.777344 L 25.738281 1.777344 L 25.738281 23.203125 L 4.261719 23.203125 Z M 4.261719 1.777344 " clip-rule="nonzero"/></clipPath><clipPath id="d913846352"><path d="M 14.996094 1.789062 C 9.089844 1.789062 4.300781 6.578125 4.300781 12.484375 C 4.300781 18.390625 9.089844 23.179688 14.996094 23.179688 C 20.902344 23.179688 25.691406 18.390625 25.691406 12.484375 C 25.691406 6.578125 20.902344 1.789062 14.996094 1.789062 Z M 14.996094 1.789062 " clip-rule="nonzero"/></clipPath><clipPath id="991fabc839"><path d="M 0.261719 0.777344 L 21.738281 0.777344 L 21.738281 22.203125 L 0.261719 22.203125 Z M 0.261719 0.777344 " clip-rule="nonzero"/></clipPath><clipPath id="302eb6bd50"><path d="M 10.996094 0.789062 C 5.089844 0.789062 0.300781 5.578125 0.300781 11.484375 C 0.300781 17.390625 5.089844 22.179688 10.996094 22.179688 C 16.902344 22.179688 21.691406 17.390625 21.691406 11.484375 C 21.691406 5.578125 16.902344 0.789062 10.996094 0.789062 Z M 10.996094 0.789062 " clip-rule="nonzero"/></clipPath><clipPath id="1631212cd0"><rect x="0" width="22" y="0" height="23"/></clipPath><clipPath id="7dbd2c40b4"><path d="M 13.398438 7.425781 L 22.089844 7.425781 L 22.089844 20.582031 L 13.398438 20.582031 Z M 13.398438 7.425781 " clip-rule="nonzero"/></clipPath><clipPath id="885f04ba6d"><path d="M 7.894531 15 L 17 15 L 17 20 L 7.894531 20 Z M 7.894531 15 " clip-rule="nonzero"/></clipPath><clipPath id="7b629e18c5"><path d="M 11 5.820312 L 15 5.820312 L 15 10 L 11 10 Z M 11 5.820312 " clip-rule="nonzero"/></clipPath></defs><g clip-path="url(#728a31b7a3)"><g clip-path="url(#8ba56117fe)"><g transform="matrix(1, 0, 0, 1, 3, 0.000000000000005773)"><g clip-path="url(#a533bb91de)"><g clip-path="url(#9bb0684c08)"><g clip-path="url(#04c24ce652)"><path fill="#faab11" d="M 0.167969 0.683594 L 23.832031 0.683594 L 23.832031 29.25 L 0.167969 29.25 Z M 0.167969 0.683594 " fill-opacity="1" fill-rule="nonzero"/></g></g></g></g></g></g><g clip-path="url(#a32a2f08e5)"><g clip-path="url(#d913846352)"><g transform="matrix(1, 0, 0, 1, 4, 1)"><g clip-path="url(#1631212cd0)"><g clip-path="url(#991fabc839)"><g clip-path="url(#302eb6bd50)"><rect x="-10.6" width="43.2" fill="#ffffff" height="54.6048" y="-9.3424" fill-opacity="1"/></g></g></g></g></g></g><path fill="#1800ad" d="M 19.074219 9.808594 L 19.175781 9.261719 L 18.539062 9.261719 Z M 19.800781 9.027344 L 19.535156 10.449219 C 19.527344 10.507812 19.5 10.566406 19.453125 10.609375 C 19.339844 10.71875 19.160156 10.71875 19.050781 10.605469 L 17.671875 9.191406 C 17.613281 9.136719 17.574219 9.0625 17.574219 8.976562 C 17.574219 8.816406 17.703125 8.6875 17.859375 8.6875 L 19.519531 8.6875 L 19.519531 8.691406 C 19.539062 8.691406 19.554688 8.691406 19.570312 8.695312 C 19.726562 8.722656 19.828125 8.871094 19.800781 9.027344 " fill-opacity="1" fill-rule="nonzero"/><g clip-path="url(#7dbd2c40b4)"><path fill="#1800ad" d="M 17.109375 13.21875 C 16.898438 13.011719 16.679688 12.792969 16.445312 12.566406 C 16.25 12.371094 16.039062 12.167969 15.8125 11.945312 L 15.464844 13.824219 C 15.414062 14.09375 15.273438 14.316406 15.078125 14.46875 C 14.882812 14.625 14.628906 14.710938 14.355469 14.710938 C 14.308594 14.710938 14.261719 14.707031 14.214844 14.699219 C 13.976562 14.660156 13.773438 14.527344 13.632812 14.34375 C 13.492188 14.167969 13.410156 13.941406 13.410156 13.710938 C 13.410156 13.660156 13.414062 13.605469 13.421875 13.550781 L 13.984375 10.164062 C 14.007812 9.984375 14.046875 9.691406 14.101562 9.421875 C 14.136719 9.230469 14.183594 9.046875 14.234375 8.921875 C 14.355469 8.621094 14.558594 8.347656 14.820312 8.121094 C 15.074219 7.890625 15.386719 7.707031 15.726562 7.585938 C 16.296875 7.382812 17.859375 7.445312 18.929688 7.484375 C 19.253906 7.496094 19.53125 7.507812 19.738281 7.507812 L 19.742188 7.507812 C 20.441406 7.507812 21.015625 7.507812 21.234375 8.636719 L 21.242188 8.6875 C 21.242188 9.730469 21.136719 10.367188 20.972656 10.785156 C 20.847656 11.101562 20.691406 11.300781 20.523438 11.453125 C 20.582031 11.519531 20.640625 11.578125 20.695312 11.636719 C 20.941406 11.890625 21.144531 12.097656 21.289062 12.742188 C 21.453125 13.460938 21.378906 14.28125 21.308594 15.050781 C 21.273438 15.433594 21.242188 15.800781 21.242188 16.144531 C 21.242188 16.347656 21.507812 17.136719 21.726562 17.800781 C 21.859375 18.199219 21.980469 18.550781 22.023438 18.734375 C 22.175781 19.339844 22.054688 19.804688 21.808594 20.082031 C 21.695312 20.214844 21.550781 20.308594 21.394531 20.355469 C 21.234375 20.402344 21.066406 20.40625 20.898438 20.363281 C 20.546875 20.269531 20.195312 19.964844 20 19.414062 L 19.996094 19.398438 L 19.253906 16.871094 L 19.246094 16.824219 L 19.003906 14.667969 L 18.027344 15.402344 C 17.988281 15.441406 17.925781 15.523438 17.898438 15.644531 C 17.867188 15.8125 17.890625 16.058594 18.09375 16.417969 C 18.332031 16.84375 18.542969 17.285156 18.746094 17.703125 C 18.902344 18.023438 19.046875 18.332031 19.195312 18.605469 L 19.199219 18.613281 C 19.230469 18.675781 19.265625 18.730469 19.296875 18.789062 C 19.421875 19 19.546875 19.210938 19.546875 19.511719 C 19.546875 19.835938 19.414062 20.101562 19.210938 20.289062 C 19.074219 20.417969 18.898438 20.507812 18.714844 20.550781 C 18.53125 20.59375 18.335938 20.589844 18.152344 20.53125 C 17.886719 20.453125 17.648438 20.269531 17.496094 19.964844 C 16.980469 19.03125 16.617188 18.359375 16.191406 17.566406 C 16.023438 17.25 15.839844 16.917969 15.636719 16.539062 C 15.484375 16.277344 15.417969 15.933594 15.4375 15.601562 C 15.457031 15.269531 15.5625 14.941406 15.757812 14.710938 C 15.992188 14.433594 16.253906 14.136719 16.53125 13.832031 C 16.726562 13.621094 16.917969 13.414062 17.109375 13.21875 Z M 16.847656 12.15625 C 17.15625 12.460938 17.4375 12.742188 17.714844 13.015625 L 17.917969 13.21875 L 17.714844 13.417969 C 17.457031 13.679688 17.199219 13.949219 16.953125 14.214844 C 16.695312 14.496094 16.4375 14.789062 16.195312 15.078125 C 16.082031 15.210938 16.019531 15.417969 16.007812 15.632812 C 15.996094 15.863281 16.039062 16.09375 16.132812 16.257812 L 16.140625 16.265625 C 16.34375 16.644531 16.527344 16.980469 16.695312 17.292969 C 17.117188 18.078125 17.476562 18.738281 17.996094 19.6875 L 18.003906 19.699219 C 18.078125 19.855469 18.195312 19.949219 18.320312 19.984375 C 18.40625 20.011719 18.5 20.015625 18.585938 19.992188 C 18.675781 19.972656 18.757812 19.929688 18.824219 19.871094 C 18.914062 19.789062 18.972656 19.664062 18.972656 19.511719 C 18.972656 19.363281 18.886719 19.21875 18.804688 19.078125 C 18.765625 19.011719 18.726562 18.941406 18.691406 18.875 C 18.539062 18.59375 18.390625 18.28125 18.230469 17.953125 C 18.035156 17.546875 17.828125 17.113281 17.59375 16.699219 C 17.3125 16.191406 17.28125 15.804688 17.339844 15.53125 C 17.402344 15.230469 17.5625 15.058594 17.628906 14.992188 L 17.664062 14.960938 L 19.0625 13.910156 L 19.460938 13.609375 L 19.519531 14.105469 L 19.8125 16.738281 L 20.542969 19.230469 C 20.667969 19.574219 20.859375 19.761719 21.042969 19.808594 C 21.109375 19.828125 21.171875 19.824219 21.226562 19.808594 C 21.285156 19.792969 21.335938 19.757812 21.378906 19.707031 C 21.511719 19.554688 21.570312 19.273438 21.46875 18.871094 C 21.429688 18.707031 21.3125 18.367188 21.1875 17.984375 C 20.949219 17.277344 20.667969 16.433594 20.667969 16.144531 C 20.667969 15.800781 20.703125 15.40625 20.738281 15 C 20.804688 14.273438 20.875 13.5 20.730469 12.867188 C 20.621094 12.382812 20.46875 12.226562 20.285156 12.035156 C 20.164062 11.910156 20.03125 11.777344 19.886719 11.558594 L 19.730469 11.324219 L 19.960938 11.164062 C 20.144531 11.039062 20.3125 10.894531 20.4375 10.578125 C 20.578125 10.222656 20.664062 9.664062 20.667969 8.714844 C 20.535156 8.082031 20.175781 8.082031 19.742188 8.082031 L 19.738281 8.082031 C 19.570312 8.082031 19.265625 8.070312 18.90625 8.054688 C 17.882812 8.015625 16.386719 7.960938 15.917969 8.125 C 15.644531 8.222656 15.398438 8.371094 15.199219 8.546875 C 15.003906 8.71875 14.855469 8.917969 14.765625 9.136719 C 14.730469 9.226562 14.695312 9.371094 14.664062 9.53125 C 14.613281 9.785156 14.574219 10.0625 14.554688 10.230469 L 14.550781 10.242188 L 13.988281 13.644531 C 13.984375 13.664062 13.984375 13.683594 13.984375 13.710938 C 13.984375 13.8125 14.019531 13.914062 14.082031 13.992188 C 14.140625 14.066406 14.21875 14.121094 14.304688 14.132812 C 14.320312 14.136719 14.335938 14.136719 14.355469 14.136719 C 14.5 14.136719 14.628906 14.09375 14.726562 14.019531 C 14.8125 13.949219 14.878906 13.847656 14.902344 13.722656 L 15.347656 11.316406 L 15.445312 10.789062 L 15.828125 11.164062 C 16.203125 11.527344 16.535156 11.851562 16.847656 12.15625 " fill-opacity="1" fill-rule="nonzero"/></g><g clip-path="url(#885f04ba6d)"><path fill="#1800ad" d="M 13.402344 16.464844 L 13.492188 16.679688 C 13.515625 16.726562 13.964844 16.839844 14.105469 16.890625 C 14.398438 16.992188 14.832031 17.144531 15.058594 17.652344 C 15.257812 18.109375 15.839844 18.367188 16.078125 18.472656 C 16.226562 18.539062 16.316406 18.578125 16.355469 18.722656 L 16.453125 19.082031 L 7.90625 19.082031 L 7.933594 18.769531 C 8.015625 17.808594 8.183594 17.773438 8.492188 17.707031 C 8.59375 17.683594 8.738281 17.652344 9 17.136719 C 9.035156 17.070312 9.066406 17.011719 9.09375 16.953125 C 9.320312 16.503906 9.410156 16.328125 9.5625 16.183594 C 9.664062 16.085938 9.765625 16.03125 9.933594 15.945312 C 10.117188 15.84375 10.398438 15.695312 10.867188 15.378906 C 10.914062 15.347656 11.042969 15.3125 11.167969 15.285156 C 11.289062 15.261719 11.425781 15.238281 11.472656 15.238281 C 11.558594 15.238281 11.652344 15.261719 11.734375 15.292969 C 11.820312 15.324219 11.902344 15.375 11.964844 15.421875 C 11.996094 15.445312 12.023438 15.472656 12.054688 15.496094 C 12.097656 15.535156 12.144531 15.574219 12.1875 15.601562 C 12.226562 15.628906 12.304688 15.683594 12.40625 15.761719 C 12.453125 15.792969 12.878906 16.441406 12.917969 16.433594 L 13.273438 16.152344 Z M 12.464844 16.792969 C 12.429688 16.757812 12.398438 16.71875 12.371094 16.683594 C 12.308594 16.601562 12.25 16.515625 12.1875 16.433594 C 12.132812 16.351562 12.070312 16.261719 12.011719 16.179688 C 11.96875 16.148438 11.921875 16.113281 11.882812 16.085938 C 11.808594 16.042969 11.742188 15.988281 11.675781 15.929688 C 11.652344 15.910156 11.628906 15.890625 11.605469 15.871094 C 11.585938 15.851562 11.554688 15.835938 11.53125 15.828125 C 11.515625 15.824219 11.496094 15.816406 11.480469 15.8125 C 11.417969 15.820312 11.34375 15.835938 11.28125 15.847656 C 11.242188 15.855469 11.191406 15.867188 11.148438 15.878906 L 11.042969 15.953125 L 11.039062 15.953125 C 10.765625 16.128906 10.492188 16.292969 10.203125 16.449219 C 10.128906 16.492188 10.019531 16.542969 9.953125 16.601562 C 9.839844 16.710938 9.675781 17.070312 9.605469 17.210938 C 9.574219 17.273438 9.542969 17.332031 9.511719 17.394531 C 9.3125 17.792969 9.074219 18.164062 8.613281 18.265625 C 8.605469 18.269531 8.59375 18.269531 8.585938 18.273438 C 8.566406 18.332031 8.550781 18.421875 8.539062 18.507812 L 15.019531 18.507812 C 14.816406 18.339844 14.644531 18.132812 14.53125 17.882812 C 14.410156 17.609375 14.179688 17.523438 13.917969 17.429688 C 13.648438 17.335938 12.632812 16.980469 12.464844 16.792969 " fill-opacity="1" fill-rule="nonzero"/></g><g clip-path="url(#7b629e18c5)"><path fill="#1800ad" d="M 14.730469 7.398438 C 14.730469 7.636719 14.6875 7.851562 14.609375 8.042969 C 14.527344 8.257812 14.402344 8.4375 14.257812 8.582031 C 14.136719 8.703125 13.996094 8.800781 13.851562 8.878906 C 13.539062 9.035156 13.191406 9.085938 12.859375 9.035156 C 12.527344 8.980469 12.210938 8.828125 11.960938 8.578125 C 11.847656 8.464844 11.746094 8.324219 11.664062 8.164062 C 11.503906 7.855469 11.457031 7.511719 11.511719 7.183594 C 11.570312 6.855469 11.726562 6.539062 11.976562 6.289062 C 12.128906 6.132812 12.304688 6.019531 12.488281 5.941406 C 12.683594 5.863281 12.890625 5.824219 13.101562 5.820312 L 13.125 5.820312 C 13.433594 5.828125 13.738281 5.917969 13.996094 6.082031 C 14.242188 6.242188 14.449219 6.472656 14.578125 6.761719 C 14.617188 6.84375 14.652344 6.941406 14.679688 7.042969 C 14.710938 7.152344 14.730469 7.273438 14.730469 7.398438 Z M 14.078125 7.832031 C 14.128906 7.710938 14.15625 7.566406 14.15625 7.398438 C 14.15625 7.324219 14.144531 7.253906 14.128906 7.191406 C 14.109375 7.117188 14.082031 7.050781 14.058594 6.996094 C 13.976562 6.8125 13.84375 6.664062 13.6875 6.566406 C 13.519531 6.457031 13.320312 6.398438 13.121094 6.394531 L 13.101562 6.394531 C 12.96875 6.394531 12.835938 6.417969 12.707031 6.472656 C 12.589844 6.519531 12.480469 6.59375 12.382812 6.691406 C 12.21875 6.859375 12.113281 7.0625 12.078125 7.277344 C 12.042969 7.488281 12.070312 7.707031 12.171875 7.90625 C 12.222656 8.007812 12.289062 8.09375 12.367188 8.171875 C 12.53125 8.335938 12.734375 8.433594 12.949219 8.46875 C 13.164062 8.503906 13.390625 8.472656 13.589844 8.371094 C 13.683594 8.324219 13.769531 8.257812 13.851562 8.175781 C 13.945312 8.082031 14.027344 7.96875 14.078125 7.832031 " fill-opacity="1" fill-rule="nonzero"/></g><path fill="#1800ad" d="M 17.09375 12.84375 L 13.449219 15.824219 L 13.085938 15.378906 L 16.734375 12.402344 L 17.09375 12.84375 " fill-opacity="1" fill-rule="nonzero"/><path fill="#1800ad" d="M 13.308594 16.125 L 12.785156 15.441406 L 12.5 15.660156 C 12.472656 15.679688 12.449219 15.703125 12.429688 15.722656 L 12.375 15.765625 C 12.222656 15.65625 12.085938 15.539062 11.9375 15.429688 C 11.996094 15.351562 12.074219 15.265625 12.152344 15.207031 L 12.664062 14.8125 L 12.894531 14.640625 L 13.066406 14.867188 L 13.9375 16.007812 L 14.109375 16.234375 L 13.882812 16.40625 L 13.460938 16.730469 C 13.449219 16.726562 13.351562 16.523438 13.335938 16.5 L 13.261719 16.160156 L 13.289062 16.140625 L 13.308594 16.125 " fill-opacity="1" fill-rule="nonzero"/></svg>