<svg xmlns="http://www.w3.org/2000/svg" xmlns:xlink="http://www.w3.org/1999/xlink" width="40" zoomAndPan="magnify" viewBox="0 0 30 37.92" height="40" preserveAspectRatio="xMidYMid meet" version="1.0"><defs><clipPath id="a345d1a99a"><path d="M 3.113281 0.683594 L 26.886719 0.683594 L 26.886719 29.300781 L 3.113281 29.300781 Z M 3.113281 0.683594 " clip-rule="nonzero"/></clipPath><clipPath id="c9cfaf8067"><path d="M 19.457031 1.550781 C 18.035156 0.976562 16.539062 0.683594 15 0.683594 C 13.460938 0.683594 11.964844 0.976562 10.542969 1.550781 C 9.078125 2.144531 7.757812 3.019531 6.632812 4.148438 C 4.429688 6.355469 3.199219 9.285156 3.167969 12.402344 C 3.136719 15.511719 4.304688 18.464844 6.460938 20.707031 L 6.453125 20.710938 L 15 29.257812 L 23.5 20.757812 L 23.492188 20.753906 C 25.667969 18.511719 26.855469 15.558594 26.832031 12.433594 C 26.8125 9.300781 25.582031 6.363281 23.367188 4.148438 C 22.234375 3.019531 20.921875 2.144531 19.457031 1.550781 Z M 19.457031 1.550781 " clip-rule="nonzero"/></clipPath><clipPath id="5ef1451c3b"><path d="M 0.144531 0.683594 L 23.855469 0.683594 L 23.855469 29.300781 L 0.144531 29.300781 Z M 0.144531 0.683594 " clip-rule="nonzero"/></clipPath><clipPath id="2d15d34003"><path d="M 16.457031 1.550781 C 15.035156 0.976562 13.539062 0.683594 12 0.683594 C 10.460938 0.683594 8.964844 0.976562 7.542969 1.550781 C 6.078125 2.144531 4.757812 3.019531 3.632812 4.148438 C 1.429688 6.355469 0.199219 9.285156 0.167969 12.402344 C 0.136719 15.511719 1.304688 18.464844 3.460938 20.707031 L 3.453125 20.710938 L 12 29.257812 L 20.5 20.757812 L 20.492188 20.753906 C 22.667969 18.511719 23.855469 15.558594 23.832031 12.433594 C 23.8125 9.300781 22.582031 6.363281 20.367188 4.148438 C 19.234375 3.019531 17.921875 2.144531 16.457031 1.550781 Z M 16.457031 1.550781 " clip-rule="nonzero"/></clipPath><clipPath id="57abf3866e"><rect x="0" width="24" y="0" height="30"/></clipPath><clipPath id="3b111eab92"><path d="M 4.261719 1.777344 L 25.738281 1.777344 L 25.738281 23.203125 L 4.261719 23.203125 Z M 4.261719 1.777344 " clip-rule="nonzero"/></clipPath><clipPath id="d65ab863d8"><path d="M 14.996094 1.789062 C 9.089844 1.789062 4.300781 6.578125 4.300781 12.484375 C 4.300781 18.390625 9.089844 23.179688 14.996094 23.179688 C 20.902344 23.179688 25.691406 18.390625 25.691406 12.484375 C 25.691406 6.578125 20.902344 1.789062 14.996094 1.789062 Z M 14.996094 1.789062 " clip-rule="nonzero"/></clipPath><clipPath id="746c3ff3f5"><path d="M 0.261719 0.777344 L 21.738281 0.777344 L 21.738281 22.203125 L 0.261719 22.203125 Z M 0.261719 0.777344 " clip-rule="nonzero"/></clipPath><clipPath id="76fcd76b9d"><path d="M 10.996094 0.789062 C 5.089844 0.789062 0.300781 5.578125 0.300781 11.484375 C 0.300781 17.390625 5.089844 22.179688 10.996094 22.179688 C 16.902344 22.179688 21.691406 17.390625 21.691406 11.484375 C 21.691406 5.578125 16.902344 0.789062 10.996094 0.789062 Z M 10.996094 0.789062 " clip-rule="nonzero"/></clipPath><clipPath id="350f42ef8e"><rect x="0" width="22" y="0" height="23"/></clipPath><clipPath id="5aadf69c67"><path d="M 9 12 L 15 12 L 15 18.992188 L 9 18.992188 Z M 9 12 " clip-rule="nonzero"/></clipPath><clipPath id="9561e96517"><path d="M 15 14 L 23 14 L 23 18.992188 L 15 18.992188 Z M 15 14 " clip-rule="nonzero"/></clipPath><clipPath id="15c65552dd"><path d="M 6.738281 8 L 19 8 L 19 15 L 6.738281 15 Z M 6.738281 8 " clip-rule="nonzero"/></clipPath><clipPath id="e851e26888"><path d="M 13 5.519531 L 16 5.519531 L 16 8 L 13 8 Z M 13 5.519531 " clip-rule="nonzero"/></clipPath></defs><g clip-path="url(#a345d1a99a)"><g clip-path="url(#c9cfaf8067)"><g transform="matrix(1, 0, 0, 1, 3, 0.000000000000005773)"><g clip-path="url(#57abf3866e)"><g clip-path="url(#5ef1451c3b)"><g clip-path="url(#2d15d34003)"><path fill="#faab11" d="M 0.167969 0.683594 L 23.832031 0.683594 L 23.832031 29.25 L 0.167969 29.25 Z M 0.167969 0.683594 " fill-opacity="1" fill-rule="nonzero"/></g></g></g></g></g></g><g clip-path="url(#3b111eab92)"><g clip-path="url(#d65ab863d8)"><g transform="matrix(1, 0, 0, 1, 4, 1)"><g clip-path="url(#350f42ef8e)"><g clip-path="url(#746c3ff3f5)"><g clip-path="url(#76fcd76b9d)"><rect x="-10.6" width="43.2" fill="#ffffff" height="54.6048" y="-9.3424" fill-opacity="1"/></g></g></g></g></g></g><g clip-path="url(#5aadf69c67)"><path fill="#1800ad" d="M 14.738281 15.4375 L 14.640625 15.703125 L 13.507812 18.6875 C 13.429688 18.886719 13.238281 19.011719 13.035156 19.011719 C 12.980469 19.011719 12.925781 19.003906 12.871094 18.984375 C 12.613281 18.894531 12.472656 18.617188 12.550781 18.359375 L 13.378906 15.664062 L 12.925781 15.191406 L 12.117188 14.351562 L 12.105469 15.820312 L 12.105469 16.019531 L 12.054688 16.121094 L 11.277344 17.773438 L 10.886719 18.601562 C 10.773438 18.84375 10.488281 18.957031 10.238281 18.855469 L 10.164062 18.824219 C 9.914062 18.722656 9.785156 18.445312 9.875 18.191406 L 10.695312 15.785156 L 10.65625 15.453125 L 10.410156 13.464844 L 10.410156 13.460938 L 10.351562 13.148438 L 10.234375 12.5 L 10.210938 12.390625 C 10.210938 12.390625 13.632812 13.804688 13.714844 13.816406 L 14.542969 15.128906 L 14.738281 15.4375 " fill-opacity="1" fill-rule="nonzero"/></g><path fill="#1800ad" d="M 14.078125 9.382812 C 14.011719 9.457031 13.949219 9.535156 13.886719 9.613281 C 13.519531 10.070312 13.238281 10.570312 13.015625 11.109375 C 12.898438 11.382812 12.785156 11.65625 12.667969 11.929688 L 12.3125 11.789062 C 12.480469 11.398438 12.652344 11.007812 12.816406 10.617188 C 13.015625 10.152344 13.140625 9.667969 13.210938 9.167969 C 13.226562 9.066406 13.242188 8.96875 13.253906 8.875 C 13.277344 8.882812 13.296875 8.894531 13.320312 8.902344 C 13.507812 9.074219 13.738281 9.222656 14.007812 9.351562 C 14.027344 9.363281 14.050781 9.371094 14.078125 9.382812 " fill-opacity="1" fill-rule="nonzero"/><path fill="#faab11" d="M 11.980469 11.59375 C 11.660156 11.464844 11.339844 11.335938 11.015625 11.207031 C 11.058594 11.070312 11.101562 10.945312 11.144531 10.808594 C 11.464844 10.933594 11.828125 11.070312 12.15625 11.195312 C 12.097656 11.339844 12.027344 11.480469 11.980469 11.59375 " fill-opacity="1" fill-rule="nonzero"/><path fill="#faab11" d="M 13.019531 12.082031 C 13.082031 11.9375 13.136719 11.808594 13.191406 11.679688 C 13.503906 11.800781 13.8125 11.921875 14.128906 12.042969 C 14.070312 12.171875 14.015625 12.292969 13.957031 12.421875 C 13.644531 12.308594 13.335938 12.199219 13.019531 12.082031 " fill-opacity="1" fill-rule="nonzero"/><g clip-path="url(#9561e96517)"><path fill="#faab11" d="M 22.726562 18.878906 C 22.046875 17.792969 21.378906 16.699219 20.671875 15.632812 C 20.347656 15.136719 19.957031 14.675781 19.558594 14.234375 C 19.261719 13.910156 18.894531 13.960938 18.640625 14.324219 C 18.535156 14.476562 18.457031 14.65625 18.375 14.828125 C 18.335938 14.914062 18.296875 15 18.257812 15.097656 C 18.160156 15.71875 17.652344 16.1875 17.53125 16.296875 C 17.511719 16.308594 17.5 16.316406 17.5 16.316406 C 17.394531 16.398438 17.277344 16.460938 17.152344 16.5 C 17.023438 16.539062 16.890625 16.535156 16.757812 16.566406 C 16.757812 16.566406 16.753906 16.566406 16.753906 16.566406 C 16.5 16.675781 16.308594 16.890625 16.191406 17.132812 C 16.046875 17.417969 15.90625 17.703125 15.769531 17.992188 C 15.621094 18.300781 15.457031 18.613281 15.320312 18.929688 C 15.3125 18.945312 15.328125 18.972656 15.335938 19.011719 L 22.792969 19.011719 C 22.761719 18.949219 22.75 18.914062 22.726562 18.878906 " fill-opacity="1" fill-rule="nonzero"/></g><path fill="#1800ad" d="M 11.195312 8.449219 L 11.207031 8.445312 L 11.210938 8.445312 C 11.210938 8.445312 11.207031 8.445312 11.203125 8.445312 C 11.195312 8.445312 11.183594 8.445312 11.175781 8.445312 L 11.175781 8.449219 L 11.195312 8.449219 " fill-opacity="1" fill-rule="nonzero"/><g clip-path="url(#15c65552dd)"><path fill="#1800ad" d="M 18.015625 14.335938 L 15.980469 13.554688 L 15.898438 13.3125 C 15.835938 13.117188 15.777344 12.925781 15.710938 12.738281 L 15.542969 12.238281 C 15.519531 12.015625 15.449219 10.136719 15.421875 9.902344 L 14.496094 12.125 C 14.539062 12.359375 14.566406 12.496094 14.566406 12.496094 L 14.578125 12.527344 L 14.824219 13.082031 C 14.828125 13.09375 14.832031 13.105469 14.839844 13.117188 L 9.128906 10.925781 L 9.503906 9.9375 L 10.273438 10.023438 C 10.332031 10.035156 10.390625 10.042969 10.453125 10.042969 C 10.535156 10.046875 10.617188 10.042969 10.699219 10.03125 C 11.371094 9.921875 11.832031 9.285156 11.726562 8.613281 C 11.722656 8.597656 11.722656 8.585938 11.71875 8.574219 C 11.710938 8.53125 11.703125 8.492188 11.691406 8.457031 L 9.273438 8.679688 L 9.0625 8.699219 C 8.824219 8.726562 8.621094 8.894531 8.546875 9.125 L 8.148438 10.546875 L 7.367188 10.25 L 6.8125 11.589844 L 7.289062 11.789062 L 7.652344 10.914062 L 8.007812 11.046875 L 7.96875 11.179688 C 7.898438 11.4375 8.042969 11.707031 8.296875 11.789062 C 8.347656 11.804688 8.398438 11.8125 8.449219 11.8125 C 8.648438 11.8125 8.835938 11.6875 8.914062 11.492188 L 8.945312 11.410156 L 15.140625 13.789062 L 15.355469 14.269531 C 15.445312 14.464844 15.671875 14.558594 15.875 14.484375 C 16.015625 14.429688 16.109375 14.308594 16.132812 14.167969 L 17.828125 14.820312 L 18.015625 14.335938 " fill-opacity="1" fill-rule="nonzero"/></g><g clip-path="url(#e851e26888)"><path fill="#faab11" d="M 13.128906 6.628906 C 13.894531 6.957031 14.660156 7.289062 15.429688 7.613281 C 15.46875 7.628906 15.554688 7.617188 15.585938 7.59375 C 15.589844 7.589844 15.59375 7.585938 15.59375 7.582031 C 15.609375 7.554688 15.613281 7.523438 15.609375 7.488281 C 15.609375 7.449219 15.605469 7.410156 15.597656 7.375 C 15.578125 7.261719 15.507812 7.144531 15.523438 7.035156 C 15.597656 6.449219 15.347656 5.972656 14.863281 5.746094 C 14.761719 5.695312 14.644531 5.660156 14.523438 5.636719 C 13.90625 5.515625 13.398438 5.90625 13.128906 6.628906 " fill-opacity="1" fill-rule="nonzero"/></g><path fill="#1800ad" d="M 15.328125 8.246094 C 15.304688 8.285156 15.265625 8.316406 15.21875 8.328125 L 15.136719 8.34375 L 15.136719 8.414062 C 15.136719 8.4375 15.132812 8.460938 15.128906 8.484375 L 15.121094 8.496094 C 15.105469 8.546875 15.085938 8.597656 15.058594 8.644531 L 15.054688 8.648438 C 15.035156 8.683594 15.03125 8.699219 15.03125 8.734375 L 15.03125 8.738281 C 15.03125 8.753906 15.035156 8.769531 15.027344 8.789062 L 15.027344 8.792969 L 15.023438 8.796875 C 15.015625 8.851562 14.984375 8.894531 14.933594 8.933594 C 14.769531 9.058594 14.390625 9 14.214844 8.914062 C 13.753906 8.695312 13.375 8.382812 13.207031 7.878906 C 13.160156 7.734375 13.109375 7.585938 13.121094 7.429688 C 13.128906 7.375 13.136719 7.320312 13.152344 7.265625 C 13.183594 7.15625 13.234375 7.046875 13.300781 6.953125 C 13.925781 7.226562 14.550781 7.496094 15.183594 7.761719 C 15.179688 7.777344 15.179688 7.789062 15.179688 7.804688 L 15.179688 7.808594 C 15.183594 7.828125 15.1875 7.847656 15.195312 7.863281 C 15.210938 7.917969 15.234375 7.96875 15.269531 8.023438 C 15.296875 8.070312 15.316406 8.109375 15.332031 8.152344 C 15.347656 8.191406 15.335938 8.226562 15.328125 8.246094 " fill-opacity="1" fill-rule="nonzero"/></svg>