<svg xmlns="http://www.w3.org/2000/svg" xmlns:xlink="http://www.w3.org/1999/xlink" width="40" zoomAndPan="magnify" viewBox="0 0 30 37.92" height="40" preserveAspectRatio="xMidYMid meet" version="1.0"><defs><clipPath id="3f2efe96f5"><path d="M 3.113281 0.683594 L 26.886719 0.683594 L 26.886719 29.300781 L 3.113281 29.300781 Z M 3.113281 0.683594 " clip-rule="nonzero"/></clipPath><clipPath id="3661e065bd"><path d="M 19.457031 1.550781 C 18.035156 0.976562 16.539062 0.683594 15 0.683594 C 13.460938 0.683594 11.964844 0.976562 10.542969 1.550781 C 9.078125 2.144531 7.757812 3.019531 6.632812 4.148438 C 4.429688 6.355469 3.199219 9.285156 3.167969 12.402344 C 3.136719 15.511719 4.304688 18.464844 6.460938 20.707031 L 6.453125 20.710938 L 15 29.257812 L 23.5 20.757812 L 23.492188 20.753906 C 25.667969 18.511719 26.855469 15.558594 26.832031 12.433594 C 26.8125 9.300781 25.582031 6.363281 23.367188 4.148438 C 22.234375 3.019531 20.921875 2.144531 19.457031 1.550781 Z M 19.457031 1.550781 " clip-rule="nonzero"/></clipPath><clipPath id="b8b8d78bba"><path d="M 0.144531 0.683594 L 23.855469 0.683594 L 23.855469 29.300781 L 0.144531 29.300781 Z M 0.144531 0.683594 " clip-rule="nonzero"/></clipPath><clipPath id="609caf9939"><path d="M 16.457031 1.550781 C 15.035156 0.976562 13.539062 0.683594 12 0.683594 C 10.460938 0.683594 8.964844 0.976562 7.542969 1.550781 C 6.078125 2.144531 4.757812 3.019531 3.632812 4.148438 C 1.429688 6.355469 0.199219 9.285156 0.167969 12.402344 C 0.136719 15.511719 1.304688 18.464844 3.460938 20.707031 L 3.453125 20.710938 L 12 29.257812 L 20.5 20.757812 L 20.492188 20.753906 C 22.667969 18.511719 23.855469 15.558594 23.832031 12.433594 C 23.8125 9.300781 22.582031 6.363281 20.367188 4.148438 C 19.234375 3.019531 17.921875 2.144531 16.457031 1.550781 Z M 16.457031 1.550781 " clip-rule="nonzero"/></clipPath><clipPath id="5bcc8107c2"><rect x="0" width="24" y="0" height="30"/></clipPath><clipPath id="4f6d50ebd3"><path d="M 4.261719 1.777344 L 25.738281 1.777344 L 25.738281 23.203125 L 4.261719 23.203125 Z M 4.261719 1.777344 " clip-rule="nonzero"/></clipPath><clipPath id="c7a17b7da6"><path d="M 14.996094 1.789062 C 9.089844 1.789062 4.300781 6.578125 4.300781 12.484375 C 4.300781 18.390625 9.089844 23.179688 14.996094 23.179688 C 20.902344 23.179688 25.691406 18.390625 25.691406 12.484375 C 25.691406 6.578125 20.902344 1.789062 14.996094 1.789062 Z M 14.996094 1.789062 " clip-rule="nonzero"/></clipPath><clipPath id="2f6bccf749"><path d="M 0.261719 0.777344 L 21.738281 0.777344 L 21.738281 22.203125 L 0.261719 22.203125 Z M 0.261719 0.777344 " clip-rule="nonzero"/></clipPath><clipPath id="bde5f31fac"><path d="M 10.996094 0.789062 C 5.089844 0.789062 0.300781 5.578125 0.300781 11.484375 C 0.300781 17.390625 5.089844 22.179688 10.996094 22.179688 C 16.902344 22.179688 21.691406 17.390625 21.691406 11.484375 C 21.691406 5.578125 16.902344 0.789062 10.996094 0.789062 Z M 10.996094 0.789062 " clip-rule="nonzero"/></clipPath><clipPath id="69fa4c897b"><rect x="0" width="22" y="0" height="23"/></clipPath><clipPath id="114c0b154b"><path d="M 4.882812 8.519531 L 25.089844 8.519531 L 25.089844 15 L 4.882812 15 Z M 4.882812 8.519531 " clip-rule="nonzero"/></clipPath><clipPath id="28e67dd7d3"><path d="M 11 14 L 15 14 L 15 16.75 L 11 16.75 Z M 11 14 " clip-rule="nonzero"/></clipPath><clipPath id="29c03dfb1e"><path d="M 15 15 L 17 15 L 17 16.75 L 15 16.75 Z M 15 15 " clip-rule="nonzero"/></clipPath><clipPath id="650398fb47"><path d="M 13 12 L 21 12 L 21 16.75 L 13 16.75 Z M 13 12 " clip-rule="nonzero"/></clipPath></defs><g clip-path="url(#3f2efe96f5)"><g clip-path="url(#3661e065bd)"><g transform="matrix(1, 0, 0, 1, 3, 0.000000000000005773)"><g clip-path="url(#5bcc8107c2)"><g clip-path="url(#b8b8d78bba)"><g clip-path="url(#609caf9939)"><path fill="#faab11" d="M 0.167969 0.683594 L 23.832031 0.683594 L 23.832031 29.25 L 0.167969 29.25 Z M 0.167969 0.683594 " fill-opacity="1" fill-rule="nonzero"/></g></g></g></g></g></g><g clip-path="url(#4f6d50ebd3)"><g clip-path="url(#c7a17b7da6)"><g transform="matrix(1, 0, 0, 1, 4, 1)"><g clip-path="url(#69fa4c897b)"><g clip-path="url(#2f6bccf749)"><g clip-path="url(#bde5f31fac)"><rect x="-10.6" width="43.2" fill="#ffffff" height="54.6048" y="-9.3424" fill-opacity="1"/></g></g></g></g></g></g><g clip-path="url(#114c0b154b)"><path fill="#1800ad" d="M 7.121094 14.371094 L 12.289062 14.371094 C 12.222656 14.328125 12.136719 14.269531 12.046875 14.1875 L 11.859375 14.1875 L 11.90625 14.039062 C 11.851562 13.96875 11.796875 13.886719 11.757812 13.792969 L 11.617188 14.1875 L 9.683594 14.1875 L 11.082031 11.679688 L 12.507812 11.679688 L 12.480469 11.753906 C 12.570312 11.640625 12.664062 11.53125 12.769531 11.425781 L 13.164062 10.214844 L 14.292969 10.214844 L 14.257812 10.503906 C 14.277344 10.503906 14.296875 10.503906 14.316406 10.503906 C 14.347656 10.503906 14.375 10.503906 14.40625 10.507812 L 14.4375 10.214844 L 14.441406 10.15625 L 14.53125 9.257812 L 15.015625 9.257812 C 15.027344 9.242188 15.042969 9.226562 15.058594 9.214844 L 14.539062 9.214844 L 14.605469 8.546875 L 15.394531 8.546875 L 15.441406 8.996094 C 15.476562 8.980469 15.511719 8.972656 15.546875 8.960938 L 15.496094 8.546875 L 16.285156 8.546875 L 16.460938 9.074219 C 16.511719 9.101562 16.558594 9.136719 16.605469 9.171875 L 16.386719 8.546875 L 17.175781 8.546875 L 17.546875 9.214844 L 16.660156 9.214844 C 16.675781 9.226562 16.691406 9.238281 16.707031 9.253906 C 16.925781 9.460938 17.054688 9.730469 17.089844 10.011719 C 17.285156 10.199219 17.445312 10.398438 17.546875 10.582031 C 17.726562 10.917969 17.65625 11.105469 17.566406 11.203125 C 17.515625 11.253906 17.429688 11.316406 17.285156 11.316406 C 17.238281 11.316406 17.191406 11.308594 17.144531 11.296875 C 17.046875 11.347656 16.867188 11.265625 16.667969 11.097656 C 16.441406 11.289062 16.15625 11.398438 15.859375 11.398438 C 15.800781 11.398438 15.742188 11.390625 15.683594 11.382812 L 15.699219 11.527344 L 16.945312 13.0625 L 20.226562 12.070312 L 20.839844 14.097656 L 19.929688 14.371094 L 25.09375 14.371094 L 22.40625 11.78125 L 22.207031 11.585938 L 19.789062 9.257812 L 19.746094 9.214844 L 19.023438 8.519531 L 10.976562 8.519531 L 10.253906 9.214844 L 10.210938 9.257812 L 7.792969 11.585938 L 7.59375 11.78125 L 4.90625 14.371094 Z M 24.664062 14.1875 L 22.730469 14.1875 L 20.703125 11.679688 L 22.128906 11.679688 Z M 22.03125 11.585938 L 20.625 11.585938 L 19.515625 10.214844 L 19.46875 10.15625 L 18.738281 9.257812 L 19.671875 9.257812 Z M 18.957031 8.546875 L 19.632812 9.214844 L 18.707031 9.214844 L 18.164062 8.546875 Z M 18.066406 8.546875 L 18.589844 9.214844 L 18.621094 9.257812 L 19.328125 10.15625 L 18.210938 10.15625 L 17.6875 9.257812 L 17.664062 9.214844 L 17.273438 8.546875 Z M 10.957031 11.585938 L 10.84375 11.78125 L 9.445312 14.1875 L 7.511719 14.1875 L 9.398438 11.78125 L 9.550781 11.585938 L 10.625 10.214844 L 11.753906 10.214844 Z M 13.046875 10.15625 L 13.023438 10.214844 L 12.539062 11.585938 L 11.132812 11.585938 L 11.894531 10.214844 L 11.929688 10.15625 L 12.429688 9.257812 L 13.363281 9.257812 Z M 13.714844 8.546875 L 14.503906 8.546875 L 14.421875 9.214844 L 14.417969 9.257812 L 14.300781 10.15625 L 13.183594 10.15625 L 13.480469 9.257812 L 13.496094 9.214844 Z M 12.824219 8.546875 L 13.617188 8.546875 L 13.378906 9.214844 L 12.453125 9.214844 Z M 11.933594 8.546875 L 12.726562 8.546875 L 12.335938 9.214844 L 12.3125 9.257812 L 11.789062 10.15625 L 10.671875 10.15625 L 11.378906 9.257812 L 11.410156 9.214844 Z M 11.042969 8.546875 L 11.835938 8.546875 L 11.296875 9.214844 L 10.367188 9.214844 Z M 10.328125 9.257812 L 11.261719 9.257812 L 10.53125 10.15625 L 10.484375 10.214844 L 9.375 11.585938 L 7.96875 11.585938 Z M 7.875 11.679688 L 9.296875 11.679688 L 7.269531 14.1875 L 5.335938 14.1875 Z M 7.875 11.679688 " fill-opacity="1" fill-rule="nonzero"/></g><g clip-path="url(#28e67dd7d3)"><path fill="#1800ad" d="M 12.953125 14.46875 L 12.902344 14.472656 C 12.890625 14.472656 12.878906 14.472656 12.863281 14.472656 C 12.847656 14.472656 12.835938 14.472656 12.820312 14.472656 C 12.808594 14.472656 12.789062 14.46875 12.773438 14.46875 C 12.753906 14.464844 12.738281 14.460938 12.71875 14.457031 L 13.109375 15.316406 L 11.78125 15.316406 C 11.46875 15.316406 11.21875 15.566406 11.21875 15.878906 C 11.21875 16.191406 11.46875 16.441406 11.78125 16.441406 L 13.988281 16.441406 C 14.179688 16.441406 14.355469 16.34375 14.460938 16.183594 C 14.496094 16.125 14.523438 16.066406 14.535156 16 L 13.511719 16.3125 Z M 12.953125 14.46875 " fill-opacity="1" fill-rule="nonzero"/></g><path fill="#1800ad" d="M 12 12.972656 C 11.726562 13.660156 12.105469 13.992188 12.453125 14.210938 C 12.464844 14.214844 12.476562 14.222656 12.488281 14.230469 C 12.570312 14.300781 12.675781 14.351562 12.789062 14.363281 C 12.800781 14.367188 12.8125 14.367188 12.828125 14.367188 C 12.847656 14.371094 12.871094 14.371094 12.894531 14.367188 L 12.921875 14.367188 L 12.898438 14.285156 L 14.25 13.878906 L 14.175781 13.824219 C 14.066406 13.746094 13.996094 13.625 13.984375 13.488281 L 13.957031 13.167969 L 13.777344 13.179688 C 13.832031 13.113281 13.886719 13.046875 13.941406 12.980469 L 13.828125 11.671875 C 13.816406 11.546875 13.855469 11.425781 13.9375 11.332031 C 14.015625 11.238281 14.128906 11.179688 14.25 11.167969 C 14.265625 11.167969 14.277344 11.167969 14.292969 11.167969 C 14.535156 11.167969 14.730469 11.347656 14.753906 11.589844 L 14.792969 12.078125 C 14.820312 12.050781 14.84375 12.027344 14.863281 12 L 15.96875 13.359375 L 16.714844 13.132812 L 15.066406 11.105469 C 15.046875 11.09375 15.03125 11.078125 15.015625 11.0625 C 14.964844 11.015625 14.917969 10.964844 14.875 10.910156 C 14.578125 10.683594 14.058594 10.621094 13.566406 11.007812 C 12.816406 11.605469 12.441406 12.070312 12 12.972656 Z M 12 12.972656 " fill-opacity="1" fill-rule="nonzero"/><path fill="#1800ad" d="M 15.011719 13.097656 L 14.882812 13.105469 L 14.890625 13.199219 L 15.367188 13.539062 L 15.582031 13.472656 C 15.5 13.234375 15.265625 13.078125 15.011719 13.097656 Z M 15.011719 13.097656 " fill-opacity="1" fill-rule="nonzero"/><g clip-path="url(#29c03dfb1e)"><path fill="#1800ad" d="M 15.277344 16.121094 C 15.355469 16.355469 15.574219 16.503906 15.808594 16.503906 C 15.871094 16.503906 15.929688 16.496094 15.988281 16.476562 C 16.285156 16.378906 16.441406 16.058594 16.34375 15.765625 L 16.25 15.484375 L 15.171875 15.808594 Z M 15.277344 16.121094 " fill-opacity="1" fill-rule="nonzero"/></g><path fill="#1800ad" d="M 16.5 10.941406 C 16.4375 10.878906 16.375 10.804688 16.3125 10.726562 C 15.988281 10.3125 15.832031 9.890625 15.960938 9.773438 C 15.90625 9.933594 16.117188 10.292969 16.472656 10.625 C 16.863281 10.992188 17.277344 11.179688 17.398438 11.050781 C 17.523438 10.921875 17.304688 10.519531 16.914062 10.15625 C 16.898438 10.140625 16.886719 10.128906 16.871094 10.117188 C 16.863281 9.859375 16.753906 9.609375 16.550781 9.417969 C 16.144531 9.035156 15.5 9.058594 15.121094 9.46875 C 14.738281 9.875 14.761719 10.515625 15.167969 10.898438 C 15.542969 11.25 16.113281 11.257812 16.5 10.941406 Z M 16.5 10.941406 " fill-opacity="1" fill-rule="nonzero"/><g clip-path="url(#650398fb47)"><path fill="#1800ad" d="M 20.136719 12.238281 L 15.503906 13.640625 L 15.691406 13.773438 L 20.011719 12.46875 L 20.441406 13.882812 L 13.726562 15.914062 L 13.296875 14.5 L 14.574219 14.113281 L 14.386719 13.976562 L 13.066406 14.375 L 13.601562 16.140625 L 20.667969 14.007812 Z M 20.136719 12.238281 " fill-opacity="1" fill-rule="nonzero"/></g><path fill="#1800ad" d="M 14.792969 13.253906 L 14.648438 11.597656 C 14.632812 11.402344 14.460938 11.253906 14.257812 11.273438 C 14.0625 11.289062 13.914062 11.464844 13.933594 11.660156 L 14.089844 13.480469 C 14.097656 13.585938 14.152344 13.679688 14.238281 13.742188 L 15.8125 14.878906 C 15.878906 14.925781 15.949219 14.945312 16.023438 14.945312 C 16.136719 14.945312 16.246094 14.894531 16.316406 14.796875 C 16.433594 14.636719 16.394531 14.410156 16.234375 14.292969 Z M 14.792969 13.253906 " fill-opacity="1" fill-rule="nonzero"/></svg>