<svg xmlns="http://www.w3.org/2000/svg" xmlns:xlink="http://www.w3.org/1999/xlink" width="40" zoomAndPan="magnify" viewBox="0 0 30 37.92" height="40" preserveAspectRatio="xMidYMid meet" version="1.0"><defs><clipPath id="705fcb9758"><path d="M 3.113281 0.683594 L 26.886719 0.683594 L 26.886719 29.300781 L 3.113281 29.300781 Z M 3.113281 0.683594 " clip-rule="nonzero"/></clipPath><clipPath id="6cf3f775a6"><path d="M 19.457031 1.550781 C 18.035156 0.976562 16.539062 0.683594 15 0.683594 C 13.460938 0.683594 11.964844 0.976562 10.542969 1.550781 C 9.078125 2.144531 7.757812 3.019531 6.632812 4.148438 C 4.429688 6.355469 3.199219 9.285156 3.167969 12.402344 C 3.136719 15.511719 4.304688 18.464844 6.460938 20.707031 L 6.453125 20.710938 L 15 29.257812 L 23.5 20.757812 L 23.492188 20.753906 C 25.667969 18.511719 26.855469 15.558594 26.832031 12.433594 C 26.8125 9.300781 25.582031 6.363281 23.367188 4.148438 C 22.234375 3.019531 20.921875 2.144531 19.457031 1.550781 Z M 19.457031 1.550781 " clip-rule="nonzero"/></clipPath><clipPath id="0eaa0dbda8"><path d="M 0.144531 0.683594 L 23.855469 0.683594 L 23.855469 29.300781 L 0.144531 29.300781 Z M 0.144531 0.683594 " clip-rule="nonzero"/></clipPath><clipPath id="11c21f827a"><path d="M 16.457031 1.550781 C 15.035156 0.976562 13.539062 0.683594 12 0.683594 C 10.460938 0.683594 8.964844 0.976562 7.542969 1.550781 C 6.078125 2.144531 4.757812 3.019531 3.632812 4.148438 C 1.429688 6.355469 0.199219 9.285156 0.167969 12.402344 C 0.136719 15.511719 1.304688 18.464844 3.460938 20.707031 L 3.453125 20.710938 L 12 29.257812 L 20.5 20.757812 L 20.492188 20.753906 C 22.667969 18.511719 23.855469 15.558594 23.832031 12.433594 C 23.8125 9.300781 22.582031 6.363281 20.367188 4.148438 C 19.234375 3.019531 17.921875 2.144531 16.457031 1.550781 Z M 16.457031 1.550781 " clip-rule="nonzero"/></clipPath><clipPath id="ae17f267ee"><rect x="0" width="24" y="0" height="30"/></clipPath><clipPath id="bd5f10007f"><path d="M 4.261719 1.777344 L 25.738281 1.777344 L 25.738281 23.203125 L 4.261719 23.203125 Z M 4.261719 1.777344 " clip-rule="nonzero"/></clipPath><clipPath id="c7d8f36a2a"><path d="M 14.996094 1.789062 C 9.089844 1.789062 4.300781 6.578125 4.300781 12.484375 C 4.300781 18.390625 9.089844 23.179688 14.996094 23.179688 C 20.902344 23.179688 25.691406 18.390625 25.691406 12.484375 C 25.691406 6.578125 20.902344 1.789062 14.996094 1.789062 Z M 14.996094 1.789062 " clip-rule="nonzero"/></clipPath><clipPath id="28e3ba5d7a"><path d="M 0.261719 0.777344 L 21.738281 0.777344 L 21.738281 22.203125 L 0.261719 22.203125 Z M 0.261719 0.777344 " clip-rule="nonzero"/></clipPath><clipPath id="51e2ecd14f"><path d="M 10.996094 0.789062 C 5.089844 0.789062 0.300781 5.578125 0.300781 11.484375 C 0.300781 17.390625 5.089844 22.179688 10.996094 22.179688 C 16.902344 22.179688 21.691406 17.390625 21.691406 11.484375 C 21.691406 5.578125 16.902344 0.789062 10.996094 0.789062 Z M 10.996094 0.789062 " clip-rule="nonzero"/></clipPath><clipPath id="8d6b9c9fe6"><rect x="0" width="22" y="0" height="23"/></clipPath><clipPath id="ddc424de6b"><path d="M 7.765625 5.117188 L 21.984375 5.117188 L 21.984375 20 L 7.765625 20 Z M 7.765625 5.117188 " clip-rule="nonzero"/></clipPath></defs><g clip-path="url(#705fcb9758)"><g clip-path="url(#6cf3f775a6)"><g transform="matrix(1, 0, 0, 1, 3, 0.000000000000005773)"><g clip-path="url(#ae17f267ee)"><g clip-path="url(#0eaa0dbda8)"><g clip-path="url(#11c21f827a)"><path fill="#faab11" d="M 0.167969 0.683594 L 23.832031 0.683594 L 23.832031 29.25 L 0.167969 29.25 Z M 0.167969 0.683594 " fill-opacity="1" fill-rule="nonzero"/></g></g></g></g></g></g><g clip-path="url(#bd5f10007f)"><g clip-path="url(#c7d8f36a2a)"><g transform="matrix(1, 0, 0, 1, 4, 1)"><g clip-path="url(#8d6b9c9fe6)"><g clip-path="url(#28e3ba5d7a)"><g clip-path="url(#51e2ecd14f)"><rect x="-10.6" width="43.2" fill="#ffffff" height="54.6048" y="-9.3424" fill-opacity="1"/></g></g></g></g></g></g><g clip-path="url(#ddc424de6b)"><path fill="#1800ad" d="M 18.773438 10.753906 L 18.773438 12.101562 C 18.773438 12.1875 18.757812 12.269531 18.730469 12.347656 C 19.679688 12.398438 20.480469 11.6875 20.542969 10.753906 Z M 18.773438 10 L 18.773438 10.417969 L 20.53125 10.417969 C 20.511719 10.273438 20.476562 10.132812 20.425781 10 Z M 18.671875 8.929688 C 18.785156 9.203125 18.773438 9.386719 18.773438 9.667969 L 20.246094 9.667969 C 19.898438 9.164062 19.308594 8.875 18.671875 8.929688 Z M 16.105469 9.519531 C 16.304688 9.535156 16.503906 9.523438 16.699219 9.480469 C 17.140625 9.382812 17.328125 9.195312 17.40625 9.171875 C 17.496094 9.144531 17.589844 9.195312 17.613281 9.28125 C 17.757812 9.757812 17.761719 10.226562 17.632812 10.703125 C 17.621094 10.742188 17.597656 10.773438 17.5625 10.800781 C 17.136719 11.09375 16.621094 11.234375 16.105469 11.195312 L 16.105469 12.671875 C 16.105469 12.929688 16.355469 13.097656 16.589844 13.015625 L 18.199219 12.445312 C 18.347656 12.390625 18.441406 12.261719 18.441406 12.101562 L 18.441406 9.433594 C 18.441406 8.894531 17.996094 8.453125 17.457031 8.453125 L 16.234375 8.453125 C 16.164062 8.453125 16.105469 8.511719 16.105469 8.578125 Z M 16.105469 10.859375 C 16.304688 10.878906 16.507812 10.863281 16.699219 10.820312 C 16.921875 10.769531 17.132812 10.683594 17.324219 10.558594 C 17.371094 10.378906 17.394531 10.191406 17.390625 10.003906 C 17.390625 9.867188 17.375 9.730469 17.347656 9.589844 C 16.96875 9.796875 16.535156 9.886719 16.105469 9.851562 Z M 11.1875 9.175781 L 11.1875 15.617188 L 12.304688 16.195312 L 11.933594 14.472656 C 11.90625 14.351562 12.019531 14.242188 12.140625 14.277344 L 12.730469 14.441406 L 12.078125 13.324219 C 12.027344 13.238281 12.050781 13.136719 12.128906 13.089844 L 12.632812 12.78125 C 12.554688 12.765625 12.496094 12.699219 12.496094 12.617188 L 12.496094 11.929688 C 12.496094 11.839844 12.570312 11.761719 12.664062 11.761719 L 13.476562 11.761719 L 13.960938 11.230469 L 13.382812 11.230469 C 13.246094 11.238281 13.171875 11.105469 13.21875 11 L 13.492188 10.382812 L 12.984375 10.566406 C 12.835938 10.621094 12.699219 10.457031 12.785156 10.324219 L 13.628906 8.976562 L 12.46875 9.632812 C 12.347656 9.703125 12.207031 9.609375 12.214844 9.480469 L 12.277344 8.417969 Z M 14.253906 13.523438 C 14.363281 13.472656 14.484375 13.445312 14.605469 13.445312 L 14.605469 12.195312 C 14.605469 12.140625 14.5625 12.097656 14.507812 12.097656 L 12.832031 12.097656 L 12.832031 12.453125 L 13.820312 12.453125 C 14.058594 12.453125 14.253906 12.644531 14.253906 12.882812 Z M 17.90625 13.835938 L 17.398438 14.484375 C 17.21875 14.714844 16.902344 14.773438 16.636719 14.65625 L 14.71875 13.789062 C 14.585938 13.753906 14.4375 13.789062 14.316406 13.867188 C 14.183594 13.953125 14.082031 14.09375 14.089844 14.257812 C 14.097656 14.398438 14.183594 14.5625 14.394531 14.730469 C 14.980469 15.191406 16.074219 15.773438 16.746094 16.074219 C 17.007812 16.191406 17.296875 16.230469 17.550781 16.082031 L 18.5625 15.488281 C 18.664062 15.429688 18.792969 15.496094 18.808594 15.609375 L 19.246094 18.6875 L 22.128906 18.714844 C 22.226562 17.671875 22.128906 14.734375 21.242188 13.445312 C 20.925781 12.984375 20.53125 12.769531 20.011719 12.910156 L 19.097656 13.15625 C 18.632812 13.277344 18.203125 13.449219 17.90625 13.835938 Z M 7.769531 5.898438 L 11.714844 5.898438 L 11.714844 5.117188 L 7.769531 5.117188 Z M 7.769531 19.816406 L 11.714844 19.816406 L 11.714844 19.035156 L 7.769531 19.035156 Z M 10.851562 12.925781 L 8.632812 12.925781 L 8.632812 18.699219 L 10.851562 18.699219 Z M 10.851562 12.027344 L 8.632812 12.027344 L 8.632812 12.59375 L 10.851562 12.59375 Z M 8.632812 11.691406 L 10.851562 11.691406 L 10.851562 6.230469 L 8.632812 6.230469 Z M 8.632812 11.691406 " fill-opacity="1" fill-rule="nonzero"/></g></svg>