<svg xmlns="http://www.w3.org/2000/svg" xmlns:xlink="http://www.w3.org/1999/xlink" width="40" zoomAndPan="magnify" viewBox="0 0 30 37.92" height="40" preserveAspectRatio="xMidYMid meet" version="1.0"><defs><clipPath id="8806ba63eb"><path d="M 3.113281 0.683594 L 26.886719 0.683594 L 26.886719 29.300781 L 3.113281 29.300781 Z M 3.113281 0.683594 " clip-rule="nonzero"/></clipPath><clipPath id="0960d6edee"><path d="M 19.457031 1.550781 C 18.035156 0.976562 16.539062 0.683594 15 0.683594 C 13.460938 0.683594 11.964844 0.976562 10.542969 1.550781 C 9.078125 2.144531 7.757812 3.019531 6.632812 4.148438 C 4.429688 6.355469 3.199219 9.285156 3.167969 12.402344 C 3.136719 15.511719 4.304688 18.464844 6.460938 20.707031 L 6.453125 20.710938 L 15 29.257812 L 23.5 20.757812 L 23.492188 20.753906 C 25.667969 18.511719 26.855469 15.558594 26.832031 12.433594 C 26.8125 9.300781 25.582031 6.363281 23.367188 4.148438 C 22.234375 3.019531 20.921875 2.144531 19.457031 1.550781 Z M 19.457031 1.550781 " clip-rule="nonzero"/></clipPath><clipPath id="034f00be78"><path d="M 0.144531 0.683594 L 23.855469 0.683594 L 23.855469 29.300781 L 0.144531 29.300781 Z M 0.144531 0.683594 " clip-rule="nonzero"/></clipPath><clipPath id="17a1d9058a"><path d="M 16.457031 1.550781 C 15.035156 0.976562 13.539062 0.683594 12 0.683594 C 10.460938 0.683594 8.964844 0.976562 7.542969 1.550781 C 6.078125 2.144531 4.757812 3.019531 3.632812 4.148438 C 1.429688 6.355469 0.199219 9.285156 0.167969 12.402344 C 0.136719 15.511719 1.304688 18.464844 3.460938 20.707031 L 3.453125 20.710938 L 12 29.257812 L 20.5 20.757812 L 20.492188 20.753906 C 22.667969 18.511719 23.855469 15.558594 23.832031 12.433594 C 23.8125 9.300781 22.582031 6.363281 20.367188 4.148438 C 19.234375 3.019531 17.921875 2.144531 16.457031 1.550781 Z M 16.457031 1.550781 " clip-rule="nonzero"/></clipPath><clipPath id="0a11749179"><rect x="0" width="24" y="0" height="30"/></clipPath><clipPath id="5540545a56"><path d="M 4.261719 1.777344 L 25.738281 1.777344 L 25.738281 23.203125 L 4.261719 23.203125 Z M 4.261719 1.777344 " clip-rule="nonzero"/></clipPath><clipPath id="e8d589c296"><path d="M 14.996094 1.789062 C 9.089844 1.789062 4.300781 6.578125 4.300781 12.484375 C 4.300781 18.390625 9.089844 23.179688 14.996094 23.179688 C 20.902344 23.179688 25.691406 18.390625 25.691406 12.484375 C 25.691406 6.578125 20.902344 1.789062 14.996094 1.789062 Z M 14.996094 1.789062 " clip-rule="nonzero"/></clipPath><clipPath id="3185fd7e8b"><path d="M 0.261719 0.777344 L 21.738281 0.777344 L 21.738281 22.203125 L 0.261719 22.203125 Z M 0.261719 0.777344 " clip-rule="nonzero"/></clipPath><clipPath id="2ec92781cc"><path d="M 10.996094 0.789062 C 5.089844 0.789062 0.300781 5.578125 0.300781 11.484375 C 0.300781 17.390625 5.089844 22.179688 10.996094 22.179688 C 16.902344 22.179688 21.691406 17.390625 21.691406 11.484375 C 21.691406 5.578125 16.902344 0.789062 10.996094 0.789062 Z M 10.996094 0.789062 " clip-rule="nonzero"/></clipPath><clipPath id="9adfeca762"><rect x="0" width="22" y="0" height="23"/></clipPath><clipPath id="01db9c1aef"><path d="M 7.894531 6 L 22.113281 6 L 22.113281 20 L 7.894531 20 Z M 7.894531 6 " clip-rule="nonzero"/></clipPath></defs><g clip-path="url(#8806ba63eb)"><g clip-path="url(#0960d6edee)"><g transform="matrix(1, 0, 0, 1, 3, 0.000000000000005773)"><g clip-path="url(#0a11749179)"><g clip-path="url(#034f00be78)"><g clip-path="url(#17a1d9058a)"><path fill="#faab11" d="M 0.167969 0.683594 L 23.832031 0.683594 L 23.832031 29.25 L 0.167969 29.25 Z M 0.167969 0.683594 " fill-opacity="1" fill-rule="nonzero"/></g></g></g></g></g></g><g clip-path="url(#5540545a56)"><g clip-path="url(#e8d589c296)"><g transform="matrix(1, 0, 0, 1, 4, 1)"><g clip-path="url(#9adfeca762)"><g clip-path="url(#3185fd7e8b)"><g clip-path="url(#2ec92781cc)"><rect x="-10.6" width="43.2" fill="#ffffff" height="54.6048" y="-9.3424" fill-opacity="1"/></g></g></g></g></g></g><g clip-path="url(#01db9c1aef)"><path fill="#1800ad" d="M 8.457031 17.96875 C 8.265625 18.023438 8.175781 18.175781 8.152344 18.363281 C 8.136719 18.507812 8.136719 18.652344 8.164062 18.796875 C 8.179688 18.878906 8.207031 18.964844 8.167969 19.042969 C 8.050781 19.277344 8.070312 19.527344 8.054688 19.777344 C 8.050781 19.882812 8.105469 19.945312 8.210938 19.945312 C 8.386719 19.949219 8.566406 19.949219 8.742188 19.945312 C 8.785156 19.945312 8.824219 19.9375 8.847656 19.890625 C 8.914062 19.742188 8.851562 19.617188 8.6875 19.582031 C 8.664062 19.578125 8.636719 19.574219 8.613281 19.5625 C 8.546875 19.535156 8.425781 19.542969 8.464844 19.429688 C 8.5 19.332031 8.585938 19.421875 8.648438 19.429688 C 8.753906 19.445312 8.886719 19.445312 8.957031 19.507812 C 9.042969 19.582031 8.976562 19.726562 8.988281 19.835938 C 8.996094 19.894531 9.003906 19.945312 9.074219 19.945312 C 9.144531 19.941406 9.246094 19.980469 9.273438 19.902344 C 9.324219 19.734375 9.355469 19.5625 9.378906 19.386719 C 9.394531 19.285156 9.292969 19.242188 9.238281 19.175781 C 9.074219 18.984375 9.058594 18.6875 9.203125 18.492188 C 9.253906 18.417969 9.328125 18.390625 9.40625 18.425781 C 9.503906 18.476562 9.433594 18.542969 9.402344 18.59375 C 9.347656 18.679688 9.375 18.75 9.421875 18.828125 C 9.496094 18.945312 9.609375 18.964844 9.734375 18.964844 C 9.855469 18.960938 9.933594 18.890625 9.972656 18.773438 C 9.988281 18.730469 10 18.6875 10.023438 18.644531 C 10.0625 18.578125 10.125 18.554688 10.199219 18.582031 C 10.269531 18.609375 10.324219 18.667969 10.296875 18.738281 C 10.207031 18.972656 10.144531 19.234375 9.871094 19.335938 C 9.78125 19.371094 9.738281 19.425781 9.722656 19.515625 C 9.714844 19.582031 9.695312 19.648438 9.683594 19.714844 C 9.636719 19.945312 9.65625 19.957031 9.890625 19.949219 C 10.019531 19.945312 10.011719 19.851562 10.03125 19.777344 C 10.050781 19.707031 10.09375 19.691406 10.160156 19.695312 C 10.207031 19.699219 10.226562 19.722656 10.21875 19.765625 C 10.1875 19.941406 10.292969 19.945312 10.421875 19.945312 C 11.6875 19.945312 12.953125 19.945312 14.21875 19.945312 C 14.453125 19.945312 14.503906 19.890625 14.476562 19.65625 C 14.445312 19.417969 14.402344 19.183594 14.371094 18.945312 C 14.347656 18.796875 14.277344 18.625 14.328125 18.503906 C 14.425781 18.273438 14.429688 18.039062 14.449219 17.804688 C 14.453125 17.769531 14.453125 17.722656 14.484375 17.703125 C 14.53125 17.683594 14.5625 17.726562 14.59375 17.75 C 14.667969 17.8125 14.742188 17.878906 14.820312 17.941406 C 14.980469 18.066406 15.140625 18.183594 15.347656 18.226562 C 15.660156 18.292969 15.929688 18.191406 16.191406 18.035156 C 16.261719 17.996094 16.316406 17.957031 16.394531 18.039062 C 17.15625 18.828125 18.234375 18.714844 18.964844 18.125 C 19.382812 17.789062 19.644531 17.34375 19.847656 16.859375 C 20.199219 16.023438 20.300781 15.132812 20.339844 14.238281 C 20.371094 13.507812 20.371094 12.773438 20.324219 12.039062 C 20.300781 11.675781 20.316406 11.3125 20.3125 10.945312 C 20.3125 10.894531 20.308594 10.832031 20.378906 10.828125 C 20.453125 10.820312 20.453125 10.882812 20.460938 10.933594 C 20.46875 11 20.480469 11.066406 20.480469 11.136719 C 20.484375 11.714844 20.527344 12.289062 20.539062 12.867188 C 20.558594 13.996094 20.621094 15.125 20.609375 16.257812 C 20.597656 17.21875 20.613281 18.183594 20.617188 19.144531 C 20.621094 19.332031 20.632812 19.519531 20.636719 19.707031 C 20.640625 19.800781 20.675781 19.871094 20.777344 19.882812 C 20.890625 19.890625 20.941406 19.824219 20.960938 19.730469 C 20.96875 19.679688 20.96875 19.625 20.96875 19.574219 C 20.957031 17.898438 20.945312 16.222656 20.933594 14.542969 C 20.933594 14.316406 20.917969 14.085938 20.90625 13.859375 C 20.902344 13.753906 20.9375 13.710938 21.046875 13.75 C 21.214844 13.8125 21.382812 13.800781 21.550781 13.738281 C 21.640625 13.703125 21.738281 13.679688 21.832031 13.652344 C 22.09375 13.570312 22.09375 13.570312 22.09375 13.292969 C 22.09375 11.039062 22.09375 8.785156 22.09375 6.53125 C 22.09375 6.472656 22.09375 6.414062 22.09375 6.359375 C 22.09375 6.304688 22.070312 6.25 22.015625 6.230469 C 21.734375 6.117188 21.472656 5.949219 21.140625 6.011719 C 20.886719 6.054688 20.625 6.058594 20.367188 6.085938 C 19.917969 6.128906 19.46875 6.179688 19.019531 6.222656 C 18.5625 6.273438 18.101562 6.316406 17.640625 6.367188 C 17.285156 6.402344 16.929688 6.445312 16.570312 6.484375 C 16.417969 6.5 16.351562 6.585938 16.335938 6.726562 C 16.328125 6.796875 16.328125 6.871094 16.328125 6.945312 C 16.335938 7.722656 16.332031 8.503906 16.347656 9.285156 C 16.363281 10.21875 16.351562 11.148438 16.351562 12.082031 C 16.351562 12.234375 16.335938 12.382812 16.433594 12.519531 C 16.46875 12.570312 16.445312 12.628906 16.417969 12.679688 C 16.257812 12.980469 16.15625 13.304688 16.023438 13.613281 C 15.992188 13.691406 15.949219 13.730469 15.871094 13.75 C 15.683594 13.804688 15.503906 13.875 15.363281 14.011719 C 15.269531 14.101562 15.234375 14.054688 15.199219 13.96875 C 15.105469 13.757812 15.035156 13.542969 14.96875 13.324219 C 14.84375 12.933594 14.660156 12.582031 14.335938 12.320312 C 14.109375 12.136719 13.867188 11.980469 13.5625 11.84375 C 13.691406 11.785156 13.761719 11.699219 13.816406 11.601562 C 13.980469 11.296875 14.128906 10.980469 14.210938 10.640625 C 14.238281 10.53125 14.269531 10.464844 14.386719 10.4375 C 14.578125 10.390625 14.65625 10.226562 14.601562 10.035156 C 14.566406 9.910156 14.515625 9.792969 14.472656 9.667969 C 14.417969 9.507812 14.363281 9.351562 14.523438 9.210938 C 14.550781 9.191406 14.566406 9.148438 14.566406 9.117188 C 14.582031 8.949219 14.695312 8.929688 14.828125 8.914062 C 15 8.894531 15.167969 8.867188 15.320312 8.777344 C 15.554688 8.632812 15.554688 8.386719 15.324219 8.238281 C 15.226562 8.179688 15.125 8.113281 15.011719 8.101562 C 14.820312 8.085938 14.78125 7.96875 14.746094 7.808594 C 14.601562 7.152344 14.269531 6.625 13.660156 6.300781 C 13.238281 6.070312 12.773438 5.996094 12.285156 6.054688 C 11.503906 6.144531 10.882812 6.484375 10.480469 7.179688 C 10.285156 7.519531 10.195312 7.890625 10.152344 8.277344 C 10.148438 8.339844 10.140625 8.394531 10.074219 8.433594 C 9.902344 8.53125 9.828125 8.695312 9.855469 8.882812 C 9.882812 9.082031 10.027344 9.1875 10.222656 9.210938 C 10.363281 9.230469 10.425781 9.304688 10.445312 9.441406 C 10.5 9.765625 10.625 10.058594 10.835938 10.3125 C 10.933594 10.421875 10.835938 10.667969 10.691406 10.675781 C 10.542969 10.683594 10.460938 10.765625 10.398438 10.875 C 10.328125 10.992188 10.261719 11.109375 10.210938 11.230469 C 10.164062 11.34375 10.09375 11.414062 9.980469 11.464844 C 9.554688 11.644531 9.160156 11.871094 8.789062 12.140625 C 8.300781 12.492188 7.972656 12.941406 7.933594 13.558594 C 7.902344 14.027344 7.957031 14.492188 8.039062 14.957031 C 8.210938 15.917969 8.375 16.878906 8.542969 17.839844 C 8.554688 17.917969 8.535156 17.945312 8.457031 17.96875 Z M 21.574219 11.78125 C 21.574219 11.144531 21.574219 10.511719 21.574219 9.875 C 21.574219 8.796875 21.574219 7.722656 21.574219 6.644531 C 21.574219 6.597656 21.574219 6.550781 21.574219 6.503906 C 21.578125 6.464844 21.585938 6.429688 21.632812 6.429688 C 21.679688 6.425781 21.722656 6.445312 21.730469 6.488281 C 21.742188 6.539062 21.738281 6.59375 21.738281 6.644531 C 21.738281 8.804688 21.738281 10.964844 21.738281 13.125 C 21.738281 13.160156 21.738281 13.195312 21.738281 13.234375 C 21.742188 13.300781 21.707031 13.34375 21.640625 13.347656 C 21.554688 13.351562 21.574219 13.28125 21.574219 13.234375 C 21.570312 12.75 21.574219 12.261719 21.574219 11.78125 Z M 8.652344 19.015625 C 8.597656 19.023438 8.578125 18.988281 8.5625 18.949219 C 8.5 18.769531 8.496094 18.582031 8.511719 18.398438 C 8.515625 18.359375 8.53125 18.320312 8.574219 18.320312 C 8.625 18.316406 8.640625 18.359375 8.644531 18.402344 C 8.664062 18.578125 8.683594 18.75 8.707031 18.933594 C 8.707031 18.96875 8.707031 19.011719 8.652344 19.015625 Z M 9.835938 17.121094 C 9.777344 17.285156 9.789062 17.285156 9.660156 17.160156 C 9.535156 17.035156 9.429688 16.894531 9.34375 16.742188 C 9.316406 16.695312 9.289062 16.648438 9.300781 16.570312 C 9.300781 16.570312 9.304688 16.542969 9.3125 16.519531 C 9.679688 15.710938 10.292969 15.222656 11.175781 15.082031 C 11.328125 15.058594 11.4375 15.132812 11.507812 15.28125 C 11.660156 15.585938 11.667969 15.582031 11.347656 15.664062 C 10.566406 15.867188 10.09375 16.382812 9.835938 17.121094 Z M 11.617188 19.121094 C 11.617188 19.128906 11.617188 19.140625 11.617188 19.152344 C 11.617188 19.429688 11.617188 19.429688 11.257812 19.429688 C 11.082031 19.410156 10.824219 19.386719 10.566406 19.359375 C 10.460938 19.351562 10.414062 19.304688 10.492188 19.203125 C 10.511719 19.179688 10.527344 19.152344 10.539062 19.121094 C 10.625 18.902344 10.632812 18.890625 10.863281 18.925781 C 11.0625 18.957031 11.257812 18.953125 11.453125 18.945312 C 11.585938 18.941406 11.632812 18.996094 11.617188 19.121094 Z M 12.988281 19.078125 C 12.972656 19.195312 12.953125 19.351562 12.933594 19.511719 C 12.925781 19.582031 12.890625 19.636719 12.820312 19.636719 C 12.574219 19.640625 12.324219 19.6875 12.074219 19.667969 C 11.964844 19.65625 11.914062 19.625 11.9375 19.492188 C 11.964844 19.34375 11.953125 19.183594 11.960938 19.027344 C 11.964844 18.929688 12.007812 18.886719 12.113281 18.871094 C 12.359375 18.839844 12.609375 18.867188 12.855469 18.832031 C 12.972656 18.816406 12.992188 18.859375 12.988281 19.078125 Z M 13.917969 19.222656 C 13.742188 19.257812 13.566406 19.304688 13.386719 19.324219 C 13.246094 19.339844 13.355469 19.21875 13.339844 19.199219 C 13.285156 19 13.371094 18.933594 13.523438 18.910156 C 13.625 18.894531 13.722656 18.847656 13.820312 18.816406 C 13.851562 18.808594 13.898438 18.785156 13.90625 18.796875 C 13.996094 18.886719 13.957031 19.007812 13.992188 19.113281 C 14.011719 19.175781 13.980469 19.210938 13.917969 19.222656 Z M 15.882812 17.722656 C 15.800781 17.761719 15.71875 17.78125 15.640625 17.773438 C 15.269531 17.773438 14.828125 17.367188 14.789062 17.011719 C 14.78125 16.914062 14.804688 16.835938 14.867188 16.769531 C 14.925781 16.707031 14.980469 16.621094 15.070312 16.652344 C 15.15625 16.683594 15.105469 16.78125 15.113281 16.847656 C 15.121094 16.875 15.113281 16.898438 15.117188 16.925781 C 15.121094 16.972656 15.125 17.027344 15.179688 17.035156 C 15.230469 17.046875 15.246094 16.988281 15.253906 16.953125 C 15.324219 16.664062 15.566406 16.613281 15.800781 16.542969 C 15.890625 16.515625 15.898438 16.5625 15.894531 16.628906 C 15.878906 16.890625 15.949219 17.132812 16.03125 17.375 C 16.105469 17.578125 16.078125 17.632812 15.882812 17.722656 Z M 16.390625 17.1875 C 16.347656 17.179688 16.34375 17.121094 16.332031 17.085938 C 16.269531 16.875 16.242188 16.660156 16.222656 16.398438 C 16.199219 16.304688 16.273438 16.242188 16.386719 16.195312 C 16.660156 16.082031 16.875 15.917969 16.890625 15.585938 C 16.894531 15.558594 16.917969 15.527344 16.9375 15.507812 C 17.019531 15.421875 17.042969 15.320312 17.054688 15.210938 C 17.082031 14.976562 17.125 14.878906 17.285156 14.71875 C 17.375 14.628906 17.40625 14.523438 17.375 14.40625 C 17.347656 14.308594 17.359375 14.207031 17.355469 14.109375 C 17.355469 14.019531 17.398438 14 17.476562 14.035156 C 17.53125 14.0625 17.589844 14.089844 17.644531 14.117188 C 17.929688 14.269531 18.003906 14.429688 17.816406 14.695312 C 17.421875 15.253906 17.199219 15.894531 16.890625 16.492188 C 16.777344 16.710938 16.644531 16.917969 16.492188 17.109375 C 16.464844 17.144531 16.445312 17.203125 16.390625 17.1875 Z M 17.902344 12.035156 C 17.867188 11.96875 17.878906 11.914062 17.90625 11.859375 C 18.027344 11.617188 18.140625 11.371094 18.265625 11.132812 C 18.390625 10.886719 18.53125 10.828125 18.800781 10.878906 C 19.03125 10.925781 19.261719 10.964844 19.488281 11.023438 C 19.722656 11.082031 19.816406 11.265625 19.714844 11.492188 C 19.5625 11.84375 19.414062 12.203125 19.203125 12.523438 C 19.117188 12.65625 19.023438 12.855469 18.800781 12.882812 C 18.734375 12.886719 18.691406 12.960938 18.671875 13.027344 C 18.613281 13.261719 18.410156 13.441406 18.402344 13.699219 C 18.398438 13.78125 18.332031 13.820312 18.242188 13.777344 C 18.160156 13.734375 18.078125 13.707031 18 13.667969 C 17.964844 13.652344 17.929688 13.636719 17.929688 13.589844 C 17.933594 13.542969 17.964844 13.519531 18.007812 13.503906 C 18.039062 13.496094 18.074219 13.488281 18.097656 13.472656 C 18.167969 13.421875 18.21875 13.355469 18.21875 13.265625 C 18.21875 13.1875 18.148438 13.15625 18.085938 13.128906 C 18.027344 13.101562 17.960938 13.074219 17.898438 13.058594 C 17.691406 13.011719 17.582031 13.113281 17.601562 13.328125 C 17.613281 13.382812 17.621094 13.445312 17.5625 13.464844 C 17.492188 13.488281 17.429688 13.445312 17.375 13.410156 C 17.316406 13.371094 17.386719 13.328125 17.394531 13.289062 C 17.441406 13.039062 17.589844 12.871094 17.78125 12.707031 C 18.015625 12.511719 18.035156 12.292969 17.902344 12.035156 Z M 18.261719 8.046875 C 18.261719 8.007812 18.261719 7.964844 18.261719 7.921875 C 18.261719 7.742188 18.332031 7.691406 18.511719 7.734375 C 18.570312 7.75 18.585938 7.785156 18.585938 7.835938 C 18.589844 7.976562 18.585938 8.113281 18.589844 8.253906 C 18.589844 8.386719 18.492188 8.363281 18.410156 8.367188 C 18.324219 8.371094 18.253906 8.363281 18.257812 8.25 C 18.265625 8.183594 18.261719 8.113281 18.261719 8.046875 Z M 18.292969 8.6875 C 18.976562 8.695312 19.65625 8.695312 20.339844 8.691406 C 20.472656 8.691406 20.496094 8.753906 20.492188 8.863281 C 20.488281 8.96875 20.496094 9.0625 20.34375 9.058594 C 19.996094 9.054688 19.648438 9.058594 19.296875 9.058594 C 19.296875 9.058594 19.296875 9.058594 19.296875 9.0625 C 18.964844 9.0625 18.632812 9.058594 18.296875 9.0625 C 18.160156 9.066406 18.132812 9.007812 18.132812 8.886719 C 18.132812 8.769531 18.140625 8.6875 18.292969 8.6875 Z M 19.238281 8.042969 C 19.238281 8.09375 19.234375 8.148438 19.238281 8.199219 C 19.246094 8.308594 19.226562 8.371094 19.089844 8.371094 C 18.949219 8.371094 18.941406 8.296875 18.945312 8.191406 C 18.949219 8.09375 18.949219 7.992188 18.945312 7.894531 C 18.941406 7.792969 18.953125 7.726562 19.085938 7.726562 C 19.214844 7.726562 19.246094 7.789062 19.238281 7.902344 C 19.234375 7.949219 19.238281 7.996094 19.238281 8.042969 Z M 19.871094 8.058594 C 19.871094 8.097656 19.871094 8.140625 19.871094 8.183594 C 19.867188 8.359375 19.78125 8.417969 19.613281 8.363281 C 19.546875 8.34375 19.542969 8.292969 19.542969 8.242188 C 19.542969 8.121094 19.546875 8 19.539062 7.882812 C 19.535156 7.777344 19.578125 7.738281 19.683594 7.730469 C 19.8125 7.726562 19.886719 7.753906 19.867188 7.902344 C 19.863281 7.953125 19.871094 8.003906 19.871094 8.058594 Z M 20.488281 9.507812 C 20.492188 9.589844 20.457031 9.625 20.378906 9.621094 C 20.300781 9.621094 20.222656 9.621094 20.144531 9.621094 C 20.070312 9.621094 19.996094 9.621094 19.925781 9.621094 C 19.84375 9.625 19.816406 9.582031 19.816406 9.503906 C 19.816406 9.425781 19.851562 9.390625 19.929688 9.390625 C 20.078125 9.394531 20.230469 9.394531 20.382812 9.390625 C 20.464844 9.390625 20.488281 9.433594 20.488281 9.507812 Z M 19.214844 10.367188 C 19.148438 10.351562 19.035156 10.410156 18.996094 10.328125 C 18.945312 10.21875 18.972656 10.09375 18.984375 9.976562 C 18.992188 9.933594 19.03125 9.921875 19.070312 9.921875 C 19.175781 9.921875 19.285156 9.921875 19.394531 9.921875 C 19.457031 9.921875 19.488281 9.957031 19.488281 10.019531 C 19.488281 10.046875 19.492188 10.070312 19.492188 10.097656 C 19.488281 10.398438 19.511719 10.367188 19.214844 10.367188 Z M 19.367188 9.621094 C 19.320312 9.617188 19.273438 9.621094 19.226562 9.621094 C 19.179688 9.621094 19.132812 9.621094 19.085938 9.621094 C 19.003906 9.625 18.976562 9.582031 18.976562 9.503906 C 18.976562 9.429688 19 9.386719 19.082031 9.390625 C 19.175781 9.390625 19.269531 9.390625 19.363281 9.390625 C 19.445312 9.386719 19.488281 9.417969 19.488281 9.503906 C 19.492188 9.597656 19.445312 9.625 19.367188 9.621094 Z M 18.265625 10.078125 C 18.230469 9.859375 18.40625 9.9375 18.511719 9.921875 C 18.699219 9.894531 18.660156 10.023438 18.65625 10.128906 C 18.652344 10.371094 18.652344 10.367188 18.417969 10.367188 C 18.164062 10.371094 18.28125 10.1875 18.265625 10.078125 Z M 18.449219 9.625 C 18.367188 9.621094 18.261719 9.65625 18.261719 9.507812 C 18.261719 9.332031 18.394531 9.410156 18.476562 9.386719 C 18.542969 9.410156 18.660156 9.339844 18.664062 9.480469 C 18.671875 9.644531 18.554688 9.628906 18.449219 9.625 Z M 18.863281 13.804688 C 18.828125 13.761719 18.761719 13.726562 18.820312 13.664062 C 18.863281 13.613281 18.925781 13.636719 18.980469 13.660156 C 19.179688 13.75 19.214844 14.027344 19.046875 14.164062 C 18.992188 14.203125 18.933594 14.242188 18.875 14.269531 C 18.660156 14.375 18.421875 14.421875 18.203125 14.539062 C 18.3125 14.402344 18.414062 14.261719 18.527344 14.128906 C 18.574219 14.074219 18.644531 14.070312 18.714844 14.085938 C 18.808594 14.105469 18.882812 14.074219 18.929688 13.996094 C 18.976562 13.917969 18.910156 13.863281 18.863281 13.804688 Z M 19 13.277344 C 18.980469 13.257812 18.964844 13.234375 18.976562 13.207031 C 18.984375 13.179688 19.011719 13.175781 19.039062 13.179688 C 19.21875 13.207031 19.519531 13.445312 19.421875 13.75 C 19.328125 13.527344 19.15625 13.40625 19 13.277344 Z M 19.296875 12.960938 C 19.265625 12.953125 19.238281 12.929688 19.246094 12.894531 C 19.261719 12.847656 19.296875 12.832031 19.339844 12.828125 C 19.480469 12.824219 19.722656 13.039062 19.734375 13.179688 C 19.738281 13.21875 19.742188 13.265625 19.695312 13.285156 C 19.648438 13.304688 19.617188 13.273438 19.597656 13.234375 C 19.53125 13.105469 19.433594 13.011719 19.296875 12.960938 Z M 16.667969 17.683594 C 16.597656 17.597656 16.671875 17.539062 16.714844 17.476562 C 17.136719 16.855469 17.457031 16.179688 17.765625 15.496094 C 17.785156 15.449219 17.808594 15.402344 17.832031 15.355469 C 17.851562 16.101562 17.824219 16.835938 17.363281 17.464844 C 17.253906 17.617188 17.101562 17.714844 16.917969 17.757812 C 16.816406 17.785156 16.730469 17.757812 16.667969 17.683594 Z M 19.988281 14.574219 C 19.914062 15.222656 19.832031 15.867188 19.609375 16.480469 C 19.40625 17.039062 19.140625 17.5625 18.640625 17.921875 C 18.199219 18.238281 17.710938 18.34375 17.183594 18.148438 C 17.15625 18.136719 17.128906 18.121094 17.085938 18.097656 C 17.574219 17.9375 17.804688 17.554688 17.980469 17.125 C 18.152344 16.703125 18.214844 16.257812 18.230469 15.800781 C 18.234375 15.640625 18.253906 15.476562 18.226562 15.316406 C 18.179688 15.03125 18.308594 14.867188 18.558594 14.769531 C 18.695312 14.714844 18.824219 14.65625 18.960938 14.601562 C 19.175781 14.515625 19.355469 14.394531 19.441406 14.164062 C 19.457031 14.125 19.476562 14.089844 19.515625 14.070312 C 19.664062 13.996094 19.757812 13.875 19.792969 13.710938 C 19.8125 13.605469 19.917969 13.609375 19.984375 13.578125 C 20.035156 13.554688 20.023438 13.636719 20.023438 13.667969 C 20.023438 13.972656 20.023438 14.277344 19.988281 14.574219 Z M 20.488281 10.257812 C 20.480469 10.335938 20.445312 10.367188 20.371094 10.367188 C 20.226562 10.367188 20.078125 10.367188 19.9375 10.367188 C 19.855469 10.367188 19.828125 10.335938 19.824219 10.257812 C 19.796875 9.921875 19.792969 9.921875 20.164062 9.921875 C 20.175781 9.921875 20.183594 9.921875 20.195312 9.921875 C 20.507812 9.921875 20.523438 9.941406 20.488281 10.257812 Z M 20.550781 8.183594 C 20.550781 8.351562 20.449219 8.417969 20.289062 8.363281 C 20.230469 8.34375 20.230469 8.296875 20.226562 8.253906 C 20.226562 8.117188 20.230469 7.984375 20.226562 7.847656 C 20.222656 7.746094 20.285156 7.726562 20.367188 7.734375 C 20.445312 7.738281 20.542969 7.710938 20.546875 7.839844 C 20.550781 7.914062 20.546875 7.988281 20.546875 8.058594 C 20.546875 8.058594 20.550781 8.058594 20.550781 8.058594 C 20.550781 8.097656 20.550781 8.140625 20.550781 8.183594 Z M 16.667969 7.003906 C 16.667969 6.785156 16.679688 6.78125 16.90625 6.761719 C 17.425781 6.722656 17.941406 6.667969 18.457031 6.621094 C 18.953125 6.574219 19.453125 6.527344 19.945312 6.484375 C 20.273438 6.457031 20.597656 6.429688 20.925781 6.402344 C 20.976562 6.394531 21.027344 6.394531 21.082031 6.390625 C 21.175781 6.382812 21.210938 6.421875 21.210938 6.515625 C 21.207031 6.714844 21.207031 6.914062 21.207031 7.109375 C 21.207031 8.042969 21.207031 8.972656 21.207031 9.90625 C 21.207031 11.003906 21.210938 12.101562 21.207031 13.199219 C 21.207031 13.265625 21.265625 13.386719 21.121094 13.390625 C 20.988281 13.398438 20.917969 13.320312 20.917969 13.179688 C 20.917969 11.238281 20.917969 9.296875 20.914062 7.355469 C 20.914062 7.21875 20.917969 7.082031 20.910156 6.949219 C 20.898438 6.8125 20.832031 6.726562 20.675781 6.742188 C 20.253906 6.777344 19.828125 6.808594 19.40625 6.847656 C 18.976562 6.882812 18.546875 6.921875 18.117188 6.960938 C 17.792969 6.988281 17.464844 7.019531 17.140625 7.042969 C 16.984375 7.054688 16.933594 7.144531 16.9375 7.28125 C 16.9375 7.585938 16.9375 7.886719 16.9375 8.1875 C 16.9375 9.386719 16.9375 10.582031 16.9375 11.78125 C 16.9375 11.957031 16.933594 11.953125 17.085938 11.878906 C 17.171875 11.839844 17.261719 11.808594 17.347656 11.773438 C 17.394531 11.757812 17.441406 11.75 17.476562 11.800781 C 17.511719 11.855469 17.484375 11.898438 17.441406 11.9375 C 17.410156 11.964844 17.378906 11.996094 17.339844 12.007812 C 17.152344 12.070312 16.976562 12.15625 16.820312 12.285156 C 16.722656 12.367188 16.675781 12.335938 16.671875 12.203125 C 16.667969 12.039062 16.667969 11.871094 16.667969 11.703125 C 16.667969 10.140625 16.667969 8.574219 16.667969 7.003906 Z M 17.316406 11.457031 C 17.222656 11.457031 17.25 11.382812 17.25 11.328125 C 17.25 10.683594 17.25 10.039062 17.25 9.394531 C 17.25 8.757812 17.25 8.125 17.25 7.488281 C 17.25 7.4375 17.222656 7.363281 17.316406 7.363281 C 17.414062 7.359375 17.398438 7.4375 17.398438 7.496094 C 17.398438 8.769531 17.398438 10.046875 17.398438 11.320312 C 17.398438 11.378906 17.414062 11.457031 17.316406 11.457031 Z M 16.488281 13.46875 C 16.558594 13.230469 16.648438 13 16.777344 12.78125 C 16.960938 12.464844 17.292969 12.386719 17.585938 12.238281 C 17.664062 12.199219 17.632812 12.289062 17.644531 12.328125 C 17.613281 12.433594 17.558594 12.523438 17.460938 12.589844 C 17.390625 12.636719 17.308594 12.679688 17.234375 12.722656 C 17.136719 12.785156 17.066406 12.859375 17.082031 12.988281 C 17.09375 13.058594 17.074219 13.125 17.042969 13.183594 C 16.964844 13.332031 16.925781 13.476562 17.003906 13.644531 C 17.054688 13.757812 16.984375 13.820312 16.859375 13.785156 C 16.78125 13.765625 16.710938 13.738281 16.632812 13.71875 C 16.429688 13.671875 16.429688 13.675781 16.488281 13.46875 Z M 15.125 14.839844 C 15.261719 14.675781 15.394531 14.511719 15.53125 14.347656 C 15.820312 14.011719 16.488281 13.90625 16.867188 14.136719 C 16.949219 14.1875 17.019531 14.25 17.0625 14.335938 C 17.09375 14.394531 17.082031 14.449219 17.035156 14.488281 C 16.984375 14.539062 16.953125 14.480469 16.917969 14.449219 C 16.640625 14.207031 16.328125 14.238281 16.007812 14.339844 C 15.976562 14.351562 15.929688 14.363281 15.9375 14.410156 C 15.945312 14.453125 15.984375 14.46875 16.019531 14.472656 C 16.160156 14.5 16.304688 14.515625 16.449219 14.546875 C 16.5625 14.570312 16.683594 14.597656 16.746094 14.742188 C 16.597656 14.742188 16.472656 14.742188 16.347656 14.742188 C 16.261719 14.742188 16.183594 14.765625 16.113281 14.8125 C 16.078125 14.835938 16.054688 14.863281 16.054688 14.902344 C 16.058594 14.953125 16.101562 14.949219 16.136719 14.960938 C 16.214844 14.992188 16.300781 14.980469 16.382812 14.984375 C 16.496094 14.992188 16.601562 15.015625 16.679688 15.101562 C 16.707031 15.132812 16.738281 15.167969 16.722656 15.210938 C 16.707031 15.261719 16.65625 15.246094 16.613281 15.242188 C 16.515625 15.234375 16.417969 15.222656 16.320312 15.210938 C 16.226562 15.207031 16.144531 15.234375 16.132812 15.335938 C 16.121094 15.425781 16.214844 15.445312 16.277344 15.46875 C 16.324219 15.488281 16.382812 15.480469 16.433594 15.492188 C 16.5 15.507812 16.558594 15.542969 16.550781 15.628906 C 16.542969 15.710938 16.503906 15.78125 16.417969 15.769531 C 16.167969 15.730469 16.007812 15.863281 15.847656 16.023438 C 15.675781 16.195312 15.457031 16.289062 15.210938 16.269531 C 14.976562 16.25 14.796875 16.324219 14.613281 16.464844 C 13.917969 16.996094 13.175781 17.441406 12.355469 17.746094 C 12 17.878906 11.636719 17.988281 11.253906 18.023438 C 11.050781 18.042969 10.890625 17.972656 10.746094 17.839844 C 10.570312 17.679688 10.433594 17.492188 10.304688 17.296875 C 10.261719 17.230469 10.253906 17.160156 10.277344 17.085938 C 10.433594 16.492188 10.855469 16.160156 11.410156 15.964844 C 11.441406 15.957031 11.472656 15.945312 11.496094 15.972656 C 11.523438 16.003906 11.492188 16.03125 11.480469 16.058594 C 11.453125 16.125 11.328125 16.179688 11.386719 16.246094 C 11.4375 16.304688 11.539062 16.226562 11.617188 16.199219 C 12.183594 16.003906 12.777344 15.933594 13.359375 15.792969 C 13.601562 15.734375 13.835938 15.648438 14.078125 15.585938 C 14.53125 15.476562 14.839844 15.179688 15.125 14.839844 Z M 14.585938 13.457031 C 14.691406 13.761719 14.769531 14.074219 14.929688 14.355469 C 14.964844 14.414062 14.957031 14.464844 14.917969 14.511719 C 14.84375 14.605469 14.765625 14.695312 14.6875 14.785156 C 14.667969 14.808594 14.648438 14.84375 14.609375 14.832031 C 14.566406 14.820312 14.574219 14.773438 14.574219 14.738281 C 14.585938 14.492188 14.558594 14.25 14.542969 14.007812 C 14.539062 13.976562 14.542969 13.945312 14.539062 13.914062 C 14.527344 13.855469 14.53125 13.757812 14.476562 13.753906 C 14.394531 13.75 14.429688 13.847656 14.410156 13.902344 C 14.375 13.992188 14.359375 14.09375 14.324219 14.1875 C 14.230469 13.679688 14.1875 13.160156 13.984375 12.636719 C 14.328125 12.84375 14.472656 13.136719 14.585938 13.457031 Z M 13.675781 14.082031 C 13.699219 14.214844 13.648438 14.289062 13.511719 14.304688 C 13.339844 14.320312 13.164062 14.347656 12.988281 14.371094 C 12.878906 14.382812 12.820312 14.347656 12.8125 14.230469 C 12.804688 14.074219 12.785156 13.921875 12.761719 13.765625 C 12.734375 13.601562 12.8125 13.472656 12.90625 13.355469 C 12.992188 13.246094 13.089844 13.140625 13.175781 13.027344 C 13.226562 12.960938 13.265625 12.964844 13.324219 13.019531 C 13.425781 13.117188 13.515625 13.214844 13.546875 13.363281 C 13.601562 13.601562 13.636719 13.84375 13.675781 14.082031 Z M 12.851562 12.949219 C 12.867188 12.8125 12.886719 12.699219 12.941406 12.59375 C 13.019531 12.445312 13.109375 12.308594 13.148438 12.140625 C 13.15625 12.117188 13.164062 12.070312 13.203125 12.078125 C 13.226562 12.082031 13.246094 12.109375 13.257812 12.128906 C 13.292969 12.191406 13.328125 12.257812 13.355469 12.324219 C 13.40625 12.441406 13.460938 12.5625 13.480469 12.710938 C 13.148438 12.554688 13.148438 12.554688 12.851562 12.949219 Z M 14.175781 10.164062 C 14.066406 10.1875 13.960938 10.183594 13.851562 10.167969 C 13.769531 10.15625 13.683594 10.152344 13.660156 10.25 C 13.636719 10.339844 13.726562 10.367188 13.785156 10.402344 C 13.808594 10.417969 13.835938 10.417969 13.859375 10.429688 C 13.96875 10.472656 13.976562 10.535156 13.882812 10.605469 C 13.789062 10.675781 13.679688 10.65625 13.578125 10.636719 C 13.464844 10.613281 13.351562 10.621094 13.242188 10.652344 C 13.195312 10.667969 13.148438 10.6875 13.148438 10.742188 C 13.144531 10.808594 13.199219 10.816406 13.242188 10.828125 C 13.355469 10.859375 13.472656 10.886719 13.59375 10.898438 C 13.644531 10.902344 13.734375 10.898438 13.734375 10.957031 C 13.738281 11.039062 13.652344 11.027344 13.589844 11.03125 C 13.527344 11.035156 13.46875 11.046875 13.40625 11.054688 C 13.375 11.058594 13.335938 11.050781 13.328125 11.089844 C 13.320312 11.125 13.351562 11.148438 13.375 11.164062 C 13.40625 11.183594 13.4375 11.203125 13.46875 11.21875 C 13.621094 11.300781 13.621094 11.335938 13.507812 11.46875 C 13.386719 11.605469 13.234375 11.605469 13.078125 11.574219 C 12.59375 11.46875 12.21875 11.195312 11.902344 10.828125 C 11.855469 10.773438 11.824219 10.667969 11.75 10.703125 C 11.675781 10.730469 11.71875 10.828125 11.726562 10.898438 C 11.78125 11.277344 11.976562 11.578125 12.246094 11.839844 C 12.378906 11.96875 12.441406 12.113281 12.429688 12.296875 C 12.425781 12.375 12.402344 12.390625 12.339844 12.339844 C 11.90625 11.996094 11.457031 11.675781 11.125 11.222656 C 11.039062 11.109375 10.988281 11.007812 11.085938 10.878906 C 11.117188 10.839844 11.136719 10.785156 11.144531 10.734375 C 11.175781 10.519531 11.257812 10.355469 11.511719 10.34375 C 11.566406 10.34375 11.617188 10.300781 11.640625 10.242188 C 11.683594 10.148438 11.671875 10.097656 11.550781 10.089844 C 11.171875 10.066406 10.890625 9.644531 11.003906 9.28125 C 11.058594 9.101562 11.179688 8.992188 11.355469 8.96875 C 11.503906 8.949219 11.625 9.019531 11.714844 9.144531 C 11.765625 9.214844 11.820312 9.289062 11.871094 9.359375 C 11.953125 9.472656 12.035156 9.480469 12.144531 9.390625 C 12.289062 9.273438 12.351562 9.105469 12.421875 8.945312 C 12.507812 8.738281 12.507812 8.734375 12.730469 8.78125 C 13.1875 8.878906 13.648438 8.910156 14.109375 8.921875 C 14.171875 8.921875 14.234375 8.921875 14.292969 8.921875 C 14.050781 9.0625 14.066406 9.269531 14.109375 9.488281 C 14.144531 9.660156 14.191406 9.832031 14.273438 9.992188 C 14.320312 10.097656 14.28125 10.140625 14.175781 10.164062 Z M 14.792969 8.390625 C 14.847656 8.398438 14.902344 8.414062 14.957031 8.429688 C 14.988281 8.4375 15.027344 8.449219 15.027344 8.488281 C 15.023438 8.542969 14.972656 8.523438 14.941406 8.53125 C 14.734375 8.5625 14.527344 8.558594 14.316406 8.558594 C 13.894531 8.550781 13.464844 8.589844 13.039062 8.484375 C 13.621094 8.347656 14.203125 8.3125 14.792969 8.390625 Z M 13.757812 6.871094 C 14.078125 7.144531 14.261719 7.5 14.359375 7.90625 C 14.375 7.980469 14.351562 8.023438 14.265625 8.023438 C 14.027344 8.027344 13.785156 8.011719 13.550781 8.054688 C 13.449219 8.070312 13.414062 8 13.390625 7.921875 C 13.332031 7.714844 13.269531 7.515625 13.171875 7.324219 C 12.949219 6.882812 12.601562 6.59375 12.074219 6.46875 C 12.722656 6.351562 13.28125 6.457031 13.757812 6.871094 Z M 10.300781 8.78125 C 10.289062 8.785156 10.273438 8.785156 10.226562 8.789062 C 10.359375 8.640625 10.511719 8.601562 10.65625 8.546875 C 11.199219 8.351562 11.761719 8.230469 12.324219 8.105469 C 12.441406 8.082031 12.554688 8.042969 12.667969 8 C 12.710938 7.988281 12.785156 7.972656 12.765625 7.90625 C 12.75 7.851562 12.6875 7.84375 12.632812 7.835938 C 12.460938 7.820312 12.292969 7.859375 12.125 7.882812 C 11.660156 7.949219 11.203125 8.046875 10.753906 8.171875 C 10.632812 8.207031 10.597656 8.179688 10.625 8.046875 C 10.679688 7.769531 10.757812 7.5 10.910156 7.261719 C 11.3125 6.617188 11.929688 6.621094 12.476562 6.953125 C 12.785156 7.140625 12.917969 7.457031 13.007812 7.789062 C 13.121094 8.207031 13.128906 8.109375 12.769531 8.195312 C 11.949219 8.402344 11.113281 8.535156 10.300781 8.78125 Z M 10.628906 11.207031 C 10.640625 11.191406 10.65625 11.175781 10.664062 11.164062 C 10.710938 11.164062 10.71875 11.203125 10.734375 11.226562 C 11.03125 11.703125 11.4375 12.070312 11.882812 12.398438 C 11.980469 12.46875 11.996094 12.519531 11.890625 12.59375 C 11.753906 12.6875 11.621094 12.789062 11.488281 12.890625 C 11.4375 12.933594 11.394531 12.933594 11.355469 12.882812 C 11.082031 12.527344 10.777344 12.203125 10.554688 11.808594 C 10.410156 11.550781 10.425781 11.425781 10.628906 11.207031 Z M 10.082031 11.851562 C 10.148438 11.820312 10.183594 11.835938 10.21875 11.898438 C 10.488281 12.378906 10.84375 12.792969 11.195312 13.210938 C 11.328125 13.371094 11.390625 13.386719 11.554688 13.25 C 11.699219 13.132812 11.851562 13.023438 12.003906 12.914062 C 12.078125 12.859375 12.140625 12.851562 12.210938 12.914062 C 12.242188 12.941406 12.273438 12.96875 12.3125 12.988281 C 12.457031 13.066406 12.496094 13.167969 12.46875 13.34375 C 12.429688 13.605469 12.511719 13.867188 12.535156 14.128906 C 12.539062 14.171875 12.546875 14.210938 12.550781 14.253906 C 12.570312 14.363281 12.519531 14.398438 12.414062 14.398438 C 12.085938 14.398438 11.757812 14.402344 11.429688 14.40625 C 11.335938 14.40625 11.285156 14.375 11.246094 14.28125 C 11.070312 13.855469 10.867188 13.4375 10.621094 13.042969 C 10.375 12.664062 10.058594 12.363281 9.625 12.207031 C 9.605469 12.203125 9.589844 12.1875 9.554688 12.164062 C 9.730469 12.027344 9.902344 11.941406 10.082031 11.851562 Z M 8.660156 12.839844 C 8.90625 12.488281 9.308594 12.390625 9.6875 12.605469 C 9.910156 12.734375 10.074219 12.914062 10.210938 13.128906 C 10.484375 13.558594 10.671875 14.035156 10.886719 14.496094 C 11.003906 14.746094 11 14.734375 10.742188 14.808594 C 10.117188 14.980469 9.621094 15.335938 9.246094 15.863281 C 9.222656 15.894531 9.203125 15.921875 9.179688 15.949219 C 9.179688 15.953125 9.171875 15.957031 9.152344 15.964844 C 8.832031 15.390625 8.511719 14.820312 8.40625 14.167969 C 8.332031 13.703125 8.371094 13.246094 8.660156 12.839844 Z M 8.660156 12.839844 " fill-opacity="1" fill-rule="nonzero"/></g><path fill="#1800ad" d="M 13.730469 9 C 13.503906 8.890625 13.273438 8.917969 13.050781 9.007812 C 12.992188 9.03125 12.964844 9.078125 12.9375 9.128906 C 12.914062 9.171875 12.882812 9.214844 12.921875 9.261719 C 12.953125 9.296875 13 9.289062 13.039062 9.277344 C 13.175781 9.234375 13.3125 9.222656 13.453125 9.230469 C 13.535156 9.230469 13.609375 9.234375 13.691406 9.226562 C 13.75 9.226562 13.804688 9.199219 13.816406 9.132812 C 13.828125 9.0625 13.78125 9.027344 13.730469 9 Z M 13.730469 9 " fill-opacity="1" fill-rule="nonzero"/><path fill="#1800ad" d="M 11.355469 9.191406 C 11.300781 9.183594 11.246094 9.183594 11.214844 9.234375 C 11.183594 9.285156 11.214844 9.332031 11.25 9.375 C 11.324219 9.457031 11.394531 9.535156 11.46875 9.617188 C 11.511719 9.660156 11.546875 9.730469 11.617188 9.703125 C 11.695312 9.675781 11.703125 9.59375 11.703125 9.519531 C 11.699219 9.375 11.535156 9.222656 11.355469 9.191406 Z M 11.355469 9.191406 " fill-opacity="1" fill-rule="nonzero"/><path fill="#1800ad" d="M 13.398438 9.308594 C 13.296875 9.296875 13.199219 9.394531 13.203125 9.503906 C 13.207031 9.628906 13.273438 9.695312 13.398438 9.699219 C 13.511719 9.703125 13.566406 9.640625 13.574219 9.527344 C 13.570312 9.414062 13.519531 9.328125 13.398438 9.308594 Z M 13.398438 9.308594 " fill-opacity="1" fill-rule="nonzero"/><path fill="#1800ad" d="M 18.324219 12.078125 C 18.53125 12.144531 18.742188 12.191406 18.953125 12.242188 C 19.074219 12.238281 19.15625 12.175781 19.207031 12.078125 C 19.300781 11.894531 19.390625 11.707031 19.476562 11.519531 C 19.542969 11.363281 19.511719 11.296875 19.351562 11.253906 C 19.160156 11.199219 18.96875 11.164062 18.773438 11.132812 C 18.613281 11.109375 18.492188 11.160156 18.414062 11.292969 C 18.332031 11.433594 18.257812 11.585938 18.199219 11.738281 C 18.140625 11.886719 18.1875 12.03125 18.324219 12.078125 Z M 18.628906 11.535156 C 18.679688 11.429688 18.742188 11.414062 18.851562 11.441406 C 19.148438 11.515625 19.148438 11.511719 19.019531 11.785156 C 18.988281 11.855469 18.964844 11.941406 18.894531 11.925781 C 18.84375 11.914062 18.828125 11.90625 18.8125 11.902344 C 18.476562 11.839844 18.476562 11.835938 18.628906 11.535156 Z M 18.628906 11.535156 " fill-opacity="1" fill-rule="nonzero"/><path fill="#1800ad" d="M 18.046875 12.84375 C 18.171875 12.925781 18.3125 12.957031 18.421875 12.980469 C 18.527344 12.984375 18.582031 12.96875 18.609375 12.886719 C 18.632812 12.804688 18.597656 12.757812 18.535156 12.71875 C 18.421875 12.652344 18.300781 12.617188 18.175781 12.578125 C 18.09375 12.550781 18.035156 12.558594 17.996094 12.636719 C 17.957031 12.71875 17.976562 12.792969 18.046875 12.84375 Z M 18.046875 12.84375 " fill-opacity="1" fill-rule="nonzero"/><path fill="#1800ad" d="M 12.492188 19.054688 C 12.464844 19.054688 12.40625 19.066406 12.34375 19.074219 C 12.265625 19.082031 12.210938 19.105469 12.195312 19.199219 C 12.15625 19.421875 12.21875 19.5 12.445312 19.46875 C 12.480469 19.464844 12.519531 19.457031 12.554688 19.453125 C 12.730469 19.429688 12.738281 19.40625 12.734375 19.191406 C 12.730469 19.03125 12.625 19.054688 12.492188 19.054688 Z M 12.492188 19.054688 " fill-opacity="1" fill-rule="nonzero"/></svg>