<svg xmlns="http://www.w3.org/2000/svg" xmlns:xlink="http://www.w3.org/1999/xlink" width="40" zoomAndPan="magnify" viewBox="0 0 30 37.92" height="40" preserveAspectRatio="xMidYMid meet" version="1.0"><defs><clipPath id="bc240f9997"><path d="M 3.113281 0.683594 L 26.886719 0.683594 L 26.886719 29.300781 L 3.113281 29.300781 Z M 3.113281 0.683594 " clip-rule="nonzero"/></clipPath><clipPath id="225a7b7eaf"><path d="M 19.457031 1.550781 C 18.035156 0.976562 16.539062 0.683594 15 0.683594 C 13.460938 0.683594 11.964844 0.976562 10.542969 1.550781 C 9.078125 2.144531 7.757812 3.019531 6.632812 4.148438 C 4.429688 6.355469 3.199219 9.285156 3.167969 12.402344 C 3.136719 15.511719 4.304688 18.464844 6.460938 20.707031 L 6.453125 20.710938 L 15 29.257812 L 23.5 20.757812 L 23.492188 20.753906 C 25.667969 18.511719 26.855469 15.558594 26.832031 12.433594 C 26.8125 9.300781 25.582031 6.363281 23.367188 4.148438 C 22.234375 3.019531 20.921875 2.144531 19.457031 1.550781 Z M 19.457031 1.550781 " clip-rule="nonzero"/></clipPath><clipPath id="7c210a91af"><path d="M 0.144531 0.683594 L 23.855469 0.683594 L 23.855469 29.300781 L 0.144531 29.300781 Z M 0.144531 0.683594 " clip-rule="nonzero"/></clipPath><clipPath id="1b341f9559"><path d="M 16.457031 1.550781 C 15.035156 0.976562 13.539062 0.683594 12 0.683594 C 10.460938 0.683594 8.964844 0.976562 7.542969 1.550781 C 6.078125 2.144531 4.757812 3.019531 3.632812 4.148438 C 1.429688 6.355469 0.199219 9.285156 0.167969 12.402344 C 0.136719 15.511719 1.304688 18.464844 3.460938 20.707031 L 3.453125 20.710938 L 12 29.257812 L 20.5 20.757812 L 20.492188 20.753906 C 22.667969 18.511719 23.855469 15.558594 23.832031 12.433594 C 23.8125 9.300781 22.582031 6.363281 20.367188 4.148438 C 19.234375 3.019531 17.921875 2.144531 16.457031 1.550781 Z M 16.457031 1.550781 " clip-rule="nonzero"/></clipPath><clipPath id="098dc1acb4"><rect x="0" width="24" y="0" height="30"/></clipPath><clipPath id="930ed2d172"><path d="M 4.261719 1.777344 L 25.738281 1.777344 L 25.738281 23.203125 L 4.261719 23.203125 Z M 4.261719 1.777344 " clip-rule="nonzero"/></clipPath><clipPath id="80d050b759"><path d="M 14.996094 1.789062 C 9.089844 1.789062 4.300781 6.578125 4.300781 12.484375 C 4.300781 18.390625 9.089844 23.179688 14.996094 23.179688 C 20.902344 23.179688 25.691406 18.390625 25.691406 12.484375 C 25.691406 6.578125 20.902344 1.789062 14.996094 1.789062 Z M 14.996094 1.789062 " clip-rule="nonzero"/></clipPath><clipPath id="cc29804aca"><path d="M 0.261719 0.777344 L 21.738281 0.777344 L 21.738281 22.203125 L 0.261719 22.203125 Z M 0.261719 0.777344 " clip-rule="nonzero"/></clipPath><clipPath id="b3f19db292"><path d="M 10.996094 0.789062 C 5.089844 0.789062 0.300781 5.578125 0.300781 11.484375 C 0.300781 17.390625 5.089844 22.179688 10.996094 22.179688 C 16.902344 22.179688 21.691406 17.390625 21.691406 11.484375 C 21.691406 5.578125 16.902344 0.789062 10.996094 0.789062 Z M 10.996094 0.789062 " clip-rule="nonzero"/></clipPath><clipPath id="29d4d2e6c2"><rect x="0" width="22" y="0" height="23"/></clipPath><clipPath id="30ff6dd0ef"><path d="M 10 6.402344 L 11 6.402344 L 11 7 L 10 7 Z M 10 6.402344 " clip-rule="nonzero"/></clipPath><clipPath id="69279658f6"><path d="M 8 6.402344 L 10 6.402344 L 10 7 L 8 7 Z M 8 6.402344 " clip-rule="nonzero"/></clipPath><clipPath id="6a4e019e92"><path d="M 6.742188 6.402344 L 23.207031 6.402344 L 23.207031 19.871094 L 6.742188 19.871094 Z M 6.742188 6.402344 " clip-rule="nonzero"/></clipPath></defs><g clip-path="url(#bc240f9997)"><g clip-path="url(#225a7b7eaf)"><g transform="matrix(1, 0, 0, 1, 3, 0.000000000000005773)"><g clip-path="url(#098dc1acb4)"><g clip-path="url(#7c210a91af)"><g clip-path="url(#1b341f9559)"><path fill="#faab11" d="M 0.167969 0.683594 L 23.832031 0.683594 L 23.832031 29.25 L 0.167969 29.25 Z M 0.167969 0.683594 " fill-opacity="1" fill-rule="nonzero"/></g></g></g></g></g></g><g clip-path="url(#930ed2d172)"><g clip-path="url(#80d050b759)"><g transform="matrix(1, 0, 0, 1, 4, 1)"><g clip-path="url(#29d4d2e6c2)"><g clip-path="url(#cc29804aca)"><g clip-path="url(#b3f19db292)"><rect x="-10.6" width="43.2" fill="#ffffff" height="54.6048" y="-9.3424" fill-opacity="1"/></g></g></g></g></g></g><path fill="#1800ad" d="M 10.316406 7.25 L 10.984375 7.25 L 10.984375 7.46875 L 10.316406 7.46875 Z M 10.316406 7.25 " fill-opacity="1" fill-rule="nonzero"/><path fill="#1800ad" d="M 10.316406 7.867188 L 10.984375 7.867188 L 10.984375 8.085938 L 10.316406 8.085938 Z M 10.316406 7.867188 " fill-opacity="1" fill-rule="nonzero"/><g clip-path="url(#30ff6dd0ef)"><path fill="#1800ad" d="M 10.316406 6.632812 L 10.984375 6.632812 L 10.984375 6.855469 L 10.316406 6.855469 Z M 10.316406 6.632812 " fill-opacity="1" fill-rule="nonzero"/></g><path fill="#1800ad" d="M 8.351562 7.25 L 9.019531 7.25 L 9.019531 7.46875 L 8.351562 7.46875 Z M 8.351562 7.25 " fill-opacity="1" fill-rule="nonzero"/><path fill="#1800ad" d="M 8.351562 7.867188 L 9.019531 7.867188 L 9.019531 8.085938 L 8.351562 8.085938 Z M 8.351562 7.867188 " fill-opacity="1" fill-rule="nonzero"/><g clip-path="url(#69279658f6)"><path fill="#1800ad" d="M 8.351562 6.632812 L 9.019531 6.632812 L 9.019531 6.855469 L 8.351562 6.855469 Z M 8.351562 6.632812 " fill-opacity="1" fill-rule="nonzero"/></g><path fill="#1800ad" d="M 12.6875 12.589844 C 12.960938 12.589844 13.183594 12.363281 13.183594 12.085938 C 13.183594 11.8125 12.960938 11.589844 12.6875 11.589844 C 12.410156 11.589844 12.1875 11.8125 12.1875 12.085938 C 12.1875 12.363281 12.410156 12.589844 12.6875 12.589844 Z M 12.613281 11.648438 L 12.613281 11.714844 L 12.742188 11.714844 L 12.742188 11.648438 C 12.960938 11.675781 13.132812 11.863281 13.132812 12.089844 C 13.132812 12.316406 12.960938 12.503906 12.742188 12.53125 L 12.742188 12.464844 L 12.613281 12.464844 L 12.613281 12.53125 C 12.402344 12.492188 12.238281 12.308594 12.238281 12.089844 C 12.238281 11.867188 12.402344 11.6875 12.613281 11.648438 Z M 12.613281 11.648438 " fill-opacity="1" fill-rule="nonzero"/><path fill="#1800ad" d="M 12.6875 12.019531 C 12.730469 12.019531 12.765625 11.984375 12.765625 11.941406 C 12.765625 11.898438 12.730469 11.859375 12.6875 11.859375 C 12.640625 11.859375 12.605469 11.898438 12.605469 11.941406 C 12.605469 11.984375 12.640625 12.019531 12.6875 12.019531 Z M 12.6875 12.019531 " fill-opacity="1" fill-rule="nonzero"/><path fill="#1800ad" d="M 12.871094 12.308594 C 12.914062 12.308594 12.949219 12.269531 12.949219 12.226562 C 12.949219 12.183594 12.914062 12.148438 12.871094 12.148438 C 12.824219 12.148438 12.789062 12.183594 12.789062 12.226562 C 12.789062 12.269531 12.824219 12.308594 12.871094 12.308594 Z M 12.871094 12.308594 " fill-opacity="1" fill-rule="nonzero"/><path fill="#1800ad" d="M 12.503906 12.308594 C 12.546875 12.308594 12.582031 12.269531 12.582031 12.226562 C 12.582031 12.183594 12.546875 12.148438 12.503906 12.148438 C 12.457031 12.148438 12.421875 12.183594 12.421875 12.226562 C 12.421875 12.269531 12.457031 12.308594 12.503906 12.308594 Z M 12.503906 12.308594 " fill-opacity="1" fill-rule="nonzero"/><path fill="#1800ad" d="M 13.574219 12.410156 C 13.621094 12.410156 13.664062 12.371094 13.664062 12.324219 C 13.664062 12.273438 13.621094 12.234375 13.574219 12.234375 C 13.527344 12.234375 13.488281 12.273438 13.488281 12.324219 C 13.488281 12.371094 13.527344 12.410156 13.574219 12.410156 Z M 13.574219 12.410156 " fill-opacity="1" fill-rule="nonzero"/><path fill="#1800ad" d="M 13.574219 11.945312 C 13.621094 11.945312 13.664062 11.90625 13.664062 11.859375 C 13.664062 11.808594 13.621094 11.773438 13.574219 11.773438 C 13.527344 11.773438 13.488281 11.8125 13.488281 11.859375 C 13.488281 11.90625 13.527344 11.945312 13.574219 11.945312 Z M 13.574219 11.945312 " fill-opacity="1" fill-rule="nonzero"/><path fill="#1800ad" d="M 15.496094 10.828125 L 16.789062 10.828125 C 16.871094 10.828125 16.933594 10.761719 16.933594 10.683594 L 16.933594 8.898438 C 16.933594 8.816406 16.867188 8.75 16.789062 8.75 L 15.496094 8.75 C 15.414062 8.75 15.347656 8.816406 15.347656 8.898438 L 15.347656 10.679688 C 15.347656 10.761719 15.414062 10.828125 15.496094 10.828125 Z M 15.5 8.898438 L 16.789062 8.902344 L 16.78125 10.675781 L 15.496094 10.675781 Z M 15.5 8.898438 " fill-opacity="1" fill-rule="nonzero"/><path fill="#1800ad" d="M 16.367188 9.175781 L 16.027344 9.175781 L 15.871094 9.875 L 16.035156 9.875 L 15.914062 10.402344 L 16.414062 9.703125 L 16.136719 9.703125 Z M 16.367188 9.175781 " fill-opacity="1" fill-rule="nonzero"/><path fill="#1800ad" d="M 21.976562 12.125 L 22.199219 12.125 L 22.199219 12.179688 L 21.976562 12.179688 Z M 21.976562 12.125 " fill-opacity="1" fill-rule="nonzero"/><path fill="#1800ad" d="M 22.011719 12.097656 L 22.15625 12.097656 L 22.15625 12.082031 L 22.195312 12.082031 L 22.195312 11.984375 L 21.972656 11.984375 L 21.972656 12.082031 L 22.011719 12.082031 Z M 22.011719 12.097656 " fill-opacity="1" fill-rule="nonzero"/><path fill="#1800ad" d="M 21.863281 11.65625 C 21.890625 11.65625 21.910156 11.632812 21.910156 11.605469 C 21.910156 11.578125 21.890625 11.558594 21.863281 11.558594 C 21.835938 11.558594 21.820312 11.582031 21.820312 11.605469 C 21.820312 11.632812 21.839844 11.65625 21.863281 11.65625 Z M 21.863281 11.65625 " fill-opacity="1" fill-rule="nonzero"/><path fill="#1800ad" d="M 22.085938 11.65625 C 22.109375 11.65625 22.132812 11.632812 22.132812 11.605469 C 22.132812 11.578125 22.109375 11.558594 22.085938 11.558594 C 22.058594 11.558594 22.039062 11.582031 22.039062 11.605469 C 22.039062 11.632812 22.058594 11.65625 22.085938 11.65625 Z M 22.085938 11.65625 " fill-opacity="1" fill-rule="nonzero"/><path fill="#1800ad" d="M 22.304688 11.65625 C 22.332031 11.65625 22.351562 11.632812 22.351562 11.605469 C 22.351562 11.578125 22.328125 11.558594 22.304688 11.558594 C 22.277344 11.558594 22.257812 11.582031 22.257812 11.605469 C 22.257812 11.632812 22.277344 11.65625 22.304688 11.65625 Z M 22.304688 11.65625 " fill-opacity="1" fill-rule="nonzero"/><path fill="#1800ad" d="M 21.082031 12.125 L 21.304688 12.125 L 21.304688 12.179688 L 21.082031 12.179688 Z M 21.082031 12.125 " fill-opacity="1" fill-rule="nonzero"/><path fill="#1800ad" d="M 21.121094 12.097656 L 21.265625 12.097656 L 21.265625 12.082031 L 21.304688 12.082031 L 21.304688 11.984375 L 21.082031 11.984375 L 21.082031 12.082031 L 21.121094 12.082031 Z M 21.121094 12.097656 " fill-opacity="1" fill-rule="nonzero"/><path fill="#1800ad" d="M 20.972656 11.65625 C 21 11.65625 21.019531 11.632812 21.019531 11.605469 C 21.019531 11.578125 21 11.558594 20.972656 11.558594 C 20.945312 11.558594 20.925781 11.582031 20.925781 11.605469 C 20.925781 11.632812 20.945312 11.65625 20.972656 11.65625 Z M 20.972656 11.65625 " fill-opacity="1" fill-rule="nonzero"/><path fill="#1800ad" d="M 21.191406 11.65625 C 21.21875 11.65625 21.238281 11.632812 21.238281 11.605469 C 21.238281 11.578125 21.214844 11.558594 21.191406 11.558594 C 21.164062 11.558594 21.144531 11.582031 21.144531 11.605469 C 21.144531 11.632812 21.167969 11.65625 21.191406 11.65625 Z M 21.191406 11.65625 " fill-opacity="1" fill-rule="nonzero"/><path fill="#1800ad" d="M 21.410156 11.65625 C 21.4375 11.65625 21.457031 11.632812 21.457031 11.605469 C 21.457031 11.578125 21.4375 11.558594 21.410156 11.558594 C 21.382812 11.558594 21.367188 11.582031 21.367188 11.605469 C 21.367188 11.632812 21.386719 11.65625 21.410156 11.65625 Z M 21.410156 11.65625 " fill-opacity="1" fill-rule="nonzero"/><path fill="#1800ad" d="M 20.1875 12.125 L 20.410156 12.125 L 20.410156 12.179688 L 20.1875 12.179688 Z M 20.1875 12.125 " fill-opacity="1" fill-rule="nonzero"/><path fill="#1800ad" d="M 20.226562 12.097656 L 20.371094 12.097656 L 20.371094 12.082031 L 20.410156 12.082031 L 20.410156 11.984375 L 20.1875 11.984375 L 20.1875 12.082031 L 20.226562 12.082031 Z M 20.226562 12.097656 " fill-opacity="1" fill-rule="nonzero"/><path fill="#1800ad" d="M 20.078125 11.65625 C 20.105469 11.65625 20.125 11.632812 20.125 11.605469 C 20.125 11.578125 20.101562 11.558594 20.078125 11.558594 C 20.050781 11.558594 20.03125 11.582031 20.03125 11.605469 C 20.03125 11.632812 20.054688 11.65625 20.078125 11.65625 Z M 20.078125 11.65625 " fill-opacity="1" fill-rule="nonzero"/><path fill="#1800ad" d="M 20.300781 11.65625 C 20.324219 11.65625 20.347656 11.632812 20.347656 11.605469 C 20.347656 11.578125 20.324219 11.558594 20.300781 11.558594 C 20.273438 11.558594 20.253906 11.582031 20.253906 11.605469 C 20.253906 11.632812 20.273438 11.65625 20.300781 11.65625 Z M 20.300781 11.65625 " fill-opacity="1" fill-rule="nonzero"/><path fill="#1800ad" d="M 20.519531 11.65625 C 20.546875 11.65625 20.566406 11.632812 20.566406 11.605469 C 20.566406 11.578125 20.546875 11.558594 20.519531 11.558594 C 20.492188 11.558594 20.472656 11.582031 20.472656 11.605469 C 20.472656 11.632812 20.492188 11.65625 20.519531 11.65625 Z M 20.519531 11.65625 " fill-opacity="1" fill-rule="nonzero"/><path fill="#1800ad" d="M 19.050781 12.617188 L 19.765625 12.617188 C 19.796875 12.617188 19.820312 12.59375 19.820312 12.5625 L 19.820312 11.503906 C 19.820312 11.472656 19.796875 11.449219 19.765625 11.449219 L 19.675781 11.449219 L 19.675781 11.167969 L 20.035156 11.167969 L 20.035156 11.449219 L 19.945312 11.449219 C 19.914062 11.449219 19.886719 11.476562 19.886719 11.503906 L 19.886719 12.5625 C 19.886719 12.59375 19.914062 12.617188 19.945312 12.617188 L 20.660156 12.617188 C 20.691406 12.617188 20.714844 12.59375 20.714844 12.5625 L 20.714844 11.503906 C 20.714844 11.472656 20.691406 11.449219 20.660156 11.449219 L 20.570312 11.449219 L 20.570312 11.167969 L 20.929688 11.167969 L 20.929688 11.449219 L 20.835938 11.449219 C 20.804688 11.449219 20.78125 11.476562 20.78125 11.503906 L 20.78125 12.5625 C 20.78125 12.59375 20.808594 12.617188 20.835938 12.617188 L 21.554688 12.617188 C 21.585938 12.617188 21.609375 12.59375 21.609375 12.5625 L 21.609375 11.503906 C 21.609375 11.472656 21.582031 11.449219 21.554688 11.449219 L 21.464844 11.449219 L 21.464844 11.167969 L 21.820312 11.167969 L 21.820312 11.449219 L 21.730469 11.449219 C 21.699219 11.449219 21.675781 11.476562 21.675781 11.503906 L 21.675781 12.5625 C 21.675781 12.59375 21.703125 12.617188 21.730469 12.617188 L 22.449219 12.617188 C 22.480469 12.617188 22.503906 12.59375 22.503906 12.5625 L 22.503906 11.503906 C 22.503906 11.472656 22.476562 11.449219 22.449219 11.449219 L 22.359375 11.449219 L 22.359375 10.976562 L 22.613281 10.976562 L 22.613281 10.882812 L 22.460938 10.882812 L 22.460938 10.785156 L 22.625 10.785156 L 22.625 8.65625 L 22.460938 8.65625 L 22.460938 8.511719 L 22.289062 8.511719 L 22.289062 8.367188 L 21.011719 8.367188 L 21.011719 8.8125 L 20.914062 8.8125 C 20.882812 8.8125 20.859375 8.835938 20.859375 8.867188 L 20.859375 10.058594 C 20.859375 10.089844 20.882812 10.113281 20.914062 10.113281 L 21.714844 10.113281 C 21.746094 10.113281 21.769531 10.085938 21.769531 10.058594 L 21.769531 8.867188 C 21.769531 8.835938 21.746094 8.8125 21.714844 8.8125 L 21.605469 8.8125 L 21.605469 8.726562 L 22.21875 8.726562 L 22.21875 10.6875 L 20.226562 10.6875 L 20.226562 10.292969 L 20.355469 10.292969 C 20.386719 10.292969 20.410156 10.269531 20.410156 10.238281 L 20.410156 8.691406 C 20.410156 8.660156 20.386719 8.636719 20.355469 8.636719 L 19.308594 8.636719 C 19.28125 8.636719 19.253906 8.660156 19.253906 8.691406 L 19.253906 10.238281 C 19.253906 10.269531 19.28125 10.292969 19.308594 10.292969 L 19.429688 10.292969 L 19.429688 10.882812 L 19.222656 10.882812 L 19.222656 10.976562 L 19.359375 10.976562 L 19.359375 11.074219 L 18.992188 11.074219 L 18.992188 11.167969 L 19.140625 11.167969 L 19.140625 11.449219 L 19.046875 11.449219 C 19.015625 11.449219 18.992188 11.476562 18.992188 11.503906 L 18.992188 12.5625 C 18.992188 12.59375 19.019531 12.617188 19.050781 12.617188 Z M 19.578125 11.449219 L 19.453125 11.449219 L 19.453125 11.167969 L 19.578125 11.167969 Z M 19.570312 10.976562 L 19.578125 10.976562 L 19.578125 11.074219 L 19.570312 11.074219 Z M 19.675781 10.976562 L 20.25 10.976562 L 20.25 11.074219 L 19.671875 11.074219 L 19.671875 10.976562 Z M 19.757812 10.785156 L 19.757812 10.882812 L 19.675781 10.882812 L 19.675781 10.785156 Z M 20.472656 10.976562 L 20.472656 11.074219 L 20.347656 11.074219 L 20.347656 10.976562 Z M 20.128906 11.167969 L 20.253906 11.167969 L 20.253906 11.449219 L 20.128906 11.449219 Z M 20.601562 12.507812 L 20.546875 12.507812 C 20.558594 12.5 20.566406 12.488281 20.566406 12.472656 C 20.566406 12.445312 20.542969 12.421875 20.519531 12.421875 C 20.492188 12.421875 20.472656 12.445312 20.472656 12.472656 C 20.472656 12.488281 20.480469 12.5 20.492188 12.507812 L 20.324219 12.507812 C 20.335938 12.5 20.34375 12.488281 20.34375 12.472656 C 20.34375 12.445312 20.324219 12.421875 20.296875 12.421875 C 20.269531 12.421875 20.253906 12.445312 20.253906 12.472656 C 20.253906 12.488281 20.261719 12.5 20.273438 12.507812 L 20.105469 12.507812 C 20.117188 12.5 20.128906 12.488281 20.128906 12.472656 C 20.128906 12.445312 20.105469 12.421875 20.082031 12.421875 C 20.054688 12.421875 20.03125 12.445312 20.03125 12.472656 C 20.03125 12.488281 20.042969 12.5 20.054688 12.507812 L 19.996094 12.507812 L 19.996094 11.558594 L 20.601562 11.558594 Z M 20.472656 11.449219 L 20.347656 11.449219 L 20.347656 11.167969 L 20.472656 11.167969 Z M 20.566406 10.976562 L 21.144531 10.976562 L 21.144531 11.074219 L 20.566406 11.074219 Z M 21.367188 10.976562 L 21.367188 11.074219 L 21.238281 11.074219 L 21.238281 10.976562 Z M 20.566406 10.882812 L 20.566406 10.785156 L 21.367188 10.785156 L 21.367188 10.882812 Z M 21.019531 11.167969 L 21.144531 11.167969 L 21.144531 11.449219 L 21.019531 11.449219 Z M 21.496094 12.507812 L 21.4375 12.507812 C 21.449219 12.5 21.457031 12.488281 21.457031 12.472656 C 21.457031 12.445312 21.4375 12.421875 21.410156 12.421875 C 21.382812 12.421875 21.367188 12.445312 21.367188 12.472656 C 21.367188 12.488281 21.375 12.5 21.386719 12.507812 L 21.21875 12.507812 C 21.230469 12.5 21.238281 12.488281 21.238281 12.472656 C 21.238281 12.445312 21.214844 12.421875 21.191406 12.421875 C 21.164062 12.421875 21.144531 12.445312 21.144531 12.472656 C 21.144531 12.488281 21.152344 12.5 21.164062 12.507812 L 21 12.507812 C 21.011719 12.5 21.019531 12.488281 21.019531 12.472656 C 21.019531 12.445312 20.996094 12.421875 20.972656 12.421875 C 20.945312 12.421875 20.925781 12.445312 20.925781 12.472656 C 20.925781 12.488281 20.933594 12.5 20.945312 12.507812 L 20.890625 12.507812 L 20.890625 11.558594 L 21.496094 11.558594 Z M 21.367188 11.449219 L 21.238281 11.449219 L 21.238281 11.167969 L 21.367188 11.167969 Z M 21.460938 10.976562 L 22.039062 10.976562 L 22.039062 11.074219 L 21.460938 11.074219 Z M 22.21875 11.074219 L 22.132812 11.074219 L 22.132812 10.976562 L 22.21875 10.976562 Z M 21.910156 11.167969 L 22.039062 11.167969 L 22.039062 11.449219 L 21.910156 11.449219 Z M 22.386719 12.507812 L 22.332031 12.507812 C 22.34375 12.5 22.351562 12.488281 22.351562 12.472656 C 22.351562 12.445312 22.328125 12.421875 22.304688 12.421875 C 22.277344 12.421875 22.257812 12.445312 22.257812 12.472656 C 22.257812 12.488281 22.269531 12.5 22.28125 12.507812 L 22.113281 12.507812 C 22.125 12.5 22.132812 12.488281 22.132812 12.472656 C 22.132812 12.445312 22.109375 12.421875 22.085938 12.421875 C 22.058594 12.421875 22.039062 12.445312 22.039062 12.472656 C 22.039062 12.488281 22.046875 12.5 22.058594 12.507812 L 21.890625 12.507812 C 21.902344 12.5 21.910156 12.488281 21.910156 12.472656 C 21.910156 12.445312 21.890625 12.421875 21.863281 12.421875 C 21.835938 12.421875 21.820312 12.445312 21.820312 12.472656 C 21.820312 12.488281 21.828125 12.5 21.839844 12.507812 L 21.78125 12.507812 L 21.78125 11.558594 L 22.386719 11.558594 Z M 22.132812 11.449219 L 22.132812 11.167969 L 22.257812 11.167969 L 22.257812 11.449219 Z M 22.386719 10.882812 L 22.351562 10.882812 L 22.351562 10.785156 L 22.386719 10.785156 Z M 22.550781 8.726562 L 22.550781 10.6875 L 22.457031 10.6875 L 22.457031 8.726562 Z M 22.386719 8.582031 L 22.386719 8.65625 L 22.289062 8.65625 L 22.289062 8.582031 Z M 21.117188 8.4375 L 22.21875 8.4375 L 22.21875 8.511719 L 21.257812 8.511719 L 21.257812 8.8125 L 21.117188 8.8125 Z M 21.660156 10.003906 L 21.582031 10.003906 C 21.601562 9.992188 21.613281 9.976562 21.613281 9.953125 C 21.613281 9.925781 21.589844 9.898438 21.5625 9.898438 C 21.53125 9.898438 21.507812 9.921875 21.507812 9.953125 C 21.507812 9.976562 21.519531 9.992188 21.539062 10.003906 L 21.335938 10.003906 C 21.355469 9.992188 21.367188 9.976562 21.367188 9.953125 C 21.367188 9.925781 21.34375 9.898438 21.3125 9.898438 C 21.285156 9.898438 21.261719 9.921875 21.261719 9.953125 C 21.261719 9.976562 21.273438 9.992188 21.292969 10.003906 L 21.089844 10.003906 C 21.105469 9.992188 21.121094 9.976562 21.121094 9.953125 C 21.121094 9.925781 21.097656 9.898438 21.066406 9.898438 C 21.039062 9.898438 21.015625 9.921875 21.015625 9.953125 C 21.015625 9.976562 21.027344 9.992188 21.046875 10.003906 L 20.96875 10.003906 L 20.96875 8.921875 L 21.660156 8.921875 Z M 21.605469 8.65625 L 21.5 8.65625 L 21.5 8.8125 L 21.359375 8.8125 L 21.359375 8.582031 L 22.21875 8.582031 L 22.21875 8.65625 Z M 22.289062 8.726562 L 22.386719 8.726562 L 22.386719 10.6875 L 22.289062 10.6875 Z M 22.21875 10.882812 L 21.460938 10.882812 L 21.460938 10.785156 L 22.21875 10.785156 Z M 20.472656 10.785156 L 20.472656 10.882812 L 19.898438 10.882812 L 19.898438 10.785156 Z M 20.085938 10.6875 L 19.898438 10.6875 L 19.898438 10.292969 L 20.085938 10.292969 Z M 19.367188 8.742188 L 20.300781 8.742188 L 20.300781 10.183594 L 19.367188 10.183594 Z M 19.757812 10.292969 L 19.757812 10.6875 L 19.570312 10.6875 L 19.570312 10.292969 Z M 19.570312 10.785156 L 19.578125 10.785156 L 19.578125 10.882812 L 19.570312 10.882812 Z M 19.234375 11.167969 L 19.359375 11.167969 L 19.359375 11.449219 L 19.234375 11.449219 Z M 19.105469 11.558594 L 19.710938 11.558594 L 19.710938 12.507812 L 19.652344 12.507812 C 19.664062 12.5 19.675781 12.488281 19.675781 12.472656 C 19.675781 12.445312 19.652344 12.421875 19.628906 12.421875 C 19.601562 12.421875 19.578125 12.445312 19.578125 12.472656 C 19.578125 12.488281 19.589844 12.5 19.601562 12.507812 L 19.433594 12.507812 C 19.445312 12.5 19.453125 12.488281 19.453125 12.472656 C 19.453125 12.445312 19.433594 12.421875 19.40625 12.421875 C 19.378906 12.421875 19.359375 12.445312 19.359375 12.472656 C 19.359375 12.488281 19.367188 12.5 19.378906 12.507812 L 19.210938 12.507812 C 19.222656 12.5 19.234375 12.488281 19.234375 12.472656 C 19.234375 12.445312 19.210938 12.421875 19.1875 12.421875 C 19.160156 12.421875 19.140625 12.445312 19.140625 12.472656 C 19.140625 12.488281 19.148438 12.5 19.160156 12.507812 L 19.105469 12.507812 Z M 19.105469 11.558594 " fill-opacity="1" fill-rule="nonzero"/><path fill="#1800ad" d="M 19.292969 12.125 L 19.519531 12.125 L 19.519531 12.179688 L 19.292969 12.179688 Z M 19.292969 12.125 " fill-opacity="1" fill-rule="nonzero"/><path fill="#1800ad" d="M 19.335938 12.097656 L 19.476562 12.097656 L 19.476562 12.082031 L 19.519531 12.082031 L 19.519531 11.984375 L 19.292969 11.984375 L 19.292969 12.082031 L 19.335938 12.082031 Z M 19.335938 12.097656 " fill-opacity="1" fill-rule="nonzero"/><path fill="#1800ad" d="M 19.1875 11.65625 C 19.210938 11.65625 19.234375 11.632812 19.234375 11.605469 C 19.234375 11.578125 19.210938 11.558594 19.1875 11.558594 C 19.160156 11.558594 19.140625 11.582031 19.140625 11.605469 C 19.140625 11.632812 19.160156 11.65625 19.1875 11.65625 Z M 19.1875 11.65625 " fill-opacity="1" fill-rule="nonzero"/><path fill="#1800ad" d="M 19.40625 11.65625 C 19.433594 11.65625 19.453125 11.632812 19.453125 11.605469 C 19.453125 11.578125 19.433594 11.558594 19.40625 11.558594 C 19.378906 11.558594 19.359375 11.582031 19.359375 11.605469 C 19.359375 11.632812 19.378906 11.65625 19.40625 11.65625 Z M 19.40625 11.65625 " fill-opacity="1" fill-rule="nonzero"/><path fill="#1800ad" d="M 19.628906 11.65625 C 19.652344 11.65625 19.675781 11.632812 19.675781 11.605469 C 19.675781 11.578125 19.652344 11.558594 19.628906 11.558594 C 19.601562 11.558594 19.578125 11.582031 19.578125 11.605469 C 19.578125 11.632812 19.601562 11.65625 19.628906 11.65625 Z M 19.628906 11.65625 " fill-opacity="1" fill-rule="nonzero"/><path fill="#1800ad" d="M 19.671875 9.59375 L 19.996094 9.59375 L 19.996094 9.679688 L 19.671875 9.679688 Z M 19.671875 9.59375 " fill-opacity="1" fill-rule="nonzero"/><path fill="#1800ad" d="M 19.667969 9.539062 L 19.726562 9.539062 L 19.726562 9.554688 L 19.9375 9.554688 L 19.9375 9.539062 L 19.996094 9.539062 L 19.996094 9.390625 L 19.667969 9.390625 Z M 19.667969 9.539062 " fill-opacity="1" fill-rule="nonzero"/><path fill="#1800ad" d="M 19.511719 8.769531 C 19.472656 8.769531 19.441406 8.800781 19.441406 8.839844 C 19.441406 8.878906 19.472656 8.910156 19.511719 8.910156 C 19.546875 8.910156 19.578125 8.878906 19.578125 8.839844 C 19.578125 8.800781 19.546875 8.769531 19.511719 8.769531 Z M 19.511719 8.769531 " fill-opacity="1" fill-rule="nonzero"/><path fill="#1800ad" d="M 19.832031 8.910156 C 19.871094 8.910156 19.902344 8.878906 19.902344 8.839844 C 19.902344 8.800781 19.871094 8.769531 19.832031 8.769531 C 19.792969 8.769531 19.761719 8.800781 19.761719 8.839844 C 19.761719 8.878906 19.792969 8.910156 19.832031 8.910156 Z M 19.832031 8.910156 " fill-opacity="1" fill-rule="nonzero"/><path fill="#1800ad" d="M 20.15625 8.769531 C 20.113281 8.769531 20.085938 8.800781 20.085938 8.839844 C 20.085938 8.878906 20.113281 8.910156 20.15625 8.910156 C 20.191406 8.910156 20.222656 8.878906 20.222656 8.839844 C 20.222656 8.800781 20.191406 8.769531 20.15625 8.769531 Z M 20.15625 8.769531 " fill-opacity="1" fill-rule="nonzero"/><path fill="#1800ad" d="M 19.511719 10.035156 C 19.472656 10.035156 19.441406 10.0625 19.441406 10.105469 C 19.441406 10.140625 19.472656 10.171875 19.511719 10.171875 C 19.546875 10.171875 19.578125 10.140625 19.578125 10.105469 C 19.578125 10.066406 19.546875 10.035156 19.511719 10.035156 Z M 19.511719 10.035156 " fill-opacity="1" fill-rule="nonzero"/><path fill="#1800ad" d="M 19.832031 10.035156 C 19.792969 10.035156 19.761719 10.0625 19.761719 10.105469 C 19.761719 10.140625 19.792969 10.171875 19.832031 10.171875 C 19.871094 10.171875 19.902344 10.140625 19.902344 10.105469 C 19.902344 10.066406 19.871094 10.035156 19.832031 10.035156 Z M 19.832031 10.035156 " fill-opacity="1" fill-rule="nonzero"/><path fill="#1800ad" d="M 20.15625 10.035156 C 20.113281 10.035156 20.085938 10.0625 20.085938 10.105469 C 20.085938 10.140625 20.113281 10.171875 20.15625 10.171875 C 20.191406 10.171875 20.222656 10.140625 20.222656 10.105469 C 20.222656 10.066406 20.191406 10.035156 20.15625 10.035156 Z M 20.15625 10.035156 " fill-opacity="1" fill-rule="nonzero"/><path fill="#1800ad" d="M 21.1875 9.5625 L 21.441406 9.5625 L 21.441406 9.628906 L 21.1875 9.628906 Z M 21.1875 9.5625 " fill-opacity="1" fill-rule="nonzero"/><path fill="#1800ad" d="M 21.234375 9.535156 L 21.394531 9.535156 L 21.394531 9.519531 L 21.441406 9.519531 L 21.441406 9.40625 L 21.1875 9.40625 L 21.1875 9.519531 L 21.234375 9.519531 Z M 21.234375 9.535156 " fill-opacity="1" fill-rule="nonzero"/><path fill="#1800ad" d="M 21.066406 9.039062 C 21.097656 9.039062 21.121094 9.015625 21.121094 8.984375 C 21.121094 8.957031 21.097656 8.929688 21.066406 8.929688 C 21.039062 8.929688 21.015625 8.953125 21.015625 8.984375 C 21.015625 9.015625 21.035156 9.039062 21.066406 9.039062 Z M 21.066406 9.039062 " fill-opacity="1" fill-rule="nonzero"/><path fill="#1800ad" d="M 21.3125 9.039062 C 21.34375 9.039062 21.367188 9.015625 21.367188 8.984375 C 21.367188 8.957031 21.34375 8.929688 21.3125 8.929688 C 21.285156 8.929688 21.261719 8.953125 21.261719 8.984375 C 21.261719 9.015625 21.285156 9.039062 21.3125 9.039062 Z M 21.3125 9.039062 " fill-opacity="1" fill-rule="nonzero"/><path fill="#1800ad" d="M 21.5625 9.039062 C 21.589844 9.039062 21.613281 9.015625 21.613281 8.984375 C 21.613281 8.957031 21.589844 8.929688 21.5625 8.929688 C 21.53125 8.929688 21.507812 8.953125 21.507812 8.984375 C 21.507812 9.015625 21.53125 9.039062 21.5625 9.039062 Z M 21.5625 9.039062 " fill-opacity="1" fill-rule="nonzero"/><path fill="#1800ad" d="M 20.726562 7.722656 L 19.140625 7.722656 L 19.140625 7.957031 L 20.726562 7.957031 Z M 19.300781 7.90625 C 19.265625 7.90625 19.238281 7.875 19.238281 7.839844 C 19.238281 7.804688 19.265625 7.777344 19.300781 7.777344 C 19.335938 7.777344 19.367188 7.804688 19.367188 7.839844 C 19.367188 7.875 19.335938 7.90625 19.300781 7.90625 Z M 19.480469 7.90625 C 19.449219 7.90625 19.417969 7.875 19.417969 7.839844 C 19.417969 7.804688 19.449219 7.777344 19.480469 7.777344 C 19.519531 7.777344 19.546875 7.804688 19.546875 7.839844 C 19.546875 7.875 19.519531 7.90625 19.480469 7.90625 Z M 19.660156 7.90625 C 19.628906 7.90625 19.597656 7.875 19.597656 7.839844 C 19.597656 7.804688 19.625 7.777344 19.660156 7.777344 C 19.699219 7.777344 19.726562 7.804688 19.726562 7.839844 C 19.726562 7.875 19.699219 7.90625 19.660156 7.90625 Z M 19.84375 7.90625 C 19.808594 7.90625 19.78125 7.875 19.78125 7.839844 C 19.78125 7.804688 19.808594 7.777344 19.84375 7.777344 C 19.878906 7.777344 19.910156 7.804688 19.910156 7.839844 C 19.90625 7.875 19.878906 7.90625 19.84375 7.90625 Z M 20.023438 7.90625 C 19.988281 7.90625 19.960938 7.875 19.960938 7.839844 C 19.960938 7.804688 19.988281 7.777344 20.023438 7.777344 C 20.058594 7.777344 20.089844 7.804688 20.089844 7.839844 C 20.089844 7.875 20.058594 7.90625 20.023438 7.90625 Z M 20.203125 7.90625 C 20.167969 7.90625 20.140625 7.875 20.140625 7.839844 C 20.140625 7.804688 20.167969 7.777344 20.203125 7.777344 C 20.242188 7.777344 20.269531 7.804688 20.269531 7.839844 C 20.269531 7.875 20.242188 7.90625 20.203125 7.90625 Z M 20.386719 7.90625 C 20.351562 7.90625 20.324219 7.875 20.324219 7.839844 C 20.324219 7.804688 20.351562 7.777344 20.386719 7.777344 C 20.421875 7.777344 20.453125 7.804688 20.453125 7.839844 C 20.449219 7.875 20.421875 7.90625 20.386719 7.90625 Z M 20.566406 7.90625 C 20.53125 7.90625 20.503906 7.875 20.503906 7.839844 C 20.503906 7.804688 20.53125 7.777344 20.566406 7.777344 C 20.601562 7.777344 20.632812 7.804688 20.632812 7.839844 C 20.628906 7.875 20.601562 7.90625 20.566406 7.90625 Z M 20.566406 7.90625 " fill-opacity="1" fill-rule="nonzero"/><path fill="#1800ad" d="M 22.621094 7.722656 L 21.03125 7.722656 L 21.03125 7.957031 L 22.621094 7.957031 Z M 21.195312 7.90625 C 21.160156 7.90625 21.128906 7.875 21.128906 7.839844 C 21.128906 7.804688 21.160156 7.777344 21.195312 7.777344 C 21.230469 7.777344 21.257812 7.804688 21.257812 7.839844 C 21.257812 7.875 21.230469 7.90625 21.195312 7.90625 Z M 21.375 7.90625 C 21.339844 7.90625 21.3125 7.875 21.3125 7.839844 C 21.3125 7.804688 21.339844 7.777344 21.375 7.777344 C 21.410156 7.777344 21.4375 7.804688 21.4375 7.839844 C 21.4375 7.875 21.410156 7.90625 21.375 7.90625 Z M 21.554688 7.90625 C 21.519531 7.90625 21.492188 7.875 21.492188 7.839844 C 21.492188 7.804688 21.519531 7.777344 21.554688 7.777344 C 21.589844 7.777344 21.621094 7.804688 21.621094 7.839844 C 21.621094 7.875 21.589844 7.90625 21.554688 7.90625 Z M 21.738281 7.90625 C 21.703125 7.90625 21.671875 7.875 21.671875 7.839844 C 21.671875 7.804688 21.703125 7.777344 21.738281 7.777344 C 21.773438 7.777344 21.800781 7.804688 21.800781 7.839844 C 21.800781 7.875 21.773438 7.90625 21.738281 7.90625 Z M 21.917969 7.90625 C 21.882812 7.90625 21.851562 7.875 21.851562 7.839844 C 21.851562 7.804688 21.882812 7.777344 21.917969 7.777344 C 21.953125 7.777344 21.980469 7.804688 21.980469 7.839844 C 21.980469 7.875 21.953125 7.90625 21.917969 7.90625 Z M 22.097656 7.90625 C 22.0625 7.90625 22.03125 7.875 22.03125 7.839844 C 22.03125 7.804688 22.0625 7.777344 22.097656 7.777344 C 22.132812 7.777344 22.160156 7.804688 22.160156 7.839844 C 22.160156 7.875 22.132812 7.90625 22.097656 7.90625 Z M 22.277344 7.90625 C 22.242188 7.90625 22.214844 7.875 22.214844 7.839844 C 22.214844 7.804688 22.242188 7.777344 22.277344 7.777344 C 22.3125 7.777344 22.34375 7.804688 22.34375 7.839844 C 22.34375 7.875 22.3125 7.90625 22.277344 7.90625 Z M 22.457031 7.90625 C 22.425781 7.90625 22.394531 7.875 22.394531 7.839844 C 22.394531 7.804688 22.425781 7.777344 22.457031 7.777344 C 22.496094 7.777344 22.523438 7.804688 22.523438 7.839844 C 22.523438 7.875 22.496094 7.90625 22.457031 7.90625 Z M 22.457031 7.90625 " fill-opacity="1" fill-rule="nonzero"/><path fill="#1800ad" d="M 20.726562 7.191406 L 19.140625 7.191406 L 19.140625 7.425781 L 20.726562 7.425781 Z M 19.300781 7.371094 C 19.265625 7.371094 19.238281 7.34375 19.238281 7.308594 C 19.238281 7.273438 19.265625 7.246094 19.300781 7.246094 C 19.335938 7.246094 19.367188 7.273438 19.367188 7.308594 C 19.367188 7.34375 19.335938 7.371094 19.300781 7.371094 Z M 19.480469 7.371094 C 19.449219 7.371094 19.417969 7.34375 19.417969 7.308594 C 19.417969 7.273438 19.449219 7.246094 19.480469 7.246094 C 19.519531 7.246094 19.546875 7.273438 19.546875 7.308594 C 19.546875 7.34375 19.519531 7.371094 19.480469 7.371094 Z M 19.660156 7.371094 C 19.628906 7.371094 19.597656 7.34375 19.597656 7.308594 C 19.597656 7.273438 19.625 7.246094 19.660156 7.246094 C 19.699219 7.246094 19.726562 7.273438 19.726562 7.308594 C 19.726562 7.34375 19.699219 7.371094 19.660156 7.371094 Z M 19.84375 7.371094 C 19.808594 7.371094 19.78125 7.34375 19.78125 7.308594 C 19.78125 7.273438 19.808594 7.246094 19.84375 7.246094 C 19.878906 7.246094 19.910156 7.273438 19.910156 7.308594 C 19.90625 7.34375 19.878906 7.371094 19.84375 7.371094 Z M 20.023438 7.371094 C 19.988281 7.371094 19.960938 7.34375 19.960938 7.308594 C 19.960938 7.273438 19.988281 7.246094 20.023438 7.246094 C 20.058594 7.246094 20.089844 7.273438 20.089844 7.308594 C 20.089844 7.34375 20.058594 7.371094 20.023438 7.371094 Z M 20.203125 7.371094 C 20.167969 7.371094 20.140625 7.34375 20.140625 7.308594 C 20.140625 7.273438 20.167969 7.246094 20.203125 7.246094 C 20.242188 7.246094 20.269531 7.273438 20.269531 7.308594 C 20.269531 7.34375 20.242188 7.371094 20.203125 7.371094 Z M 20.386719 7.371094 C 20.351562 7.371094 20.324219 7.34375 20.324219 7.308594 C 20.324219 7.273438 20.351562 7.246094 20.386719 7.246094 C 20.421875 7.246094 20.453125 7.273438 20.453125 7.308594 C 20.449219 7.34375 20.421875 7.371094 20.386719 7.371094 Z M 20.566406 7.371094 C 20.53125 7.371094 20.503906 7.34375 20.503906 7.308594 C 20.503906 7.273438 20.53125 7.246094 20.566406 7.246094 C 20.601562 7.246094 20.632812 7.273438 20.632812 7.308594 C 20.628906 7.34375 20.601562 7.371094 20.566406 7.371094 Z M 20.566406 7.371094 " fill-opacity="1" fill-rule="nonzero"/><path fill="#1800ad" d="M 22.621094 7.191406 L 21.03125 7.191406 L 21.03125 7.425781 L 22.621094 7.425781 Z M 21.195312 7.371094 C 21.160156 7.371094 21.128906 7.34375 21.128906 7.308594 C 21.128906 7.273438 21.160156 7.246094 21.195312 7.246094 C 21.230469 7.246094 21.257812 7.273438 21.257812 7.308594 C 21.257812 7.34375 21.230469 7.371094 21.195312 7.371094 Z M 21.375 7.371094 C 21.339844 7.371094 21.3125 7.34375 21.3125 7.308594 C 21.3125 7.273438 21.339844 7.246094 21.375 7.246094 C 21.410156 7.246094 21.4375 7.273438 21.4375 7.308594 C 21.4375 7.34375 21.410156 7.371094 21.375 7.371094 Z M 21.554688 7.371094 C 21.519531 7.371094 21.492188 7.34375 21.492188 7.308594 C 21.492188 7.273438 21.519531 7.246094 21.554688 7.246094 C 21.589844 7.246094 21.621094 7.273438 21.621094 7.308594 C 21.621094 7.34375 21.589844 7.371094 21.554688 7.371094 Z M 21.738281 7.371094 C 21.703125 7.371094 21.671875 7.34375 21.671875 7.308594 C 21.671875 7.273438 21.703125 7.246094 21.738281 7.246094 C 21.773438 7.246094 21.800781 7.273438 21.800781 7.308594 C 21.800781 7.34375 21.773438 7.371094 21.738281 7.371094 Z M 21.917969 7.371094 C 21.882812 7.371094 21.851562 7.34375 21.851562 7.308594 C 21.851562 7.273438 21.882812 7.246094 21.917969 7.246094 C 21.953125 7.246094 21.980469 7.273438 21.980469 7.308594 C 21.980469 7.34375 21.953125 7.371094 21.917969 7.371094 Z M 22.097656 7.371094 C 22.0625 7.371094 22.03125 7.34375 22.03125 7.308594 C 22.03125 7.273438 22.0625 7.246094 22.097656 7.246094 C 22.132812 7.246094 22.160156 7.273438 22.160156 7.308594 C 22.160156 7.34375 22.132812 7.371094 22.097656 7.371094 Z M 22.277344 7.371094 C 22.242188 7.371094 22.214844 7.34375 22.214844 7.308594 C 22.214844 7.273438 22.242188 7.246094 22.277344 7.246094 C 22.3125 7.246094 22.34375 7.273438 22.34375 7.308594 C 22.34375 7.34375 22.3125 7.371094 22.277344 7.371094 Z M 22.457031 7.371094 C 22.425781 7.371094 22.394531 7.34375 22.394531 7.308594 C 22.394531 7.273438 22.425781 7.246094 22.457031 7.246094 C 22.496094 7.246094 22.523438 7.273438 22.523438 7.308594 C 22.523438 7.34375 22.496094 7.371094 22.457031 7.371094 Z M 22.457031 7.371094 " fill-opacity="1" fill-rule="nonzero"/><path fill="#1800ad" d="M 12.6875 13.789062 C 12.410156 13.789062 12.1875 14.011719 12.1875 14.285156 C 12.1875 14.5625 12.410156 14.789062 12.6875 14.789062 C 12.960938 14.789062 13.183594 14.5625 13.183594 14.285156 C 13.183594 14.015625 12.960938 13.789062 12.6875 13.789062 Z M 12.742188 14.730469 L 12.742188 14.664062 L 12.613281 14.664062 L 12.613281 14.730469 C 12.402344 14.695312 12.238281 14.511719 12.238281 14.289062 C 12.238281 14.066406 12.402344 13.886719 12.613281 13.847656 L 12.613281 13.914062 L 12.742188 13.914062 L 12.742188 13.847656 C 12.960938 13.875 13.132812 14.0625 13.132812 14.289062 C 13.132812 14.515625 12.960938 14.703125 12.742188 14.730469 Z M 12.742188 14.730469 " fill-opacity="1" fill-rule="nonzero"/><path fill="#1800ad" d="M 12.6875 14.058594 C 12.640625 14.058594 12.605469 14.09375 12.605469 14.136719 C 12.605469 14.179688 12.644531 14.214844 12.6875 14.214844 C 12.730469 14.214844 12.765625 14.179688 12.765625 14.136719 C 12.765625 14.09375 12.730469 14.058594 12.6875 14.058594 Z M 12.6875 14.058594 " fill-opacity="1" fill-rule="nonzero"/><path fill="#1800ad" d="M 12.871094 14.34375 C 12.824219 14.34375 12.789062 14.382812 12.789062 14.425781 C 12.789062 14.46875 12.824219 14.503906 12.871094 14.503906 C 12.914062 14.503906 12.949219 14.46875 12.949219 14.425781 C 12.949219 14.382812 12.914062 14.34375 12.871094 14.34375 Z M 12.871094 14.34375 " fill-opacity="1" fill-rule="nonzero"/><path fill="#1800ad" d="M 12.503906 14.34375 C 12.457031 14.34375 12.421875 14.382812 12.421875 14.425781 C 12.421875 14.46875 12.460938 14.503906 12.503906 14.503906 C 12.546875 14.503906 12.582031 14.46875 12.582031 14.425781 C 12.582031 14.382812 12.546875 14.34375 12.503906 14.34375 Z M 12.503906 14.34375 " fill-opacity="1" fill-rule="nonzero"/><path fill="#1800ad" d="M 13.574219 14.433594 C 13.527344 14.433594 13.488281 14.472656 13.488281 14.523438 C 13.488281 14.570312 13.527344 14.609375 13.574219 14.609375 C 13.621094 14.609375 13.664062 14.566406 13.664062 14.523438 C 13.664062 14.472656 13.621094 14.433594 13.574219 14.433594 Z M 13.574219 14.433594 " fill-opacity="1" fill-rule="nonzero"/><path fill="#1800ad" d="M 13.574219 13.96875 C 13.527344 13.96875 13.488281 14.007812 13.488281 14.058594 C 13.488281 14.105469 13.527344 14.144531 13.574219 14.144531 C 13.621094 14.144531 13.664062 14.105469 13.664062 14.058594 C 13.664062 14.007812 13.621094 13.96875 13.574219 13.96875 Z M 13.574219 13.96875 " fill-opacity="1" fill-rule="nonzero"/><path fill="#1800ad" d="M 12.6875 15.988281 C 12.410156 15.988281 12.1875 16.210938 12.1875 16.488281 C 12.1875 16.761719 12.410156 16.988281 12.6875 16.988281 C 12.960938 16.988281 13.183594 16.761719 13.183594 16.488281 C 13.183594 16.210938 12.960938 15.988281 12.6875 15.988281 Z M 12.742188 16.929688 L 12.742188 16.867188 L 12.613281 16.867188 L 12.613281 16.929688 C 12.402344 16.894531 12.238281 16.710938 12.238281 16.488281 C 12.238281 16.265625 12.402344 16.085938 12.613281 16.050781 L 12.613281 16.113281 L 12.742188 16.113281 L 12.742188 16.046875 C 12.960938 16.074219 13.132812 16.261719 13.132812 16.488281 C 13.132812 16.714844 12.960938 16.902344 12.742188 16.929688 Z M 12.742188 16.929688 " fill-opacity="1" fill-rule="nonzero"/><path fill="#1800ad" d="M 12.6875 16.257812 C 12.640625 16.257812 12.605469 16.292969 12.605469 16.335938 C 12.605469 16.378906 12.644531 16.417969 12.6875 16.417969 C 12.730469 16.417969 12.765625 16.378906 12.765625 16.335938 C 12.765625 16.292969 12.730469 16.257812 12.6875 16.257812 Z M 12.6875 16.257812 " fill-opacity="1" fill-rule="nonzero"/><path fill="#1800ad" d="M 12.871094 16.542969 C 12.824219 16.542969 12.789062 16.582031 12.789062 16.625 C 12.789062 16.667969 12.824219 16.703125 12.871094 16.703125 C 12.914062 16.703125 12.949219 16.667969 12.949219 16.625 C 12.949219 16.582031 12.914062 16.542969 12.871094 16.542969 Z M 12.871094 16.542969 " fill-opacity="1" fill-rule="nonzero"/><path fill="#1800ad" d="M 12.503906 16.542969 C 12.457031 16.542969 12.421875 16.582031 12.421875 16.625 C 12.421875 16.667969 12.460938 16.703125 12.503906 16.703125 C 12.546875 16.703125 12.582031 16.667969 12.582031 16.625 C 12.582031 16.582031 12.546875 16.542969 12.503906 16.542969 Z M 12.503906 16.542969 " fill-opacity="1" fill-rule="nonzero"/><path fill="#1800ad" d="M 13.574219 16.632812 C 13.527344 16.632812 13.488281 16.671875 13.488281 16.722656 C 13.488281 16.769531 13.527344 16.808594 13.574219 16.808594 C 13.621094 16.808594 13.664062 16.769531 13.664062 16.722656 C 13.664062 16.671875 13.621094 16.632812 13.574219 16.632812 Z M 13.574219 16.632812 " fill-opacity="1" fill-rule="nonzero"/><g clip-path="url(#6a4e019e92)"><path fill="#1800ad" d="M 23.234375 13.167969 L 23.234375 6.410156 L 18.324219 6.410156 L 18.324219 6.480469 L 17.785156 6.480469 C 17.753906 6.480469 17.730469 6.503906 17.730469 6.535156 L 17.730469 6.632812 L 11.222656 6.632812 L 11.222656 6.464844 C 11.222656 6.4375 11.195312 6.410156 11.167969 6.410156 L 10.132812 6.410156 C 10.105469 6.410156 10.078125 6.4375 10.078125 6.464844 L 10.078125 6.632812 L 9.257812 6.632812 L 9.257812 6.464844 C 9.257812 6.4375 9.230469 6.410156 9.203125 6.410156 L 8.171875 6.410156 C 8.140625 6.410156 8.113281 6.4375 8.113281 6.464844 L 8.113281 6.632812 L 6.761719 6.632812 L 6.761719 6.816406 L 8.113281 6.816406 L 8.113281 7.203125 L 6.761719 7.203125 L 6.761719 7.386719 L 8.113281 7.386719 L 8.113281 7.773438 L 6.761719 7.773438 L 6.761719 7.960938 L 8.113281 7.960938 L 8.113281 8.257812 C 8.113281 8.285156 8.140625 8.3125 8.171875 8.3125 L 9.203125 8.3125 C 9.230469 8.3125 9.257812 8.285156 9.257812 8.257812 L 9.257812 7.960938 L 10.078125 7.960938 L 10.078125 8.257812 C 10.078125 8.285156 10.105469 8.3125 10.132812 8.3125 L 11.167969 8.3125 C 11.195312 8.3125 11.222656 8.285156 11.222656 8.257812 L 11.222656 8.089844 L 11.945312 8.089844 C 12.105469 8.089844 12.238281 8.21875 12.238281 8.378906 L 12.238281 11.226562 L 12.058594 11.226562 C 11.953125 11.226562 11.871094 11.3125 11.871094 11.417969 L 11.871094 12.769531 C 11.871094 12.875 11.953125 12.960938 12.058594 12.960938 L 12.238281 12.960938 L 12.238281 13.429688 L 12.058594 13.429688 C 11.953125 13.429688 11.871094 13.511719 11.871094 13.621094 L 11.871094 14.972656 C 11.871094 15.074219 11.953125 15.160156 12.058594 15.160156 L 12.238281 15.160156 L 12.238281 15.628906 L 12.058594 15.628906 C 11.953125 15.628906 11.871094 15.714844 11.871094 15.820312 L 11.871094 17.171875 C 11.871094 17.277344 11.953125 17.363281 12.058594 17.363281 L 14.035156 17.363281 C 14.140625 17.363281 14.226562 17.277344 14.226562 17.171875 L 14.226562 16.808594 L 14.253906 16.808594 C 14.4375 16.808594 14.574219 16.769531 14.605469 16.757812 C 14.628906 16.757812 14.722656 16.753906 14.859375 16.742188 C 14.855469 16.753906 14.851562 16.769531 14.847656 16.78125 C 14.769531 17.449219 15.808594 19.070312 15.855469 19.136719 C 15.863281 19.148438 15.875 19.15625 15.890625 19.160156 C 15.851562 19.273438 15.726562 19.296875 15.726562 19.296875 C 15.210938 19.417969 15.113281 19.753906 15.484375 19.835938 C 15.679688 19.878906 16 19.832031 16.292969 19.730469 C 16.417969 19.765625 16.582031 19.777344 16.769531 19.777344 C 17.824219 19.777344 19.605469 19.324219 19.703125 19.300781 C 19.71875 19.296875 19.730469 19.289062 19.738281 19.273438 C 19.746094 19.261719 19.746094 19.246094 19.746094 19.230469 L 19.738281 19.210938 C 19.902344 19.265625 19.863281 19.398438 19.863281 19.398438 C 19.445312 19.816406 20.074219 19.992188 20.351562 19.726562 C 20.550781 19.535156 20.425781 18.78125 20.226562 18.425781 C 20 18.03125 19.730469 18.109375 19.625 18.257812 C 19.578125 18.324219 19.539062 18.375 19.507812 18.40625 L 19.492188 18.363281 C 19.484375 18.335938 19.457031 18.320312 19.429688 18.324219 L 17.996094 18.582031 C 18.4375 18.328125 19.109375 17.800781 19.132812 16.914062 C 19.132812 16.910156 19.128906 16.910156 19.128906 16.90625 C 19.132812 16.898438 19.132812 16.894531 19.132812 16.890625 C 19.136719 16.652344 19.109375 16.269531 19.089844 15.988281 C 19.074219 15.753906 19.046875 15.5625 19.003906 15.390625 C 18.808594 14.566406 18.347656 13.914062 17.601562 13.40625 C 17.609375 13.382812 17.601562 13.351562 17.578125 13.339844 L 17.390625 13.21875 C 17.375 13.210938 17.351562 13.210938 17.335938 13.21875 L 17.265625 13.113281 C 17.21875 12.949219 17.132812 12.671875 17.011719 12.414062 L 17.0625 12.386719 C 17.109375 12.355469 17.125 12.289062 17.09375 12.238281 C 17.0625 12.191406 17 12.175781 16.949219 12.207031 L 16.929688 12.21875 L 16.925781 12.210938 C 16.804688 12.015625 16.617188 11.890625 16.410156 11.839844 C 16.203125 11.792969 15.976562 11.824219 15.78125 11.941406 C 15.386719 12.1875 15.269531 12.699219 15.511719 13.089844 L 15.226562 13.269531 C 15.175781 13.300781 15.160156 13.367188 15.1875 13.417969 C 15.210938 13.449219 15.246094 13.46875 15.28125 13.46875 C 15.300781 13.46875 15.320312 13.464844 15.335938 13.453125 L 15.667969 13.246094 C 15.839844 13.550781 16.085938 13.898438 16.34375 13.957031 C 16.4375 13.980469 16.527344 13.960938 16.613281 13.902344 C 16.640625 13.882812 16.664062 13.863281 16.6875 13.84375 L 16.707031 13.875 C 16.675781 13.917969 16.644531 13.964844 16.613281 14.011719 C 16.601562 14.027344 16.597656 14.050781 16.609375 14.070312 C 16.613281 14.074219 16.613281 14.074219 16.617188 14.078125 C 16.417969 14.386719 16.210938 14.804688 16.035156 15.351562 L 15.367188 15.386719 C 15.351562 15.386719 15.335938 15.398438 15.328125 15.414062 C 15.289062 15.390625 15.222656 15.355469 15.136719 15.324219 L 15.128906 15.230469 L 15.128906 15.101562 L 15.097656 14.625 L 15.019531 14.578125 L 14.964844 14.945312 C 14.960938 14.945312 14.953125 14.941406 14.945312 14.941406 C 14.9375 14.941406 14.929688 14.945312 14.917969 14.945312 L 14.863281 14.578125 L 14.789062 14.625 L 14.753906 15.097656 L 14.753906 15.230469 L 14.75 15.265625 C 14.726562 15.273438 14.703125 15.277344 14.683594 15.285156 C 14.59375 15.335938 14.542969 15.429688 14.539062 15.5625 C 14.535156 15.640625 14.558594 15.699219 14.613281 15.746094 C 14.640625 15.769531 14.675781 15.785156 14.707031 15.796875 C 14.710938 15.84375 14.746094 15.878906 14.792969 15.878906 C 14.824219 15.878906 14.851562 15.859375 14.867188 15.832031 C 14.894531 15.835938 14.925781 15.835938 14.957031 15.835938 C 14.976562 15.835938 14.996094 15.835938 15.019531 15.835938 C 15.03125 15.863281 15.058594 15.878906 15.089844 15.878906 C 15.128906 15.878906 15.160156 15.851562 15.171875 15.820312 C 15.199219 15.816406 15.21875 15.8125 15.242188 15.808594 C 15.242188 15.808594 15.242188 15.8125 15.242188 15.8125 C 15.253906 15.828125 15.269531 15.835938 15.285156 15.835938 L 15.703125 15.835938 C 15.378906 16.03125 14.890625 16.222656 14.527344 16.21875 C 14.488281 16.191406 14.363281 16.109375 14.226562 16.039062 L 14.226562 15.8125 C 14.226562 15.707031 14.140625 15.621094 14.035156 15.621094 L 13.859375 15.621094 L 13.859375 15.152344 L 14.035156 15.152344 C 14.140625 15.152344 14.226562 15.066406 14.226562 14.960938 L 14.226562 13.609375 C 14.226562 13.507812 14.140625 13.421875 14.035156 13.421875 L 13.859375 13.421875 L 13.859375 12.957031 L 14.035156 12.957031 C 14.140625 12.957031 14.226562 12.871094 14.226562 12.765625 L 14.226562 11.414062 C 14.226562 11.308594 14.140625 11.222656 14.035156 11.222656 L 13.859375 11.222656 L 13.859375 8.082031 L 17.730469 8.082031 L 17.730469 8.160156 C 17.730469 8.191406 17.757812 8.214844 17.785156 8.214844 L 18.324219 8.214844 L 18.324219 13.164062 L 23.234375 13.164062 Z M 18.660156 6.75 L 22.851562 6.75 L 22.851562 12.828125 L 18.660156 12.828125 Z M 9.144531 8.199219 L 8.226562 8.199219 L 8.226562 6.519531 L 9.144531 6.519531 Z M 10.078125 7.773438 L 9.257812 7.773438 L 9.257812 7.386719 L 10.078125 7.386719 Z M 10.078125 7.199219 L 9.257812 7.199219 L 9.257812 6.816406 L 10.078125 6.816406 Z M 11.109375 8.199219 L 10.191406 8.199219 L 10.191406 6.519531 L 11.109375 6.519531 Z M 14.71875 15.679688 C 14.707031 15.675781 14.695312 15.667969 14.6875 15.664062 C 14.660156 15.640625 14.652344 15.609375 14.652344 15.570312 C 14.65625 15.476562 14.683594 15.414062 14.734375 15.386719 C 14.738281 15.386719 14.742188 15.386719 14.742188 15.386719 Z M 14.917969 15.230469 L 14.933594 15.132812 C 14.9375 15.132812 14.941406 15.132812 14.945312 15.132812 C 14.949219 15.132812 14.953125 15.132812 14.953125 15.132812 L 14.964844 15.230469 L 14.96875 15.269531 C 14.949219 15.261719 14.933594 15.261719 14.917969 15.257812 Z M 14.882812 15.722656 L 14.910156 15.371094 C 14.933594 15.371094 14.953125 15.375 14.976562 15.382812 L 15.003906 15.722656 C 14.960938 15.722656 14.921875 15.722656 14.882812 15.722656 Z M 15.25 15.695312 C 15.226562 15.699219 15.203125 15.703125 15.167969 15.710938 L 15.148438 15.445312 C 15.210938 15.46875 15.261719 15.5 15.296875 15.515625 Z M 15.894531 18.988281 C 15.6875 18.652344 14.894531 17.335938 14.960938 16.789062 C 14.960938 16.765625 14.972656 16.742188 14.980469 16.722656 C 15.304688 16.695312 15.761719 16.648438 16.101562 16.566406 C 16.460938 16.605469 16.835938 16.671875 17.082031 16.71875 C 17.171875 16.734375 17.242188 16.746094 17.296875 16.753906 C 17.203125 16.882812 16.96875 17.21875 16.722656 17.621094 C 16.410156 17.484375 16.195312 17.335938 16.191406 17.335938 C 16.175781 17.324219 16.15625 17.320312 16.132812 17.332031 C 16.117188 17.34375 16.105469 17.363281 16.105469 17.382812 C 16.121094 17.746094 16.222656 18.066406 16.320312 18.328125 C 16.238281 18.488281 16.171875 18.640625 16.113281 18.789062 C 16 18.832031 15.90625 18.894531 15.894531 18.988281 Z M 17.285156 15.167969 C 17.324219 15.390625 17.429688 16.121094 17.351562 16.652344 C 17.296875 16.644531 17.207031 16.628906 17.105469 16.609375 C 16.914062 16.574219 16.648438 16.527344 16.367188 16.488281 C 16.410156 16.46875 16.449219 16.449219 16.480469 16.429688 C 16.554688 16.382812 16.6875 16.214844 16.746094 16.132812 C 16.738281 16.164062 16.730469 16.1875 16.730469 16.191406 Z M 16.664062 17.71875 C 16.570312 17.875 16.476562 18.035156 16.390625 18.199219 C 16.316406 17.992188 16.246094 17.757812 16.222656 17.488281 C 16.316406 17.546875 16.472656 17.632812 16.664062 17.71875 Z M 18.527344 17.53125 C 18.527344 17.53125 18.25 18.160156 17.804688 18.550781 C 17.675781 18.617188 17.589844 18.644531 17.585938 18.648438 C 17.558594 18.65625 17.539062 18.6875 17.546875 18.714844 C 17.554688 18.742188 17.582031 18.761719 17.613281 18.757812 L 17.835938 18.71875 L 19.507812 18.808594 L 19.621094 19.199219 C 18.730469 19.425781 16.527344 19.886719 16.160156 19.539062 C 16.074219 19.460938 16.074219 19.300781 16.125 19.097656 C 16.132812 19.089844 16.132812 19.082031 16.132812 19.074219 C 16.1875 18.871094 16.292969 18.625 16.425781 18.371094 C 16.429688 18.367188 16.429688 18.359375 16.433594 18.351562 C 16.539062 18.148438 16.660156 17.9375 16.78125 17.738281 C 16.785156 17.730469 16.792969 17.726562 16.796875 17.71875 L 16.796875 17.714844 C 17.042969 17.304688 17.292969 16.949219 17.429688 16.773438 C 17.429688 16.769531 17.429688 16.765625 17.433594 16.761719 C 17.433594 16.761719 17.433594 16.757812 17.4375 16.757812 C 17.445312 16.753906 17.449219 16.742188 17.453125 16.734375 C 17.488281 16.746094 17.542969 16.761719 17.609375 16.785156 C 17.613281 16.785156 17.617188 16.785156 17.621094 16.789062 C 17.625 16.789062 17.625 16.789062 17.625 16.789062 C 18.007812 16.917969 18.730469 17.21875 18.527344 17.53125 Z M 16.699219 13.699219 C 16.683594 13.699219 16.667969 13.707031 16.660156 13.714844 C 16.628906 13.746094 16.589844 13.777344 16.546875 13.808594 C 16.492188 13.847656 16.433594 13.859375 16.367188 13.847656 C 16.191406 13.804688 15.980469 13.570312 15.765625 13.183594 L 16.550781 12.695312 L 16.621094 12.871094 L 16.703125 12.832031 C 16.703125 12.832031 16.628906 12.667969 16.6875 12.609375 L 16.699219 12.605469 C 16.769531 12.570312 16.917969 12.746094 16.90625 12.828125 C 16.894531 12.914062 16.902344 12.929688 16.914062 12.957031 C 16.921875 12.984375 17.058594 13.085938 17.164062 13.160156 L 17.246094 13.28125 C 17.148438 13.359375 16.980469 13.515625 16.78125 13.777344 L 16.742188 13.726562 C 16.734375 13.710938 16.71875 13.703125 16.699219 13.699219 Z M 16.742188 14.089844 C 17.203125 14.039062 17.453125 13.679688 17.550781 13.5 C 18.273438 13.996094 18.707031 14.605469 18.894531 15.410156 C 18.933594 15.578125 18.960938 15.761719 18.976562 15.992188 C 18.984375 16.074219 18.992188 16.1875 19 16.304688 C 18.960938 16.515625 18.871094 16.710938 18.671875 16.726562 C 18.292969 16.753906 17.644531 16.726562 17.453125 16.71875 C 17.460938 16.675781 17.464844 16.632812 17.46875 16.589844 L 17.59375 16.375 L 18.085938 16.230469 L 17.652344 16.132812 C 17.65625 15.789062 17.316406 14.679688 17.316406 14.679688 C 17.089844 14.988281 16.867188 15.703125 16.773438 16.03125 C 16.769531 16.023438 16.761719 16.015625 16.753906 16.011719 L 16.050781 15.671875 C 16.253906 14.960938 16.511719 14.449219 16.742188 14.089844 Z M 15.355469 15.722656 L 15.414062 15.492188 L 16.003906 15.460938 C 15.980469 15.527344 15.960938 15.597656 15.941406 15.667969 C 15.921875 15.683594 15.898438 15.707031 15.871094 15.722656 Z M 15.996094 15.765625 L 16.644531 16.082031 C 16.570312 16.179688 16.46875 16.304688 16.414062 16.339844 C 16.183594 16.492188 15.402344 16.574219 14.941406 16.613281 C 14.804688 16.625 14.699219 16.632812 14.640625 16.636719 L 14.582031 16.328125 C 15.058594 16.3125 15.71875 15.996094 15.996094 15.765625 Z M 14.226562 16.164062 C 14.316406 16.214844 14.40625 16.269531 14.460938 16.304688 L 14.53125 16.65625 C 14.46875 16.671875 14.363281 16.6875 14.226562 16.683594 Z M 13.144531 7.867188 C 13.121094 7.714844 13.050781 7.578125 12.945312 7.46875 L 13.640625 7.46875 L 13.640625 7.867188 Z M 13.640625 8.085938 L 13.640625 11.222656 L 13.15625 11.222656 L 13.15625 8.085938 Z M 11.222656 6.855469 L 13.128906 6.855469 C 13.371094 6.855469 13.574219 7.023438 13.625 7.25 L 11.222656 7.25 Z M 12.363281 8.085938 L 12.941406 8.085938 L 12.941406 11.222656 L 12.457031 11.222656 L 12.457031 8.375 C 12.457031 8.269531 12.421875 8.167969 12.363281 8.085938 Z M 11.222656 7.867188 L 11.222656 7.46875 L 12.425781 7.46875 C 12.671875 7.46875 12.871094 7.640625 12.925781 7.867188 Z M 12.941406 15.625 L 12.457031 15.625 L 12.457031 15.15625 L 12.941406 15.15625 Z M 14.019531 16.664062 C 13.953125 16.648438 13.882812 16.628906 13.808594 16.597656 C 13.800781 16.59375 13.796875 16.589844 13.792969 16.589844 C 13.800781 16.574219 13.828125 16.546875 13.855469 16.527344 C 13.867188 16.515625 13.875 16.5 13.878906 16.484375 C 13.878906 16.464844 13.871094 16.449219 13.855469 16.4375 C 13.839844 16.421875 13.820312 16.402344 13.816406 16.394531 C 13.816406 16.394531 13.824219 16.386719 13.847656 16.378906 C 13.863281 16.371094 13.875 16.355469 13.878906 16.335938 C 13.882812 16.316406 13.875 16.296875 13.859375 16.285156 C 13.855469 16.28125 13.84375 16.265625 13.84375 16.265625 C 13.84375 16.265625 13.847656 16.261719 13.878906 16.25 C 13.898438 16.246094 13.914062 16.230469 13.917969 16.210938 C 13.921875 16.191406 13.917969 16.175781 13.90625 16.160156 C 13.875 16.121094 13.84375 16.0625 13.847656 16.046875 C 13.847656 16.046875 13.855469 16.039062 13.886719 16.039062 C 13.925781 16.039062 13.96875 16.050781 14.019531 16.070312 Z M 14.019531 15.828125 L 14.019531 15.953125 C 13.972656 15.9375 13.929688 15.925781 13.886719 15.925781 C 13.796875 15.925781 13.761719 15.964844 13.746094 15.996094 C 13.726562 16.042969 13.742188 16.097656 13.761719 16.140625 L 13.605469 16.148438 L 13.539062 16.136719 L 13.414062 16.164062 L 13.421875 16.257812 L 13.488281 16.265625 C 13.492188 16.308594 13.527344 16.34375 13.574219 16.34375 C 13.621094 16.34375 13.664062 16.304688 13.664062 16.257812 C 13.664062 16.257812 13.660156 16.253906 13.660156 16.253906 L 13.734375 16.246094 C 13.730469 16.273438 13.734375 16.292969 13.742188 16.3125 C 13.71875 16.332031 13.707031 16.359375 13.707031 16.378906 C 13.703125 16.417969 13.71875 16.449219 13.738281 16.476562 C 13.707031 16.507812 13.675781 16.554688 13.679688 16.601562 C 13.683594 16.632812 13.699219 16.671875 13.761719 16.699219 C 13.847656 16.738281 13.933594 16.761719 14.015625 16.777344 L 14.015625 17.148438 L 12.074219 17.148438 L 12.074219 15.828125 Z M 13.15625 15.625 L 13.15625 15.15625 L 13.640625 15.15625 L 13.640625 15.625 Z M 14.019531 13.628906 L 14.019531 14.949219 L 12.074219 14.949219 L 12.074219 13.628906 Z M 12.457031 13.421875 L 12.457031 12.957031 L 12.941406 12.957031 L 12.941406 13.421875 Z M 13.15625 13.421875 L 13.15625 12.957031 L 13.640625 12.957031 L 13.640625 13.421875 Z M 14.019531 11.429688 L 14.019531 12.75 L 12.074219 12.75 L 12.074219 11.429688 Z M 17.730469 7.867188 L 13.859375 7.867188 L 13.859375 7.46875 L 17.730469 7.46875 Z M 17.730469 7.25 L 13.847656 7.25 C 13.820312 7.097656 13.753906 6.957031 13.648438 6.855469 L 17.730469 6.855469 Z M 18.269531 8.105469 L 17.839844 8.105469 L 17.839844 6.59375 L 18.269531 6.59375 Z M 18.269531 8.105469 " fill-opacity="1" fill-rule="nonzero"/></g></svg>