<svg xmlns="http://www.w3.org/2000/svg" xmlns:xlink="http://www.w3.org/1999/xlink" width="40" zoomAndPan="magnify" viewBox="0 0 30 37.92" height="40" preserveAspectRatio="xMidYMid meet" version="1.0"><defs><clipPath id="53fbb6cdf5"><path d="M 3.113281 0.683594 L 26.886719 0.683594 L 26.886719 29.300781 L 3.113281 29.300781 Z M 3.113281 0.683594 " clip-rule="nonzero"/></clipPath><clipPath id="c3ac3cde39"><path d="M 19.457031 1.550781 C 18.035156 0.976562 16.539062 0.683594 15 0.683594 C 13.460938 0.683594 11.964844 0.976562 10.542969 1.550781 C 9.078125 2.144531 7.757812 3.019531 6.632812 4.148438 C 4.429688 6.355469 3.199219 9.285156 3.167969 12.402344 C 3.136719 15.511719 4.304688 18.464844 6.460938 20.707031 L 6.453125 20.710938 L 15 29.257812 L 23.5 20.757812 L 23.492188 20.753906 C 25.667969 18.511719 26.855469 15.558594 26.832031 12.433594 C 26.8125 9.300781 25.582031 6.363281 23.367188 4.148438 C 22.234375 3.019531 20.921875 2.144531 19.457031 1.550781 Z M 19.457031 1.550781 " clip-rule="nonzero"/></clipPath><clipPath id="f20342d971"><path d="M 0.144531 0.683594 L 23.855469 0.683594 L 23.855469 29.300781 L 0.144531 29.300781 Z M 0.144531 0.683594 " clip-rule="nonzero"/></clipPath><clipPath id="3b42e8cf30"><path d="M 16.457031 1.550781 C 15.035156 0.976562 13.539062 0.683594 12 0.683594 C 10.460938 0.683594 8.964844 0.976562 7.542969 1.550781 C 6.078125 2.144531 4.757812 3.019531 3.632812 4.148438 C 1.429688 6.355469 0.199219 9.285156 0.167969 12.402344 C 0.136719 15.511719 1.304688 18.464844 3.460938 20.707031 L 3.453125 20.710938 L 12 29.257812 L 20.5 20.757812 L 20.492188 20.753906 C 22.667969 18.511719 23.855469 15.558594 23.832031 12.433594 C 23.8125 9.300781 22.582031 6.363281 20.367188 4.148438 C 19.234375 3.019531 17.921875 2.144531 16.457031 1.550781 Z M 16.457031 1.550781 " clip-rule="nonzero"/></clipPath><clipPath id="36995fdac1"><rect x="0" width="24" y="0" height="30"/></clipPath><clipPath id="4226a0d809"><path d="M 4.261719 1.777344 L 25.738281 1.777344 L 25.738281 23.203125 L 4.261719 23.203125 Z M 4.261719 1.777344 " clip-rule="nonzero"/></clipPath><clipPath id="6816a327bc"><path d="M 14.996094 1.789062 C 9.089844 1.789062 4.300781 6.578125 4.300781 12.484375 C 4.300781 18.390625 9.089844 23.179688 14.996094 23.179688 C 20.902344 23.179688 25.691406 18.390625 25.691406 12.484375 C 25.691406 6.578125 20.902344 1.789062 14.996094 1.789062 Z M 14.996094 1.789062 " clip-rule="nonzero"/></clipPath><clipPath id="5a3d72287e"><path d="M 0.261719 0.777344 L 21.738281 0.777344 L 21.738281 22.203125 L 0.261719 22.203125 Z M 0.261719 0.777344 " clip-rule="nonzero"/></clipPath><clipPath id="d923353659"><path d="M 10.996094 0.789062 C 5.089844 0.789062 0.300781 5.578125 0.300781 11.484375 C 0.300781 17.390625 5.089844 22.179688 10.996094 22.179688 C 16.902344 22.179688 21.691406 17.390625 21.691406 11.484375 C 21.691406 5.578125 16.902344 0.789062 10.996094 0.789062 Z M 10.996094 0.789062 " clip-rule="nonzero"/></clipPath><clipPath id="34514e00c9"><rect x="0" width="22" y="0" height="23"/></clipPath><clipPath id="ce0298a330"><path d="M 19 4.375 L 21 4.375 L 21 13 L 19 13 Z M 19 4.375 " clip-rule="nonzero"/></clipPath><clipPath id="1917f6228d"><path d="M 21 4.375 L 21.640625 4.375 L 21.640625 13 L 21 13 Z M 21 4.375 " clip-rule="nonzero"/></clipPath><clipPath id="b014eefb62"><path d="M 8.171875 10 L 14 10 L 14 15 L 8.171875 15 Z M 8.171875 10 " clip-rule="nonzero"/></clipPath><clipPath id="6e5b8be250"><path d="M 19 12 L 21 12 L 21 19.34375 L 19 19.34375 Z M 19 12 " clip-rule="nonzero"/></clipPath><clipPath id="5281166dbb"><path d="M 21 12 L 21.640625 12 L 21.640625 19.34375 L 21 19.34375 Z M 21 12 " clip-rule="nonzero"/></clipPath><clipPath id="df12ba176c"><path d="M 8.171875 14 L 15 14 L 15 19 L 8.171875 19 Z M 8.171875 14 " clip-rule="nonzero"/></clipPath><clipPath id="3cb453a897"><path d="M 8.171875 17 L 12 17 L 12 19.34375 L 8.171875 19.34375 Z M 8.171875 17 " clip-rule="nonzero"/></clipPath><clipPath id="7feebb96df"><path d="M 15 18 L 17 18 L 17 19.34375 L 15 19.34375 Z M 15 18 " clip-rule="nonzero"/></clipPath><clipPath id="3ecd29f882"><path d="M 16 18 L 18 18 L 18 19.34375 L 16 19.34375 Z M 16 18 " clip-rule="nonzero"/></clipPath><clipPath id="cf806dba39"><path d="M 17 18 L 19 18 L 19 19.34375 L 17 19.34375 Z M 17 18 " clip-rule="nonzero"/></clipPath><clipPath id="de3c2bcb22"><path d="M 18 18 L 20 18 L 20 19.34375 L 18 19.34375 Z M 18 18 " clip-rule="nonzero"/></clipPath><clipPath id="73fc55d7cc"><path d="M 14 18 L 16 18 L 16 19.34375 L 14 19.34375 Z M 14 18 " clip-rule="nonzero"/></clipPath><clipPath id="54e1442faf"><path d="M 11 18 L 15 18 L 15 19.34375 L 11 19.34375 Z M 11 18 " clip-rule="nonzero"/></clipPath><clipPath id="e0f1f21f10"><path d="M 14 19 L 16 19 L 16 19.34375 L 14 19.34375 Z M 14 19 " clip-rule="nonzero"/></clipPath><clipPath id="c02ee9d600"><path d="M 15 19 L 17 19 L 17 19.34375 L 15 19.34375 Z M 15 19 " clip-rule="nonzero"/></clipPath><clipPath id="651b64174d"><path d="M 16 19 L 18 19 L 18 19.34375 L 16 19.34375 Z M 16 19 " clip-rule="nonzero"/></clipPath><clipPath id="5d14ca1d02"><path d="M 17 19 L 19 19 L 19 19.34375 L 17 19.34375 Z M 17 19 " clip-rule="nonzero"/></clipPath><clipPath id="05d89f3ad3"><path d="M 18 19 L 20 19 L 20 19.34375 L 18 19.34375 Z M 18 19 " clip-rule="nonzero"/></clipPath></defs><g clip-path="url(#53fbb6cdf5)"><g clip-path="url(#c3ac3cde39)"><g transform="matrix(1, 0, 0, 1, 3, 0.000000000000005773)"><g clip-path="url(#36995fdac1)"><g clip-path="url(#f20342d971)"><g clip-path="url(#3b42e8cf30)"><path fill="#faab11" d="M 0.167969 0.683594 L 23.832031 0.683594 L 23.832031 29.25 L 0.167969 29.25 Z M 0.167969 0.683594 " fill-opacity="1" fill-rule="nonzero"/></g></g></g></g></g></g><g clip-path="url(#4226a0d809)"><g clip-path="url(#6816a327bc)"><g transform="matrix(1, 0, 0, 1, 4, 1)"><g clip-path="url(#34514e00c9)"><g clip-path="url(#5a3d72287e)"><g clip-path="url(#d923353659)"><rect x="-10.6" width="43.2" fill="#ffffff" height="54.6048" y="-9.3424" fill-opacity="1"/></g></g></g></g></g></g><g clip-path="url(#ce0298a330)"><path fill="#1800ad" d="M 19.890625 4.378906 C 20.238281 4.375 20.585938 4.378906 20.933594 4.375 C 20.933594 7.097656 20.933594 9.820312 20.933594 12.542969 C 20.585938 12.539062 20.238281 12.542969 19.890625 12.535156 C 19.890625 9.816406 19.890625 7.097656 19.890625 4.378906 Z M 19.890625 4.378906 " fill-opacity="1" fill-rule="nonzero"/></g><g clip-path="url(#1917f6228d)"><path fill="#1800ad" d="M 21.210938 4.378906 C 21.410156 4.375 21.609375 4.378906 21.804688 4.375 C 21.804688 7.097656 21.804688 9.820312 21.804688 12.542969 C 21.605469 12.539062 21.410156 12.539062 21.214844 12.542969 C 21.207031 9.820312 21.207031 7.097656 21.210938 4.378906 Z M 21.210938 4.378906 " fill-opacity="1" fill-rule="nonzero"/></g><path fill="#faab11" d="M 14.761719 7.410156 C 15.089844 7.105469 15.476562 6.921875 15.921875 6.871094 C 16.484375 6.8125 16.972656 6.972656 17.386719 7.355469 C 17.664062 7.605469 17.84375 7.910156 17.929688 8.269531 C 18.015625 8.65625 17.984375 9.03125 17.839844 9.402344 C 17.785156 9.550781 17.714844 9.691406 17.644531 9.835938 C 17.804688 10.070312 17.976562 10.296875 18.144531 10.527344 C 18.132812 10.546875 18.125 10.566406 18.113281 10.589844 C 18.089844 10.59375 18.070312 10.59375 18.046875 10.589844 C 17.246094 9.972656 16.410156 9.398438 15.585938 8.808594 C 15.167969 8.5 14.738281 8.203125 14.316406 7.898438 C 14.453125 7.722656 14.601562 7.5625 14.761719 7.410156 M 15.410156 7.503906 C 15.464844 7.5625 15.515625 7.621094 15.574219 7.675781 C 15.765625 7.558594 15.96875 7.507812 16.191406 7.519531 C 16.480469 7.53125 16.71875 7.640625 16.914062 7.851562 C 17.113281 8.0625 17.210938 8.3125 17.214844 8.601562 C 17.292969 8.601562 17.375 8.609375 17.457031 8.609375 C 17.457031 8.4375 17.425781 8.269531 17.363281 8.105469 C 17.300781 7.945312 17.207031 7.800781 17.085938 7.675781 C 16.964844 7.550781 16.824219 7.453125 16.664062 7.382812 C 16.503906 7.316406 16.339844 7.277344 16.164062 7.277344 C 15.890625 7.273438 15.636719 7.347656 15.410156 7.503906 Z M 15.410156 7.503906 " fill-opacity="1" fill-rule="nonzero"/><path fill="#1800ad" d="M 14.253906 8.164062 C 14.636719 8.421875 15.003906 8.707031 15.394531 8.960938 C 15.230469 8.957031 15.09375 9.011719 14.976562 9.125 C 14.871094 9.242188 14.8125 9.382812 14.800781 9.539062 C 14.808594 9.675781 14.855469 9.804688 14.9375 9.914062 C 14.777344 9.949219 14.625 9.929688 14.476562 9.863281 C 14.285156 9.746094 14.152344 9.585938 14.074219 9.375 C 14.210938 8.984375 14.273438 8.578125 14.253906 8.164062 Z M 14.253906 8.164062 " fill-opacity="1" fill-rule="nonzero"/><path fill="#1800ad" d="M 15.296875 9.210938 C 15.398438 9.175781 15.496094 9.1875 15.589844 9.242188 C 15.679688 9.296875 15.734375 9.375 15.753906 9.484375 C 15.769531 9.589844 15.746094 9.683594 15.675781 9.765625 C 15.609375 9.847656 15.523438 9.894531 15.417969 9.898438 C 15.214844 9.902344 15.09375 9.804688 15.058594 9.605469 C 15.027344 9.40625 15.105469 9.273438 15.296875 9.210938 Z M 15.296875 9.210938 " fill-opacity="1" fill-rule="nonzero"/><path fill="#1800ad" d="M 15.996094 9.40625 C 16.171875 9.546875 16.367188 9.660156 16.546875 9.796875 C 16.664062 9.878906 16.777344 9.96875 16.898438 10.046875 C 16.863281 10.332031 16.808594 10.617188 16.75 10.902344 C 16.742188 10.988281 16.628906 10.96875 16.566406 10.957031 C 16.398438 10.875 16.246094 10.765625 16.109375 10.636719 C 16.003906 10.839844 15.875 11.03125 15.714844 11.203125 C 15.679688 11.242188 15.636719 11.265625 15.582031 11.277344 C 15.28125 11.335938 15.019531 11.257812 14.800781 11.039062 C 14.539062 10.792969 14.472656 10.5 14.601562 10.164062 C 14.769531 10.199219 14.9375 10.183594 15.101562 10.125 C 15.152344 10.105469 15.207031 10.105469 15.257812 10.125 C 15.359375 10.148438 15.460938 10.148438 15.5625 10.121094 C 15.664062 10.09375 15.75 10.042969 15.824219 9.96875 C 15.902344 9.894531 15.953125 9.808594 15.984375 9.710938 C 16.015625 9.609375 16.019531 9.507812 15.996094 9.40625 Z M 15.996094 9.40625 " fill-opacity="1" fill-rule="nonzero"/><path fill="#1800ad" d="M 13.886719 9.636719 C 14.007812 9.824219 14.160156 9.980469 14.351562 10.097656 C 14.226562 10.476562 14.289062 10.824219 14.53125 11.140625 C 14.359375 11.222656 14.183594 11.292969 14 11.347656 C 13.902344 10.835938 13.625 10.453125 13.167969 10.199219 C 13.449219 10.0625 13.6875 9.878906 13.886719 9.636719 Z M 13.886719 9.636719 " fill-opacity="1" fill-rule="nonzero"/><g clip-path="url(#b014eefb62)"><path fill="#1800ad" d="M 11.035156 10.753906 C 11.402344 10.398438 11.839844 10.238281 12.351562 10.269531 C 12.671875 10.277344 12.964844 10.371094 13.230469 10.554688 C 13.488281 10.734375 13.648438 10.980469 13.710938 11.289062 C 13.417969 11.066406 13.089844 10.972656 12.726562 11.003906 C 12.429688 11.03125 12.1875 11.164062 11.996094 11.394531 C 11.882812 11.539062 11.816406 11.703125 11.800781 11.886719 C 11.789062 12.070312 11.824219 12.242188 11.914062 12.402344 C 12.03125 12.566406 12.1875 12.699219 12.316406 12.851562 C 12.46875 13.019531 12.640625 13.171875 12.777344 13.351562 C 12.359375 13.6875 11.941406 14.023438 11.523438 14.363281 C 11.414062 14.445312 11.308594 14.542969 11.191406 14.617188 C 10.664062 14.632812 10.132812 14.617188 9.605469 14.625 C 9.195312 14.625 8.785156 14.628906 8.375 14.625 C 8.382812 14.28125 8.324219 13.925781 8.464844 13.601562 C 8.53125 13.460938 8.625 13.339844 8.746094 13.238281 C 9.511719 12.414062 10.273438 11.582031 11.035156 10.753906 Z M 11.035156 10.753906 " fill-opacity="1" fill-rule="nonzero"/></g><path fill="#1800ad" d="M 12.113281 11.699219 C 12.246094 11.421875 12.46875 11.273438 12.773438 11.253906 C 13.03125 11.226562 13.261719 11.285156 13.472656 11.433594 C 13.816406 11.746094 14.132812 12.089844 14.449219 12.429688 C 14.65625 12.648438 14.863281 12.867188 15.0625 13.09375 C 15.3125 13.355469 15.617188 13.484375 15.980469 13.476562 C 16.742188 13.480469 17.503906 13.476562 18.265625 13.480469 C 18.378906 13.652344 18.441406 13.839844 18.449219 14.046875 C 18.433594 14.265625 18.34375 14.453125 18.183594 14.605469 C 18.019531 14.753906 17.828125 14.832031 17.605469 14.828125 C 16.761719 14.832031 15.914062 14.832031 15.070312 14.835938 C 14.882812 14.84375 14.707031 14.800781 14.542969 14.707031 C 14.390625 14.601562 14.246094 14.488281 14.113281 14.363281 C 13.769531 13.976562 13.40625 13.613281 13.050781 13.238281 C 12.832031 12.992188 12.589844 12.773438 12.367188 12.53125 C 12.28125 12.449219 12.203125 12.355469 12.132812 12.253906 C 12.035156 12.070312 12.027344 11.886719 12.113281 11.699219 Z M 12.113281 11.699219 " fill-opacity="1" fill-rule="nonzero"/><g clip-path="url(#6e5b8be250)"><path fill="#1800ad" d="M 19.890625 12.800781 C 20.238281 12.796875 20.585938 12.800781 20.933594 12.804688 C 20.933594 15.101562 20.933594 17.402344 20.933594 19.699219 C 20.585938 19.703125 20.238281 19.707031 19.894531 19.703125 C 19.894531 19.460938 19.902344 19.21875 19.894531 18.976562 C 19.914062 18.507812 19.878906 18.035156 19.902344 17.5625 C 19.886719 17.039062 19.898438 16.515625 19.894531 15.992188 C 19.890625 14.929688 19.890625 13.867188 19.890625 12.800781 Z M 19.890625 12.800781 " fill-opacity="1" fill-rule="nonzero"/></g><g clip-path="url(#5281166dbb)"><path fill="#1800ad" d="M 21.210938 12.800781 C 21.410156 12.800781 21.605469 12.800781 21.804688 12.800781 C 21.808594 15.101562 21.804688 17.402344 21.804688 19.703125 C 21.605469 19.703125 21.410156 19.703125 21.210938 19.699219 C 21.210938 17.402344 21.210938 15.101562 21.210938 12.800781 Z M 21.210938 12.800781 " fill-opacity="1" fill-rule="nonzero"/></g><path fill="#faab11" d="M 18.539062 13.46875 C 18.644531 13.464844 18.75 13.46875 18.855469 13.484375 C 19.058594 13.617188 19.238281 13.777344 19.429688 13.921875 C 19.3125 14.03125 19.199219 14.144531 19.078125 14.253906 C 18.878906 14.007812 18.699219 13.746094 18.539062 13.46875 Z M 18.539062 13.46875 " fill-opacity="1" fill-rule="nonzero"/><path fill="#faab11" d="M 19.199219 14.542969 C 19.34375 14.402344 19.472656 14.25 19.625 14.117188 C 19.625 14.261719 19.625 14.402344 19.625 14.542969 C 19.484375 14.542969 19.339844 14.539062 19.199219 14.542969 Z M 19.199219 14.542969 " fill-opacity="1" fill-rule="nonzero"/><path fill="#faab11" d="M 18.960938 14.78125 C 19.183594 14.777344 19.40625 14.78125 19.625 14.78125 C 19.625 15 19.625 15.21875 19.625 15.4375 C 19.40625 15.433594 19.1875 15.4375 18.96875 15.4375 C 18.960938 15.21875 18.960938 15 18.960938 14.78125 Z M 18.960938 14.78125 " fill-opacity="1" fill-rule="nonzero"/><g clip-path="url(#df12ba176c)"><path fill="#1800ad" d="M 8.382812 14.894531 C 9.867188 14.886719 11.351562 14.878906 12.832031 14.878906 C 13.019531 14.875 13.207031 14.882812 13.390625 14.867188 C 13.847656 14.847656 14.25 14.992188 14.59375 15.296875 C 14.769531 15.453125 14.855469 15.648438 14.851562 15.882812 C 14.847656 16.125 14.796875 16.355469 14.695312 16.574219 C 14.433594 17.152344 14.175781 17.730469 13.914062 18.308594 C 13.703125 18.671875 13.386719 18.882812 12.96875 18.9375 C 12.5625 19.003906 12.1875 18.929688 11.832031 18.722656 C 12.222656 17.859375 12.589844 16.984375 12.980469 16.117188 C 12.875 16.117188 12.773438 16.117188 12.671875 16.117188 C 12.59375 16.300781 12.511719 16.480469 12.4375 16.664062 C 11.503906 16.664062 10.566406 16.660156 9.628906 16.660156 C 9.332031 16.664062 9.078125 16.566406 8.859375 16.367188 C 8.558594 16.09375 8.398438 15.757812 8.378906 15.351562 C 8.371094 15.199219 8.371094 15.046875 8.382812 14.894531 Z M 8.382812 14.894531 " fill-opacity="1" fill-rule="nonzero"/></g><path fill="#faab11" d="M 18.289062 15.4375 C 18.433594 15.300781 18.5625 15.148438 18.707031 15.003906 C 18.707031 15.148438 18.707031 15.292969 18.707031 15.4375 C 18.566406 15.441406 18.425781 15.4375 18.289062 15.4375 Z M 18.289062 15.4375 " fill-opacity="1" fill-rule="nonzero"/><path fill="#faab11" d="M 18.070312 15.683594 C 18.28125 15.679688 18.496094 15.683594 18.707031 15.683594 C 18.703125 15.902344 18.707031 16.121094 18.707031 16.34375 C 18.398438 16.347656 18.089844 16.339844 17.78125 16.34375 C 17.785156 16.222656 17.78125 16.105469 17.78125 15.984375 C 17.878906 15.886719 17.972656 15.785156 18.070312 15.683594 Z M 18.070312 15.683594 " fill-opacity="1" fill-rule="nonzero"/><path fill="#faab11" d="M 18.960938 15.683594 C 19.183594 15.675781 19.40625 15.679688 19.628906 15.679688 C 19.625 15.902344 19.628906 16.121094 19.625 16.339844 C 19.402344 16.335938 19.179688 16.351562 18.960938 16.332031 C 18.960938 16.117188 18.960938 15.898438 18.960938 15.683594 Z M 18.960938 15.683594 " fill-opacity="1" fill-rule="nonzero"/><path fill="#faab11" d="M 17.421875 16.332031 C 17.457031 16.300781 17.496094 16.265625 17.53125 16.238281 C 17.535156 16.273438 17.535156 16.308594 17.535156 16.347656 C 17.496094 16.34375 17.457031 16.335938 17.421875 16.332031 Z M 17.421875 16.332031 " fill-opacity="1" fill-rule="nonzero"/><path fill="#faab11" d="M 17.214844 16.59375 C 17.320312 16.589844 17.429688 16.585938 17.535156 16.582031 C 17.53125 16.800781 17.53125 17.019531 17.535156 17.238281 C 17.226562 17.234375 16.917969 17.242188 16.609375 17.230469 C 16.804688 17.007812 17.007812 16.800781 17.214844 16.59375 Z M 17.214844 16.59375 " fill-opacity="1" fill-rule="nonzero"/><path fill="#faab11" d="M 17.785156 16.589844 C 18.09375 16.585938 18.398438 16.585938 18.707031 16.585938 C 18.707031 16.800781 18.707031 17.019531 18.703125 17.234375 C 18.402344 17.242188 18.097656 17.234375 17.796875 17.238281 C 17.800781 17.078125 17.789062 16.921875 17.785156 16.765625 C 17.789062 16.707031 17.785156 16.648438 17.785156 16.589844 Z M 17.785156 16.589844 " fill-opacity="1" fill-rule="nonzero"/><path fill="#faab11" d="M 18.960938 16.585938 C 19.183594 16.582031 19.40625 16.585938 19.628906 16.585938 C 19.625 16.800781 19.628906 17.015625 19.625 17.234375 C 19.40625 17.234375 19.1875 17.238281 18.972656 17.234375 C 18.953125 17.019531 18.964844 16.804688 18.960938 16.585938 Z M 18.960938 16.585938 " fill-opacity="1" fill-rule="nonzero"/><path fill="#1800ad" d="M 10.113281 16.929688 C 10.644531 16.90625 11.179688 16.9375 11.710938 16.921875 C 11.917969 16.921875 12.121094 16.921875 12.328125 16.921875 C 12.152344 17.339844 11.972656 17.757812 11.785156 18.171875 C 11.769531 18.226562 11.707031 18.238281 11.660156 18.257812 C 11.316406 18.378906 10.980469 18.523438 10.632812 18.640625 C 10.425781 18.710938 10.214844 18.714844 10.003906 18.652344 C 9.617188 18.570312 9.34375 18.347656 9.191406 17.980469 C 9.125 17.808594 9.117188 17.628906 9.160156 17.449219 C 9.472656 17.265625 9.808594 17.121094 10.113281 16.929688 Z M 10.113281 16.929688 " fill-opacity="1" fill-rule="nonzero"/><path fill="#faab11" d="M 15.695312 18.136719 C 15.917969 17.914062 16.136719 17.683594 16.363281 17.460938 C 16.378906 17.6875 16.371094 17.914062 16.371094 18.140625 C 16.144531 18.136719 15.921875 18.140625 15.695312 18.136719 Z M 15.695312 18.136719 " fill-opacity="1" fill-rule="nonzero"/><path fill="#faab11" d="M 16.625 17.480469 C 16.929688 17.476562 17.230469 17.480469 17.53125 17.476562 C 17.535156 17.699219 17.53125 17.917969 17.535156 18.136719 C 17.234375 18.136719 16.933594 18.136719 16.632812 18.136719 C 16.625 17.917969 16.628906 17.699219 16.625 17.480469 Z M 16.625 17.480469 " fill-opacity="1" fill-rule="nonzero"/><path fill="#faab11" d="M 17.792969 17.480469 C 18.097656 17.476562 18.402344 17.476562 18.707031 17.476562 C 18.707031 17.699219 18.703125 17.917969 18.703125 18.136719 C 18.398438 18.140625 18.089844 18.140625 17.785156 18.136719 C 17.804688 17.917969 17.785156 17.699219 17.792969 17.480469 Z M 17.792969 17.480469 " fill-opacity="1" fill-rule="nonzero"/><path fill="#faab11" d="M 18.96875 17.480469 C 19.1875 17.480469 19.40625 17.480469 19.628906 17.480469 C 19.628906 17.699219 19.625 17.917969 19.625 18.140625 C 19.40625 18.136719 19.1875 18.140625 18.96875 18.136719 C 18.960938 17.917969 18.960938 17.699219 18.96875 17.480469 Z M 18.96875 17.480469 " fill-opacity="1" fill-rule="nonzero"/><g clip-path="url(#3cb453a897)"><path fill="#1800ad" d="M 8.875 17.605469 C 8.863281 17.949219 8.976562 18.242188 9.214844 18.488281 C 9.425781 18.703125 9.679688 18.84375 9.972656 18.914062 C 9.949219 19.027344 9.929688 19.140625 9.910156 19.253906 C 10.167969 19.226562 10.425781 19.246094 10.675781 19.3125 C 10.851562 19.390625 10.972656 19.519531 11.039062 19.699219 C 10.320312 19.703125 9.597656 19.707031 8.878906 19.703125 C 8.65625 19.132812 8.4375 18.558594 8.21875 17.988281 C 8.433594 17.855469 8.660156 17.746094 8.875 17.605469 Z M 8.875 17.605469 " fill-opacity="1" fill-rule="nonzero"/></g><g clip-path="url(#7feebb96df)"><path fill="#faab11" d="M 15.605469 18.382812 C 15.863281 18.382812 16.117188 18.382812 16.375 18.382812 C 16.375 18.601562 16.378906 18.816406 16.371094 19.035156 C 16.121094 19.03125 15.867188 19.035156 15.617188 19.035156 C 15.609375 18.816406 15.613281 18.601562 15.605469 18.382812 Z M 15.605469 18.382812 " fill-opacity="1" fill-rule="nonzero"/></g><g clip-path="url(#3ecd29f882)"><path fill="#faab11" d="M 16.628906 18.386719 C 16.929688 18.378906 17.230469 18.382812 17.535156 18.382812 C 17.535156 18.601562 17.535156 18.820312 17.535156 19.035156 C 17.234375 19.035156 16.933594 19.03125 16.632812 19.035156 C 16.628906 18.820312 16.628906 18.605469 16.628906 18.386719 Z M 16.628906 18.386719 " fill-opacity="1" fill-rule="nonzero"/></g><g clip-path="url(#cf806dba39)"><path fill="#faab11" d="M 17.789062 18.382812 C 18.09375 18.378906 18.398438 18.386719 18.707031 18.382812 C 18.707031 18.601562 18.703125 18.820312 18.707031 19.035156 C 18.398438 19.03125 18.089844 19.042969 17.785156 19.023438 C 17.800781 18.8125 17.78125 18.597656 17.789062 18.382812 Z M 17.789062 18.382812 " fill-opacity="1" fill-rule="nonzero"/></g><g clip-path="url(#de3c2bcb22)"><path fill="#faab11" d="M 18.960938 18.398438 C 19.183594 18.375 19.40625 18.390625 19.628906 18.386719 C 19.628906 18.601562 19.628906 18.820312 19.625 19.035156 C 19.40625 19.03125 19.191406 19.035156 18.972656 19.035156 C 18.964844 18.820312 18.976562 18.609375 18.960938 18.398438 Z M 18.960938 18.398438 " fill-opacity="1" fill-rule="nonzero"/></g><g clip-path="url(#73fc55d7cc)"><path fill="#faab11" d="M 14.824219 19.03125 C 14.988281 18.84375 15.171875 18.671875 15.347656 18.488281 C 15.34375 18.671875 15.347656 18.851562 15.34375 19.035156 C 15.171875 19.03125 14.996094 19.039062 14.824219 19.03125 Z M 14.824219 19.03125 " fill-opacity="1" fill-rule="nonzero"/></g><g clip-path="url(#54e1442faf)"><path fill="#1800ad" d="M 12.78125 19.214844 C 13.160156 19.210938 13.496094 19.089844 13.789062 18.847656 C 13.925781 19.007812 14.074219 19.160156 14.214844 19.320312 C 14.09375 19.433594 14.015625 19.582031 13.898438 19.695312 C 13.5 19.710938 13.097656 19.695312 12.699219 19.703125 C 12.257812 19.699219 11.816406 19.710938 11.375 19.699219 C 11.492188 19.453125 11.605469 19.203125 11.726562 18.957031 C 12.054688 19.140625 12.40625 19.226562 12.78125 19.214844 Z M 12.78125 19.214844 " fill-opacity="1" fill-rule="nonzero"/></g><g clip-path="url(#e0f1f21f10)"><path fill="#faab11" d="M 14.589844 19.277344 C 14.84375 19.285156 15.09375 19.28125 15.347656 19.28125 C 15.347656 19.421875 15.347656 19.5625 15.347656 19.703125 C 14.980469 19.703125 14.613281 19.703125 14.242188 19.703125 C 14.363281 19.566406 14.476562 19.417969 14.589844 19.277344 Z M 14.589844 19.277344 " fill-opacity="1" fill-rule="nonzero"/></g><g clip-path="url(#c02ee9d600)"><path fill="#faab11" d="M 15.609375 19.285156 C 15.863281 19.28125 16.117188 19.28125 16.375 19.28125 C 16.382812 19.421875 16.382812 19.5625 16.382812 19.703125 C 16.125 19.703125 15.871094 19.707031 15.613281 19.703125 C 15.609375 19.5625 15.613281 19.421875 15.609375 19.285156 Z M 15.609375 19.285156 " fill-opacity="1" fill-rule="nonzero"/></g><g clip-path="url(#651b64174d)"><path fill="#faab11" d="M 16.628906 19.285156 C 16.929688 19.277344 17.230469 19.28125 17.535156 19.28125 C 17.53125 19.421875 17.535156 19.5625 17.535156 19.703125 C 17.234375 19.707031 16.929688 19.707031 16.628906 19.703125 C 16.628906 19.5625 16.632812 19.425781 16.628906 19.285156 Z M 16.628906 19.285156 " fill-opacity="1" fill-rule="nonzero"/></g><g clip-path="url(#5d14ca1d02)"><path fill="#faab11" d="M 17.785156 19.285156 C 18.09375 19.277344 18.402344 19.285156 18.707031 19.28125 C 18.707031 19.421875 18.707031 19.5625 18.707031 19.703125 C 18.402344 19.707031 18.101562 19.703125 17.796875 19.703125 C 17.785156 19.5625 17.789062 19.425781 17.785156 19.285156 Z M 17.785156 19.285156 " fill-opacity="1" fill-rule="nonzero"/></g><g clip-path="url(#05d89f3ad3)"><path fill="#faab11" d="M 18.96875 19.285156 C 19.191406 19.285156 19.414062 19.285156 19.636719 19.285156 C 19.636719 19.421875 19.632812 19.5625 19.636719 19.699219 C 19.414062 19.703125 19.191406 19.703125 18.972656 19.703125 C 18.96875 19.5625 18.972656 19.425781 18.96875 19.285156 Z M 18.96875 19.285156 " fill-opacity="1" fill-rule="nonzero"/></g></svg>