<svg xmlns="http://www.w3.org/2000/svg" xmlns:xlink="http://www.w3.org/1999/xlink" width="40" zoomAndPan="magnify" viewBox="0 0 30 37.92" height="40" preserveAspectRatio="xMidYMid meet" version="1.0"><defs><clipPath id="c1a07c3ebc"><path d="M 3.113281 0.683594 L 26.886719 0.683594 L 26.886719 29.300781 L 3.113281 29.300781 Z M 3.113281 0.683594 " clip-rule="nonzero"/></clipPath><clipPath id="ca77cb4059"><path d="M 19.457031 1.550781 C 18.035156 0.976562 16.539062 0.683594 15 0.683594 C 13.460938 0.683594 11.964844 0.976562 10.542969 1.550781 C 9.078125 2.144531 7.757812 3.019531 6.632812 4.148438 C 4.429688 6.355469 3.199219 9.285156 3.167969 12.402344 C 3.136719 15.511719 4.304688 18.464844 6.460938 20.707031 L 6.453125 20.710938 L 15 29.257812 L 23.5 20.757812 L 23.492188 20.753906 C 25.667969 18.511719 26.855469 15.558594 26.832031 12.433594 C 26.8125 9.300781 25.582031 6.363281 23.367188 4.148438 C 22.234375 3.019531 20.921875 2.144531 19.457031 1.550781 Z M 19.457031 1.550781 " clip-rule="nonzero"/></clipPath><clipPath id="c14a77100b"><path d="M 0.144531 0.683594 L 23.855469 0.683594 L 23.855469 29.300781 L 0.144531 29.300781 Z M 0.144531 0.683594 " clip-rule="nonzero"/></clipPath><clipPath id="ded5ab6c37"><path d="M 16.457031 1.550781 C 15.035156 0.976562 13.539062 0.683594 12 0.683594 C 10.460938 0.683594 8.964844 0.976562 7.542969 1.550781 C 6.078125 2.144531 4.757812 3.019531 3.632812 4.148438 C 1.429688 6.355469 0.199219 9.285156 0.167969 12.402344 C 0.136719 15.511719 1.304688 18.464844 3.460938 20.707031 L 3.453125 20.710938 L 12 29.257812 L 20.5 20.757812 L 20.492188 20.753906 C 22.667969 18.511719 23.855469 15.558594 23.832031 12.433594 C 23.8125 9.300781 22.582031 6.363281 20.367188 4.148438 C 19.234375 3.019531 17.921875 2.144531 16.457031 1.550781 Z M 16.457031 1.550781 " clip-rule="nonzero"/></clipPath><clipPath id="d5ee27f0a9"><rect x="0" width="24" y="0" height="30"/></clipPath><clipPath id="4397bdda9d"><path d="M 4.261719 1.777344 L 25.738281 1.777344 L 25.738281 23.203125 L 4.261719 23.203125 Z M 4.261719 1.777344 " clip-rule="nonzero"/></clipPath><clipPath id="9a5f39a93b"><path d="M 14.996094 1.789062 C 9.089844 1.789062 4.300781 6.578125 4.300781 12.484375 C 4.300781 18.390625 9.089844 23.179688 14.996094 23.179688 C 20.902344 23.179688 25.691406 18.390625 25.691406 12.484375 C 25.691406 6.578125 20.902344 1.789062 14.996094 1.789062 Z M 14.996094 1.789062 " clip-rule="nonzero"/></clipPath><clipPath id="208a20a6e8"><path d="M 0.261719 0.777344 L 21.738281 0.777344 L 21.738281 22.203125 L 0.261719 22.203125 Z M 0.261719 0.777344 " clip-rule="nonzero"/></clipPath><clipPath id="d4142badbb"><path d="M 10.996094 0.789062 C 5.089844 0.789062 0.300781 5.578125 0.300781 11.484375 C 0.300781 17.390625 5.089844 22.179688 10.996094 22.179688 C 16.902344 22.179688 21.691406 17.390625 21.691406 11.484375 C 21.691406 5.578125 16.902344 0.789062 10.996094 0.789062 Z M 10.996094 0.789062 " clip-rule="nonzero"/></clipPath><clipPath id="c92a4e6587"><rect x="0" width="22" y="0" height="23"/></clipPath><clipPath id="2977c5f19c"><path d="M 13 5.042969 L 17 5.042969 L 17 7 L 13 7 Z M 13 5.042969 " clip-rule="nonzero"/></clipPath><clipPath id="bb2e2b56a4"><path d="M 10 5.042969 L 12 5.042969 L 12 7 L 10 7 Z M 10 5.042969 " clip-rule="nonzero"/></clipPath><clipPath id="362e50c7b1"><path d="M 19 5.042969 L 21 5.042969 L 21 7 L 19 7 Z M 19 5.042969 " clip-rule="nonzero"/></clipPath><clipPath id="d8ebd9dda7"><path d="M 8.472656 7 L 12 7 L 12 12 L 8.472656 12 Z M 8.472656 7 " clip-rule="nonzero"/></clipPath><clipPath id="1e413ed37c"><path d="M 8.472656 11 L 21.195312 11 L 21.195312 13 L 8.472656 13 Z M 8.472656 11 " clip-rule="nonzero"/></clipPath><clipPath id="08e77b3db1"><path d="M 8.472656 17 L 21 17 L 21 19 L 8.472656 19 Z M 8.472656 17 " clip-rule="nonzero"/></clipPath><clipPath id="87000c6a1a"><path d="M 8.472656 19 L 21.195312 19 L 21.195312 20.761719 L 8.472656 20.761719 Z M 8.472656 19 " clip-rule="nonzero"/></clipPath></defs><g clip-path="url(#c1a07c3ebc)"><g clip-path="url(#ca77cb4059)"><g transform="matrix(1, 0, 0, 1, 3, 0.000000000000005773)"><g clip-path="url(#d5ee27f0a9)"><g clip-path="url(#c14a77100b)"><g clip-path="url(#ded5ab6c37)"><path fill="#faab11" d="M 0.167969 0.683594 L 23.832031 0.683594 L 23.832031 29.25 L 0.167969 29.25 Z M 0.167969 0.683594 " fill-opacity="1" fill-rule="nonzero"/></g></g></g></g></g></g><g clip-path="url(#4397bdda9d)"><g clip-path="url(#9a5f39a93b)"><g transform="matrix(1, 0, 0, 1, 4, 1)"><g clip-path="url(#c92a4e6587)"><g clip-path="url(#208a20a6e8)"><g clip-path="url(#d4142badbb)"><rect x="-10.6" width="43.2" fill="#ffffff" height="54.6048" y="-9.3424" fill-opacity="1"/></g></g></g></g></g></g><g clip-path="url(#2977c5f19c)"><path fill="#4b4b4c" d="M 13.820312 5.796875 C 14.054688 5.394531 14.40625 5.167969 14.871094 5.117188 C 14.878906 5.308594 14.871094 5.5 14.875 5.691406 C 14.957031 5.691406 15.039062 5.691406 15.121094 5.691406 C 15.125 5.5 15.121094 5.308594 15.125 5.117188 C 15.886719 5.179688 16.445312 5.941406 16.394531 6.679688 C 15.457031 6.675781 14.519531 6.6875 13.582031 6.675781 C 13.582031 6.363281 13.660156 6.070312 13.820312 5.796875 Z M 13.820312 5.796875 " fill-opacity="1" fill-rule="nonzero"/></g><g clip-path="url(#bb2e2b56a4)"><path fill="#1800ad" d="M 10.546875 5.726562 C 10.710938 5.722656 10.875 5.722656 11.039062 5.722656 C 11.039062 5.917969 11.039062 6.117188 11.035156 6.3125 C 10.875 6.3125 10.710938 6.3125 10.546875 6.308594 C 10.546875 6.113281 10.550781 5.917969 10.546875 5.726562 Z M 10.546875 5.726562 " fill-opacity="1" fill-rule="nonzero"/></g><g clip-path="url(#362e50c7b1)"><path fill="#1800ad" d="M 19.566406 5.722656 C 19.730469 5.726562 19.894531 5.726562 20.058594 5.722656 C 20.058594 5.921875 20.058594 6.117188 20.058594 6.3125 C 19.894531 6.3125 19.730469 6.3125 19.570312 6.3125 C 19.570312 6.117188 19.570312 5.917969 19.566406 5.722656 Z M 19.566406 5.722656 " fill-opacity="1" fill-rule="nonzero"/></g><path fill="#1800ad" d="M 9.945312 6.566406 C 10.578125 6.5625 11.207031 6.566406 11.835938 6.5625 C 11.839844 6.722656 11.835938 6.878906 11.839844 7.039062 C 11.207031 7.042969 10.578125 7.039062 9.949219 7.042969 C 9.949219 6.882812 9.949219 6.726562 9.945312 6.566406 Z M 9.945312 6.566406 " fill-opacity="1" fill-rule="nonzero"/><path fill="#1800ad" d="M 18.90625 6.566406 C 19.511719 6.5625 20.113281 6.5625 20.71875 6.5625 C 20.71875 6.722656 20.722656 6.882812 20.714844 7.042969 C 20.109375 7.042969 19.507812 7.042969 18.90625 7.039062 C 18.902344 6.882812 18.90625 6.722656 18.90625 6.566406 Z M 18.90625 6.566406 " fill-opacity="1" fill-rule="nonzero"/><path fill="#4b4b4c" d="M 13.585938 6.933594 C 13.894531 6.9375 14.207031 6.925781 14.515625 6.941406 C 14.359375 7.058594 14.28125 7.21875 14.285156 7.414062 C 14.296875 7.546875 14.351562 7.65625 14.453125 7.742188 C 14.554688 7.828125 14.671875 7.867188 14.804688 7.855469 C 14.9375 7.847656 15.046875 7.792969 15.132812 7.691406 C 15.21875 7.59375 15.261719 7.476562 15.253906 7.34375 C 15.242188 7.171875 15.167969 7.035156 15.03125 6.933594 C 15.324219 6.941406 15.621094 6.929688 15.914062 6.933594 C 16.101562 7.195312 16.144531 7.480469 16.046875 7.785156 C 15.960938 8.050781 15.804688 8.261719 15.582031 8.425781 C 15.359375 8.589844 15.109375 8.675781 14.832031 8.679688 C 14.640625 8.320312 14.34375 8.132812 13.933594 8.125 C 13.628906 7.78125 13.515625 7.386719 13.585938 6.933594 Z M 13.585938 6.933594 " fill-opacity="1" fill-rule="nonzero"/><path fill="#4b4b4c" d="M 14.714844 7.136719 C 14.761719 7.125 14.804688 7.128906 14.847656 7.140625 C 14.886719 7.15625 14.925781 7.179688 14.957031 7.210938 C 14.984375 7.242188 15.003906 7.28125 15.015625 7.324219 C 15.023438 7.371094 15.023438 7.414062 15.011719 7.457031 C 14.976562 7.542969 14.914062 7.597656 14.820312 7.613281 C 14.730469 7.632812 14.652344 7.605469 14.585938 7.539062 C 14.527344 7.46875 14.511719 7.386719 14.539062 7.300781 C 14.566406 7.210938 14.625 7.15625 14.714844 7.136719 Z M 14.714844 7.136719 " fill-opacity="1" fill-rule="nonzero"/><g clip-path="url(#d8ebd9dda7)"><path fill="#1800ad" d="M 10.546875 7.289062 C 10.710938 7.285156 10.875 7.289062 11.035156 7.289062 C 11.039062 8.652344 11.035156 10.019531 11.035156 11.382812 C 10.875 11.382812 10.710938 11.382812 10.550781 11.382812 C 10.550781 10.53125 10.550781 9.675781 10.550781 8.824219 C 9.984375 8.820312 9.421875 8.828125 8.855469 8.820312 C 8.855469 8.660156 8.855469 8.503906 8.855469 8.34375 C 9.421875 8.339844 9.984375 8.34375 10.550781 8.34375 C 10.550781 7.992188 10.550781 7.640625 10.546875 7.289062 Z M 10.546875 7.289062 " fill-opacity="1" fill-rule="nonzero"/></g><path fill="#1800ad" d="M 19.570312 7.289062 C 19.734375 7.289062 19.894531 7.289062 20.058594 7.285156 C 20.058594 8.652344 20.058594 10.015625 20.054688 11.382812 C 19.894531 11.382812 19.730469 11.382812 19.570312 11.382812 C 19.570312 10.019531 19.574219 8.652344 19.570312 7.289062 Z M 19.570312 7.289062 " fill-opacity="1" fill-rule="nonzero"/><path fill="#4b4b4c" d="M 12.554688 8.796875 C 12.964844 8.5 13.421875 8.355469 13.933594 8.375 C 14.265625 8.390625 14.496094 8.550781 14.621094 8.863281 C 14.277344 8.667969 13.921875 8.652344 13.558594 8.808594 C 13.199219 8.972656 12.902344 9.21875 12.667969 9.539062 C 12.234375 10.082031 11.996094 10.746094 11.738281 11.382812 C 11.585938 11.382812 11.429688 11.382812 11.277344 11.382812 C 11.261719 11.164062 11.277344 10.949219 11.320312 10.734375 C 11.472656 9.925781 11.882812 9.277344 12.554688 8.796875 Z M 12.554688 8.796875 " fill-opacity="1" fill-rule="nonzero"/><path fill="#4b4b4c" d="M 13.777344 9 C 14.027344 8.921875 14.265625 8.949219 14.492188 9.082031 C 15.148438 9.601562 15.796875 10.136719 16.441406 10.671875 C 16.464844 10.691406 16.492188 10.703125 16.523438 10.699219 C 17.457031 10.699219 18.386719 10.699219 19.320312 10.695312 C 19.316406 10.925781 19.320312 11.152344 19.316406 11.382812 C 18.046875 11.386719 16.777344 11.382812 15.503906 11.382812 C 15.457031 11.378906 15.410156 11.363281 15.371094 11.328125 C 15.054688 11.125 14.730469 10.925781 14.414062 10.71875 C 14.230469 10.941406 14.035156 11.15625 13.847656 11.378906 C 13.238281 11.382812 12.632812 11.386719 12.023438 11.382812 C 12.1875 10.867188 12.417969 10.378906 12.707031 9.917969 C 12.976562 9.53125 13.308594 9.140625 13.777344 9 Z M 13.777344 9 " fill-opacity="1" fill-rule="nonzero"/><path fill="#4b4b4c" d="M 15.597656 9.648438 C 16.835938 9.640625 18.078125 9.648438 19.320312 9.648438 C 19.320312 9.914062 19.320312 10.183594 19.316406 10.449219 C 18.441406 10.457031 17.570312 10.453125 16.695312 10.453125 C 16.636719 10.449219 16.570312 10.464844 16.523438 10.417969 C 16.214844 10.160156 15.902344 9.910156 15.597656 9.648438 Z M 15.597656 9.648438 " fill-opacity="1" fill-rule="nonzero"/><g clip-path="url(#1e413ed37c)"><path fill="#1800ad" d="M 8.464844 11.640625 C 12.8125 11.636719 17.160156 11.636719 21.507812 11.636719 C 21.503906 11.792969 21.503906 11.953125 21.507812 12.109375 C 17.160156 12.109375 12.8125 12.109375 8.464844 12.109375 C 8.464844 11.953125 8.464844 11.796875 8.464844 11.640625 Z M 8.464844 11.640625 " fill-opacity="1" fill-rule="nonzero"/></g><path fill="#1800ad" d="M 10.550781 12.359375 C 10.710938 12.359375 10.871094 12.351562 11.035156 12.351562 C 11.035156 14.035156 11.035156 15.722656 11.035156 17.40625 C 10.871094 17.402344 10.710938 17.40625 10.546875 17.398438 C 10.550781 15.71875 10.550781 14.039062 10.550781 12.359375 Z M 10.550781 12.359375 " fill-opacity="1" fill-rule="nonzero"/><path fill="#4b4b4c" d="M 11.277344 12.359375 C 11.976562 12.351562 12.671875 12.363281 13.367188 12.359375 C 13.390625 12.507812 13.300781 12.714844 13.457031 12.808594 C 14.1875 13.296875 14.917969 13.777344 15.640625 14.277344 C 15.640625 15.320312 15.644531 16.363281 15.640625 17.402344 C 15.132812 17.398438 14.625 17.402344 14.117188 17.402344 C 14.117188 16.664062 14.113281 15.925781 14.121094 15.1875 C 14.125 15.089844 14.082031 15.019531 13.992188 14.980469 C 13.214844 14.628906 12.425781 14.292969 11.648438 13.941406 C 11.488281 13.828125 11.367188 13.683594 11.285156 13.507812 C 11.273438 13.125 11.285156 12.742188 11.277344 12.359375 Z M 11.277344 12.359375 " fill-opacity="1" fill-rule="nonzero"/><path fill="#1800ad" d="M 13.734375 12.363281 C 13.964844 12.363281 14.191406 12.351562 14.421875 12.351562 C 14.46875 12.347656 14.5 12.386719 14.53125 12.410156 C 16.128906 13.753906 17.722656 15.101562 19.3125 16.453125 C 19.328125 16.667969 19.3125 16.886719 19.316406 17.101562 C 17.917969 15.914062 16.515625 14.734375 15.121094 13.539062 C 14.65625 13.152344 14.191406 12.765625 13.734375 12.363281 Z M 13.734375 12.363281 " fill-opacity="1" fill-rule="nonzero"/><path fill="#1800ad" d="M 19.570312 12.351562 C 19.734375 12.351562 19.894531 12.351562 20.054688 12.351562 C 20.058594 14.035156 20.058594 15.71875 20.054688 17.402344 C 19.894531 17.398438 19.730469 17.402344 19.570312 17.398438 C 19.574219 15.714844 19.570312 14.035156 19.570312 12.351562 Z M 19.570312 12.351562 " fill-opacity="1" fill-rule="nonzero"/><path fill="#4b4b4c" d="M 11.277344 14.007812 C 11.460938 14.132812 11.652344 14.234375 11.855469 14.3125 C 12.175781 14.457031 12.496094 14.605469 12.8125 14.757812 C 12.816406 15.640625 12.808594 16.519531 12.816406 17.402344 C 12.304688 17.40625 11.792969 17.402344 11.28125 17.40625 C 11.28125 16.273438 11.285156 15.140625 11.277344 14.007812 Z M 11.277344 14.007812 " fill-opacity="1" fill-rule="nonzero"/><g clip-path="url(#08e77b3db1)"><path fill="#1800ad" d="M 8.851562 17.644531 C 12.730469 17.644531 16.609375 17.644531 20.488281 17.644531 C 20.488281 17.804688 20.488281 17.960938 20.488281 18.121094 C 16.609375 18.121094 12.730469 18.128906 8.851562 18.121094 C 8.851562 17.960938 8.851562 17.800781 8.851562 17.644531 Z M 8.851562 17.644531 " fill-opacity="1" fill-rule="nonzero"/></g><path fill="#1800ad" d="M 19.574219 18.375 C 19.734375 18.375 19.894531 18.371094 20.054688 18.371094 C 20.058594 18.824219 20.054688 19.277344 20.058594 19.726562 C 19.894531 19.726562 19.734375 19.730469 19.570312 19.726562 C 19.574219 19.273438 19.566406 18.824219 19.574219 18.375 Z M 19.574219 18.375 " fill-opacity="1" fill-rule="nonzero"/><path fill="#1800ad" d="M 10.546875 18.378906 C 10.710938 18.371094 10.875 18.375 11.039062 18.375 C 11.03125 18.828125 11.039062 19.277344 11.039062 19.730469 C 10.875 19.730469 10.714844 19.730469 10.554688 19.730469 C 10.546875 19.28125 10.554688 18.828125 10.546875 18.378906 Z M 10.546875 18.378906 " fill-opacity="1" fill-rule="nonzero"/><path fill="#4b4b4c" d="M 11.28125 18.375 C 11.789062 18.371094 12.300781 18.382812 12.808594 18.371094 C 12.820312 18.824219 12.808594 19.273438 12.816406 19.726562 C 12.304688 19.726562 11.792969 19.726562 11.28125 19.726562 C 11.28125 19.277344 11.285156 18.828125 11.28125 18.375 Z M 11.28125 18.375 " fill-opacity="1" fill-rule="nonzero"/><g clip-path="url(#87000c6a1a)"><path fill="#1800ad" d="M 8.464844 19.964844 C 12.8125 19.964844 17.160156 19.964844 21.507812 19.964844 C 21.507812 20.125 21.507812 20.28125 21.507812 20.441406 C 17.160156 20.441406 12.8125 20.441406 8.464844 20.441406 C 8.464844 20.28125 8.464844 20.125 8.464844 19.964844 Z M 8.464844 19.964844 " fill-opacity="1" fill-rule="nonzero"/></g></svg>