<svg xmlns="http://www.w3.org/2000/svg" xmlns:xlink="http://www.w3.org/1999/xlink" width="40" zoomAndPan="magnify" viewBox="0 0 30 37.92" height="40" preserveAspectRatio="xMidYMid meet" version="1.0"><defs><clipPath id="32445664ab"><path d="M 3.113281 0.683594 L 26.886719 0.683594 L 26.886719 29.300781 L 3.113281 29.300781 Z M 3.113281 0.683594 " clip-rule="nonzero"/></clipPath><clipPath id="b76d519c44"><path d="M 19.457031 1.550781 C 18.035156 0.976562 16.539062 0.683594 15 0.683594 C 13.460938 0.683594 11.964844 0.976562 10.542969 1.550781 C 9.078125 2.144531 7.757812 3.019531 6.632812 4.148438 C 4.429688 6.355469 3.199219 9.285156 3.167969 12.402344 C 3.136719 15.511719 4.304688 18.464844 6.460938 20.707031 L 6.453125 20.710938 L 15 29.257812 L 23.5 20.757812 L 23.492188 20.753906 C 25.667969 18.511719 26.855469 15.558594 26.832031 12.433594 C 26.8125 9.300781 25.582031 6.363281 23.367188 4.148438 C 22.234375 3.019531 20.921875 2.144531 19.457031 1.550781 Z M 19.457031 1.550781 " clip-rule="nonzero"/></clipPath><clipPath id="7deccdd8f1"><path d="M 0.144531 0.683594 L 23.855469 0.683594 L 23.855469 29.300781 L 0.144531 29.300781 Z M 0.144531 0.683594 " clip-rule="nonzero"/></clipPath><clipPath id="cad48f4f5e"><path d="M 16.457031 1.550781 C 15.035156 0.976562 13.539062 0.683594 12 0.683594 C 10.460938 0.683594 8.964844 0.976562 7.542969 1.550781 C 6.078125 2.144531 4.757812 3.019531 3.632812 4.148438 C 1.429688 6.355469 0.199219 9.285156 0.167969 12.402344 C 0.136719 15.511719 1.304688 18.464844 3.460938 20.707031 L 3.453125 20.710938 L 12 29.257812 L 20.5 20.757812 L 20.492188 20.753906 C 22.667969 18.511719 23.855469 15.558594 23.832031 12.433594 C 23.8125 9.300781 22.582031 6.363281 20.367188 4.148438 C 19.234375 3.019531 17.921875 2.144531 16.457031 1.550781 Z M 16.457031 1.550781 " clip-rule="nonzero"/></clipPath><clipPath id="d9c9385eeb"><rect x="0" width="24" y="0" height="30"/></clipPath><clipPath id="beee4e48fb"><path d="M 4.261719 1.777344 L 25.738281 1.777344 L 25.738281 23.203125 L 4.261719 23.203125 Z M 4.261719 1.777344 " clip-rule="nonzero"/></clipPath><clipPath id="a43932c3aa"><path d="M 14.996094 1.789062 C 9.089844 1.789062 4.300781 6.578125 4.300781 12.484375 C 4.300781 18.390625 9.089844 23.179688 14.996094 23.179688 C 20.902344 23.179688 25.691406 18.390625 25.691406 12.484375 C 25.691406 6.578125 20.902344 1.789062 14.996094 1.789062 Z M 14.996094 1.789062 " clip-rule="nonzero"/></clipPath><clipPath id="ad1ba384f4"><path d="M 0.261719 0.777344 L 21.738281 0.777344 L 21.738281 22.203125 L 0.261719 22.203125 Z M 0.261719 0.777344 " clip-rule="nonzero"/></clipPath><clipPath id="bbf19a8df6"><path d="M 10.996094 0.789062 C 5.089844 0.789062 0.300781 5.578125 0.300781 11.484375 C 0.300781 17.390625 5.089844 22.179688 10.996094 22.179688 C 16.902344 22.179688 21.691406 17.390625 21.691406 11.484375 C 21.691406 5.578125 16.902344 0.789062 10.996094 0.789062 Z M 10.996094 0.789062 " clip-rule="nonzero"/></clipPath><clipPath id="361a5eda65"><rect x="0" width="22" y="0" height="23"/></clipPath><clipPath id="9a16088ea2"><path d="M 7.714844 11 L 21.9375 11 L 21.9375 18 L 7.714844 18 Z M 7.714844 11 " clip-rule="nonzero"/></clipPath><clipPath id="2ac026b5c9"><path d="M 8 12 L 21.9375 12 L 21.9375 19.195312 L 8 19.195312 Z M 8 12 " clip-rule="nonzero"/></clipPath><clipPath id="0b312c48e2"><path d="M 9 16 L 11 16 L 11 19.195312 L 9 19.195312 Z M 9 16 " clip-rule="nonzero"/></clipPath><clipPath id="1c81a11a8c"><path d="M 11 15 L 12 15 L 12 19.195312 L 11 19.195312 Z M 11 15 " clip-rule="nonzero"/></clipPath><clipPath id="8072824067"><path d="M 13 15 L 14 15 L 14 19.195312 L 13 19.195312 Z M 13 15 " clip-rule="nonzero"/></clipPath><clipPath id="d2d36e3f5c"><path d="M 14 15 L 16 15 L 16 19.195312 L 14 19.195312 Z M 14 15 " clip-rule="nonzero"/></clipPath><clipPath id="4e9aee2716"><path d="M 16 15 L 17 15 L 17 19.195312 L 16 19.195312 Z M 16 15 " clip-rule="nonzero"/></clipPath><clipPath id="87da26234e"><path d="M 18 15 L 19 15 L 19 19.195312 L 18 19.195312 Z M 18 15 " clip-rule="nonzero"/></clipPath><clipPath id="822a1dc24a"><path d="M 19 16 L 21 16 L 21 19.195312 L 19 19.195312 Z M 19 16 " clip-rule="nonzero"/></clipPath><clipPath id="0f570d4862"><path d="M 7.714844 11 L 15 11 L 15 17 L 7.714844 17 Z M 7.714844 11 " clip-rule="nonzero"/></clipPath><clipPath id="52c2c26c12"><path d="M 9 5.722656 L 14 5.722656 L 14 8 L 9 8 Z M 9 5.722656 " clip-rule="nonzero"/></clipPath></defs><g clip-path="url(#32445664ab)"><g clip-path="url(#b76d519c44)"><g transform="matrix(1, 0, 0, 1, 3, 0.000000000000005773)"><g clip-path="url(#d9c9385eeb)"><g clip-path="url(#7deccdd8f1)"><g clip-path="url(#cad48f4f5e)"><path fill="#faab11" d="M 0.167969 0.683594 L 23.832031 0.683594 L 23.832031 29.25 L 0.167969 29.25 Z M 0.167969 0.683594 " fill-opacity="1" fill-rule="nonzero"/></g></g></g></g></g></g><g clip-path="url(#beee4e48fb)"><g clip-path="url(#a43932c3aa)"><g transform="matrix(1, 0, 0, 1, 4, 1)"><g clip-path="url(#361a5eda65)"><g clip-path="url(#ad1ba384f4)"><g clip-path="url(#bbf19a8df6)"><rect x="-10.6" width="43.2" fill="#ffffff" height="54.6048" y="-9.3424" fill-opacity="1"/></g></g></g></g></g></g><g clip-path="url(#9a16088ea2)"><path fill="#1800ad" d="M 14.996094 12.941406 C 15.039062 12.941406 15.078125 12.953125 15.117188 12.976562 L 21.582031 17.167969 L 21.796875 16.21875 L 14.996094 11.8125 L 8.199219 16.21875 L 8.410156 17.167969 L 14.878906 12.976562 C 14.910156 12.949219 14.953125 12.941406 14.996094 12.941406 Z M 21.726562 17.742188 C 21.683594 17.742188 21.640625 17.730469 21.605469 17.707031 L 14.996094 13.421875 L 8.382812 17.707031 C 8.320312 17.746094 8.246094 17.753906 8.179688 17.726562 C 8.117188 17.699219 8.066406 17.640625 8.050781 17.570312 L 7.734375 16.164062 C 7.714844 16.074219 7.753906 15.980469 7.832031 15.929688 L 14.875 11.363281 C 14.949219 11.320312 15.042969 11.320312 15.117188 11.363281 L 22.160156 15.929688 C 22.238281 15.980469 22.277344 16.074219 22.257812 16.164062 L 21.941406 17.570312 C 21.925781 17.640625 21.875 17.695312 21.8125 17.726562 C 21.78125 17.734375 21.753906 17.742188 21.726562 17.742188 Z M 21.726562 17.742188 " fill-opacity="1" fill-rule="evenodd"/></g><g clip-path="url(#2ac026b5c9)"><path fill="#1800ad" d="M 8.84375 18.914062 L 21.144531 18.914062 L 21.144531 17.40625 L 14.996094 13.421875 L 8.84375 17.40625 Z M 21.363281 19.355469 L 8.625 19.355469 C 8.503906 19.355469 8.402344 19.257812 8.402344 19.136719 L 8.402344 17.289062 C 8.402344 17.214844 8.441406 17.144531 8.503906 17.105469 L 14.875 12.976562 C 14.945312 12.929688 15.039062 12.929688 15.113281 12.976562 L 21.480469 17.105469 C 21.542969 17.144531 21.582031 17.214844 21.582031 17.289062 L 21.582031 19.136719 C 21.582031 19.257812 21.484375 19.355469 21.363281 19.355469 Z M 21.363281 19.355469 " fill-opacity="1" fill-rule="evenodd"/></g><path fill="#1800ad" d="M 18.535156 15.675781 L 11.453125 15.675781 C 11.332031 15.675781 11.234375 15.578125 11.234375 15.457031 C 11.234375 15.335938 11.332031 15.238281 11.453125 15.238281 L 18.535156 15.238281 C 18.65625 15.238281 18.753906 15.335938 18.753906 15.457031 C 18.753906 15.578125 18.65625 15.675781 18.535156 15.675781 Z M 18.535156 15.675781 " fill-opacity="1" fill-rule="evenodd"/><path fill="#1800ad" d="M 14.996094 15.675781 C 14.875 15.675781 14.777344 15.578125 14.777344 15.457031 L 14.777344 13.164062 C 14.777344 13.042969 14.875 12.945312 14.996094 12.945312 C 15.117188 12.945312 15.214844 13.042969 15.214844 13.164062 L 15.214844 15.457031 C 15.214844 15.578125 15.117188 15.675781 14.996094 15.675781 Z M 14.996094 15.675781 " fill-opacity="1" fill-rule="evenodd"/><path fill="#1800ad" d="M 14.996094 15.675781 C 14.945312 15.675781 14.898438 15.660156 14.859375 15.625 L 13.28125 14.355469 C 13.1875 14.277344 13.171875 14.136719 13.25 14.042969 C 13.324219 13.949219 13.464844 13.933594 13.558594 14.011719 L 15.136719 15.28125 C 15.230469 15.359375 15.242188 15.5 15.167969 15.59375 C 15.121094 15.644531 15.058594 15.675781 14.996094 15.675781 Z M 14.996094 15.675781 " fill-opacity="1" fill-rule="evenodd"/><path fill="#1800ad" d="M 14.996094 15.675781 C 14.929688 15.675781 14.867188 15.644531 14.824219 15.59375 C 14.75 15.5 14.761719 15.363281 14.859375 15.28125 L 16.433594 14.011719 C 16.527344 13.933594 16.667969 13.949219 16.746094 14.042969 C 16.820312 14.136719 16.808594 14.277344 16.710938 14.355469 L 15.136719 15.625 C 15.089844 15.660156 15.039062 15.675781 14.996094 15.675781 Z M 14.996094 15.675781 " fill-opacity="1" fill-rule="evenodd"/><g clip-path="url(#0b312c48e2)"><path fill="#1800ad" d="M 10.070312 19.355469 C 9.949219 19.355469 9.851562 19.257812 9.851562 19.136719 L 9.851562 16.347656 C 9.851562 16.230469 9.949219 16.128906 10.070312 16.128906 C 10.191406 16.128906 10.289062 16.230469 10.289062 16.347656 L 10.289062 19.136719 C 10.292969 19.257812 10.191406 19.355469 10.070312 19.355469 Z M 10.070312 19.355469 " fill-opacity="1" fill-rule="evenodd"/></g><g clip-path="url(#1c81a11a8c)"><path fill="#1800ad" d="M 11.714844 19.355469 C 11.59375 19.355469 11.496094 19.257812 11.496094 19.136719 L 11.496094 15.457031 C 11.496094 15.335938 11.59375 15.238281 11.714844 15.238281 C 11.835938 15.238281 11.933594 15.335938 11.933594 15.457031 L 11.933594 19.136719 C 11.933594 19.257812 11.835938 19.355469 11.714844 19.355469 Z M 11.714844 19.355469 " fill-opacity="1" fill-rule="evenodd"/></g><g clip-path="url(#8072824067)"><path fill="#1800ad" d="M 13.351562 19.355469 C 13.230469 19.355469 13.132812 19.257812 13.132812 19.136719 L 13.132812 15.457031 C 13.132812 15.335938 13.230469 15.238281 13.351562 15.238281 C 13.472656 15.238281 13.570312 15.335938 13.570312 15.457031 L 13.570312 19.136719 C 13.570312 19.257812 13.472656 19.355469 13.351562 19.355469 Z M 13.351562 19.355469 " fill-opacity="1" fill-rule="evenodd"/></g><g clip-path="url(#d2d36e3f5c)"><path fill="#1800ad" d="M 14.996094 19.355469 C 14.875 19.355469 14.777344 19.257812 14.777344 19.136719 L 14.777344 15.457031 C 14.777344 15.335938 14.875 15.238281 14.996094 15.238281 C 15.117188 15.238281 15.214844 15.335938 15.214844 15.457031 L 15.214844 19.136719 C 15.214844 19.257812 15.117188 19.355469 14.996094 19.355469 Z M 14.996094 19.355469 " fill-opacity="1" fill-rule="evenodd"/></g><g clip-path="url(#4e9aee2716)"><path fill="#1800ad" d="M 16.632812 19.355469 C 16.511719 19.355469 16.414062 19.257812 16.414062 19.136719 L 16.414062 15.453125 C 16.414062 15.332031 16.511719 15.234375 16.632812 15.234375 C 16.753906 15.234375 16.851562 15.332031 16.851562 15.453125 L 16.851562 19.132812 C 16.851562 19.257812 16.753906 19.355469 16.632812 19.355469 Z M 16.632812 19.355469 " fill-opacity="1" fill-rule="evenodd"/></g><g clip-path="url(#87da26234e)"><path fill="#1800ad" d="M 18.273438 19.355469 C 18.152344 19.355469 18.054688 19.257812 18.054688 19.136719 L 18.054688 15.457031 C 18.054688 15.335938 18.152344 15.238281 18.273438 15.238281 C 18.394531 15.238281 18.492188 15.335938 18.492188 15.457031 L 18.492188 19.136719 C 18.496094 19.257812 18.398438 19.355469 18.273438 19.355469 Z M 18.273438 19.355469 " fill-opacity="1" fill-rule="evenodd"/></g><g clip-path="url(#822a1dc24a)"><path fill="#1800ad" d="M 19.914062 19.355469 C 19.792969 19.355469 19.695312 19.257812 19.695312 19.136719 L 19.695312 16.347656 C 19.695312 16.230469 19.792969 16.128906 19.914062 16.128906 C 20.035156 16.128906 20.132812 16.230469 20.132812 16.347656 L 20.132812 19.136719 C 20.132812 19.257812 20.035156 19.355469 19.914062 19.355469 Z M 19.914062 19.355469 " fill-opacity="1" fill-rule="evenodd"/></g><path fill="#1800ad" d="M 11.089844 11.605469 C 11.085938 11.605469 11.085938 11.605469 11.089844 11.605469 C 10.308594 11.605469 9.644531 11.097656 9.335938 10.269531 C 9.105469 10.058594 8.816406 9.582031 9.058594 8.988281 C 9.027344 8.882812 9.003906 8.773438 8.988281 8.667969 C 8.96875 8.546875 9.050781 8.4375 9.171875 8.417969 C 9.292969 8.398438 9.40625 8.480469 9.425781 8.601562 C 9.445312 8.714844 9.46875 8.828125 9.503906 8.949219 C 9.515625 9.003906 9.511719 9.058594 9.492188 9.109375 C 9.246094 9.617188 9.613281 9.933594 9.660156 9.972656 C 9.691406 9.996094 9.71875 10.035156 9.730469 10.074219 C 9.96875 10.75 10.488281 11.171875 11.089844 11.171875 C 11.691406 11.171875 12.214844 10.75 12.449219 10.074219 C 12.464844 10.035156 12.488281 9.996094 12.523438 9.972656 C 12.566406 9.9375 12.933594 9.621094 12.6875 9.109375 C 12.667969 9.0625 12.660156 9.007812 12.675781 8.953125 C 12.707031 8.835938 12.734375 8.71875 12.753906 8.605469 C 12.773438 8.484375 12.890625 8.402344 13.007812 8.421875 C 13.128906 8.441406 13.210938 8.554688 13.191406 8.671875 C 13.171875 8.777344 13.152344 8.886719 13.121094 8.992188 C 13.363281 9.585938 13.074219 10.0625 12.84375 10.273438 C 12.535156 11.097656 11.867188 11.605469 11.089844 11.605469 Z M 11.089844 11.605469 " fill-opacity="1" fill-rule="evenodd"/><path fill="#1800ad" d="M 11.925781 11.894531 C 11.804688 11.894531 11.707031 11.796875 11.707031 11.675781 L 11.707031 11.128906 C 11.707031 11.007812 11.804688 10.910156 11.925781 10.910156 C 12.046875 10.910156 12.144531 11.007812 12.144531 11.128906 L 12.144531 11.675781 C 12.148438 11.796875 12.046875 11.894531 11.925781 11.894531 Z M 11.925781 11.894531 " fill-opacity="1" fill-rule="evenodd"/><path fill="#1800ad" d="M 10.25 11.894531 C 10.128906 11.894531 10.03125 11.796875 10.03125 11.675781 L 10.03125 11.132812 C 10.03125 11.011719 10.128906 10.914062 10.25 10.914062 C 10.371094 10.914062 10.46875 11.011719 10.46875 11.132812 L 10.46875 11.675781 C 10.472656 11.796875 10.371094 11.894531 10.25 11.894531 Z M 10.25 11.894531 " fill-opacity="1" fill-rule="evenodd"/><g clip-path="url(#0f570d4862)"><path fill="#1800ad" d="M 8.929688 15.699219 C 8.808594 15.699219 8.710938 15.601562 8.710938 15.480469 L 8.710938 14.351562 C 8.710938 14.230469 8.808594 14.132812 8.929688 14.132812 C 9.050781 14.132812 9.148438 14.230469 9.148438 14.351562 L 9.148438 15.480469 C 9.152344 15.601562 9.050781 15.699219 8.929688 15.699219 Z M 7.957031 16.308594 C 8.078125 16.308594 8.175781 16.207031 8.175781 16.085938 L 8.175781 12.921875 C 8.175781 12.355469 8.636719 11.894531 9.203125 11.894531 L 10.171875 11.894531 L 10.949219 12.539062 C 11.03125 12.605469 11.148438 12.605469 11.230469 12.539062 L 12.007812 11.894531 L 12.976562 11.894531 C 13.308594 11.894531 13.621094 12.058594 13.8125 12.328125 C 13.886719 12.425781 14.023438 12.449219 14.121094 12.382812 C 14.21875 12.308594 14.242188 12.171875 14.175781 12.074219 C 13.898438 11.683594 13.449219 11.457031 12.976562 11.457031 L 11.929688 11.457031 C 11.878906 11.457031 11.828125 11.472656 11.789062 11.503906 L 11.089844 12.082031 L 10.390625 11.503906 C 10.351562 11.472656 10.300781 11.457031 10.25 11.457031 L 9.203125 11.457031 C 8.394531 11.457031 7.734375 12.113281 7.734375 12.925781 L 7.734375 16.089844 C 7.734375 16.207031 7.832031 16.308594 7.957031 16.308594 Z M 7.957031 16.308594 " fill-opacity="1" fill-rule="evenodd"/></g><path fill="#1800ad" d="M 9.171875 8.414062 L 13.003906 8.414062 L 13.003906 7.960938 L 9.171875 7.960938 Z M 13.019531 8.855469 L 9.160156 8.855469 C 8.925781 8.855469 8.734375 8.664062 8.734375 8.429688 L 8.734375 7.945312 C 8.734375 7.710938 8.925781 7.519531 9.160156 7.519531 L 13.019531 7.519531 C 13.253906 7.519531 13.445312 7.710938 13.445312 7.945312 L 13.445312 8.429688 C 13.445312 8.667969 13.25 8.855469 13.019531 8.855469 Z M 13.019531 8.855469 " fill-opacity="1" fill-rule="evenodd"/><g clip-path="url(#52c2c26c12)"><path fill="#1800ad" d="M 9.527344 7.519531 L 12.648438 7.519531 C 12.542969 6.753906 11.882812 6.164062 11.085938 6.164062 C 10.292969 6.164062 9.632812 6.753906 9.527344 7.519531 Z M 12.886719 7.960938 L 9.289062 7.960938 C 9.167969 7.960938 9.070312 7.863281 9.070312 7.742188 C 9.070312 6.632812 9.976562 5.726562 11.089844 5.726562 C 12.203125 5.726562 13.109375 6.632812 13.109375 7.742188 C 13.105469 7.863281 13.007812 7.960938 12.886719 7.960938 Z M 12.886719 7.960938 " fill-opacity="1" fill-rule="evenodd"/></g><path fill="#1800ad" d="M 10.199219 9.128906 L 11.976562 9.128906 L 12.078125 8.855469 L 10.097656 8.855469 Z M 12.128906 9.570312 L 10.050781 9.570312 C 9.957031 9.570312 9.875 9.507812 9.84375 9.425781 L 9.578125 8.707031 C 9.550781 8.640625 9.5625 8.566406 9.605469 8.503906 C 9.648438 8.445312 9.710938 8.410156 9.785156 8.410156 L 12.394531 8.410156 C 12.464844 8.410156 12.535156 8.445312 12.574219 8.503906 C 12.617188 8.566406 12.625 8.640625 12.601562 8.707031 L 12.335938 9.425781 C 12.304688 9.511719 12.222656 9.570312 12.128906 9.570312 Z M 12.128906 9.570312 " fill-opacity="1" fill-rule="evenodd"/><path fill="#1800ad" d="M 16.488281 9.386719 L 19.800781 12.636719 L 20.105469 12.324219 L 16.796875 9.074219 Z M 19.804688 13.167969 C 19.742188 13.167969 19.6875 13.144531 19.648438 13.105469 L 16.023438 9.546875 C 15.984375 9.503906 15.960938 9.445312 15.960938 9.390625 C 15.960938 9.332031 15.984375 9.277344 16.023438 9.234375 L 16.636719 8.605469 C 16.722656 8.519531 16.863281 8.519531 16.949219 8.601562 L 20.574219 12.164062 C 20.65625 12.246094 20.660156 12.386719 20.574219 12.472656 L 19.960938 13.101562 C 19.917969 13.144531 19.863281 13.167969 19.804688 13.167969 Z M 19.804688 13.167969 " fill-opacity="1" fill-rule="evenodd"/><path fill="#1800ad" d="M 14.589844 9.589844 L 15.136719 10.132812 L 17.289062 7.941406 L 16.183594 7.960938 Z M 15.140625 10.664062 C 15.085938 10.664062 15.03125 10.644531 14.988281 10.601562 L 14.125 9.75 C 14.082031 9.710938 14.058594 9.652344 14.058594 9.597656 C 14.058594 9.539062 14.082031 9.484375 14.121094 9.441406 L 15.9375 7.59375 C 15.976562 7.550781 16.03125 7.527344 16.089844 7.527344 L 17.828125 7.488281 C 17.917969 7.484375 18 7.535156 18.035156 7.621094 C 18.070312 7.703125 18.050781 7.800781 17.988281 7.863281 L 15.304688 10.597656 C 15.257812 10.640625 15.199219 10.664062 15.140625 10.664062 Z M 15.140625 10.664062 " fill-opacity="1" fill-rule="evenodd"/></svg>