<svg xmlns="http://www.w3.org/2000/svg" xmlns:xlink="http://www.w3.org/1999/xlink" width="40" zoomAndPan="magnify" viewBox="0 0 30 37.92" height="40" preserveAspectRatio="xMidYMid meet" version="1.0"><defs><clipPath id="81cc3df409"><path d="M 3.113281 0.683594 L 26.886719 0.683594 L 26.886719 29.300781 L 3.113281 29.300781 Z M 3.113281 0.683594 " clip-rule="nonzero"/></clipPath><clipPath id="8f4b80a3fc"><path d="M 19.457031 1.550781 C 18.035156 0.976562 16.539062 0.683594 15 0.683594 C 13.460938 0.683594 11.964844 0.976562 10.542969 1.550781 C 9.078125 2.144531 7.757812 3.019531 6.632812 4.148438 C 4.429688 6.355469 3.199219 9.285156 3.167969 12.402344 C 3.136719 15.511719 4.304688 18.464844 6.460938 20.707031 L 6.453125 20.710938 L 15 29.257812 L 23.5 20.757812 L 23.492188 20.753906 C 25.667969 18.511719 26.855469 15.558594 26.832031 12.433594 C 26.8125 9.300781 25.582031 6.363281 23.367188 4.148438 C 22.234375 3.019531 20.921875 2.144531 19.457031 1.550781 Z M 19.457031 1.550781 " clip-rule="nonzero"/></clipPath><clipPath id="369e47c8ed"><path d="M 0.144531 0.683594 L 23.855469 0.683594 L 23.855469 29.300781 L 0.144531 29.300781 Z M 0.144531 0.683594 " clip-rule="nonzero"/></clipPath><clipPath id="25da7126e3"><path d="M 16.457031 1.550781 C 15.035156 0.976562 13.539062 0.683594 12 0.683594 C 10.460938 0.683594 8.964844 0.976562 7.542969 1.550781 C 6.078125 2.144531 4.757812 3.019531 3.632812 4.148438 C 1.429688 6.355469 0.199219 9.285156 0.167969 12.402344 C 0.136719 15.511719 1.304688 18.464844 3.460938 20.707031 L 3.453125 20.710938 L 12 29.257812 L 20.5 20.757812 L 20.492188 20.753906 C 22.667969 18.511719 23.855469 15.558594 23.832031 12.433594 C 23.8125 9.300781 22.582031 6.363281 20.367188 4.148438 C 19.234375 3.019531 17.921875 2.144531 16.457031 1.550781 Z M 16.457031 1.550781 " clip-rule="nonzero"/></clipPath><clipPath id="0d4e384d55"><rect x="0" width="24" y="0" height="30"/></clipPath><clipPath id="9d3a2c0e60"><path d="M 4.261719 1.777344 L 25.738281 1.777344 L 25.738281 23.203125 L 4.261719 23.203125 Z M 4.261719 1.777344 " clip-rule="nonzero"/></clipPath><clipPath id="b5ec5e5e16"><path d="M 14.996094 1.789062 C 9.089844 1.789062 4.300781 6.578125 4.300781 12.484375 C 4.300781 18.390625 9.089844 23.179688 14.996094 23.179688 C 20.902344 23.179688 25.691406 18.390625 25.691406 12.484375 C 25.691406 6.578125 20.902344 1.789062 14.996094 1.789062 Z M 14.996094 1.789062 " clip-rule="nonzero"/></clipPath><clipPath id="265916e4cb"><path d="M 0.261719 0.777344 L 21.738281 0.777344 L 21.738281 22.203125 L 0.261719 22.203125 Z M 0.261719 0.777344 " clip-rule="nonzero"/></clipPath><clipPath id="1391f459ae"><path d="M 10.996094 0.789062 C 5.089844 0.789062 0.300781 5.578125 0.300781 11.484375 C 0.300781 17.390625 5.089844 22.179688 10.996094 22.179688 C 16.902344 22.179688 21.691406 17.390625 21.691406 11.484375 C 21.691406 5.578125 16.902344 0.789062 10.996094 0.789062 Z M 10.996094 0.789062 " clip-rule="nonzero"/></clipPath><clipPath id="c289d7f6b3"><rect x="0" width="22" y="0" height="23"/></clipPath><clipPath id="191be1dcb3"><path d="M 12 18 L 14 18 L 14 20.6875 L 12 20.6875 Z M 12 18 " clip-rule="nonzero"/></clipPath><clipPath id="8e06b90492"><path d="M 8.390625 6 L 13 6 L 13 10 L 8.390625 10 Z M 8.390625 6 " clip-rule="nonzero"/></clipPath><clipPath id="a86aeb2f80"><path d="M 15 6 L 21.863281 6 L 21.863281 10 L 15 10 Z M 15 6 " clip-rule="nonzero"/></clipPath><clipPath id="ff5c4e71c4"><path d="M 12 8 L 16 8 L 16 20.6875 L 12 20.6875 Z M 12 8 " clip-rule="nonzero"/></clipPath></defs><g clip-path="url(#81cc3df409)"><g clip-path="url(#8f4b80a3fc)"><g transform="matrix(1, 0, 0, 1, 3, 0.000000000000005773)"><g clip-path="url(#0d4e384d55)"><g clip-path="url(#369e47c8ed)"><g clip-path="url(#25da7126e3)"><path fill="#faab11" d="M 0.167969 0.683594 L 23.832031 0.683594 L 23.832031 29.25 L 0.167969 29.25 Z M 0.167969 0.683594 " fill-opacity="1" fill-rule="nonzero"/></g></g></g></g></g></g><g clip-path="url(#9d3a2c0e60)"><g clip-path="url(#b5ec5e5e16)"><g transform="matrix(1, 0, 0, 1, 4, 1)"><g clip-path="url(#c289d7f6b3)"><g clip-path="url(#265916e4cb)"><g clip-path="url(#1391f459ae)"><rect x="-10.6" width="43.2" fill="#ffffff" height="54.6048" y="-9.3424" fill-opacity="1"/></g></g></g></g></g></g><g clip-path="url(#191be1dcb3)"><path fill="#1800ad" d="M 12.417969 19.636719 C 12.175781 19.929688 12.214844 20.371094 12.511719 20.617188 C 12.804688 20.863281 13.246094 20.824219 13.492188 20.527344 L 13.9375 19.992188 L 13.316406 18.558594 Z M 12.417969 19.636719 " fill-opacity="1" fill-rule="nonzero"/></g><g clip-path="url(#8e06b90492)"><path fill="#1800ad" d="M 12.164062 8.65625 L 11.4375 8.65625 L 11.4375 6.597656 L 12.40625 6.597656 C 12.410156 6.519531 12.421875 6.433594 12.441406 6.34375 L 8.957031 6.34375 L 8.957031 6.234375 L 8.480469 6.234375 L 8.480469 6.707031 L 8.957031 6.707031 L 8.957031 6.597656 L 9.367188 6.597656 L 9.367188 8.65625 L 8.957031 8.65625 L 8.957031 8.546875 L 8.480469 8.546875 L 8.480469 9.019531 L 8.957031 9.019531 L 8.957031 8.910156 L 11.808594 8.910156 C 11.929688 8.816406 12.046875 8.734375 12.164062 8.65625 Z M 11.199219 8.65625 L 9.605469 8.65625 L 9.605469 6.597656 L 11.199219 6.597656 Z M 11.199219 8.65625 " fill-opacity="1" fill-rule="nonzero"/></g><path fill="#1800ad" d="M 14.863281 8.261719 C 14.945312 8.285156 15.023438 8.3125 15.105469 8.339844 L 15.105469 7.972656 C 15.03125 8.046875 14.949219 8.109375 14.863281 8.164062 Z M 14.863281 8.261719 " fill-opacity="1" fill-rule="nonzero"/><path fill="#1800ad" d="M 13.03125 8.261719 C 13.085938 8.246094 13.140625 8.230469 13.195312 8.214844 C 13.210938 8.214844 13.222656 8.207031 13.238281 8.207031 C 13.164062 8.167969 13.097656 8.121094 13.03125 8.066406 Z M 13.03125 8.261719 " fill-opacity="1" fill-rule="nonzero"/><g clip-path="url(#a86aeb2f80)"><path fill="#1800ad" d="M 21.015625 6.707031 L 21.015625 6.597656 L 20.605469 6.597656 L 20.605469 8.660156 L 21.015625 8.660156 L 21.015625 8.546875 L 21.492188 8.546875 L 21.492188 9.019531 L 21.015625 9.019531 L 21.015625 8.910156 L 18.605469 8.910156 L 18.722656 8.6875 C 18.746094 8.648438 18.761719 8.609375 18.773438 8.5625 L 18.773438 8.660156 L 20.367188 8.660156 L 20.367188 6.597656 L 18.773438 6.597656 L 18.773438 8.15625 C 18.734375 8.019531 18.648438 7.898438 18.53125 7.808594 L 18.53125 6.597656 L 16.9375 6.597656 L 16.9375 8.660156 L 17.160156 8.660156 L 17.027344 8.910156 L 16.203125 8.910156 C 16.066406 8.816406 15.933594 8.730469 15.796875 8.660156 L 16.699219 8.660156 L 16.699219 6.597656 L 15.621094 6.597656 C 15.617188 6.503906 15.601562 6.425781 15.585938 6.34375 L 21.015625 6.34375 L 21.015625 6.234375 L 21.492188 6.234375 L 21.492188 6.707031 Z M 21.015625 6.707031 " fill-opacity="1" fill-rule="nonzero"/></g><path fill="#1800ad" d="M 12.617188 8.671875 C 12.363281 8.796875 11.855469 9.113281 11.734375 9.304688 C 11.683594 9.382812 10.496094 11.3125 10.753906 14.269531 C 10.777344 14.511719 10.980469 14.691406 11.21875 14.691406 C 11.492188 14.691406 11.707031 14.457031 11.683594 14.1875 C 11.574219 12.949219 11.753906 11.910156 11.972656 11.152344 L 12.042969 12.042969 L 12.617188 12.042969 Z M 12.617188 8.671875 " fill-opacity="1" fill-rule="nonzero"/><path fill="#1800ad" d="M 13.488281 8.394531 L 13.488281 9.609375 L 14.546875 9.609375 L 14.546875 8.425781 C 14.191406 8.351562 13.835938 8.339844 13.488281 8.394531 Z M 13.488281 8.394531 " fill-opacity="1" fill-rule="nonzero"/><path fill="#1800ad" d="M 12.871094 7.128906 C 14.105469 6.796875 15.15625 7.105469 15.15625 7.105469 C 15.179688 7.085938 15.421875 6.863281 15.398438 6.882812 C 15.445312 5.921875 14.78125 5.578125 14.78125 5.578125 C 14.441406 5.945312 14.386719 6.75 14.375 6.800781 C 14.316406 5.816406 14.6875 5.429688 14.699219 5.40625 C 13.898438 4.976562 13.34375 5.40625 13.34375 5.40625 C 13.730469 5.917969 13.652344 6.773438 13.65625 6.796875 C 13.523438 5.945312 13.3125 5.746094 13.238281 5.613281 C 12.511719 6.027344 12.644531 6.882812 12.644531 6.882812 C 12.667969 6.90625 12.890625 7.152344 12.871094 7.128906 Z M 12.871094 7.128906 " fill-opacity="1" fill-rule="nonzero"/><path fill="#1800ad" d="M 12.851562 7.492188 C 13.078125 7.90625 13.515625 8.1875 14.019531 8.1875 C 14.519531 8.1875 14.953125 7.90625 15.179688 7.496094 C 15.253906 7.480469 15.296875 7.46875 15.296875 7.46875 L 15.566406 7.179688 L 15.566406 7.070312 L 15.425781 7.078125 C 15.402344 7.105469 15.164062 7.347656 15.1875 7.324219 C 13.941406 6.972656 12.851562 7.324219 12.851562 7.324219 C 12.824219 7.300781 12.738281 7.21875 12.601562 7.078125 L 12.46875 7.070312 L 12.46875 7.203125 L 12.75 7.46875 C 12.785156 7.476562 12.816406 7.484375 12.851562 7.492188 Z M 12.851562 7.492188 " fill-opacity="1" fill-rule="nonzero"/><g clip-path="url(#ff5c4e71c4)"><path fill="#1800ad" d="M 15.1875 8.621094 C 15.050781 8.5625 14.917969 8.515625 14.78125 8.480469 L 14.78125 9.839844 L 13.253906 9.839844 L 13.253906 8.441406 C 13.121094 8.476562 12.984375 8.515625 12.851562 8.570312 L 12.851562 12.277344 L 12.066406 12.277344 C 12.328125 15.882812 12.308594 15.667969 12.378906 15.824219 L 14.351562 20.359375 C 14.503906 20.710938 14.914062 20.875 15.269531 20.71875 C 15.625 20.566406 15.785156 20.15625 15.632812 19.800781 L 13.875 15.765625 L 14.308594 15.765625 L 14.308594 16.171875 L 15.273438 18.386719 L 15.542969 18.058594 C 15.644531 17.933594 15.703125 17.773438 15.703125 17.609375 L 15.703125 15.6875 C 15.703125 15.683594 15.703125 15.683594 15.703125 15.683594 C 15.710938 15.667969 15.714844 15.648438 15.71875 15.628906 C 15.925781 12.933594 15.792969 14.667969 15.96875 12.382812 L 15.96875 12.277344 L 15.183594 12.277344 L 15.183594 8.621094 Z M 15.1875 8.621094 " fill-opacity="1" fill-rule="nonzero"/></g><path fill="#1800ad" d="M 18.324219 7.949219 C 18.097656 7.828125 17.816406 7.917969 17.695312 8.144531 L 16.949219 9.550781 C 15.492188 8.746094 15.441406 8.734375 15.417969 8.722656 L 15.417969 12.042969 L 15.992188 12.042969 L 16.136719 10.183594 L 16.941406 10.585938 C 17.164062 10.703125 17.441406 10.613281 17.558594 10.390625 L 18.519531 8.578125 C 18.636719 8.351562 18.550781 8.070312 18.324219 7.949219 Z M 18.324219 7.949219 " fill-opacity="1" fill-rule="nonzero"/></svg>