<svg xmlns="http://www.w3.org/2000/svg" xmlns:xlink="http://www.w3.org/1999/xlink" width="40" zoomAndPan="magnify" viewBox="0 0 30 37.92" height="40" preserveAspectRatio="xMidYMid meet" version="1.0"><defs><clipPath id="a797b1d6dc"><path d="M 3.113281 0.683594 L 26.886719 0.683594 L 26.886719 29.300781 L 3.113281 29.300781 Z M 3.113281 0.683594 " clip-rule="nonzero"/></clipPath><clipPath id="7e171aec4b"><path d="M 19.457031 1.550781 C 18.035156 0.976562 16.539062 0.683594 15 0.683594 C 13.460938 0.683594 11.964844 0.976562 10.542969 1.550781 C 9.078125 2.144531 7.757812 3.019531 6.632812 4.148438 C 4.429688 6.355469 3.199219 9.285156 3.167969 12.402344 C 3.136719 15.511719 4.304688 18.464844 6.460938 20.707031 L 6.453125 20.710938 L 15 29.257812 L 23.5 20.757812 L 23.492188 20.753906 C 25.667969 18.511719 26.855469 15.558594 26.832031 12.433594 C 26.8125 9.300781 25.582031 6.363281 23.367188 4.148438 C 22.234375 3.019531 20.921875 2.144531 19.457031 1.550781 Z M 19.457031 1.550781 " clip-rule="nonzero"/></clipPath><clipPath id="f0d253023d"><path d="M 0.144531 0.683594 L 23.855469 0.683594 L 23.855469 29.300781 L 0.144531 29.300781 Z M 0.144531 0.683594 " clip-rule="nonzero"/></clipPath><clipPath id="3348e67a2f"><path d="M 16.457031 1.550781 C 15.035156 0.976562 13.539062 0.683594 12 0.683594 C 10.460938 0.683594 8.964844 0.976562 7.542969 1.550781 C 6.078125 2.144531 4.757812 3.019531 3.632812 4.148438 C 1.429688 6.355469 0.199219 9.285156 0.167969 12.402344 C 0.136719 15.511719 1.304688 18.464844 3.460938 20.707031 L 3.453125 20.710938 L 12 29.257812 L 20.5 20.757812 L 20.492188 20.753906 C 22.667969 18.511719 23.855469 15.558594 23.832031 12.433594 C 23.8125 9.300781 22.582031 6.363281 20.367188 4.148438 C 19.234375 3.019531 17.921875 2.144531 16.457031 1.550781 Z M 16.457031 1.550781 " clip-rule="nonzero"/></clipPath><clipPath id="37bf23ec0a"><rect x="0" width="24" y="0" height="30"/></clipPath><clipPath id="8623fde27c"><path d="M 4.261719 1.777344 L 25.738281 1.777344 L 25.738281 23.203125 L 4.261719 23.203125 Z M 4.261719 1.777344 " clip-rule="nonzero"/></clipPath><clipPath id="4342fe746a"><path d="M 14.996094 1.789062 C 9.089844 1.789062 4.300781 6.578125 4.300781 12.484375 C 4.300781 18.390625 9.089844 23.179688 14.996094 23.179688 C 20.902344 23.179688 25.691406 18.390625 25.691406 12.484375 C 25.691406 6.578125 20.902344 1.789062 14.996094 1.789062 Z M 14.996094 1.789062 " clip-rule="nonzero"/></clipPath><clipPath id="6e5d790255"><path d="M 0.261719 0.777344 L 21.738281 0.777344 L 21.738281 22.203125 L 0.261719 22.203125 Z M 0.261719 0.777344 " clip-rule="nonzero"/></clipPath><clipPath id="35bf8c4587"><path d="M 10.996094 0.789062 C 5.089844 0.789062 0.300781 5.578125 0.300781 11.484375 C 0.300781 17.390625 5.089844 22.179688 10.996094 22.179688 C 16.902344 22.179688 21.691406 17.390625 21.691406 11.484375 C 21.691406 5.578125 16.902344 0.789062 10.996094 0.789062 Z M 10.996094 0.789062 " clip-rule="nonzero"/></clipPath><clipPath id="3194850d31"><rect x="0" width="22" y="0" height="23"/></clipPath><clipPath id="036cbdf3e9"><path d="M 8.914062 4.894531 L 20.886719 4.894531 L 20.886719 11 L 8.914062 11 Z M 8.914062 4.894531 " clip-rule="nonzero"/></clipPath><clipPath id="805a09deb1"><path d="M 8.914062 14 L 12 14 L 12 16 L 8.914062 16 Z M 8.914062 14 " clip-rule="nonzero"/></clipPath><clipPath id="8e983608b1"><path d="M 10 7 L 19 7 L 19 20.613281 L 10 20.613281 Z M 10 7 " clip-rule="nonzero"/></clipPath><clipPath id="c0f1b46003"><path d="M 18 10 L 20.886719 10 L 20.886719 12 L 18 12 Z M 18 10 " clip-rule="nonzero"/></clipPath><clipPath id="5af82ea20a"><path d="M 16 19 L 20.886719 19 L 20.886719 20.613281 L 16 20.613281 Z M 16 19 " clip-rule="nonzero"/></clipPath><clipPath id="a987c76aff"><path d="M 16 17 L 20.886719 17 L 20.886719 19 L 16 19 Z M 16 17 " clip-rule="nonzero"/></clipPath></defs><g clip-path="url(#a797b1d6dc)"><g clip-path="url(#7e171aec4b)"><g transform="matrix(1, 0, 0, 1, 3, 0.000000000000005773)"><g clip-path="url(#37bf23ec0a)"><g clip-path="url(#f0d253023d)"><g clip-path="url(#3348e67a2f)"><path fill="#faab11" d="M 0.167969 0.683594 L 23.832031 0.683594 L 23.832031 29.25 L 0.167969 29.25 Z M 0.167969 0.683594 " fill-opacity="1" fill-rule="nonzero"/></g></g></g></g></g></g><g clip-path="url(#8623fde27c)"><g clip-path="url(#4342fe746a)"><g transform="matrix(1, 0, 0, 1, 4, 1)"><g clip-path="url(#3194850d31)"><g clip-path="url(#6e5d790255)"><g clip-path="url(#35bf8c4587)"><rect x="-10.6" width="43.2" fill="#ffffff" height="54.6048" y="-9.3424" fill-opacity="1"/></g></g></g></g></g></g><g clip-path="url(#036cbdf3e9)"><path fill="#1800ad" d="M 19.125 5.683594 L 19.125 6.535156 L 12.707031 6.535156 L 12.707031 6.527344 C 12.707031 6.464844 12.65625 6.414062 12.59375 6.414062 C 12.535156 6.414062 12.484375 6.464844 12.484375 6.527344 L 12.484375 6.535156 L 12.234375 6.535156 C 11.851562 6.535156 11.539062 6.847656 11.539062 7.230469 L 11.539062 7.453125 C 11.539062 7.578125 11.4375 7.683594 11.308594 7.683594 L 10.765625 7.683594 L 10.765625 7.664062 C 10.765625 7.601562 10.714844 7.554688 10.652344 7.554688 C 10.59375 7.554688 10.542969 7.601562 10.542969 7.664062 L 10.542969 7.683594 L 8.933594 7.683594 L 8.933594 8.125 L 10.542969 8.125 C 10.542969 8.1875 10.59375 8.238281 10.652344 8.238281 C 10.714844 8.238281 10.765625 8.1875 10.765625 8.125 L 11.308594 8.125 C 11.683594 8.125 11.984375 7.824219 11.984375 7.453125 L 11.984375 7.230469 C 11.984375 7.089844 12.097656 6.980469 12.234375 6.980469 L 12.484375 6.980469 L 12.484375 6.988281 C 12.484375 7.050781 12.535156 7.101562 12.59375 7.101562 C 12.65625 7.101562 12.707031 7.050781 12.707031 6.988281 L 12.707031 6.980469 L 19.125 6.980469 L 19.125 9.164062 L 19.105469 9.164062 C 19.046875 9.164062 18.996094 9.210938 18.996094 9.273438 C 18.996094 9.335938 19.046875 9.382812 19.105469 9.382812 L 19.125 9.382812 L 19.125 10.175781 C 19.1875 10.164062 19.25 10.15625 19.3125 10.15625 C 19.402344 10.15625 19.488281 10.171875 19.570312 10.195312 L 19.570312 9.382812 C 19.628906 9.382812 19.679688 9.335938 19.679688 9.273438 C 19.679688 9.210938 19.628906 9.164062 19.570312 9.164062 L 19.570312 5.683594 C 19.570312 5.503906 19.714844 5.355469 19.894531 5.355469 L 20.808594 5.355469 L 20.808594 4.914062 L 19.894531 4.914062 C 19.46875 4.914062 19.125 5.257812 19.125 5.683594 Z M 19.125 5.683594 " fill-opacity="1" fill-rule="nonzero"/></g><g clip-path="url(#805a09deb1)"><path fill="#1800ad" d="M 8.914062 14.710938 L 8.914062 15.15625 L 11.363281 15.15625 L 11.171875 14.710938 Z M 8.914062 14.710938 " fill-opacity="1" fill-rule="nonzero"/></g><path fill="#1800ad" d="M 19.125 12.082031 L 19.125 13.074219 L 19.105469 13.074219 C 19.046875 13.074219 18.996094 13.125 18.996094 13.1875 C 18.996094 13.246094 19.046875 13.296875 19.105469 13.296875 L 19.125 13.296875 L 19.125 14.101562 C 19.125 14.4375 18.851562 14.710938 18.515625 14.710938 L 14.609375 14.710938 L 14.988281 15.15625 L 18.515625 15.15625 C 19.097656 15.15625 19.570312 14.683594 19.570312 14.101562 L 19.570312 13.296875 C 19.628906 13.296875 19.679688 13.246094 19.679688 13.1875 C 19.679688 13.125 19.628906 13.074219 19.570312 13.074219 L 19.570312 12.066406 C 19.488281 12.085938 19.402344 12.101562 19.3125 12.101562 C 19.25 12.101562 19.1875 12.09375 19.125 12.082031 Z M 19.125 12.082031 " fill-opacity="1" fill-rule="nonzero"/><g clip-path="url(#8e983608b1)"><path fill="#1800ad" d="M 11.144531 14.332031 L 12.199219 16.757812 L 11.027344 19.296875 C 10.867188 19.644531 11.015625 20.054688 11.363281 20.21875 C 11.460938 20.261719 11.558594 20.28125 11.65625 20.28125 C 11.917969 20.28125 12.167969 20.132812 12.285156 19.878906 L 13.589844 17.058594 C 13.671875 16.878906 13.675781 16.671875 13.597656 16.488281 L 13.125 15.410156 L 14.492188 16.921875 L 14.570312 19.550781 C 14.582031 19.929688 14.890625 20.226562 15.261719 20.226562 C 15.269531 20.226562 15.277344 20.226562 15.28125 20.226562 C 15.667969 20.214844 15.96875 19.894531 15.957031 19.511719 L 15.875 16.625 C 15.867188 16.460938 15.804688 16.304688 15.695312 16.179688 L 14.085938 14.402344 L 14.707031 11.960938 L 14.859375 12.285156 L 15.082031 12.757812 C 15.15625 12.917969 15.316406 13.015625 15.484375 13.015625 C 15.539062 13.015625 15.59375 13.003906 15.648438 12.980469 L 16.707031 12.554688 L 16.539062 13.054688 C 16.503906 13.171875 16.566406 13.292969 16.679688 13.332031 C 16.792969 13.367188 16.914062 13.308594 16.953125 13.195312 L 17.234375 12.34375 L 17.257812 12.335938 C 17.488281 12.242188 17.597656 11.984375 17.503906 11.757812 C 17.492188 11.726562 17.476562 11.699219 17.460938 11.671875 L 17.855469 10.484375 L 17.515625 10.375 L 17.316406 10.308594 L 17.394531 10.074219 L 17.929688 10.25 L 18.011719 10.015625 C 18.078125 9.816406 17.726562 9.519531 17.425781 9.417969 C 17.125 9.316406 16.984375 9.453125 16.917969 9.652344 L 16.839844 9.890625 L 16.984375 9.9375 L 16.902344 10.171875 C 16.746094 10.140625 16.589844 10.226562 16.535156 10.382812 C 16.484375 10.539062 16.558594 10.707031 16.703125 10.773438 L 16.609375 11.0625 C 16.570312 11.179688 16.632812 11.300781 16.746094 11.339844 C 16.859375 11.375 16.980469 11.316406 17.019531 11.199219 L 17.117188 10.914062 L 17.238281 10.953125 L 17.066406 11.480469 C 17.019531 11.484375 16.972656 11.492188 16.925781 11.511719 L 15.707031 12 L 15.035156 10.566406 C 15 10.492188 14.949219 10.433594 14.886719 10.390625 L 15.195312 10.351562 C 15.289062 10.339844 15.378906 10.296875 15.449219 10.226562 L 17.480469 8.226562 C 17.65625 8.054688 17.65625 7.773438 17.484375 7.597656 C 17.3125 7.421875 17.03125 7.421875 16.855469 7.59375 L 15.554688 8.875 C 15.636719 9.5 15.292969 10.125 14.6875 10.371094 C 14.515625 10.441406 14.335938 10.476562 14.152344 10.476562 C 13.632812 10.476562 13.164062 10.195312 12.917969 9.75 L 12.484375 9.804688 C 12.277344 9.832031 12.121094 10 12.097656 10.199219 C 12.089844 10.222656 12.078125 10.246094 12.070312 10.273438 L 11.800781 11.289062 L 11.144531 13.773438 C 11.070312 13.945312 11.0625 14.148438 11.144531 14.332031 Z M 16.746094 10.4375 C 16.777344 10.347656 16.875 10.296875 16.96875 10.328125 C 17.058594 10.359375 17.105469 10.457031 17.078125 10.546875 C 17.046875 10.640625 16.949219 10.6875 16.855469 10.65625 C 16.765625 10.628906 16.71875 10.527344 16.746094 10.4375 Z M 16.746094 10.4375 " fill-opacity="1" fill-rule="nonzero"/></g><path fill="#1800ad" d="M 14.625 10.21875 C 15.238281 9.964844 15.542969 9.285156 15.335938 8.664062 C 15.050781 8.738281 14.796875 8.765625 14.617188 8.746094 C 14.734375 8.710938 14.863281 8.671875 14.992188 8.617188 C 15.601562 8.367188 16.027344 8 15.945312 7.796875 C 15.863281 7.59375 15.300781 7.632812 14.691406 7.882812 C 14.667969 7.890625 14.648438 7.898438 14.628906 7.90625 C 14.335938 7.785156 13.996094 7.777344 13.679688 7.90625 C 13.039062 8.167969 12.734375 8.894531 12.996094 9.535156 C 13.257812 10.171875 13.984375 10.476562 14.625 10.21875 Z M 14.625 10.21875 " fill-opacity="1" fill-rule="nonzero"/><g clip-path="url(#c0f1b46003)"><path fill="#1800ad" d="M 18.507812 11.128906 C 18.507812 11.574219 18.867188 11.933594 19.3125 11.933594 C 19.757812 11.933594 20.117188 11.574219 20.117188 11.128906 C 20.117188 10.683594 19.757812 10.324219 19.3125 10.324219 C 18.867188 10.324219 18.507812 10.683594 18.507812 11.128906 Z M 19.25 10.550781 L 19.25 10.976562 C 19.25 10.976562 19.25 10.976562 19.246094 10.976562 L 18.949219 10.675781 C 19.03125 10.609375 19.136719 10.5625 19.25 10.550781 Z M 18.859375 10.765625 L 19.160156 11.0625 C 19.160156 11.066406 19.160156 11.066406 19.160156 11.066406 L 18.734375 11.066406 C 18.746094 10.953125 18.789062 10.847656 18.859375 10.765625 Z M 18.734375 11.191406 L 19.160156 11.191406 C 19.160156 11.191406 19.160156 11.195312 19.160156 11.195312 L 18.859375 11.496094 C 18.789062 11.410156 18.746094 11.304688 18.734375 11.191406 Z M 18.949219 11.582031 L 19.246094 11.28125 C 19.25 11.28125 19.25 11.285156 19.25 11.285156 L 19.25 11.707031 C 19.136719 11.695312 19.03125 11.652344 18.949219 11.582031 Z M 19.375 11.707031 L 19.375 11.285156 C 19.375 11.285156 19.375 11.28125 19.378906 11.28125 L 19.675781 11.582031 C 19.59375 11.652344 19.488281 11.695312 19.375 11.707031 Z M 19.765625 11.496094 L 19.464844 11.195312 C 19.464844 11.195312 19.464844 11.191406 19.464844 11.191406 L 19.890625 11.191406 C 19.878906 11.304688 19.835938 11.410156 19.765625 11.496094 Z M 19.890625 11.066406 L 19.464844 11.066406 C 19.464844 11.066406 19.464844 11.066406 19.464844 11.0625 L 19.765625 10.765625 C 19.835938 10.847656 19.878906 10.953125 19.890625 11.066406 Z M 19.675781 10.675781 L 19.378906 10.976562 C 19.375 10.976562 19.375 10.976562 19.375 10.976562 L 19.375 10.550781 C 19.488281 10.5625 19.59375 10.609375 19.675781 10.675781 Z M 19.675781 10.675781 " fill-opacity="1" fill-rule="nonzero"/></g><g clip-path="url(#5af82ea20a)"><path fill="#1800ad" d="M 16.792969 19.050781 L 20.269531 19.050781 L 20.269531 20.019531 L 16.792969 20.019531 Z M 16.792969 19.050781 " fill-opacity="1" fill-rule="nonzero"/></g><g clip-path="url(#a987c76aff)"><path fill="#1800ad" d="M 20.269531 18.925781 L 20.269531 18.28125 L 19.351562 18.28125 L 19.351562 17.855469 L 19.511719 17.855469 L 19.511719 17.691406 L 17.554688 17.691406 L 17.554688 17.855469 L 17.714844 17.855469 L 17.714844 18.28125 L 16.792969 18.28125 L 16.792969 18.925781 Z M 17.878906 17.941406 L 19.183594 17.941406 L 19.183594 18.28125 L 17.878906 18.28125 Z M 17.878906 17.941406 " fill-opacity="1" fill-rule="nonzero"/></g></svg>