<svg xmlns="http://www.w3.org/2000/svg" xmlns:xlink="http://www.w3.org/1999/xlink" width="40" zoomAndPan="magnify" viewBox="0 0 30 37.92" height="40" preserveAspectRatio="xMidYMid meet" version="1.0"><defs><clipPath id="ea9adc4881"><path d="M 3.113281 0.683594 L 26.886719 0.683594 L 26.886719 29.300781 L 3.113281 29.300781 Z M 3.113281 0.683594 " clip-rule="nonzero"/></clipPath><clipPath id="79a49a376e"><path d="M 19.457031 1.550781 C 18.035156 0.976562 16.539062 0.683594 15 0.683594 C 13.460938 0.683594 11.964844 0.976562 10.542969 1.550781 C 9.078125 2.144531 7.757812 3.019531 6.632812 4.148438 C 4.429688 6.355469 3.199219 9.285156 3.167969 12.402344 C 3.136719 15.511719 4.304688 18.464844 6.460938 20.707031 L 6.453125 20.710938 L 15 29.257812 L 23.5 20.757812 L 23.492188 20.753906 C 25.667969 18.511719 26.855469 15.558594 26.832031 12.433594 C 26.8125 9.300781 25.582031 6.363281 23.367188 4.148438 C 22.234375 3.019531 20.921875 2.144531 19.457031 1.550781 Z M 19.457031 1.550781 " clip-rule="nonzero"/></clipPath><clipPath id="8a1f6b7da5"><path d="M 0.144531 0.683594 L 23.855469 0.683594 L 23.855469 29.300781 L 0.144531 29.300781 Z M 0.144531 0.683594 " clip-rule="nonzero"/></clipPath><clipPath id="a870c88b04"><path d="M 16.457031 1.550781 C 15.035156 0.976562 13.539062 0.683594 12 0.683594 C 10.460938 0.683594 8.964844 0.976562 7.542969 1.550781 C 6.078125 2.144531 4.757812 3.019531 3.632812 4.148438 C 1.429688 6.355469 0.199219 9.285156 0.167969 12.402344 C 0.136719 15.511719 1.304688 18.464844 3.460938 20.707031 L 3.453125 20.710938 L 12 29.257812 L 20.5 20.757812 L 20.492188 20.753906 C 22.667969 18.511719 23.855469 15.558594 23.832031 12.433594 C 23.8125 9.300781 22.582031 6.363281 20.367188 4.148438 C 19.234375 3.019531 17.921875 2.144531 16.457031 1.550781 Z M 16.457031 1.550781 " clip-rule="nonzero"/></clipPath><clipPath id="221ee344eb"><rect x="0" width="24" y="0" height="30"/></clipPath><clipPath id="663fa5e242"><path d="M 4.261719 1.777344 L 25.738281 1.777344 L 25.738281 23.203125 L 4.261719 23.203125 Z M 4.261719 1.777344 " clip-rule="nonzero"/></clipPath><clipPath id="fe6e828e9c"><path d="M 14.996094 1.789062 C 9.089844 1.789062 4.300781 6.578125 4.300781 12.484375 C 4.300781 18.390625 9.089844 23.179688 14.996094 23.179688 C 20.902344 23.179688 25.691406 18.390625 25.691406 12.484375 C 25.691406 6.578125 20.902344 1.789062 14.996094 1.789062 Z M 14.996094 1.789062 " clip-rule="nonzero"/></clipPath><clipPath id="4a375a2e05"><path d="M 0.261719 0.777344 L 21.738281 0.777344 L 21.738281 22.203125 L 0.261719 22.203125 Z M 0.261719 0.777344 " clip-rule="nonzero"/></clipPath><clipPath id="bae90e369e"><path d="M 10.996094 0.789062 C 5.089844 0.789062 0.300781 5.578125 0.300781 11.484375 C 0.300781 17.390625 5.089844 22.179688 10.996094 22.179688 C 16.902344 22.179688 21.691406 17.390625 21.691406 11.484375 C 21.691406 5.578125 16.902344 0.789062 10.996094 0.789062 Z M 10.996094 0.789062 " clip-rule="nonzero"/></clipPath><clipPath id="8d540ab0db"><rect x="0" width="22" y="0" height="23"/></clipPath><clipPath id="eb7aa71426"><path d="M 7.027344 7 L 18 7 L 18 18.589844 L 7.027344 18.589844 Z M 7.027344 7 " clip-rule="nonzero"/></clipPath><clipPath id="e9fd345476"><path d="M 16 8 L 22.746094 8 L 22.746094 15 L 16 15 Z M 16 8 " clip-rule="nonzero"/></clipPath></defs><g clip-path="url(#ea9adc4881)"><g clip-path="url(#79a49a376e)"><g transform="matrix(1, 0, 0, 1, 3, 0.000000000000005773)"><g clip-path="url(#221ee344eb)"><g clip-path="url(#8a1f6b7da5)"><g clip-path="url(#a870c88b04)"><path fill="#faab11" d="M 0.167969 0.683594 L 23.832031 0.683594 L 23.832031 29.25 L 0.167969 29.25 Z M 0.167969 0.683594 " fill-opacity="1" fill-rule="nonzero"/></g></g></g></g></g></g><g clip-path="url(#663fa5e242)"><g clip-path="url(#fe6e828e9c)"><g transform="matrix(1, 0, 0, 1, 4, 1)"><g clip-path="url(#8d540ab0db)"><g clip-path="url(#4a375a2e05)"><g clip-path="url(#bae90e369e)"><rect x="-10.6" width="43.2" fill="#ffffff" height="54.6048" y="-9.3424" fill-opacity="1"/></g></g></g></g></g></g><path fill="#1800ad" d="M 14.480469 9.101562 C 15.324219 9.296875 16.160156 8.777344 16.355469 7.9375 C 16.550781 7.09375 16.027344 6.253906 15.191406 6.0625 C 14.347656 5.867188 13.507812 6.386719 13.316406 7.226562 C 13.121094 8.070312 13.640625 8.90625 14.480469 9.101562 Z M 14.480469 9.101562 " fill-opacity="1" fill-rule="nonzero"/><g clip-path="url(#eb7aa71426)"><path fill="#1800ad" d="M 16.296875 12.882812 C 16.171875 12.761719 15.96875 12.808594 15.90625 12.972656 L 15.789062 13.277344 L 15.261719 13.082031 C 15.292969 12.824219 15.191406 12.5625 14.972656 12.402344 L 13.882812 11.617188 C 13.914062 10.300781 13.847656 10.066406 13.824219 9.980469 C 13.78125 9.835938 13.617188 9.324219 13.300781 8.894531 L 12.953125 8.417969 C 12.769531 8.164062 12.480469 8 12.167969 7.964844 C 11.855469 7.933594 11.542969 8.035156 11.308594 8.246094 L 8.671875 10.488281 C 8.480469 10.652344 8.367188 10.894531 8.363281 11.144531 L 8.324219 14.476562 L 7.210938 17.21875 C 7.03125 17.664062 7.242188 18.171875 7.6875 18.351562 C 8.132812 18.53125 8.640625 18.316406 8.820312 17.871094 L 9.996094 14.976562 C 10.039062 14.875 10.058594 14.769531 10.058594 14.660156 L 10.066406 14.167969 L 10.617188 14.914062 L 11.382812 17.726562 C 11.496094 18.144531 11.886719 18.453125 12.316406 18.40625 C 12.867188 18.351562 13.210938 17.824219 13.074219 17.3125 L 12.253906 14.296875 C 12.226562 14.191406 12.175781 14.09375 12.113281 14.007812 L 10.785156 12.222656 L 12.4375 10.960938 C 12.4375 11.265625 12.429688 11.628906 12.421875 11.953125 C 12.414062 12.195312 12.527344 12.425781 12.71875 12.566406 L 14.117188 13.574219 C 14.167969 13.609375 14.21875 13.636719 14.269531 13.660156 C 14.535156 13.765625 14.839844 13.699219 15.042969 13.496094 L 15.621094 13.714844 L 15.507812 14.023438 C 15.445312 14.183594 15.566406 14.351562 15.738281 14.347656 L 17.3125 14.285156 C 17.480469 14.28125 17.554688 14.078125 17.433594 13.960938 Z M 16.296875 12.882812 " fill-opacity="1" fill-rule="nonzero"/></g><path fill="#1800ad" d="M 17.007812 11.980469 L 19.386719 11.980469 L 19.386719 12.3125 L 17.007812 12.3125 Z M 17.007812 11.980469 " fill-opacity="1" fill-rule="nonzero"/><path fill="#1800ad" d="M 17.007812 12.644531 L 19.386719 12.644531 L 19.386719 12.972656 L 17.007812 12.972656 Z M 17.007812 12.644531 " fill-opacity="1" fill-rule="nonzero"/><path fill="#1800ad" d="M 17.660156 13.640625 L 19.386719 13.640625 L 19.386719 13.308594 L 17.3125 13.308594 Z M 17.660156 13.640625 " fill-opacity="1" fill-rule="nonzero"/><path fill="#1800ad" d="M 17.851562 14.300781 L 19.386719 14.300781 L 19.386719 13.972656 L 17.875 13.972656 C 17.898438 14.078125 17.894531 14.191406 17.851562 14.300781 Z M 17.851562 14.300781 " fill-opacity="1" fill-rule="nonzero"/><g clip-path="url(#e9fd345476)"><path fill="#1800ad" d="M 16.839844 8.390625 L 16.839844 11.621094 L 19.734375 11.621094 L 19.734375 14.515625 L 22.964844 14.515625 L 22.964844 8.390625 Z M 19.734375 11.289062 L 17.171875 11.289062 L 17.171875 8.722656 L 19.734375 8.722656 Z M 22.632812 14.179688 L 20.066406 14.179688 L 20.066406 11.617188 L 22.632812 11.617188 Z M 22.632812 11.289062 L 20.066406 11.289062 L 20.066406 8.722656 L 22.632812 8.722656 Z M 22.632812 11.289062 " fill-opacity="1" fill-rule="nonzero"/></g></svg>