<svg xmlns="http://www.w3.org/2000/svg" xmlns:xlink="http://www.w3.org/1999/xlink" width="40" zoomAndPan="magnify" viewBox="0 0 30 37.92" height="40" preserveAspectRatio="xMidYMid meet" version="1.0"><defs><clipPath id="f57bd8049a"><path d="M 3.113281 0.683594 L 26.886719 0.683594 L 26.886719 29.300781 L 3.113281 29.300781 Z M 3.113281 0.683594 " clip-rule="nonzero"/></clipPath><clipPath id="ee03e34c4f"><path d="M 19.457031 1.550781 C 18.035156 0.976562 16.539062 0.683594 15 0.683594 C 13.460938 0.683594 11.964844 0.976562 10.542969 1.550781 C 9.078125 2.144531 7.757812 3.019531 6.632812 4.148438 C 4.429688 6.355469 3.199219 9.285156 3.167969 12.402344 C 3.136719 15.511719 4.304688 18.464844 6.460938 20.707031 L 6.453125 20.710938 L 15 29.257812 L 23.5 20.757812 L 23.492188 20.753906 C 25.667969 18.511719 26.855469 15.558594 26.832031 12.433594 C 26.8125 9.300781 25.582031 6.363281 23.367188 4.148438 C 22.234375 3.019531 20.921875 2.144531 19.457031 1.550781 Z M 19.457031 1.550781 " clip-rule="nonzero"/></clipPath><clipPath id="538748055a"><path d="M 0.144531 0.683594 L 23.855469 0.683594 L 23.855469 29.300781 L 0.144531 29.300781 Z M 0.144531 0.683594 " clip-rule="nonzero"/></clipPath><clipPath id="ba0cda2cda"><path d="M 16.457031 1.550781 C 15.035156 0.976562 13.539062 0.683594 12 0.683594 C 10.460938 0.683594 8.964844 0.976562 7.542969 1.550781 C 6.078125 2.144531 4.757812 3.019531 3.632812 4.148438 C 1.429688 6.355469 0.199219 9.285156 0.167969 12.402344 C 0.136719 15.511719 1.304688 18.464844 3.460938 20.707031 L 3.453125 20.710938 L 12 29.257812 L 20.5 20.757812 L 20.492188 20.753906 C 22.667969 18.511719 23.855469 15.558594 23.832031 12.433594 C 23.8125 9.300781 22.582031 6.363281 20.367188 4.148438 C 19.234375 3.019531 17.921875 2.144531 16.457031 1.550781 Z M 16.457031 1.550781 " clip-rule="nonzero"/></clipPath><clipPath id="4a2ee5302a"><rect x="0" width="24" y="0" height="30"/></clipPath><clipPath id="396b18952c"><path d="M 4.261719 1.777344 L 25.738281 1.777344 L 25.738281 23.203125 L 4.261719 23.203125 Z M 4.261719 1.777344 " clip-rule="nonzero"/></clipPath><clipPath id="fedb4a5342"><path d="M 14.996094 1.789062 C 9.089844 1.789062 4.300781 6.578125 4.300781 12.484375 C 4.300781 18.390625 9.089844 23.179688 14.996094 23.179688 C 20.902344 23.179688 25.691406 18.390625 25.691406 12.484375 C 25.691406 6.578125 20.902344 1.789062 14.996094 1.789062 Z M 14.996094 1.789062 " clip-rule="nonzero"/></clipPath><clipPath id="1bf5fcbf4f"><path d="M 0.261719 0.777344 L 21.738281 0.777344 L 21.738281 22.203125 L 0.261719 22.203125 Z M 0.261719 0.777344 " clip-rule="nonzero"/></clipPath><clipPath id="316359b444"><path d="M 10.996094 0.789062 C 5.089844 0.789062 0.300781 5.578125 0.300781 11.484375 C 0.300781 17.390625 5.089844 22.179688 10.996094 22.179688 C 16.902344 22.179688 21.691406 17.390625 21.691406 11.484375 C 21.691406 5.578125 16.902344 0.789062 10.996094 0.789062 Z M 10.996094 0.789062 " clip-rule="nonzero"/></clipPath><clipPath id="72e4544593"><rect x="0" width="22" y="0" height="23"/></clipPath><clipPath id="dc1cbc36c3"><path d="M 12 13 L 23 13 L 23 18.433594 L 12 18.433594 Z M 12 13 " clip-rule="nonzero"/></clipPath><clipPath id="4f32ad795a"><path d="M 12 17 L 14 17 L 14 18.433594 L 12 18.433594 Z M 12 17 " clip-rule="nonzero"/></clipPath><clipPath id="3ab2e948a2"><path d="M 7.308594 16 L 10 16 L 10 18.433594 L 7.308594 18.433594 Z M 7.308594 16 " clip-rule="nonzero"/></clipPath><clipPath id="6eb6a7fe12"><path d="M 7.308594 9 L 11 9 L 11 18.433594 L 7.308594 18.433594 Z M 7.308594 9 " clip-rule="nonzero"/></clipPath><clipPath id="52c3378002"><path d="M 10 13 L 13 13 L 13 18.433594 L 10 18.433594 Z M 10 13 " clip-rule="nonzero"/></clipPath><clipPath id="851b9aef46"><path d="M 12 16 L 17 16 L 17 18.433594 L 12 18.433594 Z M 12 16 " clip-rule="nonzero"/></clipPath><clipPath id="e04d91d590"><path d="M 9 6.460938 L 13 6.460938 L 13 9 L 9 9 Z M 9 6.460938 " clip-rule="nonzero"/></clipPath></defs><g clip-path="url(#f57bd8049a)"><g clip-path="url(#ee03e34c4f)"><g transform="matrix(1, 0, 0, 1, 3, 0.000000000000005773)"><g clip-path="url(#4a2ee5302a)"><g clip-path="url(#538748055a)"><g clip-path="url(#ba0cda2cda)"><path fill="#faab11" d="M 0.167969 0.683594 L 23.832031 0.683594 L 23.832031 29.25 L 0.167969 29.25 Z M 0.167969 0.683594 " fill-opacity="1" fill-rule="nonzero"/></g></g></g></g></g></g><g clip-path="url(#396b18952c)"><g clip-path="url(#fedb4a5342)"><g transform="matrix(1, 0, 0, 1, 4, 1)"><g clip-path="url(#72e4544593)"><g clip-path="url(#1bf5fcbf4f)"><g clip-path="url(#316359b444)"><rect x="-10.6" width="43.2" fill="#ffffff" height="54.6048" y="-9.3424" fill-opacity="1"/></g></g></g></g></g></g><g clip-path="url(#dc1cbc36c3)"><path fill="#1800ad" d="M 13.515625 13.867188 C 13.507812 13.871094 13.503906 13.878906 13.5 13.886719 L 13.527344 13.886719 L 13.273438 14.328125 L 12.523438 14.328125 L 12.523438 14.355469 L 13.257812 14.355469 L 12.890625 15 L 12.523438 15 L 12.523438 15.039062 L 12.867188 15.039062 L 12.523438 15.636719 L 12.523438 15.851562 L 12.96875 15.039062 L 14.949219 15.039062 L 14.933594 16.054688 L 12.523438 16.054688 L 12.523438 16.121094 L 14.933594 16.121094 L 14.933594 16.15625 L 15.0625 16.15625 L 15.0625 16.121094 L 17.621094 16.121094 L 18.621094 17.960938 L 16.074219 17.960938 L 16.066406 18.09375 L 22.671875 18.09375 L 17.878906 13.867188 Z M 14.949219 15 L 12.988281 15 L 13.339844 14.355469 L 14.957031 14.355469 Z M 14.957031 14.328125 L 13.355469 14.328125 L 13.597656 13.882812 L 14.964844 13.882812 Z M 15.035156 13.882812 L 16.398438 13.882812 L 16.640625 14.328125 L 15.039062 14.328125 Z M 15.039062 14.355469 L 16.65625 14.355469 L 17.007812 15 L 15.046875 15 Z M 15.0625 16.054688 L 15.050781 15.039062 L 17.027344 15.039062 L 17.582031 16.054688 Z M 18.804688 17.960938 L 17.75 16.121094 L 20.308594 16.121094 L 22.339844 17.960938 Z M 17.710938 16.054688 L 17.128906 15.039062 L 19.109375 15.039062 L 20.230469 16.054688 Z M 17.105469 15 L 16.738281 14.355469 L 18.355469 14.355469 L 19.066406 15 Z M 16.722656 14.328125 L 16.46875 13.882812 L 17.832031 13.882812 L 18.324219 14.328125 Z M 16.722656 14.328125 " fill-opacity="1" fill-rule="nonzero"/></g><g clip-path="url(#4f32ad795a)"><path fill="#1800ad" d="M 12.511719 17.960938 C 12.503906 18.003906 12.496094 18.050781 12.480469 18.09375 L 13.253906 18.09375 L 13.246094 17.960938 Z M 12.511719 17.960938 " fill-opacity="1" fill-rule="nonzero"/></g><g clip-path="url(#3ab2e948a2)"><path fill="#1800ad" d="M 7.65625 17.960938 L 9.1875 16.574219 L 9.1875 16.449219 L 7.328125 18.09375 L 9.234375 18.09375 C 9.21875 18.050781 9.210938 18.003906 9.203125 17.960938 Z M 7.65625 17.960938 " fill-opacity="1" fill-rule="nonzero"/></g><g clip-path="url(#6eb6a7fe12)"><path fill="#1800ad" d="M 9.492188 17.808594 C 9.492188 18.152344 9.769531 18.433594 10.117188 18.433594 C 10.460938 18.433594 10.738281 18.152344 10.738281 17.808594 L 10.738281 13.644531 C 10.03125 13.632812 9.636719 13.542969 9.492188 13.5 L 9.492188 13.605469 L 9.15625 13.546875 C 9.167969 13.503906 9.171875 13.460938 9.167969 13.417969 C 9.148438 13.082031 9.140625 12.777344 9.140625 12.5 C 9.136719 11.277344 9.316406 10.589844 9.492188 10.230469 L 9.492188 13.046875 L 9.886719 10.503906 L 9.890625 10.503906 L 9.890625 9.015625 C 9.882812 9.015625 9.878906 9.015625 9.875 9.015625 C 9.785156 9.015625 9.628906 9.03125 9.449219 9.121094 C 9.175781 9.257812 8.882812 9.550781 8.679688 10.074219 C 8.472656 10.597656 8.332031 11.355469 8.332031 12.5 C 8.332031 12.777344 8.339844 13.078125 8.359375 13.402344 L 8.054688 13.347656 L 8.015625 13.34375 C 8.003906 13.339844 7.988281 13.339844 7.980469 13.339844 C 7.882812 13.339844 7.796875 13.410156 7.78125 13.507812 L 7.695312 13.988281 L 7.484375 13.953125 L 7.421875 14.308594 L 9.1875 14.621094 L 9.492188 14.675781 Z M 7.980469 13.542969 L 8.066406 13.558594 L 8.402344 13.617188 C 8.464844 13.753906 8.605469 13.847656 8.765625 13.847656 C 8.773438 13.847656 8.78125 13.847656 8.789062 13.84375 C 8.890625 13.839844 8.980469 13.796875 9.046875 13.730469 L 9.492188 13.808594 L 9.492188 14.308594 L 9.1875 14.253906 L 7.894531 14.023438 Z M 7.980469 13.542969 " fill-opacity="1" fill-rule="nonzero"/></g><path fill="#1800ad" d="M 10.140625 9.019531 L 11.570312 9.019531 L 11.570312 10.503906 L 10.140625 10.503906 Z M 10.140625 9.019531 " fill-opacity="1" fill-rule="nonzero"/><path fill="#1800ad" d="M 11.824219 10.503906 L 11.828125 10.503906 L 12.222656 13.046875 L 12.222656 10.234375 C 12.253906 10.292969 12.28125 10.363281 12.3125 10.449219 C 12.453125 10.839844 12.574219 11.488281 12.574219 12.5 C 12.574219 12.777344 12.566406 13.082031 12.546875 13.417969 C 12.53125 13.640625 12.703125 13.832031 12.925781 13.84375 C 12.933594 13.847656 12.941406 13.847656 12.949219 13.847656 C 13.160156 13.847656 13.339844 13.679688 13.351562 13.464844 C 13.371094 13.117188 13.382812 12.792969 13.382812 12.5 C 13.378906 10.976562 13.136719 10.132812 12.804688 9.625 C 12.636719 9.375 12.445312 9.210938 12.265625 9.121094 C 12.085938 9.03125 11.929688 9.015625 11.839844 9.015625 C 11.832031 9.015625 11.828125 9.015625 11.824219 9.015625 Z M 11.824219 10.503906 " fill-opacity="1" fill-rule="nonzero"/><g clip-path="url(#52c3378002)"><path fill="#1800ad" d="M 12.222656 17.808594 L 12.222656 13.5 C 12.074219 13.542969 11.683594 13.632812 10.972656 13.644531 L 10.972656 17.808594 C 10.972656 18.152344 11.253906 18.433594 11.597656 18.433594 C 11.941406 18.433594 12.222656 18.152344 12.222656 17.808594 Z M 12.222656 17.808594 " fill-opacity="1" fill-rule="nonzero"/></g><path fill="#1800ad" d="M 10.339844 10.832031 C 10.339844 10.929688 10.292969 10.980469 10.195312 10.980469 C 10.097656 10.980469 10.050781 10.929688 10.050781 10.832031 C 10.050781 10.738281 10.097656 10.6875 10.195312 10.6875 C 10.292969 10.6875 10.339844 10.738281 10.339844 10.832031 Z M 10.339844 10.832031 " fill-opacity="1" fill-rule="nonzero"/><path fill="#1800ad" d="M 11.664062 10.832031 C 11.664062 10.929688 11.613281 10.980469 11.515625 10.980469 C 11.421875 10.980469 11.371094 10.929688 11.371094 10.832031 C 11.371094 10.738281 11.421875 10.6875 11.515625 10.6875 C 11.613281 10.6875 11.664062 10.738281 11.664062 10.832031 Z M 11.664062 10.832031 " fill-opacity="1" fill-rule="nonzero"/><g clip-path="url(#851b9aef46)"><path fill="#1800ad" d="M 12.964844 17.546875 C 12.964844 17.5625 12.96875 17.582031 12.976562 17.597656 C 13.007812 17.652344 13.070312 17.664062 13.132812 17.664062 C 13.160156 17.664062 13.195312 17.660156 13.230469 17.65625 C 13.257812 17.652344 13.289062 17.644531 13.324219 17.636719 C 13.378906 17.621094 13.441406 17.605469 13.507812 17.582031 L 13.492188 17.53125 L 13.472656 17.484375 C 13.410156 17.507812 13.351562 17.527344 13.300781 17.539062 C 13.273438 17.542969 13.246094 17.550781 13.222656 17.554688 C 13.1875 17.558594 13.15625 17.5625 13.132812 17.5625 C 13.105469 17.5625 13.085938 17.558594 13.078125 17.554688 C 13.066406 17.550781 13.066406 17.550781 13.066406 17.550781 C 13.066406 17.550781 13.066406 17.550781 13.066406 17.546875 C 13.058594 17.53125 13.109375 17.449219 13.207031 17.363281 C 13.210938 17.363281 13.210938 17.363281 13.210938 17.359375 C 13.289062 17.296875 13.386719 17.222656 13.503906 17.148438 L 13.523438 17.46875 C 13.640625 17.421875 13.777344 17.363281 13.914062 17.292969 C 14.199219 17.140625 14.433594 16.972656 14.542969 16.851562 C 14.515625 16.824219 14.5 16.785156 14.5 16.746094 C 14.5 16.65625 14.574219 16.585938 14.660156 16.585938 C 14.75 16.585938 14.820312 16.65625 14.820312 16.746094 C 14.820312 16.832031 14.75 16.90625 14.660156 16.90625 C 14.652344 16.90625 14.644531 16.902344 14.636719 16.902344 C 14.597656 16.945312 14.546875 16.992188 14.488281 17.042969 C 14.355469 17.152344 14.171875 17.269531 13.960938 17.378906 C 13.808594 17.460938 13.660156 17.523438 13.527344 17.574219 L 13.574219 18.410156 L 15.746094 18.410156 L 15.835938 16.785156 L 16.007812 16.785156 L 16.007812 16.457031 L 13.3125 16.457031 L 13.3125 16.785156 L 13.484375 16.785156 L 13.496094 17.035156 C 13.386719 17.101562 13.285156 17.171875 13.207031 17.234375 C 13.183594 17.253906 13.160156 17.269531 13.140625 17.289062 C 13.039062 17.382812 12.96875 17.457031 12.964844 17.546875 Z M 12.964844 17.546875 " fill-opacity="1" fill-rule="nonzero"/></g><g clip-path="url(#e04d91d590)"><path fill="#1800ad" d="M 11.046875 8.714844 C 11.535156 8.632812 11.914062 8.242188 11.980469 7.75 C 11.878906 7.742188 11.773438 7.734375 11.660156 7.714844 C 11.078125 7.625 10.628906 7.398438 10.644531 7.203125 C 10.71875 7.375 11.171875 7.511719 11.714844 7.511719 C 12.128906 7.511719 12.484375 7.433594 12.667969 7.320312 C 12.753906 7.269531 12.800781 7.210938 12.800781 7.148438 C 12.800781 6.949219 12.316406 6.789062 11.714844 6.789062 C 11.695312 6.789062 11.675781 6.789062 11.65625 6.789062 C 11.449219 6.585938 11.167969 6.460938 10.855469 6.460938 C 10.230469 6.460938 9.722656 6.96875 9.722656 7.597656 C 9.722656 8.15625 10.128906 8.625 10.664062 8.714844 C 10.726562 8.726562 10.792969 8.730469 10.855469 8.730469 C 10.921875 8.730469 10.988281 8.726562 11.046875 8.714844 Z M 11.046875 8.714844 " fill-opacity="1" fill-rule="nonzero"/></g></svg>