<svg xmlns="http://www.w3.org/2000/svg" xmlns:xlink="http://www.w3.org/1999/xlink" width="40" zoomAndPan="magnify" viewBox="0 0 30 37.92" height="40" preserveAspectRatio="xMidYMid meet" version="1.0"><defs><clipPath id="5e7bc341d7"><path d="M 3.113281 0.683594 L 26.886719 0.683594 L 26.886719 29.300781 L 3.113281 29.300781 Z M 3.113281 0.683594 " clip-rule="nonzero"/></clipPath><clipPath id="8c58de2552"><path d="M 19.457031 1.550781 C 18.035156 0.976562 16.539062 0.683594 15 0.683594 C 13.460938 0.683594 11.964844 0.976562 10.542969 1.550781 C 9.078125 2.144531 7.757812 3.019531 6.632812 4.148438 C 4.429688 6.355469 3.199219 9.285156 3.167969 12.402344 C 3.136719 15.511719 4.304688 18.464844 6.460938 20.707031 L 6.453125 20.710938 L 15 29.257812 L 23.5 20.757812 L 23.492188 20.753906 C 25.667969 18.511719 26.855469 15.558594 26.832031 12.433594 C 26.8125 9.300781 25.582031 6.363281 23.367188 4.148438 C 22.234375 3.019531 20.921875 2.144531 19.457031 1.550781 Z M 19.457031 1.550781 " clip-rule="nonzero"/></clipPath><clipPath id="d925d09f43"><path d="M 0.144531 0.683594 L 23.855469 0.683594 L 23.855469 29.300781 L 0.144531 29.300781 Z M 0.144531 0.683594 " clip-rule="nonzero"/></clipPath><clipPath id="ad5be4c914"><path d="M 16.457031 1.550781 C 15.035156 0.976562 13.539062 0.683594 12 0.683594 C 10.460938 0.683594 8.964844 0.976562 7.542969 1.550781 C 6.078125 2.144531 4.757812 3.019531 3.632812 4.148438 C 1.429688 6.355469 0.199219 9.285156 0.167969 12.402344 C 0.136719 15.511719 1.304688 18.464844 3.460938 20.707031 L 3.453125 20.710938 L 12 29.257812 L 20.5 20.757812 L 20.492188 20.753906 C 22.667969 18.511719 23.855469 15.558594 23.832031 12.433594 C 23.8125 9.300781 22.582031 6.363281 20.367188 4.148438 C 19.234375 3.019531 17.921875 2.144531 16.457031 1.550781 Z M 16.457031 1.550781 " clip-rule="nonzero"/></clipPath><clipPath id="efc4482bcf"><rect x="0" width="24" y="0" height="30"/></clipPath><clipPath id="2c8150f3f2"><path d="M 4.261719 1.777344 L 25.738281 1.777344 L 25.738281 23.203125 L 4.261719 23.203125 Z M 4.261719 1.777344 " clip-rule="nonzero"/></clipPath><clipPath id="dc1084a3c2"><path d="M 14.996094 1.789062 C 9.089844 1.789062 4.300781 6.578125 4.300781 12.484375 C 4.300781 18.390625 9.089844 23.179688 14.996094 23.179688 C 20.902344 23.179688 25.691406 18.390625 25.691406 12.484375 C 25.691406 6.578125 20.902344 1.789062 14.996094 1.789062 Z M 14.996094 1.789062 " clip-rule="nonzero"/></clipPath><clipPath id="9ea78c5848"><path d="M 0.261719 0.777344 L 21.738281 0.777344 L 21.738281 22.203125 L 0.261719 22.203125 Z M 0.261719 0.777344 " clip-rule="nonzero"/></clipPath><clipPath id="7a8b7d0adb"><path d="M 10.996094 0.789062 C 5.089844 0.789062 0.300781 5.578125 0.300781 11.484375 C 0.300781 17.390625 5.089844 22.179688 10.996094 22.179688 C 16.902344 22.179688 21.691406 17.390625 21.691406 11.484375 C 21.691406 5.578125 16.902344 0.789062 10.996094 0.789062 Z M 10.996094 0.789062 " clip-rule="nonzero"/></clipPath><clipPath id="fa4642d0e9"><rect x="0" width="22" y="0" height="23"/></clipPath><clipPath id="693436968f"><path d="M 13 14 L 18 14 L 18 21.703125 L 13 21.703125 Z M 13 14 " clip-rule="nonzero"/></clipPath><clipPath id="9fcfd6323a"><path d="M 17 15 L 20.972656 15 L 20.972656 21 L 17 21 Z M 17 15 " clip-rule="nonzero"/></clipPath></defs><g clip-path="url(#5e7bc341d7)"><g clip-path="url(#8c58de2552)"><g transform="matrix(1, 0, 0, 1, 3, 0.000000000000005773)"><g clip-path="url(#efc4482bcf)"><g clip-path="url(#d925d09f43)"><g clip-path="url(#ad5be4c914)"><path fill="#faab11" d="M 0.167969 0.683594 L 23.832031 0.683594 L 23.832031 29.25 L 0.167969 29.25 Z M 0.167969 0.683594 " fill-opacity="1" fill-rule="nonzero"/></g></g></g></g></g></g><g clip-path="url(#2c8150f3f2)"><g clip-path="url(#dc1084a3c2)"><g transform="matrix(1, 0, 0, 1, 4, 1)"><g clip-path="url(#fa4642d0e9)"><g clip-path="url(#9ea78c5848)"><g clip-path="url(#7a8b7d0adb)"><rect x="-10.6" width="43.2" fill="#ffffff" height="54.6048" y="-9.3424" fill-opacity="1"/></g></g></g></g></g></g><path fill="#1800ad" d="M 9.875 12.792969 C 9.910156 12.960938 10.023438 13.09375 10.167969 13.167969 L 10.167969 12.191406 C 9.945312 12.292969 9.820312 12.542969 9.875 12.792969 Z M 9.875 12.792969 " fill-opacity="1" fill-rule="nonzero"/><path fill="#1800ad" d="M 12.859375 15.777344 C 12.859375 15.425781 12.578125 15.144531 12.226562 15.144531 L 11.171875 15.144531 C 10.902344 15.144531 10.675781 14.921875 10.675781 14.648438 L 10.675781 13.734375 C 10.738281 13.707031 10.78125 13.648438 10.78125 13.578125 L 10.78125 11.378906 C 10.78125 11.308594 10.738281 11.25 10.679688 11.222656 L 10.679688 10.75 C 10.679688 10.714844 10.648438 10.683594 10.609375 10.683594 L 9.78125 10.683594 L 9.78125 10.335938 C 9.78125 10.296875 9.75 10.265625 9.710938 10.265625 C 9.675781 10.265625 9.644531 10.296875 9.644531 10.335938 L 9.644531 10.75 C 9.644531 10.789062 9.675781 10.820312 9.710938 10.820312 L 10.542969 10.820312 L 10.542969 11.222656 C 10.480469 11.25 10.441406 11.308594 10.441406 11.378906 L 10.441406 13.578125 C 10.441406 13.648438 10.480469 13.707031 10.542969 13.734375 L 10.542969 14.648438 C 10.542969 14.996094 10.824219 15.28125 11.171875 15.28125 L 12.226562 15.28125 C 12.5 15.28125 12.722656 15.503906 12.722656 15.777344 L 12.722656 19.058594 C 12.722656 19.210938 12.777344 19.351562 12.867188 19.460938 L 12.882812 19.207031 C 12.867188 19.160156 12.859375 19.113281 12.859375 19.058594 Z M 12.859375 15.777344 " fill-opacity="1" fill-rule="nonzero"/><path fill="#1800ad" d="M 15.21875 17.148438 L 15.21875 19.058594 C 15.21875 19.203125 15.15625 19.335938 15.054688 19.429688 L 15.042969 19.605469 C 15.226562 19.496094 15.355469 19.292969 15.355469 19.058594 L 15.355469 16.886719 L 15.289062 16.128906 Z M 15.21875 17.148438 " fill-opacity="1" fill-rule="nonzero"/><path fill="#1800ad" d="M 13.6875 11.003906 L 13.6875 7.183594 C 13.402344 7.324219 12.691406 7.746094 12.601562 8.046875 C 12.164062 9.460938 11.578125 10.714844 11.054688 11.457031 L 11.054688 12.976562 C 11.847656 12.464844 12.507812 11.261719 12.976562 10.175781 L 13.039062 11.003906 Z M 13.6875 11.003906 " fill-opacity="1" fill-rule="nonzero"/><path fill="#1800ad" d="M 14.691406 6.863281 L 14.691406 8.234375 L 15.882812 8.234375 L 15.882812 6.894531 C 15.480469 6.8125 15.082031 6.804688 14.691406 6.863281 Z M 14.691406 6.863281 " fill-opacity="1" fill-rule="nonzero"/><g clip-path="url(#693436968f)"><path fill="#1800ad" d="M 17.21875 15.089844 L 17.261719 14.535156 L 13.308594 14.535156 L 13.351562 15.089844 C 13.355469 15.148438 13.394531 15.195312 13.441406 15.222656 L 13.054688 20.632812 C 13.023438 21.082031 13.363281 21.472656 13.8125 21.503906 C 14.257812 21.539062 14.65625 21.203125 14.6875 20.746094 L 15.074219 15.304688 C 15.078125 15.285156 15.074219 15.265625 15.074219 15.246094 L 15.496094 15.246094 C 15.496094 15.269531 15.492188 15.289062 15.496094 15.3125 L 15.945312 20.757812 C 15.980469 21.183594 16.339844 21.507812 16.757812 21.507812 C 17.238281 21.507812 17.613281 21.097656 17.574219 20.621094 L 17.128906 15.222656 C 17.179688 15.195312 17.214844 15.148438 17.21875 15.089844 Z M 17.21875 15.089844 " fill-opacity="1" fill-rule="nonzero"/></g><path fill="#1800ad" d="M 16.882812 7.242188 L 16.882812 11.003906 L 17.53125 11.003906 L 17.667969 9.226562 C 18.132812 9.867188 18.621094 11.007812 17.636719 12.265625 C 17.449219 12.5 17.492188 12.84375 17.726562 13.027344 C 17.964844 13.214844 18.308594 13.171875 18.492188 12.9375 C 20.039062 10.964844 19.28125 8.386719 16.882812 7.242188 Z M 16.882812 7.242188 " fill-opacity="1" fill-rule="nonzero"/><path fill="#1800ad" d="M 13.980469 5.425781 C 15.382812 5.046875 16.578125 5.398438 16.578125 5.398438 C 16.605469 5.375 16.882812 5.121094 16.855469 5.148438 C 16.90625 4.050781 16.152344 3.664062 16.152344 3.664062 C 15.765625 4.078125 15.707031 5 15.6875 5.050781 C 15.625 3.9375 16.046875 3.496094 16.058594 3.464844 C 15.148438 2.980469 14.523438 3.464844 14.523438 3.464844 C 14.957031 4.050781 14.867188 5.019531 14.875 5.050781 C 14.730469 4.128906 14.539062 3.941406 14.398438 3.703125 C 13.574219 4.175781 13.726562 5.148438 13.726562 5.148438 C 13.75 5.175781 14.007812 5.453125 13.980469 5.425781 Z M 13.980469 5.425781 " fill-opacity="1" fill-rule="nonzero"/><path fill="#1800ad" d="M 13.960938 5.835938 C 14.21875 6.308594 14.714844 6.625 15.285156 6.625 C 15.855469 6.625 16.347656 6.308594 16.609375 5.84375 C 16.691406 5.824219 16.738281 5.8125 16.738281 5.8125 L 17.046875 5.480469 L 17.046875 5.355469 L 16.886719 5.371094 C 16.859375 5.398438 16.585938 5.675781 16.617188 5.644531 C 15.199219 5.246094 13.957031 5.644531 13.957031 5.644531 C 13.925781 5.613281 13.859375 5.554688 13.671875 5.371094 L 13.523438 5.355469 L 13.523438 5.511719 L 13.847656 5.8125 C 13.886719 5.820312 13.921875 5.828125 13.960938 5.835938 Z M 13.960938 5.835938 " fill-opacity="1" fill-rule="nonzero"/><path fill="#1800ad" d="M 17.453125 12.054688 C 17.457031 12.027344 17.507812 11.222656 17.503906 11.273438 L 16.613281 11.273438 L 16.613281 7.121094 C 16.460938 7.058594 16.308594 7.003906 16.15625 6.960938 L 16.15625 8.507812 L 14.417969 8.507812 L 14.417969 6.914062 C 14.265625 6.957031 14.109375 7.003906 13.957031 7.058594 L 13.957031 11.273438 L 13.070312 11.273438 L 13.070312 11.394531 L 13.246094 13.679688 L 13.289062 14.261719 L 17.28125 14.261719 L 17.328125 13.679688 L 17.378906 13.039062 C 17.199219 12.773438 17.183594 12.394531 17.453125 12.054688 Z M 17.453125 12.054688 " fill-opacity="1" fill-rule="nonzero"/><g clip-path="url(#9fcfd6323a)"><path fill="#1800ad" d="M 20.152344 16.101562 L 20.191406 16.101562 L 20.191406 15.867188 L 19.863281 15.867188 L 19.863281 15.773438 C 19.953125 15.746094 20.019531 15.664062 20.019531 15.5625 C 20.019531 15.464844 19.953125 15.382812 19.863281 15.351562 L 19.863281 15.261719 L 19.921875 15.261719 L 19.957031 15.164062 L 19.632812 15.164062 L 19.664062 15.261719 L 19.726562 15.261719 L 19.726562 15.351562 C 19.65625 15.375 19.605469 15.425781 19.582031 15.496094 L 19.347656 15.496094 C 19.320312 15.429688 19.257812 15.386719 19.183594 15.386719 C 19.109375 15.386719 19.046875 15.429688 19.019531 15.496094 L 17.425781 15.496094 L 17.433594 15.632812 L 19.019531 15.632812 C 19.046875 15.695312 19.109375 15.742188 19.183594 15.742188 C 19.257812 15.742188 19.320312 15.695312 19.347656 15.632812 L 19.582031 15.632812 C 19.605469 15.699219 19.65625 15.75 19.726562 15.773438 L 19.726562 15.867188 L 19.394531 15.867188 L 19.394531 16.101562 L 19.433594 16.101562 C 19.007812 16.101562 18.664062 16.445312 18.664062 16.871094 L 18.664062 19.921875 C 18.664062 20.347656 19.007812 20.6875 19.433594 20.6875 L 20.152344 20.6875 C 20.578125 20.6875 20.925781 20.347656 20.925781 19.921875 L 20.925781 16.871094 C 20.925781 16.445312 20.578125 16.101562 20.152344 16.101562 Z M 20.152344 16.101562 " fill-opacity="1" fill-rule="nonzero"/></g><path fill="#1800ad" d="M 9.929688 10.050781 C 9.964844 9.738281 9.636719 9.804688 9.75 9.167969 C 9.75 9.167969 9.070312 9.96875 9.644531 10.230469 C 9.644531 10.230469 9.894531 10.289062 9.929688 10.050781 Z M 9.929688 10.050781 " fill-opacity="1" fill-rule="nonzero"/></svg>