<svg xmlns="http://www.w3.org/2000/svg" xmlns:xlink="http://www.w3.org/1999/xlink" width="40" zoomAndPan="magnify" viewBox="0 0 30 37.92" height="40" preserveAspectRatio="xMidYMid meet" version="1.0"><defs><clipPath id="99b27de908"><path d="M 3.113281 0.683594 L 26.886719 0.683594 L 26.886719 29.300781 L 3.113281 29.300781 Z M 3.113281 0.683594 " clip-rule="nonzero"/></clipPath><clipPath id="d029a70929"><path d="M 19.457031 1.550781 C 18.035156 0.976562 16.539062 0.683594 15 0.683594 C 13.460938 0.683594 11.964844 0.976562 10.542969 1.550781 C 9.078125 2.144531 7.757812 3.019531 6.632812 4.148438 C 4.429688 6.355469 3.199219 9.285156 3.167969 12.402344 C 3.136719 15.511719 4.304688 18.464844 6.460938 20.707031 L 6.453125 20.710938 L 15 29.257812 L 23.5 20.757812 L 23.492188 20.753906 C 25.667969 18.511719 26.855469 15.558594 26.832031 12.433594 C 26.8125 9.300781 25.582031 6.363281 23.367188 4.148438 C 22.234375 3.019531 20.921875 2.144531 19.457031 1.550781 Z M 19.457031 1.550781 " clip-rule="nonzero"/></clipPath><clipPath id="f6dd67b604"><path d="M 0.144531 0.683594 L 23.855469 0.683594 L 23.855469 29.300781 L 0.144531 29.300781 Z M 0.144531 0.683594 " clip-rule="nonzero"/></clipPath><clipPath id="90e8475484"><path d="M 16.457031 1.550781 C 15.035156 0.976562 13.539062 0.683594 12 0.683594 C 10.460938 0.683594 8.964844 0.976562 7.542969 1.550781 C 6.078125 2.144531 4.757812 3.019531 3.632812 4.148438 C 1.429688 6.355469 0.199219 9.285156 0.167969 12.402344 C 0.136719 15.511719 1.304688 18.464844 3.460938 20.707031 L 3.453125 20.710938 L 12 29.257812 L 20.5 20.757812 L 20.492188 20.753906 C 22.667969 18.511719 23.855469 15.558594 23.832031 12.433594 C 23.8125 9.300781 22.582031 6.363281 20.367188 4.148438 C 19.234375 3.019531 17.921875 2.144531 16.457031 1.550781 Z M 16.457031 1.550781 " clip-rule="nonzero"/></clipPath><clipPath id="1ccd292060"><rect x="0" width="24" y="0" height="30"/></clipPath><clipPath id="7770c3ef9d"><path d="M 4.261719 1.777344 L 25.738281 1.777344 L 25.738281 23.203125 L 4.261719 23.203125 Z M 4.261719 1.777344 " clip-rule="nonzero"/></clipPath><clipPath id="a726f46566"><path d="M 14.996094 1.789062 C 9.089844 1.789062 4.300781 6.578125 4.300781 12.484375 C 4.300781 18.390625 9.089844 23.179688 14.996094 23.179688 C 20.902344 23.179688 25.691406 18.390625 25.691406 12.484375 C 25.691406 6.578125 20.902344 1.789062 14.996094 1.789062 Z M 14.996094 1.789062 " clip-rule="nonzero"/></clipPath><clipPath id="09c1129a85"><path d="M 0.261719 0.777344 L 21.738281 0.777344 L 21.738281 22.203125 L 0.261719 22.203125 Z M 0.261719 0.777344 " clip-rule="nonzero"/></clipPath><clipPath id="063c24f9ef"><path d="M 10.996094 0.789062 C 5.089844 0.789062 0.300781 5.578125 0.300781 11.484375 C 0.300781 17.390625 5.089844 22.179688 10.996094 22.179688 C 16.902344 22.179688 21.691406 17.390625 21.691406 11.484375 C 21.691406 5.578125 16.902344 0.789062 10.996094 0.789062 Z M 10.996094 0.789062 " clip-rule="nonzero"/></clipPath><clipPath id="5353c564ef"><rect x="0" width="22" y="0" height="23"/></clipPath><clipPath id="85c3fb30bf"><path d="M 17 4.078125 L 19.433594 4.078125 L 19.433594 21 L 17 21 Z M 17 4.078125 " clip-rule="nonzero"/></clipPath><clipPath id="4350fb4eb1"><path d="M 10.449219 14 L 13 14 L 13 21 L 10.449219 21 Z M 10.449219 14 " clip-rule="nonzero"/></clipPath><clipPath id="cee5a8ea58"><path d="M 10.449219 4.078125 L 14 4.078125 L 14 8 L 10.449219 8 Z M 10.449219 4.078125 " clip-rule="nonzero"/></clipPath><clipPath id="02ddc48295"><path d="M 10.449219 7 L 16 7 L 16 21 L 10.449219 21 Z M 10.449219 7 " clip-rule="nonzero"/></clipPath><clipPath id="73ae75e2e4"><path d="M 14 4.078125 L 19 4.078125 L 19 9 L 14 9 Z M 14 4.078125 " clip-rule="nonzero"/></clipPath></defs><g clip-path="url(#99b27de908)"><g clip-path="url(#d029a70929)"><g transform="matrix(1, 0, 0, 1, 3, 0.000000000000005773)"><g clip-path="url(#1ccd292060)"><g clip-path="url(#f6dd67b604)"><g clip-path="url(#90e8475484)"><path fill="#faab11" d="M 0.167969 0.683594 L 23.832031 0.683594 L 23.832031 29.25 L 0.167969 29.25 Z M 0.167969 0.683594 " fill-opacity="1" fill-rule="nonzero"/></g></g></g></g></g></g><g clip-path="url(#7770c3ef9d)"><g clip-path="url(#a726f46566)"><g transform="matrix(1, 0, 0, 1, 4, 1)"><g clip-path="url(#5353c564ef)"><g clip-path="url(#09c1129a85)"><g clip-path="url(#063c24f9ef)"><rect x="-10.6" width="43.2" fill="#ffffff" height="54.6048" y="-9.3424" fill-opacity="1"/></g></g></g></g></g></g><g clip-path="url(#85c3fb30bf)"><path fill="#1800ad" d="M 17.996094 4.085938 L 17.996094 4.410156 L 18.21875 4.410156 C 18.441406 4.410156 18.621094 4.585938 18.621094 4.8125 L 18.621094 5.382812 C 18.621094 5.605469 18.441406 5.785156 18.21875 5.785156 L 17.996094 5.785156 L 17.996094 20.214844 L 19.558594 20.214844 L 19.558594 4.085938 Z M 17.996094 4.085938 " fill-opacity="1" fill-rule="nonzero"/></g><path fill="#1800ad" d="M 16.210938 11.945312 C 16.132812 11.945312 16.054688 11.953125 15.984375 11.96875 C 15.851562 12.269531 15.539062 12.464844 15.132812 12.414062 C 14.882812 12.679688 14.734375 13.039062 14.734375 13.433594 L 14.734375 13.558594 L 15.023438 13.558594 L 15.023438 15.394531 L 17.394531 15.394531 L 17.394531 13.558594 L 17.6875 13.558594 L 17.6875 13.433594 C 17.6875 12.613281 17.023438 11.945312 16.210938 11.945312 Z M 17.394531 13.308594 L 17.394531 13.167969 L 17.175781 13.167969 L 17.179688 13.171875 C 17.191406 13.367188 17.195312 13.570312 17.191406 13.765625 C 17.191406 13.796875 17.1875 13.828125 17.175781 13.859375 C 17.144531 13.917969 17.042969 14.023438 17.027344 13.738281 C 17.027344 13.550781 16.875 13.6875 16.847656 13.703125 C 16.730469 13.792969 16.585938 13.757812 16.542969 13.554688 C 16.535156 13.507812 16.519531 13.480469 16.472656 13.5 C 16.363281 13.542969 16.34375 13.675781 16.242188 13.734375 C 16.1875 13.769531 16.105469 13.773438 16.078125 13.644531 C 16.058594 13.195312 15.890625 13.171875 15.878906 13.394531 C 15.875 13.511719 15.894531 13.628906 15.730469 13.714844 C 15.667969 13.75 15.59375 13.765625 15.519531 13.785156 C 15.496094 13.789062 15.464844 13.789062 15.449219 13.769531 C 15.441406 13.757812 15.445312 13.742188 15.449219 13.726562 C 15.460938 13.671875 15.464844 13.613281 15.480469 13.558594 C 15.441406 13.542969 15.394531 13.550781 15.355469 13.542969 C 15.289062 13.527344 15.246094 13.464844 15.230469 13.398438 C 15.21875 13.332031 15.230469 13.265625 15.246094 13.199219 C 15.246094 13.1875 15.246094 13.179688 15.25 13.167969 L 15.023438 13.167969 L 15.023438 13.308594 L 14.988281 13.308594 C 15.050781 12.683594 15.574219 12.199219 16.210938 12.199219 C 16.84375 12.199219 17.363281 12.683594 17.425781 13.308594 Z M 17.394531 13.308594 " fill-opacity="1" fill-rule="nonzero"/><path fill="#1800ad" d="M 14.992188 8.828125 L 15.699219 8.410156 L 15.699219 8.40625 C 15.550781 8.097656 15.554688 7.632812 15.742188 7.308594 C 15.644531 7.300781 15.542969 7.324219 15.453125 7.378906 L 14.601562 7.890625 L 13.53125 7.851562 C 13.816406 8.117188 14.015625 8.472656 14.070312 8.878906 C 14.625 8.878906 14.78125 8.957031 14.992188 8.828125 Z M 14.992188 8.828125 " fill-opacity="1" fill-rule="nonzero"/><g clip-path="url(#4350fb4eb1)"><path fill="#1800ad" d="M 11.082031 14.050781 C 10.453125 21.253906 10.667969 18.769531 10.621094 19.304688 C 10.578125 19.722656 10.875 20.09375 11.292969 20.140625 C 11.722656 20.179688 12.082031 19.875 12.125 19.46875 C 12.164062 19.035156 11.976562 21.027344 12.523438 15.25 L 12.324219 14.761719 C 11.820312 14.707031 11.375 14.445312 11.082031 14.050781 Z M 11.082031 14.050781 " fill-opacity="1" fill-rule="nonzero"/></g><g clip-path="url(#cee5a8ea58)"><path fill="#1800ad" d="M 12.078125 7.335938 C 12.765625 7.375 13.351562 6.851562 13.394531 6.164062 C 13.433594 5.480469 12.914062 4.894531 12.226562 4.851562 C 11.542969 4.808594 10.953125 5.332031 10.910156 6.015625 C 10.871094 6.703125 11.394531 7.292969 12.078125 7.335938 Z M 12.078125 7.335938 " fill-opacity="1" fill-rule="nonzero"/></g><path fill="#1800ad" d="M 15.308594 11.164062 C 13.761719 11.101562 12.917969 10.308594 12.75 9.402344 C 12.714844 9.125 12.464844 8.933594 12.191406 8.96875 C 11.914062 9.003906 11.71875 9.253906 11.753906 9.53125 C 11.914062 10.792969 13.144531 12.085938 15.269531 12.171875 C 15.292969 12.160156 15.777344 12.164062 15.792969 11.6875 C 15.804688 11.40625 15.585938 11.171875 15.308594 11.164062 Z M 15.308594 11.164062 " fill-opacity="1" fill-rule="nonzero"/><g clip-path="url(#02ddc48295)"><path fill="#1800ad" d="M 14.699219 15.957031 C 14.691406 15.894531 14.675781 15.832031 14.648438 15.773438 C 14.636719 15.746094 13.761719 13.625 13.816406 13.757812 C 13.957031 13.519531 14.03125 13.238281 14.015625 12.9375 L 13.984375 12.222656 C 12.25 11.703125 11.601562 10.339844 11.5 9.5625 C 11.453125 9.148438 11.742188 8.769531 12.160156 8.71875 C 12.566406 8.664062 12.945312 8.957031 13 9.363281 C 13.019531 9.472656 13.152344 10.136719 13.910156 10.5625 L 13.839844 9.078125 C 13.8125 8.277344 13.125 7.597656 12.261719 7.632812 C 11.425781 7.671875 10.78125 8.378906 10.820312 9.210938 L 10.996094 13.074219 C 11.003906 13.253906 11.042969 13.425781 11.109375 13.585938 L 11.109375 13.589844 C 11.351562 14.15625 11.898438 14.515625 12.496094 14.515625 C 12.585938 14.730469 13.257812 16.363281 13.214844 16.257812 L 13.652344 19.488281 C 13.710938 19.921875 14.121094 20.195312 14.503906 20.136719 C 14.917969 20.078125 15.207031 19.699219 15.152344 19.285156 Z M 14.699219 15.957031 " fill-opacity="1" fill-rule="nonzero"/></g><g clip-path="url(#73ae75e2e4)"><path fill="#1800ad" d="M 16.085938 7.296875 C 15.707031 7.539062 15.808594 8.542969 16.207031 8.542969 C 16.613281 8.542969 16.699219 7.515625 16.320312 7.289062 L 16.320312 6.792969 L 14.703125 5.78125 L 14.703125 5.210938 L 15.007812 5.210938 L 15.007812 5.382812 C 15.007812 5.464844 15.074219 5.53125 15.15625 5.53125 C 16.074219 5.53125 16.820312 5.53125 18.21875 5.53125 C 18.304688 5.53125 18.371094 5.464844 18.371094 5.382812 L 18.371094 4.8125 C 18.371094 4.726562 18.304688 4.660156 18.21875 4.660156 C 17.332031 4.660156 16.542969 4.660156 15.15625 4.660156 C 15.074219 4.660156 15.007812 4.726562 15.007812 4.8125 L 15.007812 4.976562 L 14.46875 4.976562 L 14.46875 5.929688 L 16.085938 6.945312 Z M 16.085938 7.296875 " fill-opacity="1" fill-rule="nonzero"/></g></svg>