<svg xmlns="http://www.w3.org/2000/svg" xmlns:xlink="http://www.w3.org/1999/xlink" width="40" zoomAndPan="magnify" viewBox="0 0 30 37.92" height="40" preserveAspectRatio="xMidYMid meet" version="1.0"><defs><clipPath id="e129b47648"><path d="M 3.113281 0.683594 L 26.886719 0.683594 L 26.886719 29.300781 L 3.113281 29.300781 Z M 3.113281 0.683594 " clip-rule="nonzero"/></clipPath><clipPath id="30c430a6aa"><path d="M 19.457031 1.550781 C 18.035156 0.976562 16.539062 0.683594 15 0.683594 C 13.460938 0.683594 11.964844 0.976562 10.542969 1.550781 C 9.078125 2.144531 7.757812 3.019531 6.632812 4.148438 C 4.429688 6.355469 3.199219 9.285156 3.167969 12.402344 C 3.136719 15.511719 4.304688 18.464844 6.460938 20.707031 L 6.453125 20.710938 L 15 29.257812 L 23.5 20.757812 L 23.492188 20.753906 C 25.667969 18.511719 26.855469 15.558594 26.832031 12.433594 C 26.8125 9.300781 25.582031 6.363281 23.367188 4.148438 C 22.234375 3.019531 20.921875 2.144531 19.457031 1.550781 Z M 19.457031 1.550781 " clip-rule="nonzero"/></clipPath><clipPath id="756a5ec69c"><path d="M 0.144531 0.683594 L 23.855469 0.683594 L 23.855469 29.300781 L 0.144531 29.300781 Z M 0.144531 0.683594 " clip-rule="nonzero"/></clipPath><clipPath id="4e9d0f84fa"><path d="M 16.457031 1.550781 C 15.035156 0.976562 13.539062 0.683594 12 0.683594 C 10.460938 0.683594 8.964844 0.976562 7.542969 1.550781 C 6.078125 2.144531 4.757812 3.019531 3.632812 4.148438 C 1.429688 6.355469 0.199219 9.285156 0.167969 12.402344 C 0.136719 15.511719 1.304688 18.464844 3.460938 20.707031 L 3.453125 20.710938 L 12 29.257812 L 20.5 20.757812 L 20.492188 20.753906 C 22.667969 18.511719 23.855469 15.558594 23.832031 12.433594 C 23.8125 9.300781 22.582031 6.363281 20.367188 4.148438 C 19.234375 3.019531 17.921875 2.144531 16.457031 1.550781 Z M 16.457031 1.550781 " clip-rule="nonzero"/></clipPath><clipPath id="1b4555feab"><rect x="0" width="24" y="0" height="30"/></clipPath><clipPath id="1de38f77d3"><path d="M 4.261719 1.777344 L 25.738281 1.777344 L 25.738281 23.203125 L 4.261719 23.203125 Z M 4.261719 1.777344 " clip-rule="nonzero"/></clipPath><clipPath id="4bad69cad7"><path d="M 14.996094 1.789062 C 9.089844 1.789062 4.300781 6.578125 4.300781 12.484375 C 4.300781 18.390625 9.089844 23.179688 14.996094 23.179688 C 20.902344 23.179688 25.691406 18.390625 25.691406 12.484375 C 25.691406 6.578125 20.902344 1.789062 14.996094 1.789062 Z M 14.996094 1.789062 " clip-rule="nonzero"/></clipPath><clipPath id="b21d5ad81f"><path d="M 0.261719 0.777344 L 21.738281 0.777344 L 21.738281 22.203125 L 0.261719 22.203125 Z M 0.261719 0.777344 " clip-rule="nonzero"/></clipPath><clipPath id="272794ee23"><path d="M 10.996094 0.789062 C 5.089844 0.789062 0.300781 5.578125 0.300781 11.484375 C 0.300781 17.390625 5.089844 22.179688 10.996094 22.179688 C 16.902344 22.179688 21.691406 17.390625 21.691406 11.484375 C 21.691406 5.578125 16.902344 0.789062 10.996094 0.789062 Z M 10.996094 0.789062 " clip-rule="nonzero"/></clipPath><clipPath id="dd91455fcc"><rect x="0" width="22" y="0" height="23"/></clipPath><clipPath id="baf6e78e04"><path d="M 7.824219 5.578125 L 22.042969 5.578125 L 22.042969 19.796875 L 7.824219 19.796875 Z M 7.824219 5.578125 " clip-rule="nonzero"/></clipPath></defs><g clip-path="url(#e129b47648)"><g clip-path="url(#30c430a6aa)"><g transform="matrix(1, 0, 0, 1, 3, 0.000000000000005773)"><g clip-path="url(#1b4555feab)"><g clip-path="url(#756a5ec69c)"><g clip-path="url(#4e9d0f84fa)"><path fill="#faab11" d="M 0.167969 0.683594 L 23.832031 0.683594 L 23.832031 29.25 L 0.167969 29.25 Z M 0.167969 0.683594 " fill-opacity="1" fill-rule="nonzero"/></g></g></g></g></g></g><g clip-path="url(#1de38f77d3)"><g clip-path="url(#4bad69cad7)"><g transform="matrix(1, 0, 0, 1, 4, 1)"><g clip-path="url(#dd91455fcc)"><g clip-path="url(#b21d5ad81f)"><g clip-path="url(#272794ee23)"><rect x="-10.6" width="43.2" fill="#ffffff" height="54.6048" y="-9.3424" fill-opacity="1"/></g></g></g></g></g></g><g clip-path="url(#baf6e78e04)"><path fill="#1800ad" d="M 18.5 15.722656 L 22.164062 15.722656 L 22.164062 13.257812 L 18.5 13.257812 Z M 19.960938 14.257812 L 20.703125 14.257812 C 20.832031 14.257812 20.9375 14.363281 20.9375 14.488281 C 20.9375 14.617188 20.832031 14.71875 20.703125 14.71875 L 19.960938 14.71875 C 19.832031 14.71875 19.730469 14.617188 19.730469 14.488281 C 19.730469 14.363281 19.832031 14.257812 19.960938 14.257812 Z M 18.5 18.648438 L 22.164062 18.648438 L 22.164062 16.183594 L 18.5 16.183594 Z M 19.960938 17.183594 L 20.703125 17.183594 C 20.832031 17.183594 20.9375 17.289062 20.9375 17.414062 C 20.9375 17.542969 20.832031 17.644531 20.703125 17.644531 L 19.960938 17.644531 C 19.832031 17.644531 19.730469 17.542969 19.730469 17.414062 C 19.730469 17.289062 19.832031 17.183594 19.960938 17.183594 Z M 18.910156 5.578125 L 18.910156 10.625 L 22.164062 10.625 L 22.164062 5.578125 Z M 20.121094 8.882812 C 19.6875 8.882812 19.335938 8.53125 19.335938 8.101562 C 19.335938 7.667969 19.6875 7.316406 20.121094 7.316406 C 20.554688 7.316406 20.90625 7.667969 20.90625 8.101562 C 20.90625 8.53125 20.554688 8.882812 20.121094 8.882812 Z M 18.449219 5.578125 L 15.195312 5.578125 L 15.195312 10.625 L 18.449219 10.625 Z M 17.238281 8.882812 C 16.804688 8.882812 16.453125 8.53125 16.453125 8.101562 C 16.453125 7.667969 16.804688 7.316406 17.238281 7.316406 C 17.671875 7.316406 18.023438 7.667969 18.023438 8.101562 C 18.023438 8.53125 17.671875 8.882812 17.238281 8.882812 Z M 15.773438 11.085938 L 21.585938 11.085938 L 21.585938 11.78125 L 15.773438 11.78125 Z M 17.5625 8.101562 C 17.5625 8.277344 17.417969 8.421875 17.238281 8.421875 C 17.058594 8.421875 16.914062 8.277344 16.914062 8.101562 C 16.914062 7.921875 17.058594 7.777344 17.238281 7.777344 C 17.417969 7.777344 17.5625 7.921875 17.5625 8.101562 Z M 20.445312 8.101562 C 20.445312 8.277344 20.300781 8.421875 20.121094 8.421875 C 19.941406 8.421875 19.796875 8.277344 19.796875 8.101562 C 19.796875 7.921875 19.941406 7.777344 20.121094 7.777344 C 20.300781 7.777344 20.445312 7.921875 20.445312 8.101562 Z M 11.921875 15.121094 C 11.960938 15.285156 12.042969 15.425781 12.15625 15.539062 L 11.605469 18.15625 C 11.605469 18.160156 11.605469 18.160156 11.605469 18.160156 C 11.605469 18.164062 11.605469 18.167969 11.601562 18.171875 C 11.605469 18.171875 11.605469 18.175781 11.601562 18.175781 L 11.28125 19.707031 C 11.261719 19.816406 11.164062 19.890625 11.058594 19.890625 C 11.042969 19.890625 11.027344 19.886719 11.011719 19.886719 C 10.886719 19.859375 10.804688 19.738281 10.832031 19.613281 L 11.101562 18.316406 L 8.660156 18.007812 C 8.660156 18.007812 8.308594 19.707031 8.308594 19.707031 C 8.285156 19.816406 8.1875 19.890625 8.082031 19.890625 C 8.066406 19.890625 8.050781 19.886719 8.035156 19.886719 C 7.910156 19.859375 7.828125 19.738281 7.855469 19.613281 L 8.496094 16.546875 C 8.589844 16.617188 8.695312 16.667969 8.8125 16.695312 C 8.851562 16.703125 8.890625 16.710938 8.933594 16.714844 L 8.757812 17.554688 L 11.195312 17.863281 C 11.195312 17.863281 11.488281 16.464844 11.488281 16.464844 L 9.8125 16.253906 C 9.851562 16.183594 9.878906 16.113281 9.898438 16.035156 L 9.953125 15.804688 L 11.585938 16.011719 L 11.839844 14.789062 Z M 11.78125 14.546875 L 10.308594 14.359375 L 10.417969 13.910156 L 11.664062 14.066406 Z M 17.132812 17.65625 C 17.132812 17.648438 17.125 17.640625 17.121094 17.632812 L 16.160156 15.792969 L 15.167969 13.886719 L 13.480469 10.65625 L 13.140625 10.828125 L 13.070312 10.863281 L 13.113281 10.949219 L 14.609375 13.8125 L 13.488281 13.957031 L 13.601562 14.410156 L 14.835938 14.246094 L 15.601562 15.714844 C 15.601562 15.714844 13.304688 16.019531 13.304688 16.019531 L 13.15625 15.734375 C 13.109375 15.753906 13.058594 15.769531 13.007812 15.78125 C 12.9375 15.800781 12.867188 15.808594 12.796875 15.808594 C 12.753906 15.808594 12.710938 15.804688 12.667969 15.796875 L 12.960938 16.359375 C 12.964844 16.367188 12.96875 16.375 12.972656 16.386719 L 12.976562 16.386719 L 13.933594 18.222656 C 13.933594 18.226562 13.9375 18.230469 13.9375 18.234375 L 14.738281 19.765625 C 14.777344 19.84375 14.859375 19.890625 14.941406 19.890625 C 14.980469 19.890625 15.015625 19.882812 15.050781 19.863281 C 15.164062 19.804688 15.207031 19.664062 15.148438 19.550781 L 14.496094 18.304688 C 14.496094 18.304688 16.792969 18.003906 16.792969 18.003906 L 17.714844 19.765625 C 17.753906 19.84375 17.835938 19.890625 17.917969 19.890625 C 17.953125 19.890625 17.992188 19.882812 18.023438 19.863281 C 18.136719 19.804688 18.183594 19.664062 18.121094 19.550781 Z M 13.53125 16.453125 L 15.828125 16.152344 L 16.566406 17.566406 L 14.269531 17.871094 Z M 8.601562 15.71875 L 9.199219 13.257812 C 9.296875 13.304688 9.398438 13.328125 9.503906 13.335938 L 10.074219 13.371094 L 9.453125 15.925781 C 9.421875 16.039062 9.351562 16.132812 9.253906 16.195312 C 9.152344 16.257812 9.035156 16.273438 8.921875 16.246094 C 8.902344 16.242188 8.882812 16.234375 8.863281 16.226562 C 8.855469 16.222656 8.847656 16.21875 8.839844 16.21875 C 8.65625 16.128906 8.550781 15.921875 8.601562 15.71875 Z M 12.800781 15.347656 C 12.601562 15.347656 12.417969 15.214844 12.371094 15.011719 L 12.304688 14.742188 C 12.300781 14.734375 12.300781 14.726562 12.296875 14.714844 L 12.195312 14.296875 L 12.191406 14.273438 L 11.925781 13.1875 C 11.902344 13.089844 11.816406 13.019531 11.714844 13.011719 L 10.375 12.929688 L 9.535156 12.875 C 9.402344 12.867188 9.300781 12.792969 9.226562 12.71875 C 9.226562 12.71875 9.226562 12.714844 9.222656 12.714844 C 9.191406 12.683594 9.167969 12.648438 9.148438 12.621094 C 9.007812 12.410156 8.957031 12.128906 9.027344 11.914062 L 9.867188 9.367188 C 9.929688 9.179688 10.0625 9.027344 10.238281 8.933594 C 10.347656 8.882812 10.460938 8.855469 10.574219 8.855469 C 10.652344 8.855469 10.730469 8.867188 10.808594 8.890625 C 10.945312 8.9375 11.304688 9.140625 12.183594 9.988281 C 12.25 10.050781 12.34375 10.070312 12.429688 10.039062 L 13.519531 9.605469 C 13.6875 9.542969 13.792969 9.5625 13.84375 9.667969 C 13.890625 9.78125 13.859375 9.945312 13.746094 10.003906 L 12.308594 10.730469 C 12.136719 10.820312 11.921875 10.601562 11.679688 10.328125 C 11.625 10.269531 11.578125 10.214844 11.53125 10.167969 C 11.472656 10.109375 11.390625 10.085938 11.3125 10.105469 C 11.234375 10.125 11.171875 10.183594 11.148438 10.261719 L 10.691406 11.695312 C 10.671875 11.757812 10.679688 11.828125 10.71875 11.886719 C 10.753906 11.945312 10.8125 11.984375 10.882812 11.992188 L 12.277344 12.171875 C 12.46875 12.199219 12.617188 12.332031 12.664062 12.519531 L 13.089844 14.265625 L 13.222656 14.804688 C 13.25 14.917969 13.230469 15.035156 13.167969 15.136719 C 13.109375 15.234375 13.011719 15.304688 12.898438 15.335938 C 12.867188 15.34375 12.832031 15.347656 12.800781 15.347656 Z M 10.617188 7.628906 C 10.617188 7.207031 10.960938 6.863281 11.382812 6.863281 C 11.804688 6.863281 12.148438 7.207031 12.148438 7.628906 C 12.148438 8.050781 11.804688 8.394531 11.382812 8.394531 C 10.960938 8.394531 10.617188 8.050781 10.617188 7.628906 Z M 10.617188 7.628906 " fill-opacity="1" fill-rule="nonzero"/></g></svg>